<?xml version="1.0" standalone="no"?>
<!DOCTYPE svg PUBLIC "-//W3C//DTD SVG 1.1//EN" "http://www.w3.org/Graphics/SVG/1.1/DTD/svg11.dtd" >
<svg>
<metadata>
Created by FontForge 20090914 at Wed Apr 22 10:45:23 2015
 By www-data
2010 Albert-Jan Pool published by FSI FontShop International GmbH
</metadata>
<defs>
<font id="DINRoundOffc-Medium" horiz-adv-x="1066" >
  <font-face 
    font-family="DIN Round Offc Medium"
    font-weight="500"
    font-stretch="normal"
    units-per-em="2000"
    panose-1="2 11 6 4 2 1 1 2 1 2"
    ascent="1528"
    descent="-472"
    x-height="1014"
    cap-height="1432"
    bbox="-219.2 -493.008 2274 1999"
    underline-thickness="156"
    underline-position="-126"
    unicode-range="U+0020-U+FEFF"
  />
<missing-glyph horiz-adv-x="1147" 
d="M853 1424c16 0 33 -1.33301 51 -4s34.667 -11.667 50 -27s24.333 -32 27 -50s4 -35 4 -51v-1160c0 -16 -1.33301 -33 -4 -51s-11.667 -34.667 -27 -50s-32 -24.333 -50 -27s-35 -4 -51 -4h-559c-16 -0 -33 1.33301 -51 4s-34.667 11.667 -50 27s-24.333 32 -27 50
s-4 35 -4 51v1160c0 16 1.33301 33 4 51s11.667 34.667 27 50s32 24.333 50 27s35 4 51 4h559zM378 192h391v1040h-391v-1040z" />
    <glyph glyph-name=".notdef" horiz-adv-x="1147" 
d="M853 1424c16 0 33 -1.33301 51 -4s34.667 -11.667 50 -27s24.333 -32 27 -50s4 -35 4 -51v-1160c0 -16 -1.33301 -33 -4 -51s-11.667 -34.667 -27 -50s-32 -24.333 -50 -27s-35 -4 -51 -4h-559c-16 -0 -33 1.33301 -51 4s-34.667 11.667 -50 27s-24.333 32 -27 50
s-4 35 -4 51v1160c0 16 1.33301 33 4 51s11.667 34.667 27 50s32 24.333 50 27s35 4 51 4h559zM378 192h391v1040h-391v-1040z" />
    <glyph glyph-name="space" unicode=" " horiz-adv-x="480" 
 />
    <glyph glyph-name="exclam" unicode="!" horiz-adv-x="665" 
d="M259 1285c0 13.333 0.166992 24.666 0.5 33.999s1 17.5 2 24.5s2.5 13.5 4.5 19.5s5 12.667 9 20c8 14.667 20 26.5 36 35.5s34.667 13.5 56 13.5s40 -4.5 56 -13.5s28 -20.833 36 -35.5c4 -7.33301 7 -14 9 -20s3.5 -12.5 4.5 -19.5s1.66699 -15.167 2 -24.5
s0.5 -20.666 0.5 -33.999v-722c0 -13.333 -0.166992 -24.666 -0.5 -33.999s-1 -17.5 -2 -24.5s-2.5 -13.667 -4.5 -20s-5 -12.833 -9 -19.5c-8 -14.667 -20 -26.5 -36 -35.5s-34.667 -13.5 -56 -13.5s-40 4.5 -56 13.5s-28 20.833 -36 35.5c-4 6.66699 -7 13.167 -9 19.5
s-3.5 13 -4.5 20s-1.66699 15.167 -2 24.5s-0.5 20.666 -0.5 33.999v722zM237 124c0 18 3.33301 34.833 10 50.5s16 29.5 28 41.5s25.833 21.333 41.5 28s32.5 10 50.5 10s34.833 -3.33301 50.5 -10s29.5 -16 41.5 -28s21.333 -25.833 28 -41.5s10 -32.5 10 -50.5
s-3.33301 -34.833 -10 -50.5s-16 -29.5 -28 -41.5s-25.833 -21.333 -41.5 -28s-32.5 -10 -50.5 -10s-34.833 3.33301 -50.5 10s-29.5 16 -41.5 28s-21.333 25.833 -28 41.5s-10 32.5 -10 50.5z" />
    <glyph glyph-name="quotedbl" unicode="&#x22;" horiz-adv-x="855" 
d="M237 1436c19.333 0 36.5 -4.16699 51.5 -12.5s26.5 -19.166 34.5 -32.499c2.66699 -5.33301 5.16699 -10.833 7.5 -16.5s4 -12 5 -19s1.83301 -15.167 2.5 -24.5s1 -20.333 1 -33v-211c0 -26 -1.16699 -45.333 -3.5 -58s-6.5 -24.334 -12.5 -35.001
c-8 -14 -19.5 -25 -34.5 -33s-32.167 -12 -51.5 -12s-36.5 4 -51.5 12s-26.5 19 -34.5 33c-6 10.667 -10.167 22.334 -12.5 35.001s-3.5 32 -3.5 58v211c0 12.667 0.333008 23.667 1 33s1.5 17.5 2.5 24.5s2.5 13.333 4.5 19s4.66699 11.167 8 16.5
c8 13.333 19.5 24.166 34.5 32.499s32.167 12.5 51.5 12.5zM618 1436c19.333 0 36.5 -4.16699 51.5 -12.5s26.5 -19.166 34.5 -32.499c2.66699 -5.33301 5.16699 -10.833 7.5 -16.5s4 -12 5 -19s1.83301 -15.167 2.5 -24.5s1 -20.333 1 -33v-211
c0 -26 -1.16699 -45.333 -3.5 -58s-6.5 -24.334 -12.5 -35.001c-8 -14 -19.5 -25 -34.5 -33s-32.167 -12 -51.5 -12s-36.5 4 -51.5 12s-26.5 19 -34.5 33c-6 10.667 -10.167 22.334 -12.5 35.001s-3.5 32 -3.5 58v211c0 12.667 0.333008 23.667 1 33s1.5 17.5 2.5 24.5
s2.5 13.333 4.5 19s4.66699 11.167 8 16.5c8 13.333 19.5 24.166 34.5 32.499s32.167 12.5 51.5 12.5z" />
    <glyph glyph-name="numbersign" unicode="#" horiz-adv-x="1398" 
d="M969 413l-62 -310c-4.66699 -22.667 -9.33398 -40.334 -14.001 -53.001s-12.334 -24.334 -23.001 -35.001c-8.66699 -8.66699 -18.334 -14.667 -29.001 -18s-22 -5 -34 -5c-12.667 0 -25.334 2.16699 -38.001 6.5s-23.667 11.166 -33 20.499
c-16.667 16 -25.334 34 -26.001 54s1.66602 42.667 6.99902 68l54 272h-270l-62 -310c-4.66699 -22.667 -9.33398 -40.334 -14.001 -53.001s-12.334 -24.334 -23.001 -35.001c-8.66699 -8.66699 -18.334 -14.667 -29.001 -18s-22 -5 -34 -5
c-12.667 0 -25.334 2.16699 -38.001 6.5s-23.667 11.166 -33 20.499c-16.667 16 -25.334 34 -26.001 54s1.66602 42.667 6.99902 68l54 272h-74c-22 0 -38.833 1 -50.5 3s-22.5 5.66699 -32.5 11c-12.667 7.33301 -22.834 17.833 -30.501 31.5s-11.5 29.167 -11.5 46.5
s3.83301 32.833 11.5 46.5s17.834 24.167 30.501 31.5c10 6 20.833 9.83301 32.5 11.5s28.5 2.5 50.5 2.5h111l52 261h-96c-22 0 -38.833 1 -50.5 3s-22.5 5.66699 -32.5 11c-12.667 7.33301 -22.834 17.833 -30.501 31.5s-11.5 29.167 -11.5 46.5s3.83301 32.833 11.5 46.5
s17.834 24.167 30.501 31.5c10 6 20.833 9.83301 32.5 11.5s28.5 2.5 50.5 2.5h133l58 287c4.66699 22.667 9.33398 40.334 14.001 53.001s12.334 24.334 23.001 35.001c8.66699 8.66699 18.334 14.667 29.001 18s22 5 34 5c12.667 0 25.334 -2.16699 38.001 -6.5
s23.667 -11.166 33 -20.499c16.667 -16 25.334 -34 26.001 -54s-1.66602 -42.667 -6.99902 -68l-50 -249h270l58 287c4.66699 22.667 9.33398 40.334 14.001 53.001s12.334 24.334 23.001 35.001c8.66699 8.66699 18.334 14.667 29.001 18s22 5 34 5
c12.667 0 25.334 -2.16699 38.001 -6.5s23.667 -11.166 33 -20.499c16.667 -16 25.334 -34 26.001 -54s-1.66602 -42.667 -6.99902 -68l-50 -249h74c22 0 38.833 -0.833008 50.5 -2.5s22.5 -5.5 32.5 -11.5c12.667 -7.33301 22.834 -17.833 30.501 -31.5
s11.5 -29.167 11.5 -46.5s-3.83301 -32.833 -11.5 -46.5s-17.834 -24.167 -30.501 -31.5c-10 -5.33301 -20.833 -9 -32.5 -11s-28.5 -3 -50.5 -3h-111l-52 -261h96c22 0 38.833 -0.833008 50.5 -2.5s22.5 -5.5 32.5 -11.5c12.667 -7.33301 22.834 -17.833 30.501 -31.5
s11.5 -29.167 11.5 -46.5s-3.83301 -32.833 -11.5 -46.5s-17.834 -24.167 -30.501 -31.5c-10 -5.33301 -20.833 -9 -32.5 -11s-28.5 -3 -50.5 -3h-133zM538 597h270l52 261h-270z" />
    <glyph glyph-name="dollar" unicode="$" horiz-adv-x="1182" 
d="M216 747c-36 32.667 -62.498 71.6621 -79.498 116.995s-25.5 97.333 -25.5 156c0 54.667 8.33301 105 25 151s41 86.667 73 122s71.167 64.666 117.5 87.999s98.833 39.333 157.5 48v67c0 22 1 38.833 3 50.5s5.66699 22.5 11 32.5
c7.33301 12.667 17.833 22.834 31.5 30.501s29.167 11.5 46.5 11.5s32.833 -3.83301 46.5 -11.5s24.167 -17.834 31.5 -30.501c6 -10 9.83301 -20.833 11.5 -32.5s2.5 -28.5 2.5 -50.5v-63c22.667 -2 44.334 -5.16699 65.001 -9.5s41.167 -9.66602 61.5 -15.999
s40.833 -14.166 61.5 -23.499s42.667 -20 66 -32c25.333 -13.333 46.166 -29 62.499 -47s24.5 -38.667 24.5 -62c0 -24.667 -8.33301 -46.667 -25 -66c-8 -9.33301 -17.333 -16.833 -28 -22.5s-23.334 -8.5 -38.001 -8.5c-11.333 0 -25 2.83301 -41 8.5
s-31.333 13.167 -46 22.5c-30 18 -58.167 32 -84.5 42s-54.5 17.333 -84.5 22v-432l37 -5c32.667 -5.33301 61.834 -11.166 87.501 -17.499s49 -13.666 70 -21.999s40.167 -18 57.5 -29s33.666 -23.5 48.999 -37.5c77.333 -71.333 116 -168.666 116 -291.999
c0 -58 -10 -110.667 -30 -158s-48 -88.5 -84 -123.5s-79.167 -63.5 -129.5 -85.5s-106.166 -37 -167.499 -45v-106c0 -22 -0.833008 -38.833 -2.5 -50.5s-5.5 -22.5 -11.5 -32.5c-7.33301 -12.667 -17.833 -22.834 -31.5 -30.501s-29.167 -11.5 -46.5 -11.5
s-32.833 3.83301 -46.5 11.5s-24.167 17.834 -31.5 30.501c-5.33301 10 -9 20.833 -11 32.5s-3 28.5 -3 50.5v103c-62.667 4.66699 -117.5 14.834 -164.5 30.501s-92.167 36.5 -135.5 62.5c-18.667 10.667 -34.334 20.834 -47.001 30.501s-23 19.5 -31 29.5
s-13.833 20.167 -17.5 30.5s-5.5 22.166 -5.5 35.499c0 12 2.66699 24.5 8 37.5s12.666 24.167 21.999 33.5c17.333 17.333 38.333 26 63 26c14 0 28 -2.66699 42 -8s30.667 -14.666 50 -27.999c36.667 -25.333 72.5 -45 107.5 -59s73.167 -23.333 114.5 -28v447l-5 1
c-58 8.66699 -108.833 22.167 -152.5 40.5s-82.5 43.166 -116.5 74.499zM865.002 399.995c0 32 -4.33203 60.333 -12.999 85s-23 45.667 -43 63c-16.667 14.667 -36.334 26.5 -59.001 35.5s-52 16.5 -88 22.5v-419c65.333 11.333 115.5 35 150.5 71s52.5 83.333 52.5 142z
M321.003 1026c0 -26 4 -50.333 12 -73s21.333 -42.334 40 -59.001c15.333 -13.333 31.833 -24.5 49.5 -33.5s40.167 -16.5 67.5 -22.5v399c-56 -13.333 -98.167 -38.666 -126.5 -75.999s-42.5 -82.333 -42.5 -135z" />
    <glyph glyph-name="percent" unicode="%" horiz-adv-x="1681" 
d="M1237 1365c0.666992 -9.33301 -0.333008 -18.5 -3 -27.5s-8 -21.5 -16 -37.5l-622 -1242c-8 -16 -14.833 -27.833 -20.5 -35.5s-12.167 -13.834 -19.5 -18.501c-5.33301 -3.33301 -11 -6.16602 -17 -8.49902s-12.333 -3.5 -19 -3.5c-11.333 0 -23 3 -35 9
s-21.5 13.833 -28.5 23.5s-10.833 21.167 -11.5 34.5c-0.666992 9.33301 0.333008 18.5 3 27.5s8 21.5 16 37.5l622 1242c8 16 14.833 27.833 20.5 35.5s12.167 13.834 19.5 18.501c5.33301 3.33301 11 6.16602 17 8.49902s12.333 3.5 19 3.5c11.333 0 23 -3 35 -9
s21.5 -13.833 28.5 -23.5s10.833 -21.167 11.5 -34.5zM524 1158c0 46 -10.333 81.167 -31 105.5s-53 36.5 -97 36.5s-76.333 -12.167 -97 -36.5s-31 -59.5 -31 -105.5v-192c0 -46 10.333 -81.167 31 -105.5s53 -36.5 97 -36.5s76.333 12.167 97 36.5s31 59.5 31 105.5v192z
M677 960c0 -43.333 -7.33301 -81.833 -22 -115.5s-34.667 -62 -60 -85s-55 -40.5 -89 -52.5s-70.667 -18 -110 -18s-76 6 -110 18s-63.667 29.5 -89 52.5s-45.333 51.333 -60 85s-22 72.167 -22 115.5v203c0 43.333 7.33301 82 22 116s34.667 62.667 60 86s55 41 89 53
s70.667 18 110 18s76 -6 110 -18s63.667 -29.667 89 -53s45.333 -52 60 -86s22 -72.667 22 -116v-203zM1413 457c0 46 -10.333 81.167 -31 105.5s-53 36.5 -97 36.5s-76.333 -12.167 -97 -36.5s-31 -59.5 -31 -105.5v-192c0 -46 10.333 -81.167 31 -105.5s53 -36.5 97 -36.5
s76.333 12.167 97 36.5s31 59.5 31 105.5v192zM1566 259c0 -43.333 -7.33301 -81.833 -22 -115.5s-34.667 -62 -60 -85s-55 -40.5 -89 -52.5s-70.667 -18 -110 -18s-76 6 -110 18s-63.667 29.5 -89 52.5s-45.333 51.333 -60 85s-22 72.167 -22 115.5v203
c0 43.333 7.33301 82 22 116s34.667 62.667 60 86s55 41 89 53s70.667 18 110 18s76 -6 110 -18s63.667 -29.667 89 -53s45.333 -52 60 -86s22 -72.667 22 -116v-203z" />
    <glyph glyph-name="ampersand" unicode="&#x26;" horiz-adv-x="1428" 
d="M1262 95c0 -30 -12.9941 -56 -38.9941 -78c-20 -16.667 -42.333 -25 -67 -25c-20 0 -37.167 5.5 -51.5 16.5s-30.166 27.167 -47.499 48.5l-68 81c-15.333 -13.333 -34.333 -28.666 -57 -45.999s-50 -33.666 -82 -48.999s-68.833 -28.333 -110.5 -39
s-89.167 -16 -142.5 -16c-74 0 -139.667 10 -197 30s-105.5 48.5 -144.5 85.5s-68.5 81.5 -88.5 133.5s-30 110.333 -30 175c0 49.333 8.16699 93.833 24.5 133.5s37.666 75.5 63.999 107.5s56.333 61 90 87s68.167 50.667 103.5 74l-50 60.5
c-17.333 21.667 -33.333 45.167 -48 70.5s-26.667 52.5 -36 81.5s-14 60.167 -14 93.5c0 45.333 8.16699 87.333 24.5 126s39.666 72 69.999 100s66.833 50 109.5 66s90.667 24 144 24c50.667 0 96.667 -8 138 -24s76.833 -38.167 106.5 -66.5s52.667 -62 69 -101
s24.5 -81.167 24.5 -126.5c0 -28 -3.66699 -54 -11 -78s-17.666 -46.333 -30.999 -67s-29.333 -39.834 -48 -57.501s-39.334 -34.167 -62.001 -49.5l-104 -72l300 -358c21.333 30 37.833 62.667 49.5 98s19.5 77.333 23.5 126c1.33301 15.333 3.66602 28.666 6.99902 39.999
s7.33301 21 12 29c7.33301 12 17.333 22.167 30 30.5s28.667 12.5 48 12.5c18.667 0 35.167 -4 49.5 -12s25.166 -18.667 32.499 -32c5.33301 -8.66699 9.16602 -18.5 11.499 -29.5s3.5 -25.167 3.5 -42.5c0 -10.667 -1 -24.334 -3 -41.001s-4.83301 -34.667 -8.5 -54
s-8 -38.833 -13 -58.5s-10.5 -37.5 -16.5 -53.5c-10.667 -28.667 -23.834 -56.667 -39.501 -84s-34.167 -53.666 -55.5 -78.999l82 -98c17.333 -21.333 29.666 -38.333 36.999 -51s11 -26.667 11 -42zM531.006 686c-26 -18 -50.499 -35.998 -73.499 -53.998
s-43.167 -37.5 -60.5 -58.5s-31 -44.333 -41 -70s-15 -54.834 -15 -87.501c0 -36 6.5 -68.833 19.5 -98.5s30.833 -55.334 53.5 -77.001s49.667 -38.5 81 -50.5s65.333 -18 102 -18c24 0 47.333 1.83301 70 5.5s45 9.83398 67 18.501s44.167 20.167 66.5 34.5
s45.166 32.166 68.499 53.499zM761.007 1116c0 20 -3.49902 38.6699 -10.499 56.0029s-16.667 32.333 -29 45s-27.333 22.667 -45 30s-36.834 11 -57.501 11c-44 0 -78.333 -13.333 -103 -40s-37 -60 -37 -100c0 -14.667 2.33301 -29.167 7 -43.5s11.667 -29.333 21 -45
s20.833 -32.334 34.5 -50.001s29.5 -36.834 47.5 -57.501l68 46c14 9.33301 27.333 19.166 40 29.499s23.667 21.5 33 33.5s16.833 25 22.5 39s8.5 29.333 8.5 46z" />
    <glyph glyph-name="quotesingle" unicode="'" horiz-adv-x="474" 
d="M237 1436c19.333 0 36.5 -4.16699 51.5 -12.5s26.5 -19.166 34.5 -32.499c2.66699 -5.33301 5.16699 -10.833 7.5 -16.5s4 -12 5 -19s1.83301 -15.167 2.5 -24.5s1 -20.333 1 -33v-211c0 -26 -1.16699 -45.333 -3.5 -58s-6.5 -24.334 -12.5 -35.001
c-8 -14 -19.5 -25 -34.5 -33s-32.167 -12 -51.5 -12s-36.5 4 -51.5 12s-26.5 19 -34.5 33c-6 10.667 -10.167 22.334 -12.5 35.001s-3.5 32 -3.5 58v211c0 12.667 0.333008 23.667 1 33s1.5 17.5 2.5 24.5s2.5 13.333 4.5 19s4.66699 11.167 8 16.5
c8 13.333 19.5 24.166 34.5 32.499s32.167 12.5 51.5 12.5z" />
    <glyph glyph-name="parenleft" unicode="(" horiz-adv-x="635" 
d="M379 247c0 -36 2.33301 -66.168 7 -90.501s12.667 -47.166 24 -68.499c8 -16 18.167 -32 30.5 -48s22.833 -28 31.5 -36c19.333 -17.333 33.5 -33.666 42.5 -48.999s13.5 -32.666 13.5 -51.999c0 -11.333 -2.33301 -22.833 -7 -34.5s-11.667 -22.167 -21 -31.5
c-10 -10.667 -21.5 -18.334 -34.5 -23.001s-25.833 -7 -38.5 -7c-16.667 0 -32.5 4.16699 -47.5 12.5s-32.5 22.5 -52.5 42.5c-22.667 23.333 -43.334 46.666 -62.001 69.999s-35.334 50 -50.001 80c-16.667 33.333 -27.5 67.5 -32.5 102.5s-7.5 75.167 -7.5 120.5v955
c0 44.667 2.5 84.667 7.5 120s15.833 69.666 32.5 102.999c14.667 30 31.334 56.667 50.001 80s39.334 46.666 62.001 69.999c20 20 37.5 34.167 52.5 42.5s30.833 12.5 47.5 12.5c12.667 0 25.5 -2.33301 38.5 -7s24.5 -12.334 34.5 -23.001
c9.33301 -9.33301 16.333 -19.833 21 -31.5s7 -23.167 7 -34.5c0 -19.333 -4.5 -36.666 -13.5 -51.999s-23.167 -31.666 -42.5 -48.999c-8.66699 -8 -19.167 -20 -31.5 -36s-22.5 -32 -30.5 -48c-11.333 -21.333 -19.333 -44.166 -24 -68.499s-7 -54.5 -7 -90.5v-931z" />
    <glyph glyph-name="parenright" unicode=")" horiz-adv-x="635" 
d="M256 1178c0 36 -2.33301 66.168 -7 90.501s-12.667 47.166 -24 68.499c-8 16 -18.167 32 -30.5 48s-22.833 28 -31.5 36c-19.333 17.333 -33.5 33.666 -42.5 48.999s-13.5 32.666 -13.5 51.999c0 11.333 2.33301 22.833 7 34.5s11.667 22.167 21 31.5
c10 10.667 21.5 18.334 34.5 23.001s25.833 7 38.5 7c16.667 0 32.5 -4.16699 47.5 -12.5s32.5 -22.5 52.5 -42.5c22.667 -23.333 43.334 -46.666 62.001 -69.999s35.334 -50 50.001 -80c16.667 -33.333 27.5 -67.666 32.5 -102.999s7.5 -75.333 7.5 -120v-955
c0 -45.333 -2.5 -85.5 -7.5 -120.5s-15.833 -69.167 -32.5 -102.5c-14.667 -30 -31.334 -56.667 -50.001 -80s-39.334 -46.666 -62.001 -69.999c-20 -20 -37.5 -34.167 -52.5 -42.5s-30.833 -12.5 -47.5 -12.5c-12.667 0 -25.5 2.33301 -38.5 7s-24.5 12.334 -34.5 23.001
c-9.33301 9.33301 -16.333 19.833 -21 31.5s-7 23.167 -7 34.5c0 19.333 4.5 36.666 13.5 51.999s23.167 31.666 42.5 48.999c8.66699 8 19.167 20 31.5 36s22.5 32 30.5 48c11.333 21.333 19.333 44.166 24 68.499s7 54.5 7 90.5v931z" />
    <glyph glyph-name="asterisk" unicode="*" horiz-adv-x="954" 
d="M404 1183v155c0 17.333 0.666992 30.666 2 39.999s4.33301 18 9 26c13.333 22.667 34 34 62 34s48.667 -11.333 62 -34c4.66699 -8 7.66699 -16.667 9 -26s2 -22.666 2 -39.999v-155l133 80c15.333 9.33301 27.5 15.5 36.5 18.5s18.167 4.83301 27.5 5.5
c25.333 1.33301 45.666 -10.334 60.999 -35.001c14 -24 14.667 -47.333 2 -70c-4.66699 -7.33301 -10.667 -14.166 -18 -20.499s-18.666 -14.166 -33.999 -23.499l-140 -84l140 -84c15.333 -9.33301 26.666 -17.166 33.999 -23.499s13.333 -13.166 18 -20.499
c12.667 -22.667 12 -46 -2 -70c-15.333 -24.667 -35.666 -36.334 -60.999 -35.001c-9.33301 0.666992 -18.5 2.5 -27.5 5.5s-21.167 9.16699 -36.5 18.5l-133 80v-155c0 -17.333 -0.666992 -30.666 -2 -39.999s-4.33301 -18 -9 -26c-13.333 -22.667 -34 -34 -62 -34
s-48.667 11.333 -62 34c-4.66699 8 -7.66699 16.667 -9 26s-2 22.666 -2 39.999v155l-133 -80c-15.333 -9.33301 -27.5 -15.5 -36.5 -18.5s-18.167 -4.83301 -27.5 -5.5c-25.333 -1.33301 -45.666 10.334 -60.999 35.001c-14 24 -14.667 47.333 -2 70
c4.66699 7.33301 10.667 14.166 18 20.499s18.666 14.166 33.999 23.499l140 84l-140 84c-15.333 9.33301 -26.666 17.166 -33.999 23.499s-13.333 13.166 -18 20.499c-12.667 22.667 -12 46 2 70c15.333 24.667 35.666 36.334 60.999 35.001
c9.33301 -0.666992 18.5 -2.5 27.5 -5.5s21.167 -9.16699 36.5 -18.5z" />
    <glyph glyph-name="plus" unicode="+" 
d="M441 463h-222c-22 0 -38.833 1 -50.5 3s-22.5 5.66699 -32.5 11c-12.667 7.33301 -22.834 17.833 -30.501 31.5s-11.5 29.167 -11.5 46.5s3.83301 32.833 11.5 46.5s17.834 24.167 30.501 31.5c10 6 20.833 9.83301 32.5 11.5s28.5 2.5 50.5 2.5h222v222
c0 22 1 38.833 3 50.5s5.66699 22.5 11 32.5c7.33301 12.667 17.833 22.834 31.5 30.501s29.167 11.5 46.5 11.5s32.833 -3.83301 46.5 -11.5s24.167 -17.834 31.5 -30.501c6 -10 9.83301 -20.833 11.5 -32.5s2.5 -28.5 2.5 -50.5v-222h222c22 0 38.833 -0.833008 50.5 -2.5
s22.5 -5.5 32.5 -11.5c12.667 -7.33301 22.834 -17.833 30.501 -31.5s11.5 -29.167 11.5 -46.5s-3.83301 -32.833 -11.5 -46.5s-17.834 -24.167 -30.501 -31.5c-10 -5.33301 -20.833 -9 -32.5 -11s-28.5 -3 -50.5 -3h-222v-222c0 -22 -0.833008 -38.833 -2.5 -50.5
s-5.5 -22.5 -11.5 -32.5c-7.33301 -12.667 -17.833 -22.834 -31.5 -30.501s-29.167 -11.5 -46.5 -11.5s-32.833 3.83301 -46.5 11.5s-24.167 17.834 -31.5 30.501c-5.33301 10 -9 20.833 -11 32.5s-3 28.5 -3 50.5v222z" />
    <glyph glyph-name="comma" unicode="," horiz-adv-x="518" 
d="M279 -149c-7.33301 -22.667 -14.166 -39.834 -20.499 -51.501s-14.166 -21.834 -23.499 -30.501c-8.66699 -7.33301 -17.667 -13 -27 -17s-20.666 -6 -33.999 -6c-10 0 -20.5 1.5 -31.5 4.5s-21.5 7.66699 -31.5 14s-18.833 14.5 -26.5 24.5s-12.5 22 -14.5 36
c-2 12.667 -2 25.167 0 37.5s6.66699 30.166 14 53.499l88 264c7.33301 22.667 14.166 39.834 20.499 51.501s14.166 21.834 23.499 30.501c8.66699 7.33301 17.667 13 27 17s20.666 6 33.999 6c10 0 20.5 -1.5 31.5 -4.5s21.5 -7.66699 31.5 -14s18.833 -14.5 26.5 -24.5
s12.5 -22 14.5 -36c2 -12.667 2 -25.167 0 -37.5s-6.66699 -30.166 -14 -53.499z" />
    <glyph glyph-name="hyphen" unicode="-" horiz-adv-x="854" 
d="M252 463c-22 0 -38.833 1 -50.5 3s-22.5 5.66699 -32.5 11c-12.667 7.33301 -22.834 17.833 -30.501 31.5s-11.5 29.167 -11.5 46.5s3.83301 32.833 11.5 46.5s17.834 24.167 30.501 31.5c10 6 20.833 9.83301 32.5 11.5s28.5 2.5 50.5 2.5h350
c22 0 38.833 -0.833008 50.5 -2.5s22.5 -5.5 32.5 -11.5c12.667 -7.33301 22.834 -17.833 30.501 -31.5s11.5 -29.167 11.5 -46.5s-3.83301 -32.833 -11.5 -46.5s-17.834 -24.167 -30.501 -31.5c-10 -5.33301 -20.833 -9 -32.5 -11s-28.5 -3 -50.5 -3h-350z" />
    <glyph glyph-name="period" unicode="." horiz-adv-x="558" 
d="M425 140c0 -20 -3.83301 -38.833 -11.5 -56.5s-18.167 -33.167 -31.5 -46.5s-28.833 -23.833 -46.5 -31.5s-36.5 -11.5 -56.5 -11.5s-38.833 3.83301 -56.5 11.5s-33.167 18.167 -46.5 31.5s-23.833 28.833 -31.5 46.5s-11.5 36.5 -11.5 56.5s3.83301 38.667 11.5 56
s18.167 32.5 31.5 45.5s28.833 23.333 46.5 31s36.5 11.5 56.5 11.5s38.833 -3.83301 56.5 -11.5s33.167 -18 46.5 -31s23.833 -28.167 31.5 -45.5s11.5 -36 11.5 -56z" />
    <glyph glyph-name="slash" unicode="/" horiz-adv-x="761" 
d="M225 -58c-4.66699 -13.333 -9.5 -26 -14.5 -38s-11.167 -22.5 -18.5 -31.5s-16.333 -16 -27 -21s-23.667 -7.5 -39 -7.5c-23.333 0 -43.666 6.33301 -60.999 19s-28.666 26.667 -33.999 42s-6.33301 31 -3 47s8 33 14 51l494 1479c4.66699 13.333 9.5 26 14.5 38
s11.167 22.5 18.5 31.5s16.333 16 27 21s23.667 7.5 39 7.5c23.333 0 43.666 -6.33301 60.999 -19s28.666 -26.667 33.999 -42s6.33301 -31 3 -47s-8 -33 -14 -51z" />
    <glyph glyph-name="zero" unicode="0" 
d="M944 396c0 -63.333 -10.833 -120.333 -32.5 -171s-51 -93.5 -88 -128.5s-80.667 -61.833 -131 -80.5s-103.833 -28 -160.5 -28s-109.834 9.33301 -159.501 28s-93 45.5 -130 80.5s-66.333 77.833 -88 128.5s-32.5 107.667 -32.5 171v632
c0 63.333 10.833 120.333 32.5 171s51 93.5 88 128.5s80.333 61.833 130 80.5s102.834 28 159.501 28s110.167 -9.33301 160.5 -28s94 -45.5 131 -80.5s66.333 -77.833 88 -128.5s32.5 -107.667 32.5 -171v-632zM740 1020c0 34 -4.66699 65.167 -14 93.5
s-23 52.833 -41 73.5s-39.833 36.667 -65.5 48s-54.834 17 -87.501 17c-32 0 -60.667 -5.66699 -86 -17s-47 -27.333 -65 -48s-31.667 -45.167 -41 -73.5s-14 -59.5 -14 -93.5v-616c0 -34 4.66699 -65.167 14 -93.5s23 -52.833 41 -73.5s39.667 -36.667 65 -48
s54 -17 86 -17c32.667 0 61.834 5.66699 87.501 17s47.5 27.333 65.5 48s31.667 45.167 41 73.5s14 59.5 14 93.5v616z" />
    <glyph glyph-name="one" unicode="1" 
d="M492 1377c15.333 15.333 31.9951 28.334 49.9951 39.001s38.667 16 62 16c31.333 0 57 -10 77 -30c13.333 -14 21.666 -30 24.999 -48s5 -37.667 5 -59v-1164c0 -24.667 -1 -43 -3 -55s-6 -24 -12 -36c-7.33301 -13.333 -18.166 -24.666 -32.499 -33.999
s-32.5 -14 -54.5 -14s-40.167 4.66699 -54.5 14s-25.166 20.666 -32.499 33.999c-6 12 -10 24 -12 36s-3 30.333 -3 55v991l-141 -141c-17.333 -17.333 -30.666 -29.333 -39.999 -36s-19.666 -11.667 -30.999 -15c-15.333 -4 -30.666 -3.83301 -45.999 0.5
s-29.666 13.166 -42.999 26.499s-22 27.333 -26 42s-4 29.667 0 45c3.33301 11.333 8.33301 21.833 15 31.5s18.667 23.167 36 40.5z" />
    <glyph glyph-name="two" unicode="2" 
d="M837 184c22 0 38.8379 -0.832031 50.5049 -2.49902s22.5 -5.5 32.5 -11.5c13.333 -7.33301 23.666 -17.833 30.999 -31.5s11 -29.167 11 -46.5s-3.66699 -32.833 -11 -46.5s-17.666 -24.167 -30.999 -31.5c-10 -5.33301 -20.833 -9 -32.5 -11s-28.5 -3 -50.5 -3h-576
c-25.333 0 -47.5 1.33301 -66.5 4s-35.833 11.334 -50.5 26.001c-8 8.66699 -14.5 19 -19.5 31s-7.5 25.333 -7.5 40c0 21.333 4.66699 40.166 14 56.499s23.666 36.5 42.999 60.5l476 596c15.333 19.333 29 38.166 41 56.499s22.167 37 30.5 56s14.666 38.833 18.999 59.5
s6.5 42.667 6.5 66c0 28.667 -4.5 55.334 -13.5 80.001s-22.167 45.834 -39.5 63.501s-38.833 31.5 -64.5 41.5s-55.167 15 -88.5 15c-50.667 0 -93.834 -12.167 -129.501 -36.5s-63.5 -66.5 -83.5 -126.5c-5.33301 -16 -11 -29.5 -17 -40.5s-13.667 -20.833 -23 -29.5
c-6 -6 -14.333 -11 -25 -15s-23 -6 -37 -6c-32 0 -56.333 10.667 -73 32c-16 20 -24 44.333 -24 73c0 16.667 2.5 35 7.5 55s12.167 40.333 21.5 61s21.166 41 35.499 61s30.833 38.333 49.5 55c37.333 32.667 79.5 57.667 126.5 75s102.833 26 167.5 26
c62.667 0 119.5 -8.5 170.5 -25.5s94.667 -41.667 131 -74s64.333 -72 84 -119s29.5 -100.833 29.5 -161.5c0 -36.667 -3.33301 -69.834 -10 -99.501s-16.167 -57.834 -28.5 -84.501s-27.333 -52.667 -45 -78s-37.834 -52 -60.501 -80l-423 -530h452z" />
    <glyph glyph-name="three" unicode="3" 
d="M522 1436c59.333 0 114.502 -8.83301 165.502 -26.5s95.167 -43.167 132.5 -76.5s66.666 -74.166 87.999 -122.499s32 -103.5 32 -165.5c0 -78.667 -16.5 -143 -49.5 -193s-77.833 -88.667 -134.5 -116c60.667 -24.667 109.167 -64.334 145.5 -119.001
s54.5 -126 54.5 -214c0 -68.667 -11.667 -128.834 -35 -180.501s-54.833 -94.834 -94.5 -129.501s-86 -60.834 -139 -78.501s-109.167 -26.5 -168.5 -26.5c-72 0 -137 11.333 -195 34s-106.333 56 -145 100c-20.667 23.333 -38.834 51.5 -54.501 84.5
s-23.5 66.5 -23.5 100.5c0 17.333 3 32.5 9 45.5s13.667 24.167 23 33.5c10 10 21.667 17.667 35 23s27 8 41 8c26 0 46.333 -9.33301 61 -28c9.33301 -11.333 16.5 -26.5 21.5 -45.5s13.833 -40.833 26.5 -65.5c17.333 -36 42.5 -62.667 75.5 -80s75.167 -26 126.5 -26
c32.667 0 63.167 5.16699 91.5 15.5s53 25.5 74 45.5s37.333 44.5 49 73.5s17.5 62.5 17.5 100.5c0 72.667 -19.667 129.334 -59 170.001s-96.333 61.667 -171 63c-13.333 0.666992 -25.166 1.83398 -35.499 3.50098s-19.833 5.16699 -28.5 10.5
c-27.333 15.333 -41 40.333 -41 75s13.667 59.667 41 75c16 9.33301 37.333 14 64 14c68.667 1.33301 121.334 21 158.001 59s55 91 55 159c0 34.667 -5.33301 65.334 -16 92.001s-25.5 49.167 -44.5 67.5s-41.5 32.333 -67.5 42s-54.333 14.5 -85 14.5
c-54 0 -96.833 -11.333 -128.5 -34s-55.834 -59.334 -72.501 -110.001c-6.66699 -19.333 -12.834 -33.833 -18.501 -43.5s-13.167 -18.5 -22.5 -26.5c-7.33301 -6 -15.5 -10.667 -24.5 -14s-19.167 -5 -30.5 -5c-28 0 -52.333 9.33301 -73 28
c-9.33301 8.66699 -17 19.5 -23 32.5s-9 28.167 -9 45.5c0 32 7.5 63.333 22.5 94s32.5 57.334 52.5 80.001c40.667 46.667 87.667 81.167 141 103.5s115.333 33.5 186 33.5z" />
    <glyph glyph-name="four" unicode="4" 
d="M609 219l-422.001 0.00195312c-24.667 0 -45 1.66699 -61 5s-30.667 10.333 -44 21c-11.333 8.66699 -20.166 19.667 -26.499 33s-9.5 27.666 -9.5 42.999c0 12 2.33301 24.833 7 38.5s11.334 29.167 20.001 46.5l469 940c10.667 21.333 19.667 36.666 27 45.999
s15.666 17.666 24.999 24.999c14 10 30 15 48 15c12 0 23.667 -2.33301 35 -7s21.5 -11 30.5 -19s16.333 -17.5 22 -28.5s8.5 -22.833 8.5 -35.5c0 -11.333 -1.83301 -22.666 -5.5 -33.999s-10.5 -27 -20.5 -47l-424 -850h321v208c0 24.667 1 43 3 55s6 24 12 36
c7.33301 13.333 18.166 24.666 32.499 33.999s32.5 14 54.5 14s40.167 -4.66699 54.5 -14s25.166 -20.666 32.499 -33.999c6 -12 10 -24 12 -36s3 -30.333 3 -55v-208h68c23.333 0 41 -0.833008 53 -2.5s23.667 -5.5 35 -11.5c13.333 -7.33301 24 -18 32 -32
s12 -30.667 12 -50s-4 -36 -12 -50s-18.667 -24.667 -32 -32c-11.333 -6 -23 -9.83301 -35 -11.5s-29.667 -2.5 -53 -2.5h-68v-88c0 -24.667 -1 -43 -3 -55s-6 -24 -12 -36c-7.33301 -13.333 -18.166 -24.666 -32.499 -33.999s-32.5 -14 -54.5 -14s-40.167 4.66699 -54.5 14
s-25.166 20.666 -32.499 33.999c-6 12 -10 24 -12 36s-3 30.333 -3 55v88z" />
    <glyph glyph-name="five" unicode="5" 
d="M535 -12c-63.333 0 -119.174 7.66895 -167.507 23.002s-92.166 40.666 -131.499 75.999c-29.333 26.667 -53.833 58.834 -73.5 96.501s-29.5 77.167 -29.5 118.5c0 17.333 2.33301 32.333 7 45s11.667 23.667 21 33c17.333 19.333 41.333 29 72 29
c15.333 0 28 -1.66699 38 -5s18.667 -8.66602 26 -15.999c4.66699 -4 8.83398 -8.33301 12.501 -13s7.16699 -10.334 10.5 -17.001s6.83301 -14.667 10.5 -24s7.83398 -21 12.501 -35c12.667 -39.333 34.334 -70.333 65.001 -93s73 -34 127 -34
c65.333 0 116.333 18.333 153 55c14.667 14.667 26.5 31.5 35.5 50.5s15.833 39.167 20.5 60.5s7.66699 43.666 9 66.999s2 47 2 71c0 42 -3 81.167 -9 117.5s-16.833 68 -32.5 95s-37 48.167 -64 63.5s-61.5 23 -103.5 23c-21.333 0 -40.833 -1.5 -58.5 -4.5
s-34.167 -7.83301 -49.5 -14.5s-29.666 -15.334 -42.999 -26.001s-26.333 -24 -39 -40c-6.66699 -8 -13.167 -14.667 -19.5 -20s-13.5 -10.666 -21.5 -15.999c-14 -9.33301 -33 -14 -57 -14c-13.333 0 -25.833 1.83301 -37.5 5.5s-22.834 10.834 -33.501 21.501
c-10.667 10 -18.167 22.667 -22.5 38s-6.5 32 -6.5 50v553c0 12.667 1.16699 27.5 3.5 44.5s10.166 32.167 23.499 45.5s27.5 21 42.5 23s30.167 3 45.5 3h536c22 0 38.833 -0.833008 50.5 -2.5s22.5 -5.5 32.5 -11.5c12.667 -7.33301 22.834 -17.833 30.501 -31.5
s11.5 -29.167 11.5 -46.5s-3.83301 -32.833 -11.5 -46.5s-17.834 -24.167 -30.501 -31.5c-10 -5.33301 -20.833 -9 -32.5 -11s-28.5 -3 -50.5 -3h-466v-373c25.333 25.333 57.333 45.5 96 60.5s85.334 22.5 140.001 22.5c56.667 0 106.334 -8.16699 149.001 -24.5
s78.334 -38.833 107.001 -67.5c26.667 -26.667 48.167 -55.334 64.5 -86.001s28.833 -62.334 37.5 -95.001s14.5 -66 17.5 -100s4.5 -67.667 4.5 -101c0 -38 -1.5 -74.167 -4.5 -108.5s-8.66699 -67 -17 -98s-20.5 -60.667 -36.5 -89s-37 -55.5 -63 -81.5
c-32 -32 -72.667 -58.5 -122 -79.5s-109.666 -31.5 -180.999 -31.5z" />
    <glyph glyph-name="six" unicode="6" 
d="M455 812c19.333 8 39.6689 13.666 61.002 16.999s43 5 65 5c51.333 0 99.666 -9.66699 144.999 -29s85 -47 119 -83s60.833 -79.333 80.5 -130s29.5 -107.334 29.5 -170.001c0 -65.333 -10.333 -124.666 -31 -177.999s-49.5 -99 -86.5 -137s-81.333 -67.333 -133 -88
s-108.167 -31 -169.5 -31s-117.833 9.83301 -169.5 29.5s-96.167 47.834 -133.5 84.501s-66.5 81.334 -87.5 134.001s-31.5 112 -31.5 178c0 56 9.16699 111.5 27.5 166.5s42.5 112.167 72.5 171.5l297 594c10.667 21.333 19.667 36.666 27 45.999
s15.666 17.666 24.999 24.999c14 10 30 15 48 15c12 0 23.667 -2.33301 35 -7s21.5 -11 30.5 -19s16.333 -17.5 22 -28.5s8.5 -22.833 8.5 -35.5c0 -11.333 -1.83301 -22.666 -5.5 -33.999s-10.5 -27 -20.5 -47zM751.003 417.999c0 34.667 -5 67 -15 97s-24.333 56 -43 78
s-41.5 39.333 -68.5 52s-57.5 19 -91.5 19c-32 0 -61.333 -5.66699 -88 -17s-49.5 -27.5 -68.5 -48.5s-33.667 -46.667 -44 -77s-15.5 -64.833 -15.5 -103.5c0 -38 5.16699 -72.167 15.5 -102.5s25 -56.166 44 -77.499s41.833 -37.666 68.5 -48.999s56 -17 88 -17
s61.333 5.66699 88 17s49.667 27.666 69 48.999s34.333 47.166 45 77.499s16 64.5 16 102.5z" />
    <glyph glyph-name="seven" unicode="7" 
d="M535 88c-8 -21.333 -15.0049 -37.6689 -21.0049 -49.002s-13.333 -20.666 -22 -27.999c-14.667 -12.667 -32.667 -19 -54 -19c-11.333 0 -22.666 1.83301 -33.999 5.5s-21.666 8.83398 -30.999 15.501s-17.166 14.667 -23.499 24s-10.166 19.666 -11.499 30.999
c-1.33301 12 -0.833008 24.167 1.5 36.5s7.5 29.166 15.5 50.499l407 1085h-434v-91c0 -24.667 -1 -43 -3 -55s-6 -24 -12 -36c-7.33301 -13.333 -18.166 -24.666 -32.499 -33.999s-32.5 -14 -54.5 -14s-40.167 4.66699 -54.5 14s-25.166 20.666 -32.499 33.999
c-6 12 -10 24 -12 36s-3 30.333 -3 55v150c0 15.333 1.16699 31.5 3.5 48.5s10.833 32.833 25.5 47.5s30.5 23.167 47.5 25.5s33.167 3.5 48.5 3.5h593c29.333 0 52.333 -1.66699 69 -5s32 -11.333 46 -24c11.333 -10 19.166 -21 23.499 -33s6.5 -25.667 6.5 -41
c0 -11.333 -1.83301 -23.666 -5.5 -36.999s-9.5 -30.666 -17.5 -51.999z" />
    <glyph glyph-name="eight" unicode="8" 
d="M972 402c0 -64.667 -11.4932 -122.5 -34.4932 -173.5s-54.333 -94.333 -94 -130s-86.334 -63 -140.001 -82s-110.834 -28.5 -171.501 -28.5c-61.333 0 -118.5 9.5 -171.5 28.5s-99.333 46.333 -139 82s-70.834 79 -93.501 130s-34 108.833 -34 173.5
c0 42.667 5.5 81.167 16.5 115.5s25.667 65.166 44 92.499s39.166 51.333 62.499 72s47.666 38.667 72.999 54c-23.333 14 -45.333 30.833 -66 50.5s-38.834 42.167 -54.501 67.5s-28.167 53.666 -37.5 84.999s-14 65.666 -14 102.999c0 59.333 10.667 113.333 32 162
s50.666 90.167 87.999 124.5s81.166 60.833 131.499 79.5s104.5 28 162.5 28s112.333 -9.33301 163 -28s94.667 -45.167 132 -79.5s66.833 -75.833 88.5 -124.5s32.5 -102.667 32.5 -162c0 -37.333 -4.66699 -71.666 -14 -102.999s-21.833 -59.666 -37.5 -84.999
s-34 -47.833 -55 -67.5s-42.833 -36.5 -65.5 -50.5c24.667 -15.333 48.834 -33.333 72.501 -54s44.667 -44.667 63 -72s33 -58.166 44 -92.499s16.5 -72.833 16.5 -115.5zM533.007 821c30 0 58.001 5.33594 84.001 16.0029s48.5 25.5 67.5 44.5s33.833 41.667 44.5 68
s16 55.166 16 86.499c0 30.667 -5.33301 59.167 -16 85.5s-25.334 49.166 -44.001 68.499s-41 34.5 -67 45.5s-54.333 16.5 -85 16.5s-59 -5.5 -85 -16.5s-48.333 -26 -67 -45s-33.334 -41.833 -44.001 -68.5s-16 -55.334 -16 -86.001s5.33301 -59.167 16 -85.5
s25.334 -49 44.001 -68s41 -34 67 -45s54.333 -16.5 85 -16.5zM767.008 408.003c0 33.333 -6 64.333 -18 93s-28.5 53.5 -49.5 74.5s-45.833 37.5 -74.5 49.5s-59.334 18 -92.001 18s-63.334 -6 -92.001 -18s-53.5 -28.5 -74.5 -49.5s-37.667 -45.833 -50 -74.5
s-18.5 -59.667 -18.5 -93s6.16699 -64.5 18.5 -93.5s29 -54 50 -75s45.833 -37.5 74.5 -49.5s59.334 -18 92.001 -18s63.334 6 92.001 18s53.5 28.5 74.5 49.5s37.5 46 49.5 75s18 60.167 18 93.5z" />
    <glyph glyph-name="nine" unicode="9" 
d="M611 612c-19.333 -8 -39.6689 -13.666 -61.002 -16.999s-43 -5 -65 -5c-51.333 0 -99.666 9.66699 -144.999 29s-85 47 -119 83s-60.833 79.333 -80.5 130s-29.5 107.334 -29.5 170.001c0 65.333 10.333 124.666 31 177.999s49.5 99 86.5 137s81.333 67.333 133 88
s108.167 31 169.5 31s117.833 -9.83301 169.5 -29.5s96.167 -47.834 133.5 -84.501s66.5 -81.334 87.5 -134.001s31.5 -112 31.5 -178c0 -56 -9.16699 -111.5 -27.5 -166.5s-42.5 -112.167 -72.5 -171.5l-297 -594c-10.667 -21.333 -19.667 -36.666 -27 -45.999
s-15.666 -17.666 -24.999 -24.999c-14 -10 -30 -15 -48 -15c-12 0 -23.833 2.33301 -35.5 7s-22 11 -31 19s-16.167 17.5 -21.5 28.5s-8 22.833 -8 35.5c0 11.333 1.83301 22.666 5.5 33.999s10.5 27 20.5 47zM314.997 1006c0 -35.333 5 -68 15 -98s24.333 -56 43 -78
s41.5 -39.167 68.5 -51.5s57.5 -18.5 91.5 -18.5c32 0 61.167 5.66699 87.5 17s49 27.5 68 48.5s33.833 46.667 44.5 77s16 64.833 16 103.5c0 38 -5.33301 72.167 -16 102.5s-25.5 56.166 -44.5 77.499s-41.667 37.666 -68 48.999s-55.5 17 -87.5 17
s-61.333 -5.66699 -88 -17s-49.667 -27.666 -69 -48.999s-34.333 -47.166 -45 -77.499s-16 -64.5 -16 -102.5z" />
    <glyph glyph-name="colon" unicode=":" horiz-adv-x="608" 
d="M476 140c0 -20 -3.83301 -38.833 -11.5 -56.5s-18.167 -33.167 -31.5 -46.5s-28.833 -23.833 -46.5 -31.5s-36.5 -11.5 -56.5 -11.5s-38.833 3.83301 -56.5 11.5s-33.167 18.167 -46.5 31.5s-23.833 28.833 -31.5 46.5s-11.5 36.5 -11.5 56.5s3.83301 38.667 11.5 56
s18.167 32.5 31.5 45.5s28.833 23.333 46.5 31s36.5 11.5 56.5 11.5s38.833 -3.83301 56.5 -11.5s33.167 -18 46.5 -31s23.833 -28.167 31.5 -45.5s11.5 -36 11.5 -56zM476 695c0 -20 -3.83301 -38.833 -11.5 -56.5s-18.167 -33.167 -31.5 -46.5
s-28.833 -23.833 -46.5 -31.5s-36.5 -11.5 -56.5 -11.5s-38.833 3.83301 -56.5 11.5s-33.167 18.167 -46.5 31.5s-23.833 28.833 -31.5 46.5s-11.5 36.5 -11.5 56.5s3.83301 38.667 11.5 56s18.167 32.5 31.5 45.5s28.833 23.333 46.5 31s36.5 11.5 56.5 11.5
s38.833 -3.83301 56.5 -11.5s33.167 -18 46.5 -31s23.833 -28.167 31.5 -45.5s11.5 -36 11.5 -56z" />
    <glyph glyph-name="semicolon" unicode=";" horiz-adv-x="608" 
d="M356 -149c-7.33301 -22.667 -14.166 -39.834 -20.499 -51.501s-14.166 -21.834 -23.499 -30.501c-8.66699 -7.33301 -17.667 -13 -27 -17s-20.666 -6 -33.999 -6c-10 0 -20.5 1.5 -31.5 4.5s-21.5 7.66699 -31.5 14s-18.833 14.5 -26.5 24.5s-12.5 22 -14.5 36
c-2 12.667 -2 25.167 0 37.5s6.66699 30.166 14 53.499l88 264c7.33301 22.667 14.166 39.834 20.499 51.501s14.166 21.834 23.499 30.501c8.66699 7.33301 17.667 13 27 17s20.666 6 33.999 6c10 0 20.5 -1.5 31.5 -4.5s21.5 -7.66699 31.5 -14s18.833 -14.5 26.5 -24.5
s12.5 -22 14.5 -36c2 -12.667 2 -25.167 0 -37.5s-6.66699 -30.166 -14 -53.499zM504 694c0 -20 -3.83301 -38.833 -11.5 -56.5s-18.167 -33.167 -31.5 -46.5s-28.833 -23.833 -46.5 -31.5s-36.5 -11.5 -56.5 -11.5s-38.833 3.83301 -56.5 11.5s-33.167 18.167 -46.5 31.5
s-23.833 28.833 -31.5 46.5s-11.5 36.5 -11.5 56.5s3.83301 38.667 11.5 56s18.167 32.5 31.5 45.5s28.833 23.333 46.5 31s36.5 11.5 56.5 11.5s38.833 -3.83301 56.5 -11.5s33.167 -18 46.5 -31s23.833 -28.167 31.5 -45.5s11.5 -36 11.5 -56z" />
    <glyph glyph-name="less" unicode="&#x3c;" 
d="M151 555c0 18 3 33.3311 9 45.998s13.833 23.667 23.5 33s21 17.666 34 24.999l40.5 22l469 234c20 10 35.667 16.833 47 20.5s22.666 5.5 33.999 5.5c12.667 0 24.5 -2.83301 35.5 -8.5s20.5 -13 28.5 -22s14.333 -19.167 19 -30.5s7 -23 7 -35c0 -18 -5 -34 -15 -48
c-7.33301 -9.33301 -15.666 -17.666 -24.999 -24.999s-24.666 -16.333 -45.999 -27l-380 -190l380 -190c21.333 -10.667 36.666 -19.667 45.999 -27s17.666 -15.666 24.999 -24.999c10 -14 15 -30 15 -48c0 -12 -2.33301 -23.833 -7 -35.5s-11 -22 -19 -31
s-17.5 -16.167 -28.5 -21.5s-22.833 -8 -35.5 -8c-11.333 0 -22.666 1.83301 -33.999 5.5s-27 10.5 -47 20.5l-469 234c-14 6.66699 -27.5 13.834 -40.5 21.501s-24.333 16.167 -34 25.5s-17.5 20.333 -23.5 33s-9 28 -9 46z" />
    <glyph glyph-name="equal" unicode="=" 
d="M219 660c-22 0 -38.833 1 -50.5 3s-22.5 5.66699 -32.5 11c-12.667 7.33301 -22.834 17.833 -30.501 31.5s-11.5 29.167 -11.5 46.5s3.83301 32.833 11.5 46.5s17.834 24.167 30.501 31.5c10 6 20.833 9.83301 32.5 11.5s28.5 2.5 50.5 2.5h628
c22 0 38.833 -0.833008 50.5 -2.5s22.5 -5.5 32.5 -11.5c12.667 -7.33301 22.834 -17.833 30.501 -31.5s11.5 -29.167 11.5 -46.5s-3.83301 -32.833 -11.5 -46.5s-17.834 -24.167 -30.501 -31.5c-10 -5.33301 -20.833 -9 -32.5 -11s-28.5 -3 -50.5 -3h-628zM219 265
c-22 0 -38.833 1 -50.5 3s-22.5 5.66699 -32.5 11c-12.667 7.33301 -22.834 17.833 -30.501 31.5s-11.5 29.167 -11.5 46.5s3.83301 32.833 11.5 46.5s17.834 24.167 30.501 31.5c10 6 20.833 9.83301 32.5 11.5s28.5 2.5 50.5 2.5h628c22 0 38.833 -0.833008 50.5 -2.5
s22.5 -5.5 32.5 -11.5c12.667 -7.33301 22.834 -17.833 30.501 -31.5s11.5 -29.167 11.5 -46.5s-3.83301 -32.833 -11.5 -46.5s-17.834 -24.167 -30.501 -31.5c-10 -5.33301 -20.833 -9 -32.5 -11s-28.5 -3 -50.5 -3h-628z" />
    <glyph glyph-name="greater" unicode="&#x3e;" 
d="M915 555c0 -18 -3 -33.3311 -9 -45.998s-13.833 -23.667 -23.5 -33s-21 -17.833 -34 -25.5s-26.5 -14.834 -40.5 -21.501l-469 -234c-20 -10 -35.667 -16.833 -47 -20.5s-22.666 -5.5 -33.999 -5.5c-12.667 0 -24.5 2.66699 -35.5 8s-20.5 12.5 -28.5 21.5
s-14.333 19.333 -19 31s-7 23.5 -7 35.5c0 18 5 34 15 48c7.33301 9.33301 15.666 17.666 24.999 24.999s24.666 16.333 45.999 27l380 190l-380 190c-21.333 10.667 -36.666 19.667 -45.999 27s-17.666 15.666 -24.999 24.999c-10 14 -15 30 -15 48
c0 12 2.33301 23.667 7 35s11 21.5 19 30.5s17.5 16.333 28.5 22s22.833 8.5 35.5 8.5c11.333 0 22.666 -1.83301 33.999 -5.5s27 -10.5 47 -20.5l469 -234l40.5 -22c13 -7.33301 24.333 -15.666 34 -24.999s17.5 -20.333 23.5 -33s9 -28 9 -46z" />
    <glyph glyph-name="question" unicode="?" horiz-adv-x="1021" 
d="M422 124c0 18 3.33301 34.833 10 50.5s16 29.5 28 41.5s25.833 21.333 41.5 28s32.5 10 50.5 10s34.833 -3.33301 50.5 -10s29.5 -16 41.5 -28s21.333 -25.833 28 -41.5s10 -32.5 10 -50.5s-3.33301 -34.833 -10 -50.5s-16 -29.5 -28 -41.5s-25.833 -21.333 -41.5 -28
s-32.5 -10 -50.5 -10s-34.833 3.33301 -50.5 10s-29.5 16 -41.5 28s-21.333 25.833 -28 41.5s-10 32.5 -10 50.5zM940 1060c0 -26 -2.16895 -50 -6.50195 -72s-10.666 -42.667 -18.999 -62s-18.333 -38.333 -30 -57s-24.5 -37.667 -38.5 -57l-137 -189
c-17.333 -23.333 -29.166 -44.5 -35.499 -63.5s-11.166 -40.833 -14.499 -65.5c-4 -27.333 -13.667 -49.666 -29 -66.999c-18.667 -20.667 -44.334 -31 -77.001 -31c-16.667 0 -31.334 3 -44.001 9s-23.667 14 -33 24c-17.333 19.333 -26 45 -26 77c0 18 1 34.5 3 49.5
s5.5 29.667 10.5 44s11.833 29.166 20.5 44.499s20 32.333 34 51l156 210c17.333 23.333 31.833 47 43.5 71s17.5 52 17.5 84c0 27.333 -4.66699 52.666 -14 75.999s-22.5 43.666 -39.5 60.999s-37.333 31 -61 41s-49.834 15 -78.501 15c-28 0 -54 -4.33301 -78 -13
s-45.667 -22.667 -65 -42c-15.333 -15.333 -27.166 -32.5 -35.499 -51.5s-15.833 -41.167 -22.5 -66.5c-3.33301 -11.333 -7.5 -22.833 -12.5 -34.5s-10.167 -20.5 -15.5 -26.5c-8 -9.33301 -18.167 -16.666 -30.5 -21.999s-26.833 -8 -43.5 -8c-28 0 -51 10 -69 30
c-9.33301 10.667 -15.666 22 -18.999 34s-5 25.667 -5 41c0 18 2.33301 37 7 57s11.5 40.333 20.5 61s20.167 40.834 33.5 60.501s29 38.167 47 55.5c36 34 78.167 60.5 126.5 79.5s101.833 28.5 160.5 28.5c55.333 0 107.333 -8.83301 156 -26.5s91 -42.834 127 -75.501
s64.333 -72.167 85 -118.5s31 -98.166 31 -155.499z" />
    <glyph glyph-name="at" unicode="@" horiz-adv-x="1473" 
d="M1147 468c0 42.667 -2.83301 82.834 -8.5 120.501s-16 70.5 -31 98.5s-35.667 50.167 -62 66.5s-60.5 24.5 -102.5 24.5s-76.167 -8.16699 -102.5 -24.5s-46.833 -38.5 -61.5 -66.5s-24.667 -60.833 -30 -98.5s-8 -77.834 -8 -120.501
c0 -43.333 2.66699 -83.666 8 -120.999s15.333 -69.833 30 -97.5s35.167 -49.5 61.5 -65.5s60.5 -24 102.5 -24s76.167 8 102.5 24s47 37.833 62 65.5s25.333 60.167 31 97.5s8.5 77.666 8.5 120.999zM1144 96c-37.333 -42 -76.1689 -70.5029 -116.502 -85.5029
s-85.5 -22.5 -135.5 -22.5s-95.167 7.5 -135.5 22.5s-74.166 36.167 -101.499 63.5c-23.333 23.333 -42.333 49.333 -57 78s-26 59.667 -34 93s-13.5 68.666 -16.5 105.999s-4.5 76.333 -4.5 117s1.5 79.834 4.5 117.501s8.5 73.167 16.5 106.5s19.333 64.333 34 93
s33.667 54.667 57 78c27.333 27.333 61 48.5 101 63.5s85 22.5 135 22.5c50.667 0 97 -8 139 -24s80.667 -45.333 116 -88l1 117c0 24 -1 46 -3 66s-5.83301 38.667 -11.5 56s-13.167 33.666 -22.5 48.999s-21.333 30.333 -36 45
c-28.667 28.667 -59.834 48.334 -93.501 59.001s-72.5 16 -116.5 16h-255c-44 0 -82.833 -5.33301 -116.5 -16s-64.834 -30.334 -93.501 -59.001c-14.667 -14.667 -26.667 -29.667 -36 -45s-16.833 -31.666 -22.5 -48.999s-9.5 -36 -11.5 -56s-3 -42 -3 -66v-618
c0 -26 1.16699 -47.667 3.5 -65s6 -32.666 11 -45.999s11.5 -25.5 19.5 -36.5s17.667 -22.833 29 -35.5c14 -16 23.833 -29.5 29.5 -40.5s8.5 -23.5 8.5 -37.5c0 -28.667 -11.333 -53.334 -34 -74.001c-20 -17.333 -42.667 -26 -68 -26c-20.667 0 -38 5.5 -52 16.5
s-29.333 25.833 -46 44.5c-16.667 18 -31.167 36.333 -43.5 55s-22.666 39.167 -30.999 61.5s-14.5 47.5 -18.5 75.5s-6 61 -6 99v635c0 74.667 9.16699 141 27.5 199s48.5 108.333 90.5 151s91.167 72.834 147.5 90.501s121.5 26.5 195.5 26.5h296
c71.333 0 135.5 -8.66699 192.5 -26s106.833 -47.666 149.5 -90.999c42 -42.667 72.167 -92.834 90.5 -150.501s27.5 -124.167 27.5 -199.5v-831c0 -24.667 -1 -43 -3 -55s-6 -24 -12 -36c-7.33301 -13.333 -18.166 -24.666 -32.499 -33.999s-32.5 -14 -54.5 -14
c-15.333 0 -29.166 2.5 -41.499 7.5s-22.5 11.5 -30.5 19.5c-6.66699 6.66699 -12.5 15.334 -17.5 26.001s-8.16699 27.667 -9.5 51z" />
    <glyph glyph-name="A" unicode="A" horiz-adv-x="1246" 
d="M623 1093l-228 -623h456zM328 286l-70.9961 -191c-9.33301 -24 -17 -41.667 -23 -53s-14 -21 -24 -29c-17.333 -14 -37 -21 -59 -21c-15.333 0 -30 2.83301 -44 8.5s-25.667 13.5 -35 23.5c-10 10.667 -17 21.5 -21 32.5s-5.83301 22.333 -5.5 34
s2.33301 23.834 6 36.501s8.16699 26 13.5 40l436 1161c7.33301 20.667 14.166 36.167 20.499 46.5s13.833 19.5 22.5 27.5c10.667 10 22.167 17.5 34.5 22.5s27.166 7.5 44.499 7.5s32.166 -2.5 44.499 -7.5s23.833 -12.5 34.5 -22.5c8.66699 -8 16.167 -17.167 22.5 -27.5
s13.166 -25.833 20.499 -46.5l436 -1161c5.33301 -14 9.83301 -27.333 13.5 -40s5.66699 -24.834 6 -36.501s-1.5 -23 -5.5 -34s-11 -21.833 -21 -32.5c-9.33301 -10 -21 -17.833 -35 -23.5s-28.667 -8.5 -44 -8.5c-22 0 -41.667 7 -59 21c-10 8 -18 17.667 -24 29
s-13.667 29 -23 53l-71 191h-590z" />
    <glyph glyph-name="B" unicode="B" horiz-adv-x="1326" 
d="M317 0c-16 0 -32.999 1.33398 -50.999 4.00098s-34.667 11.667 -50 27s-24.333 32 -27 50s-4 35 -4 51v1160c0 16 1.33301 33 4 51s11.667 34.667 27 50s32 24.333 50 27s35 4 51 4h422c66 0 125.5 -9 178.5 -27s98.167 -44 135.5 -78s66 -75 86 -123s30 -102 30 -162
c0 -38.667 -5.5 -74.334 -16.5 -107.001s-25.5 -61.834 -43.5 -87.501s-38.5 -47.667 -61.5 -66s-46.5 -32.166 -70.5 -41.499c27.333 -11.333 53.833 -26.333 79.5 -45s48.5 -41.667 68.5 -69s36 -59 48 -95s18 -76.333 18 -121c0 -65.333 -10.667 -123 -32 -173
s-51 -92 -89 -126s-83.333 -59.667 -136 -77s-110.334 -26 -173.001 -26h-444zM401.001 629.001v-437.001h340c37.333 0 70.5 5.5 99.5 16.5s53.5 26.333 73.5 46s35.167 42.834 45.5 69.501s15.5 56 15.5 88c0 31.333 -5.16699 60.333 -15.5 87s-25.5 49.667 -45.5 69
s-44.5 34.333 -73.5 45s-62.167 16 -99.5 16h-340zM721.001 821c34.667 0 66.167 4.50195 94.5 13.502s52.666 22.167 72.999 39.5s36.166 38.666 47.499 63.999s17 54.666 17 87.999s-5.66699 62.833 -17 88.5s-27.166 47.167 -47.499 64.5s-44.666 30.5 -72.999 39.5
s-59.833 13.5 -94.5 13.5h-320v-411h320z" />
    <glyph glyph-name="C" unicode="C" horiz-adv-x="1253" 
d="M135 712c0 74.667 1 140.326 3 196.993s7.66699 107.5 17 152.5s23.5 85.833 42.5 122.5s45.833 72.334 80.5 107.001c46 46 99.167 81.667 159.5 107s129.5 38 207.5 38c44.667 0 85.167 -3.33301 121.5 -10s69.5 -16.167 99.5 -28.5s57.333 -27.666 82 -45.999
s48 -39.166 70 -62.499c20 -21.333 37 -43 51 -65s25.167 -43 33.5 -63s14.5 -38.667 18.5 -56s6 -32.333 6 -45c0 -18.667 -2.33301 -34.334 -7 -47.001s-12 -24 -22 -34c-21.333 -20 -46.333 -30 -75 -30c-13.333 0 -25.5 2 -36.5 6s-20.167 9 -27.5 15
c-11.333 9.33301 -21 20.5 -29 33.5s-16 28.833 -24 47.5c-26 60.667 -60 108 -102 142s-96.333 51 -163 51c-42 0 -80.167 -7.83301 -114.5 -23.5s-64.5 -37.5 -90.5 -65.5c-18.667 -20 -33.667 -41.667 -45 -65s-20 -51.666 -26 -84.999s-9.83301 -73.5 -11.5 -120.5
s-2.5 -104.5 -2.5 -172.5s0.833008 -125.5 2.5 -172.5s5.5 -87.167 11.5 -120.5s14.667 -61.666 26 -84.999s26.333 -45 45 -65c26 -28 56.167 -49.833 90.5 -65.5s72.5 -23.5 114.5 -23.5c66.667 0 121 16.833 163 50.5s76 81.167 102 142.5c8 18.667 16 34.5 24 47.5
s17.667 24.167 29 33.5c7.33301 6 16.5 11 27.5 15s23.167 6 36.5 6c28.667 0 53.667 -10 75 -30c10 -10 17.333 -21.333 22 -34s7 -28.334 7 -47.001c0 -12.667 -2 -27.667 -6 -45s-10.167 -36 -18.5 -56s-19.5 -41 -33.5 -63s-31 -43.667 -51 -65
c-22 -23.333 -45.333 -44.166 -70 -62.499s-52 -33.666 -82 -45.999s-63.167 -21.833 -99.5 -28.5s-76.833 -10 -121.5 -10c-78 0 -147.167 12.667 -207.5 38s-113.5 61 -159.5 107c-34.667 34.667 -61.5 70.334 -80.5 107.001s-33.167 77.5 -42.5 122.5
s-15 95.833 -17 152.5s-3 122.334 -3 197.001z" />
    <glyph glyph-name="D" unicode="D" horiz-adv-x="1332" 
d="M216 1393c15.333 15.333 31.998 24.3301 49.998 26.9971s35 4 51 4h369c90 0 168.167 -15 234.5 -45s123.5 -75.333 171.5 -136c24.667 -32 44.167 -65.833 58.5 -101.5s24.833 -74.667 31.5 -117s10.834 -89.166 12.501 -140.499s2.5 -108.666 2.5 -171.999
s-0.833008 -120.666 -2.5 -171.999s-6.16699 -98.5 -13.5 -141.5s-18.166 -82.333 -32.499 -118s-33.833 -69.5 -58.5 -101.5c-48 -61.333 -104.833 -106.5 -170.5 -135.5s-143.5 -43.5 -233.5 -43.5h-369c-16 -0 -33 1.33301 -51 4s-34.667 11.667 -50 27
s-24.333 32 -27 50s-4 35 -4 51v1160c0 16 1.33301 33 4 51s11.667 34.667 27 50zM400.998 191.997l260 -0.00195312c52 0 98.333 7.5 139 22.5s76 39.833 106 74.5c18 20 32 43.333 42 70s17.5 57.334 22.5 92.001s8 73.667 9 117s1.5 91.333 1.5 144
s-0.5 100.667 -1.5 144s-4 82.333 -9 117s-12.5 65.334 -22.5 92.001s-24 50 -42 70c-30 34.667 -65.333 59.5 -106 74.5s-87 22.5 -139 22.5h-260v-1040z" />
    <glyph glyph-name="E" unicode="E" horiz-adv-x="1203" 
d="M401 814h470c23.333 0 41 -0.833008 53 -2.5s23.667 -5.5 35 -11.5c13.333 -7.33301 24 -18 32 -32s12 -30.667 12 -50s-4 -36 -12 -50s-18.667 -24.667 -32 -32c-11.333 -6 -23 -9.83301 -35 -11.5s-29.667 -2.5 -53 -2.5h-470v-430h572c23.333 0 41 -0.833008 53 -2.5
s23.667 -5.5 35 -11.5c13.333 -7.33301 24 -18 32 -32s12 -30.667 12 -50s-4 -36 -12 -50s-18.667 -24.667 -32 -32c-11.333 -6 -23 -9.83301 -35 -11.5s-29.667 -2.5 -53 -2.5h-656c-16 -0 -33 1.33301 -51 4s-34.667 11.667 -50 27s-24.333 32 -27 50s-4 35 -4 51v1160
c0 16 1.33301 33 4 51s11.667 34.667 27 50s32 24.333 50 27s35 4 51 4h656c23.333 0 41 -0.833008 53 -2.5s23.667 -5.5 35 -11.5c13.333 -7.33301 24 -18 32 -32s12 -30.667 12 -50s-4 -36 -12 -50s-18.667 -24.667 -32 -32c-11.333 -6 -23 -9.83301 -35 -11.5
s-29.667 -2.5 -53 -2.5h-572v-418z" />
    <glyph glyph-name="F" unicode="F" horiz-adv-x="1168" 
d="M401 795h470c23.333 0 41 -0.833008 53 -2.5s23.667 -5.5 35 -11.5c13.333 -7.33301 24 -18 32 -32s12 -30.667 12 -50s-4 -36 -12 -50s-18.667 -24.667 -32 -32c-11.333 -6 -23 -9.83301 -35 -11.5s-29.667 -2.5 -53 -2.5h-470v-464
c0 -13.333 -0.166992 -24.666 -0.5 -33.999s-1 -17.5 -2 -24.5s-2.5 -13.667 -4.5 -20s-5 -12.833 -9 -19.5c-8 -14.667 -20 -26.5 -36 -35.5s-34.667 -13.5 -56 -13.5s-40 4.5 -56 13.5s-28 20.833 -36 35.5c-4 6.66699 -7 13.167 -9 19.5s-3.5 13 -4.5 20
s-1.66699 15.167 -2 24.5s-0.5 20.666 -0.5 33.999v1153c0 16 1.33301 33 4 51s11.667 34.667 27 50s32 24.333 50 27s35 4 51 4h656c23.333 0 41 -0.833008 53 -2.5s23.667 -5.5 35 -11.5c13.333 -7.33301 24 -18 32 -32s12 -30.667 12 -50s-4 -36 -12 -50
s-18.667 -24.667 -32 -32c-11.333 -6 -23 -9.83301 -35 -11.5s-29.667 -2.5 -53 -2.5h-572v-437z" />
    <glyph glyph-name="G" unicode="G" horiz-adv-x="1282" 
d="M351 712c0 -70.667 1.00098 -130.006 3.00098 -178.006s6 -88.5 12 -121.5s14.5 -60.5 25.5 -82.5s25.5 -42.333 43.5 -61c26 -28 56.833 -49.833 92.5 -65.5s75.5 -23.5 119.5 -23.5c42 0 80.667 7.33301 116 22s67 36 95 64c16.667 16.667 30.167 34.5 40.5 53.5
s18.5 40.167 24.5 63.5s10.167 49.5 12.5 78.5s3.5 62.167 3.5 99.5h-180c-23.333 0 -41 0.833008 -53 2.5s-23.667 5.5 -35 11.5c-13.333 7.33301 -24 18 -32 32s-12 30.667 -12 50s4 36 12 50s18.667 24.667 32 32c11.333 6 23 9.83301 35 11.5s29.667 2.5 53 2.5h256
c16 0 33 -1.33301 51 -4s34.667 -11.667 50 -27s24.333 -32 27 -50s4 -35 4 -51v-21c0 -58 -1.83301 -109.667 -5.5 -155s-10.5 -86.333 -20.5 -123s-23.667 -70 -41 -100s-40 -59 -68 -87c-50 -50 -104.333 -87 -163 -111s-126 -36 -202 -36
c-78.667 0 -148.334 12.667 -209.001 38s-114 61 -160 107c-34.667 34.667 -61.5 70.334 -80.5 107.001s-33.167 77.5 -42.5 122.5s-15 95.833 -17 152.5s-3 122.334 -3 197.001s1 140.334 3 197.001s7.66699 107.5 17 152.5s23.5 85.833 42.5 122.5
s45.833 72.334 80.5 107.001c46 46 99.167 81.667 159.5 107s129.5 38 207.5 38c44.667 0 85.167 -3.33301 121.5 -10s69.5 -16.167 99.5 -28.5s57.333 -27.666 82 -45.999s48 -39.166 70 -62.499c20 -21.333 37 -43 51 -65s25.167 -43 33.5 -63s14.5 -38.667 18.5 -56
s6 -32.333 6 -45c0 -18.667 -2.33301 -34.334 -7 -47.001s-12 -24 -22 -34c-21.333 -20 -46.333 -30 -75 -30c-13.333 0 -25.5 2 -36.5 6s-20.167 9 -27.5 15c-11.333 9.33301 -21 20.5 -29 33.5s-16 28.833 -24 47.5c-26 60.667 -60 108 -102 142s-96.333 51 -163 51
c-42 0 -80.167 -7.83301 -114.5 -23.5s-64.5 -37.5 -90.5 -65.5c-18.667 -20 -33.667 -41.667 -45 -65s-20 -51.666 -26 -84.999s-9.83301 -73.5 -11.5 -120.5s-2.5 -104.5 -2.5 -172.5z" />
    <glyph glyph-name="H" unicode="H" horiz-adv-x="1380" 
d="M979 815v470c0 13.333 0.166992 24.666 0.5 33.999s1 17.5 2 24.5s2.5 13.5 4.5 19.5s5 12.667 9 20c8 14.667 20 26.5 36 35.5s34.667 13.5 56 13.5s40 -4.5 56 -13.5s28 -20.833 36 -35.5c4 -7.33301 7 -14 9 -20s3.5 -12.5 4.5 -19.5s1.66699 -15.167 2 -24.5
s0.5 -20.666 0.5 -33.999v-1146c0 -13.333 -0.166992 -24.666 -0.5 -33.999s-1 -17.5 -2 -24.5s-2.5 -13.667 -4.5 -20s-5 -12.833 -9 -19.5c-8 -14.667 -20 -26.5 -36 -35.5s-34.667 -13.5 -56 -13.5s-40 4.5 -56 13.5s-28 20.833 -36 35.5c-4 6.66699 -7 13.167 -9 19.5
s-3.5 13 -4.5 20s-1.66699 15.167 -2 24.5s-0.5 20.666 -0.5 33.999v484h-578v-484c0 -13.333 -0.166992 -24.666 -0.5 -33.999s-1 -17.5 -2 -24.5s-2.5 -13.667 -4.5 -20s-5 -12.833 -9 -19.5c-8 -14.667 -20 -26.5 -36 -35.5s-34.667 -13.5 -56 -13.5s-40 4.5 -56 13.5
s-28 20.833 -36 35.5c-4 6.66699 -7 13.167 -9 19.5s-3.5 13 -4.5 20s-1.66699 15.167 -2 24.5s-0.5 20.666 -0.5 33.999v1146c0 13.333 0.166992 24.666 0.5 33.999s1 17.5 2 24.5s2.5 13.5 4.5 19.5s5 12.667 9 20c8 14.667 20 26.5 36 35.5s34.667 13.5 56 13.5
s40 -4.5 56 -13.5s28 -20.833 36 -35.5c4 -7.33301 7 -14 9 -20s3.5 -12.5 4.5 -19.5s1.66699 -15.167 2 -24.5s0.5 -20.666 0.5 -33.999v-470h578z" />
    <glyph glyph-name="I" unicode="I" horiz-adv-x="586" 
d="M401 139c0 -13.333 -0.166992 -24.666 -0.5 -33.999s-1 -17.5 -2 -24.5s-2.5 -13.667 -4.5 -20s-5 -12.833 -9 -19.5c-8 -14.667 -20 -26.5 -36 -35.5s-34.667 -13.5 -56 -13.5s-40 4.5 -56 13.5s-28 20.833 -36 35.5c-4 6.66699 -7 13.167 -9 19.5s-3.5 13 -4.5 20
s-1.66699 15.167 -2 24.5s-0.5 20.666 -0.5 33.999v1146c0 13.333 0.166992 24.666 0.5 33.999s1 17.5 2 24.5s2.5 13.5 4.5 19.5s5 12.667 9 20c8 14.667 20 26.5 36 35.5s34.667 13.5 56 13.5s40 -4.5 56 -13.5s28 -20.833 36 -35.5c4 -7.33301 7 -14 9 -20
s3.5 -12.5 4.5 -19.5s1.66699 -15.167 2 -24.5s0.5 -20.666 0.5 -33.999v-1146z" />
    <glyph glyph-name="J" unicode="J" horiz-adv-x="1012" 
d="M375 -12c-54 0 -103.165 6.33008 -147.498 18.9971s-86.5 33.334 -126.5 62.001c-34 24.667 -51 54.334 -51 89.001c0 13.333 2.5 26 7.5 38s12.167 22.667 21.5 32c17.333 16.667 37.666 25 60.999 25c14 0 27.5 -2.5 40.5 -7.5s26.833 -12.167 41.5 -21.5
c24 -15.333 48 -26.5 72 -33.5s51 -10.5 81 -10.5c81.333 0 144.666 24.167 189.999 72.5s68 120.166 68 215.499v817c0 13.333 0.166992 24.666 0.5 33.999s1 17.5 2 24.5s2.5 13.5 4.5 19.5s5 12.667 9 20c8 14.667 20 26.5 36 35.5s34.667 13.5 56 13.5s40 -4.5 56 -13.5
s28 -20.833 36 -35.5c4 -7.33301 7 -14 9 -20s3.5 -12.5 4.5 -19.5s1.66699 -15.167 2 -24.5s0.5 -20.666 0.5 -33.999v-835c0 -73.333 -12.333 -138.666 -37 -195.999s-58.5 -105.666 -101.5 -144.999s-93.333 -69.333 -151 -90s-119.167 -31 -184.5 -31z" />
    <glyph glyph-name="K" unicode="K" horiz-adv-x="1294" 
d="M401 139c0 -13.333 -0.169922 -24.6699 -0.50293 -34.0029s-1 -17.5 -2 -24.5s-2.5 -13.667 -4.5 -20s-5 -12.833 -9 -19.5c-8 -14.667 -20 -26.5 -36 -35.5s-34.667 -13.5 -56 -13.5s-40 4.5 -56 13.5s-28 20.833 -36 35.5c-4 6.66699 -7 13.167 -9 19.5
s-3.5 13 -4.5 20s-1.66699 15.167 -2 24.5s-0.5 20.666 -0.5 33.999v1146c0 13.333 0.166992 24.666 0.5 33.999s1 17.5 2 24.5s2.5 13.5 4.5 19.5s5 12.667 9 20c8 14.667 20 26.5 36 35.5s34.667 13.5 56 13.5s40 -4.5 56 -13.5s28 -20.833 36 -35.5
c4 -7.33301 7 -14 9 -20s3.5 -12.5 4.5 -19.5s1.66699 -15.167 2 -24.5s0.5 -20.666 0.5 -33.999v-572l539 654c17.333 21.333 33.166 37.5 47.499 48.5s31.5 16.5 51.5 16.5c24.667 0 47 -8.33301 67 -25c26 -22 39 -48 39 -78c0 -15.333 -3.66699 -29.333 -11 -42
s-19.666 -29.667 -36.999 -51l-303 -366l390 -685c12.667 -22 21.334 -39 26.001 -51s7.33398 -24.667 8.00098 -38c0.666992 -17.333 -3.33301 -33.666 -12 -48.999s-22.334 -28.666 -41.001 -39.999c-9.33301 -5.33301 -19 -9.16602 -29 -11.499s-19.667 -3.5 -29 -3.5
c-13.333 0 -25.166 2.16699 -35.499 6.5s-19.666 10.5 -27.999 18.5s-16 17.333 -23 28s-13.833 22.334 -20.5 35.001l-356 627l-243 -292v-276z" />
    <glyph glyph-name="L" unicode="L" horiz-adv-x="1145" 
d="M317 0c-16 0 -33 1.33301 -51 4s-34.667 11.667 -50 27s-24.333 32 -27 50s-4 35 -4 51v1153c0 13.333 0.166992 24.666 0.5 33.999s1 17.5 2 24.5s2.5 13.5 4.5 19.5s5 12.667 9 20c8 14.667 20 26.5 36 35.5s34.667 13.5 56 13.5s40 -4.5 56 -13.5s28 -20.833 36 -35.5
c4 -7.33301 7 -14 9 -20s3.5 -12.5 4.5 -19.5s1.66699 -15.167 2 -24.5s0.5 -20.666 0.5 -33.999v-1093h562c23.333 0 41 -0.833008 53 -2.5s23.667 -5.5 35 -11.5c13.333 -7.33301 24 -18 32 -32s12 -30.667 12 -50s-4 -36 -12 -50s-18.667 -24.667 -32 -32
c-11.333 -6 -23 -9.83301 -35 -11.5s-29.667 -2.5 -53 -2.5h-646z" />
    <glyph glyph-name="M" unicode="M" horiz-adv-x="1626" 
d="M924 322c-12 -25.333 -26.332 -45 -42.999 -59s-39 -21 -67 -21s-50.333 7 -67 21s-31.334 33.667 -44.001 59l-302 630v-813c0 -13.333 -0.166992 -24.666 -0.5 -33.999s-1 -17.5 -2 -24.5s-2.5 -13.667 -4.5 -20s-5 -12.833 -9 -19.5c-8 -14.667 -20 -26.5 -36 -35.5
s-34.667 -13.5 -56 -13.5s-40 4.5 -56 13.5s-28 20.833 -36 35.5c-4 6.66699 -7 13.167 -9 19.5s-3.5 13 -4.5 20s-1.66699 15.167 -2 24.5s-0.5 20.666 -0.5 33.999v1160c0 17.333 2 35 6 53s12.667 34 26 48c11.333 11.333 24 19.5 38 24.5s27.667 7.5 41 7.5
c12.667 0 24.167 -1.33301 34.5 -4s19.166 -6 26.499 -10c8.66699 -5.33301 17.834 -14 27.501 -26s18.167 -25 25.5 -39l404 -824l402 824c7.33301 14 15.833 27 25.5 39s18.834 20.667 27.501 26c7.33301 4 16.166 7.33301 26.499 10s21.833 4 34.5 4
c13.333 0 27 -2.5 41 -7.5s26.667 -13.167 38 -24.5c13.333 -14 22 -30 26 -48s6 -35.667 6 -53v-1160c0 -13.333 -0.166992 -24.666 -0.5 -33.999s-1 -17.5 -2 -24.5s-2.5 -13.667 -4.5 -20s-5 -12.833 -9 -19.5c-8 -14.667 -20 -26.5 -36 -35.5s-34.667 -13.5 -56 -13.5
s-40 4.5 -56 13.5s-28 20.833 -36 35.5c-4 6.66699 -7 13.167 -9 19.5s-3.5 13 -4.5 20s-1.66699 15.167 -2 24.5s-0.5 20.666 -0.5 33.999v813z" />
    <glyph glyph-name="N" unicode="N" horiz-adv-x="1443" 
d="M401 139c0 -13.333 -0.166992 -24.666 -0.5 -33.999s-1 -17.5 -2 -24.5s-2.5 -13.667 -4.5 -20s-5 -12.833 -9 -19.5c-8 -14.667 -20 -26.5 -36 -35.5s-34.667 -13.5 -56 -13.5s-40 4.5 -56 13.5s-28 20.833 -36 35.5c-4 6.66699 -7 13.167 -9 19.5s-3.5 13 -4.5 20
s-1.66699 15.167 -2 24.5s-0.5 20.666 -0.5 33.999v1155c0 23.333 2.16699 43.5 6.5 60.5s12.5 31.5 24.5 43.5c22.667 22.667 50 34 82 34c25.333 0 47.333 -7.83301 66 -23.5s38.667 -39.5 60 -71.5l618 -913v861c0 13.333 0.166992 24.666 0.5 33.999s1 17.5 2 24.5
s2.5 13.5 4.5 19.5s5 12.667 9 20c8 14.667 20 26.5 36 35.5s34.667 13.5 56 13.5s40 -4.5 56 -13.5s28 -20.833 36 -35.5c4 -7.33301 7 -14 9 -20s3.5 -12.5 4.5 -19.5s1.66699 -15.167 2 -24.5s0.5 -20.666 0.5 -33.999v-1156c0 -23.333 -2.16699 -43.333 -6.5 -60
s-12.5 -31 -24.5 -43c-22.667 -22.667 -50 -34 -82 -34c-25.333 0 -47.333 7.83301 -66 23.5s-38.667 39.5 -60 71.5l-618 913v-861z" />
    <glyph glyph-name="O" unicode="O" horiz-adv-x="1294" 
d="M278 133c-34.667 34.667 -61.5 70.334 -80.5 107.001s-33.167 77.5 -42.5 122.5s-15 95.833 -17 152.5s-3 122.334 -3 197.001s1 140.334 3 197.001s7.66699 107.5 17 152.5s23.5 85.833 42.5 122.5s45.833 72.334 80.5 107.001c46 46 99.333 81.667 160 107
s130.334 38 209.001 38s148.167 -12.667 208.5 -38s113.5 -61 159.5 -107c34.667 -34.667 61.667 -70.334 81 -107.001s33.666 -77.5 42.999 -122.5s15 -95.833 17 -152.5s3 -122.334 3 -197.001s-1 -140.334 -3 -197.001s-7.66699 -107.5 -17 -152.5
s-23.666 -85.833 -42.999 -122.5s-46.333 -72.334 -81 -107.001c-46 -46 -99.167 -81.667 -159.5 -107s-129.833 -38 -208.5 -38s-148.334 12.667 -209.001 38s-114 61 -160 107zM435 270c26 -28 56.833 -50 92.5 -66s75.5 -24 119.5 -24c43.333 0 82.833 8 118.5 24
s66.834 38 93.501 66c17.333 18.667 31.5 39 42.5 61s19.5 49.5 25.5 82.5s10.167 73.333 12.5 121s3.5 106.834 3.5 177.501s-1.16699 130 -3.5 178s-6.5 88.5 -12.5 121.5s-14.5 60.5 -25.5 82.5s-25.167 42.333 -42.5 61c-26.667 28 -57.834 49.833 -93.501 65.5
s-75.167 23.5 -118.5 23.5c-44 0 -83.833 -7.83301 -119.5 -23.5s-66.5 -37.5 -92.5 -65.5c-18 -18.667 -32.5 -39 -43.5 -61s-19.5 -49.5 -25.5 -82.5s-10 -73.5 -12 -121.5s-3 -107.333 -3 -178s1 -129.834 3 -177.501s6 -88 12 -121s14.5 -60.5 25.5 -82.5
s25.5 -42.333 43.5 -61z" />
    <glyph glyph-name="P" unicode="P" horiz-adv-x="1257" 
d="M201 41c-4 6.66699 -7 13.1689 -9 19.502s-3.5 13 -4.5 20s-1.66699 15.167 -2 24.5s-0.5 20.666 -0.5 33.999v1153c0 16 1.33301 33 4 51s11.667 34.667 27 50s32 24.333 50 27s35 4 51 4h408c69.333 0 132.166 -10.833 188.499 -32.5s104.333 -51.834 144 -90.501
s70.167 -84.334 91.5 -137.001s32 -110 32 -172s-10.667 -119.333 -32 -172s-51.833 -98 -91.5 -136s-87.667 -67.833 -144 -89.5s-119.166 -32.5 -188.499 -32.5h-324v-423c0 -13.333 -0.166992 -24.666 -0.5 -33.999s-1 -17.5 -2 -24.5s-2.5 -13.667 -4.5 -20
s-5 -12.833 -9 -19.5c-8 -14.667 -20 -26.5 -36 -35.5s-34.667 -13.5 -56 -13.5s-40 4.5 -56 13.5s-28 20.833 -36 35.5zM401 754.002h312c38 0 72.5 5.33301 103.5 16s57.5 26.167 79.5 46.5s39 45.333 51 75s18 63.167 18 100.5c0 38 -6 72 -18 102s-29 55.167 -51 75.5
s-48.5 35.833 -79.5 46.5s-65.5 16 -103.5 16h-312v-478z" />
    <glyph glyph-name="Q" unicode="Q" horiz-adv-x="1294" 
d="M278 133c-34.667 34.667 -61.499 70.333 -80.499 107s-33.167 77.5 -42.5 122.5s-15 95.833 -17 152.5s-3 122.334 -3 197.001s1 140.334 3 197.001s7.66699 107.5 17 152.5s23.5 85.833 42.5 122.5s45.833 72.334 80.5 107.001c46 46 99.333 81.667 160 107
s130.334 38 209.001 38s148.167 -12.667 208.5 -38s113.5 -61 159.5 -107c34.667 -34.667 61.667 -70.334 81 -107.001s33.666 -77.5 42.999 -122.5s15 -95.833 17 -152.5s3 -122.334 3 -197.001c0 -64 -0.666992 -121.333 -2 -172s-5 -96.667 -11 -138
s-15.167 -78.833 -27.5 -112.5s-29.5 -65.834 -51.5 -96.501l72 -72c15.333 -15.333 25.833 -27 31.5 -35s10.167 -17.333 13.5 -28c3.33301 -13.333 3 -26.833 -1 -40.5s-11.667 -26.167 -23 -37.5s-23.833 -19 -37.5 -23s-27.167 -4.33301 -40.5 -1
c-10.667 3.33301 -20 7.83301 -28 13.5s-19.667 16.167 -35 31.5l-74 74c-40.667 -28 -85.5 -49.5 -134.5 -64.5s-103.5 -22.5 -163.5 -22.5c-78.667 0 -148.334 12.667 -209.001 38s-114 61 -160 107zM697.001 323.999c-15.333 15.333 -25.9961 27.001 -31.9961 35.001
s-10.667 17.333 -14 28c-3.33301 13.333 -3 26.833 1 40.5s11.667 26.167 23 37.5s23.833 19 37.5 23s27.167 4.33301 40.5 1c10.667 -3.33301 20 -7.83301 28 -13.5s19.667 -16.167 35 -31.5l85 -85c9.33301 18 16.666 38 21.999 60s9.5 47.167 12.5 75.5s5 60.333 6 96
s1.5 76.167 1.5 121.5c0 70.667 -1.16699 130 -3.5 178s-6.5 88.5 -12.5 121.5s-14.5 60.5 -25.5 82.5s-25.167 42.333 -42.5 61c-26.667 28 -57.834 49.833 -93.501 65.5s-75.167 23.5 -118.5 23.5c-44 0 -83.833 -7.83301 -119.5 -23.5s-66.5 -37.5 -92.5 -65.5
c-18 -18.667 -32.5 -39 -43.5 -61s-19.5 -49.5 -25.5 -82.5s-10 -73.5 -12 -121.5s-3 -107.333 -3 -178s1 -129.834 3 -177.501s6 -88 12 -121s14.5 -60.5 25.5 -82.5s25.5 -42.333 43.5 -61c26 -28 56.833 -50 92.5 -66s75.5 -24 119.5 -24
c27.333 0 53.166 3.83301 77.499 11.5s47.166 19.5 68.499 35.5z" />
    <glyph glyph-name="R" unicode="R" horiz-adv-x="1313" 
d="M201 41c-4 6.66699 -7.00488 13.167 -9.00488 19.5s-3.5 13 -4.5 20s-1.66699 15.167 -2 24.5s-0.5 20.666 -0.5 33.999v1153c0 16 1.33301 33 4 51s11.667 34.667 27 50s32 24.333 50 27s35 4 51 4h420c67.333 0 128.333 -10.333 183 -31s101.167 -49.5 139.5 -86.5
s67.833 -80.833 88.5 -131.5s31 -106.334 31 -167.001c0 -50.667 -7.16699 -96.834 -21.5 -138.501s-34.166 -78.334 -59.499 -110.001s-55.166 -58.334 -89.499 -80.001s-71.5 -38.167 -111.5 -49.5l255 -445c12.667 -22 21.334 -39 26.001 -51
s7.33398 -24.667 8.00098 -38c0.666992 -17.333 -3.33301 -33.666 -12 -48.999s-22.334 -28.666 -41.001 -39.999c-9.33301 -5.33301 -19 -9.16602 -29 -11.499s-19.667 -3.5 -29 -3.5c-13.333 0 -25.166 2.16699 -35.499 6.5s-19.666 10.5 -27.999 18.5s-16 17.333 -23 28
s-13.833 22.334 -20.5 35.001l-297 520h-270v-461c0 -13.333 -0.166992 -24.666 -0.5 -33.999s-1 -17.5 -2 -24.5s-2.5 -13.667 -4.5 -20s-5 -12.833 -9 -19.5c-8 -14.667 -20 -26.5 -36 -35.5s-34.667 -13.5 -56 -13.5s-40 4.5 -56 13.5s-28 20.833 -36 35.5zM400.995 1232
v-447.998h320c36 0 68.833 5 98.5 15s55.167 24.5 76.5 43.5s37.833 42.167 49.5 69.5s17.5 58.666 17.5 93.999s-5.83301 67 -17.5 95s-28.167 51.667 -49.5 71s-46.833 34.166 -76.5 44.499s-62.5 15.5 -98.5 15.5h-320z" />
    <glyph glyph-name="S" unicode="S" horiz-adv-x="1182" 
d="M571 180c94.667 0 167.339 18.9971 218.006 56.9971s76 92.333 76 163c0 32 -4.33301 60.333 -13 85s-23 45.667 -43 63c-18 16 -39.333 28.667 -64 38s-55 16.666 -91 21.999l-169 24c-58 8.66699 -108.833 22.167 -152.5 40.5s-82.5 43.166 -116.5 74.499
c-36 32.667 -62.5 71.667 -79.5 117s-25.5 97.333 -25.5 156c0 62 10.833 118.5 32.5 169.5s53 94.833 94 131.5s91 65 150 85s125.5 30 199.5 30c34 0 65 -1.5 93 -4.5s55 -7.83301 81 -14.5s52 -15.334 78 -26.001s53.667 -23.667 83 -39
c25.333 -13.333 46.166 -29 62.499 -47s24.5 -38.667 24.5 -62c0 -24.667 -8.33301 -46.667 -25 -66c-8 -9.33301 -17.333 -16.833 -28 -22.5s-23.334 -8.5 -38.001 -8.5c-11.333 0 -25 2.83301 -41 8.5s-31.333 13.167 -46 22.5c-21.333 12.667 -41.666 23.5 -60.999 32.5
s-39 16.333 -59 22s-40.833 9.66699 -62.5 12s-44.834 3.5 -69.501 3.5c-42 0 -79 -5.5 -111 -16.5s-59 -26.167 -81 -45.5s-38.5 -42.5 -49.5 -69.5s-16.5 -56.833 -16.5 -89.5c0 -26 3.83301 -50.5 11.5 -73.5s21.167 -42.5 40.5 -58.5c18 -16 38.667 -29.167 62 -39.5
s54.666 -18.5 93.999 -24.5l170 -26c32.667 -5.33301 61.834 -11.166 87.501 -17.499s49 -13.666 70 -21.999s40.167 -18 57.5 -29s33.666 -23.5 48.999 -37.5c77.333 -71.333 116 -168.666 116 -291.999c0 -65.333 -12.667 -123.833 -38 -175.5s-60.5 -95.5 -105.5 -131.5
s-99 -63.5 -162 -82.5s-131.833 -28.5 -206.5 -28.5c-42.667 0 -81.667 2 -117 6s-68.333 10 -99 18s-59.667 18 -87 30s-54 26 -80 42c-18.667 10.667 -34.334 20.834 -47.001 30.501s-23 19.5 -31 29.5s-13.833 20.167 -17.5 30.5s-5.5 22.166 -5.5 35.499
c0 12 2.66699 24.5 8 37.5s12.666 24.167 21.999 33.5c17.333 17.333 38.333 26 63 26c14 0 28 -2.66699 42 -8s30.667 -14.666 50 -27.999c24 -16.667 47.5 -30.667 70.5 -42s46.667 -20.666 71 -27.999s49.666 -12.666 75.999 -15.999s54.833 -5 85.5 -5z" />
    <glyph glyph-name="T" unicode="T" horiz-adv-x="1116" 
d="M1066 1328c0 -19.333 -4 -36 -12 -50s-18.667 -24.667 -32 -32c-11.333 -6 -23 -9.83301 -35 -11.5s-29.667 -2.5 -53 -2.5h-268v-1093c0 -13.333 -0.166992 -24.666 -0.5 -33.999s-1 -17.5 -2 -24.5s-2.5 -13.667 -4.5 -20s-5 -12.833 -9 -19.5
c-8 -14.667 -20 -26.5 -36 -35.5s-34.667 -13.5 -56 -13.5s-40 4.5 -56 13.5s-28 20.833 -36 35.5c-4 6.66699 -7 13.167 -9 19.5s-3.5 13 -4.5 20s-1.66699 15.167 -2 24.5s-0.5 20.666 -0.5 33.999v1093h-268c-23.333 0 -41 0.833008 -53 2.5s-23.667 5.5 -35 11.5
c-13.333 7.33301 -24 18 -32 32s-12 30.667 -12 50s4 36 12 50s18.667 24.667 32 32c11.333 6 23 9.83301 35 11.5s29.667 2.5 53 2.5h752c23.333 0 41 -0.833008 53 -2.5s23.667 -5.5 35 -11.5c13.333 -7.33301 24 -18 32 -32s12 -30.667 12 -50z" />
    <glyph glyph-name="U" unicode="U" horiz-adv-x="1346" 
d="M673 -12c-72.667 0 -140 11.833 -202 35.5s-115.833 57 -161.5 100s-81.5 94.833 -107.5 155.5s-39 127.667 -39 201v805c0 13.333 0.166992 24.666 0.5 33.999s1 17.5 2 24.5s2.5 13.5 4.5 19.5s5 12.667 9 20c8 14.667 20 26.5 36 35.5s34.667 13.5 56 13.5
s40 -4.5 56 -13.5s28 -20.833 36 -35.5c4 -7.33301 7 -14 9 -20s3.5 -12.5 4.5 -19.5s1.66699 -15.167 2 -24.5s0.5 -20.666 0.5 -33.999v-795c0 -48 7 -91 21 -129s33.833 -70.5 59.5 -97.5s56.5 -47.667 92.5 -62s76.333 -21.5 121 -21.5s85 7.16699 121 21.5
s66.833 35 92.5 62s45.5 59.5 59.5 97.5s21 81 21 129v795c0 13.333 0.166992 24.666 0.5 33.999s1 17.5 2 24.5s2.5 13.5 4.5 19.5s5 12.667 9 20c8 14.667 20 26.5 36 35.5s34.667 13.5 56 13.5s40 -4.5 56 -13.5s28 -20.833 36 -35.5c4 -7.33301 7 -14 9 -20
s3.5 -12.5 4.5 -19.5s1.66699 -15.167 2 -24.5s0.5 -20.666 0.5 -33.999v-805c0 -73.333 -13 -140.333 -39 -201s-61.833 -112.5 -107.5 -155.5s-99.5 -76.333 -161.5 -100s-129.333 -35.5 -202 -35.5z" />
    <glyph glyph-name="V" unicode="V" horiz-adv-x="1112" 
d="M674 102c-13.333 -40.667 -27.998 -68 -43.998 -82c-11.333 -10.667 -22.666 -18 -33.999 -22s-24.666 -6 -39.999 -6s-28.666 2 -39.999 6s-22.666 11.333 -33.999 22c-16 14 -30.667 41.333 -44 82l-386 1160c-7.33301 23.333 -12 41.166 -14 53.499s-2 24.833 0 37.5
c2 14 6.83301 26 14.5 36s16.5 18.167 26.5 24.5s20.5 11 31.5 14s21.5 4.5 31.5 4.5c13.333 0 24.666 -2 33.999 -6s18.333 -9.66699 27 -17c9.33301 -8.66699 17.166 -18.834 23.499 -30.501s13.166 -28.834 20.499 -51.501l309 -950l309 950
c7.33301 22.667 14.166 39.834 20.499 51.501s14.166 21.834 23.499 30.501c8.66699 7.33301 17.667 13 27 17s20.666 6 33.999 6c10 0 20.5 -1.5 31.5 -4.5s21.5 -7.66699 31.5 -14s18.833 -14.5 26.5 -24.5s12.5 -22 14.5 -36c2 -12.667 2 -25.167 0 -37.5
s-6.66699 -30.166 -14 -53.499z" />
    <glyph glyph-name="W" unicode="W" horiz-adv-x="1730" 
d="M865 1431c31.333 0 55.9961 -8.66699 73.9961 -26c8.66699 -8.66699 15.667 -18.5 21 -29.5s10.666 -25.167 15.999 -42.5l260 -931l228 916c6 24 11.167 41.833 15.5 53.5s11.166 22.5 20.499 32.5c8 8.66699 17.833 15.5 29.5 20.5s24.834 7.5 39.501 7.5
c23.333 0 44.5 -6.66699 63.5 -20s31.167 -30 36.5 -50c3.33301 -12 4.16602 -24.5 2.49902 -37.5s-5.5 -31.5 -11.5 -55.5l-288 -1156c-5.33301 -19.333 -11.666 -37 -18.999 -53s-17.666 -29.667 -30.999 -41c-22 -18 -47.667 -27 -77 -27s-55 9 -77 27
c-13.333 11.333 -23.666 25 -30.999 41s-13.666 33.667 -18.999 53l-253 902l-253 -902c-5.33301 -19.333 -11.666 -37 -18.999 -53s-17.666 -29.667 -30.999 -41c-22 -18 -47.667 -27 -77 -27s-55 9 -77 27c-13.333 11.333 -23.666 25 -30.999 41
s-13.666 33.667 -18.999 53l-288 1156c-6 24 -9.83301 42.5 -11.5 55.5s-0.833984 25.5 2.49902 37.5c5.33301 20 17.5 36.667 36.5 50s40.167 20 63.5 20c14.667 0 27.834 -2.5 39.501 -7.5s21.5 -11.833 29.5 -20.5c9.33301 -10 16.166 -20.833 20.499 -32.5
s9.5 -29.5 15.5 -53.5l228 -916l260 931c5.33301 17.333 10.666 31.5 15.999 42.5s12.333 20.833 21 29.5c18 17.333 42.667 26 74 26z" />
    <glyph glyph-name="X" unicode="X" horiz-adv-x="1114" 
d="M209 1432c13.333 0 25.168 -2.16895 35.501 -6.50195s19.666 -10.5 27.999 -18.5s15.833 -17.333 22.5 -28l21 -35l241 -431l241 431c6.66699 12.667 13.5 24.334 20.5 35.001s14.667 20 23 28s17.666 14.167 27.999 18.5s22.166 6.5 35.499 6.5
c9.33301 0 19 -1.16699 29 -3.5s19.667 -6.16602 29 -11.499c18.667 -11.333 32.334 -24.666 41.001 -39.999s12.667 -31.666 12 -48.999c-0.666992 -13.333 -3.33398 -26 -8.00098 -38s-13.334 -29 -26.001 -51l-292 -507l314 -547c12.667 -22 21.334 -39 26.001 -51
s7.33398 -24.667 8.00098 -38c0.666992 -17.333 -3.33301 -33.666 -12 -48.999s-22.334 -28.666 -41.001 -39.999c-9.33301 -5.33301 -19 -9.16602 -29 -11.499s-19.667 -3.5 -29 -3.5c-13.333 0 -25.166 2.16699 -35.499 6.5s-19.666 10.5 -27.999 18.5s-16 17.333 -23 28
s-13.833 22.334 -20.5 35.001l-263 467l-263 -467c-14 -25.333 -28.667 -46.333 -44 -63s-36.333 -25 -63 -25c-9.33301 0 -19 1.16699 -29 3.5s-19.667 6.16602 -29 11.499c-18.667 11.333 -32.334 24.666 -41.001 39.999s-12.667 31.666 -12 48.999
c0.666992 13.333 3.33398 26 8.00098 38s13.334 29 26.001 51l314 546l-292 508c-12.667 22 -21.334 39 -26.001 51s-7.33398 24.667 -8.00098 38c-0.666992 17.333 3.33301 33.666 12 48.999s22.334 28.666 41.001 39.999c9.33301 5.33301 19 9.16602 29 11.499
s19.667 3.5 29 3.5z" />
    <glyph glyph-name="Y" unicode="Y" horiz-adv-x="1046" 
d="M44 1340c0.666992 15.333 5.66602 30.166 14.999 44.499s23 26.166 41 35.499c8 4 16.5 7 25.5 9s17.5 3 25.5 3c17.333 0 33.666 -5 48.999 -15c10.667 -7.33301 19.334 -16.166 26.001 -26.499s15.667 -26.5 27 -48.5l270 -541l270 541
c11.333 22 20.333 38.167 27 48.5s15.334 19.166 26.001 26.499c14.667 10 31 15 49 15c8 0 16.5 -1 25.5 -3s17.5 -5 25.5 -9c18 -9.33301 31.667 -21.166 41 -35.499s14.333 -29.166 15 -44.499c0.666992 -13.333 -0.833008 -26 -4.5 -38s-11.167 -29 -22.5 -51l-344 -684
v-428c0 -13.333 -0.166992 -24.666 -0.5 -33.999s-1 -17.5 -2 -24.5s-2.5 -13.667 -4.5 -20s-5 -12.833 -9 -19.5c-8 -14.667 -20 -26.5 -36 -35.5s-34.667 -13.5 -56 -13.5s-40 4.5 -56 13.5s-28 20.833 -36 35.5c-4 6.66699 -7 13.167 -9 19.5s-3.5 13 -4.5 20
s-1.66699 15.167 -2 24.5s-0.5 20.666 -0.5 33.999v428l-344 684c-11.333 22 -18.833 39 -22.5 51s-5.16699 24.667 -4.5 38z" />
    <glyph glyph-name="Z" unicode="Z" horiz-adv-x="1115" 
d="M875 1424c23.333 0 44.667 -1.66699 64 -5s36 -12.333 50 -27c21.333 -21.333 32 -47.666 32 -78.999c0 -14.667 -3 -29.5 -9 -44.5s-15 -32.167 -27 -51.5l-631 -1025h536c23.333 0 41 -0.833008 53 -2.5s23.667 -5.5 35 -11.5c13.333 -7.33301 24 -18 32 -32
s12 -30.667 12 -50s-4 -36 -12 -50s-18.667 -24.667 -32 -32c-11.333 -6 -23 -9.83301 -35 -11.5s-29.667 -2.5 -53 -2.5h-657c-23.333 0 -44.5 1.66699 -63.5 5s-35.833 12.333 -50.5 27c-21.333 21.333 -32 47.666 -32 78.999c0 14.667 2.83301 29 8.5 43
s15.167 31.667 28.5 53l630 1025h-507c-23.333 0 -41 0.833008 -53 2.5s-23.667 5.5 -35 11.5c-13.333 7.33301 -24 18 -32 32s-12 30.667 -12 50s4 36 12 50s18.667 24.667 32 32c11.333 6 23 9.83301 35 11.5s29.667 2.5 53 2.5h628z" />
    <glyph glyph-name="bracketleft" unicode="[" horiz-adv-x="693" 
d="M172 1447c0 15.333 1.16699 31.5 3.5 48.5s10.833 32.833 25.5 47.5s30.5 23.167 47.5 25.5s33.167 3.5 48.5 3.5h194c22 0 38.833 -0.833008 50.5 -2.5s22.5 -5.5 32.5 -11.5c12.667 -7.33301 22.834 -17.833 30.501 -31.5s11.5 -29.167 11.5 -46.5
s-3.83301 -32.833 -11.5 -46.5s-17.834 -24.167 -30.501 -31.5c-10 -5.33301 -20.833 -9 -32.5 -11s-28.5 -3 -50.5 -3h-115v-1352h115c22 0 38.833 -0.833008 50.5 -2.5s22.5 -5.5 32.5 -11.5c12.667 -7.33301 22.834 -17.833 30.501 -31.5s11.5 -29.167 11.5 -46.5
s-3.83301 -32.833 -11.5 -46.5s-17.834 -24.167 -30.501 -31.5c-10 -5.33301 -20.833 -9 -32.5 -11s-28.5 -3 -50.5 -3h-194c-15.333 0 -31.5 1.16699 -48.5 3.5s-32.833 10.833 -47.5 25.5s-23.167 30.5 -25.5 47.5s-3.5 33.167 -3.5 48.5v1470z" />
    <glyph glyph-name="backslash" unicode="\" horiz-adv-x="763" 
d="M43 1423c-6 18 -10.667 35 -14 51s-2.33301 31.667 3 47s16.666 29.333 33.999 42s37.666 19 60.999 19c15.333 0 28.333 -2.5 39 -7.5s19.667 -12 27 -21s13.5 -19.5 18.5 -31.5s9.83301 -24.667 14.5 -38l494 -1479c6 -18 10.667 -35 14 -51s2.33301 -31.667 -3 -47
s-16.666 -29.333 -33.999 -42s-37.666 -19 -60.999 -19c-15.333 0 -28.333 2.5 -39 7.5s-19.667 12 -27 21s-13.5 19.5 -18.5 31.5s-9.83301 24.667 -14.5 38z" />
    <glyph glyph-name="bracketright" unicode="]" horiz-adv-x="693" 
d="M521 -23c0 -15.333 -1.16699 -31.5 -3.5 -48.5s-10.833 -32.833 -25.5 -47.5s-30.5 -23.167 -47.5 -25.5s-33.167 -3.5 -48.5 -3.5h-194c-22 0 -38.833 1 -50.5 3s-22.5 5.66699 -32.5 11c-12.667 7.33301 -22.834 17.833 -30.501 31.5s-11.5 29.167 -11.5 46.5
s3.83301 32.833 11.5 46.5s17.834 24.167 30.501 31.5c10 6 20.833 9.83301 32.5 11.5s28.5 2.5 50.5 2.5h115v1352h-115c-22 0 -38.833 1 -50.5 3s-22.5 5.66699 -32.5 11c-12.667 7.33301 -22.834 17.833 -30.501 31.5s-11.5 29.167 -11.5 46.5s3.83301 32.833 11.5 46.5
s17.834 24.167 30.501 31.5c10 6 20.833 9.83301 32.5 11.5s28.5 2.5 50.5 2.5h194c15.333 0 31.5 -1.16699 48.5 -3.5s32.833 -10.833 47.5 -25.5s23.167 -30.5 25.5 -47.5s3.5 -33.167 3.5 -48.5v-1470z" />
    <glyph glyph-name="asciicircum" unicode="^" horiz-adv-x="1059" 
d="M889 856c10 -20 16.8311 -35.667 20.498 -47s5.5 -22.666 5.5 -33.999c0 -12.667 -2.83301 -24.5 -8.5 -35.5s-13 -20.5 -22 -28.5s-19.167 -14.333 -30.5 -19s-23 -7 -35 -7c-18 0 -34 5 -48 15c-9.33301 7.33301 -17.666 15.666 -24.999 24.999
s-16.333 24.666 -27 45.999l-190 380l-189 -380c-10.667 -21.333 -19.667 -36.666 -27 -45.999s-15.666 -17.666 -24.999 -24.999c-14 -10 -30 -15 -48 -15c-12 0 -23.833 2.33301 -35.5 7s-22 11 -31 19s-16.167 17.5 -21.5 28.5s-8 22.833 -8 35.5
c0 11.333 1.83301 22.666 5.5 33.999s10.5 27 20.5 47l234 469c6.66699 14 13.834 27.5 21.501 40.5s16.167 24.333 25.5 34s20.333 17.5 33 23.5s28 9 46 9c17.333 0 32.333 -3 45 -9s23.667 -13.833 33 -23.5s17.666 -21 24.999 -34l22 -40.5z" />
    <glyph glyph-name="underscore" unicode="_" horiz-adv-x="1143" 
d="M141 -360c-19.333 0 -33.666 0.666992 -42.999 2s-18.666 4.66602 -27.999 9.99902c-24 13.333 -36 35.333 -36 66s12 52.667 36 66c9.33301 5.33301 18.666 8.66602 27.999 9.99902s23.666 2 42.999 2h861c19.333 0 33.666 -0.666992 42.999 -2
s18.666 -4.66602 27.999 -9.99902c24 -13.333 36 -35.333 36 -66s-12 -52.667 -36 -66c-9.33301 -5.33301 -18.666 -8.66602 -27.999 -9.99902s-23.666 -2 -42.999 -2h-861z" />
    <glyph glyph-name="grave" unicode="`" horiz-adv-x="1076" 
d="M335 1399c-11.333 18 -19.166 32 -23.499 42s-6.83301 20.667 -7.5 32c-2 31.333 12.333 57 43 77c16 10 32.333 15 49 15s32.334 -5.33301 47.001 -16c7.33301 -5.33301 14.666 -13 21.999 -23s14.666 -20.667 21.999 -32l93 -149c11.333 -18 19.166 -32 23.499 -42
s6.83301 -20.667 7.5 -32c2 -31.333 -12.333 -57 -43 -77c-16 -10 -32.333 -15 -49 -15s-32.334 5.33301 -47.001 16c-7.33301 5.33301 -14.666 13 -21.999 23s-14.666 20.667 -21.999 32z" />
    <glyph glyph-name="a" unicode="a" horiz-adv-x="1060" 
d="M83 298c0 42.667 7.50098 81.999 22.501 117.999s37.167 67 66.5 93s66 46.333 110 61s94.667 22 152 22h269v63c0 66.667 -16.667 116.334 -50 149.001s-87.333 49 -162 49c-40.667 0 -75.834 -5.66699 -105.501 -17s-59.167 -28.333 -88.5 -51
c-13.333 -10 -26.666 -17 -39.999 -21s-24.666 -6 -33.999 -6c-10.667 0 -21.334 2.16699 -32.001 6.5s-19.667 11.166 -27 20.499c-8.66699 9.33301 -14.834 18.833 -18.501 28.5s-5.5 21.167 -5.5 34.5c0 23.333 9.33301 44.833 28 64.5s41 37.167 67 52.5
c36 20.667 74.833 36 116.5 46s88.834 15 141.501 15c136.667 0 240 -29.167 310 -87.5s105 -145.5 105 -261.5v-546c0 -12.667 -0.166992 -23.5 -0.5 -32.5s-1 -17 -2 -24s-2.5 -13.167 -4.5 -18.5s-4.66699 -11 -8 -17c-7.33301 -14 -18.833 -25.333 -34.5 -34
s-33.167 -13 -52.5 -13c-16.667 0 -31.167 2.66699 -43.5 8s-22.5 12.333 -30.5 21c-6 7.33301 -11 16 -15 26s-6.66699 25.667 -8 47c-20 -19.333 -39.667 -35.666 -59 -48.999s-39.5 -24.166 -60.5 -32.499s-44 -14.333 -69 -18s-52.833 -5.5 -83.5 -5.5
c-64 0 -117.833 7.33301 -161.5 22s-80.834 38 -111.501 70c-26 26.667 -46 58.667 -60 96s-21 77.666 -21 120.999zM282.001 300.999c0 -46 15.667 -81.334 47 -106.001s79.333 -37 144 -37c18 0 35.333 0.666992 52 2s32.667 4 48 8s30 9.83301 44 17.5
s27.667 17.834 41 30.501c16 15.333 27.5 34.833 34.5 58.5s10.5 54.5 10.5 92.5v80h-240c-60.667 0 -106 -12.5 -136 -37.5s-45 -61.167 -45 -108.5z" />
    <glyph glyph-name="b" unicode="b" horiz-adv-x="1105" 
d="M162 1293c0 24.667 1.00293 42.999 3.00293 54.999s6 24 12 36c7.33301 13.333 18.166 24.666 32.499 33.999s32.5 14 54.5 14s40.167 -4.66699 54.5 -14s25.166 -20.666 32.499 -33.999c6 -12 10 -24 12 -36s3 -30.333 3 -55v-381c37.333 44 77.5 74 120.5 90
s91.5 24 145.5 24c51.333 0 98.166 -8 140.499 -24s77.5 -38 105.5 -66c24.667 -25.333 44.334 -54 59.001 -86s26 -66.5 34 -103.5s13.167 -75.667 15.5 -116s3.5 -81.166 3.5 -122.499c0 -42 -1.16699 -83.333 -3.5 -124s-7.5 -79.5 -15.5 -116.5
s-19.333 -71.667 -34 -104s-34.334 -60.833 -59.001 -85.5c-28 -28 -63.5 -50 -106.5 -66s-90.167 -24 -141.5 -24c-53.333 0 -101.5 8.16699 -144.5 24.5s-83.167 46.833 -120.5 91.5c-1.33301 -21.333 -3.33301 -36.833 -6 -46.5s-6.66699 -18.167 -12 -25.5
c-9.33301 -13.333 -21.333 -23.333 -36 -30s-30.334 -10 -47.001 -10c-17.333 0 -33.5 3.83301 -48.5 11.5s-26.833 18.167 -35.5 31.5c-7.33301 11.333 -12.166 23.333 -14.499 36s-3.5 33 -3.5 61v1161zM786.003 506.999c0 44.667 -2.33301 87.334 -7 128.001
s-14.334 76.334 -29.001 107.001s-35.834 55 -63.501 73s-64.5 27 -110.5 27s-83 -9 -111 -27s-49.333 -42.333 -64 -73s-24.334 -66.334 -29.001 -107.001s-7 -83.334 -7 -128.001c0 -45.333 2.33301 -88.166 7 -128.499s14.334 -75.833 29.001 -106.5s36 -55 64 -73
s65 -27 111 -27s82.833 9 110.5 27s48.834 42.333 63.501 73s24.334 66.167 29.001 106.5s7 83.166 7 128.499z" />
    <glyph glyph-name="c" unicode="c" horiz-adv-x="969" 
d="M110 507c0 94.667 12.668 175.001 38.001 241.001s59 119.667 101 161s90 71.166 144 89.499s109.667 27.5 167 27.5c45.333 0 85.166 -5.16699 119.499 -15.5s68.5 -26.5 102.5 -48.5c26.667 -17.333 49.834 -35.5 69.501 -54.5s29.5 -41.5 29.5 -67.5
c0 -12.667 -2.5 -24.667 -7.5 -36s-12.167 -21.666 -21.5 -30.999c-7.33301 -7.33301 -16.666 -13.5 -27.999 -18.5s-23 -7.5 -35 -7.5c-13.333 0 -25.833 3 -37.5 9s-26.167 16 -43.5 30c-25.333 20.667 -49.333 35.167 -72 43.5s-48 12.5 -76 12.5
c-79.333 0 -141 -29 -185 -87c-22 -29.333 -37.667 -63.166 -47 -101.499s-14 -87.166 -14 -146.499c0 -58.667 4.66699 -107.334 14 -146.001s25 -72.334 47 -101.001c44 -58.667 105.667 -88 185 -88c28 0 53.333 4.5 76 13.5s46.667 23.5 72 43.5
c17.333 13.333 31.833 23.166 43.5 29.499s24.167 9.5 37.5 9.5c12 0 23.667 -2.66699 35 -8s20.666 -11.666 27.999 -18.999c9.33301 -9.33301 16.5 -19.5 21.5 -30.5s7.5 -23.167 7.5 -36.5c0 -12.667 -2.83301 -24.667 -8.5 -36s-13 -22 -22 -32s-19.5 -19.5 -31.5 -28.5
s-24.333 -17.5 -37 -25.5c-32 -20.667 -65.333 -36.5 -100 -47.5s-75.334 -16.5 -122.001 -16.5c-57.333 0 -113 9.16699 -167 27.5s-102 48.166 -144 89.499s-75.667 94.833 -101 160.5s-38 146.167 -38 241.5z" />
    <glyph glyph-name="d" unicode="d" horiz-adv-x="1105" 
d="M943 132c0 -28 -1.16504 -48.332 -3.49805 -60.999s-7.16602 -24.667 -14.499 -36c-8.66699 -13.333 -20.5 -23.833 -35.5 -31.5s-31.167 -11.5 -48.5 -11.5c-16.667 0 -32.334 3.33301 -47.001 10s-26.667 16.667 -36 30c-5.33301 7.33301 -9.33301 15.833 -12 25.5
s-4.66699 25.167 -6 46.5c-37.333 -44.667 -77.666 -75.167 -120.999 -91.5s-91.333 -24.5 -144 -24.5c-51.333 0 -98.5 8 -141.5 24s-78.5 38 -106.5 66c-24.667 24.667 -44.334 53.167 -59.001 85.5s-26 67 -34 104s-13.167 75.833 -15.5 116.5s-3.5 82 -3.5 124
c0 41.333 1.16699 82.166 3.5 122.499s7.5 79 15.5 116s19.333 71.5 34 103.5s34.334 60.667 59.001 86c28 28 63.167 50 105.5 66s89.166 24 140.499 24c54 0 102.5 -8 145.5 -24s83.167 -46 120.5 -90v381c0 24.667 1 43 3 55s6 24 12 36
c7.33301 13.333 18.166 24.666 32.499 33.999s32.5 14 54.5 14s40.167 -4.66699 54.5 -14s25.166 -20.666 32.499 -33.999c6 -12 10 -24 12 -36s3 -30.333 3 -55v-1161zM319.002 507.001c0 -45.333 2.33301 -88.166 7 -128.499s14.334 -75.833 29.001 -106.5
s35.834 -55 63.501 -73s64.5 -27 110.5 -27s83 9 111 27s49.333 42.333 64 73s24.334 66.167 29.001 106.5s7 83.166 7 128.499c0 44.667 -2.33301 87.334 -7 128.001s-14.334 76.334 -29.001 107.001s-36 55 -64 73s-65 27 -111 27s-82.833 -9 -110.5 -27
s-48.834 -42.333 -63.501 -73s-24.334 -66.334 -29.001 -107.001s-7 -83.334 -7 -128.001z" />
    <glyph glyph-name="e" unicode="e" horiz-adv-x="1075" 
d="M110 507c0 83.333 10.3281 157.334 30.9951 222.001s49.667 119 87 163s82.5 77.333 135.5 100s111.833 34 176.5 34c66 0 125.333 -11.5 178 -34.5s97.334 -54.833 134.001 -95.5s65 -89.334 85 -146.001s30.667 -118.334 32 -185.001
c0.666992 -15.333 -0.666016 -31.166 -3.99902 -47.499s-11.333 -30.833 -24 -43.5c-13.333 -13.333 -27.833 -21 -43.5 -23s-31.167 -3 -46.5 -3h-539c0 -43.333 5.66699 -82.5 17 -117.5s28 -65 50 -90s49.167 -44.333 81.5 -58s69.5 -20.5 111.5 -20.5
c36 0 70.5 5.16699 103.5 15.5s63.5 26.5 91.5 48.5c30.667 24.667 58.334 37 83.001 37c10 0 20 -2.33301 30 -7s19 -11 27 -19s14.5 -17.167 19.5 -27.5s7.5 -21.5 7.5 -33.5s-3 -23.5 -9 -34.5s-13.833 -21.833 -23.5 -32.5s-20.5 -20.667 -32.5 -30s-24.333 -18 -37 -26
c-32 -21.333 -70.5 -37.5 -115.5 -48.5s-94.833 -16.5 -149.5 -16.5c-63.333 0 -122.666 9 -177.999 27s-103.666 47.333 -144.999 88s-74 94 -98 160s-36 147.333 -36 244zM767.995 590.001l-3.49902 41.499c-1 12.333 -2.5 23.833 -4.5 34.5s-4.66699 20.834 -8 30.501
s-7.33301 20.167 -12 31.5c-17.333 38 -43 68.833 -77 92.5s-75 35.5 -123 35.5c-49.333 0 -91 -11.833 -125 -35.5s-59.667 -54.5 -77 -92.5c-5.33301 -11.333 -9.5 -21.833 -12.5 -31.5s-5.5 -19.834 -7.5 -30.501s-3.33301 -22.167 -4 -34.5
s-1.33398 -26.166 -2.00098 -41.499h456z" />
    <glyph glyph-name="f" unicode="f" horiz-adv-x="669" 
d="M207 1153c0 37.333 5.33008 73.002 15.9971 107.002s27.334 63.833 50.001 89.5s51.167 46.167 85.5 61.5s75.5 23 123.5 23h20c20.667 0 37.834 -1.33301 51.501 -4s25.167 -6.66699 34.5 -12c12 -6.66699 21.833 -15.834 29.5 -27.501s11.5 -26.167 11.5 -43.5
s-3.83301 -32 -11.5 -44s-17.5 -21.333 -29.5 -28c-9.33301 -5.33301 -19.833 -8.83301 -31.5 -10.5s-25.834 -2.83398 -42.501 -3.50098c-38 -1.33301 -64.667 -12.333 -80 -33s-23 -48.667 -23 -84v-130h111c19.333 0 33.666 -0.666992 42.999 -2
s18.666 -4.66602 27.999 -9.99902c24 -13.333 36 -35.333 36 -66s-12 -52.667 -36 -66c-9.33301 -5.33301 -18.666 -8.66602 -27.999 -9.99902s-23.666 -2 -42.999 -2h-111v-727c0 -24.667 -1 -43 -3 -55s-6 -24 -12 -36c-7.33301 -13.333 -18.166 -24.666 -32.499 -33.999
s-32.5 -14 -54.5 -14s-40.167 4.66699 -54.5 14s-25.166 20.666 -32.499 33.999c-6 12 -10 24 -12 36s-3 30.333 -3 55v727h-47c-19.333 0 -33.666 0.666992 -42.999 2s-18.666 4.66602 -27.999 9.99902c-24 13.333 -36 35.333 -36 66s12 52.667 36 66
c9.33301 5.33301 18.666 8.66602 27.999 9.99902s23.666 2 42.999 2h47v139z" />
    <glyph glyph-name="g" unicode="g" horiz-adv-x="1099" 
d="M501 -421c-52 0 -96.668 4.16016 -134.001 12.4932s-72.666 21.833 -105.999 40.5c-12 6.66699 -24.167 14.334 -36.5 23.001s-23.5 18 -33.5 28s-18.167 20.833 -24.5 32.5s-9.5 23.834 -9.5 36.501c0 13.333 2.5 25.5 7.5 36.5s11.5 20.333 19.5 28s17 13.667 27 18
s19.667 6.5 29 6.5c13.333 0 26.5 -3 39.5 -9s30.5 -16 52.5 -30c25.333 -16.667 50.5 -29.167 75.5 -37.5s54.167 -12.5 87.5 -12.5c43.333 0 80 7 110 21s54.5 33 73.5 57s32.833 51.5 41.5 82.5s13 63.5 13 97.5v130c-37.333 -44 -77.333 -74.333 -120 -91
s-90 -25 -142 -25c-51.333 0 -97.5 8 -138.5 24s-75.5 38 -103.5 66c-24.667 24.667 -44.5 51.834 -59.5 81.501s-26.5 61.834 -34.5 96.501s-13.333 71.5 -16 110.5s-4 80.167 -4 123.5c0 42.667 1.33301 83.667 4 123s8 76.333 16 111s19.5 66.834 34.5 96.501
s34.833 56.834 59.5 81.501c28 28 62.833 49.667 104.5 65s88.167 23 139.5 23c52.667 0 100 -8.16699 142 -24.5s81.667 -46.166 119 -89.499c1.33301 20 3.33301 34.667 6 44s6.66699 18 12 26c9.33301 13.333 21.333 23.333 36 30s30.334 10 47.001 10
c17.333 0 33.5 -3.83301 48.5 -11.5s26.833 -18.167 35.5 -31.5c7.33301 -11.333 12.166 -23.333 14.499 -36s3.5 -33 3.5 -61v-876c0 -62 -10 -119 -30 -171s-48.833 -97 -86.5 -135s-83.5 -67.667 -137.5 -89s-114.667 -32 -182 -32zM732.999 525.993
c0 40 -2.16699 79 -6.5 117s-13.5 72 -27.5 102s-34.667 54 -62 72s-64 27 -110 27s-82.667 -9 -110 -27s-48.333 -42 -63 -72s-24.167 -64 -28.5 -102s-6.5 -77 -6.5 -117s2.16699 -79 6.5 -117s13.833 -72 28.5 -102s35.667 -54 63 -72s64 -27 110 -27s82.667 9 110 27
s48 42 62 72s23.167 64 27.5 102s6.5 77 6.5 117z" />
    <glyph glyph-name="h" unicode="h" horiz-adv-x="1137" 
d="M366 131c0 -24.667 -1.00293 -43 -3.00293 -55s-6 -24 -12 -36c-7.33301 -13.333 -18.166 -24.666 -32.499 -33.999s-32.5 -14 -54.5 -14s-40.167 4.66699 -54.5 14s-25.166 20.666 -32.499 33.999c-6 12 -10 24 -12 36s-3 30.333 -3 55v1162c0 24.667 1 43 3 55
s6 24 12 36c7.33301 13.333 18.166 24.666 32.499 33.999s32.5 14 54.5 14s40.167 -4.66699 54.5 -14s25.166 -20.666 32.499 -33.999c6 -12 10 -24 12 -36s3 -30.333 3 -55v-381c36 40 76.667 69 122 87s93.333 27 144 27c52.667 0 100 -7.83301 142 -23.5
s78 -38.5 108 -68.5c39.333 -38 66.333 -81 81 -129s22 -100.333 22 -157v-517c0 -24.667 -1 -43 -3 -55s-6 -24 -12 -36c-7.33301 -13.333 -18.166 -24.666 -32.499 -33.999s-32.5 -14 -54.5 -14s-40.167 4.66699 -54.5 14s-25.166 20.666 -32.499 33.999
c-6 12 -10 24 -12 36s-3 30.333 -3 55v487c0 39.333 -5.33301 73.166 -16 101.499s-25.167 51.5 -43.5 69.5s-40.166 31.333 -65.499 40s-52.333 13 -81 13s-55.667 -4.33301 -81 -13s-47.5 -22 -66.5 -40s-34 -41.167 -45 -69.5s-16.5 -62.166 -16.5 -101.499v-487z" />
    <glyph glyph-name="i" unicode="i" horiz-adv-x="528" 
d="M366 131c0 -24.667 -1 -43 -3 -55s-6 -24 -12 -36c-7.33301 -13.333 -18.166 -24.666 -32.499 -33.999s-32.5 -14 -54.5 -14s-40.167 4.66699 -54.5 14s-25.166 20.666 -32.499 33.999c-6 12 -10 24 -12 36s-3 30.333 -3 55v752c0 24.667 1 43 3 55s6 24 12 36
c7.33301 13.333 18.166 24.666 32.499 33.999s32.5 14 54.5 14s40.167 -4.66699 54.5 -14s25.166 -20.666 32.499 -33.999c6 -12 10 -24 12 -36s3 -30.333 3 -55v-752zM141 1345c0 16.667 3.16699 32.5 9.5 47.5s15.166 28.167 26.499 39.5s24.333 20.166 39 26.499
s30.667 9.5 48 9.5c16.667 0 32.5 -3.16699 47.5 -9.5s28.167 -15.166 39.5 -26.499s20.166 -24.5 26.499 -39.5s9.5 -30.833 9.5 -47.5c0 -17.333 -3.16699 -33.333 -9.5 -48s-15.166 -27.667 -26.499 -39s-24.5 -20.166 -39.5 -26.499s-30.833 -9.5 -47.5 -9.5
c-17.333 0 -33.333 3.16699 -48 9.5s-27.667 15.166 -39 26.499s-20.166 24.333 -26.499 39s-9.5 30.667 -9.5 48z" />
    <glyph glyph-name="j" unicode="j" horiz-adv-x="528" 
d="M141 1345c0 16.667 3.16699 32.5 9.5 47.5s15.166 28.167 26.499 39.5s24.333 20.166 39 26.499s30.667 9.5 48 9.5c16.667 0 32.5 -3.16699 47.5 -9.5s28.167 -15.166 39.5 -26.499s20.166 -24.5 26.499 -39.5s9.5 -30.833 9.5 -47.5
c0 -17.333 -3.16699 -33.333 -9.5 -48s-15.166 -27.667 -26.499 -39s-24.5 -20.166 -39.5 -26.499s-30.833 -9.5 -47.5 -9.5c-17.333 0 -33.333 3.16699 -48 9.5s-27.667 15.166 -39 26.499s-20.166 24.333 -26.499 39s-9.5 30.667 -9.5 48zM162 883
c0 24.667 1.00293 42.998 3.00293 54.998s6 24 12 36c7.33301 13.333 18.166 24.666 32.499 33.999s32.5 14 54.5 14s40.167 -4.66699 54.5 -14s25.166 -20.666 32.499 -33.999c6 -12 10 -24 12 -36s3 -30.333 3 -55v-1016c0 -37.333 -5.33301 -73 -16 -107
s-27.334 -63.833 -50.001 -89.5s-51.167 -46.167 -85.5 -61.5s-75.5 -23 -123.5 -23h-20c-20.667 0 -37.834 1.33301 -51.501 4s-25.167 6.66699 -34.5 12c-12 6.66699 -21.833 15.834 -29.5 27.501s-11.5 26.167 -11.5 43.5s3.83301 32 11.5 44s17.5 21.333 29.5 28
c9.33301 5.33301 19.833 8.83301 31.5 10.5s25.834 2.83398 42.501 3.50098c38 1.33301 64.667 12.333 80 33s23 48.667 23 84v1007z" />
    <glyph glyph-name="k" unicode="k" horiz-adv-x="1040" 
d="M970 88c0 -15.333 -4.16699 -29.999 -12.5 -43.999s-20.166 -25.667 -35.499 -35c-18 -11.333 -36.667 -17 -56 -17c-11.333 0 -21.5 1.66699 -30.5 5s-17.167 8.16602 -24.5 14.499s-14.5 14.333 -21.5 24s-14.5 20.834 -22.5 33.501l-246 392l-155 -180v-150
c0 -24.667 -1 -43 -3 -55s-6 -24 -12 -36c-7.33301 -13.333 -18.166 -24.666 -32.499 -33.999s-32.5 -14 -54.5 -14s-40.167 4.66699 -54.5 14s-25.166 20.666 -32.499 33.999c-6 12 -10 24 -12 36s-3 30.333 -3 55v1162c0 24.667 1 43 3 55s6 24 12 36
c7.33301 13.333 18.166 24.666 32.499 33.999s32.5 14 54.5 14s40.167 -4.66699 54.5 -14s25.166 -20.666 32.499 -33.999c6 -12 10 -24 12 -36s3 -30.333 3 -55v-747l366 417c19.333 21.333 35.666 36.5 48.999 45.5s28 13.5 44 13.5c11.333 0 22.333 -2 33 -6
s20.667 -10 30 -18c12 -10.667 20.333 -21.334 25 -32.001s7 -22 7 -34c0 -14 -3.33301 -27.667 -10 -41s-19 -30.333 -37 -51l-209 -238l271 -428c12.667 -20 21.667 -36.167 27 -48.5s8 -24.833 8 -37.5z" />
    <glyph glyph-name="l" unicode="l" horiz-adv-x="613" 
d="M157 1295c0 24.667 1.00293 43.002 3.00293 55.002s6 24 12 36c7.33301 13.333 18.166 24.666 32.499 33.999s32.5 14 54.5 14s40.167 -4.66699 54.5 -14s25.166 -20.666 32.499 -33.999c6 -12 10 -24 12 -36s3 -30.333 3 -55v-1005c0 -35.333 7.66699 -63.333 23 -84
s42 -31.667 80 -33c16.667 -0.666992 30.834 -1.83398 42.501 -3.50098s22.167 -5.16699 31.5 -10.5c12 -6.66699 21.833 -16 29.5 -28s11.5 -26.667 11.5 -44s-3.83301 -31.833 -11.5 -43.5s-17.5 -20.834 -29.5 -27.501c-9.33301 -5.33301 -20.833 -9.33301 -34.5 -12
s-30.834 -4 -51.501 -4h-20c-48 0 -89.167 7.66699 -123.5 23s-62.833 35.833 -85.5 61.5s-39.334 55.5 -50.001 89.5s-16 69.667 -16 107v1014z" />
    <glyph glyph-name="m" unicode="m" horiz-adv-x="1754" 
d="M1602 131c0 -24.667 -1.00586 -42.9971 -3.00586 -54.9971s-6 -24 -12 -36c-7.33301 -13.333 -18.166 -24.666 -32.499 -33.999s-32.5 -14 -54.5 -14s-40.167 4.66699 -54.5 14s-25.166 20.666 -32.499 33.999c-6 12 -10 24 -12 36s-3 30.333 -3 55v487
c0 39.333 -5.33301 73.166 -16 101.499s-25.167 51.5 -43.5 69.5s-39.833 31.333 -64.5 40s-51.334 13 -80.001 13c-27.333 0 -53.666 -4.33301 -78.999 -13s-47.666 -21.834 -66.999 -39.501s-34.833 -39.834 -46.5 -66.501s-17.5 -58.334 -17.5 -95.001v-497
c0 -24.667 -1 -43 -3 -55s-6 -24 -12 -36c-7.33301 -13.333 -18.166 -24.666 -32.499 -33.999s-32.5 -14 -54.5 -14s-40.167 4.66699 -54.5 14s-25.166 20.666 -32.499 33.999c-6 12 -10 24 -12 36s-3 30.333 -3 55v487c0 39.333 -5.33301 73.166 -16 101.499
s-25.167 51.5 -43.5 69.5s-39.833 31.333 -64.5 40s-51.334 13 -80.001 13s-55.667 -4.33301 -81 -13s-47.5 -22.167 -66.5 -40.5s-34.167 -41.666 -45.5 -69.999s-17 -61.833 -17 -100.5v-487c0 -24.667 -1 -43 -3 -55s-6 -24 -12 -36
c-7.33301 -13.333 -18.166 -24.666 -32.499 -33.999s-32.5 -14 -54.5 -14s-40.167 4.66699 -54.5 14s-25.166 20.666 -32.499 33.999c-6 12 -10 24 -12 36s-3 30.333 -3 55v751c0 28 1.16699 48.333 3.5 61s7.16602 24.667 14.499 36c8.66699 13.333 20.5 23.833 35.5 31.5
s31.167 11.5 48.5 11.5c16.667 0 32.334 -3.33301 47.001 -10s26.667 -16.667 36 -30c5.33301 -7.33301 9.33301 -15.666 12 -24.999s4.66699 -23.333 6 -42c34 36 74.333 63.5 121 82.5s95.334 28.5 146.001 28.5c127.333 0 223.333 -49.333 288 -148
c41.333 50 87.833 87.167 139.5 111.5s111.167 36.5 178.5 36.5c52 0 100.167 -8 144.5 -24s81.5 -38.667 111.5 -68c39.333 -38 67.166 -80.833 83.499 -128.5s24.5 -100.167 24.5 -157.5v-517z" />
    <glyph glyph-name="n" unicode="n" horiz-adv-x="1136" 
d="M366 131c0 -24.667 -1.00195 -43 -3.00195 -55s-6 -24 -12 -36c-7.33301 -13.333 -18.166 -24.666 -32.499 -33.999s-32.5 -14 -54.5 -14s-40.167 4.66699 -54.5 14s-25.166 20.666 -32.499 33.999c-6 12 -10 24 -12 36s-3 30.333 -3 55v751c0 28 1.16699 48.333 3.5 61
s7.16602 24.667 14.499 36c8.66699 13.333 20.5 23.833 35.5 31.5s31.167 11.5 48.5 11.5c16.667 0 32.334 -3.33301 47.001 -10s26.667 -16.667 36 -30c5.33301 -7.33301 9.33301 -15.666 12 -24.999s4.66699 -23.333 6 -42c35.333 37.333 76 65.166 122 83.499
s94.333 27.5 145 27.5c52 0 99.167 -8 141.5 -24s78.5 -38.667 108.5 -68c39.333 -38 66.166 -80.833 80.499 -128.5s21.5 -100.167 21.5 -157.5v-517c0 -24.667 -1 -43 -3 -55s-6 -24 -12 -36c-7.33301 -13.333 -18.166 -24.666 -32.499 -33.999s-32.5 -14 -54.5 -14
s-40.167 4.66699 -54.5 14s-25.166 20.666 -32.499 33.999c-6 12 -10 24 -12 36s-3 30.333 -3 55v487c0 39.333 -5.33301 73.166 -16 101.499s-25.167 51.5 -43.5 69.5s-39.833 31.333 -64.5 40s-51.334 13 -80.001 13s-55.667 -4.33301 -81 -13s-47.5 -22.167 -66.5 -40.5
s-34.167 -41.666 -45.5 -69.999s-17 -61.833 -17 -100.5v-487z" />
    <glyph glyph-name="o" unicode="o" horiz-adv-x="1074" 
d="M319 507c0 -28 0.833008 -55.167 2.5 -81.5s5 -51.5 10 -75.5s12 -46.167 21 -66.5s21.167 -38.166 36.5 -53.499c38 -38.667 87.333 -58 148 -58s110 19.333 148 58c15.333 15.333 27.5 33.166 36.5 53.499s16 42.5 21 66.5s8.33301 49.167 10 75.5s2.5 53.5 2.5 81.5
s-0.833008 55.167 -2.5 81.5s-5 51.5 -10 75.5s-12 46.167 -21 66.5s-21.167 38.166 -36.5 53.499c-38 38.667 -87.333 58 -148 58s-110 -19.333 -148 -58c-15.333 -15.333 -27.5 -33.166 -36.5 -53.499s-16 -42.5 -21 -66.5s-8.33301 -49.167 -10 -75.5
s-2.5 -53.5 -2.5 -81.5zM115 507c0 42.667 1.5 82.667 4.5 120s8.83301 72.5 17.5 105.5s20.834 63.833 36.501 92.5s35.834 55.667 60.501 81c33.333 34 74.833 62.5 124.5 85.5s109.167 34.5 178.5 34.5s128.833 -11.5 178.5 -34.5s91.167 -51.5 124.5 -85.5
c24.667 -25.333 44.667 -52.333 60 -81s27.333 -59.5 36 -92.5s14.667 -68.167 18 -105.5s5 -77.333 5 -120s-1.66699 -82.667 -5 -120s-9.33301 -72.5 -18 -105.5s-20.667 -63.833 -36 -92.5s-35.333 -55.667 -60 -81c-33.333 -34 -74.833 -62.5 -124.5 -85.5
s-109.167 -34.5 -178.5 -34.5s-128.833 11.5 -178.5 34.5s-91.167 51.5 -124.5 85.5c-24.667 25.333 -44.834 52.333 -60.501 81s-27.834 59.5 -36.501 92.5s-14.5 68.167 -17.5 105.5s-4.5 77.333 -4.5 120z" />
    <glyph glyph-name="p" unicode="p" horiz-adv-x="1105" 
d="M177 -369c-6 12 -10.0029 24 -12.0029 36s-3 30.333 -3 55v1161c0 28 1.16699 48.333 3.5 61s7.16602 24.667 14.499 36c8.66699 13.333 20.5 23.833 35.5 31.5s31.167 11.5 48.5 11.5c16.667 0 32.334 -3.33301 47.001 -10s26.667 -16.667 36 -30
c5.33301 -8 9.33301 -16.833 12 -26.5s4.66699 -24.834 6 -45.501c37.333 44.667 77.5 75.167 120.5 91.5s91.167 24.5 144.5 24.5c51.333 0 98.5 -8 141.5 -24s78.5 -38 106.5 -66c24.667 -25.333 44.334 -54 59.001 -86s26 -66.5 34 -103.5s13.167 -75.833 15.5 -116.5
s3.5 -82 3.5 -124c0 -41.333 -1.16699 -82.166 -3.5 -122.499s-7.5 -79 -15.5 -116s-19.333 -71.667 -34 -104s-34.334 -60.833 -59.001 -85.5c-28 -28 -63.167 -50.167 -105.5 -66.5s-89.166 -24.5 -140.499 -24.5c-54 0 -102.5 8.16699 -145.5 24.5
s-83.167 46.5 -120.5 90.5v-381c0 -24.667 -1 -43 -3 -55s-6 -24 -12 -36c-7.33301 -13.333 -18.166 -24.666 -32.499 -33.999s-32.5 -14 -54.5 -14s-40.167 4.66699 -54.5 14s-25.166 20.666 -32.499 33.999zM785.997 508c0 44.667 -2.33301 87.334 -7 128.001
s-14.334 76.334 -29.001 107.001s-35.834 55 -63.501 73s-64.5 27 -110.5 27s-83 -9 -111 -27s-49.333 -42.333 -64 -73s-24.334 -66.334 -29.001 -107.001s-7 -83.334 -7 -128.001c0 -45.333 2.33301 -88.166 7 -128.499s14.334 -76 29.001 -107s36 -55.5 64 -73.5
s65 -27 111 -27s82.833 9 110.5 27s48.834 42.5 63.501 73.5s24.334 66.667 29.001 107s7 83.166 7 128.499z" />
    <glyph glyph-name="q" unicode="q" horiz-adv-x="1105" 
d="M943 -278c0 -24.667 -1.00195 -42.999 -3.00195 -54.999s-6 -24 -12 -36c-7.33301 -13.333 -18.166 -24.666 -32.499 -33.999s-32.5 -14 -54.5 -14s-40.167 4.66699 -54.5 14s-25.166 20.666 -32.499 33.999c-6 12 -10 24 -12 36s-3 30.333 -3 55v381
c-37.333 -44 -77.5 -74 -120.5 -90s-91.5 -24 -145.5 -24c-51.333 0 -98.166 8 -140.499 24s-77.5 38 -105.5 66c-24.667 24.667 -44.334 53.167 -59.001 85.5s-26 67 -34 104s-13.167 75.667 -15.5 116s-3.5 81.166 -3.5 122.499c0 42 1.16699 83.333 3.5 124
s7.5 79.5 15.5 116.5s19.333 71.5 34 103.5s34.334 60.667 59.001 86c28 28 63.5 50 106.5 66s90.167 24 141.5 24c52.667 0 100.667 -8.16699 144 -24.5s83.666 -46.833 120.999 -91.5c1.33301 21.333 3.33301 36.833 6 46.5s6.66699 18.167 12 25.5
c9.33301 13.333 21.333 23.333 36 30s30.334 10 47.001 10c17.333 0 33.5 -3.83301 48.5 -11.5s26.833 -18.167 35.5 -31.5c7.33301 -11.333 12.166 -23.333 14.499 -36s3.5 -33 3.5 -61v-1161zM318.998 508.001c0 -45.333 2.33301 -88.166 7 -128.499
s14.334 -75.833 29.001 -106.5s35.834 -55 63.501 -73s64.5 -27 110.5 -27s83 9 111 27s49.333 42.333 64 73s24.334 66.167 29.001 106.5s7 83.166 7 128.499c0 44.667 -2.33301 87.334 -7 128.001s-14.334 76.334 -29.001 107.001s-36 55 -64 73s-65 27 -111 27
s-82.833 -9 -110.5 -27s-48.834 -42.333 -63.501 -73s-24.334 -66.334 -29.001 -107.001s-7 -83.334 -7 -128.001z" />
    <glyph glyph-name="r" unicode="r" horiz-adv-x="880" 
d="M365 908c28.667 36 65.4961 64.667 110.496 86s94.167 32 147.5 32c38 0 71 -3.66699 99 -11s54.333 -19.333 79 -36c17.333 -11.333 31.833 -24.666 43.5 -39.999s17.5 -32.666 17.5 -51.999c0 -14.667 -2.66699 -28.334 -8 -41.001s-12.666 -23.667 -21.999 -33
c-8.66699 -8.66699 -19.167 -15.5 -31.5 -20.5s-25.166 -7.5 -38.499 -7.5c-10.667 0 -22.167 2 -34.5 6s-27.166 11 -44.499 21c-17.333 9.33301 -35 16.666 -53 21.999s-37 8 -57 8c-29.333 0 -56.5 -5.16699 -81.5 -15.5s-46.833 -25.333 -65.5 -45
s-33.334 -43.5 -44.001 -71.5s-16 -59.667 -16 -95v-484c0 -24.667 -1 -43 -3 -55s-6 -24 -12 -36c-7.33301 -13.333 -18.166 -24.666 -32.499 -33.999s-32.5 -14 -54.5 -14s-40.167 4.66699 -54.5 14s-25.166 20.666 -32.499 33.999c-6 12 -10 24 -12 36s-3 30.333 -3 55
v751c0 28 1.16699 48.333 3.5 61s7.16602 24.667 14.499 36c8.66699 13.333 20.5 23.833 35.5 31.5s31.167 11.5 48.5 11.5c16.667 0 32.334 -3.33301 47.001 -10s26.667 -16.667 36 -30c5.33301 -8 9.33301 -17 12 -27s4.66699 -25.667 6 -47z" />
    <glyph glyph-name="s" unicode="s" horiz-adv-x="999" 
d="M489 -12c-39.333 0 -75.666 1.8252 -108.999 5.49219s-64.166 9.33398 -92.499 17.001s-55 17.334 -80 29.001s-48.833 25.167 -71.5 40.5c-16 11.333 -29.333 24 -40 38s-16 29.667 -16 47c0 13.333 2.83301 26.166 8.5 38.499s13.834 22.833 24.501 31.5
c16 14 34.667 21 56 21c20.667 0 46 -9.66699 76 -29c35.333 -23.333 72.166 -40.5 110.499 -51.5s83.166 -16.5 134.499 -16.5c32.667 0 62.667 2.83301 90 8.5s50.833 14.5 70.5 26.5s35 27 46 45s16.5 39 16.5 63c0 34 -10.5 61.333 -31.5 82
s-56.167 33.334 -105.5 38.001l-163 15c-94.667 8.66699 -168.334 35.167 -221.001 79.5s-79 110.5 -79 198.5c0 50 10 94.167 30 132.5s47.333 70.833 82 97.5s75.167 46.834 121.5 60.501s96.166 20.5 149.499 20.5c54.667 0 103.834 -4.66699 147.501 -14
s85.5 -23.333 125.5 -42c17.333 -8 31 -15.333 41 -22s18.333 -13.667 25 -21c7.33301 -9.33301 12.333 -18.166 15 -26.499s4 -18.166 4 -29.499c0 -10 -2.33301 -20.667 -7 -32s-10.667 -20.666 -18 -27.999c-17.333 -17.333 -37.333 -26 -60 -26
c-9.33301 0 -19.333 1.83301 -30 5.5s-22.667 8.83398 -36 15.501c-32 15.333 -65.333 28 -100 38s-71.667 15 -111 15c-60.667 0 -106.167 -12.5 -136.5 -37.5s-45.5 -56.833 -45.5 -95.5c0 -38 11.667 -65.833 35 -83.5s58.333 -28.5 105 -32.5l160 -15
c47.333 -4.66699 89.666 -13.667 126.999 -27s68.833 -31.666 94.5 -54.999s45.334 -51.833 59.001 -85.5s20.5 -73.167 20.5 -118.5c0 -52.667 -10.667 -99 -32 -139s-50.833 -73.5 -88.5 -100.5s-82.167 -47.333 -133.5 -61s-107.333 -20.5 -168 -20.5z" />
    <glyph glyph-name="t" unicode="t" horiz-adv-x="703" 
d="M204 858l-46.9971 0.00195312c-19.333 0 -33.666 0.666992 -42.999 2s-18.666 4.66602 -27.999 9.99902c-24 13.333 -36 35.333 -36 66s12 52.667 36 66c9.33301 5.33301 18.666 8.66602 27.999 9.99902s23.666 2 42.999 2h47v159c0 24.667 1 43 3 55s6 24 12 36
c7.33301 13.333 18.166 24.666 32.499 33.999s32.5 14 54.5 14s40.167 -4.66699 54.5 -14s25.166 -20.666 32.499 -33.999c6 -12 10 -24 12 -36s3 -30.333 3 -55v-159h110c19.333 0 33.666 -0.666992 42.999 -2s18.666 -4.66602 27.999 -9.99902
c24 -13.333 36 -35.333 36 -66s-12 -52.667 -36 -66c-9.33301 -5.33301 -18.666 -8.66602 -27.999 -9.99902s-23.666 -2 -42.999 -2h-110v-568c0 -35.333 7.66699 -63.333 23 -84s42 -31.667 80 -33c16.667 -0.666992 30.834 -1.83398 42.501 -3.50098
s22.167 -5.16699 31.5 -10.5c12 -6.66699 21.833 -16 29.5 -28s11.5 -26.667 11.5 -44s-3.83301 -31.833 -11.5 -43.5s-17.5 -20.834 -29.5 -27.501c-9.33301 -5.33301 -20.833 -9.33301 -34.5 -12s-30.834 -4 -51.501 -4h-20c-48 0 -89.167 7.66699 -123.5 23
s-62.833 35.833 -85.5 61.5s-39.334 55.5 -50.001 89.5s-16 69.667 -16 107v577z" />
    <glyph glyph-name="u" unicode="u" horiz-adv-x="1136" 
d="M770 883c0 24.667 1.00195 42.999 3.00195 54.999s6 24 12 36c7.33301 13.333 18.166 24.666 32.499 33.999s32.5 14 54.5 14s40.167 -4.66699 54.5 -14s25.166 -20.666 32.499 -33.999c6 -12 10 -24 12 -36s3 -30.333 3 -55v-751c0 -28 -1.16699 -48.333 -3.5 -61
s-7.16602 -24.667 -14.499 -36c-8.66699 -13.333 -20.5 -23.833 -35.5 -31.5s-31.167 -11.5 -48.5 -11.5c-16.667 0 -32.334 3.33301 -47.001 10s-26.667 16.667 -36 30c-5.33301 7.33301 -9.33301 15.666 -12 24.999s-4.66699 23.333 -6 42
c-35.333 -37.333 -76 -65.166 -122 -83.499s-94.333 -27.5 -145 -27.5c-52 0 -99.167 8 -141.5 24s-78.5 38.667 -108.5 68c-39.333 38 -66.166 80.833 -80.499 128.5s-21.5 100.167 -21.5 157.5v517c0 24.667 1 43 3 55s6 24 12 36
c7.33301 13.333 18.166 24.666 32.499 33.999s32.5 14 54.5 14s40.167 -4.66699 54.5 -14s25.166 -20.666 32.499 -33.999c6 -12 10 -24 12 -36s3 -30.333 3 -55v-487c0 -39.333 5.33301 -73.166 16 -101.499s25.167 -51.5 43.5 -69.5s39.833 -31.333 64.5 -40
s51.334 -13 80.001 -13s55.667 4.33301 81 13s47.5 22.167 66.5 40.5s34.167 41.5 45.5 69.5s17 61.667 17 101v487z" />
    <glyph glyph-name="v" unicode="v" horiz-adv-x="898" 
d="M525 18c-20 -17.333 -45.3291 -25.999 -75.9961 -25.999s-56 8.66699 -76 26c-10 8.66699 -18.667 19.167 -26 31.5s-15.333 31.166 -24 56.499l-259 757c-6 18 -10.667 35 -14 51s-2.33301 31.667 3 47s16.666 29.333 33.999 42s37.666 19 60.999 19
c15.333 0 28.333 -2.5 39 -7.5s19.667 -12 27 -21s13.5 -19.5 18.5 -31.5s9.83301 -24.667 14.5 -38l202 -609l202 609c4.66699 13.333 9.5 26 14.5 38s11.167 22.5 18.5 31.5s16.333 16 27 21s23.667 7.5 39 7.5c23.333 0 43.666 -6.33301 60.999 -19
s28.666 -26.667 33.999 -42s6.33301 -31 3 -47s-8 -33 -14 -51l-259 -757c-8 -23.333 -15.833 -41.5 -23.5 -54.5s-16.5 -24.167 -26.5 -33.5z" />
    <glyph glyph-name="w" unicode="w" horiz-adv-x="1466" 
d="M547 118c-8 -26.667 -15.8271 -47.667 -23.4941 -63s-17.167 -27.333 -28.5 -36c-21.333 -18 -46.333 -27 -75 -27c-29.333 0 -54.666 9 -75.999 27c-11.333 8.66699 -20.833 20.667 -28.5 36s-15.5 36.333 -23.5 63l-222 747c-6.66699 22.667 -10.834 40 -12.501 52
s-0.833984 24 2.49902 36c4.66699 19.333 16.167 35.666 34.5 48.999s38.833 20 61.5 20c25.333 0 47 -9 65 -27c7.33301 -7.33301 13.5 -16.666 18.5 -27.999s10.5 -27.666 16.5 -48.999l175 -615l183 599c7.33301 24.667 14.666 44.334 21.999 59.001
s16.666 26.667 27.999 36c18.667 16.667 41.667 25 69 25s50.333 -8.33301 69 -25c11.333 -9.33301 20.666 -21.333 27.999 -36s14.666 -34.334 21.999 -59.001l183 -599l175 615c6 21.333 11.5 37.666 16.5 48.999s11.167 20.666 18.5 27.999c18 18 39.667 27 65 27
c22.667 0 43.167 -6.66699 61.5 -20s29.833 -29.666 34.5 -48.999c3.33301 -12 4.16602 -24 2.49902 -36s-5.83398 -29.333 -12.501 -52l-222 -747c-8 -26.667 -15.833 -47.667 -23.5 -63s-17.167 -27.333 -28.5 -36c-21.333 -18 -46.666 -27 -75.999 -27
c-28.667 0 -53.667 9 -75 27c-11.333 8.66699 -20.833 20.667 -28.5 36s-15.5 36.333 -23.5 63l-186 599z" />
    <glyph glyph-name="x" unicode="x" horiz-adv-x="900" 
d="M819 926c0 -12.667 -2.66699 -25.167 -8 -37.5s-14.333 -28.5 -27 -48.5l-210 -330l215 -336c12.667 -20 21.667 -36.167 27 -48.5s8 -24.833 8 -37.5c0 -15.333 -4.16699 -30 -12.5 -44s-20.166 -25.667 -35.499 -35c-18 -11.333 -36.667 -17 -56 -17
c-11.333 0 -21.5 1.66699 -30.5 5s-17.167 8.16602 -24.5 14.499s-14.5 14.333 -21.5 24s-14.5 20.834 -22.5 33.501l-170 280l-172 -280c-15.333 -25.333 -30 -44.5 -44 -57.5s-32.333 -19.5 -55 -19.5c-19.333 0 -38 5.66699 -56 17
c-15.333 9.33301 -27.166 21 -35.499 35s-12.5 28.667 -12.5 44c0 12.667 2.66699 25.167 8 37.5s14.333 28.5 27 48.5l216 335l-211 331c-12.667 20 -21.667 36.167 -27 48.5s-8 24.833 -8 37.5c0 15.333 4.16699 30 12.5 44s20.166 25.667 35.499 35
c18 11.333 36.667 17 56 17c22.667 0 41 -6.66699 55 -20s28.667 -32.333 44 -57l167 -273l165 273c8 12.667 15.5 23.667 22.5 33s14.167 17.333 21.5 24s15.5 11.667 24.5 15s19.167 5 30.5 5c19.333 0 38 -5.66699 56 -17c15.333 -9.33301 27.166 -21 35.499 -35
s12.5 -28.667 12.5 -44z" />
    <glyph glyph-name="y" unicode="y" horiz-adv-x="898" 
d="M465 -203c-10 -28.667 -20.8281 -52.999 -32.4951 -72.999s-25.5 -37.667 -41.5 -53c-28 -28 -58.667 -47.5 -92 -58.5s-69 -16.5 -107 -16.5c-17.333 0 -34.666 1.66699 -51.999 5s-31.333 9.66602 -42 18.999c-9.33301 8 -16.5 17.5 -21.5 28.5s-7.5 24.5 -7.5 40.5
c0 32 10.333 56 31 72c9.33301 7.33301 18.666 12.333 27.999 15s22.666 4 39.999 4c30 0 55.833 7.5 77.5 22.5s39.5 43.5 53.5 85.5l49 149l-284 826c-6 18 -10.667 35 -14 51s-2.33301 31.667 3 47s16.666 29.333 33.999 42s37.666 19 60.999 19
c15.333 0 28.333 -2.5 39 -7.5s19.667 -12 27 -21s13.5 -19.5 18.5 -31.5s9.83301 -24.667 14.5 -38l200 -621l204 621c4.66699 13.333 9.5 26 14.5 38s11.167 22.5 18.5 31.5s16.333 16 27 21s23.667 7.5 39 7.5c23.333 0 43.666 -6.33301 60.999 -19
s28.666 -26.667 33.999 -42s6.5 -31 3.5 -47s-7.83301 -33 -14.5 -51z" />
    <glyph glyph-name="z" unicode="z" horiz-adv-x="926" 
d="M721 1014c23.333 0 40.999 -1.16406 52.999 -3.49707s23.667 -6.83301 35 -13.5c14.667 -8.66699 25.167 -19.334 31.5 -32.001s9.5 -25.667 9.5 -39c0 -17.333 -3 -33 -9 -47s-16.667 -31.333 -32 -52l-467 -643h385c22 0 38.833 -0.833008 50.5 -2.5
s22.5 -5.5 32.5 -11.5c12.667 -7.33301 22.834 -17.833 30.501 -31.5s11.5 -29.167 11.5 -46.5s-3.83301 -32.833 -11.5 -46.5s-17.834 -24.167 -30.501 -31.5c-10 -5.33301 -20.833 -9 -32.5 -11s-28.5 -3 -50.5 -3h-525c-20.667 0 -37.667 1 -51 3
s-25.666 6.66699 -36.999 14c-13.333 7.33301 -23.333 17.666 -30 30.999s-10 27 -10 41c0 17.333 2.83301 32.666 8.5 45.999s16.5 31 32.5 53l465 642h-356c-22 0 -38.833 1 -50.5 3s-22.5 5.66699 -32.5 11c-12.667 7.33301 -22.834 17.833 -30.501 31.5
s-11.5 29.167 -11.5 46.5s3.83301 32.833 11.5 46.5s17.834 24.167 30.501 31.5c10 6 20.833 9.83301 32.5 11.5s28.5 2.5 50.5 2.5h497z" />
    <glyph glyph-name="braceleft" unicode="{" horiz-adv-x="812" 
d="M84 712c0 26.667 8.33301 48.3369 25 65.0039c9.33301 10 21 16.667 35 20s29.667 6.33301 47 9c27.333 4 50.333 15.333 69 34c23.333 23.333 35 63.333 35 120v334c0 24 1.33301 45.833 4 65.5s6.83398 38 12.501 55s13 32.833 22 47.5s20.167 28.667 33.5 42
c44 44.667 109 67 195 67h42c21.333 0 38 -0.833008 50 -2.5s23.333 -5.16699 34 -10.5c13.333 -6 24 -16.167 32 -30.5s12 -30.5 12 -48.5s-3.83301 -33.833 -11.5 -47.5s-17.834 -23.834 -30.501 -30.501c-9.33301 -5.33301 -19.833 -9 -31.5 -11s-24.167 -3 -37.5 -3
c-24.667 -0.666992 -43.667 -2.83398 -57 -6.50098s-24.666 -10.167 -33.999 -19.5c-11.333 -11.333 -19.333 -26.833 -24 -46.5s-7 -46.834 -7 -81.501v-321c0 -32.667 -4 -60.167 -12 -82.5s-18.167 -41 -30.5 -56s-26.333 -27.333 -42 -37s-31.5 -17.834 -47.5 -24.501
c16 -7.33301 31.833 -15.666 47.5 -24.999s29.667 -21.5 42 -36.5s22.5 -33.667 30.5 -56s12 -49.833 12 -82.5v-321c0 -34.667 2.33301 -61.834 7 -81.501s12.667 -35.167 24 -46.5c9.33301 -9.33301 20.666 -15.833 33.999 -19.5s32.333 -5.83398 57 -6.50098
c13.333 0 25.833 -1 37.5 -3s22.167 -5.66699 31.5 -11c12.667 -6.66699 22.834 -16.834 30.501 -30.501s11.5 -29.5 11.5 -47.5s-4 -34.167 -12 -48.5s-18.667 -24.5 -32 -30.5c-10.667 -5.33301 -22 -8.83301 -34 -10.5s-28.667 -2.5 -50 -2.5h-42
c-86 0 -151 22.333 -195 67c-26.667 26.667 -45.334 56.334 -56.001 89.001s-16 73 -16 121v334c0 56.667 -11.667 96.667 -35 120c-18.667 18.667 -41.667 30 -69 34c-17.333 2.66699 -33 5.66699 -47 9s-25.667 10 -35 20c-16.667 16.667 -25 38.334 -25 65.001z" />
    <glyph glyph-name="bar" unicode="|" horiz-adv-x="676" 
d="M440 -17c0 -24.667 -1 -43 -3 -55s-6 -24 -12 -36c-7.33301 -13.333 -18.166 -24.666 -32.499 -33.999s-32.5 -14 -54.5 -14s-40.167 4.66699 -54.5 14s-25.166 20.666 -32.499 33.999c-6 12 -10 24 -12 36s-3 30.333 -3 55v1458c0 24.667 1 43 3 55s6 24 12 36
c7.33301 13.333 18.166 24.666 32.499 33.999s32.5 14 54.5 14s40.167 -4.66699 54.5 -14s25.166 -20.666 32.499 -33.999c6 -12 10 -24 12 -36s3 -30.333 3 -55v-1458z" />
    <glyph glyph-name="braceright" unicode="}" horiz-adv-x="812" 
d="M728 712c0 -26.667 -8.33301 -48.3369 -25 -65.0039c-9.33301 -10 -21 -16.667 -35 -20s-29.667 -6.33301 -47 -9c-27.333 -4 -50.333 -15.333 -69 -34c-23.333 -23.333 -35 -63.333 -35 -120v-334c0 -48 -5.33301 -88.333 -16 -121s-29.334 -62.334 -56.001 -89.001
c-44 -44.667 -109 -67 -195 -67h-42c-21.333 0 -38 0.833008 -50 2.5s-23.333 5.16699 -34 10.5c-13.333 6 -24 16.167 -32 30.5s-12 30.5 -12 48.5s3.83301 33.833 11.5 47.5s17.834 23.834 30.501 30.501c9.33301 5.33301 19.833 9 31.5 11s24.167 3 37.5 3
c24.667 0.666992 43.667 2.83398 57 6.50098s24.666 10.167 33.999 19.5c11.333 11.333 19.333 26.833 24 46.5s7 46.834 7 81.501v321c0 32.667 4 60.167 12 82.5s18.167 41 30.5 56s26.333 27.167 42 36.5s31.5 17.666 47.5 24.999
c-16 6.66699 -31.833 14.834 -47.5 24.501s-29.667 22 -42 37s-22.5 33.667 -30.5 56s-12 49.833 -12 82.5v321c0 34.667 -2.33301 61.834 -7 81.501s-12.667 35.167 -24 46.5c-9.33301 9.33301 -20.666 15.833 -33.999 19.5s-32.333 5.83398 -57 6.50098
c-13.333 0 -25.833 1 -37.5 3s-22.167 5.66699 -31.5 11c-12.667 6.66699 -22.834 16.834 -30.501 30.501s-11.5 29.5 -11.5 47.5s4 34.167 12 48.5s18.667 24.5 32 30.5c10.667 5.33301 22 8.83301 34 10.5s28.667 2.5 50 2.5h42c86 0 151 -22.333 195 -67
c13.333 -13.333 24.5 -27.333 33.5 -42s16.333 -30.5 22 -47.5s9.83398 -35.333 12.501 -55s4 -41.5 4 -65.5v-334c0 -56.667 11.667 -96.667 35 -120c18.667 -18.667 41.667 -30 69 -34c17.333 -2.66699 33 -5.66699 47 -9s25.667 -10 35 -20
c16.667 -16.667 25 -38.334 25 -65.001z" />
    <glyph glyph-name="asciitilde" unicode="~" horiz-adv-x="1147" 
d="M998 498c-20 -18 -39.3291 -32.998 -57.9961 -44.998s-37.167 -21.5 -55.5 -28.5s-37.166 -12 -56.499 -15s-39.666 -4.5 -60.999 -4.5c-37.333 0 -74.5 6.16699 -111.5 18.5s-74.167 27.5 -111.5 45.5c-28.667 14 -55.667 25.5 -81 34.5s-51.333 13.5 -78 13.5
c-12 0 -23.333 -0.833008 -34 -2.5s-21.334 -4.66699 -32.001 -9s-21.334 -10 -32.001 -17s-22.334 -15.833 -35.001 -26.5c-22 -19.333 -44 -29 -66 -29c-25.333 0 -47.333 10.667 -66 32c-8 9.33301 -14 19.166 -18 29.499s-6 20.5 -6 30.5c0 16 3.83301 31.333 11.5 46
s21.5 31 41.5 49s39.333 33 58 45s37.167 21.5 55.5 28.5s37.166 12 56.499 15s39.666 4.5 60.999 4.5c38 0 75.333 -6.16699 112 -18.5s73.667 -27.5 111 -45.5c28.667 -14 55.667 -25.5 81 -34.5s51.666 -13.5 78.999 -13.5c24 0 45.833 4 65.5 12
s41.834 22.667 66.501 44c22.667 18.667 45 28 67 28c11.333 0 22.5 -2.5 33.5 -7.5s21.5 -13.167 31.5 -24.5c9.33301 -10.667 15.666 -20.834 18.999 -30.501s5 -19.5 5 -29.5c0 -16 -3.83301 -31.333 -11.5 -46s-21.5 -31 -41.5 -49z" />
    <glyph glyph-name="uni00A0" unicode="&#xa0;" horiz-adv-x="480" 
 />
    <glyph glyph-name="exclamdown" unicode="&#xa1;" horiz-adv-x="665" 
d="M192 451c0 13.333 0.166992 24.666 0.5 33.999s1 17.5 2 24.5s2.5 13.5 4.5 19.5s5 12.667 9 20c8 14.667 20 26.5 36 35.5s34.667 13.5 56 13.5s40 -4.5 56 -13.5s28 -20.833 36 -35.5c4 -7.33301 7 -14 9 -20s3.5 -12.5 4.5 -19.5s1.66699 -15.167 2 -24.5
s0.5 -20.666 0.5 -33.999v-722c0 -13.333 -0.166992 -24.666 -0.5 -33.999s-1 -17.5 -2 -24.5s-2.5 -13.667 -4.5 -20s-5 -12.833 -9 -19.5c-8 -14.667 -20 -26.5 -36 -35.5s-34.667 -13.5 -56 -13.5s-40 4.5 -56 13.5s-28 20.833 -36 35.5c-4 6.66699 -7 13.167 -9 19.5
s-3.5 13 -4.5 20s-1.66699 15.167 -2 24.5s-0.5 20.666 -0.5 33.999v722zM170 890c0 18 3.33301 34.833 10 50.5s16 29.5 28 41.5s25.833 21.333 41.5 28s32.5 10 50.5 10s34.833 -3.33301 50.5 -10s29.5 -16 41.5 -28s21.333 -25.833 28 -41.5s10 -32.5 10 -50.5
s-3.33301 -34.833 -10 -50.5s-16 -29.5 -28 -41.5s-25.833 -21.333 -41.5 -28s-32.5 -10 -50.5 -10s-34.833 3.33301 -50.5 10s-29.5 16 -41.5 28s-21.333 25.833 -28 41.5s-10 32.5 -10 50.5z" />
    <glyph glyph-name="cent" unicode="&#xa2;" horiz-adv-x="969" 
d="M110 732c0 82 9.5 153.165 28.5 213.498s44.833 111 77.5 152s70.667 73.333 114 97s89 39.834 137 48.501v64c0 22 1 38.833 3 50.5s5.66699 22.5 11 32.5c7.33301 12.667 17.833 22.834 31.5 30.501s29.167 11.5 46.5 11.5s32.833 -3.83301 46.5 -11.5
s24.167 -17.834 31.5 -30.501c6 -10 9.83301 -20.833 11.5 -32.5s2.5 -28.5 2.5 -50.5v-64c23.333 -5.33301 45.666 -12.5 66.999 -21.5s42.666 -20.5 63.999 -34.5c26.667 -17.333 49.834 -35.5 69.501 -54.5s29.5 -41.5 29.5 -67.5c0 -12.667 -2.5 -24.667 -7.5 -36
s-12.167 -21.666 -21.5 -30.999c-7.33301 -7.33301 -16.666 -13.5 -27.999 -18.5s-23 -7.5 -35 -7.5c-13.333 0 -25.833 3 -37.5 9s-26.167 16 -43.5 30c-11.333 9.33301 -22.166 17 -32.499 23s-20.5 11.333 -30.5 16v-636c18.667 8.66699 39.667 22 63 40
c17.333 13.333 31.833 23.166 43.5 29.499s24.167 9.5 37.5 9.5c12 0 23.667 -2.66699 35 -8s20.666 -11.666 27.999 -18.999c9.33301 -9.33301 16.5 -19.5 21.5 -30.5s7.5 -23.167 7.5 -36.5c0 -12.667 -2.83301 -24.667 -8.5 -36s-13 -22 -22 -32s-19.5 -19.5 -31.5 -28.5
s-24.333 -17.5 -37 -25.5c-20.667 -13.333 -41.5 -24.666 -62.5 -33.999s-43.833 -16.666 -68.5 -21.999v-104c0 -22 -0.833008 -38.833 -2.5 -50.5s-5.5 -22.5 -11.5 -32.5c-7.33301 -12.667 -17.833 -22.834 -31.5 -30.501s-29.167 -11.5 -46.5 -11.5
s-32.833 3.83301 -46.5 11.5s-24.167 17.834 -31.5 30.501c-5.33301 10 -9 20.833 -11 32.5s-3 28.5 -3 50.5v104c-48 8.66699 -93.667 24.667 -137 48s-81.333 55.666 -114 96.999s-58.5 92.166 -77.5 152.499s-28.5 131.5 -28.5 213.5zM375 484.998
c26 -35.333 58.667 -60.002 98 -74.002v642c-40 -14.667 -72.667 -39 -98 -73c-22 -29.333 -37.667 -63.166 -47 -101.499s-14 -87.166 -14 -146.499c0 -60 4.83301 -109 14.5 -147s25.167 -71.333 46.5 -100z" />
    <glyph glyph-name="sterling" unicode="&#xa3;" horiz-adv-x="1161" 
d="M126 637c-24 13.333 -36 35.335 -36 66.002c0 31.333 12 53.666 36 66.999c8.66699 5.33301 18 8.66602 28 9.99902s24.667 2 44 2h46v192c0 73.333 12.333 138.666 37 195.999s58.5 105.666 101.5 144.999s93.167 69.333 150.5 90s119 31 185 31
c56.667 0 107.167 -6.33301 151.5 -19s85.5 -32.334 123.5 -59.001c22.667 -16 39.167 -31.833 49.5 -47.5s15.5 -34.167 15.5 -55.5c0 -27.333 -9 -50.666 -27 -69.999c-16 -17.333 -34.667 -26 -56 -26c-14 0 -26.667 2.33301 -38 7s-25 12 -41 22
c-15.333 10 -30 18.5 -44 25.5s-27.833 12.833 -41.5 17.5s-28 8 -43 10s-31.167 3 -48.5 3c-80.667 0 -144 -24.167 -190 -72.5s-69 -119.5 -69 -213.5v-176h184c19.333 0 33.833 -0.666992 43.5 -2s18.834 -4.66602 27.501 -9.99902c24 -13.333 36 -35.666 36 -66.999
c0 -30.667 -12 -52.667 -36 -66c-8.66699 -5.33301 -17.834 -8.66602 -27.501 -9.99902s-24.167 -2 -43.5 -2h-184v-433h481c23.333 0 41 -0.833008 53 -2.5s23.667 -5.5 35 -11.5c13.333 -7.33301 24 -18 32 -32s12 -30.667 12 -50s-4 -36 -12 -50s-18.667 -24.667 -32 -32
c-11.333 -6 -23 -9.83301 -35 -11.5s-29.667 -2.5 -53 -2.5h-565c-16 0 -33 1.33301 -51 4s-34.667 11.667 -50 27s-24.333 32 -27 50s-4 35 -4 51v493h-46c-19.333 0 -34 0.666992 -44 2s-19.333 4.66602 -28 9.99902z" />
    <glyph glyph-name="currency" unicode="&#xa4;" horiz-adv-x="1329" 
d="M1047 805c23.333 -35.333 41.667 -73.833 55 -115.5s20 -85.5 20 -131.5s-6.66699 -90 -20 -132s-32 -80.667 -56 -116l85 -84c17.333 -17.333 29.333 -30.833 36 -40.5s11.667 -20.167 15 -31.5c4 -15.333 4 -30.333 0 -45s-12.667 -28.667 -26 -42
s-27.666 -22.166 -42.999 -26.499s-30.666 -4.5 -45.999 -0.5c-11.333 3.33301 -21.666 8.33301 -30.999 15s-22.666 18.667 -39.999 36l-85 84c-35.333 -24 -73.833 -42.5 -115.5 -55.5s-85.5 -19.5 -131.5 -19.5s-89.833 6.5 -131.5 19.5s-80.167 31.5 -115.5 55.5
l-84 -84c-17.333 -17.333 -30.666 -29.333 -39.999 -36s-19.666 -11.667 -30.999 -15c-15.333 -4 -30.666 -3.83301 -45.999 0.5s-29.666 13.166 -42.999 26.499s-22 27.333 -26 42s-4 29.667 0 45c3.33301 11.333 8.33301 21.833 15 31.5s18.667 23.167 36 40.5l84 84
c-24 35.333 -42.667 74 -56 116s-20 86 -20 132s6.5 89.833 19.5 131.5s31.5 80.167 55.5 115.5l-83 84c-17.333 17.333 -29.333 30.833 -36 40.5s-11.667 20.167 -15 31.5c-4 15.333 -4 30.333 0 45s12.667 28.667 26 42s27.666 22.166 42.999 26.499
s30.666 4.5 45.999 0.5c11.333 -3.33301 21.666 -8.33301 30.999 -15s22.666 -18.667 39.999 -36l83 -84c35.333 24 74 42.333 116 55s86 19 132 19s90 -6.33301 132 -19s80.667 -31 116 -55l84 84c17.333 17.333 30.666 29.333 39.999 36s19.666 11.667 30.999 15
c15.333 4 30.666 3.83301 45.999 -0.5s29.666 -13.166 42.999 -26.499s22 -27.333 26 -42s4 -29.667 0 -45c-3.33301 -11.333 -8.33301 -21.833 -15 -31.5s-18.667 -23.167 -36 -40.5zM392.001 557c0 -37.333 7.16699 -72.5 21.5 -105.5s33.833 -61.833 58.5 -86.5
s53.5 -44.167 86.5 -58.5s68.167 -21.5 105.5 -21.5s72.5 7.16699 105.5 21.5s61.833 33.833 86.5 58.5s44.167 53.5 58.5 86.5s21.5 68.167 21.5 105.5s-7.16699 72.5 -21.5 105.5s-33.833 61.833 -58.5 86.5s-53.5 44.167 -86.5 58.5s-68.167 21.5 -105.5 21.5
s-72.5 -7.16699 -105.5 -21.5s-61.833 -33.833 -86.5 -58.5s-44.167 -53.5 -58.5 -86.5s-21.5 -68.167 -21.5 -105.5z" />
    <glyph glyph-name="yen" unicode="&#xa5;" horiz-adv-x="1070" 
d="M67 1340c0.666992 15.333 5.66602 30.166 14.999 44.499s23 26.166 41 35.499c8 4 16.5 7 25.5 9s17.5 3 25.5 3c17.333 0 33.666 -5 48.999 -15c10.667 -7.33301 19.334 -16.166 26.001 -26.499s15.667 -26.5 27 -48.5l259 -523l259 523
c11.333 22 20.333 38.167 27 48.5s15.334 19.166 26.001 26.499c14.667 10 31 15 49 15c8 0 16.5 -1 25.5 -3s17.5 -5 25.5 -9c18 -9.33301 31.667 -21.166 41 -35.499s14.333 -29.166 15 -44.499c0.666992 -13.333 -0.833008 -26 -4.5 -38s-11.167 -29 -22.5 -51l-212 -424
h94c19.333 0 33.666 -0.666992 42.999 -2s18.666 -4.66602 27.999 -9.99902c24 -13.333 36 -35.333 36 -66s-12 -52.667 -36 -66c-9.33301 -5.33301 -18.666 -8.66602 -27.999 -9.99902s-23.666 -2 -42.999 -2h-172l-43 -86v-91h215c19.333 0 33.666 -0.666992 42.999 -2
s18.666 -4.66602 27.999 -9.99902c24 -13.333 36 -35.333 36 -66s-12 -52.667 -36 -66c-9.33301 -5.33301 -18.666 -8.66602 -27.999 -9.99902s-23.666 -2 -42.999 -2h-215v-199c0 -13.333 -0.166992 -24.666 -0.5 -33.999s-1 -17.5 -2 -24.5s-2.5 -13.667 -4.5 -20
s-5 -12.833 -9 -19.5c-8 -14.667 -20 -26.5 -36 -35.5s-34.667 -13.5 -56 -13.5s-40 4.5 -56 13.5s-28 20.833 -36 35.5c-4 6.66699 -7 13.167 -9 19.5s-3.5 13 -4.5 20s-1.66699 15.167 -2 24.5s-0.5 20.666 -0.5 33.999v199h-216c-19.333 0 -33.666 0.666992 -42.999 2
s-18.666 4.66602 -27.999 9.99902c-24 13.333 -36 35.333 -36 66s12 52.667 36 66c9.33301 5.33301 18.666 8.66602 27.999 9.99902s23.666 2 42.999 2h216v91l-43 86h-173c-19.333 0 -33.666 0.666992 -42.999 2s-18.666 4.66602 -27.999 9.99902
c-24 13.333 -36 35.333 -36 66s12 52.667 36 66c9.33301 5.33301 18.666 8.66602 27.999 9.99902s23.666 2 42.999 2h95l-212 424c-11.333 22 -18.833 39 -22.5 51s-5.16699 24.667 -4.5 38z" />
    <glyph glyph-name="brokenbar" unicode="&#xa6;" horiz-adv-x="676" 
d="M440 -17c0 -24.667 -1 -43 -3 -55s-6 -24 -12 -36c-7.33301 -13.333 -18.166 -24.666 -32.499 -33.999s-32.5 -14 -54.5 -14s-40.167 4.66699 -54.5 14s-25.166 20.666 -32.499 33.999c-6 12 -10 24 -12 36s-3 30.333 -3 55v438c0 24.667 1 43 3 55s6 24 12 36
c7.33301 13.333 18.166 24.666 32.499 33.999s32.5 14 54.5 14s40.167 -4.66699 54.5 -14s25.166 -20.666 32.499 -33.999c6 -12 10 -24 12 -36s3 -30.333 3 -55v-438zM440 1003c0 -24.667 -1 -43 -3 -55s-6 -24 -12 -36c-7.33301 -13.333 -18.166 -24.666 -32.499 -33.999
s-32.5 -14 -54.5 -14s-40.167 4.66699 -54.5 14s-25.166 20.666 -32.499 33.999c-6 12 -10 24 -12 36s-3 30.333 -3 55v438c0 24.667 1 43 3 55s6 24 12 36c7.33301 13.333 18.166 24.666 32.499 33.999s32.5 14 54.5 14s40.167 -4.66699 54.5 -14
s25.166 -20.666 32.499 -33.999c6 -12 10 -24 12 -36s3 -30.333 3 -55v-438z" />
    <glyph glyph-name="section" unicode="&#xa7;" horiz-adv-x="1090" 
d="M443 140c-99.333 30 -173.498 74.998 -222.498 134.998s-73.5 138.667 -73.5 236c0 40 5.83301 76.833 17.5 110.5s27 63.834 46 90.501s40 49.667 63 69s46.167 35 69.5 47c-24.667 12 -47.334 26 -68.001 42s-38.5 34.833 -53.5 56.5s-26.667 46.667 -35 75
s-12.5 60.833 -12.5 97.5c0 46.667 8.33301 90.334 25 131.001s40.834 76.334 72.501 107.001s70.5 54.834 116.5 72.501s98.667 26.5 158 26.5c76.667 0 140.667 -11.833 192 -35.5s93 -57.5 125 -101.5c16.667 -22.667 29.5 -46.334 38.5 -71.001s13.5 -49 13.5 -73
c0 -11.333 -1.5 -22.5 -4.5 -33.5s-6.83301 -20.5 -11.5 -28.5c-7.33301 -12.667 -18.166 -22.834 -32.499 -30.501s-30.5 -11.5 -48.5 -11.5c-30 0 -54 10 -72 30c-6 7.33301 -10.833 15 -14.5 23s-6.83398 18.667 -9.50098 32c-8 45.333 -26.833 77.666 -56.5 96.999
s-69.5 29 -119.5 29c-54.667 0 -97.667 -13.333 -129 -40s-47 -65.334 -47 -116.001c0 -44 13 -79 39 -105s66 -47.333 120 -64l126 -39c94.667 -29.333 166.334 -73.666 215.001 -132.999s73 -137.333 73 -234c0 -40 -5.83301 -77 -17.5 -111s-26.834 -64.333 -45.501 -91
s-39.334 -49.667 -62.001 -69s-45.334 -35 -68.001 -47c24.667 -10.667 47.834 -24.167 69.501 -40.5s40.5 -36 56.5 -59s28.5 -49.5 37.5 -79.5s13.5 -63.667 13.5 -101c0 -57.333 -10.5 -108 -31.5 -152s-49 -81 -84 -111s-75.667 -52.667 -122 -68
s-94.833 -23 -145.5 -23c-72 0 -132.5 10.833 -181.5 32.5s-89.5 50.5 -121.5 86.5c-22.667 25.333 -40.167 51.833 -52.5 79.5s-18.5 56.5 -18.5 86.5c0 13.333 1.5 25.5 4.5 36.5s7.16699 20.5 12.5 28.5c7.33301 12 18 21.833 32 29.5s30 11.5 48 11.5
c14 0 26.833 -2.33301 38.5 -7s21.5 -11 29.5 -19s14 -17.167 18 -27.5s7 -21.166 9 -32.499c8 -44 27.5 -76.167 58.5 -96.5s72.167 -30.5 123.5 -30.5c57.333 0 102.166 14.5 134.499 43.5s48.5 70.5 48.5 124.5c0 38 -12.333 72.5 -37 103.5s-64.667 55.167 -120 72.5z
M347.002 520.998c0 -34.667 4.33301 -64.5 13 -89.5s22.667 -47.833 42 -68.5c36 -38 83.667 -57 143 -57s107 19 143 57c19.333 20.667 33.333 43.5 42 68.5s13 54.833 13 89.5s-4.33301 64.5 -13 89.5s-22.667 47.833 -42 68.5c-36 38 -83.667 57 -143 57
s-107 -19 -143 -57c-19.333 -20.667 -33.333 -43.5 -42 -68.5s-13 -54.833 -13 -89.5z" />
    <glyph glyph-name="dieresis" unicode="&#xa8;" horiz-adv-x="1076" 
d="M872 1314c0 -15.333 -3 -30 -9 -44s-14 -26.167 -24 -36.5s-21.833 -18.5 -35.5 -24.5s-28.167 -9 -43.5 -9s-30 3 -44 9s-26.167 14.167 -36.5 24.5s-18.5 22.5 -24.5 36.5s-9 28.667 -9 44s3 29.833 9 43.5s14.167 25.5 24.5 35.5s22.5 18 36.5 24s28.667 9 44 9
s29.833 -3 43.5 -9s25.5 -14 35.5 -24s18 -21.833 24 -35.5s9 -28.167 9 -43.5zM432 1314c0 -15.333 -3 -30 -9 -44s-14.167 -26.167 -24.5 -36.5s-22.5 -18.5 -36.5 -24.5s-28.667 -9 -44 -9s-29.833 3 -43.5 9s-25.5 14.167 -35.5 24.5s-18 22.5 -24 36.5s-9 28.667 -9 44
s3 29.833 9 43.5s14 25.5 24 35.5s21.833 18 35.5 24s28.167 9 43.5 9s30 -3 44 -9s26.167 -14 36.5 -24s18.5 -21.833 24.5 -35.5s9 -28.167 9 -43.5z" />
    <glyph glyph-name="copyright" unicode="&#xa9;" horiz-adv-x="1724" 
d="M1586 712c0 -66.667 -8.66699 -130.834 -26 -192.501s-41.666 -119.334 -72.999 -173.001s-69 -102.5 -113 -146.5s-92.833 -81.667 -146.5 -113s-111.334 -55.666 -173.001 -72.999s-125.834 -26 -192.501 -26s-130.834 8.66699 -192.501 26
s-119.334 41.666 -173.001 72.999s-102.5 69 -146.5 113s-81.667 92.833 -113 146.5s-55.666 111.334 -72.999 173.001s-26 125.834 -26 192.501s8.66699 130.834 26 192.501s41.666 119.334 72.999 173.001s69 102.5 113 146.5s92.833 81.667 146.5 113
s111.334 55.666 173.001 72.999s125.834 26 192.501 26s130.834 -8.66699 192.501 -26s119.334 -41.666 173.001 -72.999s102.5 -69 146.5 -113s81.667 -92.833 113 -146.5s55.666 -111.334 72.999 -173.001s26 -125.834 26 -192.501zM1447 712
c0 83.333 -15.167 161.166 -45.5 233.499s-71.833 135.333 -124.5 189s-114.667 95.834 -186 126.501s-147.666 46 -228.999 46s-157.666 -15.333 -228.999 -46s-133.5 -72.834 -186.5 -126.501s-94.667 -116.667 -125 -189s-45.5 -150.166 -45.5 -233.499
s15.167 -161.166 45.5 -233.499s72 -135.333 125 -189s115.167 -95.834 186.5 -126.501s147.666 -46 228.999 -46s157.666 15.333 228.999 46s133.333 72.834 186 126.501s94.167 116.667 124.5 189s45.5 150.166 45.5 233.499zM544 712c0 57.333 8 108.837 24 154.504
s38.5 84.5 67.5 116.5s64 56.5 105 73.5s86.5 25.5 136.5 25.5c38 0 73.5 -5.33301 106.5 -16s62.167 -28 87.5 -52c11.333 -11.333 20.166 -21.833 26.499 -31.5s9.5 -20.167 9.5 -31.5c0 -16.667 -5.66699 -30.667 -17 -42c-12 -12 -26.333 -18 -43 -18
c-9.33301 0 -18.666 2.16699 -27.999 6.5s-19.666 11.166 -30.999 20.499c-19.333 15.333 -37.333 26.166 -54 32.499s-35.667 9.5 -57 9.5c-34.667 0 -64.5 -6.16699 -89.5 -18.5s-45.5 -29.5 -61.5 -51.5s-27.667 -48.167 -35 -78.5s-11 -63.5 -11 -99.5
s3.66699 -69.167 11 -99.5s19 -56.5 35 -78.5s36.5 -39.167 61.5 -51.5s54.833 -18.5 89.5 -18.5c21.333 0 40.333 3.16699 57 9.5s34.667 17.166 54 32.499c11.333 9.33301 21.666 16.166 30.999 20.499s18.666 6.5 27.999 6.5c16.667 0 31 -6 43 -18
c11.333 -11.333 17 -25.333 17 -42c0 -11.333 -3.16699 -21.833 -9.5 -31.5s-15.166 -20.167 -26.499 -31.5c-25.333 -24 -54.5 -41.333 -87.5 -52s-68.5 -16 -106.5 -16c-50 0 -95.5 8.5 -136.5 25.5s-76 41.5 -105 73.5s-51.5 70.833 -67.5 116.5s-24 97.167 -24 154.5z
" />
    <glyph glyph-name="ordfeminine" unicode="&#xaa;" horiz-adv-x="903" 
d="M753 721c0 -19.333 -0.664062 -33.6709 -1.99707 -43.0039s-4.66602 -18.666 -9.99902 -27.999c-13.333 -24 -35.333 -36 -66 -36s-52.667 12 -66 36c-3.33301 6.66699 -6 13.167 -8 19.5s-3.33301 14.166 -4 23.499c-16.667 -14.667 -32.834 -27.167 -48.501 -37.5
s-32 -18.666 -49 -24.999s-35 -10.833 -54 -13.5s-40.5 -4 -64.5 -4c-97.333 0 -170 26.333 -218 79c-39.333 43.333 -59 98 -59 164c0 32 5.83301 61.833 17.5 89.5s29.167 51.667 52.5 72s52.166 36.333 86.499 48s74.5 17.5 120.5 17.5h216v60
c0 56 -14.333 95.667 -43 119s-73 35 -133 35c-18 0 -34.167 -1.16699 -48.5 -3.5s-27.5 -6 -39.5 -11s-23.5 -11.167 -34.5 -18.5s-22.167 -16 -33.5 -26c-10.667 -9.33301 -21.334 -15.666 -32.001 -18.999s-20 -5 -28 -5c-7.33301 0 -14.833 1.33301 -22.5 4
s-14.5 7.33398 -20.5 14.001c-6 7.33301 -10.5 14.666 -13.5 21.999s-4.5 16.333 -4.5 27c0 18 7.16699 35.333 21.5 52s35.166 33.334 62.499 50.001c52 31.333 116.333 47 193 47c111.333 0 194.5 -23.167 249.5 -69.5s82.5 -115.166 82.5 -206.499v-433zM597.003 973.995
h-194.999c-50 0 -87 -10.333 -111 -31s-36 -49.667 -36 -87s12.167 -65.833 36.5 -85.5s62.166 -29.5 113.499 -29.5c32.667 0 61.667 2.66699 87 8s48.333 18 69 38c12 12 21 27.833 27 47.5s9 44.5 9 74.5v65z" />
    <glyph glyph-name="guillemotleft" unicode="&#xab;" horiz-adv-x="1218" 
d="M343 525l189 -189.002c17.333 -17.333 29.333 -30.833 36 -40.5s11.667 -20.167 15 -31.5c4 -15.333 4 -30.333 0 -45s-12.667 -28.667 -26 -42s-27.666 -22.166 -42.999 -26.499s-30.666 -4.5 -45.999 -0.5c-11.333 3.33301 -21.666 8.33301 -30.999 15
s-22.666 18.667 -39.999 36l-324 324l324 324c17.333 17.333 30.666 29.333 39.999 36s19.666 11.667 30.999 15c15.333 4 30.666 3.83301 45.999 -0.5s29.666 -13.166 42.999 -26.499s22 -27.333 26 -42s4 -29.667 0 -45c-3.33301 -11.333 -8.33301 -21.833 -15 -31.5
s-18.667 -23.167 -36 -40.5zM848 524.998l189 -189.002c17.333 -17.333 29.333 -30.833 36 -40.5s11.667 -20.167 15 -31.5c4 -15.333 4 -30.333 0 -45s-12.667 -28.667 -26 -42s-27.666 -22.166 -42.999 -26.499s-30.666 -4.5 -45.999 -0.5
c-11.333 3.33301 -21.666 8.33301 -30.999 15s-22.666 18.667 -39.999 36l-324 324l324 324c17.333 17.333 30.666 29.333 39.999 36s19.666 11.667 30.999 15c15.333 4 30.666 3.83301 45.999 -0.5s29.666 -13.166 42.999 -26.499s22 -27.333 26 -42s4 -29.667 0 -45
c-3.33301 -11.333 -8.33301 -21.833 -15 -31.5s-18.667 -23.167 -36 -40.5z" />
    <glyph glyph-name="logicalnot" unicode="&#xac;" 
d="M214 477c-22 0 -38.833 1 -50.5 3s-22.5 5.66699 -32.5 11c-12.667 7.33301 -22.834 17.833 -30.501 31.5s-11.5 29.167 -11.5 46.5s3.83301 32.833 11.5 46.5s17.834 24.167 30.501 31.5c10 6 20.833 9.83301 32.5 11.5s28.5 2.5 50.5 2.5h628
c15.333 0 31.5 -1.16699 48.5 -3.5s32.833 -10.833 47.5 -25.5s23.167 -30.5 25.5 -47.5s3.5 -33.167 3.5 -48.5v-221c0 -22 -1 -38.833 -3 -50.5s-5.66699 -22.5 -11 -32.5c-7.33301 -12.667 -17.833 -22.834 -31.5 -30.501s-29.167 -11.5 -46.5 -11.5
s-32.833 3.83301 -46.5 11.5s-24.167 17.834 -31.5 30.501c-6 10 -9.83301 20.833 -11.5 32.5s-2.5 28.5 -2.5 50.5v162h-569z" />
    <glyph glyph-name="uni00AD" unicode="&#xad;" horiz-adv-x="854" 
d="M252 463c-22 0 -38.833 1 -50.5 3s-22.5 5.66699 -32.5 11c-12.667 7.33301 -22.834 17.833 -30.501 31.5s-11.5 29.167 -11.5 46.5s3.83301 32.833 11.5 46.5s17.834 24.167 30.501 31.5c10 6 20.833 9.83301 32.5 11.5s28.5 2.5 50.5 2.5h350
c22 0 38.833 -0.833008 50.5 -2.5s22.5 -5.5 32.5 -11.5c12.667 -7.33301 22.834 -17.833 30.501 -31.5s11.5 -29.167 11.5 -46.5s-3.83301 -32.833 -11.5 -46.5s-17.834 -24.167 -30.501 -31.5c-10 -5.33301 -20.833 -9 -32.5 -11s-28.5 -3 -50.5 -3h-350z" />
    <glyph glyph-name="registered" unicode="&#xae;" horiz-adv-x="1724" 
d="M1586 712c0 -66.667 -8.66699 -130.834 -26 -192.501s-41.666 -119.334 -72.999 -173.001s-69 -102.5 -113 -146.5s-92.833 -81.667 -146.5 -113s-111.334 -55.666 -173.001 -72.999s-125.834 -26 -192.501 -26s-130.834 8.66699 -192.501 26
s-119.334 41.666 -173.001 72.999s-102.5 69 -146.5 113s-81.667 92.833 -113 146.5s-55.666 111.334 -72.999 173.001s-26 125.834 -26 192.501s8.66699 130.834 26 192.501s41.666 119.334 72.999 173.001s69 102.5 113 146.5s92.833 81.667 146.5 113
s111.334 55.666 173.001 72.999s125.834 26 192.501 26s130.834 -8.66699 192.501 -26s119.334 -41.666 173.001 -72.999s102.5 -69 146.5 -113s81.667 -92.833 113 -146.5s55.666 -111.334 72.999 -173.001s26 -125.834 26 -192.501zM1447 712
c0 83.333 -15.167 161.166 -45.5 233.499s-71.833 135.333 -124.5 189s-114.667 95.834 -186 126.501s-147.666 46 -228.999 46c-82 0 -158.5 -15.333 -229.5 -46s-133 -72.834 -186 -126.501s-94.667 -116.667 -125 -189s-45.5 -150.166 -45.5 -233.499
s15.167 -161.166 45.5 -233.499s72 -135.333 125 -189s115 -95.834 186 -126.501s147.5 -46 229.5 -46c81.333 0 157.666 15.333 228.999 46s133.333 72.834 186 126.501s94.167 116.667 124.5 189s45.5 150.166 45.5 233.499zM765 437
c0 -17.333 -0.666992 -30.332 -2 -38.999s-4 -16.667 -8 -24c-12.667 -20.667 -32 -31 -58 -31s-45.333 10.333 -58 31c-4 7.33301 -6.66699 15.333 -8 24s-2 21.667 -2 39v554c0 11.333 0.833008 22.666 2.5 33.999s7.16699 21.666 16.5 30.999s19.666 14.833 30.999 16.5
s22.666 2.5 33.999 2.5h189c34.667 0 66.5 -5.83301 95.5 -17.5s53.833 -27.5 74.5 -47.5s36.667 -43.5 48 -70.5s17 -55.833 17 -86.5c0 -26 -3.66699 -49.667 -11 -71s-17.333 -40.166 -30 -56.499s-27.5 -30.166 -44.5 -41.499s-35.167 -20.333 -54.5 -27l112 -192
c8.66699 -14 14.334 -25 17.001 -33s4.33398 -16.333 5.00098 -25c0.666992 -10 -2 -19.833 -8 -29.5s-14.667 -17.834 -26 -24.501c-10.667 -6.66699 -22.334 -10 -35.001 -10c-15.333 0 -27.666 4.83301 -36.999 14.5s-19.333 23.5 -30 41.5l-139 239h-91v-201z
M765 959.001v-213h120c34 0 61.833 9.33301 83.5 28s32.5 45 32.5 79s-10.833 60.167 -32.5 78.5s-49.5 27.5 -83.5 27.5h-120z" />
    <glyph glyph-name="macron" unicode="&#xaf;" horiz-adv-x="1076" 
d="M848 1319c0 -32.667 -12.333 -55.667 -37 -69c-9.33301 -5.33301 -19 -8.83301 -29 -10.5s-25 -2.5 -45 -2.5h-399c-20 0 -35 0.833008 -45 2.5s-19.667 5.16699 -29 10.5c-25.333 14 -38 37 -38 69s12.667 55 38 69c9.33301 5.33301 19 8.83301 29 10.5s25 2.5 45 2.5
h399c20 0 35 -0.833008 45 -2.5s19.667 -5.16699 29 -10.5c24.667 -13.333 37 -36.333 37 -69z" />
    <glyph glyph-name="degree" unicode="&#xb0;" horiz-adv-x="941" 
d="M471 750c-48 0 -93.333 9.16699 -136 27.5s-79.667 43.166 -111 74.499s-56.166 68.333 -74.499 111s-27.5 88 -27.5 136s9.16699 93.333 27.5 136s43.166 79.667 74.499 111s68.333 56.166 111 74.499s88 27.5 136 27.5s93.333 -9.16699 136 -27.5
s79.667 -43.166 111 -74.499s56.166 -68.333 74.499 -111s27.5 -88 27.5 -136s-9.16699 -93.333 -27.5 -136s-43.166 -79.667 -74.499 -111s-68.333 -56.166 -111 -74.499s-88 -27.5 -136 -27.5zM471 914c25.333 0 49 4.66699 71 14s41.167 22.333 57.5 39
s29.166 36.334 38.499 59.001s14 47 14 73s-4.66699 50.333 -14 73s-22.166 42.334 -38.499 59.001s-35.5 29.667 -57.5 39s-45.667 14 -71 14s-49 -4.66699 -71 -14s-41.167 -22.333 -57.5 -39s-29.166 -36.334 -38.499 -59.001s-14 -47 -14 -73s4.66699 -50.333 14 -73
s22.166 -42.334 38.499 -59.001s35.5 -29.667 57.5 -39s45.667 -14 71 -14z" />
    <glyph glyph-name="plusminus" unicode="&#xb1;" 
d="M441 633h-222c-22 0 -38.833 1 -50.5 3s-22.5 5.66699 -32.5 11c-12.667 7.33301 -22.834 17.833 -30.501 31.5s-11.5 29.167 -11.5 46.5s3.83301 32.833 11.5 46.5s17.834 24.167 30.501 31.5c10 6 20.833 9.83301 32.5 11.5s28.5 2.5 50.5 2.5h222v222
c0 22 1 38.833 3 50.5s5.66699 22.5 11 32.5c7.33301 12.667 17.833 22.834 31.5 30.501s29.167 11.5 46.5 11.5s32.833 -3.83301 46.5 -11.5s24.167 -17.834 31.5 -30.501c6 -10 9.83301 -20.833 11.5 -32.5s2.5 -28.5 2.5 -50.5v-222h222c22 0 38.833 -0.833008 50.5 -2.5
s22.5 -5.5 32.5 -11.5c12.667 -7.33301 22.834 -17.833 30.501 -31.5s11.5 -29.167 11.5 -46.5s-3.83301 -32.833 -11.5 -46.5s-17.834 -24.167 -30.501 -31.5c-10 -5.33301 -20.833 -9 -32.5 -11s-28.5 -3 -50.5 -3h-222v-222c0 -22 -0.833008 -38.833 -2.5 -50.5
s-5.5 -22.5 -11.5 -32.5c-7.33301 -12.667 -17.833 -22.834 -31.5 -30.501s-29.167 -11.5 -46.5 -11.5s-32.833 3.83301 -46.5 11.5s-24.167 17.834 -31.5 30.501c-5.33301 10 -9 20.833 -11 32.5s-3 28.5 -3 50.5v222zM219 1c-22 0 -38.833 1 -50.5 3
s-22.5 5.66699 -32.5 11c-12.667 7.33301 -22.834 17.833 -30.501 31.5s-11.5 29.167 -11.5 46.5s3.83301 32.833 11.5 46.5s17.834 24.167 30.501 31.5c10 6 20.833 9.83301 32.5 11.5s28.5 2.5 50.5 2.5h628c22 0 38.833 -0.833008 50.5 -2.5s22.5 -5.5 32.5 -11.5
c12.667 -7.33301 22.834 -17.833 30.501 -31.5s11.5 -29.167 11.5 -46.5s-3.83301 -32.833 -11.5 -46.5s-17.834 -24.167 -30.501 -31.5c-10 -5.33301 -20.833 -9 -32.5 -11s-28.5 -3 -50.5 -3h-628z" />
    <glyph glyph-name="twosuperior" unicode="&#xb2;" horiz-adv-x="650" 
d="M166 570c-16 0 -30.6631 1 -43.9961 3s-25 8.33301 -35 19c-12.667 14 -19 31.333 -19 52c0 14.667 3.33301 27.834 10 39.501s15.667 24.167 27 37.5l284 352c16 19.333 28.167 37.833 36.5 55.5s12.5 37.167 12.5 58.5c0 32 -9.5 57.833 -28.5 77.5
s-45.5 29.5 -79.5 29.5c-25.333 0 -47.833 -6.66699 -67.5 -20s-33.5 -34.333 -41.5 -63c-5.33301 -19.333 -14.333 -35.333 -27 -48c-4.66699 -4 -10.834 -7.66699 -18.501 -11s-16.834 -5 -27.501 -5c-26.667 0 -46.334 9.66699 -59.001 29c-8.66699 12.667 -13 28 -13 46
c0 21.333 5.33301 43 16 65s22.667 41 36 57c24 28 52.167 49.667 84.5 65s71.5 23 117.5 23c39.333 0 75.166 -5.5 107.499 -16.5s59.833 -27 82.5 -48s40.167 -46.667 52.5 -77s18.5 -64.833 18.5 -103.5c0 -17.333 -1.33301 -33.333 -4 -48s-7.5 -29.667 -14.5 -45
s-16.333 -31.5 -28 -48.5s-26.167 -36.167 -43.5 -57.5l-229 -280h237c16.667 0 29.5 -0.833008 38.5 -2.5s17.167 -4.83398 24.5 -9.50098c20 -11.333 30 -30.333 30 -57s-10 -46 -30 -58c-7.33301 -4.66699 -15.5 -7.66699 -24.5 -9s-21.833 -2 -38.5 -2h-343z" />
    <glyph glyph-name="threesuperior" unicode="&#xb3;" horiz-adv-x="650" 
d="M593 1185c0 -47.333 -9.33301 -84.5 -28 -111.5s-42 -48.167 -70 -63.5c30.667 -16 56.667 -39.5 78 -70.5s32 -72.167 32 -123.5c0 -42.667 -7.33301 -80 -22 -112s-34.334 -58.667 -59.001 -80s-53.5 -37.333 -86.5 -48s-67.833 -16 -104.5 -16
c-48 0 -89.5 7.83301 -124.5 23.5s-64.167 36.167 -87.5 61.5c-16 17.333 -28.333 36.833 -37 58.5s-13 43.5 -13 65.5c0 28.667 7.33301 50.334 22 65.001c12.667 12.667 29.667 19 51 19c18.667 0 34.334 -5.66699 47.001 -17c5.33301 -5.33301 10 -11.166 14 -17.499
s7.33301 -15.5 10 -27.5c6.66699 -31.333 20 -54.333 40 -69s46 -22 78 -22c34 0 61.833 10.5 83.5 31.5s32.5 50.5 32.5 88.5c0 35.333 -10 63.5 -30 84.5s-49 32.167 -87 33.5c-23.333 1.33301 -40.666 7.66602 -51.999 18.999c-12.667 12.667 -19 28.667 -19 48
s6.33301 35.333 19 48c11.333 11.333 28.666 17.666 51.999 18.999c36 1.33301 62.667 12.166 80 32.499s26 45.5 26 75.5c0 18 -3 33.833 -9 47.5s-13.833 25.167 -23.5 34.5s-20.834 16.333 -33.501 21s-25.667 7 -39 7c-51.333 0 -85.333 -21.667 -102 -65
c-3.33301 -9.33301 -6.33301 -18.166 -9 -26.499s-6.66699 -16.833 -12 -25.5c-5.33301 -9.33301 -13.166 -16.333 -23.499 -21s-21.5 -7 -33.5 -7c-22 0 -39.167 7.66699 -51.5 23s-18.5 34.666 -18.5 57.999c0 21.333 4.66699 43.833 14 67.5s23.333 44.834 42 63.501
c23.333 23.333 50.5 41.333 81.5 54s68.5 19 112.5 19c38 0 72.833 -6 104.5 -18s59 -28.667 82 -50s41 -47 54 -77s19.5 -63.333 19.5 -100z" />
    <glyph glyph-name="acute" unicode="&#xb4;" horiz-adv-x="1076" 
d="M648 1250c-7.33301 -11.333 -14.666 -22 -21.999 -32s-14.666 -17.667 -21.999 -23c-14.667 -10.667 -30.334 -16 -47.001 -16s-33 5 -49 15c-30.667 20 -45 45.667 -43 77c0.666992 11.333 3.16699 22 7.5 32s12.166 24 23.499 42l93 149
c7.33301 11.333 14.666 22 21.999 32s14.666 17.667 21.999 23c14.667 10.667 30.334 16 47.001 16s33 -5 49 -15c30.667 -20 45 -45.667 43 -77c-0.666992 -11.333 -3.16699 -22 -7.5 -32s-12.166 -24 -23.499 -42z" />
    <glyph glyph-name="mu" unicode="&#xb5;" horiz-adv-x="1146" 
d="M780 883c0 24.667 1 42.998 3 54.998s6 24 12 36c7.33301 13.333 18.166 24.666 32.499 33.999s32.5 14 54.5 14s40.167 -4.66699 54.5 -14s25.166 -20.666 32.499 -33.999c6 -12 10 -24 12 -36s3 -30.333 3 -55v-751c0 -28 -1.16699 -48.333 -3.5 -61
s-7.16602 -24.667 -14.499 -36c-8.66699 -13.333 -20.5 -23.833 -35.5 -31.5s-31.167 -11.5 -48.5 -11.5c-16.667 0 -32.334 3.33301 -47.001 10s-26.667 16.667 -36 30c-5.33301 7.33301 -9.33301 15.5 -12 24.5s-4.66699 23.167 -6 42.5
c-35.333 -37.333 -76.166 -65.166 -122.499 -83.499s-94.5 -27.5 -144.5 -27.5c-62.667 0 -112 17 -148 51v-318c0 -24.667 -1 -43 -3 -55s-6 -24 -12 -36c-7.33301 -13.333 -18.166 -24.666 -32.499 -33.999s-32.5 -14 -54.5 -14s-40.167 4.66699 -54.5 14
s-25.166 20.666 -32.499 33.999c-6 12 -10 24 -12 36s-3 30.333 -3 55v1162c0 24.667 1 43 3 55s6 24 12 36c7.33301 13.333 18.166 24.666 32.499 33.999s32.5 14 54.5 14s40.167 -4.66699 54.5 -14s25.166 -20.666 32.499 -33.999c6 -12 10 -24 12 -36s3 -30.333 3 -55
v-487c0 -39.333 5.33301 -73.166 16 -101.499s25.167 -51.5 43.5 -69.5s39.833 -31.333 64.5 -40s51.334 -13 80.001 -13s55.667 4.33301 81 13s47.5 22.167 66.5 40.5s34.167 41.5 45.5 69.5s17 61.667 17 101v487z" />
    <glyph glyph-name="paragraph" unicode="&#xb6;" horiz-adv-x="1274" 
d="M1088 -279c0 -24.667 -1.00391 -43 -3.00391 -55s-6 -24 -12 -36c-7.33301 -13.333 -18.166 -24.666 -32.499 -33.999s-32.5 -14 -54.5 -14s-40.167 4.66699 -54.5 14s-25.166 20.666 -32.499 33.999c-6 12 -10 24 -12 36s-3 30.333 -3 55v1511h-216v-1511
c0 -24.667 -1 -43 -3 -55s-6 -24 -12 -36c-7.33301 -13.333 -18.166 -24.666 -32.499 -33.999s-32.5 -14 -54.5 -14s-40.167 4.66699 -54.5 14s-25.166 20.666 -32.499 33.999c-6 12 -10 24 -12 36s-3 30.333 -3 55v912c-55.333 0 -106.5 10.667 -153.5 32s-88 50 -123 86
s-62.333 77.667 -82 125s-29.5 97.333 -29.5 150c0 59.333 10.667 113.5 32 162.5s51.5 91 90.5 126s86.167 62 141.5 81s117.333 28.5 186 28.5h437c15.333 0 31.5 -1.16699 48.5 -3.5s32.833 -10.833 47.5 -25.5s23.167 -30.5 25.5 -47.5s3.5 -33.167 3.5 -48.5v-1578z
" />
    <glyph glyph-name="periodcentered" unicode="&#xb7;" horiz-adv-x="636" 
d="M172 555c0 20 3.83301 38.667 11.5 56s18.167 32.5 31.5 45.5s28.833 23.333 46.5 31s36.5 11.5 56.5 11.5s38.833 -3.83301 56.5 -11.5s33.167 -18 46.5 -31s23.833 -28.167 31.5 -45.5s11.5 -36 11.5 -56s-3.83301 -38.833 -11.5 -56.5s-18.167 -33 -31.5 -46
s-28.833 -23.167 -46.5 -30.5s-36.5 -11 -56.5 -11s-38.833 3.66699 -56.5 11s-33.167 17.5 -46.5 30.5s-23.833 28.333 -31.5 46s-11.5 36.5 -11.5 56.5z" />
    <glyph glyph-name="cedilla" unicode="&#xb8;" horiz-adv-x="1076" 
d="M352 -478c-15.333 9.33301 -26.8369 20.667 -34.5039 34s-10.834 27.666 -9.50098 42.999c0.666992 11.333 3.33398 22 8.00098 32s12.667 24 24 42l93 149l21.5 32c7 10 14.5 17.667 22.5 23c14.667 10.667 30.334 16 47.001 16s33 -5 49 -15
c30.667 -20 45 -45.667 43 -77c-0.666992 -11.333 -3.16699 -22 -7.5 -32s-12.166 -24 -23.499 -42l-93 -149c-7.33301 -12 -14.5 -22.833 -21.5 -32.5s-14.5 -17.5 -22.5 -23.5c-7.33301 -5.33301 -14.666 -9.16602 -21.999 -11.499s-15.666 -3.5 -24.999 -3.5
c-18 0 -34.333 5 -49 15z" />
    <glyph glyph-name="onesuperior" unicode="&#xb9;" horiz-adv-x="650" 
d="M451 669c0 -19.333 -0.668945 -33.667 -2.00195 -43s-4.66602 -18.666 -9.99902 -27.999c-13.333 -24 -35.333 -36 -66 -36s-52.667 12 -66 36c-5.33301 9.33301 -8.66602 18.666 -9.99902 27.999s-2 23.666 -2 42.999v530l-59 -59
c-12.667 -13.333 -22.667 -22.5 -30 -27.5s-15.666 -8.83301 -24.999 -11.5c-25.333 -7.33301 -48 -0.666016 -68 20.001c-21.333 21.333 -28.333 44 -21 68c3.33301 9.33301 7.66602 17.5 12.999 24.5s14.333 17.167 27 30.5l144 145c12 12 25.167 22.167 39.5 30.5
s31.166 12.5 50.499 12.5c12 0 23.333 -1.83301 34 -5.5s19.667 -9.5 27 -17.5c10.667 -11.333 17.334 -23 20.001 -35s4 -26 4 -42v-663z" />
    <glyph glyph-name="ordmasculine" unicode="&#xba;" horiz-adv-x="916" 
d="M458 608c-50 0 -94.333 7.83594 -133 23.5029s-72.667 38.167 -102 67.5c-19.333 19.333 -35.5 40.333 -48.5 63s-23.167 47.167 -30.5 73.5s-12.5 54.666 -15.5 84.999s-4.5 63.166 -4.5 98.499s1.5 68.166 4.5 98.499s8.16699 58.666 15.5 84.999
s17.5 50.833 30.5 73.5s29.167 43.667 48.5 63c29.333 29.333 63.333 51.833 102 67.5s83 23.5 133 23.5s94.333 -7.83301 133 -23.5s72.667 -38.167 102 -67.5c38.667 -39.333 64.834 -84.833 78.501 -136.5s20.5 -112.834 20.5 -183.501
c0 -35.333 -1.5 -68.166 -4.5 -98.499s-8.33301 -58.666 -16 -84.999s-17.834 -50.833 -30.501 -73.5s-28.667 -43.667 -48 -63c-29.333 -29.333 -63.333 -51.833 -102 -67.5s-83 -23.5 -133 -23.5zM458 747.003c25.333 0 48.3311 4.33301 68.998 13s39 21 55 37
c12.667 12.667 22.5 27.334 29.5 44.001s12.333 34.5 16 53.5s6 39.167 7 60.5s1.5 42.666 1.5 63.999s-0.5 42.666 -1.5 63.999s-3.33301 41.5 -7 60.5s-9 36.833 -16 53.5s-16.833 31.334 -29.5 44.001c-33.333 33.333 -74.666 50 -123.999 50
s-90.666 -16.667 -123.999 -50c-12.667 -12.667 -22.5 -27.334 -29.5 -44.001s-12.333 -34.5 -16 -53.5s-6 -39.167 -7 -60.5s-1.5 -42.666 -1.5 -63.999s0.5 -42.666 1.5 -63.999s3.33301 -41.5 7 -60.5s9 -36.833 16 -53.5s16.833 -31.334 29.5 -44.001
c16 -16 34.333 -28.333 55 -37s43.667 -13 69 -13z" />
    <glyph glyph-name="guillemotright" unicode="&#xbb;" horiz-adv-x="1218" 
d="M181 714c-17.333 17.333 -29.333 30.835 -36 40.502s-11.667 20.167 -15 31.5c-4 15.333 -4 30.333 0 45s12.667 28.667 26 42s27.666 22.166 42.999 26.499s30.666 4.5 45.999 0.5c11.333 -3.33301 21.666 -8.33301 30.999 -15s22.666 -18.667 39.999 -36l324 -324
l-324 -324c-17.333 -17.333 -30.666 -29.333 -39.999 -36s-19.666 -11.667 -30.999 -15c-15.333 -4 -30.666 -3.83301 -45.999 0.5s-29.666 13.166 -42.999 26.499s-22 27.333 -26 42s-4 29.667 0 45c3.33301 11.333 8.33301 21.833 15 31.5s18.667 23.167 36 40.5l189 189z
M686 714.002c-17.333 17.333 -29.333 30.835 -36 40.502s-11.667 20.167 -15 31.5c-4 15.333 -4 30.333 0 45s12.667 28.667 26 42s27.666 22.166 42.999 26.499s30.666 4.5 45.999 0.5c11.333 -3.33301 21.666 -8.33301 30.999 -15s22.666 -18.667 39.999 -36l324 -324
l-324 -324c-17.333 -17.333 -30.666 -29.333 -39.999 -36s-19.666 -11.667 -30.999 -15c-15.333 -4 -30.666 -3.83301 -45.999 0.5s-29.666 13.166 -42.999 26.499s-22 27.333 -26 42s-4 29.667 0 45c3.33301 11.333 8.33301 21.833 15 31.5s18.667 23.167 36 40.5l189 189z
" />
    <glyph glyph-name="onequarter" unicode="&#xbc;" horiz-adv-x="1654" 
d="M451 669c0 -19.333 -0.668945 -33.667 -2.00195 -43s-4.66602 -18.666 -9.99902 -27.999c-13.333 -24 -35.333 -36 -66 -36s-52.667 12 -66 36c-5.33301 9.33301 -8.66602 18.666 -9.99902 27.999s-2 23.666 -2 42.999v530l-59 -59
c-12.667 -13.333 -22.667 -22.5 -30 -27.5s-15.666 -8.83301 -24.999 -11.5c-25.333 -7.33301 -48 -0.666016 -68 20.001c-21.333 21.333 -28.333 44 -21 68c3.33301 9.33301 7.66602 17.5 12.999 24.5s14.333 17.167 27 30.5l144 145c12 12 25.167 22.167 39.5 30.5
s31.166 12.5 50.499 12.5c12 0 23.333 -1.83301 34 -5.5s19.667 -9.5 27 -17.5c10.667 -11.333 17.334 -23 20.001 -35s4 -26 4 -42v-663zM1223 1365c0.666992 -9.33301 -0.333008 -18.5 -3 -27.5s-8 -21.5 -16 -37.5l-622 -1242c-8 -16 -14.833 -27.833 -20.5 -35.5
s-12.167 -13.834 -19.5 -18.501c-5.33301 -3.33301 -11 -6.16602 -17 -8.49902s-12.333 -3.5 -19 -3.5c-11.333 0 -23 3 -35 9s-21.5 13.833 -28.5 23.5s-10.833 21.167 -11.5 34.5c-0.666992 9.33301 0.333008 18.5 3 27.5s8 21.5 16 37.5l622 1242
c8 16 14.833 27.833 20.5 35.5s12.167 13.834 19.5 18.501c5.33301 3.33301 11 6.16602 17 8.49902s12.333 3.5 19 3.5c11.333 0 23 -3 35 -9s21.5 -13.833 28.5 -23.5s10.833 -21.167 11.5 -34.5zM1227 260.999h160.001v70c0 19.333 0.666992 33.666 2 42.999
s4.66602 18.666 9.99902 27.999c13.333 24 35.333 36 66 36s52.667 -12 66 -36c5.33301 -9.33301 8.66602 -18.666 9.99902 -27.999s2 -23.666 2 -42.999v-70h4c16.667 0 29.5 -0.833008 38.5 -2.5s17.167 -4.83398 24.5 -9.50098c20 -11.333 30 -30.333 30 -57
s-10 -46 -30 -58c-7.33301 -4.66699 -15.5 -7.66699 -24.5 -9s-21.833 -2 -38.5 -2h-4v-24c0 -19.333 -0.666992 -33.666 -2 -42.999s-4.66602 -18.666 -9.99902 -27.999c-13.333 -24 -35.333 -36 -66 -36s-52.667 12 -66 36
c-5.33301 9.33301 -8.66602 18.666 -9.99902 27.999s-2 23.666 -2 42.999v24h-257c-16 0 -28.333 1 -37 3s-16.334 4.66699 -23.001 8c-10 6 -18 14 -24 24s-9 21 -9 33c0 7.33301 1.33301 15 4 23s7.66699 19.667 15 35l274 548c8 16 18 31 30 45s28 21 48 21
c18.667 0 35.5 -6.5 50.5 -19.5s22.5 -29.5 22.5 -49.5c0 -9.33301 -1.33301 -18.666 -4 -27.999s-7.66699 -21 -15 -35z" />
    <glyph glyph-name="onehalf" unicode="&#xbd;" horiz-adv-x="1654" 
d="M451 669c0 -19.333 -0.668945 -33.667 -2.00195 -43s-4.66602 -18.666 -9.99902 -27.999c-13.333 -24 -35.333 -36 -66 -36s-52.667 12 -66 36c-5.33301 9.33301 -8.66602 18.666 -9.99902 27.999s-2 23.666 -2 42.999v530l-59 -59
c-12.667 -13.333 -22.667 -22.5 -30 -27.5s-15.666 -8.83301 -24.999 -11.5c-25.333 -7.33301 -48 -0.666016 -68 20.001c-21.333 21.333 -28.333 44 -21 68c3.33301 9.33301 7.66602 17.5 12.999 24.5s14.333 17.167 27 30.5l144 145c12 12 25.167 22.167 39.5 30.5
s31.166 12.5 50.499 12.5c12 0 23.333 -1.83301 34 -5.5s19.667 -9.5 27 -17.5c10.667 -11.333 17.334 -23 20.001 -35s4 -26 4 -42v-663zM1223 1365c0.666992 -9.33301 -0.333008 -18.5 -3 -27.5s-8 -21.5 -16 -37.5l-622 -1242c-8 -16 -14.833 -27.833 -20.5 -35.5
s-12.167 -13.834 -19.5 -18.501c-5.33301 -3.33301 -11 -6.16602 -17 -8.49902s-12.333 -3.5 -19 -3.5c-11.333 0 -23 3 -35 9s-21.5 13.833 -28.5 23.5s-10.833 21.167 -11.5 34.5c-0.666992 9.33301 0.333008 18.5 3 27.5s8 21.5 16 37.5l622 1242
c8 16 14.833 27.833 20.5 35.5s12.167 13.834 19.5 18.501c5.33301 3.33301 11 6.16602 17 8.49902s12.333 3.5 19 3.5c11.333 0 23 -3 35 -9s21.5 -13.833 28.5 -23.5s10.833 -21.167 11.5 -34.5zM1170 -0.000976562c-16 0 -30.6631 1 -43.9961 3s-25 8.33301 -35 19
c-12.667 14 -19 31.333 -19 52c0 14.667 3.33301 27.834 10 39.501s15.667 24.167 27 37.5l284 352c16 19.333 28.167 37.833 36.5 55.5s12.5 37.167 12.5 58.5c0 32 -9.5 57.833 -28.5 77.5s-45.5 29.5 -79.5 29.5c-25.333 0 -47.833 -6.66699 -67.5 -20
s-33.5 -34.333 -41.5 -63c-5.33301 -19.333 -14.333 -35.333 -27 -48c-4.66699 -4 -10.834 -7.66699 -18.501 -11s-16.834 -5 -27.501 -5c-26.667 0 -46.334 9.66699 -59.001 29c-8.66699 12.667 -13 28 -13 46c0 21.333 5.33301 43 16 65s22.667 41 36 57
c24 28 52.167 49.667 84.5 65s71.5 23 117.5 23c39.333 0 75.166 -5.5 107.499 -16.5s59.833 -27 82.5 -48s40.167 -46.667 52.5 -77s18.5 -64.833 18.5 -103.5c0 -17.333 -1.33301 -33.333 -4 -48s-7.5 -29.667 -14.5 -45s-16.333 -31.5 -28 -48.5
s-26.167 -36.167 -43.5 -57.5l-229 -280h237c16.667 0 29.5 -0.833008 38.5 -2.5s17.167 -4.83398 24.5 -9.50098c20 -11.333 30 -30.333 30 -57s-10 -46 -30 -58c-7.33301 -4.66699 -15.5 -7.66699 -24.5 -9s-21.833 -2 -38.5 -2h-343z" />
    <glyph glyph-name="threequarters" unicode="&#xbe;" horiz-adv-x="1654" 
d="M593 1187c0 -47.333 -9.33301 -84.5 -28 -111.5s-42 -48.167 -70 -63.5c30.667 -16 56.667 -39.5 78 -70.5s32 -72.167 32 -123.5c0 -42.667 -7.33301 -80 -22 -112s-34.334 -58.667 -59.001 -80s-53.5 -37.333 -86.5 -48s-67.833 -16 -104.5 -16
c-48 0 -89.5 7.83301 -124.5 23.5s-64.167 36.167 -87.5 61.5c-16 17.333 -28.333 36.833 -37 58.5s-13 43.5 -13 65.5c0 28.667 7.33301 50.334 22 65.001c12.667 12.667 29.667 19 51 19c18.667 0 34.334 -5.66699 47.001 -17c5.33301 -5.33301 10 -11.166 14 -17.499
s7.33301 -15.5 10 -27.5c6.66699 -31.333 20 -54.333 40 -69s46 -22 78 -22c34 0 61.833 10.5 83.5 31.5s32.5 50.5 32.5 88.5c0 35.333 -10 63.5 -30 84.5s-49 32.167 -87 33.5c-23.333 1.33301 -40.666 7.66602 -51.999 18.999c-12.667 12.667 -19 28.667 -19 48
s6.33301 35.333 19 48c11.333 11.333 28.666 17.666 51.999 18.999c36 1.33301 62.667 12.166 80 32.499s26 45.5 26 75.5c0 18 -3 33.833 -9 47.5s-13.833 25.167 -23.5 34.5s-20.834 16.333 -33.501 21s-25.667 7 -39 7c-51.333 0 -85.333 -21.667 -102 -65
c-3.33301 -9.33301 -6.33301 -18.166 -9 -26.499s-6.66699 -16.833 -12 -25.5c-5.33301 -9.33301 -13.166 -16.333 -23.499 -21s-21.5 -7 -33.5 -7c-22 0 -39.167 7.66699 -51.5 23s-18.5 34.666 -18.5 57.999c0 21.333 4.66699 43.833 14 67.5s23.333 44.834 42 63.501
c23.333 23.333 50.5 41.333 81.5 54s68.5 19 112.5 19c38 0 72.833 -6 104.5 -18s59 -28.667 82 -50s41 -47 54 -77s19.5 -63.333 19.5 -100zM1223 1365c0.666992 -9.33301 -0.333008 -18.5 -3 -27.5s-8 -21.5 -16 -37.5l-622 -1242c-8 -16 -14.833 -27.833 -20.5 -35.5
s-12.167 -13.834 -19.5 -18.501c-5.33301 -3.33301 -11 -6.16602 -17 -8.49902s-12.333 -3.5 -19 -3.5c-11.333 0 -23 3 -35 9s-21.5 13.833 -28.5 23.5s-10.833 21.167 -11.5 34.5c-0.666992 9.33301 0.333008 18.5 3 27.5s8 21.5 16 37.5l622 1242
c8 16 14.833 27.833 20.5 35.5s12.167 13.834 19.5 18.501c5.33301 3.33301 11 6.16602 17 8.49902s12.333 3.5 19 3.5c11.333 0 23 -3 35 -9s21.5 -13.833 28.5 -23.5s10.833 -21.167 11.5 -34.5zM1227 261h160.001v70c0 19.333 0.666992 33.666 2 42.999
s4.66602 18.666 9.99902 27.999c13.333 24 35.333 36 66 36s52.667 -12 66 -36c5.33301 -9.33301 8.66602 -18.666 9.99902 -27.999s2 -23.666 2 -42.999v-70h4c16.667 0 29.5 -0.833008 38.5 -2.5s17.167 -4.83398 24.5 -9.50098c20 -11.333 30 -30.333 30 -57
s-10 -46 -30 -58c-7.33301 -4.66699 -15.5 -7.66699 -24.5 -9s-21.833 -2 -38.5 -2h-4v-24c0 -19.333 -0.666992 -33.666 -2 -42.999s-4.66602 -18.666 -9.99902 -27.999c-13.333 -24 -35.333 -36 -66 -36s-52.667 12 -66 36
c-5.33301 9.33301 -8.66602 18.666 -9.99902 27.999s-2 23.666 -2 42.999v24h-257c-16 0 -28.333 1 -37 3s-16.334 4.66699 -23.001 8c-10 6 -18 14 -24 24s-9 21 -9 33c0 7.33301 1.33301 15 4 23s7.66699 19.667 15 35l274 548c8 16 18 31 30 45s28 21 48 21
c18.667 0 35.5 -6.5 50.5 -19.5s22.5 -29.5 22.5 -49.5c0 -9.33301 -1.33301 -18.666 -4 -27.999s-7.66699 -21 -15 -35z" />
    <glyph glyph-name="questiondown" unicode="&#xbf;" horiz-adv-x="1021" 
d="M599 890c0 -18 -3.33301 -34.833 -10 -50.5s-16 -29.5 -28 -41.5s-25.833 -21.333 -41.5 -28s-32.5 -10 -50.5 -10s-34.833 3.33301 -50.5 10s-29.5 16 -41.5 28s-21.333 25.833 -28 41.5s-10 32.5 -10 50.5s3.33301 34.833 10 50.5s16 29.5 28 41.5
s25.833 21.333 41.5 28s32.5 10 50.5 10s34.833 -3.33301 50.5 -10s29.5 -16 41.5 -28s21.333 -25.833 28 -41.5s10 -32.5 10 -50.5zM81 -46c0 26 2.16895 50 6.50195 72s10.666 42.667 18.999 62s18.333 38.333 30 57s24.5 37.667 38.5 57l137 189
c17.333 23.333 29.166 44.5 35.499 63.5s11.166 40.833 14.499 65.5c4 27.333 13.667 49.666 29 66.999c18.667 20.667 44.334 31 77.001 31c16.667 0 31.334 -3 44.001 -9s23.667 -14 33 -24c17.333 -19.333 26 -45 26 -77c0 -18 -1 -34.5 -3 -49.5
s-5.5 -29.833 -10.5 -44.5s-11.833 -29.5 -20.5 -44.5s-20 -31.833 -34 -50.5l-156 -210c-17.333 -23.333 -31.833 -47 -43.5 -71s-17.5 -52 -17.5 -84c0 -27.333 4.66699 -52.666 14 -75.999s22.5 -43.666 39.5 -60.999s37.333 -31 61 -41s49.834 -15 78.501 -15
c28 0 54 4.33301 78 13s45.667 22.667 65 42c15.333 15.333 27.166 32.5 35.499 51.5s15.833 41.167 22.5 66.5c3.33301 11.333 7.5 22.833 12.5 34.5s10.167 20.5 15.5 26.5c8 9.33301 18.167 16.666 30.5 21.999s26.833 8 43.5 8c28 0 51 -10 69 -30
c9.33301 -10.667 15.666 -22 18.999 -34s5 -25.667 5 -41c0 -18 -2.33301 -37 -7 -57s-11.5 -40.333 -20.5 -61s-20.167 -41 -33.5 -61s-29 -38.333 -47 -55c-36 -34 -78.167 -60.5 -126.5 -79.5s-101.833 -28.5 -160.5 -28.5c-55.333 0 -107.333 8.83301 -156 26.5
s-91 42.834 -127 75.501s-64.333 72.167 -85 118.5s-31 98.166 -31 155.499z" />
    <glyph glyph-name="Agrave" unicode="&#xc0;" horiz-adv-x="1246" 
d="M623 1093l-228 -623h456zM328 286l-70.9961 -191c-9.33301 -24 -17 -41.667 -23 -53s-14 -21 -24 -29c-17.333 -14 -37 -21 -59 -21c-15.333 0 -30 2.83301 -44 8.5s-25.667 13.5 -35 23.5c-10 10.667 -17 21.5 -21 32.5s-5.83301 22.333 -5.5 34
s2.33301 23.834 6 36.501s8.16699 26 13.5 40l436 1161c7.33301 20.667 14.166 36.167 20.499 46.5s13.833 19.5 22.5 27.5c10.667 10 22.167 17.5 34.5 22.5s27.166 7.5 44.499 7.5s32.166 -2.5 44.499 -7.5s23.833 -12.5 34.5 -22.5c8.66699 -8 16.167 -17.167 22.5 -27.5
s13.166 -25.833 20.499 -46.5l436 -1161c5.33301 -14 9.83301 -27.333 13.5 -40s5.66699 -24.834 6 -36.501s-1.5 -23 -5.5 -34s-11 -21.833 -21 -32.5c-9.33301 -10 -21 -17.833 -35 -23.5s-28.667 -8.5 -44 -8.5c-22 0 -41.667 7 -59 21c-10 8 -18 17.667 -24 29
s-13.667 29 -23 53l-71 191h-590zM422.004 1760c-11.333 18 -19.166 32 -23.499 42s-6.83301 20.667 -7.5 32c-2 31.333 12.333 57 43 77c16 10 32.333 15 49 15s32.334 -5.33301 47.001 -16c7.33301 -5.33301 14.666 -13 21.999 -23s14.666 -20.667 21.999 -32l93 -149
c11.333 -18 19.166 -32 23.499 -42s6.83301 -20.667 7.5 -32c2 -31.333 -12.333 -57 -43 -77c-16 -10 -32.333 -15 -49 -15s-32.334 5.33301 -47.001 16c-7.33301 5.33301 -14.666 13 -21.999 23s-14.666 20.667 -21.999 32z" />
    <glyph glyph-name="Aacute" unicode="&#xc1;" horiz-adv-x="1246" 
d="M623 1093l-228 -623h456zM328 286l-70.9961 -191c-9.33301 -24 -17 -41.667 -23 -53s-14 -21 -24 -29c-17.333 -14 -37 -21 -59 -21c-15.333 0 -30 2.83301 -44 8.5s-25.667 13.5 -35 23.5c-10 10.667 -17 21.5 -21 32.5s-5.83301 22.333 -5.5 34
s2.33301 23.834 6 36.501s8.16699 26 13.5 40l436 1161c7.33301 20.667 14.166 36.167 20.499 46.5s13.833 19.5 22.5 27.5c10.667 10 22.167 17.5 34.5 22.5s27.166 7.5 44.499 7.5s32.166 -2.5 44.499 -7.5s23.833 -12.5 34.5 -22.5c8.66699 -8 16.167 -17.167 22.5 -27.5
s13.166 -25.833 20.499 -46.5l436 -1161c5.33301 -14 9.83301 -27.333 13.5 -40s5.66699 -24.834 6 -36.501s-1.5 -23 -5.5 -34s-11 -21.833 -21 -32.5c-9.33301 -10 -21 -17.833 -35 -23.5s-28.667 -8.5 -44 -8.5c-22 0 -41.667 7 -59 21c-10 8 -18 17.667 -24 29
s-13.667 29 -23 53l-71 191h-590zM733.004 1611c-7.33301 -11.333 -14.666 -22 -21.999 -32s-14.666 -17.667 -21.999 -23c-14.667 -10.667 -30.334 -16 -47.001 -16s-33 5 -49 15c-30.667 20 -45 45.667 -43 77c0.666992 11.333 3.16699 22 7.5 32s12.166 24 23.499 42
l93 149c7.33301 11.333 14.666 22 21.999 32s14.666 17.667 21.999 23c14.667 10.667 30.334 16 47.001 16s33 -5 49 -15c30.667 -20 45 -45.667 43 -77c-0.666992 -11.333 -3.16699 -22 -7.5 -32s-12.166 -24 -23.499 -42z" />
    <glyph glyph-name="Acircumflex" unicode="&#xc2;" horiz-adv-x="1246" 
d="M623 1093l-228 -623h456zM328 286l-70.9961 -191c-9.33301 -24 -17 -41.667 -23 -53s-14 -21 -24 -29c-17.333 -14 -37 -21 -59 -21c-15.333 0 -30 2.83301 -44 8.5s-25.667 13.5 -35 23.5c-10 10.667 -17 21.5 -21 32.5s-5.83301 22.333 -5.5 34
s2.33301 23.834 6 36.501s8.16699 26 13.5 40l436 1161c7.33301 20.667 14.166 36.167 20.499 46.5s13.833 19.5 22.5 27.5c10.667 10 22.167 17.5 34.5 22.5s27.166 7.5 44.499 7.5s32.166 -2.5 44.499 -7.5s23.833 -12.5 34.5 -22.5c8.66699 -8 16.167 -17.167 22.5 -27.5
s13.166 -25.833 20.499 -46.5l436 -1161c5.33301 -14 9.83301 -27.333 13.5 -40s5.66699 -24.834 6 -36.501s-1.5 -23 -5.5 -34s-11 -21.833 -21 -32.5c-9.33301 -10 -21 -17.833 -35 -23.5s-28.667 -8.5 -44 -8.5c-22 0 -41.667 7 -59 21c-10 8 -18 17.667 -24 29
s-13.667 29 -23 53l-71 191h-590zM624.004 1913c20 0 36.8291 -5.16699 50.4961 -15.5s26.167 -21.166 37.5 -32.499l166 -166c14.667 -14.667 24.834 -26.167 30.501 -34.5s9.83398 -17.166 12.501 -26.499c8.66699 -28 1.33398 -53.667 -21.999 -77
c-11.333 -10.667 -23.5 -18 -36.5 -22s-26.167 -4 -39.5 0c-9.33301 2.66699 -18.333 6.83398 -27 12.501s-20.334 15.834 -35.001 30.501l-137 138l-137 -138c-14.667 -14.667 -26.334 -24.834 -35.001 -30.501s-17.667 -9.83398 -27 -12.501c-13.333 -4 -26.5 -4 -39.5 0
s-25.167 11.333 -36.5 22c-23.333 23.333 -30.666 49 -21.999 77c2.66699 9.33301 6.83398 18.166 12.501 26.499s15.834 19.833 30.501 34.5l166 166c11.333 11.333 23.833 22.166 37.5 32.499s30.5 15.5 50.5 15.5z" />
    <glyph glyph-name="Atilde" unicode="&#xc3;" horiz-adv-x="1246" 
d="M623 1093l-228 -623h456zM328 286l-70.9961 -191c-9.33301 -24 -17 -41.667 -23 -53s-14 -21 -24 -29c-17.333 -14 -37 -21 -59 -21c-15.333 0 -30 2.83301 -44 8.5s-25.667 13.5 -35 23.5c-10 10.667 -17 21.5 -21 32.5s-5.83301 22.333 -5.5 34
s2.33301 23.834 6 36.501s8.16699 26 13.5 40l436 1161c7.33301 20.667 14.166 36.167 20.499 46.5s13.833 19.5 22.5 27.5c10.667 10 22.167 17.5 34.5 22.5s27.166 7.5 44.499 7.5s32.166 -2.5 44.499 -7.5s23.833 -12.5 34.5 -22.5c8.66699 -8 16.167 -17.167 22.5 -27.5
s13.166 -25.833 20.499 -46.5l436 -1161c5.33301 -14 9.83301 -27.333 13.5 -40s5.66699 -24.834 6 -36.501s-1.5 -23 -5.5 -34s-11 -21.833 -21 -32.5c-9.33301 -10 -21 -17.833 -35 -23.5s-28.667 -8.5 -44 -8.5c-22 0 -41.667 7 -59 21c-10 8 -18 17.667 -24 29
s-13.667 29 -23 53l-71 191h-590zM605.004 1619c-19.333 11.333 -37 20.333 -53 27s-34 10 -54 10c-15.333 0 -29.333 -2 -42 -6s-28 -13.333 -46 -28c-10 -8 -20 -14.333 -30 -19s-19.667 -7 -29 -7s-18.833 1.66699 -28.5 5s-18.167 9.33301 -25.5 18
c-11.333 13.333 -17 30.666 -17 51.999c0 11.333 3.66699 23.666 11 36.999s19 26.666 35 39.999c31.333 26 60.166 42.833 86.499 50.5s53.166 11.5 80.499 11.5c14.667 0 28.167 -0.833008 40.5 -2.5s24.166 -4.33398 35.499 -8.00098s23 -8.33398 35 -14.001
s25 -12.5 39 -20.5c19.333 -11.333 37 -20.333 53 -27s34 -10 54 -10c15.333 0 29.333 2 42 6s28 13.333 46 28c21.333 17.333 41 26 59 26c9.33301 0 18.833 -1.66699 28.5 -5s18.167 -9.33301 25.5 -18c11.333 -13.333 17 -30.666 17 -51.999
c0 -11.333 -3.66699 -23.666 -11 -36.999s-19 -26.666 -35 -39.999c-31.333 -26 -60.166 -42.833 -86.499 -50.5s-53.166 -11.5 -80.499 -11.5c-14.667 0 -28.167 0.833008 -40.5 2.5s-24.166 4.33398 -35.499 8.00098s-23 8.33398 -35 14.001s-25 12.5 -39 20.5z" />
    <glyph glyph-name="Adieresis" unicode="&#xc4;" horiz-adv-x="1246" 
d="M623 1093l-228 -623h456zM328 286l-70.9961 -191c-9.33301 -24 -17 -41.667 -23 -53s-14 -21 -24 -29c-17.333 -14 -37 -21 -59 -21c-15.333 0 -30 2.83301 -44 8.5s-25.667 13.5 -35 23.5c-10 10.667 -17 21.5 -21 32.5s-5.83301 22.333 -5.5 34
s2.33301 23.834 6 36.501s8.16699 26 13.5 40l436 1161c7.33301 20.667 14.166 36.167 20.499 46.5s13.833 19.5 22.5 27.5c10.667 10 22.167 17.5 34.5 22.5s27.166 7.5 44.499 7.5s32.166 -2.5 44.499 -7.5s23.833 -12.5 34.5 -22.5c8.66699 -8 16.167 -17.167 22.5 -27.5
s13.166 -25.833 20.499 -46.5l436 -1161c5.33301 -14 9.83301 -27.333 13.5 -40s5.66699 -24.834 6 -36.501s-1.5 -23 -5.5 -34s-11 -21.833 -21 -32.5c-9.33301 -10 -21 -17.833 -35 -23.5s-28.667 -8.5 -44 -8.5c-22 0 -41.667 7 -59 21c-10 8 -18 17.667 -24 29
s-13.667 29 -23 53l-71 191h-590zM956.004 1678c0 -15.333 -3 -30 -9 -44s-14 -26.167 -24 -36.5s-21.833 -18.5 -35.5 -24.5s-28.167 -9 -43.5 -9s-30 3 -44 9s-26.167 14.167 -36.5 24.5s-18.5 22.5 -24.5 36.5s-9 28.667 -9 44s3 29.833 9 43.5s14.167 25.5 24.5 35.5
s22.5 18 36.5 24s28.667 9 44 9s29.833 -3 43.5 -9s25.5 -14 35.5 -24s18 -21.833 24 -35.5s9 -28.167 9 -43.5zM518.004 1678c0 -15.333 -3 -30 -9 -44s-14.167 -26.167 -24.5 -36.5s-22.5 -18.5 -36.5 -24.5s-28.667 -9 -44 -9s-29.833 3 -43.5 9s-25.5 14.167 -35.5 24.5
s-18 22.5 -24 36.5s-9 28.667 -9 44s3 29.833 9 43.5s14 25.5 24 35.5s21.833 18 35.5 24s28.167 9 43.5 9s30 -3 44 -9s26.167 -14 36.5 -24s18.5 -21.833 24.5 -35.5s9 -28.167 9 -43.5z" />
    <glyph glyph-name="Aring" unicode="&#xc5;" horiz-adv-x="1246" 
d="M623 1093l-228 -623h456zM328 286l-70.9961 -191c-9.33301 -24 -17 -41.667 -23 -53s-14 -21 -24 -29c-17.333 -14 -37 -21 -59 -21c-15.333 0 -30 2.83301 -44 8.5s-25.667 13.5 -35 23.5c-10 10.667 -17 21.5 -21 32.5s-5.83301 22.333 -5.5 34
s2.33301 23.834 6 36.501s8.16699 26 13.5 40l436 1161c7.33301 20.667 14.166 36.167 20.499 46.5s13.833 19.5 22.5 27.5c10.667 10 22.167 17.5 34.5 22.5s27.166 7.5 44.499 7.5s32.166 -2.5 44.499 -7.5s23.833 -12.5 34.5 -22.5c8.66699 -8 16.167 -17.167 22.5 -27.5
s13.166 -25.833 20.499 -46.5l436 -1161c5.33301 -14 9.83301 -27.333 13.5 -40s5.66699 -24.834 6 -36.501s-1.5 -23 -5.5 -34s-11 -21.833 -21 -32.5c-9.33301 -10 -21 -17.833 -35 -23.5s-28.667 -8.5 -44 -8.5c-22 0 -41.667 7 -59 21c-10 8 -18 17.667 -24 29
s-13.667 29 -23 53l-71 191h-590zM374.004 1749c0 34.667 6.5 67.167 19.5 97.5s30.833 56.833 53.5 79.5s49.167 40.5 79.5 53.5s62.833 19.5 97.5 19.5s67.167 -6.5 97.5 -19.5s56.833 -30.833 79.5 -53.5s40.5 -49.167 53.5 -79.5s19.5 -62.833 19.5 -97.5
s-6.5 -67.167 -19.5 -97.5s-30.833 -56.833 -53.5 -79.5s-49.167 -40.5 -79.5 -53.5s-62.833 -19.5 -97.5 -19.5s-67.167 6.5 -97.5 19.5s-56.833 30.833 -79.5 53.5s-40.5 49.167 -53.5 79.5s-19.5 62.833 -19.5 97.5zM497.004 1749c0 -17.333 3.33301 -33.833 10 -49.5
s15.667 -29.167 27 -40.5s24.833 -20.333 40.5 -27s32.167 -10 49.5 -10s33.666 3.33301 48.999 10s28.833 15.667 40.5 27s20.834 24.833 27.501 40.5s10 32.167 10 49.5s-3.33301 33.666 -10 48.999s-15.834 28.833 -27.501 40.5s-25.167 20.834 -40.5 27.501
s-31.666 10 -48.999 10s-33.833 -3.33301 -49.5 -10s-29.167 -15.834 -40.5 -27.501s-20.333 -25.167 -27 -40.5s-10 -31.666 -10 -48.999z" />
    <glyph glyph-name="AE" unicode="&#xc6;" horiz-adv-x="1852" 
d="M633 1295c13.333 28 25.832 49.501 37.499 64.501s22.834 26.833 33.501 35.5c12.667 10 26.667 17.333 42 22s30.333 7 45 7h831c23.333 0 41 -0.833008 53 -2.5s23.667 -5.5 35 -11.5c13.333 -7.33301 24 -18 32 -32s12 -30.667 12 -50s-4 -36 -12 -50
s-18.667 -24.667 -32 -32c-11.333 -6 -23 -9.83301 -35 -11.5s-29.667 -2.5 -53 -2.5h-572v-418h470c23.333 0 41 -0.833008 53 -2.5s23.667 -5.5 35 -11.5c13.333 -7.33301 24 -18 32 -32s12 -30.667 12 -50s-4 -36 -12 -50s-18.667 -24.667 -32 -32
c-11.333 -6 -23 -9.83301 -35 -11.5s-29.667 -2.5 -53 -2.5h-470v-430h572c23.333 0 41 -0.833008 53 -2.5s23.667 -5.5 35 -11.5c13.333 -7.33301 24 -18 32 -32s12 -30.667 12 -50s-4 -36 -12 -50s-18.667 -24.667 -32 -32c-11.333 -6 -23 -9.83301 -35 -11.5
s-29.667 -2.5 -53 -2.5h-656c-16 0 -33 1.33301 -51 4s-34.667 11.667 -50 27s-24.333 32 -27 50s-4 35 -4 51v193h-458l-121 -243c-11.333 -22 -20.333 -38.167 -27 -48.5s-15.334 -19.166 -26.001 -26.499c-15.333 -10 -31.666 -15 -48.999 -15c-8 0 -16.5 1 -25.5 3
s-17.5 5 -25.5 9c-18 9.33301 -31.667 21.166 -41 35.499s-14.333 29.166 -15 44.499c-0.666992 13.333 0.833008 26 4.5 38s11.167 29 22.5 51zM467.999 508.001h366v735z" />
    <glyph glyph-name="Ccedilla" unicode="&#xc7;" horiz-adv-x="1253" 
d="M135 712c0 74.667 1 140.326 3 196.993s7.66699 107.5 17 152.5s23.5 85.833 42.5 122.5s45.833 72.334 80.5 107.001c46 46 99.167 81.667 159.5 107s129.5 38 207.5 38c44.667 0 85.167 -3.33301 121.5 -10s69.5 -16.167 99.5 -28.5s57.333 -27.666 82 -45.999
s48 -39.166 70 -62.499c20 -21.333 37 -43 51 -65s25.167 -43 33.5 -63s14.5 -38.667 18.5 -56s6 -32.333 6 -45c0 -18.667 -2.33301 -34.334 -7 -47.001s-12 -24 -22 -34c-21.333 -20 -46.333 -30 -75 -30c-13.333 0 -25.5 2 -36.5 6s-20.167 9 -27.5 15
c-11.333 9.33301 -21 20.5 -29 33.5s-16 28.833 -24 47.5c-26 60.667 -60 108 -102 142s-96.333 51 -163 51c-42 0 -80.167 -7.83301 -114.5 -23.5s-64.5 -37.5 -90.5 -65.5c-18.667 -20 -33.667 -41.667 -45 -65s-20 -51.666 -26 -84.999s-9.83301 -73.5 -11.5 -120.5
s-2.5 -104.5 -2.5 -172.5s0.833008 -125.5 2.5 -172.5s5.5 -87.167 11.5 -120.5s14.667 -61.666 26 -84.999s26.333 -45 45 -65c26 -28 56.167 -49.833 90.5 -65.5s72.5 -23.5 114.5 -23.5c66.667 0 121 16.833 163 50.5s76 81.167 102 142.5c8 18.667 16 34.5 24 47.5
s17.667 24.167 29 33.5c7.33301 6 16.5 11 27.5 15s23.167 6 36.5 6c28.667 0 53.667 -10 75 -30c10 -10 17.333 -21.333 22 -34s7 -28.334 7 -47.001c0 -12.667 -2 -27.667 -6 -45s-10.167 -36 -18.5 -56s-19.5 -41 -33.5 -63s-31 -43.667 -51 -65
c-22 -23.333 -45.333 -44.166 -70 -62.499s-52 -33.666 -82 -45.999s-63.167 -21.833 -99.5 -28.5s-76.833 -10 -121.5 -10c-78 0 -147.167 12.667 -207.5 38s-113.5 61 -159.5 107c-34.667 34.667 -61.5 70.334 -80.5 107.001s-33.167 77.5 -42.5 122.5
s-15 95.833 -17 152.5s-3 122.334 -3 197.001zM487 -478.008c-15.333 9.33301 -26.8369 20.667 -34.5039 34s-10.834 27.666 -9.50098 42.999c0.666992 11.333 3.33398 22 8.00098 32s12.667 24 24 42l93 149l21.5 32c7 10 14.5 17.667 22.5 23
c14.667 10.667 30.334 16 47.001 16s33 -5 49 -15c30.667 -20 45 -45.667 43 -77c-0.666992 -11.333 -3.16699 -22 -7.5 -32s-12.166 -24 -23.499 -42l-93 -149c-7.33301 -12 -14.5 -22.833 -21.5 -32.5s-14.5 -17.5 -22.5 -23.5
c-7.33301 -5.33301 -14.666 -9.16602 -21.999 -11.499s-15.666 -3.5 -24.999 -3.5c-18 0 -34.333 5 -49 15z" />
    <glyph glyph-name="Egrave" unicode="&#xc8;" horiz-adv-x="1203" 
d="M401 814h470c23.333 0 41 -0.833008 53 -2.5s23.667 -5.5 35 -11.5c13.333 -7.33301 24 -18 32 -32s12 -30.667 12 -50s-4 -36 -12 -50s-18.667 -24.667 -32 -32c-11.333 -6 -23 -9.83301 -35 -11.5s-29.667 -2.5 -53 -2.5h-470v-430h572c23.333 0 41 -0.833008 53 -2.5
s23.667 -5.5 35 -11.5c13.333 -7.33301 24 -18 32 -32s12 -30.667 12 -50s-4 -36 -12 -50s-18.667 -24.667 -32 -32c-11.333 -6 -23 -9.83301 -35 -11.5s-29.667 -2.5 -53 -2.5h-656c-16 -0 -33 1.33301 -51 4s-34.667 11.667 -50 27s-24.333 32 -27 50s-4 35 -4 51v1160
c0 16 1.33301 33 4 51s11.667 34.667 27 50s32 24.333 50 27s35 4 51 4h656c23.333 0 41 -0.833008 53 -2.5s23.667 -5.5 35 -11.5c13.333 -7.33301 24 -18 32 -32s12 -30.667 12 -50s-4 -36 -12 -50s-18.667 -24.667 -32 -32c-11.333 -6 -23 -9.83301 -35 -11.5
s-29.667 -2.5 -53 -2.5h-572v-418zM427 1760c-11.333 18 -19.166 32 -23.499 42s-6.83301 20.667 -7.5 32c-2 31.333 12.333 57 43 77c16 10 32.333 15 49 15s32.334 -5.33301 47.001 -16c7.33301 -5.33301 14.666 -13 21.999 -23s14.666 -20.667 21.999 -32l93 -149
c11.333 -18 19.166 -32 23.499 -42s6.83301 -20.667 7.5 -32c2 -31.333 -12.333 -57 -43 -77c-16 -10 -32.333 -15 -49 -15s-32.334 5.33301 -47.001 16c-7.33301 5.33301 -14.666 13 -21.999 23s-14.666 20.667 -21.999 32z" />
    <glyph glyph-name="Eacute" unicode="&#xc9;" horiz-adv-x="1203" 
d="M401 814h470c23.333 0 41 -0.833008 53 -2.5s23.667 -5.5 35 -11.5c13.333 -7.33301 24 -18 32 -32s12 -30.667 12 -50s-4 -36 -12 -50s-18.667 -24.667 -32 -32c-11.333 -6 -23 -9.83301 -35 -11.5s-29.667 -2.5 -53 -2.5h-470v-430h572c23.333 0 41 -0.833008 53 -2.5
s23.667 -5.5 35 -11.5c13.333 -7.33301 24 -18 32 -32s12 -30.667 12 -50s-4 -36 -12 -50s-18.667 -24.667 -32 -32c-11.333 -6 -23 -9.83301 -35 -11.5s-29.667 -2.5 -53 -2.5h-656c-16 -0 -33 1.33301 -51 4s-34.667 11.667 -50 27s-24.333 32 -27 50s-4 35 -4 51v1160
c0 16 1.33301 33 4 51s11.667 34.667 27 50s32 24.333 50 27s35 4 51 4h656c23.333 0 41 -0.833008 53 -2.5s23.667 -5.5 35 -11.5c13.333 -7.33301 24 -18 32 -32s12 -30.667 12 -50s-4 -36 -12 -50s-18.667 -24.667 -32 -32c-11.333 -6 -23 -9.83301 -35 -11.5
s-29.667 -2.5 -53 -2.5h-572v-418zM738 1611c-7.33301 -11.333 -14.666 -22 -21.999 -32s-14.666 -17.667 -21.999 -23c-14.667 -10.667 -30.334 -16 -47.001 -16s-33 5 -49 15c-30.667 20 -45 45.667 -43 77c0.666992 11.333 3.16699 22 7.5 32s12.166 24 23.499 42l93 149
c7.33301 11.333 14.666 22 21.999 32s14.666 17.667 21.999 23c14.667 10.667 30.334 16 47.001 16s33 -5 49 -15c30.667 -20 45 -45.667 43 -77c-0.666992 -11.333 -3.16699 -22 -7.5 -32s-12.166 -24 -23.499 -42z" />
    <glyph glyph-name="Ecircumflex" unicode="&#xca;" horiz-adv-x="1203" 
d="M401 814h470c23.333 0 41 -0.833008 53 -2.5s23.667 -5.5 35 -11.5c13.333 -7.33301 24 -18 32 -32s12 -30.667 12 -50s-4 -36 -12 -50s-18.667 -24.667 -32 -32c-11.333 -6 -23 -9.83301 -35 -11.5s-29.667 -2.5 -53 -2.5h-470v-430h572c23.333 0 41 -0.833008 53 -2.5
s23.667 -5.5 35 -11.5c13.333 -7.33301 24 -18 32 -32s12 -30.667 12 -50s-4 -36 -12 -50s-18.667 -24.667 -32 -32c-11.333 -6 -23 -9.83301 -35 -11.5s-29.667 -2.5 -53 -2.5h-656c-16 -0 -33 1.33301 -51 4s-34.667 11.667 -50 27s-24.333 32 -27 50s-4 35 -4 51v1160
c0 16 1.33301 33 4 51s11.667 34.667 27 50s32 24.333 50 27s35 4 51 4h656c23.333 0 41 -0.833008 53 -2.5s23.667 -5.5 35 -11.5c13.333 -7.33301 24 -18 32 -32s12 -30.667 12 -50s-4 -36 -12 -50s-18.667 -24.667 -32 -32c-11.333 -6 -23 -9.83301 -35 -11.5
s-29.667 -2.5 -53 -2.5h-572v-418zM629 1913c20 0 36.8291 -5.16699 50.4961 -15.5s26.167 -21.166 37.5 -32.499l166 -166c14.667 -14.667 24.834 -26.167 30.501 -34.5s9.83398 -17.166 12.501 -26.499c8.66699 -28 1.33398 -53.667 -21.999 -77
c-11.333 -10.667 -23.5 -18 -36.5 -22s-26.167 -4 -39.5 0c-9.33301 2.66699 -18.333 6.83398 -27 12.501s-20.334 15.834 -35.001 30.501l-137 138l-137 -138c-14.667 -14.667 -26.334 -24.834 -35.001 -30.501s-17.667 -9.83398 -27 -12.501c-13.333 -4 -26.5 -4 -39.5 0
s-25.167 11.333 -36.5 22c-23.333 23.333 -30.666 49 -21.999 77c2.66699 9.33301 6.83398 18.166 12.501 26.499s15.834 19.833 30.501 34.5l166 166c11.333 11.333 23.833 22.166 37.5 32.499s30.5 15.5 50.5 15.5z" />
    <glyph glyph-name="Edieresis" unicode="&#xcb;" horiz-adv-x="1203" 
d="M401 814h470c23.333 0 41 -0.833008 53 -2.5s23.667 -5.5 35 -11.5c13.333 -7.33301 24 -18 32 -32s12 -30.667 12 -50s-4 -36 -12 -50s-18.667 -24.667 -32 -32c-11.333 -6 -23 -9.83301 -35 -11.5s-29.667 -2.5 -53 -2.5h-470v-430h572c23.333 0 41 -0.833008 53 -2.5
s23.667 -5.5 35 -11.5c13.333 -7.33301 24 -18 32 -32s12 -30.667 12 -50s-4 -36 -12 -50s-18.667 -24.667 -32 -32c-11.333 -6 -23 -9.83301 -35 -11.5s-29.667 -2.5 -53 -2.5h-656c-16 -0 -33 1.33301 -51 4s-34.667 11.667 -50 27s-24.333 32 -27 50s-4 35 -4 51v1160
c0 16 1.33301 33 4 51s11.667 34.667 27 50s32 24.333 50 27s35 4 51 4h656c23.333 0 41 -0.833008 53 -2.5s23.667 -5.5 35 -11.5c13.333 -7.33301 24 -18 32 -32s12 -30.667 12 -50s-4 -36 -12 -50s-18.667 -24.667 -32 -32c-11.333 -6 -23 -9.83301 -35 -11.5
s-29.667 -2.5 -53 -2.5h-572v-418zM961 1678c0 -15.333 -3 -30 -9 -44s-14 -26.167 -24 -36.5s-21.833 -18.5 -35.5 -24.5s-28.167 -9 -43.5 -9s-30 3 -44 9s-26.167 14.167 -36.5 24.5s-18.5 22.5 -24.5 36.5s-9 28.667 -9 44s3 29.833 9 43.5s14.167 25.5 24.5 35.5
s22.5 18 36.5 24s28.667 9 44 9s29.833 -3 43.5 -9s25.5 -14 35.5 -24s18 -21.833 24 -35.5s9 -28.167 9 -43.5zM523 1678c0 -15.333 -3 -30 -9 -44s-14.167 -26.167 -24.5 -36.5s-22.5 -18.5 -36.5 -24.5s-28.667 -9 -44 -9s-29.833 3 -43.5 9s-25.5 14.167 -35.5 24.5
s-18 22.5 -24 36.5s-9 28.667 -9 44s3 29.833 9 43.5s14 25.5 24 35.5s21.833 18 35.5 24s28.167 9 43.5 9s30 -3 44 -9s26.167 -14 36.5 -24s18.5 -21.833 24.5 -35.5s9 -28.167 9 -43.5z" />
    <glyph glyph-name="Igrave" unicode="&#xcc;" horiz-adv-x="586" 
d="M401 139c0 -13.333 -0.166992 -24.666 -0.5 -33.999s-1 -17.5 -2 -24.5s-2.5 -13.667 -4.5 -20s-5 -12.833 -9 -19.5c-8 -14.667 -20 -26.5 -36 -35.5s-34.667 -13.5 -56 -13.5s-40 4.5 -56 13.5s-28 20.833 -36 35.5c-4 6.66699 -7 13.167 -9 19.5s-3.5 13 -4.5 20
s-1.66699 15.167 -2 24.5s-0.5 20.666 -0.5 33.999v1146c0 13.333 0.166992 24.666 0.5 33.999s1 17.5 2 24.5s2.5 13.5 4.5 19.5s5 12.667 9 20c8 14.667 20 26.5 36 35.5s34.667 13.5 56 13.5s40 -4.5 56 -13.5s28 -20.833 36 -35.5c4 -7.33301 7 -14 9 -20
s3.5 -12.5 4.5 -19.5s1.66699 -15.167 2 -24.5s0.5 -20.666 0.5 -33.999v-1146zM93 1760c-11.333 18 -19.166 32 -23.499 42s-6.83301 20.667 -7.5 32c-2 31.333 12.333 57 43 77c16 10 32.333 15 49 15s32.334 -5.33301 47.001 -16c7.33301 -5.33301 14.666 -13 21.999 -23
s14.666 -20.667 21.999 -32l93 -149c11.333 -18 19.166 -32 23.499 -42s6.83301 -20.667 7.5 -32c2 -31.333 -12.333 -57 -43 -77c-16 -10 -32.333 -15 -49 -15s-32.334 5.33301 -47.001 16c-7.33301 5.33301 -14.666 13 -21.999 23s-14.666 20.667 -21.999 32z" />
    <glyph glyph-name="Iacute" unicode="&#xcd;" horiz-adv-x="586" 
d="M401 139c0 -13.333 -0.166992 -24.666 -0.5 -33.999s-1 -17.5 -2 -24.5s-2.5 -13.667 -4.5 -20s-5 -12.833 -9 -19.5c-8 -14.667 -20 -26.5 -36 -35.5s-34.667 -13.5 -56 -13.5s-40 4.5 -56 13.5s-28 20.833 -36 35.5c-4 6.66699 -7 13.167 -9 19.5s-3.5 13 -4.5 20
s-1.66699 15.167 -2 24.5s-0.5 20.666 -0.5 33.999v1146c0 13.333 0.166992 24.666 0.5 33.999s1 17.5 2 24.5s2.5 13.5 4.5 19.5s5 12.667 9 20c8 14.667 20 26.5 36 35.5s34.667 13.5 56 13.5s40 -4.5 56 -13.5s28 -20.833 36 -35.5c4 -7.33301 7 -14 9 -20
s3.5 -12.5 4.5 -19.5s1.66699 -15.167 2 -24.5s0.5 -20.666 0.5 -33.999v-1146zM404 1611c-7.33301 -11.333 -14.666 -22 -21.999 -32s-14.666 -17.667 -21.999 -23c-14.667 -10.667 -30.334 -16 -47.001 -16s-33 5 -49 15c-30.667 20 -45 45.667 -43 77
c0.666992 11.333 3.16699 22 7.5 32s12.166 24 23.499 42l93 149c7.33301 11.333 14.666 22 21.999 32s14.666 17.667 21.999 23c14.667 10.667 30.334 16 47.001 16s33 -5 49 -15c30.667 -20 45 -45.667 43 -77c-0.666992 -11.333 -3.16699 -22 -7.5 -32
s-12.166 -24 -23.499 -42z" />
    <glyph glyph-name="Icircumflex" unicode="&#xce;" horiz-adv-x="586" 
d="M401 139c0 -13.333 -0.166992 -24.666 -0.5 -33.999s-1 -17.5 -2 -24.5s-2.5 -13.667 -4.5 -20s-5 -12.833 -9 -19.5c-8 -14.667 -20 -26.5 -36 -35.5s-34.667 -13.5 -56 -13.5s-40 4.5 -56 13.5s-28 20.833 -36 35.5c-4 6.66699 -7 13.167 -9 19.5s-3.5 13 -4.5 20
s-1.66699 15.167 -2 24.5s-0.5 20.666 -0.5 33.999v1146c0 13.333 0.166992 24.666 0.5 33.999s1 17.5 2 24.5s2.5 13.5 4.5 19.5s5 12.667 9 20c8 14.667 20 26.5 36 35.5s34.667 13.5 56 13.5s40 -4.5 56 -13.5s28 -20.833 36 -35.5c4 -7.33301 7 -14 9 -20
s3.5 -12.5 4.5 -19.5s1.66699 -15.167 2 -24.5s0.5 -20.666 0.5 -33.999v-1146zM295 1913c20 0 36.8291 -5.16699 50.4961 -15.5s26.167 -21.166 37.5 -32.499l166 -166c14.667 -14.667 24.834 -26.167 30.501 -34.5s9.83398 -17.166 12.501 -26.499
c8.66699 -28 1.33398 -53.667 -21.999 -77c-11.333 -10.667 -23.5 -18 -36.5 -22s-26.167 -4 -39.5 0c-9.33301 2.66699 -18.333 6.83398 -27 12.501s-20.334 15.834 -35.001 30.501l-137 138l-137 -138c-14.667 -14.667 -26.334 -24.834 -35.001 -30.501
s-17.667 -9.83398 -27 -12.501c-13.333 -4 -26.5 -4 -39.5 0s-25.167 11.333 -36.5 22c-23.333 23.333 -30.666 49 -21.999 77c2.66699 9.33301 6.83398 18.166 12.501 26.499s15.834 19.833 30.501 34.5l166 166c11.333 11.333 23.833 22.166 37.5 32.499
s30.5 15.5 50.5 15.5z" />
    <glyph glyph-name="Idieresis" unicode="&#xcf;" horiz-adv-x="586" 
d="M606 1688c0 -15.333 -3 -30 -9 -44s-14 -26.167 -24 -36.5s-21.833 -18.5 -35.5 -24.5s-28.167 -9 -43.5 -9s-30 3 -44 9s-26.167 14.167 -36.5 24.5s-18.5 22.5 -24.5 36.5s-9 28.667 -9 44s3 29.833 9 43.5s14.167 25.5 24.5 35.5s22.5 18 36.5 24s28.667 9 44 9
s29.833 -3 43.5 -9s25.5 -14 35.5 -24s18 -21.833 24 -35.5s9 -28.167 9 -43.5zM210 1688c0 -15.333 -3 -30 -9 -44s-14.167 -26.167 -24.5 -36.5s-22.5 -18.5 -36.5 -24.5s-28.667 -9 -44 -9s-29.833 3 -43.5 9s-25.5 14.167 -35.5 24.5s-18 22.5 -24 36.5s-9 28.667 -9 44
s3 29.833 9 43.5s14 25.5 24 35.5s21.833 18 35.5 24s28.167 9 43.5 9s30 -3 44 -9s26.167 -14 36.5 -24s18.5 -21.833 24.5 -35.5s9 -28.167 9 -43.5zM401 139c0 -13.333 -0.166992 -24.666 -0.5 -33.999s-1 -17.5 -2 -24.5s-2.5 -13.667 -4.5 -20s-5 -12.833 -9 -19.5
c-8 -14.667 -20 -26.5 -36 -35.5s-34.667 -13.5 -56 -13.5s-40 4.5 -56 13.5s-28 20.833 -36 35.5c-4 6.66699 -7 13.167 -9 19.5s-3.5 13 -4.5 20s-1.66699 15.167 -2 24.5s-0.5 20.666 -0.5 33.999v1146c0 13.333 0.166992 24.666 0.5 33.999s1 17.5 2 24.5
s2.5 13.5 4.5 19.5s5 12.667 9 20c8 14.667 20 26.5 36 35.5s34.667 13.5 56 13.5s40 -4.5 56 -13.5s28 -20.833 36 -35.5c4 -7.33301 7 -14 9 -20s3.5 -12.5 4.5 -19.5s1.66699 -15.167 2 -24.5s0.5 -20.666 0.5 -33.999v-1146z" />
    <glyph glyph-name="Eth" unicode="&#xd0;" horiz-adv-x="1372" 
d="M165 632c-20.667 0 -36.502 0.832031 -47.502 2.49902s-21.167 5.16699 -30.5 10.5c-12 7.33301 -21.5 17.166 -28.5 29.499s-10.5 26.833 -10.5 43.5s3.5 31.167 10.5 43.5s16.5 22.166 28.5 29.499c9.33301 5.33301 19.5 8.83301 30.5 10.5s26.833 2.5 47.5 2.5h60v488
c0 16 1.33301 33 4 51s11.667 34.667 27 50s32 24.333 50 27s35 4 51 4h369c90 0 168.167 -15 234.5 -45s123.5 -75.333 171.5 -136c24.667 -32 44.167 -65.833 58.5 -101.5s24.833 -74.667 31.5 -117s10.834 -89.166 12.501 -140.499s2.5 -108.666 2.5 -171.999
s-0.833008 -120.666 -2.5 -171.999s-6.16699 -98.5 -13.5 -141.5s-18.166 -82.333 -32.499 -118s-33.833 -69.5 -58.5 -101.5c-48 -61.333 -104.833 -106.5 -170.5 -135.5s-143.5 -43.5 -233.5 -43.5h-369c-16 -0 -33 1.33301 -51 4s-34.667 11.667 -50 27
s-24.333 32 -27 50s-4 35 -4 51v500h-60zM440.998 803.999l180 -0.00390625c21.333 0 37.5 -0.833008 48.5 -2.5s21.167 -5.16699 30.5 -10.5c12 -7.33301 21.5 -17.166 28.5 -29.499s10.5 -26.833 10.5 -43.5s-3.5 -31.167 -10.5 -43.5s-16.5 -22.166 -28.5 -29.499
c-9.33301 -5.33301 -19.5 -8.83301 -30.5 -10.5s-27.167 -2.5 -48.5 -2.5h-180v-440h260c52 0 98.333 7.5 139 22.5s76 39.833 106 74.5c18 20 32 43.333 42 70s17.5 57.334 22.5 92.001s8 73.667 9 117s1.5 91.333 1.5 144s-0.5 100.667 -1.5 144s-4 82.333 -9 117
s-12.5 65.334 -22.5 92.001s-24 50 -42 70c-30 34.667 -65.333 59.5 -106 74.5s-87 22.5 -139 22.5h-260v-428z" />
    <glyph glyph-name="Ntilde" unicode="&#xd1;" horiz-adv-x="1443" 
d="M401 139c0 -13.333 -0.166992 -24.666 -0.5 -33.999s-1 -17.5 -2 -24.5s-2.5 -13.667 -4.5 -20s-5 -12.833 -9 -19.5c-8 -14.667 -20 -26.5 -36 -35.5s-34.667 -13.5 -56 -13.5s-40 4.5 -56 13.5s-28 20.833 -36 35.5c-4 6.66699 -7 13.167 -9 19.5s-3.5 13 -4.5 20
s-1.66699 15.167 -2 24.5s-0.5 20.666 -0.5 33.999v1155c0 23.333 2.16699 43.5 6.5 60.5s12.5 31.5 24.5 43.5c22.667 22.667 50 34 82 34c25.333 0 47.333 -7.83301 66 -23.5s38.667 -39.5 60 -71.5l618 -913v861c0 13.333 0.166992 24.666 0.5 33.999s1 17.5 2 24.5
s2.5 13.5 4.5 19.5s5 12.667 9 20c8 14.667 20 26.5 36 35.5s34.667 13.5 56 13.5s40 -4.5 56 -13.5s28 -20.833 36 -35.5c4 -7.33301 7 -14 9 -20s3.5 -12.5 4.5 -19.5s1.66699 -15.167 2 -24.5s0.5 -20.666 0.5 -33.999v-1156c0 -23.333 -2.16699 -43.333 -6.5 -60
s-12.5 -31 -24.5 -43c-22.667 -22.667 -50 -34 -82 -34c-25.333 0 -47.333 7.83301 -66 23.5s-38.667 39.5 -60 71.5l-618 913v-861zM702 1619c-19.333 11.333 -37 20.333 -53 27s-34 10 -54 10c-15.333 0 -29.333 -2 -42 -6s-28 -13.333 -46 -28
c-10 -8 -20 -14.333 -30 -19s-19.667 -7 -29 -7s-18.833 1.66699 -28.5 5s-18.167 9.33301 -25.5 18c-11.333 13.333 -17 30.666 -17 51.999c0 11.333 3.66699 23.666 11 36.999s19 26.666 35 39.999c31.333 26 60.166 42.833 86.499 50.5s53.166 11.5 80.499 11.5
c14.667 0 28.167 -0.833008 40.5 -2.5s24.166 -4.33398 35.499 -8.00098s23 -8.33398 35 -14.001s25 -12.5 39 -20.5c19.333 -11.333 37 -20.333 53 -27s34 -10 54 -10c15.333 0 29.333 2 42 6s28 13.333 46 28c21.333 17.333 41 26 59 26
c9.33301 0 18.833 -1.66699 28.5 -5s18.167 -9.33301 25.5 -18c11.333 -13.333 17 -30.666 17 -51.999c0 -11.333 -3.66699 -23.666 -11 -36.999s-19 -26.666 -35 -39.999c-31.333 -26 -60.166 -42.833 -86.499 -50.5s-53.166 -11.5 -80.499 -11.5
c-14.667 0 -28.167 0.833008 -40.5 2.5s-24.166 4.33398 -35.499 8.00098s-23 8.33398 -35 14.001s-25 12.5 -39 20.5z" />
    <glyph glyph-name="Ograve" unicode="&#xd2;" horiz-adv-x="1294" 
d="M278 133c-34.667 34.667 -61.5 70.334 -80.5 107.001s-33.167 77.5 -42.5 122.5s-15 95.833 -17 152.5s-3 122.334 -3 197.001s1 140.334 3 197.001s7.66699 107.5 17 152.5s23.5 85.833 42.5 122.5s45.833 72.334 80.5 107.001c46 46 99.333 81.667 160 107
s130.334 38 209.001 38s148.167 -12.667 208.5 -38s113.5 -61 159.5 -107c34.667 -34.667 61.667 -70.334 81 -107.001s33.666 -77.5 42.999 -122.5s15 -95.833 17 -152.5s3 -122.334 3 -197.001s-1 -140.334 -3 -197.001s-7.66699 -107.5 -17 -152.5
s-23.666 -85.833 -42.999 -122.5s-46.333 -72.334 -81 -107.001c-46 -46 -99.167 -81.667 -159.5 -107s-129.833 -38 -208.5 -38s-148.334 12.667 -209.001 38s-114 61 -160 107zM435 270c26 -28 56.833 -50 92.5 -66s75.5 -24 119.5 -24c43.333 0 82.833 8 118.5 24
s66.834 38 93.501 66c17.333 18.667 31.5 39 42.5 61s19.5 49.5 25.5 82.5s10.167 73.333 12.5 121s3.5 106.834 3.5 177.501s-1.16699 130 -3.5 178s-6.5 88.5 -12.5 121.5s-14.5 60.5 -25.5 82.5s-25.167 42.333 -42.5 61c-26.667 28 -57.834 49.833 -93.501 65.5
s-75.167 23.5 -118.5 23.5c-44 0 -83.833 -7.83301 -119.5 -23.5s-66.5 -37.5 -92.5 -65.5c-18 -18.667 -32.5 -39 -43.5 -61s-19.5 -49.5 -25.5 -82.5s-10 -73.5 -12 -121.5s-3 -107.333 -3 -178s1 -129.834 3 -177.501s6 -88 12 -121s14.5 -60.5 25.5 -82.5
s25.5 -42.333 43.5 -61zM444 1760c-11.333 18 -19.166 32 -23.499 42s-6.83301 20.667 -7.5 32c-2 31.333 12.333 57 43 77c16 10 32.333 15 49 15s32.334 -5.33301 47.001 -16c7.33301 -5.33301 14.666 -13 21.999 -23s14.666 -20.667 21.999 -32l93 -149
c11.333 -18 19.166 -32 23.499 -42s6.83301 -20.667 7.5 -32c2 -31.333 -12.333 -57 -43 -77c-16 -10 -32.333 -15 -49 -15s-32.334 5.33301 -47.001 16c-7.33301 5.33301 -14.666 13 -21.999 23s-14.666 20.667 -21.999 32z" />
    <glyph glyph-name="Oacute" unicode="&#xd3;" horiz-adv-x="1294" 
d="M278 133c-34.667 34.667 -61.5 70.334 -80.5 107.001s-33.167 77.5 -42.5 122.5s-15 95.833 -17 152.5s-3 122.334 -3 197.001s1 140.334 3 197.001s7.66699 107.5 17 152.5s23.5 85.833 42.5 122.5s45.833 72.334 80.5 107.001c46 46 99.333 81.667 160 107
s130.334 38 209.001 38s148.167 -12.667 208.5 -38s113.5 -61 159.5 -107c34.667 -34.667 61.667 -70.334 81 -107.001s33.666 -77.5 42.999 -122.5s15 -95.833 17 -152.5s3 -122.334 3 -197.001s-1 -140.334 -3 -197.001s-7.66699 -107.5 -17 -152.5
s-23.666 -85.833 -42.999 -122.5s-46.333 -72.334 -81 -107.001c-46 -46 -99.167 -81.667 -159.5 -107s-129.833 -38 -208.5 -38s-148.334 12.667 -209.001 38s-114 61 -160 107zM435 270c26 -28 56.833 -50 92.5 -66s75.5 -24 119.5 -24c43.333 0 82.833 8 118.5 24
s66.834 38 93.501 66c17.333 18.667 31.5 39 42.5 61s19.5 49.5 25.5 82.5s10.167 73.333 12.5 121s3.5 106.834 3.5 177.501s-1.16699 130 -3.5 178s-6.5 88.5 -12.5 121.5s-14.5 60.5 -25.5 82.5s-25.167 42.333 -42.5 61c-26.667 28 -57.834 49.833 -93.501 65.5
s-75.167 23.5 -118.5 23.5c-44 0 -83.833 -7.83301 -119.5 -23.5s-66.5 -37.5 -92.5 -65.5c-18 -18.667 -32.5 -39 -43.5 -61s-19.5 -49.5 -25.5 -82.5s-10 -73.5 -12 -121.5s-3 -107.333 -3 -178s1 -129.834 3 -177.501s6 -88 12 -121s14.5 -60.5 25.5 -82.5
s25.5 -42.333 43.5 -61zM755 1611c-7.33301 -11.333 -14.666 -22 -21.999 -32s-14.666 -17.667 -21.999 -23c-14.667 -10.667 -30.334 -16 -47.001 -16s-33 5 -49 15c-30.667 20 -45 45.667 -43 77c0.666992 11.333 3.16699 22 7.5 32s12.166 24 23.499 42l93 149
c7.33301 11.333 14.666 22 21.999 32s14.666 17.667 21.999 23c14.667 10.667 30.334 16 47.001 16s33 -5 49 -15c30.667 -20 45 -45.667 43 -77c-0.666992 -11.333 -3.16699 -22 -7.5 -32s-12.166 -24 -23.499 -42z" />
    <glyph glyph-name="Ocircumflex" unicode="&#xd4;" horiz-adv-x="1294" 
d="M278 133c-34.667 34.667 -61.5 70.334 -80.5 107.001s-33.167 77.5 -42.5 122.5s-15 95.833 -17 152.5s-3 122.334 -3 197.001s1 140.334 3 197.001s7.66699 107.5 17 152.5s23.5 85.833 42.5 122.5s45.833 72.334 80.5 107.001c46 46 99.333 81.667 160 107
s130.334 38 209.001 38s148.167 -12.667 208.5 -38s113.5 -61 159.5 -107c34.667 -34.667 61.667 -70.334 81 -107.001s33.666 -77.5 42.999 -122.5s15 -95.833 17 -152.5s3 -122.334 3 -197.001s-1 -140.334 -3 -197.001s-7.66699 -107.5 -17 -152.5
s-23.666 -85.833 -42.999 -122.5s-46.333 -72.334 -81 -107.001c-46 -46 -99.167 -81.667 -159.5 -107s-129.833 -38 -208.5 -38s-148.334 12.667 -209.001 38s-114 61 -160 107zM435 270c26 -28 56.833 -50 92.5 -66s75.5 -24 119.5 -24c43.333 0 82.833 8 118.5 24
s66.834 38 93.501 66c17.333 18.667 31.5 39 42.5 61s19.5 49.5 25.5 82.5s10.167 73.333 12.5 121s3.5 106.834 3.5 177.501s-1.16699 130 -3.5 178s-6.5 88.5 -12.5 121.5s-14.5 60.5 -25.5 82.5s-25.167 42.333 -42.5 61c-26.667 28 -57.834 49.833 -93.501 65.5
s-75.167 23.5 -118.5 23.5c-44 0 -83.833 -7.83301 -119.5 -23.5s-66.5 -37.5 -92.5 -65.5c-18 -18.667 -32.5 -39 -43.5 -61s-19.5 -49.5 -25.5 -82.5s-10 -73.5 -12 -121.5s-3 -107.333 -3 -178s1 -129.834 3 -177.501s6 -88 12 -121s14.5 -60.5 25.5 -82.5
s25.5 -42.333 43.5 -61zM646 1913c20 0 36.8291 -5.16699 50.4961 -15.5s26.167 -21.166 37.5 -32.499l166 -166c14.667 -14.667 24.834 -26.167 30.501 -34.5s9.83398 -17.166 12.501 -26.499c8.66699 -28 1.33398 -53.667 -21.999 -77
c-11.333 -10.667 -23.5 -18 -36.5 -22s-26.167 -4 -39.5 0c-9.33301 2.66699 -18.333 6.83398 -27 12.501s-20.334 15.834 -35.001 30.501l-137 138l-137 -138c-14.667 -14.667 -26.334 -24.834 -35.001 -30.501s-17.667 -9.83398 -27 -12.501c-13.333 -4 -26.5 -4 -39.5 0
s-25.167 11.333 -36.5 22c-23.333 23.333 -30.666 49 -21.999 77c2.66699 9.33301 6.83398 18.166 12.501 26.499s15.834 19.833 30.501 34.5l166 166c11.333 11.333 23.833 22.166 37.5 32.499s30.5 15.5 50.5 15.5z" />
    <glyph glyph-name="Otilde" unicode="&#xd5;" horiz-adv-x="1294" 
d="M278 133c-34.667 34.667 -61.5 70.334 -80.5 107.001s-33.167 77.5 -42.5 122.5s-15 95.833 -17 152.5s-3 122.334 -3 197.001s1 140.334 3 197.001s7.66699 107.5 17 152.5s23.5 85.833 42.5 122.5s45.833 72.334 80.5 107.001c46 46 99.333 81.667 160 107
s130.334 38 209.001 38s148.167 -12.667 208.5 -38s113.5 -61 159.5 -107c34.667 -34.667 61.667 -70.334 81 -107.001s33.666 -77.5 42.999 -122.5s15 -95.833 17 -152.5s3 -122.334 3 -197.001s-1 -140.334 -3 -197.001s-7.66699 -107.5 -17 -152.5
s-23.666 -85.833 -42.999 -122.5s-46.333 -72.334 -81 -107.001c-46 -46 -99.167 -81.667 -159.5 -107s-129.833 -38 -208.5 -38s-148.334 12.667 -209.001 38s-114 61 -160 107zM435 270c26 -28 56.833 -50 92.5 -66s75.5 -24 119.5 -24c43.333 0 82.833 8 118.5 24
s66.834 38 93.501 66c17.333 18.667 31.5 39 42.5 61s19.5 49.5 25.5 82.5s10.167 73.333 12.5 121s3.5 106.834 3.5 177.501s-1.16699 130 -3.5 178s-6.5 88.5 -12.5 121.5s-14.5 60.5 -25.5 82.5s-25.167 42.333 -42.5 61c-26.667 28 -57.834 49.833 -93.501 65.5
s-75.167 23.5 -118.5 23.5c-44 0 -83.833 -7.83301 -119.5 -23.5s-66.5 -37.5 -92.5 -65.5c-18 -18.667 -32.5 -39 -43.5 -61s-19.5 -49.5 -25.5 -82.5s-10 -73.5 -12 -121.5s-3 -107.333 -3 -178s1 -129.834 3 -177.501s6 -88 12 -121s14.5 -60.5 25.5 -82.5
s25.5 -42.333 43.5 -61zM627 1619c-19.333 11.333 -37 20.333 -53 27s-34 10 -54 10c-15.333 0 -29.333 -2 -42 -6s-28 -13.333 -46 -28c-10 -8 -20 -14.333 -30 -19s-19.667 -7 -29 -7s-18.833 1.66699 -28.5 5s-18.167 9.33301 -25.5 18
c-11.333 13.333 -17 30.666 -17 51.999c0 11.333 3.66699 23.666 11 36.999s19 26.666 35 39.999c31.333 26 60.166 42.833 86.499 50.5s53.166 11.5 80.499 11.5c14.667 0 28.167 -0.833008 40.5 -2.5s24.166 -4.33398 35.499 -8.00098s23 -8.33398 35 -14.001
s25 -12.5 39 -20.5c19.333 -11.333 37 -20.333 53 -27s34 -10 54 -10c15.333 0 29.333 2 42 6s28 13.333 46 28c21.333 17.333 41 26 59 26c9.33301 0 18.833 -1.66699 28.5 -5s18.167 -9.33301 25.5 -18c11.333 -13.333 17 -30.666 17 -51.999
c0 -11.333 -3.66699 -23.666 -11 -36.999s-19 -26.666 -35 -39.999c-31.333 -26 -60.166 -42.833 -86.499 -50.5s-53.166 -11.5 -80.499 -11.5c-14.667 0 -28.167 0.833008 -40.5 2.5s-24.166 4.33398 -35.499 8.00098s-23 8.33398 -35 14.001s-25 12.5 -39 20.5z" />
    <glyph glyph-name="Odieresis" unicode="&#xd6;" horiz-adv-x="1294" 
d="M278 133c-34.667 34.667 -61.5 70.334 -80.5 107.001s-33.167 77.5 -42.5 122.5s-15 95.833 -17 152.5s-3 122.334 -3 197.001s1 140.334 3 197.001s7.66699 107.5 17 152.5s23.5 85.833 42.5 122.5s45.833 72.334 80.5 107.001c46 46 99.333 81.667 160 107
s130.334 38 209.001 38s148.167 -12.667 208.5 -38s113.5 -61 159.5 -107c34.667 -34.667 61.667 -70.334 81 -107.001s33.666 -77.5 42.999 -122.5s15 -95.833 17 -152.5s3 -122.334 3 -197.001s-1 -140.334 -3 -197.001s-7.66699 -107.5 -17 -152.5
s-23.666 -85.833 -42.999 -122.5s-46.333 -72.334 -81 -107.001c-46 -46 -99.167 -81.667 -159.5 -107s-129.833 -38 -208.5 -38s-148.334 12.667 -209.001 38s-114 61 -160 107zM435 270c26 -28 56.833 -50 92.5 -66s75.5 -24 119.5 -24c43.333 0 82.833 8 118.5 24
s66.834 38 93.501 66c17.333 18.667 31.5 39 42.5 61s19.5 49.5 25.5 82.5s10.167 73.333 12.5 121s3.5 106.834 3.5 177.501s-1.16699 130 -3.5 178s-6.5 88.5 -12.5 121.5s-14.5 60.5 -25.5 82.5s-25.167 42.333 -42.5 61c-26.667 28 -57.834 49.833 -93.501 65.5
s-75.167 23.5 -118.5 23.5c-44 0 -83.833 -7.83301 -119.5 -23.5s-66.5 -37.5 -92.5 -65.5c-18 -18.667 -32.5 -39 -43.5 -61s-19.5 -49.5 -25.5 -82.5s-10 -73.5 -12 -121.5s-3 -107.333 -3 -178s1 -129.834 3 -177.501s6 -88 12 -121s14.5 -60.5 25.5 -82.5
s25.5 -42.333 43.5 -61zM978 1678c0 -15.333 -3 -30 -9 -44s-14 -26.167 -24 -36.5s-21.833 -18.5 -35.5 -24.5s-28.167 -9 -43.5 -9s-30 3 -44 9s-26.167 14.167 -36.5 24.5s-18.5 22.5 -24.5 36.5s-9 28.667 -9 44s3 29.833 9 43.5s14.167 25.5 24.5 35.5s22.5 18 36.5 24
s28.667 9 44 9s29.833 -3 43.5 -9s25.5 -14 35.5 -24s18 -21.833 24 -35.5s9 -28.167 9 -43.5zM540 1678c0 -15.333 -3 -30 -9 -44s-14.167 -26.167 -24.5 -36.5s-22.5 -18.5 -36.5 -24.5s-28.667 -9 -44 -9s-29.833 3 -43.5 9s-25.5 14.167 -35.5 24.5s-18 22.5 -24 36.5
s-9 28.667 -9 44s3 29.833 9 43.5s14 25.5 24 35.5s21.833 18 35.5 24s28.167 9 43.5 9s30 -3 44 -9s26.167 -14 36.5 -24s18.5 -21.833 24.5 -35.5s9 -28.167 9 -43.5z" />
    <glyph glyph-name="multiply" unicode="&#xd7;" 
d="M204 748c-17.333 17.333 -29.333 30.833 -36 40.5s-11.667 20.167 -15 31.5c-4 15.333 -4 30.333 0 45s12.667 28.667 26 42s27.666 22.166 42.999 26.499s30.666 4.5 45.999 0.5c11.333 -3.33301 21.666 -8.33301 30.999 -15s22.666 -18.667 39.999 -36l194 -193
l194 193c17.333 17.333 30.666 29.333 39.999 36s19.666 11.667 30.999 15c15.333 4 30.666 3.83301 45.999 -0.5s29.666 -13.166 42.999 -26.499s22 -27.333 26 -42s4 -29.667 0 -45c-3.33301 -11.333 -8.33301 -21.833 -15 -31.5s-18.667 -23.167 -36 -40.5l-194 -193
l194 -194c17.333 -17.333 29.333 -30.833 36 -40.5s11.667 -20.167 15 -31.5c4 -15.333 4 -30.333 0 -45s-12.667 -28.667 -26 -42s-27.666 -22.166 -42.999 -26.499s-30.666 -4.5 -45.999 -0.5c-11.333 3.33301 -21.666 8.33301 -30.999 15s-22.666 18.667 -39.999 36
l-194 194l-194 -194c-17.333 -17.333 -30.666 -29.333 -39.999 -36s-19.666 -11.667 -30.999 -15c-15.333 -4 -30.666 -3.83301 -45.999 0.5s-29.666 13.166 -42.999 26.499s-22 27.333 -26 42s-4 29.667 0 45c3.33301 11.333 8.33301 21.833 15 31.5s18.667 23.167 36 40.5
l194 194z" />
    <glyph glyph-name="Oslash" unicode="&#xd8;" horiz-adv-x="1294" 
d="M1015 1291c34.667 -34.667 61.667 -70.334 81 -107.001s33.666 -77.5 42.999 -122.5s15 -95.833 17 -152.5s3 -122.334 3 -197.001s-1 -140.334 -3 -197.001s-7.66699 -107.5 -17 -152.5s-23.666 -85.833 -42.999 -122.5s-46.333 -72.334 -81 -107.001
c-46 -46 -99.167 -81.667 -159.5 -107s-129.833 -38 -208.5 -38c-86.667 0 -163.334 17 -230.001 51l-29 -60c-9.33301 -18 -17.333 -31.667 -24 -41s-14.334 -16.666 -23.001 -21.999c-11.333 -7.33301 -23.666 -11.333 -36.999 -12s-27.666 2.66602 -42.999 9.99902
c-14 7.33301 -25 16.833 -33 28.5s-12 25.167 -12 40.5c0 10 1.5 19.833 4.5 29.5s9.16699 23.5 18.5 41.5l40 79c-34.667 34.667 -61.667 70.334 -81 107.001s-33.666 77.5 -42.999 122.5s-15 95.833 -17 152.5s-3 122.334 -3 197.001s1 140.334 3 197.001
s7.66699 107.5 17 152.5s23.5 85.833 42.5 122.5s45.833 72.334 80.5 107.001c46 46 99.333 81.667 160 107s130.334 38 209.001 38c44 0 84.667 -4.5 122 -13.5s72.666 -21.167 105.999 -36.5l30 59c9.33301 18 17.333 31.667 24 41s14.334 16.666 23.001 21.999
c11.333 7.33301 23.666 11.333 36.999 12s27.666 -2.66602 42.999 -9.99902c14 -7.33301 25 -16.833 33 -28.5s12 -25.167 12 -40.5c0 -10 -1.5 -19.833 -4.5 -29.5s-9.16699 -23.5 -18.5 -41.5zM351 712c0 -48 0.500977 -90.168 1.50098 -126.501
s3.16699 -68.666 6.5 -96.999s8.5 -53.333 15.5 -75s16.5 -41.834 28.5 -60.501l403 846c-22.667 14.667 -47.334 25.834 -74.001 33.501s-55 11.5 -85 11.5c-44 0 -83.833 -7.83301 -119.5 -23.5s-66.5 -37.5 -92.5 -65.5c-18 -18.667 -32.5 -39 -43.5 -61
s-19.5 -49.5 -25.5 -82.5s-10 -73.5 -12 -121.5s-3 -107.333 -3 -178zM487.001 225.999c47.333 -30.667 100.666 -46.002 159.999 -46.002c43.333 0 82.833 8 118.5 24s66.834 38 93.501 66c17.333 18.667 31.5 39 42.5 61s19.5 49.5 25.5 82.5s10.167 73.333 12.5 121
s3.5 106.834 3.5 177.501c0 48 -0.5 90.167 -1.5 126.5s-3.33301 68.5 -7 96.5s-9 52.833 -16 74.5s-16.5 41.834 -28.5 60.501z" />
    <glyph glyph-name="Ugrave" unicode="&#xd9;" horiz-adv-x="1346" 
d="M673 -12c-72.667 0 -140 11.833 -202 35.5s-115.833 57 -161.5 100s-81.5 94.833 -107.5 155.5s-39 127.667 -39 201v805c0 13.333 0.166992 24.666 0.5 33.999s1 17.5 2 24.5s2.5 13.5 4.5 19.5s5 12.667 9 20c8 14.667 20 26.5 36 35.5s34.667 13.5 56 13.5
s40 -4.5 56 -13.5s28 -20.833 36 -35.5c4 -7.33301 7 -14 9 -20s3.5 -12.5 4.5 -19.5s1.66699 -15.167 2 -24.5s0.5 -20.666 0.5 -33.999v-795c0 -48 7 -91 21 -129s33.833 -70.5 59.5 -97.5s56.5 -47.667 92.5 -62s76.333 -21.5 121 -21.5s85 7.16699 121 21.5
s66.833 35 92.5 62s45.5 59.5 59.5 97.5s21 81 21 129v795c0 13.333 0.166992 24.666 0.5 33.999s1 17.5 2 24.5s2.5 13.5 4.5 19.5s5 12.667 9 20c8 14.667 20 26.5 36 35.5s34.667 13.5 56 13.5s40 -4.5 56 -13.5s28 -20.833 36 -35.5c4 -7.33301 7 -14 9 -20
s3.5 -12.5 4.5 -19.5s1.66699 -15.167 2 -24.5s0.5 -20.666 0.5 -33.999v-805c0 -73.333 -13 -140.333 -39 -201s-61.833 -112.5 -107.5 -155.5s-99.5 -76.333 -161.5 -100s-129.333 -35.5 -202 -35.5zM471 1760c-11.333 18 -19.166 32 -23.499 42s-6.83301 20.667 -7.5 32
c-2 31.333 12.333 57 43 77c16 10 32.333 15 49 15s32.334 -5.33301 47.001 -16c7.33301 -5.33301 14.666 -13 21.999 -23s14.666 -20.667 21.999 -32l93 -149c11.333 -18 19.166 -32 23.499 -42s6.83301 -20.667 7.5 -32c2 -31.333 -12.333 -57 -43 -77
c-16 -10 -32.333 -15 -49 -15s-32.334 5.33301 -47.001 16c-7.33301 5.33301 -14.666 13 -21.999 23s-14.666 20.667 -21.999 32z" />
    <glyph glyph-name="Uacute" unicode="&#xda;" horiz-adv-x="1346" 
d="M673 -12c-72.667 0 -140 11.833 -202 35.5s-115.833 57 -161.5 100s-81.5 94.833 -107.5 155.5s-39 127.667 -39 201v805c0 13.333 0.166992 24.666 0.5 33.999s1 17.5 2 24.5s2.5 13.5 4.5 19.5s5 12.667 9 20c8 14.667 20 26.5 36 35.5s34.667 13.5 56 13.5
s40 -4.5 56 -13.5s28 -20.833 36 -35.5c4 -7.33301 7 -14 9 -20s3.5 -12.5 4.5 -19.5s1.66699 -15.167 2 -24.5s0.5 -20.666 0.5 -33.999v-795c0 -48 7 -91 21 -129s33.833 -70.5 59.5 -97.5s56.5 -47.667 92.5 -62s76.333 -21.5 121 -21.5s85 7.16699 121 21.5
s66.833 35 92.5 62s45.5 59.5 59.5 97.5s21 81 21 129v795c0 13.333 0.166992 24.666 0.5 33.999s1 17.5 2 24.5s2.5 13.5 4.5 19.5s5 12.667 9 20c8 14.667 20 26.5 36 35.5s34.667 13.5 56 13.5s40 -4.5 56 -13.5s28 -20.833 36 -35.5c4 -7.33301 7 -14 9 -20
s3.5 -12.5 4.5 -19.5s1.66699 -15.167 2 -24.5s0.5 -20.666 0.5 -33.999v-805c0 -73.333 -13 -140.333 -39 -201s-61.833 -112.5 -107.5 -155.5s-99.5 -76.333 -161.5 -100s-129.333 -35.5 -202 -35.5zM782 1611c-7.33301 -11.333 -14.666 -22 -21.999 -32
s-14.666 -17.667 -21.999 -23c-14.667 -10.667 -30.334 -16 -47.001 -16s-33 5 -49 15c-30.667 20 -45 45.667 -43 77c0.666992 11.333 3.16699 22 7.5 32s12.166 24 23.499 42l93 149c7.33301 11.333 14.666 22 21.999 32s14.666 17.667 21.999 23
c14.667 10.667 30.334 16 47.001 16s33 -5 49 -15c30.667 -20 45 -45.667 43 -77c-0.666992 -11.333 -3.16699 -22 -7.5 -32s-12.166 -24 -23.499 -42z" />
    <glyph glyph-name="Ucircumflex" unicode="&#xdb;" horiz-adv-x="1346" 
d="M673 -12c-72.667 0 -140 11.833 -202 35.5s-115.833 57 -161.5 100s-81.5 94.833 -107.5 155.5s-39 127.667 -39 201v805c0 13.333 0.166992 24.666 0.5 33.999s1 17.5 2 24.5s2.5 13.5 4.5 19.5s5 12.667 9 20c8 14.667 20 26.5 36 35.5s34.667 13.5 56 13.5
s40 -4.5 56 -13.5s28 -20.833 36 -35.5c4 -7.33301 7 -14 9 -20s3.5 -12.5 4.5 -19.5s1.66699 -15.167 2 -24.5s0.5 -20.666 0.5 -33.999v-795c0 -48 7 -91 21 -129s33.833 -70.5 59.5 -97.5s56.5 -47.667 92.5 -62s76.333 -21.5 121 -21.5s85 7.16699 121 21.5
s66.833 35 92.5 62s45.5 59.5 59.5 97.5s21 81 21 129v795c0 13.333 0.166992 24.666 0.5 33.999s1 17.5 2 24.5s2.5 13.5 4.5 19.5s5 12.667 9 20c8 14.667 20 26.5 36 35.5s34.667 13.5 56 13.5s40 -4.5 56 -13.5s28 -20.833 36 -35.5c4 -7.33301 7 -14 9 -20
s3.5 -12.5 4.5 -19.5s1.66699 -15.167 2 -24.5s0.5 -20.666 0.5 -33.999v-805c0 -73.333 -13 -140.333 -39 -201s-61.833 -112.5 -107.5 -155.5s-99.5 -76.333 -161.5 -100s-129.333 -35.5 -202 -35.5zM673 1913c20 0 36.8291 -5.16699 50.4961 -15.5
s26.167 -21.166 37.5 -32.499l166 -166c14.667 -14.667 24.834 -26.167 30.501 -34.5s9.83398 -17.166 12.501 -26.499c8.66699 -28 1.33398 -53.667 -21.999 -77c-11.333 -10.667 -23.5 -18 -36.5 -22s-26.167 -4 -39.5 0c-9.33301 2.66699 -18.333 6.83398 -27 12.501
s-20.334 15.834 -35.001 30.501l-137 138l-137 -138c-14.667 -14.667 -26.334 -24.834 -35.001 -30.501s-17.667 -9.83398 -27 -12.501c-13.333 -4 -26.5 -4 -39.5 0s-25.167 11.333 -36.5 22c-23.333 23.333 -30.666 49 -21.999 77
c2.66699 9.33301 6.83398 18.166 12.501 26.499s15.834 19.833 30.501 34.5l166 166c11.333 11.333 23.833 22.166 37.5 32.499s30.5 15.5 50.5 15.5z" />
    <glyph glyph-name="Udieresis" unicode="&#xdc;" horiz-adv-x="1346" 
d="M673 -12c-72.667 0 -140 11.833 -202 35.5s-115.833 57 -161.5 100s-81.5 94.833 -107.5 155.5s-39 127.667 -39 201v805c0 13.333 0.166992 24.666 0.5 33.999s1 17.5 2 24.5s2.5 13.5 4.5 19.5s5 12.667 9 20c8 14.667 20 26.5 36 35.5s34.667 13.5 56 13.5
s40 -4.5 56 -13.5s28 -20.833 36 -35.5c4 -7.33301 7 -14 9 -20s3.5 -12.5 4.5 -19.5s1.66699 -15.167 2 -24.5s0.5 -20.666 0.5 -33.999v-795c0 -48 7 -91 21 -129s33.833 -70.5 59.5 -97.5s56.5 -47.667 92.5 -62s76.333 -21.5 121 -21.5s85 7.16699 121 21.5
s66.833 35 92.5 62s45.5 59.5 59.5 97.5s21 81 21 129v795c0 13.333 0.166992 24.666 0.5 33.999s1 17.5 2 24.5s2.5 13.5 4.5 19.5s5 12.667 9 20c8 14.667 20 26.5 36 35.5s34.667 13.5 56 13.5s40 -4.5 56 -13.5s28 -20.833 36 -35.5c4 -7.33301 7 -14 9 -20
s3.5 -12.5 4.5 -19.5s1.66699 -15.167 2 -24.5s0.5 -20.666 0.5 -33.999v-805c0 -73.333 -13 -140.333 -39 -201s-61.833 -112.5 -107.5 -155.5s-99.5 -76.333 -161.5 -100s-129.333 -35.5 -202 -35.5zM1005 1678c0 -15.333 -3 -30 -9 -44s-14 -26.167 -24 -36.5
s-21.833 -18.5 -35.5 -24.5s-28.167 -9 -43.5 -9s-30 3 -44 9s-26.167 14.167 -36.5 24.5s-18.5 22.5 -24.5 36.5s-9 28.667 -9 44s3 29.833 9 43.5s14.167 25.5 24.5 35.5s22.5 18 36.5 24s28.667 9 44 9s29.833 -3 43.5 -9s25.5 -14 35.5 -24s18 -21.833 24 -35.5
s9 -28.167 9 -43.5zM567 1678c0 -15.333 -3 -30 -9 -44s-14.167 -26.167 -24.5 -36.5s-22.5 -18.5 -36.5 -24.5s-28.667 -9 -44 -9s-29.833 3 -43.5 9s-25.5 14.167 -35.5 24.5s-18 22.5 -24 36.5s-9 28.667 -9 44s3 29.833 9 43.5s14 25.5 24 35.5s21.833 18 35.5 24
s28.167 9 43.5 9s30 -3 44 -9s26.167 -14 36.5 -24s18.5 -21.833 24.5 -35.5s9 -28.167 9 -43.5z" />
    <glyph glyph-name="Yacute" unicode="&#xdd;" horiz-adv-x="1046" 
d="M44 1340c0.666992 15.333 5.66602 30.166 14.999 44.499s23 26.166 41 35.499c8 4 16.5 7 25.5 9s17.5 3 25.5 3c17.333 0 33.666 -5 48.999 -15c10.667 -7.33301 19.334 -16.166 26.001 -26.499s15.667 -26.5 27 -48.5l270 -541l270 541
c11.333 22 20.333 38.167 27 48.5s15.334 19.166 26.001 26.499c14.667 10 31 15 49 15c8 0 16.5 -1 25.5 -3s17.5 -5 25.5 -9c18 -9.33301 31.667 -21.166 41 -35.499s14.333 -29.166 15 -44.499c0.666992 -13.333 -0.833008 -26 -4.5 -38s-11.167 -29 -22.5 -51l-344 -684
v-428c0 -13.333 -0.166992 -24.666 -0.5 -33.999s-1 -17.5 -2 -24.5s-2.5 -13.667 -4.5 -20s-5 -12.833 -9 -19.5c-8 -14.667 -20 -26.5 -36 -35.5s-34.667 -13.5 -56 -13.5s-40 4.5 -56 13.5s-28 20.833 -36 35.5c-4 6.66699 -7 13.167 -9 19.5s-3.5 13 -4.5 20
s-1.66699 15.167 -2 24.5s-0.5 20.666 -0.5 33.999v428l-344 684c-11.333 22 -18.833 39 -22.5 51s-5.16699 24.667 -4.5 38zM631.999 1611c-7.33301 -11.333 -14.666 -22 -21.999 -32s-14.666 -17.667 -21.999 -23c-14.667 -10.667 -30.334 -16 -47.001 -16s-33 5 -49 15
c-30.667 20 -45 45.667 -43 77c0.666992 11.333 3.16699 22 7.5 32s12.166 24 23.499 42l93 149c7.33301 11.333 14.666 22 21.999 32s14.666 17.667 21.999 23c14.667 10.667 30.334 16 47.001 16s33 -5 49 -15c30.667 -20 45 -45.667 43 -77
c-0.666992 -11.333 -3.16699 -22 -7.5 -32s-12.166 -24 -23.499 -42z" />
    <glyph glyph-name="Thorn" unicode="&#xde;" horiz-adv-x="1274" 
d="M725 1150c69.333 0 132.166 -10.8311 188.499 -32.498s104.333 -51.834 144 -90.501s70.167 -84.334 91.5 -137.001s32 -110 32 -172s-10.667 -119.333 -32 -172s-51.833 -98 -91.5 -136s-87.667 -67.833 -144 -89.5s-119.166 -32.5 -188.499 -32.5h-324v-149
c0 -13.333 -0.166992 -24.666 -0.5 -33.999s-1 -17.5 -2 -24.5s-2.5 -13.667 -4.5 -20s-5 -12.833 -9 -19.5c-8 -14.667 -20 -26.5 -36 -35.5s-34.667 -13.5 -56 -13.5s-40 4.5 -56 13.5s-28 20.833 -36 35.5c-4 6.66699 -7 13.167 -9 19.5s-3.5 13 -4.5 20
s-1.66699 15.167 -2 24.5s-0.5 20.666 -0.5 33.999v1146c0 13.333 0.166992 24.666 0.5 33.999s1 17.5 2 24.5s2.5 13.5 4.5 19.5s5 12.667 9 20c8 14.667 20 26.5 36 35.5s34.667 13.5 56 13.5s40 -4.5 56 -13.5s28 -20.833 36 -35.5c4 -7.33301 7 -14 9 -20
s3.5 -12.5 4.5 -19.5s1.66699 -15.167 2 -24.5s0.5 -20.666 0.5 -33.999v-135h324zM966 719.002c0 38 -6 71.665 -18 100.998s-29 54.333 -51 75s-48.667 36.334 -80 47.001s-66 16 -104 16h-312v-478h312c38 0 72.667 5.33301 104 16s58 26.334 80 47.001s39 45.667 51 75
s18 63 18 101z" />
    <glyph glyph-name="germandbls" unicode="&#xdf;" horiz-adv-x="1128" 
d="M669 778c-17.333 0.666992 -31.1641 1.6709 -41.4971 3.00391s-20.166 4.66602 -29.499 9.99902c-24 13.333 -36 35.333 -36 66s12 52.667 36 66c9.33301 5.33301 19.166 8.66602 29.499 9.99902s24.166 2.33301 41.499 3c36.667 1.33301 67 14.5 91 39.5
s36 61.167 36 108.5c0 24.667 -4.5 47.5 -13.5 68.5s-21.167 39.167 -36.5 54.5c-35.333 34 -90 51 -164 51c-40 0 -73.833 -5.33301 -101.5 -16s-50 -25.834 -67 -45.501s-29.167 -43.334 -36.5 -71.001s-11 -58.834 -11 -93.501v-901c0 -24.667 -1 -43 -3 -55
s-6 -24 -12 -36c-7.33301 -13.333 -18.166 -24.666 -32.499 -33.999s-32.5 -14 -54.5 -14s-40.167 4.66699 -54.5 14s-25.166 20.666 -32.499 33.999c-6 12 -10 24 -12 36s-3 30.333 -3 55v913c0 66.667 10.333 124.667 31 174s49.667 90.333 87 123s82.166 57 134.499 73
s110.166 24 173.499 24c58 0 112 -6.83301 162 -20.5s93.5 -34.5 130.5 -62.5s66.167 -63.667 87.5 -107s32 -94.333 32 -153c0 -29.333 -3.16699 -55.833 -9.5 -79.5s-15 -44.834 -26 -63.501s-24 -35.334 -39 -50.001s-31.5 -27.667 -49.5 -39
c21.333 -11.333 39.833 -23.666 55.5 -36.999s28.5 -28.833 38.5 -46.5s17.5 -38.334 22.5 -62.001s7.5 -51.5 7.5 -83.5v-343c0 -44 -6.66699 -84 -20 -120s-33.333 -66.667 -60 -92c-25.333 -24.667 -55 -44 -89 -58s-74.667 -21 -122 -21h-20
c-20.667 0 -37.834 1.33301 -51.501 4s-25.167 6.66699 -34.5 12c-12 6.66699 -21.833 15.834 -29.5 27.501s-11.5 26.167 -11.5 43.5s3.83301 32 11.5 44s17.5 21.333 29.5 28c9.33301 5.33301 19.833 8.83301 31.5 10.5s25.834 2.83398 42.501 3.50098
c17.333 0.666992 33.5 3.66699 48.5 9s27.5 13.666 37.5 24.999c11.333 12 19.666 26 24.999 42s8 37 8 63v334c0 24 -2.66699 43.833 -8 59.5s-14 29.5 -26 41.5c-10.667 10.667 -23.834 18.334 -39.501 23.001s-33.5 7.33398 -53.5 8.00098z" />
    <glyph glyph-name="agrave" unicode="&#xe0;" horiz-adv-x="1060" 
d="M83 298c0 42.667 7.50098 81.999 22.501 117.999s37.167 67 66.5 93s66 46.333 110 61s94.667 22 152 22h269v63c0 66.667 -16.667 116.334 -50 149.001s-87.333 49 -162 49c-40.667 0 -75.834 -5.66699 -105.501 -17s-59.167 -28.333 -88.5 -51
c-13.333 -10 -26.666 -17 -39.999 -21s-24.666 -6 -33.999 -6c-10.667 0 -21.334 2.16699 -32.001 6.5s-19.667 11.166 -27 20.499c-8.66699 9.33301 -14.834 18.833 -18.501 28.5s-5.5 21.167 -5.5 34.5c0 23.333 9.33301 44.833 28 64.5s41 37.167 67 52.5
c36 20.667 74.833 36 116.5 46s88.834 15 141.501 15c136.667 0 240 -29.167 310 -87.5s105 -145.5 105 -261.5v-546c0 -12.667 -0.166992 -23.5 -0.5 -32.5s-1 -17 -2 -24s-2.5 -13.167 -4.5 -18.5s-4.66699 -11 -8 -17c-7.33301 -14 -18.833 -25.333 -34.5 -34
s-33.167 -13 -52.5 -13c-16.667 0 -31.167 2.66699 -43.5 8s-22.5 12.333 -30.5 21c-6 7.33301 -11 16 -15 26s-6.66699 25.667 -8 47c-20 -19.333 -39.667 -35.666 -59 -48.999s-39.5 -24.166 -60.5 -32.499s-44 -14.333 -69 -18s-52.833 -5.5 -83.5 -5.5
c-64 0 -117.833 7.33301 -161.5 22s-80.834 38 -111.501 70c-26 26.667 -46 58.667 -60 96s-21 77.666 -21 120.999zM282.001 300.999c0 -46 15.667 -81.334 47 -106.001s79.333 -37 144 -37c18 0 35.333 0.666992 52 2s32.667 4 48 8s30 9.83301 44 17.5
s27.667 17.834 41 30.501c16 15.333 27.5 34.833 34.5 58.5s10.5 54.5 10.5 92.5v80h-240c-60.667 0 -106 -12.5 -136 -37.5s-45 -61.167 -45 -108.5zM311.001 1399c-11.333 18 -19.166 32 -23.499 42s-6.83301 20.667 -7.5 32c-2 31.333 12.333 57 43 77
c16 10 32.333 15 49 15s32.334 -5.33301 47.001 -16c7.33301 -5.33301 14.666 -13 21.999 -23s14.666 -20.667 21.999 -32l93 -149c11.333 -18 19.166 -32 23.499 -42s6.83301 -20.667 7.5 -32c2 -31.333 -12.333 -57 -43 -77c-16 -10 -32.333 -15 -49 -15
s-32.334 5.33301 -47.001 16c-7.33301 5.33301 -14.666 13 -21.999 23s-14.666 20.667 -21.999 32z" />
    <glyph glyph-name="aacute" unicode="&#xe1;" horiz-adv-x="1060" 
d="M83 298c0 42.667 7.50098 81.999 22.501 117.999s37.167 67 66.5 93s66 46.333 110 61s94.667 22 152 22h269v63c0 66.667 -16.667 116.334 -50 149.001s-87.333 49 -162 49c-40.667 0 -75.834 -5.66699 -105.501 -17s-59.167 -28.333 -88.5 -51
c-13.333 -10 -26.666 -17 -39.999 -21s-24.666 -6 -33.999 -6c-10.667 0 -21.334 2.16699 -32.001 6.5s-19.667 11.166 -27 20.499c-8.66699 9.33301 -14.834 18.833 -18.501 28.5s-5.5 21.167 -5.5 34.5c0 23.333 9.33301 44.833 28 64.5s41 37.167 67 52.5
c36 20.667 74.833 36 116.5 46s88.834 15 141.501 15c136.667 0 240 -29.167 310 -87.5s105 -145.5 105 -261.5v-546c0 -12.667 -0.166992 -23.5 -0.5 -32.5s-1 -17 -2 -24s-2.5 -13.167 -4.5 -18.5s-4.66699 -11 -8 -17c-7.33301 -14 -18.833 -25.333 -34.5 -34
s-33.167 -13 -52.5 -13c-16.667 0 -31.167 2.66699 -43.5 8s-22.5 12.333 -30.5 21c-6 7.33301 -11 16 -15 26s-6.66699 25.667 -8 47c-20 -19.333 -39.667 -35.666 -59 -48.999s-39.5 -24.166 -60.5 -32.499s-44 -14.333 -69 -18s-52.833 -5.5 -83.5 -5.5
c-64 0 -117.833 7.33301 -161.5 22s-80.834 38 -111.501 70c-26 26.667 -46 58.667 -60 96s-21 77.666 -21 120.999zM282.001 300.999c0 -46 15.667 -81.334 47 -106.001s79.333 -37 144 -37c18 0 35.333 0.666992 52 2s32.667 4 48 8s30 9.83301 44 17.5
s27.667 17.834 41 30.501c16 15.333 27.5 34.833 34.5 58.5s10.5 54.5 10.5 92.5v80h-240c-60.667 0 -106 -12.5 -136 -37.5s-45 -61.167 -45 -108.5zM624.001 1250c-7.33301 -11.333 -14.666 -22 -21.999 -32s-14.666 -17.667 -21.999 -23
c-14.667 -10.667 -30.334 -16 -47.001 -16s-33 5 -49 15c-30.667 20 -45 45.667 -43 77c0.666992 11.333 3.16699 22 7.5 32s12.166 24 23.499 42l93 149c7.33301 11.333 14.666 22 21.999 32s14.666 17.667 21.999 23c14.667 10.667 30.334 16 47.001 16s33 -5 49 -15
c30.667 -20 45 -45.667 43 -77c-0.666992 -11.333 -3.16699 -22 -7.5 -32s-12.166 -24 -23.499 -42z" />
    <glyph glyph-name="acircumflex" unicode="&#xe2;" horiz-adv-x="1060" 
d="M83 298c0 42.667 7.50098 81.999 22.501 117.999s37.167 67 66.5 93s66 46.333 110 61s94.667 22 152 22h269v63c0 66.667 -16.667 116.334 -50 149.001s-87.333 49 -162 49c-40.667 0 -75.834 -5.66699 -105.501 -17s-59.167 -28.333 -88.5 -51
c-13.333 -10 -26.666 -17 -39.999 -21s-24.666 -6 -33.999 -6c-10.667 0 -21.334 2.16699 -32.001 6.5s-19.667 11.166 -27 20.499c-8.66699 9.33301 -14.834 18.833 -18.501 28.5s-5.5 21.167 -5.5 34.5c0 23.333 9.33301 44.833 28 64.5s41 37.167 67 52.5
c36 20.667 74.833 36 116.5 46s88.834 15 141.501 15c136.667 0 240 -29.167 310 -87.5s105 -145.5 105 -261.5v-546c0 -12.667 -0.166992 -23.5 -0.5 -32.5s-1 -17 -2 -24s-2.5 -13.167 -4.5 -18.5s-4.66699 -11 -8 -17c-7.33301 -14 -18.833 -25.333 -34.5 -34
s-33.167 -13 -52.5 -13c-16.667 0 -31.167 2.66699 -43.5 8s-22.5 12.333 -30.5 21c-6 7.33301 -11 16 -15 26s-6.66699 25.667 -8 47c-20 -19.333 -39.667 -35.666 -59 -48.999s-39.5 -24.166 -60.5 -32.499s-44 -14.333 -69 -18s-52.833 -5.5 -83.5 -5.5
c-64 0 -117.833 7.33301 -161.5 22s-80.834 38 -111.501 70c-26 26.667 -46 58.667 -60 96s-21 77.666 -21 120.999zM282.001 300.999c0 -46 15.667 -81.334 47 -106.001s79.333 -37 144 -37c18 0 35.333 0.666992 52 2s32.667 4 48 8s30 9.83301 44 17.5
s27.667 17.834 41 30.501c16 15.333 27.5 34.833 34.5 58.5s10.5 54.5 10.5 92.5v80h-240c-60.667 0 -106 -12.5 -136 -37.5s-45 -61.167 -45 -108.5zM514.001 1548c20 0 36.8291 -5.16699 50.4961 -15.5s26.167 -21.166 37.5 -32.499l166 -166
c14.667 -14.667 24.834 -26.167 30.501 -34.5s9.83398 -17.166 12.501 -26.499c8.66699 -28 1.33398 -53.667 -21.999 -77c-11.333 -10.667 -23.5 -18 -36.5 -22s-26.167 -4 -39.5 0c-9.33301 2.66699 -18.333 6.83398 -27 12.501s-20.334 15.834 -35.001 30.501l-137 138
l-137 -138c-14.667 -14.667 -26.334 -24.834 -35.001 -30.501s-17.667 -9.83398 -27 -12.501c-13.333 -4 -26.5 -4 -39.5 0s-25.167 11.333 -36.5 22c-23.333 23.333 -30.666 49 -21.999 77c2.66699 9.33301 6.83398 18.166 12.501 26.499s15.834 19.833 30.501 34.5
l166 166c11.333 11.333 23.833 22.166 37.5 32.499s30.5 15.5 50.5 15.5z" />
    </font>
</defs>
</svg>
