<?xml version="1.0" standalone="no"?>
<!DOCTYPE svg PUBLIC "-//W3C//DTD SVG 1.1//EN" "http://www.w3.org/Graphics/SVG/1.1/DTD/svg11.dtd" >
<svg>
<metadata>
Created by FontForge 20090914 at Wed Apr 22 10:45:08 2015
 By www-data
2010 Albert-Jan Pool published by FSI FontShop International GmbH
</metadata>
<defs>
<font id="DINRoundOffc" horiz-adv-x="1044" >
  <font-face 
    font-family="DIN Round Offc"
    font-weight="400"
    font-stretch="normal"
    units-per-em="2000"
    panose-1="2 11 5 4 2 1 1 2 1 2"
    ascent="1528"
    descent="-472"
    x-height="984"
    cap-height="1432"
    bbox="-208.249 -463.005 2230 1969"
    underline-thickness="112"
    underline-position="-170"
    unicode-range="U+0020-U+FEFF"
  />
<missing-glyph horiz-adv-x="1139" 
d="M865 1424c12 0 24.333 -0.833008 37 -2.5s24.334 -7.83398 35.001 -18.501s16.834 -22.334 18.501 -35.001s2.5 -25 2.5 -37v-1238c0 -12 -0.833008 -24.333 -2.5 -37s-7.83398 -24.334 -18.501 -35.001s-22.334 -16.834 -35.001 -18.501s-25 -2.5 -37 -2.5h-591
c-12 0 -24.333 0.833008 -37 2.5s-24.334 7.83398 -35.001 18.501s-16.834 22.334 -18.501 35.001s-2.5 25 -2.5 37v1238c0 12 0.833008 24.333 2.5 37s7.83398 24.334 18.501 35.001s22.334 16.834 35.001 18.501s25 2.5 37 2.5h591zM335 136h469v1152h-469v-1152z" />
    <glyph glyph-name=".notdef" horiz-adv-x="1139" 
d="M865 1424c12 0 24.333 -0.833008 37 -2.5s24.334 -7.83398 35.001 -18.501s16.834 -22.334 18.501 -35.001s2.5 -25 2.5 -37v-1238c0 -12 -0.833008 -24.333 -2.5 -37s-7.83398 -24.334 -18.501 -35.001s-22.334 -16.834 -35.001 -18.501s-25 -2.5 -37 -2.5h-591
c-12 0 -24.333 0.833008 -37 2.5s-24.334 7.83398 -35.001 18.501s-16.834 22.334 -18.501 35.001s-2.5 25 -2.5 37v1238c0 12 0.833008 24.333 2.5 37s7.83398 24.334 18.501 35.001s22.334 16.834 35.001 18.501s25 2.5 37 2.5h591zM335 136h469v1152h-469v-1152z" />
    <glyph glyph-name="space" unicode=" " horiz-adv-x="498" 
 />
    <glyph glyph-name="exclam" unicode="!" horiz-adv-x="633" 
d="M270 1328c0 20 0.833008 34.667 2.5 44s5.5 18.666 11.5 27.999s14.5 17 25.5 23s23.5 9 37.5 9s26.5 -3 37.5 -9s19.5 -13.667 25.5 -23s9.83301 -18.666 11.5 -27.999s2.5 -24 2.5 -44v-831c0 -20 -0.833008 -34.667 -2.5 -44s-5.5 -18.666 -11.5 -27.999
s-14.5 -17 -25.5 -23s-23.5 -9 -37.5 -9s-26.5 3 -37.5 9s-19.5 13.667 -25.5 23s-9.83301 18.666 -11.5 27.999s-2.5 24 -2.5 44v831zM247 94c0 14 2.5 27.167 7.5 39.5s12 23 21 32s19.667 16.167 32 21.5s25.5 8 39.5 8s27.167 -2.66699 39.5 -8s23 -12.5 32 -21.5
s16.167 -19.667 21.5 -32s8 -25.5 8 -39.5s-2.66699 -27.167 -8 -39.5s-12.5 -23 -21.5 -32s-19.667 -16 -32 -21s-25.5 -7.5 -39.5 -7.5s-27.167 2.5 -39.5 7.5s-23 12 -32 21s-16 19.667 -21 32s-7.5 25.5 -7.5 39.5z" />
    <glyph glyph-name="quotedbl" unicode="&#x22;" horiz-adv-x="790" 
d="M298 1123c0 -17.333 -0.833008 -30.5 -2.5 -39.5s-5.16699 -18.167 -10.5 -27.5s-13.333 -16.833 -24 -22.5s-22.667 -8.5 -36 -8.5s-25.333 2.83301 -36 8.5s-18.667 13.167 -24 22.5s-8.83301 18.5 -10.5 27.5s-2.5 22.167 -2.5 39.5v215
c0 17.333 0.833008 30.5 2.5 39.5s5.16699 18.167 10.5 27.5s13.333 16.833 24 22.5s22.667 8.5 36 8.5s25.333 -2.83301 36 -8.5s18.667 -13.167 24 -22.5s8.83301 -18.5 10.5 -27.5s2.5 -22.167 2.5 -39.5v-215zM638 1123c0 -17.333 -0.833008 -30.5 -2.5 -39.5
s-5.16699 -18.167 -10.5 -27.5s-13.333 -16.833 -24 -22.5s-22.667 -8.5 -36 -8.5s-25.333 2.83301 -36 8.5s-18.667 13.167 -24 22.5s-8.83301 18.5 -10.5 27.5s-2.5 22.167 -2.5 39.5v215c0 17.333 0.833008 30.5 2.5 39.5s5.16699 18.167 10.5 27.5
s13.333 16.833 24 22.5s22.667 8.5 36 8.5s25.333 -2.83301 36 -8.5s18.667 -13.167 24 -22.5s8.83301 -18.5 10.5 -27.5s2.5 -22.167 2.5 -39.5v-215z" />
    <glyph glyph-name="numbersign" unicode="#" horiz-adv-x="1328" 
d="M940 1354c3.33301 17.333 7 30.666 11 39.999s10 17.666 18 24.999c11.333 10.667 25.666 16 42.999 16c9.33301 0 18.5 -1.66699 27.5 -5s17.167 -8.66602 24.5 -15.999c10 -10 15.833 -21.333 17.5 -34s0.166992 -30.334 -4.5 -53.001l-66 -330h110
c16 0 28.333 -0.666992 37 -2s16.667 -4.33301 24 -9c18.667 -12.667 28 -30.667 28 -54s-9.33301 -41.333 -28 -54c-7.33301 -4.66699 -15.333 -7.66699 -24 -9s-21 -2 -37 -2h-135l-57 -287h130c16 0 28.333 -0.666992 37 -2s16.667 -4.33301 24 -9
c18.667 -12.667 28 -30.667 28 -54s-9.33301 -41.333 -28 -54c-7.33301 -4.66699 -15.333 -7.66699 -24 -9s-21 -2 -37 -2h-156l-75 -377c-3.33301 -17.333 -7 -30.666 -11 -39.999s-10 -17.666 -18 -24.999c-11.333 -10.667 -25.666 -16 -42.999 -16
c-9.33301 0 -18.5 1.66699 -27.5 5s-17.167 8.66602 -24.5 15.999c-10 10 -15.833 21.333 -17.5 34s-0.166992 30.334 4.5 53.001l69 350h-301l-75 -377c-3.33301 -17.333 -7 -30.666 -11 -39.999s-10 -17.666 -18 -24.999c-11.333 -10.667 -25.666 -16 -42.999 -16
c-9.33301 0 -18.5 1.66699 -27.5 5s-17.167 8.66602 -24.5 15.999c-10 10 -15.833 21.333 -17.5 34s-0.166992 30.334 4.5 53.001l69 350h-109c-16 0 -28.333 0.666992 -37 2s-16.667 4.33301 -24 9c-18.667 12.667 -28 30.667 -28 54s9.33301 41.333 28 54
c7.33301 4.66699 15.333 7.66699 24 9s21 2 37 2h135l57 287h-130c-16 0 -28.333 0.666992 -37 2s-16.667 4.33301 -24 9c-18.667 12.667 -28 30.667 -28 54s9.33301 41.333 28 54c7.33301 4.66699 15.333 7.66699 24 9s21 2 37 2h156l71 357
c3.33301 17.333 7 30.666 11 39.999s10 17.666 18 24.999c11.333 10.667 25.666 16 42.999 16c9.33301 0 18.5 -1.66699 27.5 -5s17.167 -8.66602 24.5 -15.999c10 -10 15.833 -21.333 17.5 -34s0.166992 -30.334 -4.5 -53.001l-66 -330h302zM485 580h301l57 287h-301z" />
    <glyph glyph-name="dollar" unicode="$" horiz-adv-x="1177" 
d="M661 1432c24.667 -2 48.0039 -5.49805 70.0039 -10.498s43.5 -11.333 64.5 -19s42.333 -17 64 -28s44.5 -23.833 68.5 -38.5c16.667 -10 30.667 -21.5 42 -34.5s17 -27.5 17 -43.5c0 -18 -5.66699 -33 -17 -45c-12.667 -14.667 -28.667 -22 -48 -22
c-10.667 0 -21.834 2.66699 -33.501 8s-23.834 12 -36.501 20c-36.667 24.667 -70.334 43.167 -101.001 55.5s-64.334 20.833 -101.001 25.5v-522l35 -5c33.333 -5.33301 62.833 -11 88.5 -17s48.834 -13 69.501 -21s39.167 -17 55.5 -27s32.166 -21.333 47.499 -34
c38.667 -32.667 68.167 -73.167 88.5 -121.5s30.5 -101.833 30.5 -160.5c0 -56 -9.5 -106.833 -28.5 -152.5s-46 -85.667 -81 -120s-77.5 -62.333 -127.5 -84s-105.667 -35.834 -167 -42.501v-51c0 -17.333 -0.833008 -30.5 -2.5 -39.5s-5.16699 -18.167 -10.5 -27.5
s-13.333 -16.833 -24 -22.5s-22.667 -8.5 -36 -8.5s-25.333 2.83301 -36 8.5s-18.667 13.167 -24 22.5s-8.83301 18.5 -10.5 27.5s-2.5 22.167 -2.5 39.5v47c-36 2 -69 5.66699 -99 11s-58.833 12.833 -86.5 22.5s-54.667 21.5 -81 35.5s-53.5 30.667 -81.5 50
c-19.333 12.667 -34.833 25.667 -46.5 39s-17.5 29.333 -17.5 48c0 9.33301 1.66699 18.5 5 27.5s8.66602 17.167 15.999 24.5c12.667 12.667 28.334 19 47.001 19c8.66699 0 19.334 -2.66699 32.001 -8s25.667 -13.333 39 -24c22.667 -18 45 -33.333 67 -46
s44.5 -23.5 67.5 -32.5s46.667 -15.833 71 -20.5s50.5 -8 78.5 -10v530l-34 6c-27.333 4 -52.833 9 -76.5 15s-46 13.167 -67 21.5s-41 18.5 -60 30.5s-37.5 26 -55.5 42c-38 33.333 -65.833 71.666 -83.5 114.999s-26.5 93.333 -26.5 150c0 56 9 107 27 153
s43.833 86.333 77.5 121s74.667 62.5 123 83.5s103.166 34.5 164.499 40.5v49c0 17.333 0.833008 30.5 2.5 39.5s5.16699 18.167 10.5 27.5s13.333 16.833 24 22.5s22.667 8.5 36 8.5s25.333 -2.83301 36 -8.5s18.667 -13.167 24 -22.5s8.83301 -18.5 10.5 -27.5
s2.5 -22.167 2.5 -39.5v-50zM650.004 636.002l-0.000976562 -508c83.333 10.667 148.166 38 194.499 82s69.5 103 69.5 177c0 38 -5.66699 72.167 -17 102.5s-28.666 55.833 -51.999 76.5c-11.333 10 -22.666 18.5 -33.999 25.5s-24 13 -38 18s-30 9.5 -48 13.5
s-40 8 -66 12zM337.003 875.002c12.667 -10.667 25.332 -20.168 37.999 -28.501s26.334 -15.5 41.001 -21.5s30.834 -11.333 48.501 -16s38.167 -8.66699 61.5 -12v505c-40.667 -4 -76.834 -13.167 -108.501 -27.5s-58.334 -32.666 -80.001 -54.999
s-38.167 -48.5 -49.5 -78.5s-17 -63 -17 -99s5.33301 -68 16 -96s27.334 -51.667 50.001 -71z" />
    <glyph glyph-name="percent" unicode="%" horiz-adv-x="1667" 
d="M670 958c0 -41.333 -6.66699 -78.666 -20 -111.999s-32 -61.666 -56 -84.999s-52.5 -41.333 -85.5 -54s-69.167 -19 -108.5 -19s-75.5 6.33301 -108.5 19s-61.5 30.667 -85.5 54s-42.833 51.666 -56.5 84.999s-20.5 70.666 -20.5 111.999v208
c0 41.333 6.83301 78.666 20.5 111.999s32.5 61.666 56.5 84.999s52.5 41.333 85.5 54s69.167 19 108.5 19s75.5 -6.33301 108.5 -19s61.5 -30.667 85.5 -54s42.667 -51.666 56 -84.999s20 -70.666 20 -111.999v-208zM244 963c0 -54.667 12.167 -97.334 36.5 -128.001
s64.166 -46 119.499 -46s95 15.333 119 46s36 73.334 36 128.001v198c0 54.667 -12 97.334 -36 128.001s-63.667 46 -119 46s-95.166 -15.333 -119.499 -46s-36.5 -73.334 -36.5 -128.001v-198zM1538 258c0 -41.333 -6.66699 -78.666 -20 -111.999s-32 -61.666 -56 -84.999
s-52.5 -41.333 -85.5 -54s-69.167 -19 -108.5 -19s-75.5 6.33301 -108.5 19s-61.5 30.667 -85.5 54s-42.833 51.666 -56.5 84.999s-20.5 70.666 -20.5 111.999v208c0 41.333 6.83301 78.666 20.5 111.999s32.5 61.666 56.5 84.999s52.5 41.333 85.5 54s69.167 19 108.5 19
s75.5 -6.33301 108.5 -19s61.5 -30.667 85.5 -54s42.667 -51.666 56 -84.999s20 -70.666 20 -111.999v-208zM1112 263c0 -54.667 12.167 -97.334 36.5 -128.001s64.166 -46 119.499 -46s95 15.333 119 46s36 73.334 36 128.001v198c0 54.667 -12 97.334 -36 128.001
s-63.667 46 -119 46s-95.166 -15.333 -119.499 -46s-36.5 -73.334 -36.5 -128.001v-198zM560 41c-6 -12 -11.333 -21 -16 -27s-10 -11 -16 -15c-7.33301 -4.66699 -15.666 -7 -24.999 -7c-8 0 -16 2 -24 6c-10 5.33301 -17.167 11.666 -21.5 18.999
s-6.83301 14.666 -7.5 21.999s0 14.5 2 21.5s6 16.5 12 28.5l646 1294c6 12 11.333 21 16 27s10 11 16 15c7.33301 4.66699 15.666 7 24.999 7c8 0 16 -2 24 -6c10 -5.33301 17.167 -11.666 21.5 -18.999s6.83301 -14.666 7.5 -21.999s0 -14.5 -2 -21.5s-6 -16.5 -12 -28.5z
" />
    <glyph glyph-name="ampersand" unicode="&#x26;" horiz-adv-x="1446" 
d="M545 732l-94.5029 -67.001c-29.667 -22 -55.5 -45.833 -77.5 -71.5s-39.5 -53.5 -52.5 -83.5s-19.5 -64.333 -19.5 -103c0 -42 7.33301 -80.667 22 -116s35.334 -65.666 62.001 -90.999s58.5 -45 95.5 -59s77.833 -21 122.5 -21c26.667 0 53.334 2 80.001 6
s53.834 11.333 81.501 22s56 25 85 43s58.833 40.667 89.5 68zM1233 131.999c12.667 -15.333 21.5 -27.668 26.5 -37.001s7.5 -19.333 7.5 -30c0 -22 -8.66699 -40.333 -26 -55c-15.333 -12 -31.666 -18 -48.999 -18c-14.667 0 -27.5 4.5 -38.5 13.5
s-21.833 20.167 -32.5 33.5l-97 117c-14.667 -13.333 -34.334 -29.666 -59.001 -48.999s-54.5 -37.833 -89.5 -55.5s-75.167 -32.667 -120.5 -45s-96 -18.5 -152 -18.5c-68 0 -129.667 9.83301 -185 29.5s-102.5 47.5 -141.5 83.5s-69 79.167 -90 129.5
s-31.5 106.5 -31.5 168.5c0 52.667 8.33301 99.334 25 140.001s39 77.667 67 111s60.667 64.166 98 92.499s76.666 56.5 117.999 84.5l-53.5 66c-18.333 23.333 -35 48 -50 74s-27.167 53.167 -36.5 81.5s-14 58.5 -14 90.5c0 42 7.83301 81.167 23.5 117.5
s37.5 67.833 65.5 94.5s61.167 47.5 99.5 62.5s80.166 22.5 125.499 22.5c44 0 84.833 -7.66699 122.5 -23s70.334 -36.333 98.001 -63s49.334 -58.167 65.001 -94.5s23.5 -75.5 23.5 -117.5c0 -30 -4.33301 -57.5 -13 -82.5s-20.5 -48 -35.5 -69s-32.667 -40.5 -53 -58.5
s-42.166 -35 -65.499 -51l-97 -66l364 -439c13.333 19.333 24.5 38.5 33.5 57.5s16.333 38.833 22 59.5s10.334 42.834 14.001 66.501s6.5 50.5 8.5 80.5c1.33301 16.667 3.16602 29.834 5.49902 39.501s5.83301 18.167 10.5 25.5c5.33301 8.66699 12.666 15.5 21.999 20.5
s20.666 7.5 33.999 7.5c26 0 45 -9.66699 57 -29c4.66699 -6.66699 8 -14.834 10 -24.501s3 -22.167 3 -37.5c0 -30.667 -2.83301 -63.334 -8.5 -98.001s-14.167 -69.667 -25.5 -105c-9.33301 -30 -21.666 -59.5 -36.999 -88.5s-34.333 -57.167 -57 -84.5zM621.997 929.997
c24.667 16 47.334 31.667 68.001 47s38.5 31.333 53.5 48s26.5 34.167 34.5 52.5s12 38.5 12 60.5c0 24.667 -4.16699 47.334 -12.5 68.001s-20 38.5 -35 53.5s-32.667 26.667 -53 35s-42.5 12.5 -66.5 12.5s-46.167 -4.16699 -66.5 -12.5s-37.833 -19.833 -52.5 -34.5
s-26.167 -32 -34.5 -52s-12.5 -42 -12.5 -66c0 -16.667 2 -32.834 6 -48.501s11 -32.5 21 -50.5s23.167 -38.167 39.5 -60.5s37.166 -47.833 62.499 -76.5z" />
    <glyph glyph-name="quotesingle" unicode="'" horiz-adv-x="450" 
d="M298 1123c0 -17.333 -0.833008 -30.5 -2.5 -39.5s-5.16699 -18.167 -10.5 -27.5s-13.333 -16.833 -24 -22.5s-22.667 -8.5 -36 -8.5s-25.333 2.83301 -36 8.5s-18.667 13.167 -24 22.5s-8.83301 18.5 -10.5 27.5s-2.5 22.167 -2.5 39.5v215
c0 17.333 0.833008 30.5 2.5 39.5s5.16699 18.167 10.5 27.5s13.333 16.833 24 22.5s22.667 8.5 36 8.5s25.333 -2.83301 36 -8.5s18.667 -13.167 24 -22.5s8.83301 -18.5 10.5 -27.5s2.5 -22.167 2.5 -39.5v-215z" />
    <glyph glyph-name="parenleft" unicode="(" horiz-adv-x="595" 
d="M229 -12c-16 32 -26.5 63.998 -31.5 95.998s-7.5 67 -7.5 105v1047c0 38 2.5 73 7.5 105s15.5 64 31.5 96c12.667 26 26.5 48.667 41.5 68s34.167 40.666 57.5 63.999c11.333 11.333 22.5 20.833 33.5 28.5s23.167 11.5 36.5 11.5c20.667 0 37.667 -6.66699 51 -20
c12.667 -12.667 19 -28 19 -46c0 -15.333 -3.83301 -28.5 -11.5 -39.5s-17.167 -22.167 -28.5 -33.5s-23 -24.666 -35 -39.999s-21.667 -31 -29 -47c-10.667 -22.667 -18 -46.667 -22 -72s-6 -54.666 -6 -87.999v-1021c0 -33.333 2 -62.666 6 -87.999s11.333 -49.333 22 -72
c7.33301 -16 17 -31.667 29 -47s23.667 -28.666 35 -39.999s20.833 -22.5 28.5 -33.5s11.5 -24.167 11.5 -39.5c0 -18 -6.33301 -33.333 -19 -46c-13.333 -13.333 -30.333 -20 -51 -20c-13.333 0 -25.5 3.83301 -36.5 11.5s-22.167 17.167 -33.5 28.5
c-23.333 23.333 -42.5 44.666 -57.5 63.999s-28.833 42 -41.5 68z" />
    <glyph glyph-name="parenright" unicode=")" horiz-adv-x="595" 
d="M366 -12c-6.66699 -13.333 -13.334 -25.3311 -20.001 -35.998s-13.834 -21.167 -21.501 -31.5s-16.167 -20.666 -25.5 -30.999s-20 -21.5 -32 -33.5c-11.333 -11.333 -22.5 -20.833 -33.5 -28.5s-23.167 -11.5 -36.5 -11.5c-20.667 0 -37.667 6.66699 -51 20
c-12.667 12.667 -19 28 -19 46c0 15.333 3.83301 28.5 11.5 39.5s17.167 22.167 28.5 33.5s23 24.666 35 39.999s21.667 31 29 47c10.667 22.667 18 46.667 22 72s6 54.666 6 87.999v1021c0 33.333 -2 62.666 -6 87.999s-11.333 49.333 -22 72
c-7.33301 16 -17 31.667 -29 47s-23.667 28.666 -35 39.999s-20.833 22.5 -28.5 33.5s-11.5 24.167 -11.5 39.5c0 18 6.33301 33.333 19 46c13.333 13.333 30.333 20 51 20c13.333 0 25.5 -3.83301 36.5 -11.5s22.167 -17.167 33.5 -28.5c12 -12 22.667 -23.167 32 -33.5
s17.833 -20.666 25.5 -30.999s14.834 -21 21.501 -32s13.334 -22.833 20.001 -35.5c16 -32 26.5 -64 31.5 -96s7.5 -67 7.5 -105v-1047c0 -38 -2.5 -73 -7.5 -105s-15.5 -64 -31.5 -96z" />
    <glyph glyph-name="asterisk" unicode="*" horiz-adv-x="952" 
d="M422 1172v196c0 12.667 0.666992 22.834 2 30.501s4 14.5 8 20.5c9.33301 15.333 24 23 44 23s34.667 -7.66699 44 -23c4 -6 6.66699 -12.833 8 -20.5s2 -17.834 2 -30.501v-196l169 102c11.333 6.66699 20.333 11.167 27 13.5s13.667 3.5 21 3.5
c18.667 0 33.334 -9.33301 44.001 -28c5.33301 -8.66699 8.16602 -17.167 8.49902 -25.5s-1.16699 -15.833 -4.5 -22.5c-5.33301 -11.333 -18.333 -23.333 -39 -36l-174 -105l174 -104c20.667 -12.667 33.667 -24.667 39 -36c3.33301 -6.66699 4.83301 -14.167 4.5 -22.5
s-3.16602 -16.833 -8.49902 -25.5c-10.667 -18.667 -25.334 -28 -44.001 -28c-7.33301 0 -14.333 1.16699 -21 3.5s-15.667 6.83301 -27 13.5l-169 101v-195c0 -12.667 -0.666992 -22.834 -2 -30.501s-4 -14.5 -8 -20.5c-9.33301 -15.333 -24 -23 -44 -23
s-34.667 7.66699 -44 23c-4 6 -6.66699 12.833 -8 20.5s-2 17.834 -2 30.501v195l-169 -101c-11.333 -6.66699 -20.333 -11.167 -27 -13.5s-13.667 -3.5 -21 -3.5c-18.667 0 -33.334 9.33301 -44.001 28c-5.33301 8.66699 -8.16602 17.167 -8.49902 25.5
s1.16699 15.833 4.5 22.5c5.33301 11.333 18.333 23.333 39 36l174 104l-174 105c-20.667 12.667 -33.667 24.667 -39 36c-3.33301 6.66699 -4.83301 14.167 -4.5 22.5s3.16602 16.833 8.49902 25.5c10.667 18.667 25.334 28 44.001 28c7.33301 0 14.333 -1.16699 21 -3.5
s15.667 -6.83301 27 -13.5z" />
    <glyph glyph-name="plus" unicode="+" 
d="M457 875c0 16 0.666992 28.333 2 37s4.33301 16.667 9 24c12.667 18.667 30.667 28 54 28s41.333 -9.33301 54 -28c4.66699 -7.33301 7.66699 -15.333 9 -24s2 -21 2 -37v-271h271c16 0 28.333 -0.666992 37 -2s16.667 -4.33301 24 -9c18.667 -12.667 28 -30.667 28 -54
s-9.33301 -41.333 -28 -54c-7.33301 -4.66699 -15.333 -7.66699 -24 -9s-21 -2 -37 -2h-271v-271c0 -16 -0.666992 -28.333 -2 -37s-4.33301 -16.667 -9 -24c-12.667 -18.667 -30.667 -28 -54 -28s-41.333 9.33301 -54 28c-4.66699 7.33301 -7.66699 15.333 -9 24
s-2 21 -2 37v271h-271c-16 0 -28.333 0.666992 -37 2s-16.667 4.33301 -24 9c-18.667 12.667 -28 30.667 -28 54s9.33301 41.333 28 54c7.33301 4.66699 15.333 7.66699 24 9s21 2 37 2h271v271z" />
    <glyph glyph-name="comma" unicode="," horiz-adv-x="477" 
d="M176 148c5.33301 16.667 10.333 29.001 15 37.001s10.667 15.333 18 22c5.33301 5.33301 11.833 9.16602 19.5 11.499s15.167 3.5 22.5 3.5c16 0 31.167 -4.83301 45.5 -14.5s23.166 -22.167 26.499 -37.5c2 -9.33301 2.33301 -18.833 1 -28.5
s-4.66602 -22.834 -9.99902 -39.501l-89 -267c-5.33301 -16.667 -10.333 -29 -15 -37s-10.667 -15.333 -18 -22c-11.333 -10 -25.333 -15 -42 -15c-16 0 -31.167 4.83301 -45.5 14.5s-23.166 22.167 -26.499 37.5c-2 9.33301 -2.33301 18.833 -1 28.5
s4.66602 22.834 9.99902 39.501z" />
    <glyph glyph-name="hyphen" unicode="-" horiz-adv-x="852" 
d="M708 539c0 -23.333 -9.33301 -41.333 -28 -54c-7.33301 -4.66699 -15.333 -7.66699 -24 -9s-21 -2 -37 -2h-386c-16 0 -28.333 0.666992 -37 2s-16.667 4.33301 -24 9c-18.667 12.667 -28 30.667 -28 54s9.33301 41.333 28 54c7.33301 4.66699 15.333 7.66699 24 9
s21 2 37 2h386c16 0 28.333 -0.666992 37 -2s16.667 -4.33301 24 -9c18.667 -12.667 28 -30.667 28 -54z" />
    <glyph glyph-name="period" unicode="." horiz-adv-x="540" 
d="M156 108c0 16 3 30.833 9 44.5s14.167 25.667 24.5 36s22.333 18.5 36 24.5s28.5 9 44.5 9s30.833 -3 44.5 -9s25.667 -14.167 36 -24.5s18.5 -22.333 24.5 -36s9 -28.5 9 -44.5s-3 -30.833 -9 -44.5s-14.167 -25.667 -24.5 -36s-22.333 -18.5 -36 -24.5
s-28.5 -9 -44.5 -9s-30.833 3 -44.5 9s-25.667 14.167 -36 24.5s-18.5 22.333 -24.5 36s-9 28.5 -9 44.5z" />
    <glyph glyph-name="slash" unicode="/" horiz-adv-x="708" 
d="M161 -86c-6.66699 -19.333 -15 -35.833 -25 -49.5s-25.667 -20.5 -47 -20.5c-14 0 -27.333 4 -40 12s-21.334 18.333 -26.001 31c-3.33301 10 -4.5 20.5 -3.5 31.5s4.16699 24.167 9.5 39.5l518 1552c6.66699 19.333 15 35.833 25 49.5s25.667 20.5 47 20.5
c14 0 27.333 -4 40 -12s21.334 -18.333 26.001 -31c3.33301 -10 4.5 -20.5 3.5 -31.5s-4.16699 -24.167 -9.5 -39.5z" />
    <glyph glyph-name="zero" unicode="0" 
d="M522 -12c-56 0 -107.667 9.33301 -155 28s-88.5 45.167 -123.5 79.5s-62.333 75.666 -82 123.999s-29.5 101.833 -29.5 160.5v664c0 58.667 9.83301 112.167 29.5 160.5s47 89.666 82 123.999s76.167 60.833 123.5 79.5s99 28 155 28s107.667 -9.33301 155 -28
s88.5 -45.167 123.5 -79.5s62.333 -75.666 82 -123.999s29.5 -101.833 29.5 -160.5v-664c0 -58.667 -9.83301 -112.167 -29.5 -160.5s-47 -89.666 -82 -123.999s-76.167 -60.833 -123.5 -79.5s-99 -28 -155 -28zM522 1306c-39.333 0 -74.166 -6.5 -104.499 -19.5
s-55.833 -31.167 -76.5 -54.5s-36.334 -51 -47.001 -83s-16 -66.667 -16 -104v-666c0 -38 5.33301 -72.833 16 -104.5s26.334 -59.167 47.001 -82.5s46.167 -41.5 76.5 -54.5s65.166 -19.5 104.499 -19.5s74.166 6.5 104.499 19.5s55.833 31.167 76.5 54.5
s36.334 50.833 47.001 82.5s16 66.5 16 104.5v666c0 37.333 -5.33301 72 -16 104s-26.334 59.667 -47.001 83s-46.167 41.5 -76.5 54.5s-65.166 19.5 -104.499 19.5z" />
    <glyph glyph-name="one" unicode="1" 
d="M348 1048c-9.33301 -9.33301 -18.501 -17.5 -27.501 -24.5s-20.167 -10.5 -33.5 -10.5c-18.667 0 -35 7 -49 21c-13.333 13.333 -20 29 -20 47c0 12 2.83301 22.5 8.5 31.5s15.834 20.833 30.501 35.5l244 244c13.333 13.333 26.5 23.333 39.5 30s27.167 10 42.5 10
c22 0 41 -7.33301 57 -22c9.33301 -8.66699 15.333 -20 18 -34s4 -30 4 -48v-1238c0 -17.333 -0.833008 -30.5 -2.5 -39.5s-5.16699 -18.167 -10.5 -27.5s-13.333 -16.833 -24 -22.5s-22.667 -8.5 -36 -8.5s-25.333 2.83301 -36 8.5s-18.667 13.167 -24 22.5
s-8.83301 18.5 -10.5 27.5s-2.5 22.167 -2.5 39.5v1125z" />
    <glyph glyph-name="two" unicode="2" 
d="M126 70c0 13.333 3.50098 26.5 10.501 39.5s18.167 29.167 33.5 48.5l511 661c31.333 40 54.833 79.333 70.5 118s23.5 83 23.5 133c0 34.667 -5.33301 66.5 -16 95.5s-26.334 53.833 -47.001 74.5s-46.167 36.834 -76.5 48.501s-64.833 17.5 -103.5 17.5
c-28 0 -55.167 -3.5 -81.5 -10.5s-50.5 -18 -72.5 -33s-41 -34.667 -57 -59s-27.667 -53.833 -35 -88.5c-6 -28 -15.667 -50 -29 -66c-4.66699 -6 -11 -11 -19 -15s-18 -6 -30 -6c-22.667 0 -40 8 -52 24c-6 8 -10.167 16.333 -12.5 25s-3.5 17.667 -3.5 27
c0 14 2.16699 30.5 6.5 49.5s10.833 38.833 19.5 59.5s19.667 41.334 33 62.001s29.333 40 48 58c34.667 32.667 75.167 58 121.5 76s100.5 27 162.5 27c58.667 0 112 -8.16699 160 -24.5s89 -40.166 123 -71.499s60.333 -69.666 79 -114.999s28 -96.666 28 -153.999
c0 -32.667 -2.66699 -62.834 -8 -90.501s-13.5 -54.334 -24.5 -80.001s-24.833 -51.334 -41.5 -77.001s-36 -52.834 -58 -81.501l-473 -612h524c16 0 28.333 -0.833008 37 -2.5s16.667 -4.83398 24 -9.50098c18.667 -11.333 28 -29 28 -53
c0 -23.333 -9.33301 -41.333 -28 -54c-7.33301 -4 -15.333 -6.83301 -24 -8.5s-21 -2.5 -37 -2.5h-601c-22.667 -0 -41.5 0.833008 -56.5 2.5s-27.833 8.16699 -38.5 19.5c-12 12 -18 28 -18 48z" />
    <glyph glyph-name="three" unicode="3" horiz-adv-x="1045" 
d="M423 730c0 22 9.33203 39.3301 27.999 51.9971c12 7.33301 29.667 11 53 11c83.333 0.666992 145.666 24.167 186.999 70.5s62 109.166 62 188.499c0 40 -6.33301 75.667 -19 107s-30 58 -52 80s-48.167 38.667 -78.5 50s-63.5 17 -99.5 17
c-65.333 0 -117.5 -14 -156.5 -42s-65.833 -74 -80.5 -138c-3.33301 -15.333 -7.66602 -28.166 -12.999 -38.499s-11.333 -18.5 -18 -24.5c-5.33301 -5.33301 -11.666 -9.33301 -18.999 -12s-16 -4 -26 -4c-14.667 0 -27.167 4 -37.5 12s-17.5 18.667 -21.5 32
c-2.66699 8 -4.5 17.333 -5.5 28s-0.833008 20.667 0.5 30c3.33301 33.333 13.666 66.833 30.999 100.5s38.666 62.5 63.999 86.5c36 35.333 76.833 60.833 122.5 76.5s98.834 23.5 159.501 23.5c56.667 0 109.167 -8.66699 157.5 -26s90.166 -42.333 125.499 -75
s63 -72.5 83 -119.5s30 -100.167 30 -159.5c0 -76.667 -16.5 -142 -49.5 -196s-82.5 -95.333 -148.5 -124c32.667 -11.333 62.667 -26.666 90 -45.999s50.5 -43.333 69.5 -72s33.833 -62 44.5 -100s16 -81.333 16 -130c0 -61.333 -11.333 -116.666 -34 -165.999
s-53.167 -91.333 -91.5 -126s-83.166 -61.334 -134.499 -80.001s-105.666 -28 -162.999 -28c-37.333 0 -71.166 2.16699 -101.499 6.5s-57.833 11 -82.5 20s-47.334 20 -68.001 33s-40.334 28.5 -59.001 46.5c-27.333 26 -49.666 57.333 -66.999 94s-26 75.667 -26 117
c0 14 1.66699 26.667 5 38s8.66602 20.666 15.999 27.999c12.667 14 29.667 21 51 21c18.667 0 33.334 -5.33301 44.001 -16c6.66699 -6 12.5 -14.333 17.5 -25s8.5 -22 10.5 -34c12 -71.333 39.833 -122.333 83.5 -153s102.167 -46 175.5 -46c38 0 74 6.33301 108 19
s63.5 30.834 88.5 54.501s44.833 52.334 59.5 86.001s22 71.834 22 114.501c0 86.667 -22.833 154 -68.5 202s-113.5 72.333 -203.5 73c-23.333 0 -41 3.66699 -53 11c-18.667 12.667 -28 30 -28 52z" />
    <glyph glyph-name="four" unicode="4" 
d="M154 230c-15.333 0 -28.167 1 -38.5 3s-19.833 6 -28.5 12s-15.334 13.833 -20.001 23.5s-7 19.834 -7 30.501c0 14.667 6 34 18 58l509 1013c8.66699 17.333 18.167 32 28.5 44s24.833 18 43.5 18c17.333 0 33 -6 47 -18s21 -27 21 -45
c0 -8.66699 -1.16699 -17.334 -3.5 -26.001s-7.16602 -20 -14.499 -34l-475 -949h399v316c0 17.333 0.833008 30.5 2.5 39.5s5.16699 18.167 10.5 27.5s13.333 16.833 24 22.5s22.667 8.5 36 8.5s25.333 -2.83301 36 -8.5s18.667 -13.167 24 -22.5s8.83301 -18.5 10.5 -27.5
s2.5 -22.167 2.5 -39.5v-316h108c16 0 28.333 -0.666992 37 -2s16.667 -4.33301 24 -9c18.667 -12.667 28 -30.667 28 -54s-9.33301 -41.333 -28 -54c-7.33301 -4.66699 -15.333 -7.66699 -24 -9s-21 -2 -37 -2h-108v-140c0 -17.333 -0.833008 -30.5 -2.5 -39.5
s-5.16699 -18.167 -10.5 -27.5s-13.333 -16.833 -24 -22.5s-22.667 -8.5 -36 -8.5s-25.333 2.83301 -36 8.5s-18.667 13.167 -24 22.5s-8.83301 18.5 -10.5 27.5s-2.5 22.167 -2.5 39.5v140h-479z" />
    <glyph glyph-name="five" unicode="5" 
d="M901 1359c0 -23.333 -9.33594 -41.335 -28.0029 -54.002c-7.33301 -4.66699 -15.333 -7.66699 -24 -9s-21 -2 -37 -2h-509v-446c30.667 31.333 66 55.166 106 71.499s90 24.5 150 24.5c53.333 0 100.666 -7.83301 141.999 -23.5s76.333 -37.5 105 -65.5
c26 -26 46.833 -54.333 62.5 -85s27.834 -62.5 36.501 -95.5s14.5 -66.833 17.5 -101.5s4.5 -68.667 4.5 -102c0 -35.333 -1.33301 -70.166 -4 -104.499s-8 -67.333 -16 -99s-19.667 -62.167 -35 -91.5s-35.666 -56.666 -60.999 -81.999
c-33.333 -33.333 -73.166 -59.333 -119.499 -78s-101.833 -28 -166.5 -28c-61.333 0 -115 7.66699 -161 23s-87.333 40.333 -124 75c-14 13.333 -27 28.333 -39 45s-22.5 34.334 -31.5 53.001s-16 37.667 -21 57s-7.5 38.666 -7.5 57.999c0 13.333 1.66699 24.333 5 33
s8 16.667 14 24c12.667 14.667 29.667 22 51 22c20 0 35.667 -5.66699 47 -17c6.66699 -6 12.334 -13.667 17.001 -23s9.66699 -25.333 15 -48c14.667 -58.667 41.167 -102 79.5 -130s90.166 -42 155.499 -42c36 0 69.333 5.33301 100 16s56.667 26.667 78 48
c18.667 18.667 33.167 39.334 43.5 62.001s18 46.667 23 72s8.16699 51.166 9.5 77.499s2 52.166 2 77.499c0 42.667 -3 84.834 -9 126.501s-17.667 78.667 -35 111s-41.833 58.5 -73.5 78.5s-73.5 30 -125.5 30c-48.667 0 -91.167 -7.66699 -127.5 -23
s-68.166 -42.666 -95.499 -81.999c-4.66699 -6 -9.33398 -11.667 -14.001 -17s-10 -10.333 -16 -15c-5.33301 -4 -11.666 -6.83301 -18.999 -8.5s-15 -2.5 -23 -2.5s-16.5 1.33301 -25.5 4s-17.167 7.66699 -24.5 15s-12.5 16.333 -15.5 27s-4.5 22.667 -4.5 36v585
c0 11.333 0.833008 23 2.5 35s7.5 23 17.5 33s21 15.833 33 17.5s23.667 2.5 35 2.5h551c16 0 28.333 -0.666992 37 -2s16.667 -4.33301 24 -9c18.667 -12.667 28 -30.667 28 -54z" />
    <glyph glyph-name="six" unicode="6" 
d="M684 1369c0 -8.66699 -1.16797 -17.332 -3.50098 -25.999s-7.16602 -20 -14.499 -34l-260 -521c42 17.333 90 26 144 26c56 0 106.833 -10.167 152.5 -30.5s84.667 -48.5 117 -84.5s57.333 -78.667 75 -128s26.5 -103 26.5 -161c0 -60.667 -9.16699 -116.667 -27.5 -168
s-44.5 -95.833 -78.5 -133.5s-75.5 -67.167 -124.5 -88.5s-103.833 -32 -164.5 -32c-61.333 0 -116.5 10 -165.5 30s-90.833 48 -125.5 84s-61.167 79.167 -79.5 129.5s-27.5 106.166 -27.5 167.499c0 46.667 6.83301 95 20.5 145s36.5 107 68.5 171l327 655
c8.66699 17.333 18.167 32 28.5 44s24.833 18 43.5 18c17.333 0 33 -6 47 -18s21 -27 21 -45zM273.999 404.002c0 -44 5.83203 -83.5029 17.499 -118.503s28.5 -65 50.5 -90s48.333 -44.167 79 -57.5s65 -20 103 -20s72.5 6.66699 103.5 20s57.5 32.5 79.5 57.5s39 55 51 90
s18 74.5 18 118.5c0 39.333 -5.5 76.333 -16.5 111s-27.167 64.834 -48.5 90.501s-47.666 46 -78.999 61s-67.333 22.5 -108 22.5c-38 0 -72.333 -6.66699 -103 -20s-57 -32.166 -79 -56.499s-38.833 -54.166 -50.5 -89.499s-17.5 -75 -17.5 -119z" />
    <glyph glyph-name="seven" unicode="7" 
d="M791 1294h-494v-133c0 -17.333 -0.833008 -30.5 -2.5 -39.5s-5.16699 -18.167 -10.5 -27.5s-13.333 -16.833 -24 -22.5s-22.667 -8.5 -36 -8.5s-25.333 2.83301 -36 8.5s-18.667 13.167 -24 22.5s-8.83301 18.5 -10.5 27.5s-2.5 22.167 -2.5 39.5v175
c0 11.333 0.833008 23 2.5 35s7.5 23 17.5 33s21 15.833 33 17.5s23.667 2.5 35 2.5h605c23.333 0 41.166 -1.16699 53.499 -3.5s23.5 -8.16602 33.5 -17.499c13.333 -12.667 20 -29.334 20 -50.001c0 -9.33301 -1.66699 -19.666 -5 -30.999s-8 -25 -14 -41l-456 -1219
c-6 -16 -11.5 -28.333 -16.5 -37s-10.833 -15.667 -17.5 -21c-11.333 -8 -23.333 -12 -36 -12c-16 0.666992 -30.833 5.66699 -44.5 15s-22.167 21.666 -25.5 36.999c-1.33301 8 -1.16602 17 0.500977 27s5.5 23 11.5 39z" />
    <glyph glyph-name="eight" unicode="8" 
d="M522 -12c-59.333 0 -114.664 9.83301 -165.997 29.5s-95.833 47.334 -133.5 83.001s-67.334 78.334 -89.001 128.001s-32.5 104.5 -32.5 164.5c0 42 5.5 80.5 16.5 115.5s26.167 66.833 45.5 95.5s42.166 54.167 68.499 76.5s54.5 41.833 84.5 58.5
c-56 31.333 -101.333 73.333 -136 126s-52 115.667 -52 189c0 56 9.83301 107.333 29.5 154s47 86.834 82 120.501s76.5 60 124.5 79s100.667 28.5 158 28.5c56.667 0 109.167 -9.5 157.5 -28.5s90 -45.333 125 -79s62.333 -73.834 82 -120.501s29.5 -98 29.5 -154
c0 -73.333 -17.333 -136.333 -52 -189s-80 -94.667 -136 -126c30 -16.667 58.167 -36.167 84.5 -58.5s49.166 -47.833 68.499 -76.5s34.5 -60.5 45.5 -95.5s16.5 -73.5 16.5 -115.5c0 -60 -10.833 -114.833 -32.5 -164.5s-51.334 -92.334 -89.001 -128.001
s-82.167 -63.334 -133.5 -83.001s-106.666 -29.5 -165.999 -29.5zM522.002 1306c-36.667 0 -70.167 -6.33301 -100.5 -19s-56.5 -30.334 -78.5 -53.001s-39 -49.5 -51 -80.5s-18 -64.833 -18 -101.5s6 -70.5 18 -101.5s29 -57.833 51 -80.5s48.167 -40.334 78.5 -53.001
s63.833 -19 100.5 -19s70.167 6.33301 100.5 19s56.5 30.334 78.5 53.001s39 49.5 51 80.5s18 64.833 18 101.5s-6 70.5 -18 101.5s-29 57.833 -51 80.5s-48.167 40.334 -78.5 53.001s-63.833 19 -100.5 19zM522.002 672c-38.667 0 -74.834 -7 -108.501 -21
s-62.834 -33.333 -87.501 -58s-44 -54 -58 -88s-21 -70.667 -21 -110c0 -40 7 -76.833 21 -110.5s33.333 -62.834 58 -87.501s53.834 -44 87.501 -58s69.834 -21 108.501 -21s74.834 7 108.501 21s62.834 33.333 87.501 58s44 53.834 58 87.501s21 70.5 21 110.5
c0 39.333 -7 76 -21 110s-33.333 63.333 -58 88s-53.834 44 -87.501 58s-69.834 21 -108.501 21z" />
    <glyph glyph-name="nine" unicode="9" 
d="M360 55c0 8.66699 1.16797 17.332 3.50098 25.999s7.16602 20 14.499 34l260 521c-42 -17.333 -90 -26 -144 -26c-56 0 -106.833 10.167 -152.5 30.5s-84.667 48.5 -117 84.5s-57.333 78.667 -75 128s-26.5 103 -26.5 161c0 60.667 9.16699 116.667 27.5 168
s44.5 95.833 78.5 133.5s75.333 67.167 124 88.5s103.667 32 165 32s116.5 -10 165.5 -30s90.833 -48 125.5 -84s61.167 -79.167 79.5 -129.5s27.5 -106.166 27.5 -167.499c0 -23.333 -1.66699 -47 -5 -71s-8.5 -48.833 -15.5 -74.5s-16.167 -52.5 -27.5 -80.5
s-25 -58 -41 -90l-327 -655c-8.66699 -17.333 -18.167 -32 -28.5 -44s-24.833 -18 -43.5 -18c-17.333 0 -33 6 -47 18s-21 27 -21 45zM770.001 1020c0 44 -5.83203 83.5029 -17.499 118.503s-28.5 65 -50.5 90s-48.333 44.167 -79 57.5s-65 20 -103 20
s-72.5 -6.66699 -103.5 -20s-57.5 -32.5 -79.5 -57.5s-39 -55 -51 -90s-18 -74.5 -18 -118.5c0 -39.333 5.5 -76.333 16.5 -111s27.167 -64.834 48.5 -90.501s47.666 -46 78.999 -61s67.333 -22.5 108 -22.5c38 0 72.333 6.66699 103 20s57 32.166 79 56.499
s38.833 54.166 50.5 89.499s17.5 75 17.5 119z" />
    <glyph glyph-name="colon" unicode=":" horiz-adv-x="594" 
d="M210 108c0 16 3 30.833 9 44.5s14.167 25.667 24.5 36s22.333 18.5 36 24.5s28.5 9 44.5 9s30.833 -3 44.5 -9s25.667 -14.167 36 -24.5s18.5 -22.333 24.5 -36s9 -28.5 9 -44.5s-3 -30.833 -9 -44.5s-14.167 -25.667 -24.5 -36s-22.333 -18.5 -36 -24.5
s-28.5 -9 -44.5 -9s-30.833 3 -44.5 9s-25.667 14.167 -36 24.5s-18.5 22.333 -24.5 36s-9 28.5 -9 44.5zM210 689c0 16 3 30.833 9 44.5s14.167 25.667 24.5 36s22.333 18.5 36 24.5s28.5 9 44.5 9s30.833 -3 44.5 -9s25.667 -14.167 36 -24.5s18.5 -22.333 24.5 -36
s9 -28.5 9 -44.5s-3 -30.833 -9 -44.5s-14.167 -25.667 -24.5 -36s-22.333 -18.5 -36 -24.5s-28.5 -9 -44.5 -9s-30.833 3 -44.5 9s-25.667 14.167 -36 24.5s-18.5 22.333 -24.5 36s-9 28.5 -9 44.5z" />
    <glyph glyph-name="semicolon" unicode=";" horiz-adv-x="594" 
d="M278 148c5.33301 16.667 10.333 29.001 15 37.001s10.667 15.333 18 22c5.33301 5.33301 11.833 9.16602 19.5 11.499s15.167 3.5 22.5 3.5c16 0 31.167 -4.83301 45.5 -14.5s23.166 -22.167 26.499 -37.5c2 -9.33301 2.33301 -18.833 1 -28.5
s-4.66602 -22.834 -9.99902 -39.501l-89 -267c-5.33301 -16.667 -10.333 -29 -15 -37s-10.667 -15.333 -18 -22c-11.333 -10 -25.333 -15 -42 -15c-16 0 -31.167 4.83301 -45.5 14.5s-23.166 22.167 -26.499 37.5c-2 9.33301 -2.33301 18.833 -1 28.5
s4.66602 22.834 9.99902 39.501zM240 689.001c0 16 3 30.833 9 44.5s14.167 25.667 24.5 36s22.333 18.5 36 24.5s28.5 9 44.5 9s30.833 -3 44.5 -9s25.667 -14.167 36 -24.5s18.5 -22.333 24.5 -36s9 -28.5 9 -44.5s-3 -30.833 -9 -44.5s-14.167 -25.667 -24.5 -36
s-22.333 -18.5 -36 -24.5s-28.5 -9 -44.5 -9s-30.833 3 -44.5 9s-25.667 14.167 -36 24.5s-18.5 22.333 -24.5 36s-9 28.5 -9 44.5z" />
    <glyph glyph-name="less" unicode="&#x3c;" 
d="M734 876c14 7.33301 25.333 12.168 34 14.501s17.334 3.5 26.001 3.5c18 0 33 -7 45 -21s18 -29.667 18 -47c0 -18.667 -6 -33.167 -18 -43.5s-26.667 -19.833 -44 -28.5l-429 -215l429 -215c17.333 -8.66699 32 -18.167 44 -28.5s18 -24.833 18 -43.5
c0 -17.333 -6 -33 -18 -47s-27 -21 -45 -21c-8.66699 0 -17.334 1.16699 -26.001 3.5s-20 7.16602 -34 14.499l-464 232c-13.333 6.66699 -25.666 13.167 -36.999 19.5s-21.166 13.5 -29.499 21.5s-15 17.167 -20 27.5s-7.5 22.5 -7.5 36.5s2.5 26.167 7.5 36.5
s11.667 19.5 20 27.5s18.166 15.167 29.499 21.5s23.666 12.833 36.999 19.5z" />
    <glyph glyph-name="equal" unicode="=" 
d="M947 709c0 -23.333 -9.33301 -41.333 -28 -54c-7.33301 -4.66699 -15.333 -7.66699 -24 -9s-21 -2 -37 -2h-672c-16 0 -28.333 0.666992 -37 2s-16.667 4.33301 -24 9c-18.667 12.667 -28 30.667 -28 54s9.33301 41.333 28 54c7.33301 4.66699 15.333 7.66699 24 9
s21 2 37 2h672c16 0 28.333 -0.666992 37 -2s16.667 -4.33301 24 -9c18.667 -12.667 28 -30.667 28 -54zM947 366c0 -23.333 -9.33301 -41.333 -28 -54c-7.33301 -4.66699 -15.333 -7.66699 -24 -9s-21 -2 -37 -2h-672c-16 0 -28.333 0.666992 -37 2s-16.667 4.33301 -24 9
c-18.667 12.667 -28 30.667 -28 54s9.33301 41.333 28 54c7.33301 4.66699 15.333 7.66699 24 9s21 2 37 2h672c16 0 28.333 -0.666992 37 -2s16.667 -4.33301 24 -9c18.667 -12.667 28 -30.667 28 -54z" />
    <glyph glyph-name="greater" unicode="&#x3e;" 
d="M774 643l36.5 -19.502c11.667 -6.33301 21.667 -13.5 30 -21.5s15 -17.167 20 -27.5s7.5 -22.5 7.5 -36.5s-2.5 -26.167 -7.5 -36.5s-11.667 -19.5 -20 -27.5s-18.333 -15.167 -30 -21.5l-36.5 -19.5l-464 -232c-14 -7.33301 -25.333 -12.166 -34 -14.499
s-17.334 -3.5 -26.001 -3.5c-18 0 -33 7 -45 21s-18 29.667 -18 47c0 18.667 6 33.167 18 43.5s26.667 19.833 44 28.5l429 215l-429 215c-17.333 8.66699 -32 18.167 -44 28.5s-18 24.833 -18 43.5c0 17.333 6 33 18 47s27 21 45 21c8.66699 0 17.334 -1.16699 26.001 -3.5
s20 -7.16602 34 -14.499z" />
    <glyph glyph-name="question" unicode="?" horiz-adv-x="995" 
d="M440 94c0 14 2.5 27.167 7.5 39.5s12 23 21 32s19.667 16.167 32 21.5s25.5 8 39.5 8s27.167 -2.66699 39.5 -8s23 -12.5 32 -21.5s16.167 -19.667 21.5 -32s8 -25.5 8 -39.5s-2.66699 -27.167 -8 -39.5s-12.5 -23 -21.5 -32s-19.667 -16 -32 -21s-25.5 -7.5 -39.5 -7.5
s-27.167 2.5 -39.5 7.5s-23 12 -32 21s-16 19.667 -21 32s-7.5 25.5 -7.5 39.5zM658 608c-16 -23.333 -26.833 -46.002 -32.5 -68.002s-9.16699 -47 -10.5 -75c-0.666992 -9.33301 -2.16699 -19.666 -4.5 -30.999s-8.16602 -21.666 -17.499 -30.999
c-6 -6 -13.5 -10.833 -22.5 -14.5s-18.833 -5.5 -29.5 -5.5c-25.333 0 -44.666 9.33301 -57.999 28c-4.66699 6.66699 -8.33398 14.667 -11.001 24s-4 21.333 -4 36c0 20 0.666992 38.167 2 54.5s4.33301 32 9 47s11 30.333 19 46s18.667 32.834 32 51.501l163 232
c19.333 28 35 55.167 47 81.5s18 56.5 18 90.5c0 32.667 -5.66699 63.334 -17 92.001s-27.333 53.5 -48 74.5s-45 37.5 -73 49.5s-58.667 18 -92 18c-30.667 0 -60.167 -5 -88.5 -15s-53.833 -26 -76.5 -48c-19.333 -18.667 -34.5 -40.334 -45.5 -65.001
s-18.5 -50.667 -22.5 -78c-1.33301 -10.667 -3.5 -20.5 -6.5 -29.5s-7.16699 -16.833 -12.5 -23.5c-12 -15.333 -30.333 -23 -55 -23c-22 0 -39 7.33301 -51 22c-6 7.33301 -10.167 15.5 -12.5 24.5s-3.5 19.5 -3.5 31.5c0 37.333 9.16699 76.666 27.5 117.999
s43.166 78 74.499 110c32 32 71.167 57.333 117.5 76s97.5 28 153.5 28c52.667 0 102 -9 148 -27s86 -43 120 -75s60.667 -70.167 80 -114.5s29 -92.833 29 -145.5c0 -24 -2.33301 -46.667 -7 -68s-11 -41.666 -19 -60.999s-17.667 -38.333 -29 -57
s-23.333 -37.334 -36 -56.001z" />
    <glyph glyph-name="at" unicode="@" horiz-adv-x="1427" 
d="M657 477c0 -46.667 2.66699 -92 8 -136s16.5 -83 33.5 -117s41.5 -61.333 73.5 -82s74.333 -31 127 -31s94.834 10.333 126.501 31s56 48 73 82s28.333 73 34 117s8.5 89.333 8.5 136s-2.83301 92 -8.5 136s-17 83 -34 117s-41.333 61.333 -73 82s-73.834 31 -126.501 31
s-95 -10.333 -127 -31s-56.5 -48 -73.5 -82s-28.167 -73 -33.5 -117s-8 -89.333 -8 -136zM874 966c58 0 108.503 -9.99902 151.503 -29.999s81.5 -51 115.5 -93v144c0 27.333 -1.5 52 -4.5 74s-7.66699 42.167 -14 60.5s-14.5 35.333 -24.5 51s-22.333 30.834 -37 45.501
c-28.667 28.667 -59.834 48.834 -93.501 60.501s-74.167 17.5 -121.5 17.5h-265c-47.333 0 -87.833 -5.83301 -121.5 -17.5s-64.834 -31.834 -93.501 -60.501c-14.667 -14.667 -27 -29.834 -37 -45.501s-18.167 -32.667 -24.5 -51s-11 -38.5 -14 -60.5
s-4.5 -46.667 -4.5 -74v-664c0 -30 1.33301 -54.833 4 -74.5s7 -36.667 13 -51s13.5 -27.333 22.5 -39s20.167 -24.5 33.5 -38.5c11.333 -12 19.833 -22.667 25.5 -32s8.5 -19.666 8.5 -30.999c0 -10 -1.66699 -19.5 -5 -28.5s-9.33301 -17.167 -18 -24.5
c-14 -13.333 -30.667 -20 -50 -20c-14 0 -26.333 4 -37 12s-22 18.667 -34 32c-17.333 18 -32.666 36 -45.999 54s-24.5 38.167 -33.5 60.5s-15.833 47.666 -20.5 75.999s-7 61.833 -7 100.5v673c0 68.667 8.66699 129.334 26 182.001s45.666 98.667 84.999 138
c38 38 82.833 66.5 134.5 85.5s109.5 28.5 173.5 28.5h305c64 0 121.833 -9.5 173.5 -28.5s96.5 -47.5 134.5 -85.5c39.333 -39.333 67.666 -85.333 84.999 -138s26 -113.334 26 -182.001v-902c0 -17.333 -0.833008 -30.5 -2.5 -39.5s-5.16699 -18.167 -10.5 -27.5
s-13.333 -16.833 -24 -22.5s-22.667 -8.5 -36 -8.5s-25.333 2.83301 -36 8.5s-18.667 13.167 -24 22.5s-8.83301 18.5 -10.5 27.5s-2.5 22.167 -2.5 39.5v18c-33.333 -41.333 -70.833 -71.666 -112.5 -90.999s-92.5 -29 -152.5 -29c-56.667 0 -108 9.83301 -154 29.5
s-85 49.5 -117 89.5c-17.333 20.667 -31.666 43.167 -42.999 67.5s-20.333 51.333 -27 81s-11.5 62.667 -14.5 99s-4.5 77.166 -4.5 122.499s1.5 86.166 4.5 122.499s7.83301 69.333 14.5 99s15.667 56.5 27 80.5s25.666 46.667 42.999 68c32 40 71 69.833 117 89.5
s97.333 29.5 154 29.5z" />
    <glyph glyph-name="A" unicode="A" horiz-adv-x="1222" 
d="M524 1352c5.33301 14.667 10.3311 25.8311 14.998 33.498s9.66699 14.834 15 21.501c7.33301 7.33301 15.5 13.333 24.5 18s19.833 7 32.5 7s23.5 -2.33301 32.5 -7s17.167 -10.667 24.5 -18c5.33301 -6.66699 10.333 -13.667 15 -21s9.66699 -18.666 15 -33.999
l462 -1234c3.33301 -9.33301 6.33301 -18.666 9 -27.999s4 -18.166 4 -26.499s-1.5 -16.666 -4.5 -24.999s-8.16699 -16.166 -15.5 -23.499s-15.666 -13 -24.999 -17s-19.666 -6 -30.999 -6c-14 0 -27 4.33301 -39 13c-8 6.66699 -14.333 13.834 -19 21.501
s-10.667 20.834 -18 39.501l-94 256h-633l-94 -256c-7.33301 -18.667 -13.333 -31.834 -18 -39.501s-11 -14.834 -19 -21.501c-12 -8.66699 -25 -13 -39 -13c-22 0 -40.667 7.66699 -56 23c-7.33301 7.33301 -12.5 15.166 -15.5 23.499s-4.33301 16.666 -4 24.999
s1.83301 17.166 4.5 26.499s5.66699 18.666 9 27.999zM341.998 453.997h537l-268 733z" />
    <glyph glyph-name="B" unicode="B" horiz-adv-x="1340" 
d="M299 0c-12 0 -24.3369 0.833008 -37.0039 2.5s-24.334 7.83398 -35.001 18.501s-16.834 22.334 -18.501 35.001s-2.5 25 -2.5 37v1238c0 12 0.833008 24.333 2.5 37s7.83398 24.334 18.501 35.001s22.334 16.834 35.001 18.501s25 2.5 37 2.5h445
c62 0 119 -8.66699 171 -26s96.5 -42.333 133.5 -75s65.833 -72.5 86.5 -119.5s31 -100.167 31 -159.5c0 -37.333 -5.33301 -72.5 -16 -105.5s-25.5 -63 -44.5 -90s-41.5 -50.5 -67.5 -70.5s-54 -35.333 -84 -46c34 -12.667 65.333 -29.334 94 -50.001
s53.334 -45.334 74.001 -74.001s36.834 -60.834 48.501 -96.501s17.5 -74.834 17.5 -117.501c0 -64.667 -10.333 -121.5 -31 -170.5s-49.667 -90 -87 -123s-82.166 -58 -134.499 -75s-110.166 -25.5 -173.499 -25.5h-463zM359.996 658v-522h388
c44 0 83.667 6.16699 119 18.5s65.333 29.833 90 52.5s43.667 50.167 57 82.5s20 68.5 20 108.5s-6.66699 76 -20 108s-32.333 59.333 -57 82s-54.667 40 -90 52s-75 18 -119 18h-388zM359.996 1288v-494h372c39.333 0 76.166 5 110.499 15s64 25.167 89 45.5
s44.667 46 59 77s21.5 67.833 21.5 110.5s-7.16699 79.5 -21.5 110.5s-34 56.5 -59 76.5s-54.667 34.833 -89 44.5s-71.166 14.5 -110.499 14.5h-372z" />
    <glyph glyph-name="C" unicode="C" horiz-adv-x="1276" 
d="M152 712c0 82 1.16699 152.162 3.5 210.495s8.33301 109.5 18 153.5s24.167 83.167 43.5 117.5s46 68.5 80 102.5c44 44 95.667 78.333 155 103s125.666 37 198.999 37c46 0 88 -4.33301 126 -13s72.5 -20.5 103.5 -35.5s59.167 -33 84.5 -54s48 -43.833 68 -68.5
c14.667 -18 27.834 -36.833 39.501 -56.5s21.167 -38.667 28.5 -57s13 -35.666 17 -51.999s6 -30.166 6 -41.499c0 -24 -6.66699 -42.667 -20 -56s-30.333 -20 -51 -20c-19.333 0 -35 5.33301 -47 16c-8 7.33301 -14.833 16.5 -20.5 27.5s-10.834 23.167 -15.501 36.5
c-25.333 76 -65.166 134.667 -119.499 176s-121.166 62 -200.499 62c-96.667 0 -178 -34 -244 -102c-22.667 -23.333 -40.667 -48.166 -54 -74.499s-23.333 -58 -30 -95s-11 -81 -13 -132s-3 -112.5 -3 -184.5s1 -133.5 3 -184.5s6.33301 -95 13 -132s16.667 -68.667 30 -95
s31.333 -51.166 54 -74.499c66 -68 147.333 -102 244 -102c79.333 0 146.166 20.667 200.499 62s94.166 100 119.499 176c4.66699 13.333 9.83398 25.5 15.501 36.5s12.5 20.167 20.5 27.5c12 10.667 27.667 16 47 16c20.667 0 37.667 -6.66699 51 -20s20 -32 20 -56
c0 -11.333 -2 -25.166 -6 -41.499s-9.66699 -33.833 -17 -52.5s-16.833 -37.667 -28.5 -57s-24.834 -38 -39.501 -56c-20 -24.667 -42.667 -47.5 -68 -68.5s-53.5 -39 -84.5 -54s-65.5 -26.833 -103.5 -35.5s-80 -13 -126 -13c-73.333 0 -139.666 12.333 -198.999 37
s-111 59 -155 103c-34 34 -60.667 68.167 -80 102.5s-33.833 73.5 -43.5 117.5s-15.667 95.167 -18 153.5s-3.5 128.5 -3.5 210.5z" />
    <glyph glyph-name="D" unicode="D" horiz-adv-x="1350" 
d="M299 0c-12 0 -24.333 0.831055 -37 2.49805s-24.334 7.83398 -35.001 18.501s-16.834 22.334 -18.501 35.001s-2.5 25 -2.5 37v1238c0 12 0.833008 24.333 2.5 37s7.83398 24.334 18.501 35.001s22.334 16.834 35.001 18.501s25 2.5 37 2.5h397
c80.667 0 151.334 -12 212.001 -36s115.334 -62 164.001 -114c31.333 -34 55.5 -72.167 72.5 -114.5s29.5 -87.5 37.5 -135.5s12.667 -98.333 14 -151s2 -106.334 2 -161.001s-0.666992 -108.334 -2 -161.001s-6 -103 -14 -151s-20.5 -93.167 -37.5 -135.5
s-41.167 -80.5 -72.5 -114.5c-48.667 -52 -103.334 -90 -164.001 -114s-131.334 -36 -212.001 -36h-397zM360 1288v-1152h310c54.667 0 106.167 7.5 154.5 22.5s90.5 42.5 126.5 82.5c22.667 24.667 40.167 53.834 52.5 87.501s21.5 70.667 27.5 111s9.66699 83.5 11 129.5
s2 93.667 2 143s-0.666992 97 -2 143s-5 89.167 -11 129.5s-15.167 77.333 -27.5 111s-29.833 62.834 -52.5 87.501c-36 40 -78.167 67.5 -126.5 82.5s-99.833 22.5 -154.5 22.5h-310z" />
    <glyph glyph-name="E" unicode="E" horiz-adv-x="1200" 
d="M1003 1424c19.333 0 33.333 -0.825195 42 -2.49219s16.667 -4.83398 24 -9.50098c19.333 -12.667 29 -31.334 29 -56.001s-9.66699 -43.334 -29 -56.001c-7.33301 -4.66699 -15.333 -7.83398 -24 -9.50098s-22.667 -2.5 -42 -2.5h-643v-502h534
c19.333 0 33.333 -0.833008 42 -2.5s16.667 -4.83398 24 -9.50098c19.333 -12.667 29 -31.334 29 -56.001s-9.66699 -43.334 -29 -56.001c-7.33301 -4.66699 -15.333 -7.83398 -24 -9.50098s-22.667 -2.5 -42 -2.5h-534v-514h643c19.333 0 33.333 -0.833008 42 -2.5
s16.667 -4.83398 24 -9.50098c19.333 -12.667 29 -31.334 29 -56.001s-9.66699 -43.334 -29 -56.001c-7.33301 -4.66699 -15.333 -7.83398 -24 -9.50098s-22.667 -2.5 -42 -2.5h-704c-12 0 -24.333 0.833008 -37 2.5s-24.334 7.83398 -35.001 18.501
s-16.834 22.334 -18.501 35.001s-2.5 25 -2.5 37v1238c0 12 0.833008 24.333 2.5 37s7.83398 24.334 18.501 35.001s22.334 16.834 35.001 18.501s25 2.5 37 2.5h704z" />
    <glyph glyph-name="F" unicode="F" horiz-adv-x="1160" 
d="M360 764l534.998 0.00585938c19.333 0 33.333 -0.833008 42 -2.5s16.667 -4.83398 24 -9.50098c19.333 -12.667 29 -31.334 29 -56.001s-9.66699 -43.334 -29 -56.001c-7.33301 -4.66699 -15.333 -7.83398 -24 -9.50098s-22.667 -2.5 -42 -2.5h-535v-532
c0 -20 -0.833008 -34.667 -2.5 -44s-5.5 -18.666 -11.5 -27.999s-14.5 -17 -25.5 -23s-23.5 -9 -37.5 -9s-26.5 3 -37.5 9s-19.5 13.667 -25.5 23s-9.83301 18.666 -11.5 27.999s-2.5 24 -2.5 44v1235c0 12 0.833008 24.333 2.5 37s7.83398 24.334 18.501 35.001
s22.334 16.834 35.001 18.501s25 2.5 37 2.5h704c19.333 0 33.333 -0.833008 42 -2.5s16.667 -4.83398 24 -9.50098c19.333 -12.667 29 -31.334 29 -56.001s-9.66699 -43.334 -29 -56.001c-7.33301 -4.66699 -15.333 -7.83398 -24 -9.50098s-22.667 -2.5 -42 -2.5h-643v-524
z" />
    <glyph glyph-name="G" unicode="G" horiz-adv-x="1300" 
d="M306 712c0 -73.333 0.993164 -135.672 2.99316 -187.005s6.5 -95.333 13.5 -132s17.167 -68 30.5 -94s31 -50.333 53 -73c66.667 -68 148.667 -102 246 -102c48 0 92.833 8.16699 134.5 24.5s79.167 41.166 112.5 74.499c20 20.667 36.5 42.5 49.5 65.5
s23 49.167 30 78.5s11.833 63.166 14.5 101.499s4 82.833 4 133.5h-263c-19.333 0 -33.333 0.833008 -42 2.5s-16.667 4.83398 -24 9.50098c-19.333 12.667 -29 31.334 -29 56.001s9.66699 43.334 29 56.001c7.33301 4.66699 15.333 7.83398 24 9.50098s22.667 2.5 42 2.5
h319c12 0 24.333 -0.833008 37 -2.5s24.334 -7.83398 35.001 -18.501s16.834 -22.334 18.501 -35.001s2.5 -25 2.5 -37v-26c0 -65.333 -1.83301 -122 -5.5 -170s-10.667 -90.833 -21 -128.5s-24.666 -71.667 -42.999 -102s-42.166 -60.166 -71.499 -89.499
c-45.333 -45.333 -97.166 -80.166 -155.499 -104.499s-124.166 -36.5 -197.499 -36.5c-74.667 0 -141.5 12.333 -200.5 37s-110.5 59 -154.5 103c-34 34 -60.667 68.167 -80 102.5s-33.833 73.5 -43.5 117.5s-15.667 95.167 -18 153.5s-3.5 128.5 -3.5 210.5
s1.16699 152.167 3.5 210.5s8.33301 109.5 18 153.5s24.167 83.167 43.5 117.5s46 68.5 80 102.5c44 44 95.667 78.333 155 103s125.666 37 198.999 37c46 0 88 -4.33301 126 -13s72.5 -20.5 103.5 -35.5s59.167 -33 84.5 -54s48 -43.833 68 -68.5
c14.667 -18 27.834 -36.833 39.501 -56.5s21.167 -38.667 28.5 -57s13 -35.666 17 -51.999s6 -30.166 6 -41.499c0 -24 -6.66699 -42.667 -20 -56s-30.333 -20 -51 -20c-19.333 0 -35 5.33301 -47 16c-8 7.33301 -14.833 16.5 -20.5 27.5s-10.834 23.167 -15.501 36.5
c-25.333 76 -65.166 134.667 -119.499 176s-121.166 62 -200.499 62c-96.667 0 -178 -34 -244 -102c-22.667 -23.333 -40.667 -48.166 -54 -74.499s-23.333 -58 -30 -95s-11 -81 -13 -132s-3 -112.5 -3 -184.5z" />
    <glyph glyph-name="H" unicode="H" horiz-adv-x="1392" 
d="M1186 96c0 -20 -0.833008 -34.667 -2.5 -44s-5.5 -18.666 -11.5 -27.999s-14.5 -17 -25.5 -23s-23.5 -9 -37.5 -9s-26.5 3 -37.5 9s-19.5 13.667 -25.5 23s-9.83301 18.666 -11.5 27.999s-2.5 24 -2.5 44v554h-672v-554c0 -20 -0.833008 -34.667 -2.5 -44
s-5.5 -18.666 -11.5 -27.999s-14.5 -17 -25.5 -23s-23.5 -9 -37.5 -9s-26.5 3 -37.5 9s-19.5 13.667 -25.5 23s-9.83301 18.666 -11.5 27.999s-2.5 24 -2.5 44v1232c0 20 0.833008 34.667 2.5 44s5.5 18.666 11.5 27.999s14.5 17 25.5 23s23.5 9 37.5 9s26.5 -3 37.5 -9
s19.5 -13.667 25.5 -23s9.83301 -18.666 11.5 -27.999s2.5 -24 2.5 -44v-542h672v542c0 20 0.833008 34.667 2.5 44s5.5 18.666 11.5 27.999s14.5 17 25.5 23s23.5 9 37.5 9s26.5 -3 37.5 -9s19.5 -13.667 25.5 -23s9.83301 -18.666 11.5 -27.999s2.5 -24 2.5 -44v-1232z
" />
    <glyph glyph-name="I" unicode="I" horiz-adv-x="566" 
d="M360 96c0 -20 -0.833008 -34.667 -2.5 -44s-5.5 -18.666 -11.5 -27.999s-14.5 -17 -25.5 -23s-23.5 -9 -37.5 -9s-26.5 3 -37.5 9s-19.5 13.667 -25.5 23s-9.83301 18.666 -11.5 27.999s-2.5 24 -2.5 44v1232c0 20 0.833008 34.667 2.5 44s5.5 18.666 11.5 27.999
s14.5 17 25.5 23s23.5 9 37.5 9s26.5 -3 37.5 -9s19.5 -13.667 25.5 -23s9.83301 -18.666 11.5 -27.999s2.5 -24 2.5 -44v-1232z" />
    <glyph glyph-name="J" unicode="J" horiz-adv-x="993" 
d="M362 124c93.333 0 165.332 28.335 215.999 85.002s76 137.667 76 243v876c0 20 0.833008 34.667 2.5 44s5.5 18.666 11.5 27.999s14.5 17 25.5 23s23.5 9 37.5 9s26.5 -3 37.5 -9s19.5 -13.667 25.5 -23s9.83301 -18.666 11.5 -27.999s2.5 -24 2.5 -44v-896
c0 -68.667 -11 -130.334 -33 -185.001s-52.667 -101.167 -92 -139.5s-86.333 -67.833 -141 -88.5s-114.667 -31 -180 -31c-54 0 -103 6.66699 -147 20s-85.333 34.333 -124 63c-13.333 10 -23.333 20.167 -30 30.5s-10 22.166 -10 35.499c0 19.333 6 35.666 18 48.999
c13.333 14 29 21 47 21c10.667 0 21.334 -2.33301 32.001 -7s23 -12 37 -22c28 -19.333 55.5 -33.166 82.5 -41.499s58.5 -12.5 94.5 -12.5z" />
    <glyph glyph-name="K" unicode="K" horiz-adv-x="1299" 
d="M360 619l631.001 765.999c10.667 13.333 21.5 24.5 32.5 33.5s23.833 13.5 38.5 13.5c17.333 0 33.666 -6 48.999 -18c17.333 -14.667 26 -33 26 -55c0 -10.667 -2.5 -20.667 -7.5 -30s-13.833 -21.666 -26.5 -36.999l-338 -411l427 -750c9.33301 -16 15.5 -29 18.5 -39
s4.5 -20 4.5 -30c0 -24.667 -13 -44.334 -39 -59.001c-12.667 -7.33301 -25.667 -11 -39 -11c-19.333 0 -34.833 6.33301 -46.5 19s-22.167 27.334 -31.5 44.001l-401 711l-298 -358v-312c0 -20 -0.833008 -34.667 -2.5 -44s-5.5 -18.666 -11.5 -27.999s-14.5 -17 -25.5 -23
s-23.5 -9 -37.5 -9s-26.5 3 -37.5 9s-19.5 13.667 -25.5 23s-9.83301 18.666 -11.5 27.999s-2.5 24 -2.5 44v1232c0 20 0.833008 34.667 2.5 44s5.5 18.666 11.5 27.999s14.5 17 25.5 23s23.5 9 37.5 9s26.5 -3 37.5 -9s19.5 -13.667 25.5 -23s9.83301 -18.666 11.5 -27.999
s2.5 -24 2.5 -44v-709z" />
    <glyph glyph-name="L" unicode="L" horiz-adv-x="1144" 
d="M299 0c-12 0 -24.3311 0.834961 -36.998 2.50195s-24.334 7.83398 -35.001 18.501s-16.834 22.334 -18.501 35.001s-2.5 25 -2.5 37v1235c0 20 0.833008 34.667 2.5 44s5.5 18.666 11.5 27.999s14.5 17 25.5 23s23.5 9 37.5 9s26.5 -3 37.5 -9s19.5 -13.667 25.5 -23
s9.83301 -18.666 11.5 -27.999s2.5 -24 2.5 -44v-1192h638c19.333 0 33.333 -0.833008 42 -2.5s16.667 -4.83398 24 -9.50098c19.333 -12.667 29 -31.334 29 -56.001s-9.66699 -43.334 -29 -56.001c-7.33301 -4.66699 -15.333 -7.83398 -24 -9.50098s-22.667 -2.5 -42 -2.5
h-699z" />
    <glyph glyph-name="M" unicode="M" horiz-adv-x="1632" 
d="M816 212c-22.667 0 -40.5 6.16699 -53.5 18.5s-24.833 29.833 -35.5 52.5l-367 790v-977c0 -20 -0.833008 -34.667 -2.5 -44s-5.5 -18.666 -11.5 -27.999s-14.5 -17 -25.5 -23s-23.5 -9 -37.5 -9s-26.5 3 -37.5 9s-19.5 13.667 -25.5 23s-9.83301 18.666 -11.5 27.999
s-2.5 24 -2.5 44v1238c0 16.667 1.66699 31 5 43s9.66602 22.667 18.999 32c7.33301 8 15.833 13.833 25.5 17.5s19.5 5.5 29.5 5.5s18.5 -1 25.5 -3s13.833 -5 20.5 -9c14.667 -8.66699 28.334 -26.334 41.001 -53.001l444 -958l444 958
c12.667 26.667 26.334 44.334 41.001 53.001c6.66699 4 13.5 7 20.5 9s15.5 3 25.5 3s19.833 -1.83301 29.5 -5.5s18.167 -9.5 25.5 -17.5c9.33301 -9.33301 15.666 -20 18.999 -32s5 -26.333 5 -43v-1238c0 -20 -0.833008 -34.667 -2.5 -44s-5.5 -18.666 -11.5 -27.999
s-14.5 -17 -25.5 -23s-23.5 -9 -37.5 -9s-26.5 3 -37.5 9s-19.5 13.667 -25.5 23s-9.83301 18.666 -11.5 27.999s-2.5 24 -2.5 44v977l-367 -790c-10.667 -22.667 -22.5 -40.167 -35.5 -52.5s-30.833 -18.5 -53.5 -18.5z" />
    <glyph glyph-name="N" unicode="N" horiz-adv-x="1466" 
d="M1260 93c0 -35.333 -8 -61 -24 -77s-35.333 -24 -58 -24c-18.667 0 -34.5 5.33301 -47.5 16s-26.167 25.667 -39.5 45l-731 1080v-1037c0 -20 -0.833008 -34.667 -2.5 -44s-5.5 -18.666 -11.5 -27.999s-14.5 -17 -25.5 -23s-23.5 -9 -37.5 -9s-26.5 3 -37.5 9
s-19.5 13.667 -25.5 23s-9.83301 18.666 -11.5 27.999s-2.5 24 -2.5 44v1235c0 35.333 8 61 24 77c14.667 16 34 24 58 24c18.667 0 34.5 -5.33301 47.5 -16s26.167 -25.667 39.5 -45l731 -1080v1037c0 20 0.833008 34.667 2.5 44s5.5 18.666 11.5 27.999s14.5 17 25.5 23
s23.5 9 37.5 9s26.5 -3 37.5 -9s19.5 -13.667 25.5 -23s9.83301 -18.666 11.5 -27.999s2.5 -24 2.5 -44v-1235z" />
    <glyph glyph-name="O" unicode="O" horiz-adv-x="1304" 
d="M652 1436c74.667 0 141.667 -12.333 201 -37s111 -59 155 -103c34 -34 60.5 -68.167 79.5 -102.5s33.333 -73.5 43 -117.5s15.667 -95.167 18 -153.5s3.5 -128.5 3.5 -210.5s-1.16699 -152.167 -3.5 -210.5s-8.33301 -109.5 -18 -153.5s-24 -83.167 -43 -117.5
s-45.5 -68.5 -79.5 -102.5c-44 -44 -95.667 -78.333 -155 -103s-126.333 -37 -201 -37s-141.667 12.333 -201 37s-111 59 -155 103c-34 34 -60.5 68.167 -79.5 102.5s-33.333 73.5 -43 117.5s-15.667 95.167 -18 153.5s-3.5 128.5 -3.5 210.5s1.16699 152.167 3.5 210.5
s8.33301 109.5 18 153.5s24 83.167 43 117.5s45.5 68.5 79.5 102.5c44 44 95.667 78.333 155 103s126.333 37 201 37zM652 124c98 0 180 34 246 102c22 22.667 39.667 47 53 73s23.5 57.333 30.5 94s11.5 80.667 13.5 132s3 113.666 3 186.999s-1 135.666 -3 186.999
s-6.5 95.333 -13.5 132s-17.167 68 -30.5 94s-31 50.333 -53 73c-66 68 -148 102 -246 102s-180 -34 -246 -102c-22 -22.667 -39.667 -47 -53 -73s-23.5 -57.333 -30.5 -94s-11.5 -80.667 -13.5 -132s-3 -113.666 -3 -186.999s1 -135.666 3 -186.999s6.5 -95.333 13.5 -132
s17.167 -68 30.5 -94s31 -50.333 53 -73c66 -68 148 -102 246 -102z" />
    <glyph glyph-name="P" unicode="P" horiz-adv-x="1265" 
d="M206 1331c0 12 0.831055 24.332 2.49805 36.999s7.83398 24.334 18.501 35.001s22.334 16.834 35.001 18.501s25 2.5 37 2.5h439c64.667 0 124.167 -9.83301 178.5 -29.5s101 -47.667 140 -84s69.333 -80.333 91 -132s32.5 -109.167 32.5 -172.5
s-10.833 -120.833 -32.5 -172.5s-52 -95.834 -91 -132.501s-85.667 -65 -140 -85s-113.833 -30 -178.5 -30h-378v-490c0 -20 -0.833008 -34.667 -2.5 -44s-5.5 -18.666 -11.5 -27.999s-14.5 -17 -25.5 -23s-23.5 -9 -37.5 -9s-26.5 3 -37.5 9s-19.5 13.667 -25.5 23
s-9.83301 18.666 -11.5 27.999s-2.5 24 -2.5 44v1235zM359.998 1288v-566h366c44.667 0 85.334 6 122.001 18s68.167 29.833 94.5 53.5s46.666 53.167 60.999 88.5s21.5 76.666 21.5 123.999c0 46.667 -7.16699 87.667 -21.5 123s-34.666 64.833 -60.999 88.5
s-57.833 41.334 -94.5 53.001s-77.334 17.5 -122.001 17.5h-366z" />
    <glyph glyph-name="Q" unicode="Q" horiz-adv-x="1304" 
d="M652 1436c74.667 0 141.666 -12.335 200.999 -37.002s111 -59 155 -103c34 -34 60.5 -68.167 79.5 -102.5s33.333 -73.5 43 -117.5s15.667 -95.167 18 -153.5s3.5 -128.5 3.5 -210.5c0 -72 -0.833008 -134.833 -2.5 -188.5s-5.83398 -101.334 -12.501 -143.001
s-16.667 -78.667 -30 -111s-31.666 -63.166 -54.999 -92.499l103 -103c11.333 -11.333 19.166 -20.666 23.499 -27.999s7.5 -14.666 9.5 -21.999c5.33301 -20.667 -0.666992 -39.667 -18 -57c-8 -8 -17 -13.667 -27 -17s-20 -3.66602 -30 -0.999023
c-7.33301 2 -14.666 5.16699 -21.999 9.5s-16.666 12.166 -27.999 23.499l-104 103c-41.333 -30.667 -87.5 -54.5 -138.5 -71.5s-107.167 -25.5 -168.5 -25.5c-74.667 0 -141.667 12.333 -201 37s-111 59 -155 103c-34 34 -60.5 68.167 -79.5 102.5s-33.333 73.5 -43 117.5
s-15.667 95.167 -18 153.5s-3.5 128.5 -3.5 210.5s1.16699 152.167 3.5 210.5s8.33301 109.5 18 153.5s24 83.167 43 117.5s45.5 68.5 79.5 102.5c44 44 95.667 78.333 155 103s126.333 37 201 37zM718.999 325.998c-11.333 11.333 -19.1631 20.668 -23.4961 28.001
s-7.5 14.666 -9.5 21.999c-2.66699 10 -2.33398 20 0.999023 30s9 19 17 27c17.333 17.333 36.333 23.333 57 18c7.33301 -2 14.666 -5.16699 21.999 -9.5s16.666 -12.166 27.999 -23.499l127 -127c12.667 21.333 23 44.666 31 69.999s14.167 54.666 18.5 87.999
s7.16602 71.5 8.49902 114.5s2 92.5 2 148.5c0 73.333 -1 135.666 -3 186.999s-6.5 95.333 -13.5 132s-17.167 68 -30.5 94s-31 50.333 -53 73c-66 68 -148 102 -246 102s-180 -34 -246 -102c-22 -22.667 -39.667 -47 -53 -73s-23.5 -57.333 -30.5 -94
s-11.5 -80.667 -13.5 -132s-3 -113.666 -3 -186.999s1 -135.666 3 -186.999s6.5 -95.333 13.5 -132s17.167 -68 30.5 -94s31 -50.333 53 -73c66 -68 147.333 -102 244 -102c38 0 73.833 5.5 107.5 16.5s65.167 28.167 94.5 51.5z" />
    <glyph glyph-name="R" unicode="R" horiz-adv-x="1314" 
d="M206 1331c0 12 0.830078 24.3301 2.49707 36.9971s7.83398 24.334 18.501 35.001s22.334 16.834 35.001 18.501s25 2.5 37 2.5h455c62 0 119 -9.16699 171 -27.5s96.833 -44.5 134.5 -78.5s66.834 -75.5 87.501 -124.5s31 -104.167 31 -165.5
c0 -52 -7.5 -99.333 -22.5 -142s-36.333 -80.167 -64 -112.5s-60.5 -59.166 -98.5 -80.499s-80 -37 -126 -47l295 -515c9.33301 -16 15.5 -29 18.5 -39s4.5 -20 4.5 -30c0 -24.667 -13 -44.334 -39 -59.001c-12.667 -7.33301 -25.667 -11 -39 -11
c-19.333 0 -34.833 6.33301 -46.5 19s-22.167 27.334 -31.5 44.001l-330 577h-339v-536c0 -20 -0.833008 -34.667 -2.5 -44s-5.5 -18.666 -11.5 -27.999s-14.5 -17 -25.5 -23s-23.5 -9 -37.5 -9s-26.5 3 -37.5 9s-19.5 13.667 -25.5 23s-9.83301 18.666 -11.5 27.999
s-2.5 24 -2.5 44v1235zM359.997 1288v-522.002h380c41.333 0 79.5 5.33301 114.5 16s65 26.834 90 48.501s44.5 48.834 58.5 81.501s21 70.667 21 114s-7 81.333 -21 114s-33.5 60 -58.5 82s-55 38.5 -90 49.5s-73.167 16.5 -114.5 16.5h-380z" />
    <glyph glyph-name="S" unicode="S" horiz-adv-x="1177" 
d="M492 661c-27.333 4 -52.8369 9.00098 -76.5039 15.001s-46 13.167 -67 21.5s-41 18.5 -60 30.5s-37.5 26 -55.5 42c-38 33.333 -65.833 71.666 -83.5 114.999s-26.5 93.333 -26.5 150c0 60.667 10.5 115.667 31.5 165s51.333 91.5 91 126.5s87.667 62 144 81
s119.5 28.5 189.5 28.5c36.667 0 69.834 -1.66699 99.501 -5s58 -9 85 -17s53.667 -18.333 80 -31s54.5 -28.334 84.5 -47.001c16.667 -10 30.667 -21.5 42 -34.5s17 -27.5 17 -43.5c0 -18 -5.66699 -33 -17 -45c-12.667 -14.667 -28.667 -22 -48 -22
c-10.667 0 -21.834 2.66699 -33.501 8s-23.834 12 -36.501 20c-24 16 -46.667 29.5 -68 40.5s-42.666 19.833 -63.999 26.5s-44 11.334 -68 14.001s-50.333 4 -79 4c-48 0 -90.667 -6.33301 -128 -19s-68.833 -30.5 -94.5 -53.5s-45.334 -50.5 -59.001 -82.5
s-20.5 -67.667 -20.5 -107c0 -36 5.33301 -68 16 -96s27.334 -51.667 50.001 -71c12.667 -10.667 25.334 -20.167 38.001 -28.5s26.5 -15.5 41.5 -21.5s31.5 -11.333 49.5 -16s38.667 -8.66699 62 -12l157 -24c33.333 -5.33301 62.833 -11 88.5 -17s48.834 -13 69.501 -21
s39.167 -17 55.5 -27s32.166 -21.333 47.499 -34c38.667 -32.667 68.167 -73.167 88.5 -121.5s30.5 -101.833 30.5 -160.5c0 -62 -11.833 -118 -35.5 -168s-57 -92.5 -100 -127.5s-94.833 -61.833 -155.5 -80.5s-128 -28 -202 -28c-44 0 -84 2.16699 -120 6.5
s-69.667 11.333 -101 21s-61.833 22.167 -91.5 37.5s-60.5 33.666 -92.5 54.999c-19.333 12.667 -34.833 25.667 -46.5 39s-17.5 29.333 -17.5 48c0 9.33301 1.66699 18.5 5 27.5s8.66602 17.167 15.999 24.5c12.667 12.667 28.334 19 47.001 19
c8.66699 0 19.334 -2.66699 32.001 -8s25.667 -13.333 39 -24c26.667 -20 52.5 -37 77.5 -51s50.833 -25.333 77.5 -34s54.667 -15 84 -19s61.333 -6 96 -6c52 0 98.833 5.83301 140.5 17.5s77 28.834 106 51.501s51.333 50.167 67 82.5s23.5 69.5 23.5 111.5
c0 38 -5.66699 72.167 -17 102.5s-28.666 55.833 -51.999 76.5c-11.333 10 -22.666 18.5 -33.999 25.5s-24 13 -38 18s-30 9.5 -48 13.5s-40 8 -66 12z" />
    <glyph glyph-name="T" unicode="T" horiz-adv-x="1094" 
d="M948 1424c19.333 0 33.333 -0.833008 42 -2.5s16.667 -4.83398 24 -9.50098c19.333 -12.667 29 -31.334 29 -56.001s-9.66699 -43.334 -29 -56.001c-7.33301 -4.66699 -15.333 -7.83398 -24 -9.50098s-22.667 -2.5 -42 -2.5h-324v-1192c0 -20 -0.833008 -34.667 -2.5 -44
s-5.5 -18.666 -11.5 -27.999s-14.5 -17 -25.5 -23s-23.5 -9 -37.5 -9s-26.5 3 -37.5 9s-19.5 13.667 -25.5 23s-9.83301 18.666 -11.5 27.999s-2.5 24 -2.5 44v1192h-324c-19.333 0 -33.333 0.833008 -42 2.5s-16.667 4.83398 -24 9.50098
c-19.333 12.667 -29 31.334 -29 56.001s9.66699 43.334 29 56.001c7.33301 4.66699 15.333 7.83398 24 9.50098s22.667 2.5 42 2.5h802z" />
    <glyph glyph-name="U" unicode="U" horiz-adv-x="1368" 
d="M1183 470c0 -71.333 -12.501 -136.5 -37.501 -195.5s-59.667 -109.667 -104 -152s-97.166 -75.333 -158.499 -99s-128 -35.5 -200 -35.5s-138.5 11.833 -199.5 35.5s-113.667 56.667 -158 99s-78.833 93 -103.5 152s-37 124.167 -37 195.5v858
c0 20 0.833008 34.667 2.5 44s5.5 18.666 11.5 27.999s14.5 17 25.5 23s23.5 9 37.5 9s26.5 -3 37.5 -9s19.5 -13.667 25.5 -23s9.83301 -18.666 11.5 -27.999s2.5 -24 2.5 -44v-846c0 -54 8.16699 -103 24.5 -147s39.5 -81.667 69.5 -113s66.167 -55.5 108.5 -72.5
s89.5 -25.5 141.5 -25.5s99.333 8.5 142 25.5s79 41.167 109 72.5s53.333 69 70 113s25 93 25 147v846c0 20 0.833008 34.667 2.5 44s5.5 18.666 11.5 27.999s14.5 17 25.5 23s23.5 9 37.5 9s26.5 -3 37.5 -9s19.5 -13.667 25.5 -23s9.83301 -18.666 11.5 -27.999
s2.5 -24 2.5 -44v-858z" />
    <glyph glyph-name="V" unicode="V" horiz-adv-x="1086" 
d="M627 75c-4.66699 -14 -9.66699 -26.499 -15 -37.499s-11 -19.167 -17 -24.5c-8.66699 -8 -17 -13.5 -25 -16.5s-17 -4.5 -27 -4.5c-10.667 0 -20 1.5 -28 4.5s-16 8.5 -24 16.5c-6 5.33301 -11.667 13.5 -17 24.5s-10.333 23.5 -15 37.5l-412 1237
c-5.33301 16.667 -8.66602 29.834 -9.99902 39.501s-1 19.167 1 28.5c3.33301 15.333 12.166 27.833 26.499 37.5s29.5 14.5 45.5 14.5c16.667 0 30.667 -5 42 -15c7.33301 -6.66699 13.333 -14 18 -22s9.66699 -20.333 15 -37l358 -1095l358 1095
c5.33301 16.667 10.333 29 15 37s10.667 15.333 18 22c5.33301 5.33301 11.833 9.16602 19.5 11.499s15.167 3.5 22.5 3.5c16 0 31.167 -4.83301 45.5 -14.5s23.166 -22.167 26.499 -37.5c2 -9.33301 2.33301 -18.833 1 -28.5s-4.66602 -22.834 -9.99902 -39.501z" />
    <glyph glyph-name="W" unicode="W" horiz-adv-x="1720" 
d="M566 80c-3.33301 -13.333 -7.82715 -25.833 -13.4941 -37.5s-12.834 -21.167 -21.501 -28.5c-8.66699 -8 -17.667 -13.667 -27 -17s-19.333 -5 -30 -5s-20.667 1.66699 -30 5s-18.333 9 -27 17c-8.66699 7.33301 -15.834 16.833 -21.501 28.5s-10.167 24.167 -13.5 37.5
l-310 1235c-4.66699 18 -7.5 31.833 -8.5 41.5s0.166992 19.167 3.5 28.5c4.66699 15.333 13.834 27 27.501 35s27.5 12 41.5 12c20 0 35.333 -5.33301 46 -16c7.33301 -7.33301 13 -15.666 17 -24.999s8.33301 -23 13 -41l269 -1077l294 1080
c3.33301 13.333 7.16602 24.5 11.499 33.5s10.166 16.833 17.499 23.5c14 13.333 32.667 20 56 20s42 -6.66699 56 -20c7.33301 -6.66699 13.166 -14.5 17.499 -23.5s8.16602 -20.167 11.499 -33.5l294 -1080l269 1077c4.66699 18 9 31.667 13 41s9.66699 17.666 17 24.999
c10.667 10.667 26 16 46 16c14 0 27.833 -4 41.5 -12s22.834 -19.667 27.501 -35c3.33301 -9.33301 4.5 -18.833 3.5 -28.5s-3.83301 -23.5 -8.5 -41.5l-310 -1235c-3.33301 -13.333 -7.83301 -25.833 -13.5 -37.5s-12.834 -21.167 -21.501 -28.5
c-8.66699 -8 -17.667 -13.667 -27 -17s-19.333 -5 -30 -5s-20.667 1.66699 -30 5s-18.333 9 -27 17c-8.66699 7.33301 -15.834 16.833 -21.501 28.5s-10.167 24.167 -13.5 37.5l-294 1071z" />
    <glyph glyph-name="X" unicode="X" horiz-adv-x="1093" 
d="M546 599l-306 -544c-9.33301 -16.667 -19.833 -31.334 -31.5 -44.001s-27.167 -19 -46.5 -19c-13.333 0 -26.333 3.66699 -39 11c-26 14.667 -39 34.334 -39 59.001c0 10 1.5 20 4.5 30s9.16699 23 18.5 39l345 599l-322 563c-9.33301 16 -15.5 29 -18.5 39
s-4.5 20 -4.5 30c0 24.667 13 44.334 39 59.001c12.667 7.33301 25.667 11 39 11c19.333 0 34.833 -6.33301 46.5 -19s22.167 -27.334 31.5 -44.001l283 -511l286 511c9.33301 16.667 19.833 31.334 31.5 44.001s27.167 19 46.5 19c13.333 0 26.333 -3.66699 39 -11
c26 -14.667 39 -34.334 39 -59.001c0 -10 -1.5 -20 -4.5 -30s-9.16699 -23 -18.5 -39l-326 -562l347 -600c9.33301 -16 15.5 -29 18.5 -39s4.5 -20 4.5 -30c0 -24.667 -13 -44.334 -39 -59.001c-12.667 -7.33301 -25.667 -11 -39 -11c-19.333 0 -34.833 6.33301 -46.5 19
s-22.167 27.334 -31.5 44.001z" />
    <glyph glyph-name="Y" unicode="Y" horiz-adv-x="1008" 
d="M581 582l0.00195312 -486c0 -20 -0.833008 -34.667 -2.5 -44s-5.5 -18.666 -11.5 -27.999s-14.5 -17 -25.5 -23s-23.5 -9 -37.5 -9s-26.5 3 -37.5 9s-19.5 13.667 -25.5 23s-9.83301 18.666 -11.5 27.999s-2.5 24 -2.5 44v486l-361 722c-8 16 -13.5 28.667 -16.5 38
s-3.83301 18.666 -2.5 27.999c1.33301 10.667 5.16602 20.834 11.499 30.501s15.5 17.5 27.5 23.5c10.667 5.33301 22 8 34 8c5.33301 0 10.833 -0.666992 16.5 -2s11.5 -4 17.5 -8c7.33301 -5.33301 13.833 -11.666 19.5 -18.999s12.5 -19 20.5 -35l310 -620l310 620
c8 16 14.833 27.667 20.5 35s12.167 13.666 19.5 18.999c6 4 11.833 6.66699 17.5 8s11.167 2 16.5 2c12 0 23.333 -2.66699 34 -8c12 -6 21.167 -13.833 27.5 -23.5s10.166 -19.834 11.499 -30.501c1.33301 -9.33301 0.5 -18.666 -2.5 -27.999s-8.5 -22 -16.5 -38z" />
    <glyph glyph-name="Z" unicode="Z" horiz-adv-x="1099" 
d="M191 0c-17.333 0 -32.001 1.33203 -44.001 3.99902s-22.333 8.33398 -31 17.001c-14 14.667 -21 32.334 -21 53.001c0 18.667 8.66699 42.334 26 71.001l691 1143h-592c-19.333 0 -33.333 0.833008 -42 2.5s-16.667 4.83398 -24 9.50098
c-19.333 12.667 -29 31.334 -29 56.001s9.66699 43.334 29 56.001c7.33301 4.66699 15.333 7.83398 24 9.50098s22.667 2.5 42 2.5h683c17.333 0 32 -1.33301 44 -4s22.333 -8.33398 31 -17.001c14 -15.333 21 -33 21 -53c0 -10.667 -2.16699 -21.334 -6.5 -32.001
s-11.166 -23.667 -20.499 -39l-689 -1143h621c19.333 0 33.333 -0.833008 42 -2.5s16.667 -4.83398 24 -9.50098c19.333 -12.667 29 -31.334 29 -56.001s-9.66699 -43.334 -29 -56.001c-7.33301 -4.66699 -15.333 -7.83398 -24 -9.50098s-22.667 -2.5 -42 -2.5h-713z" />
    <glyph glyph-name="bracketleft" unicode="[" horiz-adv-x="629" 
d="M547 -83c0 -23.333 -9.33301 -41.333 -28 -54c-7.33301 -4.66699 -15.333 -7.66699 -24 -9s-21 -2 -37 -2h-185c-11.333 0 -23 0.833008 -35 2.5s-23 7.5 -33 17.5s-15.833 21 -17.5 33s-2.5 23.667 -2.5 35v1544c0 11.333 0.833008 23 2.5 35s7.5 23 17.5 33
s21 15.833 33 17.5s23.667 2.5 35 2.5h185c16 0 28.333 -0.666992 37 -2s16.667 -4.33301 24 -9c18.667 -12.667 28 -30.667 28 -54s-9.33301 -41.333 -28 -54c-7.33301 -4.66699 -15.333 -7.66699 -24 -9s-21 -2 -37 -2h-127v-1460h127c16 0 28.333 -0.666992 37 -2
s16.667 -4.33301 24 -9c18.667 -12.667 28 -30.667 28 -54z" />
    <glyph glyph-name="backslash" unicode="\" horiz-adv-x="712" 
d="M31 1466c-5.33301 15.333 -8.5 28.5 -9.5 39.5s0.166992 21.5 3.5 31.5c4.66699 12.667 13.334 23 26.001 31s26 12 40 12c21.333 0 37 -6.83301 47 -20.5s18.333 -30.167 25 -49.5l518 -1552c5.33301 -15.333 8.5 -28.5 9.5 -39.5s-0.166992 -21.5 -3.5 -31.5
c-4.66699 -12.667 -13.334 -23 -26.001 -31s-26 -12 -40 -12c-21.333 0 -37 6.83301 -47 20.5s-18.333 30.167 -25 49.5z" />
    <glyph glyph-name="bracketright" unicode="]" horiz-adv-x="629" 
d="M82 -83c0 23.333 9.33301 41.333 28 54c7.33301 4.66699 15.333 7.66699 24 9s21 2 37 2h127v1460h-127c-16 0 -28.333 0.666992 -37 2s-16.667 4.33301 -24 9c-18.667 12.667 -28 30.667 -28 54s9.33301 41.333 28 54c7.33301 4.66699 15.333 7.66699 24 9s21 2 37 2
h185c11.333 0 23 -0.833008 35 -2.5s23 -7.5 33 -17.5s15.833 -21 17.5 -33s2.5 -23.667 2.5 -35v-1544c0 -11.333 -0.833008 -23 -2.5 -35s-7.5 -23 -17.5 -33s-21 -15.833 -33 -17.5s-23.667 -2.5 -35 -2.5h-185c-16 0 -28.333 0.666992 -37 2s-16.667 4.33301 -24 9
c-18.667 12.667 -28 30.667 -28 54z" />
    <glyph glyph-name="asciicircum" unicode="^" 
d="M859 874c7.33301 -14 12.168 -25.333 14.501 -34s3.5 -17.334 3.5 -26.001c0 -18 -7 -33 -21 -45s-29.667 -18 -47 -18c-18.667 0 -33.167 6 -43.5 18s-19.833 26.667 -28.5 44l-215 429l-215 -429c-8.66699 -17.333 -18.167 -32 -28.5 -44s-24.833 -18 -43.5 -18
c-17.333 0 -33 6 -47 18s-21 27 -21 45c0 8.66699 1.16699 17.334 3.5 26.001s7.16602 20 14.499 34l232 464l19.5 36.5c6.33301 11.667 13.5 21.667 21.5 30s17.167 15 27.5 20s22.5 7.5 36.5 7.5s26.167 -2.5 36.5 -7.5s19.5 -11.667 27.5 -20s15.167 -18.333 21.5 -30
l19.5 -36.5z" />
    <glyph glyph-name="underscore" unicode="_" horiz-adv-x="1072" 
d="M123 -338c-13.333 0 -24 0.666992 -32 2s-15 4 -21 8c-16 9.33301 -24 24.666 -24 45.999s8 36.666 24 45.999c6 4 13 6.66699 21 8s18.667 2 32 2h826c13.333 0 24 -0.666992 32 -2s15 -4 21 -8c16 -9.33301 24 -24.666 24 -45.999s-8 -36.666 -24 -45.999
c-6 -4 -13 -6.66699 -21 -8s-18.667 -2 -32 -2h-826z" />
    <glyph glyph-name="grave" unicode="`" horiz-adv-x="1064" 
d="M330 1446c0 24.667 11.333 44 34 58c12 7.33301 24.667 11 38 11c15.333 0 28.5 -4.5 39.5 -13.5s22.167 -23.167 33.5 -42.5l97 -155c8.66699 -13.333 15 -24.666 19 -33.999s6 -18.666 6 -27.999c0 -24.667 -11.333 -44 -34 -58c-12 -7.33301 -24.667 -11 -38 -11
c-15.333 0 -28.5 4.5 -39.5 13.5s-22.167 23.167 -33.5 42.5l-97 155c-8.66699 13.333 -15 24.666 -19 33.999s-6 18.666 -6 27.999z" />
    <glyph glyph-name="a" unicode="a" horiz-adv-x="1053" 
d="M99 279c0 43.333 7.66797 82.4961 23.001 117.496s37.5 65 66.5 90s64.667 44.167 107 57.5s90.166 20 143.499 20h298v80c0 74.667 -18.833 131.167 -56.5 169.5s-99.5 57.5 -185.5 57.5c-25.333 0 -48 -1.66699 -68 -5s-38.833 -8.66602 -56.5 -15.999
s-34.334 -16.5 -50.001 -27.5s-31.834 -23.833 -48.501 -38.5c-11.333 -10 -22.333 -16.833 -33 -20.5s-20 -5.5 -28 -5.5s-16 1.5 -24 4.5s-14.667 7.5 -20 13.5c-5.33301 6.66699 -9.66602 13.334 -12.999 20.001s-5 15.334 -5 26.001c0 18 8.33301 36 25 54
s39.667 36.667 69 56c36 22.667 74 39 114 49s86.333 15 139 15c128 0 224.333 -27.833 289 -83.5s97 -137.5 97 -245.5v-577c0 -17.333 -0.833008 -30.5 -2.5 -39.5s-5.16699 -18.167 -10.5 -27.5s-13.333 -16.833 -24 -22.5s-22.667 -8.5 -36 -8.5
s-25.333 2.83301 -36 8.5s-18.667 13.167 -24 22.5s-8.83301 18.5 -10.5 27.5s-2.5 22.167 -2.5 39.5v2c-20 -19.333 -40 -35.666 -60 -48.999s-41.167 -24 -63.5 -32s-46.333 -13.833 -72 -17.5s-54.5 -5.5 -86.5 -5.5c-68 0 -124 7.16699 -168 21.5
s-81.333 37.166 -112 68.499c-23.333 24.667 -41.666 54.334 -54.999 89.001s-20 72 -20 112zM242.001 279.996c0 -112.667 75.6699 -169 227.003 -169c20.667 0 40.667 0.666992 60 2s38.166 4.33301 56.499 9s35.833 11.5 52.5 20.5s32.667 20.833 48 35.5
c17.333 16.667 30.166 38.834 38.499 66.501s12.5 62.5 12.5 104.5v105h-282c-70.667 0 -123.834 -14.833 -159.501 -44.5s-53.5 -72.834 -53.5 -129.501z" />
    <glyph glyph-name="b" unicode="b" horiz-adv-x="1095" 
d="M967 492c0 -39.333 -1.66602 -78.666 -4.99902 -117.999s-9.5 -77 -18.5 -113s-21.5 -70 -37.5 -102s-36.333 -60.333 -61 -85c-26 -26 -59.667 -46.833 -101 -62.5s-87.666 -23.5 -138.999 -23.5c-27.333 0 -53.333 1.83301 -78 5.5s-48.5 10.5 -71.5 20.5
s-45 23.333 -66 40s-41.833 38 -62.5 64v-28c0 -17.333 -0.833008 -30.5 -2.5 -39.5s-5.16699 -18.167 -10.5 -27.5s-13.333 -16.833 -24 -22.5s-22.667 -8.5 -36 -8.5s-25.333 2.83301 -36 8.5s-18.667 13.167 -24 22.5s-8.83301 18.5 -10.5 27.5s-2.5 22.167 -2.5 39.5
v1244c0 17.333 0.833008 30.5 2.5 39.5s5.16699 18.167 10.5 27.5s13.333 16.833 24 22.5s22.667 8.5 36 8.5s25.333 -2.83301 36 -8.5s18.667 -13.167 24 -22.5s8.83301 -18.5 10.5 -27.5s2.5 -22.167 2.5 -39.5v-464c20.667 25.333 41.667 46.166 63 62.499
s43.5 29.166 66.5 38.499s46.667 15.833 71 19.5s50.166 5.5 77.499 5.5c51.333 0 97.666 -7.83301 138.999 -23.5s75 -36.5 101 -62.5c24.667 -25.333 45 -53.833 61 -85.5s28.5 -65.5 37.5 -101.5s15.167 -73.667 18.5 -113s5 -78.666 5 -117.999zM821.001 492
c0 48 -2.83301 94.5 -8.5 139.5s-17.167 84.833 -34.5 119.5s-42.166 62.5 -74.499 83.5s-75.5 31.5 -129.5 31.5s-97.167 -10.5 -129.5 -31.5s-57.166 -48.833 -74.499 -83.5s-28.833 -74.5 -34.5 -119.5s-8.5 -91.5 -8.5 -139.5s2.83301 -94.5 8.5 -139.5
s17.167 -84.833 34.5 -119.5s42.166 -62.5 74.499 -83.5s75.5 -31.5 129.5 -31.5s97.167 10.5 129.5 31.5s57.166 48.833 74.499 83.5s28.833 74.5 34.5 119.5s8.5 91.5 8.5 139.5z" />
    <glyph glyph-name="c" unicode="c" horiz-adv-x="978" 
d="M126 492c0 84 10.8311 157.502 32.498 220.502s51.834 115.5 90.501 157.5s84.667 73.5 138 94.5s111.333 31.5 174 31.5c50 0 93.667 -6.5 131 -19.5s73.666 -33.5 108.999 -61.5c23.333 -18.667 40.833 -34.334 52.5 -47.001s17.5 -28 17.5 -46
c0 -17.333 -7 -33 -21 -47c-13.333 -12 -28.333 -18 -45 -18c-11.333 0 -21.666 3 -30.999 9s-22.333 15.667 -39 29c-16 13.333 -31.167 24.5 -45.5 33.5s-28.166 16.333 -41.499 22s-27.166 9.66699 -41.499 12s-29.5 3.5 -45.5 3.5c-48 0 -91 -9 -129 -27
s-70 -45.333 -96 -82c-11.333 -16 -21.166 -33 -29.499 -51s-15 -37.667 -20 -59s-8.66699 -44.666 -11 -69.999s-3.5 -53.666 -3.5 -84.999s1.16699 -59.5 3.5 -84.5s6 -48.167 11 -69.5s11.667 -41 20 -59s18.166 -35 29.499 -51c26 -36.667 58 -64.167 96 -82.5
s81 -27.5 129 -27.5c16 0 31.167 1.16699 45.5 3.5s28.5 6.16602 42.5 11.499s28 12.666 42 21.999s28.667 20.666 44 33.999c12 10.667 23.833 19.667 35.5 27s23.167 11 34.5 11c16.667 0 31.667 -6 45 -18c14 -14 21 -29.667 21 -47c0 -18 -6.33301 -34.167 -19 -48.5
s-29.667 -29.5 -51 -45.5c-34 -26.667 -70 -46.667 -108 -60s-82 -20 -132 -20c-62.667 0 -120.667 10.5 -174 31.5s-99.333 52.5 -138 94.5s-68.834 94.5 -90.501 157.5s-32.5 136.5 -32.5 220.5z" />
    <glyph glyph-name="d" unicode="d" horiz-adv-x="1095" 
d="M128 492c0 39.333 1.66602 78.666 4.99902 117.999s9.5 77 18.5 113s21.333 69.833 37 101.5s36.167 60.167 61.5 85.5c26 26 59.667 46.833 101 62.5s87.666 23.5 138.999 23.5c26.667 0 52.334 -1.83301 77.001 -5.5s48.5 -10.167 71.5 -19.5
s45.167 -22.166 66.5 -38.499s42.333 -37.166 63 -62.499v464c0 17.333 0.833008 30.5 2.5 39.5s5.16699 18.167 10.5 27.5s13.333 16.833 24 22.5s22.667 8.5 36 8.5s25.333 -2.83301 36 -8.5s18.667 -13.167 24 -22.5s8.83301 -18.5 10.5 -27.5s2.5 -22.167 2.5 -39.5
v-1244c0 -17.333 -0.833008 -30.5 -2.5 -39.5s-5.16699 -18.167 -10.5 -27.5s-13.333 -16.833 -24 -22.5s-22.667 -8.5 -36 -8.5s-25.333 2.83301 -36 8.5s-18.667 13.167 -24 22.5s-8.83301 18.5 -10.5 27.5s-2.5 22.167 -2.5 39.5v28c-20.667 -26 -41.5 -47.333 -62.5 -64
s-43 -30 -66 -40s-46.833 -16.833 -71.5 -20.5s-50.667 -5.5 -78 -5.5c-51.333 0 -97.666 7.83301 -138.999 23.5s-75 36.5 -101 62.5c-25.333 24.667 -45.833 53 -61.5 85s-28 66 -37 102s-15.167 73.667 -18.5 113s-5 78.666 -5 117.999zM273.999 492
c0 -48 2.83301 -94.5 8.5 -139.5s17.167 -84.833 34.5 -119.5s42.166 -62.5 74.499 -83.5s75.5 -31.5 129.5 -31.5s97.167 10.5 129.5 31.5s57.166 48.833 74.499 83.5s28.833 74.5 34.5 119.5s8.5 91.5 8.5 139.5s-2.83301 94.5 -8.5 139.5s-17.167 84.833 -34.5 119.5
s-42.166 62.5 -74.499 83.5s-75.5 31.5 -129.5 31.5s-97.167 -10.5 -129.5 -31.5s-57.166 -48.833 -74.499 -83.5s-28.833 -74.5 -34.5 -119.5s-8.5 -91.5 -8.5 -139.5z" />
    <glyph glyph-name="e" unicode="e" horiz-adv-x="1058" 
d="M271 455c0 -108 24.8301 -191.834 74.4971 -251.501s122.167 -89.5 217.5 -89.5c38 0 75.167 5.5 111.5 16.5s69.5 29.167 99.5 54.5c15.333 13.333 27.666 22.5 36.999 27.5s19.666 7.5 30.999 7.5c8 0 15.667 -1.66699 23 -5s13.833 -8 19.5 -14
s10.334 -12.833 14.001 -20.5s5.5 -15.5 5.5 -23.5c0 -11.333 -3.5 -22.333 -10.5 -33s-15.667 -20.834 -26 -30.501s-21.333 -18.667 -33 -27s-22.5 -15.5 -32.5 -21.5c-30 -17.333 -65.667 -31.166 -107 -41.499s-87.333 -15.5 -138 -15.5c-65.333 0 -124.5 10 -177.5 30
s-98.333 50.5 -136 91.5s-66.667 93.167 -87 156.5s-30.5 138.666 -30.5 225.999c0 81.333 9.5 153.333 28.5 216s46.167 115.334 81.5 158.001s78 75 128 97s106 33 168 33c62.667 0 118.834 -10.833 168.501 -32.5s91.834 -52.5 126.501 -92.5s61.334 -88 80.001 -144
s28.334 -118.333 29.001 -187c0 -10 -1 -21.167 -3 -33.5s-7.66699 -23.166 -17 -32.499s-19.5 -14.833 -30.5 -16.5s-22.167 -2.5 -33.5 -2.5h-581zM792.997 564.999c-0.666992 17.333 -1.66895 33.002 -3.00195 47.002s-3.16602 27 -5.49902 39s-5.33301 24 -9 36
s-8.16699 24.667 -13.5 38c-18.667 45.333 -48.167 81.166 -88.5 107.499s-87.5 39.5 -141.5 39.5s-101.333 -13.333 -142 -40s-70 -62.334 -88 -107.001c-5.33301 -13.333 -9.83301 -26 -13.5 -38s-6.66699 -24 -9 -36s-4.16602 -25 -5.49902 -39s-2.33301 -29.667 -3 -47
h522z" />
    <glyph glyph-name="f" unicode="f" horiz-adv-x="633" 
d="M507 984c13.333 0 24 -0.666992 32 -2s15 -4 21 -8c16 -9.33301 24 -24.666 24 -45.999s-8 -36.666 -24 -45.999c-6 -4 -13 -6.66699 -21 -8s-18.667 -2 -32 -2h-145v-782c0 -17.333 -0.833008 -30.5 -2.5 -39.5s-5.16699 -18.167 -10.5 -27.5s-13.333 -16.833 -24 -22.5
s-22.667 -8.5 -36 -8.5s-25.333 2.83301 -36 8.5s-18.667 13.167 -24 22.5s-8.83301 18.5 -10.5 27.5s-2.5 22.167 -2.5 39.5v782h-69c-13.333 0 -24 0.666992 -32 2s-15 4 -21 8c-16 9.33301 -24 24.666 -24 45.999s8 36.666 24 45.999c6 4 13 6.66699 21 8s18.667 2 32 2
h69v180c0 36.667 5.16699 71 15.5 103s26 60 47 84s47 42.833 78 56.5s67.5 20.5 109.5 20.5h26c16.667 0 30 -1 40 -3s18.333 -5 25 -9c18 -11.333 27 -28.333 27 -51s-9 -39.667 -27 -51c-6.66699 -4 -15 -7 -25 -9s-23.333 -3 -40 -3c-44.667 0 -77.5 -12.5 -98.5 -37.5
s-31.5 -60.167 -31.5 -105.5v-175h145z" />
    <glyph glyph-name="g" unicode="g" horiz-adv-x="1093" 
d="M493 -325c47.333 0 88.167 7.83203 122.5 23.499s62.666 37.167 84.999 64.5s38.833 59.166 49.5 95.499s16 75.5 16 117.5v157c-19.333 -26 -39.833 -47.333 -61.5 -64s-44 -30 -67 -40s-47 -17 -72 -21s-50.833 -6 -77.5 -6c-50.667 0 -96.834 8.16699 -138.501 24.5
s-75.5 37.5 -101.5 63.5c-24.667 24.667 -44.667 52.334 -60 83.001s-27.5 63.5 -36.5 98.5s-15.167 71.833 -18.5 110.5s-5 78 -5 118s1.66699 79.333 5 118s9.5 75.5 18.5 110.5s21.167 67.833 36.5 98.5s35.333 58.334 60 83.001c26 26 60.167 46.833 102.5 62.5
s88.833 23.5 139.5 23.5c26.667 0 52.334 -1.83301 77.001 -5.5s48.5 -10.167 71.5 -19.5s45 -22.333 66 -39s41.5 -38 61.5 -64v26c0 17.333 0.833008 30.5 2.5 39.5s5.16699 18.167 10.5 27.5s13.333 16.833 24 22.5s22.667 8.5 36 8.5s25.333 -2.83301 36 -8.5
s18.667 -13.167 24 -22.5s8.83301 -18.5 10.5 -27.5s2.5 -22.167 2.5 -39.5v-923c0 -61.333 -9.5 -117.666 -28.5 -168.999s-46.333 -95.833 -82 -133.5s-79.167 -67 -130.5 -88s-109.666 -31.5 -174.999 -31.5c-46.667 0 -87 3.66699 -121 11s-66.667 19.666 -98 36.999
c-9.33301 4.66699 -19.833 11 -31.5 19s-23 16.667 -34 26s-20.167 19.333 -27.5 30s-11 21.667 -11 33c0 10 1.83301 19.167 5.5 27.5s8.5 15.333 14.5 21s12.667 10 20 13s14.333 4.5 21 4.5c10 0 20.167 -2.66699 30.5 -8s24.5 -15 42.5 -29c28 -22 57 -37.333 87 -46
s63 -13 99 -13zM764.001 499.999c0 45.333 -2.66699 90.001 -8 134.001s-16.5 83.167 -33.5 117.5s-41.667 62 -74 83s-75.166 31.5 -128.499 31.5s-96.166 -10.5 -128.499 -31.5s-57.166 -48.833 -74.499 -83.5s-28.833 -73.834 -34.5 -117.501s-8.5 -88.5 -8.5 -134.5
s2.83301 -90.833 8.5 -134.5s17.167 -82.5 34.5 -116.5s42.166 -61.5 74.499 -82.5s75.166 -31.5 128.499 -31.5s96.166 10.5 128.499 31.5s57 48.667 74 83s28.167 73.333 33.5 117s8 88.5 8 134.5z" />
    <glyph glyph-name="h" unicode="h" horiz-adv-x="1129" 
d="M327 90c0 -17.333 -0.833008 -30.5029 -2.5 -39.5029s-5.16699 -18.167 -10.5 -27.5s-13.333 -16.833 -24 -22.5s-22.667 -8.5 -36 -8.5s-25.333 2.83301 -36 8.5s-18.667 13.167 -24 22.5s-8.83301 18.5 -10.5 27.5s-2.5 22.167 -2.5 39.5v1244
c0 17.333 0.833008 30.5 2.5 39.5s5.16699 18.167 10.5 27.5s13.333 16.833 24 22.5s22.667 8.5 36 8.5s25.333 -2.83301 36 -8.5s18.667 -13.167 24 -22.5s8.83301 -18.5 10.5 -27.5s2.5 -22.167 2.5 -39.5v-458c72 80 164 120 276 120c56 0 106.167 -8.5 150.5 -25.5
s81.666 -41.333 111.999 -73s53.5 -70 69.5 -115s24 -95.167 24 -150.5v-542c0 -17.333 -0.833008 -30.5 -2.5 -39.5s-5.16699 -18.167 -10.5 -27.5s-13.333 -16.833 -24 -22.5s-22.667 -8.5 -36 -8.5s-25.333 2.83301 -36 8.5s-18.667 13.167 -24 22.5
s-8.83301 18.5 -10.5 27.5s-2.5 22.167 -2.5 39.5v518c0 86.667 -21.333 151.334 -64 194.001s-101.334 64 -176.001 64c-37.333 0 -71.166 -5.33301 -101.499 -16s-56.166 -26.667 -77.499 -48s-37.833 -48.166 -49.5 -80.499s-17.5 -70.166 -17.5 -113.499v-518z" />
    <glyph glyph-name="i" unicode="i" horiz-adv-x="518" 
d="M332 90c0 -17.333 -0.833008 -30.5 -2.5 -39.5s-5.16699 -18.167 -10.5 -27.5s-13.333 -16.833 -24 -22.5s-22.667 -8.5 -36 -8.5s-25.333 2.83301 -36 8.5s-18.667 13.167 -24 22.5s-8.83301 18.5 -10.5 27.5s-2.5 22.167 -2.5 39.5v804
c0 17.333 0.833008 30.5 2.5 39.5s5.16699 18.167 10.5 27.5s13.333 16.833 24 22.5s22.667 8.5 36 8.5s25.333 -2.83301 36 -8.5s18.667 -13.167 24 -22.5s8.83301 -18.5 10.5 -27.5s2.5 -22.167 2.5 -39.5v-804zM160 1353c0 28 9.5 51.5 28.5 70.5s42.5 28.5 70.5 28.5
s51.5 -9.5 70.5 -28.5s28.5 -42.5 28.5 -70.5s-9.5 -51.5 -28.5 -70.5s-42.5 -28.5 -70.5 -28.5s-51.5 9.5 -70.5 28.5s-28.5 42.5 -28.5 70.5z" />
    <glyph glyph-name="j" unicode="j" horiz-adv-x="518" 
d="M160 1353c0 28 9.5 51.5 28.5 70.5s42.5 28.5 70.5 28.5s51.5 -9.5 70.5 -28.5s28.5 -42.5 28.5 -70.5s-9.5 -51.5 -28.5 -70.5s-42.5 -28.5 -70.5 -28.5s-51.5 9.5 -70.5 28.5s-28.5 42.5 -28.5 70.5zM186 894c0 17.333 0.833008 30.5 2.5 39.5
s5.16699 18.167 10.5 27.5s13.333 16.833 24 22.5s22.667 8.5 36 8.5s25.333 -2.83301 36 -8.5s18.667 -13.167 24 -22.5s8.83301 -18.5 10.5 -27.5s2.5 -22.167 2.5 -39.5v-1071c0 -36.667 -5.16699 -71 -15.5 -103s-26 -60 -47 -84s-47 -42.833 -78 -56.5
s-67.5 -20.5 -109.5 -20.5h-26c-16.667 0 -30 1 -40 3s-18.333 5 -25 9c-18 11.333 -27 28.333 -27 51s9 39.667 27 51c6.66699 4 15 7 25 9s23.333 3 40 3c44.667 0 77.5 12.5 98.5 37.5s31.5 60.167 31.5 105.5v1066z" />
    <glyph glyph-name="k" unicode="k" horiz-adv-x="1028" 
d="M949 61c0 -24.667 -11.333 -44.001 -34 -58.001c-12 -7.33301 -24.667 -11 -38 -11c-15.333 0 -28.333 4.5 -39 13.5s-22 23.167 -34 42.5l-286 453l-191 -217v-194c0 -17.333 -0.833008 -30.5 -2.5 -39.5s-5.16699 -18.167 -10.5 -27.5s-13.333 -16.833 -24 -22.5
s-22.667 -8.5 -36 -8.5s-25.333 2.83301 -36 8.5s-18.667 13.167 -24 22.5s-8.83301 18.5 -10.5 27.5s-2.5 22.167 -2.5 39.5v1244c0 17.333 0.833008 30.5 2.5 39.5s5.16699 18.167 10.5 27.5s13.333 16.833 24 22.5s22.667 8.5 36 8.5s25.333 -2.83301 36 -8.5
s18.667 -13.167 24 -22.5s8.83301 -18.5 10.5 -27.5s2.5 -22.167 2.5 -39.5v-861l421 480c14 16 25.833 27.167 35.5 33.5s20.834 9.5 33.501 9.5c15.333 0 29.333 -5.33301 42 -16c7.33301 -6.66699 13.166 -13.834 17.499 -21.501s6.5 -16.5 6.5 -26.5
c0 -9.33301 -2.33301 -18.833 -7 -28.5s-14 -22.5 -28 -38.5l-229 -261l305 -481c8.66699 -13.333 15 -24.666 19 -33.999s6 -18.666 6 -27.999z" />
    <glyph glyph-name="l" unicode="l" horiz-adv-x="590" 
d="M322 269c0 -45.333 10.5 -80.5 31.5 -105.5s53.833 -37.5 98.5 -37.5c16.667 0 30 -1 40 -3s18.333 -5 25 -9c18 -11.333 27 -28.333 27 -51s-9 -39.667 -27 -51c-6.66699 -4 -15 -7 -25 -9s-23.333 -3 -40 -3h-26c-42 -0 -78.5 6.83301 -109.5 20.5s-57 32.5 -78 56.5
s-36.667 52 -47 84s-15.5 66.333 -15.5 103v1070c0 17.333 0.833008 30.5 2.5 39.5s5.16699 18.167 10.5 27.5s13.333 16.833 24 22.5s22.667 8.5 36 8.5s25.333 -2.83301 36 -8.5s18.667 -13.167 24 -22.5s8.83301 -18.5 10.5 -27.5s2.5 -22.167 2.5 -39.5v-1065z" />
    <glyph glyph-name="m" unicode="m" horiz-adv-x="1763" 
d="M814 606c0 86.667 -21.6641 151.667 -64.9971 195s-102 65 -176 65c-37.333 0 -71 -5.5 -101 -16.5s-55.833 -27.5 -77.5 -49.5s-38.334 -49.167 -50.001 -81.5s-17.5 -69.833 -17.5 -112.5v-516c0 -17.333 -0.833008 -30.5 -2.5 -39.5s-5.16699 -18.167 -10.5 -27.5
s-13.333 -16.833 -24 -22.5s-22.667 -8.5 -36 -8.5s-25.333 2.83301 -36 8.5s-18.667 13.167 -24 22.5s-8.83301 18.5 -10.5 27.5s-2.5 22.167 -2.5 39.5v804c0 17.333 0.833008 30.5 2.5 39.5s5.16699 18.167 10.5 27.5s13.333 16.833 24 22.5s22.667 8.5 36 8.5
s25.333 -2.83301 36 -8.5s18.667 -13.167 24 -22.5s8.83301 -18.5 10.5 -27.5s2.5 -22.167 2.5 -39.5v-18c35.333 40 76.666 70 123.999 90s98.666 30 153.999 30c68.667 0 128.667 -13.833 180 -41.5s92 -68.5 122 -122.5c76.667 109.333 184.667 164 324 164
c53.333 0 101.5 -8 144.5 -24s79.5 -38.667 109.5 -68c72 -68.667 108 -160 108 -274v-540c0 -17.333 -0.833008 -30.5 -2.5 -39.5s-5.16699 -18.167 -10.5 -27.5s-13.333 -16.833 -24 -22.5s-22.667 -8.5 -36 -8.5s-25.333 2.83301 -36 8.5s-18.667 13.167 -24 22.5
s-8.83301 18.5 -10.5 27.5s-2.5 22.167 -2.5 39.5v516c0 86.667 -21.833 151.667 -65.5 195s-102.5 65 -176.5 65c-36 0 -69 -5.5 -99 -16.5s-55.833 -26.833 -77.5 -47.5s-38.5 -46.167 -50.5 -76.5s-18 -64.833 -18 -103.5v-532c0 -17.333 -0.833008 -30.5 -2.5 -39.5
s-5.16699 -18.167 -10.5 -27.5s-13.333 -16.833 -24 -22.5s-22.667 -8.5 -36 -8.5s-25.333 2.83301 -36 8.5s-18.667 13.167 -24 22.5s-8.83301 18.5 -10.5 27.5s-2.5 22.167 -2.5 39.5v516z" />
    <glyph glyph-name="n" unicode="n" horiz-adv-x="1130" 
d="M960 90c0 -18 -0.835938 -31.5 -2.50293 -40.5s-5.16699 -17.833 -10.5 -26.5c-5.33301 -9.33301 -13.333 -16.833 -24 -22.5s-22.667 -8.5 -36 -8.5s-25.333 2.83301 -36 8.5s-18.667 13.167 -24 22.5c-5.33301 8.66699 -8.83301 17.5 -10.5 26.5s-2.5 22.5 -2.5 40.5
v514c0 88 -21.333 153.667 -64 197s-101.667 65 -177 65c-37.333 0 -71.166 -5.5 -101.499 -16.5s-56.166 -27.5 -77.499 -49.5s-37.833 -49.333 -49.5 -82s-17.5 -70.667 -17.5 -114v-514c0 -18 -0.833008 -31.5 -2.5 -40.5s-5.16699 -17.833 -10.5 -26.5
c-5.33301 -9.33301 -13.333 -16.833 -24 -22.5s-22.667 -8.5 -36 -8.5s-25.333 2.83301 -36 8.5s-18.667 13.167 -24 22.5c-5.33301 8.66699 -8.83301 17.5 -10.5 26.5s-2.5 22.5 -2.5 40.5v804c0 17.333 0.833008 30.5 2.5 39.5s5.16699 18.167 10.5 27.5
s13.333 16.833 24 22.5s22.667 8.5 36 8.5s25.333 -2.83301 36 -8.5s18.667 -13.167 24 -22.5s8.83301 -18.5 10.5 -27.5s2.5 -22.167 2.5 -39.5v-18c36 40 77.333 70 124 90s97.334 30 152.001 30c54 0 102.333 -7.83301 145 -23.5s79.334 -38.5 110.001 -68.5
c35.333 -34 61.166 -74 77.499 -120s24.5 -97.667 24.5 -155v-539z" />
    <glyph glyph-name="o" unicode="o" horiz-adv-x="1064" 
d="M532 118c71.333 0 130.668 23.667 178.001 71c17.333 17.333 31.166 37.5 41.499 60.5s18.333 47.667 24 74s9.5 53.833 11.5 82.5s3 57.334 3 86.001s-1 57.167 -3 85.5s-5.83301 55.666 -11.5 81.999s-13.667 51 -24 74s-24.166 43.167 -41.499 60.5
c-24 24 -50.5 42 -79.5 54s-61.833 18 -98.5 18s-69.5 -6 -98.5 -18s-55.5 -30 -79.5 -54c-17.333 -17.333 -31.166 -37.5 -41.499 -60.5s-18.333 -47.667 -24 -74s-9.5 -53.666 -11.5 -81.999s-3 -56.833 -3 -85.5s1 -57.334 3 -86.001s5.83301 -56.167 11.5 -82.5
s13.667 -51 24 -74s24.166 -43.167 41.499 -60.5c47.333 -47.333 106.666 -71 177.999 -71zM532.002 996c60.667 0 114.5 -10.167 161.5 -30.5s87.5 -47.5 121.5 -81.5c25.333 -26 46 -54 62 -84s28.333 -61.5 37 -94.5s14.5 -67.333 17.5 -103s4.5 -72.5 4.5 -110.5
s-1.5 -74.833 -4.5 -110.5s-8.83301 -70 -17.5 -103s-21 -64.5 -37 -94.5s-36.667 -58 -62 -84c-34 -34 -74.5 -61.167 -121.5 -81.5s-100.833 -30.5 -161.5 -30.5s-114.5 10.167 -161.5 30.5s-87.5 47.5 -121.5 81.5c-25.333 26 -46 54 -62 84s-28.333 61.5 -37 94.5
s-14.5 67.333 -17.5 103s-4.5 72.5 -4.5 110.5s1.5 74.833 4.5 110.5s8.83301 70 17.5 103s21 64.5 37 94.5s36.667 58 62 84c34 34 74.5 61.167 121.5 81.5s100.833 30.5 161.5 30.5z" />
    <glyph glyph-name="p" unicode="p" horiz-adv-x="1095" 
d="M967 492c0 -39.333 -1.66797 -78.666 -5.00098 -117.999s-9.5 -77 -18.5 -113s-21.5 -70 -37.5 -102s-36.333 -60.333 -61 -85c-26 -26 -59.667 -46.833 -101 -62.5s-87.666 -23.5 -138.999 -23.5c-27.333 0 -53.166 1.83301 -77.499 5.5s-48 10.167 -71 19.5
s-45.167 22.166 -66.5 38.499s-42.333 37.166 -63 62.499v-464c0 -17.333 -0.833008 -30.5 -2.5 -39.5s-5.16699 -18.167 -10.5 -27.5s-13.333 -16.833 -24 -22.5s-22.667 -8.5 -36 -8.5s-25.333 2.83301 -36 8.5s-18.667 13.167 -24 22.5s-8.83301 18.5 -10.5 27.5
s-2.5 22.167 -2.5 39.5v1244c0 17.333 0.833008 30.5 2.5 39.5s5.16699 18.167 10.5 27.5s13.333 16.833 24 22.5s22.667 8.5 36 8.5s25.333 -2.83301 36 -8.5s18.667 -13.167 24 -22.5s8.83301 -18.5 10.5 -27.5s2.5 -22.167 2.5 -39.5v-28c20.667 26 41.5 47.333 62.5 64
s43 30 66 40s46.833 16.833 71.5 20.5s50.667 5.5 78 5.5c51.333 0 97.666 -7.83301 138.999 -23.5s75 -36.5 101 -62.5c24.667 -25.333 45 -53.833 61 -85.5s28.5 -65.5 37.5 -101.5s15.167 -73.667 18.5 -113s5 -78.666 5 -117.999zM326.999 492
c0 -48 2.83301 -94.5 8.5 -139.5s17.167 -84.833 34.5 -119.5s42.166 -62.5 74.499 -83.5s75.5 -31.5 129.5 -31.5s97.167 10.5 129.5 31.5s57.166 48.833 74.499 83.5s28.833 74.5 34.5 119.5s8.5 91.5 8.5 139.5s-2.83301 94.5 -8.5 139.5s-17.167 84.833 -34.5 119.5
s-42.166 62.5 -74.499 83.5s-75.5 31.5 -129.5 31.5s-97.167 -10.5 -129.5 -31.5s-57.166 -48.833 -74.499 -83.5s-28.833 -74.5 -34.5 -119.5s-8.5 -91.5 -8.5 -139.5z" />
    <glyph glyph-name="q" unicode="q" horiz-adv-x="1095" 
d="M128 492c0 39.333 1.66797 78.666 5.00098 117.999s9.5 77 18.5 113s21.333 69.833 37 101.5s36.167 60.167 61.5 85.5c26 26 59.667 46.833 101 62.5s87.666 23.5 138.999 23.5c27.333 0 53.333 -1.83301 78 -5.5s48.5 -10.5 71.5 -20.5s45 -23.333 66 -40
s41.833 -38 62.5 -64v28c0 17.333 0.833008 30.5 2.5 39.5s5.16699 18.167 10.5 27.5s13.333 16.833 24 22.5s22.667 8.5 36 8.5s25.333 -2.83301 36 -8.5s18.667 -13.167 24 -22.5s8.83301 -18.5 10.5 -27.5s2.5 -22.167 2.5 -39.5v-1244
c0 -17.333 -0.833008 -30.5 -2.5 -39.5s-5.16699 -18.167 -10.5 -27.5s-13.333 -16.833 -24 -22.5s-22.667 -8.5 -36 -8.5s-25.333 2.83301 -36 8.5s-18.667 13.167 -24 22.5s-8.83301 18.5 -10.5 27.5s-2.5 22.167 -2.5 39.5v464
c-20.667 -25.333 -41.667 -46.166 -63 -62.499s-43.5 -29.166 -66.5 -38.499s-46.833 -15.833 -71.5 -19.5s-50.334 -5.5 -77.001 -5.5c-51.333 0 -97.666 7.83301 -138.999 23.5s-75 36.5 -101 62.5c-25.333 24.667 -45.833 53 -61.5 85s-28 66 -37 102
s-15.167 73.667 -18.5 113s-5 78.666 -5 117.999zM274.001 492c0 -48 2.83301 -94.5 8.5 -139.5s17.167 -84.833 34.5 -119.5s42.166 -62.5 74.499 -83.5s75.5 -31.5 129.5 -31.5s97.167 10.5 129.5 31.5s57.166 48.833 74.499 83.5s28.833 74.5 34.5 119.5
s8.5 91.5 8.5 139.5s-2.83301 94.5 -8.5 139.5s-17.167 84.833 -34.5 119.5s-42.166 62.5 -74.499 83.5s-75.5 31.5 -129.5 31.5s-97.167 -10.5 -129.5 -31.5s-57.166 -48.833 -74.499 -83.5s-28.833 -74.5 -34.5 -119.5s-8.5 -91.5 -8.5 -139.5z" />
    <glyph glyph-name="r" unicode="r" horiz-adv-x="844" 
d="M327 866c14 20 30.668 37.9971 50.001 53.9971s40.833 29.667 64.5 41s48.5 20 74.5 26s52.667 9 80 9c35.333 0 67 -3.66699 95 -11s55.333 -19.333 82 -36c15.333 -9.33301 28.333 -20 39 -32s16 -26 16 -42c0 -9.33301 -2 -18.666 -6 -27.999s-9 -17 -15 -23
c-14 -14 -30.667 -21 -50 -21c-8.66699 0 -17.834 2 -27.501 6s-23.5 11.333 -41.5 22c-18.667 11.333 -38.167 20 -58.5 26s-41.833 9 -64.5 9c-36.667 0 -69.667 -6.66699 -99 -20s-54.333 -31.666 -75 -54.999s-36.5 -51.166 -47.5 -83.499s-16.5 -67.833 -16.5 -106.5
v-511c0 -17.333 -0.833008 -30.5 -2.5 -39.5s-5.16699 -18.167 -10.5 -27.5s-13.333 -16.833 -24 -22.5s-22.667 -8.5 -36 -8.5s-25.333 2.83301 -36 8.5s-18.667 13.167 -24 22.5s-8.83301 18.5 -10.5 27.5s-2.5 22.167 -2.5 39.5v805c0 17.333 0.833008 30.5 2.5 39.5
s5.16699 18.167 10.5 27.5s13.333 16.833 24 22.5s22.667 8.5 36 8.5s25.333 -2.83301 36 -8.5s18.667 -13.167 24 -22.5s8.83301 -18.5 10.5 -27.5s2.5 -22.167 2.5 -39.5v-29z" />
    <glyph glyph-name="s" unicode="s" horiz-adv-x="992" 
d="M145 82c-14 9.33301 -25.5029 19.6631 -34.5029 30.9961s-13.5 23.666 -13.5 36.999c0 8.66699 2 17.334 6 26.001s9.66699 16.667 17 24c10.667 10 24.667 15 42 15c18.667 0 40.667 -9.33301 66 -28c36 -25.333 74.5 -44 115.5 -56s88.833 -18 143.5 -18
c84 0 148.667 14.167 194 42.5s68 71.833 68 130.5c0 44 -13.167 77.5 -39.5 100.5s-67.833 37.167 -124.5 42.5l-162 15c-96 8.66699 -169 34.5 -219 77.5s-75 105.167 -75 186.5c0 44.667 9 84.834 27 120.501s43 66 75 91s70.167 44.167 114.5 57.5s92.833 20 145.5 20
c55.333 0 105.333 -5.5 150 -16.5s86.334 -26.167 125.001 -45.5c13.333 -6.66699 23.666 -12.834 30.999 -18.501s13.333 -11.5 18 -17.5c4.66699 -6.66699 7.66699 -12.667 9 -18s2 -11.666 2 -18.999c0 -6 -1.5 -12.667 -4.5 -20s-6.83301 -13.666 -11.5 -18.999
c-13.333 -14 -28.666 -21 -45.999 -21c-8 0 -16.167 1.5 -24.5 4.5s-18.5 7.83301 -30.5 14.5c-32.667 17.333 -67 30.5 -103 39.5s-75 13.5 -117 13.5c-70.667 0 -125 -14 -163 -42s-57 -68 -57 -120c0 -44.667 14 -78.167 42 -100.5s71.667 -36.166 131 -41.499l158 -15
c43.333 -4 82.833 -11.5 118.5 -22.5s66.167 -26.833 91.5 -47.5s45 -47 59 -79s21 -71.333 21 -118c0 -47.333 -9.66699 -89.666 -29 -126.999s-46.666 -68.833 -81.999 -94.5s-77.666 -45.167 -126.999 -58.5s-103.666 -20 -162.999 -20
c-75.333 0 -140.333 7.83301 -195 23.5s-104.334 39.167 -149.001 70.5z" />
    <glyph glyph-name="t" unicode="t" horiz-adv-x="672" 
d="M357 269c0 -45.333 10.5 -80.5 31.5 -105.5s53.833 -37.5 98.5 -37.5c16.667 0 30 -1 40 -3s18.333 -5 25 -9c18 -11.333 27 -28.333 27 -51s-9 -39.667 -27 -51c-6.66699 -4 -15 -7 -25 -9s-23.333 -3 -40 -3h-26c-42 -0 -78.5 6.83301 -109.5 20.5s-57 32.5 -78 56.5
s-36.667 52 -47 84s-15.5 66.333 -15.5 103v608h-69c-13.333 0 -24 0.666992 -32 2s-15 4 -21 8c-16 9.33301 -24 24.666 -24 45.999s8 36.666 24 45.999c6 4 13 6.66699 21 8s18.667 2 32 2h69v211c0 17.333 0.833008 30.5 2.5 39.5s5.16699 18.167 10.5 27.5
s13.333 16.833 24 22.5s22.667 8.5 36 8.5s25.333 -2.83301 36 -8.5s18.667 -13.167 24 -22.5s8.83301 -18.5 10.5 -27.5s2.5 -22.167 2.5 -39.5v-211h145c13.333 0 24 -0.666992 32 -2s15 -4 21 -8c16 -9.33301 24 -24.666 24 -45.999s-8 -36.666 -24 -45.999
c-6 -4 -13 -6.66699 -21 -8s-18.667 -2 -32 -2h-145v-603z" />
    <glyph glyph-name="u" unicode="u" horiz-adv-x="1130" 
d="M170 894c0 18 0.835938 31.5 2.50293 40.5s5.16699 17.833 10.5 26.5c5.33301 9.33301 13.333 16.833 24 22.5s22.667 8.5 36 8.5s25.333 -2.83301 36 -8.5s18.667 -13.167 24 -22.5c5.33301 -8.66699 8.83301 -17.5 10.5 -26.5s2.5 -22.5 2.5 -40.5v-514
c0 -88 21.333 -153.667 64 -197s101.667 -65 177 -65c37.333 0 71.166 5.5 101.499 16.5s56.166 27.5 77.499 49.5s37.833 49.333 49.5 82s17.5 70.667 17.5 114v514c0 18 0.833008 31.5 2.5 40.5s5.16699 17.833 10.5 26.5c5.33301 9.33301 13.333 16.833 24 22.5
s22.667 8.5 36 8.5s25.333 -2.83301 36 -8.5s18.667 -13.167 24 -22.5c5.33301 -8.66699 8.83301 -17.5 10.5 -26.5s2.5 -22.5 2.5 -40.5v-804c0 -17.333 -0.833008 -30.5 -2.5 -39.5s-5.16699 -18.167 -10.5 -27.5s-13.333 -16.833 -24 -22.5s-22.667 -8.5 -36 -8.5
s-25.333 2.83301 -36 8.5s-18.667 13.167 -24 22.5s-8.83301 18.5 -10.5 27.5s-2.5 22.167 -2.5 39.5v18c-36 -40 -77.333 -70 -124 -90s-97.334 -30 -152.001 -30c-54 0 -102.333 7.83301 -145 23.5s-79.334 38.5 -110.001 68.5c-35.333 34 -61.166 74 -77.499 120
s-24.5 97.667 -24.5 155v539z" />
    <glyph glyph-name="v" unicode="v" horiz-adv-x="874" 
d="M532 80c-6 -17.333 -12.002 -31.5 -18.002 -42.5s-13.667 -20.167 -23 -27.5c-15.333 -12 -33.333 -18 -54 -18c-21.333 0 -39.333 6 -54 18c-9.33301 7.33301 -17 16.5 -23 27.5s-12 25.167 -18 42.5l-276 798c-5.33301 15.333 -8.5 28.5 -9.5 39.5
s0.166992 21.5 3.5 31.5c4.66699 12.667 13.334 23 26.001 31s26 12 40 12c21.333 0 37 -6.83301 47 -20.5s18.333 -30.167 25 -49.5l239 -716l239 716c6.66699 19.333 15 35.833 25 49.5s25.667 20.5 47 20.5c14 0 27.333 -4 40 -12s21.334 -18.333 26.001 -31
c3.33301 -10 4.5 -20.5 3.5 -31.5s-4.16699 -24.167 -9.5 -39.5z" />
    <glyph glyph-name="w" unicode="w" horiz-adv-x="1438" 
d="M512 100c-6.66699 -22 -13.3281 -40.167 -19.9951 -54.5s-15 -25.5 -25 -33.5c-15.333 -13.333 -34 -20 -56 -20c-22.667 0 -41.667 6.66699 -57 20c-10 8 -18.333 19.167 -25 33.5s-13.334 32.5 -20.001 54.5l-232 778c-4.66699 16 -7.5 28.833 -8.5 38.5
s-0.166992 19.167 2.5 28.5c4 13.333 12.333 24.5 25 33.5s26.667 13.5 42 13.5c17.333 0 32.666 -6.66699 45.999 -20c5.33301 -5.33301 10 -12.5 14 -21.5s8 -20.5 12 -34.5l205 -716l206 688c6.66699 21.333 13.167 39 19.5 53s14.5 25 24.5 33
c14.667 12.667 32.667 19 54 19s39.333 -6.33301 54 -19c10 -8 18.167 -19 24.5 -33s12.833 -31.667 19.5 -53l206 -688l205 716c4 14 8 25.5 12 34.5s8.66699 16.167 14 21.5c13.333 13.333 28.666 20 45.999 20c15.333 0 29.333 -4.5 42 -13.5s21 -20.167 25 -33.5
c2.66699 -9.33301 3.5 -18.833 2.5 -28.5s-3.83301 -22.5 -8.5 -38.5l-232 -778c-6.66699 -22 -13.334 -40.167 -20.001 -54.5s-15 -25.5 -25 -33.5c-15.333 -13.333 -34.333 -20 -57 -20c-22 0 -40.667 6.66699 -56 20c-10 8 -18.333 19.167 -25 33.5
s-13.334 32.5 -20.001 54.5l-207 679z" />
    <glyph glyph-name="x" unicode="x" horiz-adv-x="880" 
d="M234 48c-11.333 -18.667 -22.501 -32.667 -33.501 -42s-24.167 -14 -39.5 -14c-13.333 0 -26.333 4 -39 12c-22.667 14.667 -34 34 -34 58c0 15.333 8.33301 35.666 25 60.999l235 371l-233 367c-8 13.333 -14.167 24.666 -18.5 33.999s-6.5 18.666 -6.5 27.999
c0 24.667 11.667 44 35 58c12.667 8 25.334 12 38.001 12c16 0 29.333 -4.66699 40 -14s21.667 -23.333 33 -42l204 -334l204 334c11.333 18.667 22.333 32.667 33 42s24 14 40 14c12 0 24.667 -4 38 -12c23.333 -14 35 -33.333 35 -58
c0 -9.33301 -2.16699 -18.666 -6.5 -27.999s-10.5 -20.666 -18.5 -33.999l-234 -367l236 -371c16.667 -25.333 25 -45.666 25 -60.999c0 -24 -11.333 -43.333 -34 -58c-13.333 -8 -26.333 -12 -39 -12c-15.333 0 -28.5 4.66699 -39.5 14s-22.167 23.333 -33.5 42l-206 337z
" />
    <glyph glyph-name="y" unicode="y" horiz-adv-x="873" 
d="M675 922c6.66699 19.333 14.999 35.832 24.999 49.499s25.667 20.5 47 20.5c14 0 27.333 -4 40 -12s21.334 -18.333 26.001 -31c3.33301 -10 4.5 -20.5 3.5 -31.5s-4.16699 -24.167 -9.5 -39.5l-386 -1115c-8 -23.333 -17.833 -45.166 -29.5 -65.499
s-25.167 -37.833 -40.5 -52.5c-25.333 -24.667 -53.333 -42 -84 -52s-63 -15 -97 -15c-32.667 0 -55.334 5 -68.001 15c-7.33301 6 -12.833 12.833 -16.5 20.5s-5.5 17.5 -5.5 29.5c0 22.667 7.66699 39.667 23 51c6 4.66699 13 8.16699 21 10.5s18.667 3.5 32 3.5
c36 0 66 8.5 90 25.5s43.667 48.833 59 95.5l62 186l-301 863c-5.33301 15.333 -8.5 28.5 -9.5 39.5s0.166992 21.5 3.5 31.5c4.66699 12.667 13.334 23 26.001 31s26 12 40 12c21.333 0 37 -6.83301 47 -20.5s18.333 -30.167 25 -49.5l238 -727z" />
    <glyph glyph-name="z" unicode="z" horiz-adv-x="909" 
d="M723 984c14.667 0 27.332 -1.00098 37.999 -3.00098s20.334 -5.66699 29.001 -11c18 -12 27 -29 27 -51c0 -12 -2 -22.833 -6 -32.5s-11.667 -22.5 -23 -38.5l-514 -718h457c16 0 28.333 -0.666992 37 -2s16.667 -4.33301 24 -9c18.667 -12.667 28 -30.667 28 -54
s-9.33301 -41.333 -28 -54c-7.33301 -4.66699 -15.333 -7.66699 -24 -9s-21 -2 -37 -2h-548c-14 0 -26.5 0.833008 -37.5 2.5s-20.5 5.5 -28.5 11.5c-18.667 12.667 -28 30 -28 52c0 11.333 2 21.833 6 31.5s12 22.834 24 39.501l513 717h-428c-16 0 -28.333 0.666992 -37 2
s-16.667 4.33301 -24 9c-18.667 12.667 -28 30.667 -28 54s9.33301 41.333 28 54c7.33301 4.66699 15.333 7.66699 24 9s21 2 37 2h519z" />
    <glyph glyph-name="braceleft" unicode="{" horiz-adv-x="707" 
d="M419 138c0 -36.667 2 -64.4971 6 -83.4971s11.667 -34.167 23 -45.5c9.33301 -9.33301 19.833 -15.666 31.5 -18.999s30.167 -5 55.5 -5c10.667 0 21.167 -1 31.5 -3s19.166 -5 26.499 -9c18.667 -10.667 28 -28.667 28 -54c0 -12.667 -2.66699 -23.667 -8 -33
s-12.666 -16.333 -21.999 -21c-8 -4 -16.833 -6.66699 -26.5 -8s-21.834 -2 -36.501 -2h-20c-38.667 0 -72.334 4.66699 -101.001 14s-53 24 -73 44c-11.333 10.667 -20.666 22.334 -27.999 35.001s-13.5 26.667 -18.5 42s-8.5 32.833 -10.5 52.5s-3 42.5 -3 68.5v380
c0 56 -12 96 -36 120c-9.33301 9.33301 -20.166 17.166 -32.499 23.499s-25.5 10.166 -39.5 11.499c-11.333 1.33301 -22 3.33301 -32 6s-18.333 7.33398 -25 14.001c-11.333 11.333 -17 26.666 -17 45.999s5.66699 34.666 17 45.999c6.66699 6.66699 15 11.334 25 14.001
s20.667 4.66699 32 6c14 1.33301 27.167 5.16602 39.5 11.499s23.166 14.166 32.499 23.499c24 24 36 64 36 120v381c0 26 1 48.833 3 68.5s5.5 37.167 10.5 52.5s11.167 29.166 18.5 41.499s16.666 24.166 27.999 35.499c20 20 44.333 34.667 73 44s62.334 14 101.001 14
h20c14.667 0 26.834 -0.666992 36.501 -2s18.5 -4 26.5 -8c9.33301 -4.66699 16.666 -11.667 21.999 -21s8 -20.333 8 -33c0 -25.333 -9.33301 -43.333 -28 -54c-7.33301 -4 -16.166 -7 -26.499 -9s-20.833 -3 -31.5 -3c-25.333 0 -43.833 -1.66699 -55.5 -5
s-22.167 -9.66602 -31.5 -18.999c-11.333 -11.333 -19 -26.5 -23 -45.5s-6 -46.833 -6 -83.5v-375c0 -28.667 -3 -53.5 -9 -74.5s-14.5 -39.333 -25.5 -55s-24.333 -29.167 -40 -40.5s-32.834 -21.333 -51.501 -30c18.667 -9.33301 35.834 -19.5 51.501 -30.5
s29 -24.333 40 -40s19.5 -34 25.5 -55s9 -45.833 9 -74.5v-374z" />
    <glyph glyph-name="bar" unicode="|" horiz-adv-x="652" 
d="M399 -58c0 -17.333 -0.833008 -30.5 -2.5 -39.5s-5.16699 -18.167 -10.5 -27.5s-13.333 -16.833 -24 -22.5s-22.667 -8.5 -36 -8.5s-25.333 2.83301 -36 8.5s-18.667 13.167 -24 22.5s-8.83301 18.5 -10.5 27.5s-2.5 22.167 -2.5 39.5v1540
c0 17.333 0.833008 30.5 2.5 39.5s5.16699 18.167 10.5 27.5s13.333 16.833 24 22.5s22.667 8.5 36 8.5s25.333 -2.83301 36 -8.5s18.667 -13.167 24 -22.5s8.83301 -18.5 10.5 -27.5s2.5 -22.167 2.5 -39.5v-1540z" />
    <glyph glyph-name="braceright" unicode="}" horiz-adv-x="707" 
d="M288 512c0 28.667 2.99902 53.4971 8.99902 74.4971s14.5 39.333 25.5 55s24.333 29 40 40s32.834 21.167 51.501 30.5c-18.667 8.66699 -35.834 18.667 -51.501 30s-29 24.833 -40 40.5s-19.5 34 -25.5 55s-9 45.833 -9 74.5v375c0 36.667 -2 64.5 -6 83.5
s-11.667 34.167 -23 45.5c-9.33301 9.33301 -19.833 15.666 -31.5 18.999s-30.167 5 -55.5 5c-10.667 0 -21.167 1 -31.5 3s-19.166 5 -26.499 9c-18.667 10.667 -28 28.667 -28 54c0 12.667 2.66699 23.667 8 33s12.666 16.333 21.999 21c8 4 16.833 6.66699 26.5 8
s21.834 2 36.501 2h20c38.667 0 72.334 -4.66699 101.001 -14s53 -24 73 -44c10.667 -11.333 19.834 -23.166 27.501 -35.499s14 -26.166 19 -41.499s8.5 -32.833 10.5 -52.5s3 -42.5 3 -68.5v-381c0 -56 12 -96 36 -120c9.33301 -9.33301 20.166 -17.166 32.499 -23.499
s25.5 -10.166 39.5 -11.499c11.333 -1.33301 22 -3.33301 32 -6s18.333 -7.33398 25 -14.001c11.333 -11.333 17 -26.666 17 -45.999s-5.66699 -34.666 -17 -45.999c-6.66699 -6.66699 -15 -11.334 -25 -14.001s-20.667 -4.66699 -32 -6
c-14 -1.33301 -27.167 -5.16602 -39.5 -11.499s-23.166 -14.166 -32.499 -23.499c-24 -24 -36 -64 -36 -120v-380c0 -26 -1 -48.833 -3 -68.5s-5.5 -37.167 -10.5 -52.5s-11.333 -29.333 -19 -42s-16.834 -24.334 -27.501 -35.001c-38.667 -38.667 -96.667 -58 -174 -58h-20
c-14.667 0 -26.834 0.666992 -36.501 2s-18.5 4 -26.5 8c-9.33301 4.66699 -16.666 11.667 -21.999 21s-8 20.333 -8 33c0 25.333 9.33301 43.333 28 54c7.33301 4 16.166 7 26.499 9s20.833 3 31.5 3c25.333 0 43.833 1.66699 55.5 5s22.167 9.66602 31.5 18.999
c11.333 11.333 19 26.5 23 45.5s6 46.833 6 83.5v374z" />
    <glyph glyph-name="asciitilde" unicode="~" horiz-adv-x="1078" 
d="M167 440c-16.667 0 -30.9971 6.6709 -42.9971 20.0039c-11.333 12 -17 26 -17 42c0 11.333 2.66699 22.333 8 33s15.666 23 30.999 37c18.667 18 36.667 32.833 54 44.5s34.5 21 51.5 28s34 11.833 51 14.5s34.833 4 53.5 4c34.667 0 69.334 -6.5 104.001 -19.5
s70.334 -27.5 107.001 -43.5c28.667 -13.333 55.167 -24.5 79.5 -33.5s49.5 -13.5 75.5 -13.5c25.333 0 47.666 4 66.999 12s41.666 23.667 66.999 47c18 17.333 36 26 54 26c16 0 30.667 -6.66699 44 -20c11.333 -12.667 17 -26.334 17 -41.001
c0 -11.333 -2.83301 -22.333 -8.5 -33s-16.167 -23.334 -31.5 -38.001c-18.667 -18 -36.5 -32.833 -53.5 -44.5s-34 -20.834 -51 -27.501s-34 -11.334 -51 -14.001s-34.833 -4 -53.5 -4c-35.333 0 -70.333 6.33301 -105 19s-70.334 27.334 -107.001 44.001
c-28 12.667 -54.167 23.5 -78.5 32.5s-49.833 13.5 -76.5 13.5c-12.667 0 -24.334 -0.833008 -35.001 -2.5s-21.167 -4.83398 -31.5 -9.50098s-20.833 -10.667 -31.5 -18s-22.334 -17 -35.001 -29c-19.333 -17.333 -37.666 -26 -54.999 -26z" />
    <glyph glyph-name="uni00A0" unicode="&#xa0;" horiz-adv-x="498" 
 />
    <glyph glyph-name="exclamdown" unicode="&#xa1;" horiz-adv-x="629" 
d="M208 487c0 20 0.833008 34.667 2.5 44s5.5 18.666 11.5 27.999s14.5 17 25.5 23s23.5 9 37.5 9s26.5 -3 37.5 -9s19.5 -13.667 25.5 -23s9.83301 -18.666 11.5 -27.999s2.5 -24 2.5 -44v-831c0 -20 -0.833008 -34.667 -2.5 -44s-5.5 -18.666 -11.5 -27.999
s-14.5 -17 -25.5 -23s-23.5 -9 -37.5 -9s-26.5 3 -37.5 9s-19.5 13.667 -25.5 23s-9.83301 18.666 -11.5 27.999s-2.5 24 -2.5 44v831zM185 890c0 14 2.5 27 7.5 39s12 22.5 21 31.5s19.667 16.167 32 21.5s25.5 8 39.5 8s27.167 -2.66699 39.5 -8s23 -12.5 32 -21.5
s16.167 -19.5 21.5 -31.5s8 -25 8 -39s-2.66699 -27.167 -8 -39.5s-12.5 -23 -21.5 -32s-19.667 -16.167 -32 -21.5s-25.5 -8 -39.5 -8s-27.167 2.66699 -39.5 8s-23 12.5 -32 21.5s-16 19.667 -21 32s-7.5 25.5 -7.5 39.5z" />
    <glyph glyph-name="cent" unicode="&#xa2;" horiz-adv-x="978" 
d="M126 734c0 74.667 8.66602 141.17 25.999 199.503s41.666 108.166 72.999 149.499s68.833 74.5 112.5 99.5s91.5 41.5 143.5 49.5v104c0 16 0.666992 28.333 2 37s4.33301 16.667 9 24c12.667 18.667 30.667 28 54 28s41.333 -9.33301 54 -28
c4.66699 -7.33301 7.66699 -15.333 9 -24s2 -21 2 -37v-101c37.333 -3.33301 70.833 -11.333 100.5 -24s59.5 -30.667 89.5 -54c23.333 -18.667 40.833 -34.334 52.5 -47.001s17.5 -28 17.5 -46c0 -17.333 -7 -33 -21 -47c-13.333 -12 -28.333 -18 -45 -18
c-11.333 0 -21.666 3 -30.999 9s-22.333 15.667 -39 29c-24 20 -45.833 35.167 -65.5 45.5s-40.167 17.5 -61.5 21.5v-741c21.333 4 42 11.333 62 22s41.667 26 65 46c12 10.667 23.833 19.667 35.5 27s23.167 11 34.5 11c16.667 0 31.667 -6 45 -18
c14 -14 21 -29.667 21 -47c0 -18 -6.33301 -34.167 -19 -48.5s-29.667 -29.5 -51 -45.5c-28 -22 -57.167 -39.5 -87.5 -52.5s-64.5 -21.5 -102.5 -25.5v-151c0 -16 -0.666992 -28.333 -2 -37s-4.33301 -16.667 -9 -24c-12.667 -18.667 -30.667 -28 -54 -28
s-41.333 9.33301 -54 28c-4.66699 7.33301 -7.66699 15.333 -9 24s-2 21 -2 37v155c-52 8 -99.833 24.5 -143.5 49.5s-81.167 58.167 -112.5 99.5s-55.666 91.166 -72.999 149.499s-26 124.833 -26 199.5zM335.999 470.003c36 -52 85.332 -85.6689 147.999 -101.002v730
c-61.333 -14 -110.666 -47.333 -147.999 -100c-11.333 -16 -21.166 -33 -29.499 -51s-15 -37.667 -20 -59s-8.66699 -44.666 -11 -69.999s-3.5 -53.666 -3.5 -84.999s1.16699 -59.5 3.5 -84.5s6 -48.167 11 -69.5s11.667 -41 20 -59s18.166 -35 29.499 -51z" />
    <glyph glyph-name="sterling" unicode="&#xa3;" horiz-adv-x="1100" 
d="M115 759c6 4 13.0029 6.66797 21.0029 8.00098s18.667 2 32 2h65v223c0 68.667 11 130.334 33 185.001s52.667 101.167 92 139.5s86.166 67.833 140.499 88.5s114.166 31 179.499 31c51.333 0 99.333 -6.16699 144 -18.5s86 -32.833 124 -61.5
c16.667 -12.667 28.667 -24.5 36 -35.5s11 -23.833 11 -38.5c0 -18 -6 -34 -18 -48c-5.33301 -6 -12 -11 -20 -15s-16 -6 -24 -6c-11.333 0 -21.833 2.5 -31.5 7.5s-20.167 11.5 -31.5 19.5c-30 21.333 -59.333 36.833 -88 46.5s-62.667 14.5 -102 14.5
c-93.333 0 -165.166 -28.333 -215.499 -85s-75.5 -138 -75.5 -244v-203h233c13.333 0 24 -0.666992 32 -2s15 -4 21 -8c16 -9.33301 24 -24.666 24 -45.999s-8 -36.666 -24 -45.999c-6 -4 -13 -6.66699 -21 -8s-18.667 -2 -32 -2h-233v-521h531
c19.333 0 33.333 -0.833008 42 -2.5s16.667 -4.83398 24 -9.50098c19.333 -12.667 29 -31.334 29 -56.001s-9.66699 -43.334 -29 -56.001c-7.33301 -4.66699 -15.333 -7.83398 -24 -9.50098s-22.667 -2.5 -42 -2.5h-592c-12 -0 -24.333 0.833008 -37 2.5
s-24.334 7.83398 -35.001 18.501s-16.834 22.334 -18.501 35.001s-2.5 25 -2.5 37v564h-65c-13.333 0 -24 0.666992 -32 2s-15 4 -21 8c-16 9.33301 -24 24.666 -24 45.999s8 36.666 24 45.999z" />
    <glyph glyph-name="currency" unicode="&#xa4;" horiz-adv-x="1321" 
d="M1104 541c0 -50 -7.5 -97 -22.5 -141s-36.167 -84.667 -63.5 -122l100 -98c13.333 -13.333 22.333 -23.666 27 -30.999s8 -15 10 -23c5.33301 -22 -1 -42 -19 -60s-38 -24.333 -60 -19c-8 2 -15.667 5.33301 -23 10s-17.666 13.667 -30.999 27l-99 98
c-36.667 -27.333 -77.334 -48.5 -122.001 -63.5s-91.667 -22.5 -141 -22.5c-50 0 -97.167 7.33301 -141.5 22s-84.833 36 -121.5 64l-98 -98c-13.333 -13.333 -23.666 -22.333 -30.999 -27s-15 -8 -23 -10c-22 -5.33301 -42 1 -60 19s-24.333 38 -19 60
c2 8 5.33301 15.667 10 23s13.667 17.666 27 30.999l98 98c-26.667 37.333 -47.5 78 -62.5 122s-22.5 91 -22.5 141c0 49.333 7.5 96 22.5 140s35.833 84.667 62.5 122l-98 98c-13.333 13.333 -22.333 23.666 -27 30.999s-8 15 -10 23c-5.33301 22 1 42 19 60
s38 24.333 60 19c8 -2 15.667 -5.33301 23 -10s17.666 -13.667 30.999 -27l98 -98c36.667 28 77.167 49.333 121.5 64s91.5 22 141.5 22c49.333 0 96.333 -7.5 141 -22.5s85.334 -36.167 122.001 -63.5l99 98c13.333 13.333 23.666 22.333 30.999 27s15 8 23 10
c22 5.33301 42 -1 60 -19s24.333 -38 19 -60c-2 -8 -5.33301 -15.667 -10 -23s-13.667 -17.666 -27 -30.999l-100 -98c27.333 -37.333 48.5 -78 63.5 -122s22.5 -90.667 22.5 -140zM347 541c0 -43.333 8.16699 -84 24.5 -122s38.5 -71 66.5 -99s60.833 -50.167 98.5 -66.5
s78.167 -24.5 121.5 -24.5c42.667 0 83 8.16699 121 24.5s71.167 38.5 99.5 66.5s50.666 61 66.999 99s24.5 78.667 24.5 122c0 42.667 -8.16699 83 -24.5 121s-38.666 71 -66.999 99s-61.5 50.167 -99.5 66.5s-78.333 24.5 -121 24.5
c-43.333 0 -83.833 -8.16699 -121.5 -24.5s-70.5 -38.5 -98.5 -66.5s-50.167 -61 -66.5 -99s-24.5 -78.333 -24.5 -121z" />
    <glyph glyph-name="yen" unicode="&#xa5;" horiz-adv-x="1022" 
d="M588 376l0.00195312 -280c0 -20 -0.833008 -34.667 -2.5 -44s-5.5 -18.666 -11.5 -27.999s-14.5 -17 -25.5 -23s-23.5 -9 -37.5 -9s-26.5 3 -37.5 9s-19.5 13.667 -25.5 23s-9.83301 18.666 -11.5 27.999s-2.5 24 -2.5 44v280h-242c-13.333 0 -24 0.666992 -32 2
s-15 4 -21 8c-16 9.33301 -24 24.666 -24 45.999s8 36.666 24 45.999c6 4 13 6.66699 21 8s18.667 2 32 2h242v97l-49 98h-193c-13.333 0 -24 0.666992 -32 2s-15 4 -21 8c-16 9.33301 -24 24.666 -24 45.999s8 36.666 24 45.999c6 4 13 6.66699 21 8s18.667 2 32 2h138
l-253 509c-8 16 -13.5 28.667 -16.5 38s-3.83301 18.666 -2.5 27.999c1.33301 10.667 5.16602 20.834 11.499 30.501s15.5 17.5 27.5 23.5c10.667 5.33301 22 8 34 8c5.33301 0 10.833 -0.666992 16.5 -2s11.5 -4 17.5 -8c7.33301 -5.33301 13.833 -11.666 19.5 -18.999
s12.5 -19 20.5 -35l307 -615l307 615c8 16 14.833 27.667 20.5 35s12.167 13.666 19.5 18.999c6 4 11.833 6.66699 17.5 8s11.167 2 16.5 2c12 0 23.333 -2.66699 34 -8c12 -6 21.167 -13.833 27.5 -23.5s10.166 -19.834 11.499 -30.501
c1.33301 -9.33301 0.5 -18.666 -2.5 -27.999s-8.5 -22 -16.5 -38l-254 -509h137c13.333 0 24 -0.666992 32 -2s15 -4 21 -8c16 -9.33301 24 -24.666 24 -45.999s-8 -36.666 -24 -45.999c-6 -4 -13 -6.66699 -21 -8s-18.667 -2 -32 -2h-193l-49 -98v-97h242
c13.333 0 24 -0.666992 32 -2s15 -4 21 -8c16 -9.33301 24 -24.666 24 -45.999s-8 -36.666 -24 -45.999c-6 -4 -13 -6.66699 -21 -8s-18.667 -2 -32 -2h-242z" />
    <glyph glyph-name="brokenbar" unicode="&#xa6;" horiz-adv-x="652" 
d="M399 -58c0 -17.333 -0.833008 -30.5 -2.5 -39.5s-5.16699 -18.167 -10.5 -27.5s-13.333 -16.833 -24 -22.5s-22.667 -8.5 -36 -8.5s-25.333 2.83301 -36 8.5s-18.667 13.167 -24 22.5s-8.83301 18.5 -10.5 27.5s-2.5 22.167 -2.5 39.5v520
c0 17.333 0.833008 30.5 2.5 39.5s5.16699 18.167 10.5 27.5s13.333 16.833 24 22.5s22.667 8.5 36 8.5s25.333 -2.83301 36 -8.5s18.667 -13.167 24 -22.5s8.83301 -18.5 10.5 -27.5s2.5 -22.167 2.5 -39.5v-520zM399 962c0 -17.333 -0.833008 -30.5 -2.5 -39.5
s-5.16699 -18.167 -10.5 -27.5s-13.333 -16.833 -24 -22.5s-22.667 -8.5 -36 -8.5s-25.333 2.83301 -36 8.5s-18.667 13.167 -24 22.5s-8.83301 18.5 -10.5 27.5s-2.5 22.167 -2.5 39.5v520c0 17.333 0.833008 30.5 2.5 39.5s5.16699 18.167 10.5 27.5
s13.333 16.833 24 22.5s22.667 8.5 36 8.5s25.333 -2.83301 36 -8.5s18.667 -13.167 24 -22.5s8.83301 -18.5 10.5 -27.5s2.5 -22.167 2.5 -39.5v-520z" />
    <glyph glyph-name="section" unicode="&#xa7;" horiz-adv-x="1113" 
d="M449 138c-88.667 26 -156.667 70.502 -204 133.502s-71 140.5 -71 232.5c0 40.667 6 78.334 18 113.001s27.667 65.834 47 93.501s41.666 51.667 66.999 72s51.666 37.166 78.999 50.499c-28.667 12.667 -54.5 27.334 -77.5 44.001s-42.5 36.167 -58.5 58.5
s-28.333 47.666 -37 75.999s-13 60.833 -13 97.5c0 48.667 8.83301 93 26.5 133s42.334 74.333 74.001 103s69.5 51 113.5 67s92.333 24 145 24c74.667 0 139.167 -12.667 193.5 -38s96.166 -62.666 125.499 -111.999c12 -20 21.667 -41 29 -63s11 -43.667 11 -65
c0 -20.667 -5 -37.667 -15 -51c-5.33301 -8.66699 -13 -15.334 -23 -20.001s-21 -7 -33 -7c-26 0 -45 10 -57 30c-3.33301 4.66699 -6 10 -8 16s-4 15 -6 27c-9.33301 56 -32.166 95.833 -68.499 119.5s-85.833 35.5 -148.5 35.5c-66.667 0 -119.334 -16.5 -158.001 -49.5
s-58 -82.167 -58 -147.5c0 -26.667 4.16699 -50.334 12.5 -71.001s20 -38.667 35 -54s32.833 -28.5 53.5 -39.5s43.334 -20.167 68.001 -27.5l155 -45c43.333 -12.667 82 -30.334 116 -53.001s62.667 -49.667 86 -81s41.166 -66.5 53.499 -105.5s18.5 -81.167 18.5 -126.5
c0 -41.333 -6 -79.166 -18 -113.499s-27.667 -65.333 -47 -93s-41.5 -51.834 -66.5 -72.501s-50.833 -37.334 -77.5 -50.001c28.667 -10.667 54.834 -24.834 78.501 -42.501s44 -38.667 61 -63s30.333 -51.833 40 -82.5s14.5 -64 14.5 -100c0 -52 -9.5 -99 -28.5 -141
s-45 -78 -78 -108s-71.833 -53 -116.5 -69s-93 -24 -145 -24c-78.667 0 -144.167 13.333 -196.5 40s-93.5 62 -123.5 106c-14 21.333 -25.333 43.5 -34 66.5s-13 46.167 -13 69.5c0 11.333 1.33301 21.166 4 29.499s6.33398 15.833 11.001 22.5
c5.33301 8 12.833 14.5 22.5 19.5s20.5 7.5 32.5 7.5c26 0 45.333 -10 58 -30c3.33301 -4.66699 6 -10.167 8 -16.5s4 -15.166 6 -26.499c9.33301 -56 33.5 -96.167 72.5 -120.5s89.833 -36.5 152.5 -36.5c68 0 122 18.167 162 54.5s60 87.833 60 154.5
c0 46 -15 87.333 -45 124s-73.333 63.334 -130 80.001zM794 506.002c0 44 -5.66699 80.333 -17 109s-27 53.667 -47 75c-21.333 23.333 -46.5 41.166 -75.5 53.499s-61.5 18.5 -97.5 18.5s-68.5 -6.16699 -97.5 -18.5s-54.167 -30.166 -75.5 -53.499
c-20 -21.333 -35.667 -46.333 -47 -75s-17 -65 -17 -109s5.66699 -80.333 17 -109s27 -53.667 47 -75c21.333 -23.333 46.5 -41.166 75.5 -53.499s61.5 -18.5 97.5 -18.5s68.5 6.16699 97.5 18.5s54.167 30.166 75.5 53.499c20 21.333 35.667 46.333 47 75s17 65 17 109z
" />
    <glyph glyph-name="dieresis" unicode="&#xa8;" horiz-adv-x="1064" 
d="M228 1289c0 25.333 8.66699 46.833 26 64.5s38.666 26.5 63.999 26.5s46.833 -8.83301 64.5 -26.5s26.5 -39.167 26.5 -64.5s-8.83301 -46.666 -26.5 -63.999s-39.167 -26 -64.5 -26s-46.666 8.66699 -63.999 26s-26 38.666 -26 63.999zM655 1289
c0 25.333 8.66699 46.833 26 64.5s38.666 26.5 63.999 26.5s46.833 -8.83301 64.5 -26.5s26.5 -39.167 26.5 -64.5s-8.83301 -46.666 -26.5 -63.999s-39.167 -26 -64.5 -26s-46.666 8.66699 -63.999 26s-26 38.666 -26 63.999z" />
    <glyph glyph-name="copyright" unicode="&#xa9;" horiz-adv-x="1762" 
d="M157 712c0 66.667 8.66699 130.834 26 192.501s41.666 119.334 72.999 173.001s69 102.5 113 146.5s92.833 81.667 146.5 113s111.334 55.666 173.001 72.999s125.834 26 192.501 26s130.834 -8.66699 192.501 -26s119.334 -41.666 173.001 -72.999s102.5 -69 146.5 -113
s81.667 -92.833 113 -146.5s55.666 -111.334 72.999 -173.001s26 -125.834 26 -192.501s-8.66699 -130.834 -26 -192.501s-41.666 -119.334 -72.999 -173.001s-69 -102.5 -113 -146.5s-92.833 -81.667 -146.5 -113s-111.334 -55.666 -173.001 -72.999
s-125.834 -26 -192.501 -26s-130.834 8.66699 -192.501 26s-119.334 41.666 -173.001 72.999s-102.5 69 -146.5 113s-81.667 92.833 -113 146.5s-55.666 111.334 -72.999 173.001s-26 125.834 -26 192.501zM1499 712c0 57.333 -7.33301 112.666 -22 165.999
s-35.5 103.166 -62.5 149.499s-59.333 88.5 -97 126.5s-79.334 70.667 -125.001 98s-94.834 48.5 -147.501 63.5s-107.334 22.5 -164.001 22.5s-111.334 -7.5 -164.001 -22.5s-101.834 -36.167 -147.501 -63.5s-87.334 -60 -125.001 -98s-70 -80.167 -97 -126.5
s-47.833 -96.166 -62.5 -149.499s-22 -108.666 -22 -165.999s7.33301 -112.666 22 -165.999s35.5 -103.166 62.5 -149.499s59.333 -88.5 97 -126.5s79.334 -70.667 125.001 -98s94.834 -48.5 147.501 -63.5s107.334 -22.5 164.001 -22.5s111.334 7.5 164.001 22.5
s101.834 36.167 147.501 63.5s87.334 60 125.001 98s70 80.167 97 126.5s47.833 96.166 62.5 149.499s22 108.666 22 165.999zM575 712c0 52.667 6.83301 101.167 20.5 145.5s33.834 82.666 60.501 114.999s60 57.5 100 75.5s86.333 27 139 27c77.333 0 140 -22 188 -66
c12.667 -11.333 21.834 -21.333 27.501 -30s8.5 -18 8.5 -28c0 -12.667 -4 -23 -12 -31c-9.33301 -9.33301 -20.333 -14 -33 -14c-7.33301 0 -15.166 2.33301 -23.499 7s-18.166 11.667 -29.499 21c-22.667 19.333 -43.5 32.333 -62.5 39s-40.167 10 -63.5 10
c-40.667 0 -74.834 -7.16699 -102.501 -21.5s-50 -33.666 -67 -57.999s-29.333 -53 -37 -86s-11.5 -68.167 -11.5 -105.5s3.83301 -72.5 11.5 -105.5s20 -61.667 37 -86s39.333 -43.666 67 -57.999s61.834 -21.5 102.501 -21.5c23.333 0 44.5 3.33301 63.5 10
s39.833 19.667 62.5 39c11.333 9.33301 21.166 16.333 29.499 21s16.166 7 23.499 7c12.667 0 23.667 -4.66699 33 -14c8 -8 12 -18.333 12 -31c0 -10 -2.83301 -19.333 -8.5 -28s-14.834 -18.667 -27.501 -30c-48 -44 -110.667 -66 -188 -66c-52.667 0 -99 9 -139 27
s-73.333 43.167 -100 75.5s-46.834 70.666 -60.501 114.999s-20.5 92.833 -20.5 145.5z" />
    <glyph glyph-name="ordfeminine" unicode="&#xaa;" horiz-adv-x="898" 
d="M613 999h-216c-59.333 0 -102.833 -11.833 -130.5 -35.5s-41.5 -57.834 -41.5 -102.501s14 -77.834 42 -99.501s73.333 -32.5 136 -32.5c40 0 73.667 3.83301 101 11.5s51.333 21.834 72 42.501c14 14.667 23.667 32.334 29 53.001s8 47 8 79v84zM419 1430
c104.667 0 182.498 -22.3301 233.498 -66.9971s76.5 -109.667 76.5 -195v-457c0 -16 -0.666992 -27.667 -2 -35s-4.33301 -14.333 -9 -21c-10.667 -16.667 -26.667 -25 -48 -25c-16 0 -29 5.33301 -39 16c-5.33301 5.33301 -9.5 11.166 -12.5 17.499s-4.5 15.5 -4.5 27.5v19
c-16 -15.333 -31.833 -28.166 -47.5 -38.499s-32.334 -18.833 -50.001 -25.5s-36.667 -11.334 -57 -14.001s-43.166 -4 -68.499 -4c-53.333 0 -97.166 5.5 -131.499 16.5s-63.833 29.167 -88.5 54.5c-19.333 19.333 -34.166 43 -44.499 71s-15.5 57.667 -15.5 89
c0 69.333 23.333 124.5 70 165.5s114 61.5 202 61.5h230v73c0 56 -15.167 98.333 -45.5 127s-80.5 43 -150.5 43c-41.333 0 -75.333 -6.5 -102 -19.5s-52.667 -32.5 -78 -58.5c-7.33301 -7.33301 -14.833 -12.5 -22.5 -15.5s-15.167 -4.5 -22.5 -4.5
c-13.333 0 -24.333 4.66699 -33 14c-5.33301 5.33301 -9 10.666 -11 15.999s-3 12.666 -3 21.999c0 28 26 60 78 96c26 18 55.167 31 87.5 39s68.5 12 108.5 12z" />
    <glyph glyph-name="guillemotleft" unicode="&#xab;" horiz-adv-x="1148" 
d="M271 509l242 -242.002c13.333 -13.333 22.333 -23.666 27 -30.999s8 -15 10 -23c5.33301 -22 -1 -42 -19 -60s-38 -24.333 -60 -19c-8 2 -15.667 5.33301 -23 10s-17.666 13.667 -30.999 27l-338 338l338 338c13.333 13.333 23.666 22.333 30.999 27s15 8 23 10
c22 5.33301 42 -1 60 -19s24.333 -38 19 -60c-2 -8 -5.33301 -15.667 -10 -23s-13.667 -17.666 -27 -30.999zM723 508.998l242 -242.002c13.333 -13.333 22.333 -23.666 27 -30.999s8 -15 10 -23c5.33301 -22 -1 -42 -19 -60s-38 -24.333 -60 -19
c-8 2 -15.667 5.33301 -23 10s-17.666 13.667 -30.999 27l-338 338l338 338c13.333 13.333 23.666 22.333 30.999 27s15 8 23 10c22 5.33301 42 -1 60 -19s24.333 -38 19 -60c-2 -8 -5.33301 -15.667 -10 -23s-13.667 -17.666 -27 -30.999z" />
    <glyph glyph-name="logicalnot" unicode="&#xac;" 
d="M874 196c-23.333 0 -41.333 9.33301 -54 28c-4.66699 7.33301 -7.66699 15.333 -9 24s-2 21 -2 37v189h-626c-16 0 -28.333 0.666992 -37 2s-16.667 4.33301 -24 9c-18.667 12.667 -28 30.667 -28 54s9.33301 41.333 28 54c7.33301 4.66699 15.333 7.66699 24 9
s21 2 37 2h668c11.333 0 23 -0.833008 35 -2.5s23 -7.5 33 -17.5s15.833 -21 17.5 -33s2.5 -23.667 2.5 -35v-231c0 -16 -0.666992 -28.333 -2 -37s-4.33301 -16.667 -9 -24c-12.667 -18.667 -30.667 -28 -54 -28z" />
    <glyph glyph-name="uni00AD" unicode="&#xad;" horiz-adv-x="852" 
d="M708 539c0 -23.333 -9.33301 -41.333 -28 -54c-7.33301 -4.66699 -15.333 -7.66699 -24 -9s-21 -2 -37 -2h-386c-16 0 -28.333 0.666992 -37 2s-16.667 4.33301 -24 9c-18.667 12.667 -28 30.667 -28 54s9.33301 41.333 28 54c7.33301 4.66699 15.333 7.66699 24 9
s21 2 37 2h386c16 0 28.333 -0.666992 37 -2s16.667 -4.33301 24 -9c18.667 -12.667 28 -30.667 28 -54z" />
    <glyph glyph-name="registered" unicode="&#xae;" horiz-adv-x="1762" 
d="M1605 712c0 -66.667 -8.66699 -130.834 -26 -192.501s-41.666 -119.334 -72.999 -173.001s-69 -102.5 -113 -146.5s-92.833 -81.667 -146.5 -113s-111.334 -55.666 -173.001 -72.999s-125.834 -26 -192.501 -26s-130.834 8.66699 -192.501 26
s-119.334 41.666 -173.001 72.999s-102.5 69 -146.5 113s-81.667 92.833 -113 146.5s-55.666 111.334 -72.999 173.001s-26 125.834 -26 192.501s8.66699 130.834 26 192.501s41.666 119.334 72.999 173.001s69 102.5 113 146.5s92.833 81.667 146.5 113
s111.334 55.666 173.001 72.999s125.834 26 192.501 26s130.834 -8.66699 192.501 -26s119.334 -41.666 173.001 -72.999s102.5 -69 146.5 -113s81.667 -92.833 113 -146.5s55.666 -111.334 72.999 -173.001s26 -125.834 26 -192.501zM1499 712
c0 57.333 -7.33301 112.666 -22 165.999s-35.5 103.166 -62.5 149.499s-59.333 88.5 -97 126.5s-79.334 70.667 -125.001 98s-94.834 48.5 -147.501 63.5s-107.334 22.5 -164.001 22.5s-111.334 -7.5 -164.001 -22.5s-101.834 -36.167 -147.501 -63.5
s-87.334 -60 -125.001 -98s-70 -80.167 -97 -126.5s-47.833 -96.166 -62.5 -149.499s-22 -108.666 -22 -165.999s7.33301 -112.666 22 -165.999s35.5 -103.166 62.5 -149.499s59.333 -88.5 97 -126.5s79.334 -70.667 125.001 -98s94.834 -48.5 147.501 -63.5
s107.334 -22.5 164.001 -22.5s111.334 7.5 164.001 22.5s101.834 36.167 147.501 63.5s87.334 60 125.001 98s70 80.167 97 126.5s47.833 96.166 62.5 149.499s22 108.666 22 165.999zM771 977v-242h130c38.667 0 70.667 10.667 96 32s38 51 38 89s-12.667 67.667 -38 89
s-57.333 32 -96 32h-130zM720 351c-18 0 -31.6689 7 -41.002 21c-4 6 -6.66699 12.667 -8 20s-2 17.333 -2 30v582c0 8.66699 0.5 17.334 1.5 26.001s5.16699 16.667 12.5 24s15.5 11.5 24.5 12.5s17.5 1.5 25.5 1.5h180c31.333 0 60.666 -5.16699 87.999 -15.5
s51 -25 71 -44s35.833 -41.5 47.5 -67.5s17.5 -54.333 17.5 -85c0 -26 -3.83301 -49.667 -11.5 -71s-18.167 -40 -31.5 -56s-29.166 -29.667 -47.499 -41s-38.5 -20.333 -60.5 -27l127 -215c6.66699 -11.333 11.167 -20.333 13.5 -27s3.5 -13.334 3.5 -20.001
c0 -8 -2.33301 -15.5 -7 -22.5s-10.667 -12.833 -18 -17.5c-9.33301 -5.33301 -18.333 -8 -27 -8c-11.333 0 -20.666 3.5 -27.999 10.5s-15.666 18.167 -24.999 33.5l-148 254h-106v-227c0 -12.667 -0.666992 -22.667 -2 -30s-4 -14 -8 -20c-9.33301 -14 -23 -21 -41 -21z
" />
    <glyph glyph-name="macron" unicode="&#xaf;" horiz-adv-x="1064" 
d="M315 1227c-15.333 0 -27 0.833008 -35 2.5s-15.667 4.5 -23 8.5c-17.333 11.333 -26 28 -26 50s8.66699 38.667 26 50c7.33301 4 15 6.83301 23 8.5s19.667 2.5 35 2.5h434c15.333 0 27 -0.833008 35 -2.5s15.667 -4.5 23 -8.5c17.333 -11.333 26 -28 26 -50
s-8.66699 -38.667 -26 -50c-7.33301 -4 -15 -6.83301 -23 -8.5s-19.667 -2.5 -35 -2.5h-434z" />
    <glyph glyph-name="degree" unicode="&#xb0;" horiz-adv-x="926" 
d="M134 1113c0 45.333 8.66699 88 26 128s40.833 74.833 70.5 104.5s64.5 53.167 104.5 70.5s82.667 26 128 26s88 -8.66699 128 -26s74.833 -40.833 104.5 -70.5s53.167 -64.5 70.5 -104.5s26 -82.667 26 -128s-8.66699 -88 -26 -128s-40.833 -74.833 -70.5 -104.5
s-64.5 -53.167 -104.5 -70.5s-82.667 -26 -128 -26s-88 8.66699 -128 26s-74.833 40.833 -104.5 70.5s-53.167 64.5 -70.5 104.5s-26 82.667 -26 128zM256 1114c0 -29.333 5.33301 -56.833 16 -82.5s25.167 -48.167 43.5 -67.5s40.166 -34.5 65.499 -45.5
s52.666 -16.5 81.999 -16.5s56.666 5.5 81.999 16.5s47.166 26.167 65.499 45.5s32.833 41.833 43.5 67.5s16 53.167 16 82.5s-5.33301 56.833 -16 82.5s-25.167 48.167 -43.5 67.5s-40.166 34.5 -65.499 45.5s-52.666 16.5 -81.999 16.5s-56.666 -5.5 -81.999 -16.5
s-47.166 -26.167 -65.499 -45.5s-32.833 -41.833 -43.5 -67.5s-16 -53.167 -16 -82.5z" />
    <glyph glyph-name="plusminus" unicode="&#xb1;" 
d="M457 983c0 16 0.666992 28.333 2 37s4.33301 16.667 9 24c12.667 18.667 30.667 28 54 28s41.333 -9.33301 54 -28c4.66699 -7.33301 7.66699 -15.333 9 -24s2 -21 2 -37v-271h271c16 0 28.333 -0.666992 37 -2s16.667 -4.33301 24 -9c18.667 -12.667 28 -30.667 28 -54
s-9.33301 -41.333 -28 -54c-7.33301 -4.66699 -15.333 -7.66699 -24 -9s-21 -2 -37 -2h-271v-271c0 -16 -0.666992 -28.333 -2 -37s-4.33301 -16.667 -9 -24c-12.667 -18.667 -30.667 -28 -54 -28s-41.333 9.33301 -54 28c-4.66699 7.33301 -7.66699 15.333 -9 24
s-2 21 -2 37v271h-271c-16 0 -28.333 0.666992 -37 2s-16.667 4.33301 -24 9c-18.667 12.667 -28 30.667 -28 54s9.33301 41.333 28 54c7.33301 4.66699 15.333 7.66699 24 9s21 2 37 2h271v271zM947 66c0 -23.333 -9.33301 -41.333 -28 -54
c-7.33301 -4.66699 -15.333 -7.66699 -24 -9s-21 -2 -37 -2h-672c-16 0 -28.333 0.666992 -37 2s-16.667 4.33301 -24 9c-18.667 12.667 -28 30.667 -28 54s9.33301 41.333 28 54c7.33301 4.66699 15.333 7.66699 24 9s21 2 37 2h672c16 0 28.333 -0.666992 37 -2
s16.667 -4.33301 24 -9c18.667 -12.667 28 -30.667 28 -54z" />
    <glyph glyph-name="twosuperior" unicode="&#xb2;" horiz-adv-x="636" 
d="M154 570c-14.667 0 -27.165 0.831055 -37.498 2.49805s-19.5 6.5 -27.5 14.5c-9.33301 10.667 -14 23 -14 37c0 10.667 2.66699 20.334 8 29.001s12.666 19.334 21.999 32.001l303 392c15.333 20 26.833 39.333 34.5 58s11.5 38.667 11.5 60c0 40.667 -11.333 73 -34 97
s-55 36 -97 36c-28.667 0 -55.167 -8 -79.5 -24s-40.166 -40.667 -47.499 -74c-3.33301 -17.333 -10 -32.666 -20 -45.999c-3.33301 -4.66699 -8.33301 -8.5 -15 -11.5s-14.667 -4.5 -24 -4.5c-19.333 0 -34 7 -44 21c-3.33301 5.33301 -5.66602 11 -6.99902 17
s-2 12.333 -2 19c0 17.333 3.83301 35.5 11.5 54.5s16.167 35.833 25.5 50.5c43.333 68 110.666 102 201.999 102c37.333 0 71.166 -5.5 101.499 -16.5s56.166 -26.833 77.499 -47.5s37.833 -45.5 49.5 -74.5s17.5 -61.833 17.5 -98.5c0 -16.667 -1.33301 -32 -4 -46
s-6.83398 -28 -12.501 -42s-13.167 -28.333 -22.5 -43s-20.666 -30.334 -33.999 -47.001l-267 -343h282c12 0 21.833 -0.666992 29.5 -2s14.5 -4 20.5 -8c14 -9.33301 21 -23.333 21 -42c0 -19.333 -7 -33.333 -21 -42c-6 -4 -12.833 -6.66699 -20.5 -8s-17.5 -2 -29.5 -2
h-357z" />
    <glyph glyph-name="threesuperior" unicode="&#xb3;" horiz-adv-x="636" 
d="M564 1193c0 -46.667 -9.5 -84.6641 -28.5 -113.997s-45.5 -52 -79.5 -68c38 -16 67.833 -40.5 89.5 -73.5s32.5 -75.5 32.5 -127.5c0 -41.333 -6.83301 -77.5 -20.5 -108.5s-32.167 -56.833 -55.5 -77.5s-50.666 -36.334 -81.999 -47.001s-65 -16 -101 -16
c-38.667 0 -73.5 5.33301 -104.5 16s-57.333 25.167 -79 43.5s-38.334 39.5 -50.001 63.5s-17.5 49.333 -17.5 76c0 20 4.83301 35.833 14.5 47.5s23.5 17.5 41.5 17.5c23.333 0 38.666 -12.667 45.999 -38c10 -38 27.5 -67.833 52.5 -89.5s57.167 -32.5 96.5 -32.5
c40.667 0 74.667 12.833 102 38.5s41 61.5 41 107.5c0 43.333 -12.167 78.166 -36.5 104.499s-61.166 39.5 -110.499 39.5c-17.333 0 -30.666 5 -39.999 15s-14 21.667 -14 35s4.5 25.166 13.5 35.499s22.5 15.5 40.5 15.5c44 0 77.167 12.333 99.5 37s33.5 57 33.5 97
c0 22 -3.66699 41.5 -11 58.5s-17 31.333 -29 43s-25.833 20.5 -41.5 26.5s-31.834 9 -48.501 9c-62 0 -102.333 -24.667 -121 -74c-3.33301 -8 -6.33301 -16.833 -9 -26.5s-6 -18.667 -10 -27s-9.5 -15.333 -16.5 -21s-16.167 -8.5 -27.5 -8.5
c-17.333 0 -30.833 6 -40.5 18s-14.5 27.333 -14.5 46c0 16 3 32.333 9 49s13 31.667 21 45c22.667 36 51.167 62.167 85.5 78.5s75.5 24.5 123.5 24.5c36.667 0 70 -5.66699 100 -17s55.833 -27.333 77.5 -48s38.5 -45.667 50.5 -75s18 -62 18 -98z" />
    <glyph glyph-name="acute" unicode="&#xb4;" horiz-adv-x="1064" 
d="M597 1466c5.33301 9.33301 10.666 17.333 15.999 24s11 12.334 17 17.001c10.667 8 22.667 12 36 12c12.667 0 24.667 -3.66699 36 -11c23.333 -14 34.333 -33 33 -57c-0.666992 -8.66699 -2.66699 -17 -6 -25s-9.33301 -18.667 -18 -32l-102 -163
c-5.33301 -9.33301 -10.666 -17.333 -15.999 -24s-11 -12.334 -17 -17.001c-11.333 -8 -23.333 -12 -36 -12c-13.333 0 -25.333 3.66699 -36 11c-23.333 14 -34.333 33 -33 57c0.666992 8.66699 2.66699 17 6 25s9.33301 18.667 18 32z" />
    <glyph glyph-name="mu" unicode="&#xb5;" horiz-adv-x="1139" 
d="M327 346c5.33301 -76.667 29.334 -134.167 72.001 -172.5s99 -57.5 169 -57.5c74 0 133.167 22.167 177.5 66.5s66.5 109.5 66.5 195.5v516c0 17.333 0.833008 30.5 2.5 39.5s5.16699 18.167 10.5 27.5s13.333 16.833 24 22.5s22.667 8.5 36 8.5s25.333 -2.83301 36 -8.5
s18.667 -13.167 24 -22.5s8.83301 -18.5 10.5 -27.5s2.5 -22.167 2.5 -39.5v-804c0 -17.333 -0.833008 -30.5 -2.5 -39.5s-5.16699 -18.167 -10.5 -27.5s-13.333 -16.833 -24 -22.5s-22.667 -8.5 -36 -8.5s-25.333 2.83301 -36 8.5s-18.667 13.167 -24 22.5
s-8.83301 18.5 -10.5 27.5s-2.5 22.167 -2.5 39.5v18c-35.333 -40 -76.333 -70 -123 -90s-97.667 -30 -153 -30c-84.667 0 -154.334 24 -209.001 72v-409c0 -17.333 -0.833008 -30.5 -2.5 -39.5s-5.16699 -18.167 -10.5 -27.5s-13.333 -16.833 -24 -22.5
s-22.667 -8.5 -36 -8.5s-25.333 2.83301 -36 8.5s-18.667 13.167 -24 22.5s-8.83301 18.5 -10.5 27.5s-2.5 22.167 -2.5 39.5v1243c0 17.333 0.833008 30.5 2.5 39.5s5.16699 18.167 10.5 27.5s13.333 16.833 24 22.5s22.667 8.5 36 8.5s25.333 -2.83301 36 -8.5
s18.667 -13.167 24 -22.5s8.83301 -18.5 10.5 -27.5s2.5 -22.167 2.5 -39.5v-548z" />
    <glyph glyph-name="paragraph" unicode="&#xb6;" horiz-adv-x="1207" 
d="M478 652c-60 0 -114.334 10.833 -163.001 32.5s-90 50.334 -124 86.001s-60.333 76.5 -79 122.5s-28 93.667 -28 143c0 53.333 9.83301 103.666 29.5 150.999s48 88.5 85 123.5s82.333 62.667 136 83s114.834 30.5 183.501 30.5h396c11.333 0 23 -0.833008 35 -2.5
s23 -7.5 33 -17.5s15.833 -21 17.5 -33s2.5 -23.667 2.5 -35v-1686c0 -17.333 -0.833008 -30.5 -2.5 -39.5s-5.16699 -18.167 -10.5 -27.5s-13.333 -16.833 -24 -22.5s-22.667 -8.5 -36 -8.5s-25.333 2.83301 -36 8.5s-18.667 13.167 -24 22.5s-8.83301 18.5 -10.5 27.5
s-2.5 22.167 -2.5 39.5v1638h-232v-1638c0 -17.333 -0.833008 -30.5 -2.5 -39.5s-5.16699 -18.167 -10.5 -27.5s-13.333 -16.833 -24 -22.5s-22.667 -8.5 -36 -8.5s-25.333 2.83301 -36 8.5s-18.667 13.167 -24 22.5s-8.83301 18.5 -10.5 27.5s-2.5 22.167 -2.5 39.5v1002z
" />
    <glyph glyph-name="periodcentered" unicode="&#xb7;" horiz-adv-x="614" 
d="M193 539c0 16 3 30.833 9 44.5s14.167 25.667 24.5 36s22.333 18.5 36 24.5s28.5 9 44.5 9s30.833 -3 44.5 -9s25.667 -14.167 36 -24.5s18.5 -22.333 24.5 -36s9 -28.5 9 -44.5s-3 -30.833 -9 -44.5s-14.167 -25.667 -24.5 -36s-22.333 -18.5 -36 -24.5
s-28.5 -9 -44.5 -9s-30.833 3 -44.5 9s-25.667 14.167 -36 24.5s-18.5 22.333 -24.5 36s-9 28.5 -9 44.5z" />
    <glyph glyph-name="cedilla" unicode="&#xb8;" horiz-adv-x="1064" 
d="M451 -175c5.33301 9.33301 10.666 17.333 15.999 24s11 12.334 17 17.001c10.667 8 22.667 12 36 12c12.667 0 24.667 -3.66699 36 -11c23.333 -14 34.333 -33 33 -57c-0.666992 -8.66699 -2.66699 -17 -6 -25s-9.33301 -18.667 -18 -32l-102 -163
c-5.33301 -9.33301 -10.666 -17.333 -15.999 -24s-11 -12.334 -17 -17.001c-11.333 -8 -23.333 -12 -36 -12c-13.333 0 -25.333 3.66699 -36 11c-23.333 14 -34.333 33 -33 57c0.666992 8.66699 2.66699 17 6 25s9.33301 18.667 18 32z" />
    <glyph glyph-name="onesuperior" unicode="&#xb9;" horiz-adv-x="636" 
d="M130 1170c-14 14 -19 29.666 -15 46.999c2.66699 12.667 12.334 27.334 29.001 44.001l135 135c10 10 21 18.5 33 25.5s25.333 10.5 40 10.5c8.66699 0 17.167 -1.16699 25.5 -3.5s15.833 -7.16602 22.5 -14.499c7.33301 -8 11.833 -16.833 13.5 -26.5
s2.5 -20.167 2.5 -31.5v-714c0 -15.333 -0.833008 -26.833 -2.5 -34.5s-4.16699 -14.167 -7.5 -19.5c-11.333 -17.333 -27.333 -26 -48 -26s-36.667 8.66699 -48 26c-3.33301 5.33301 -5.83301 11.833 -7.5 19.5s-2.5 19.167 -2.5 34.5v621l-79 -79
c-16.667 -16.667 -31.334 -26.334 -44.001 -29.001c-17.333 -4 -33 1 -47 15z" />
    <glyph glyph-name="ordmasculine" unicode="&#xba;" horiz-adv-x="911" 
d="M136 1030c0 30.667 1.33301 60.5 4 89.5s7.5 56.667 14.5 83s16.833 51.333 29.5 75s29 45.5 49 65.5c28 28 60.667 49.5 98 64.5s79 22.5 125 22.5s87.5 -7.5 124.5 -22.5s69.5 -36.5 97.5 -64.5c20 -20 36.333 -41.833 49 -65.5s22.5 -48.667 29.5 -75
s11.833 -54 14.5 -83s4 -58.833 4 -89.5s-1.33301 -60.5 -4 -89.5s-7.5 -56.667 -14.5 -83s-16.833 -51.333 -29.5 -75s-29 -45.5 -49 -65.5c-28 -28 -60.5 -49.5 -97.5 -64.5s-78.5 -22.5 -124.5 -22.5s-87.667 7.5 -125 22.5s-70 36.5 -98 64.5
c-20 20 -36.333 41.833 -49 65.5s-22.5 48.667 -29.5 75s-11.833 54 -14.5 83s-4 58.833 -4 89.5zM660 1030c0 21.333 -0.5 43.166 -1.5 65.499s-3.66699 44 -8 65s-10.666 40.833 -18.999 59.5s-19.5 35 -33.5 49c-18 18 -39 32.167 -63 42.5s-50.333 15.5 -79 15.5
s-55.167 -5.16699 -79.5 -15.5s-45.5 -24.5 -63.5 -42.5c-14 -14 -25.167 -30.333 -33.5 -49s-14.5 -38.5 -18.5 -59.5s-6.5 -42.667 -7.5 -65s-1.5 -44.166 -1.5 -65.499s0.5 -43.166 1.5 -65.499s3.5 -44 7.5 -65s10.167 -40.833 18.5 -59.5s19.5 -35 33.5 -49
c18 -18 39.167 -32.167 63.5 -42.5s50.833 -15.5 79.5 -15.5s55 5.16699 79 15.5s45 24.5 63 42.5c14 14 25.167 30.333 33.5 49s14.666 38.5 18.999 59.5s7 42.667 8 65s1.5 44.166 1.5 65.499z" />
    <glyph glyph-name="guillemotright" unicode="&#xbb;" horiz-adv-x="1148" 
d="M183 751c-13.333 13.333 -22.333 23.668 -27 31.001s-8 15 -10 23c-5.33301 22 1 42 19 60s38 24.333 60 19c8 -2 15.667 -5.33301 23 -10s17.666 -13.667 30.999 -27l338 -338l-338 -338c-13.333 -13.333 -23.666 -22.333 -30.999 -27s-15 -8 -23 -10
c-22 -5.33301 -42 1 -60 19s-24.333 38 -19 60c2 8 5.33301 15.667 10 23s13.667 17.666 27 30.999l242 242zM635 751.002c-13.333 13.333 -22.333 23.668 -27 31.001s-8 15 -10 23c-5.33301 22 1 42 19 60s38 24.333 60 19c8 -2 15.667 -5.33301 23 -10
s17.666 -13.667 30.999 -27l338 -338l-338 -338c-13.333 -13.333 -23.666 -22.333 -30.999 -27s-15 -8 -23 -10c-22 -5.33301 -42 1 -60 19s-24.333 38 -19 60c2 8 5.33301 15.667 10 23s13.667 17.666 27 30.999l242 242z" />
    <glyph glyph-name="onequarter" unicode="&#xbc;" horiz-adv-x="1626" 
d="M130 1170c-14 14 -19 29.666 -15 46.999c2.66699 12.667 12.334 27.334 29.001 44.001l135 135c10 10 21 18.5 33 25.5s25.333 10.5 40 10.5c8.66699 0 17.167 -1.16699 25.5 -3.5s15.833 -7.16602 22.5 -14.499c7.33301 -8 11.833 -16.833 13.5 -26.5
s2.5 -20.167 2.5 -31.5v-714c0 -15.333 -0.833008 -26.833 -2.5 -34.5s-4.16699 -14.167 -7.5 -19.5c-11.333 -17.333 -27.333 -26 -48 -26s-36.667 8.66699 -48 26c-3.33301 5.33301 -5.83301 11.833 -7.5 19.5s-2.5 19.167 -2.5 34.5v621l-79 -79
c-16.667 -16.667 -31.334 -26.334 -44.001 -29.001c-17.333 -4 -33 1 -47 15zM538 40.999c-6 -12 -11.333 -21 -16 -27s-10 -11 -16 -15c-7.33301 -4.66699 -15.666 -7 -24.999 -7c-8 0 -16 2 -24 6c-10 5.33301 -17.167 11.666 -21.5 18.999s-6.83301 14.666 -7.5 21.999
s0 14.5 2 21.5s6 16.5 12 28.5l646 1294c6 12 11.333 21 16 27s10 11 16 15c7.33301 4.66699 15.666 7 24.999 7c8 0 16 -2 24 -6c10 -5.33301 17.167 -11.666 21.5 -18.999s6.83301 -14.666 7.5 -21.999s0 -14.5 -2 -21.5s-6 -16.5 -12 -28.5zM1331 811.999
c6.66699 13.333 14.332 25.001 22.999 35.001s20.667 15 36 15c13.333 0 25.666 -4.66699 36.999 -14s17 -21.333 17 -36c0 -7.33301 -1.16699 -14.5 -3.5 -21.5s-6.16602 -16.167 -11.499 -27.5l-265 -529h218v156c0 18.667 3 32 9 40c10 14.667 24 22 42 22
s32 -7.33301 42 -22c6 -8 9 -21.333 9 -40v-156h37c12 0 21.833 -0.666992 29.5 -2s14.5 -4 20.5 -8c14 -9.33301 21 -23.333 21 -42c0 -19.333 -7 -33.333 -21 -42c-6 -4 -12.833 -6.66699 -20.5 -8s-17.5 -2 -29.5 -2h-37v-76c0 -18.667 -3 -32 -9 -40
c-10 -14.667 -24 -22 -42 -22s-32 7.33301 -42 22c-6 8 -9 21.333 -9 40v76h-289c-11.333 0 -20.5 0.5 -27.5 1.5s-13.167 3.16699 -18.5 6.5c-7.33301 4.66699 -13.166 10.667 -17.499 18s-6.5 15.666 -6.5 24.999c0 5.33301 1.33301 12 4 20s6 16 10 24z" />
    <glyph glyph-name="onehalf" unicode="&#xbd;" horiz-adv-x="1626" 
d="M130 1170c-14 14 -19 29.666 -15 46.999c2.66699 12.667 12.334 27.334 29.001 44.001l135 135c10 10 21 18.5 33 25.5s25.333 10.5 40 10.5c8.66699 0 17.167 -1.16699 25.5 -3.5s15.833 -7.16602 22.5 -14.499c7.33301 -8 11.833 -16.833 13.5 -26.5
s2.5 -20.167 2.5 -31.5v-714c0 -15.333 -0.833008 -26.833 -2.5 -34.5s-4.16699 -14.167 -7.5 -19.5c-11.333 -17.333 -27.333 -26 -48 -26s-36.667 8.66699 -48 26c-3.33301 5.33301 -5.83301 11.833 -7.5 19.5s-2.5 19.167 -2.5 34.5v621l-79 -79
c-16.667 -16.667 -31.334 -26.334 -44.001 -29.001c-17.333 -4 -33 1 -47 15zM538 40.999c-6 -12 -11.333 -21 -16 -27s-10 -11 -16 -15c-7.33301 -4.66699 -15.666 -7 -24.999 -7c-8 0 -16 2 -24 6c-10 5.33301 -17.167 11.666 -21.5 18.999s-6.83301 14.666 -7.5 21.999
s0 14.5 2 21.5s6 16.5 12 28.5l646 1294c6 12 11.333 21 16 27s10 11 16 15c7.33301 4.66699 15.666 7 24.999 7c8 0 16 -2 24 -6c10 -5.33301 17.167 -11.666 21.5 -18.999s6.83301 -14.666 7.5 -21.999s0 -14.5 -2 -21.5s-6 -16.5 -12 -28.5zM1144 -0.000976562
c-14.667 0 -27.165 0.831055 -37.498 2.49805s-19.5 6.5 -27.5 14.5c-9.33301 10.667 -14 23 -14 37c0 10.667 2.66699 20.334 8 29.001s12.666 19.334 21.999 32.001l303 392c15.333 20 26.833 39.333 34.5 58s11.5 38.667 11.5 60c0 40.667 -11.333 73 -34 97
s-55 36 -97 36c-28.667 0 -55.167 -8 -79.5 -24s-40.166 -40.667 -47.499 -74c-3.33301 -17.333 -10 -32.666 -20 -45.999c-3.33301 -4.66699 -8.33301 -8.5 -15 -11.5s-14.667 -4.5 -24 -4.5c-19.333 0 -34 7 -44 21c-3.33301 5.33301 -5.66602 11 -6.99902 17
s-2 12.333 -2 19c0 17.333 3.83301 35.5 11.5 54.5s16.167 35.833 25.5 50.5c43.333 68 110.666 102 201.999 102c37.333 0 71.166 -5.5 101.499 -16.5s56.166 -26.833 77.499 -47.5s37.833 -45.5 49.5 -74.5s17.5 -61.833 17.5 -98.5c0 -16.667 -1.33301 -32 -4 -46
s-6.83398 -28 -12.501 -42s-13.167 -28.333 -22.5 -43s-20.666 -30.334 -33.999 -47.001l-267 -343h282c12 0 21.833 -0.666992 29.5 -2s14.5 -4 20.5 -8c14 -9.33301 21 -23.333 21 -42c0 -19.333 -7 -33.333 -21 -42c-6 -4 -12.833 -6.66699 -20.5 -8s-17.5 -2 -29.5 -2
h-357z" />
    <glyph glyph-name="threequarters" unicode="&#xbe;" horiz-adv-x="1626" 
d="M564 1194c0 -46.667 -9.5 -84.6641 -28.5 -113.997s-45.5 -52 -79.5 -68c38 -16 67.833 -40.5 89.5 -73.5s32.5 -75.5 32.5 -127.5c0 -41.333 -6.83301 -77.5 -20.5 -108.5s-32.167 -56.833 -55.5 -77.5s-50.666 -36.334 -81.999 -47.001s-65 -16 -101 -16
c-38.667 0 -73.5 5.33301 -104.5 16s-57.333 25.167 -79 43.5s-38.334 39.5 -50.001 63.5s-17.5 49.333 -17.5 76c0 20 4.83301 35.833 14.5 47.5s23.5 17.5 41.5 17.5c23.333 0 38.666 -12.667 45.999 -38c10 -38 27.5 -67.833 52.5 -89.5s57.167 -32.5 96.5 -32.5
c40.667 0 74.667 12.833 102 38.5s41 61.5 41 107.5c0 43.333 -12.167 78.166 -36.5 104.499s-61.166 39.5 -110.499 39.5c-17.333 0 -30.666 5 -39.999 15s-14 21.667 -14 35s4.5 25.166 13.5 35.499s22.5 15.5 40.5 15.5c44 0 77.167 12.333 99.5 37s33.5 57 33.5 97
c0 22 -3.66699 41.5 -11 58.5s-17 31.333 -29 43s-25.833 20.5 -41.5 26.5s-31.834 9 -48.501 9c-62 0 -102.333 -24.667 -121 -74c-3.33301 -8 -6.33301 -16.833 -9 -26.5s-6 -18.667 -10 -27s-9.5 -15.333 -16.5 -21s-16.167 -8.5 -27.5 -8.5
c-17.333 0 -30.833 6 -40.5 18s-14.5 27.333 -14.5 46c0 16 3 32.333 9 49s13 31.667 21 45c22.667 36 51.167 62.167 85.5 78.5s75.5 24.5 123.5 24.5c36.667 0 70 -5.66699 100 -17s55.833 -27.333 77.5 -48s38.5 -45.667 50.5 -75s18 -62 18 -98zM538 41.0029
c-6 -12 -11.333 -21 -16 -27s-10 -11 -16 -15c-7.33301 -4.66699 -15.666 -7 -24.999 -7c-8 0 -16 2 -24 6c-10 5.33301 -17.167 11.666 -21.5 18.999s-6.83301 14.666 -7.5 21.999s0 14.5 2 21.5s6 16.5 12 28.5l646 1294c6 12 11.333 21 16 27s10 11 16 15
c7.33301 4.66699 15.666 7 24.999 7c8 0 16 -2 24 -6c10 -5.33301 17.167 -11.666 21.5 -18.999s6.83301 -14.666 7.5 -21.999s0 -14.5 -2 -21.5s-6 -16.5 -12 -28.5zM1331 812.003c6.66699 13.333 14.332 25.001 22.999 35.001s20.667 15 36 15
c13.333 0 25.666 -4.66699 36.999 -14s17 -21.333 17 -36c0 -7.33301 -1.16699 -14.5 -3.5 -21.5s-6.16602 -16.167 -11.499 -27.5l-265 -529h218v156c0 18.667 3 32 9 40c10 14.667 24 22 42 22s32 -7.33301 42 -22c6 -8 9 -21.333 9 -40v-156h37
c12 0 21.833 -0.666992 29.5 -2s14.5 -4 20.5 -8c14 -9.33301 21 -23.333 21 -42c0 -19.333 -7 -33.333 -21 -42c-6 -4 -12.833 -6.66699 -20.5 -8s-17.5 -2 -29.5 -2h-37v-76c0 -18.667 -3 -32 -9 -40c-10 -14.667 -24 -22 -42 -22s-32 7.33301 -42 22
c-6 8 -9 21.333 -9 40v76h-289c-11.333 0 -20.5 0.5 -27.5 1.5s-13.167 3.16699 -18.5 6.5c-7.33301 4.66699 -13.166 10.667 -17.499 18s-6.5 15.666 -6.5 24.999c0 5.33301 1.33301 12 4 20s6 16 10 24z" />
    <glyph glyph-name="questiondown" unicode="&#xbf;" horiz-adv-x="995" 
d="M555 889c0 -14 -2.66699 -27.167 -8 -39.5s-12.5 -23 -21.5 -32s-19.5 -16.167 -31.5 -21.5s-25 -8 -39 -8s-27.167 2.66699 -39.5 8s-23 12.5 -32 21.5s-16.167 19.667 -21.5 32s-8 25.5 -8 39.5s2.66699 27 8 39s12.5 22.5 21.5 31.5s19.667 16.167 32 21.5
s25.5 8 39.5 8c28 0 51.667 -9.66699 71 -29s29 -43 29 -71zM337 375c16 23.333 26.834 46.0039 32.501 68.0039s9.16699 47 10.5 75c0.666992 9.33301 2.16699 19.666 4.5 30.999s8.16602 21.666 17.499 30.999c13.333 13.333 30.666 20 51.999 20
c25.333 0 44.666 -9.33301 57.999 -28c4.66699 -6.66699 8.33398 -14.667 11.001 -24s4 -21.333 4 -36c0 -20 -0.666992 -38.167 -2 -54.5s-4.33301 -32 -9 -47s-11 -30.333 -19 -46s-18.667 -32.834 -32 -51.501l-163 -232c-19.333 -28 -35 -55.167 -47 -81.5
s-18 -56.5 -18 -90.5c0 -33.333 5.66699 -64.166 17 -92.499s27.333 -53 48 -74s45 -37.5 73 -49.5s58.667 -18 92 -18c30.667 0 60.167 5 88.5 15s53.833 26 76.5 48c19.333 18.667 34.5 40.334 45.5 65.001s18.5 50.667 22.5 78c1.33301 10.667 3.5 20.5 6.5 29.5
s7.16699 16.833 12.5 23.5c12 15.333 30.333 23 55 23c22 0 39 -7.33301 51 -22c6 -7.33301 10.167 -15.5 12.5 -24.5s3.5 -19.5 3.5 -31.5c0 -37.333 -9.16699 -76.666 -27.5 -117.999s-43.166 -78 -74.499 -110c-32 -32 -71.167 -57.333 -117.5 -76s-97.5 -28 -153.5 -28
c-53.333 0 -102.833 8.83301 -148.5 26.5s-85.5 42.5 -119.5 74.5s-60.667 70.167 -80 114.5s-29 93.166 -29 146.499c0 24 2.33301 46.667 7 68s11 41.666 19 60.999s17.5 38.166 28.5 56.499s23.167 37.166 36.5 56.499z" />
    <glyph glyph-name="Agrave" unicode="&#xc0;" horiz-adv-x="1222" 
d="M524 1352c5.33301 14.667 10.3311 25.8311 14.998 33.498s9.66699 14.834 15 21.501c7.33301 7.33301 15.5 13.333 24.5 18s19.833 7 32.5 7s23.5 -2.33301 32.5 -7s17.167 -10.667 24.5 -18c5.33301 -6.66699 10.333 -13.667 15 -21s9.66699 -18.666 15 -33.999
l462 -1234c3.33301 -9.33301 6.33301 -18.666 9 -27.999s4 -18.166 4 -26.499s-1.5 -16.666 -4.5 -24.999s-8.16699 -16.166 -15.5 -23.499s-15.666 -13 -24.999 -17s-19.666 -6 -30.999 -6c-14 0 -27 4.33301 -39 13c-8 6.66699 -14.333 13.834 -19 21.501
s-10.667 20.834 -18 39.501l-94 256h-633l-94 -256c-7.33301 -18.667 -13.333 -31.834 -18 -39.501s-11 -14.834 -19 -21.501c-12 -8.66699 -25 -13 -39 -13c-22 0 -40.667 7.66699 -56 23c-7.33301 7.33301 -12.5 15.166 -15.5 23.499s-4.33301 16.666 -4 24.999
s1.83301 17.166 4.5 26.499s5.66699 18.666 9 27.999zM341.998 453.997h537l-268 733zM405.998 1817c0 24.667 11.333 44 34 58c12 7.33301 24.667 11 38 11c15.333 0 28.5 -4.5 39.5 -13.5s22.167 -23.167 33.5 -42.5l97 -155c8.66699 -13.333 15 -24.666 19 -33.999
s6 -18.666 6 -27.999c0 -24.667 -11.333 -44 -34 -58c-12 -7.33301 -24.667 -11 -38 -11c-15.333 0 -28.5 4.5 -39.5 13.5s-22.167 23.167 -33.5 42.5l-97 155c-8.66699 13.333 -15 24.666 -19 33.999s-6 18.666 -6 27.999z" />
    <glyph glyph-name="Aacute" unicode="&#xc1;" horiz-adv-x="1222" 
d="M524 1352c5.33301 14.667 10.3311 25.8311 14.998 33.498s9.66699 14.834 15 21.501c7.33301 7.33301 15.5 13.333 24.5 18s19.833 7 32.5 7s23.5 -2.33301 32.5 -7s17.167 -10.667 24.5 -18c5.33301 -6.66699 10.333 -13.667 15 -21s9.66699 -18.666 15 -33.999
l462 -1234c3.33301 -9.33301 6.33301 -18.666 9 -27.999s4 -18.166 4 -26.499s-1.5 -16.666 -4.5 -24.999s-8.16699 -16.166 -15.5 -23.499s-15.666 -13 -24.999 -17s-19.666 -6 -30.999 -6c-14 0 -27 4.33301 -39 13c-8 6.66699 -14.333 13.834 -19 21.501
s-10.667 20.834 -18 39.501l-94 256h-633l-94 -256c-7.33301 -18.667 -13.333 -31.834 -18 -39.501s-11 -14.834 -19 -21.501c-12 -8.66699 -25 -13 -39 -13c-22 0 -40.667 7.66699 -56 23c-7.33301 7.33301 -12.5 15.166 -15.5 23.499s-4.33301 16.666 -4 24.999
s1.83301 17.166 4.5 26.499s5.66699 18.666 9 27.999zM341.998 453.997h537l-268 733zM675.998 1833c5.33301 9.33301 10.666 17.333 15.999 24s11 12.334 17 17.001c10.667 8 22.667 12 36 12c12.667 0 24.667 -3.66699 36 -11c23.333 -14 34.333 -33 33 -57
c-0.666992 -8.66699 -2.66699 -17 -6 -25s-9.33301 -18.667 -18 -32l-102 -163c-5.33301 -9.33301 -10.666 -17.333 -15.999 -24s-11 -12.334 -17 -17.001c-11.333 -8 -23.333 -12 -36 -12c-13.333 0 -25.333 3.66699 -36 11c-23.333 14 -34.333 33 -33 57
c0.666992 8.66699 2.66699 17 6 25s9.33301 18.667 18 32z" />
    <glyph glyph-name="Acircumflex" unicode="&#xc2;" horiz-adv-x="1222" 
d="M524 1352c5.33301 14.667 10.3311 25.8311 14.998 33.498s9.66699 14.834 15 21.501c7.33301 7.33301 15.5 13.333 24.5 18s19.833 7 32.5 7s23.5 -2.33301 32.5 -7s17.167 -10.667 24.5 -18c5.33301 -6.66699 10.333 -13.667 15 -21s9.66699 -18.666 15 -33.999
l462 -1234c3.33301 -9.33301 6.33301 -18.666 9 -27.999s4 -18.166 4 -26.499s-1.5 -16.666 -4.5 -24.999s-8.16699 -16.166 -15.5 -23.499s-15.666 -13 -24.999 -17s-19.666 -6 -30.999 -6c-14 0 -27 4.33301 -39 13c-8 6.66699 -14.333 13.834 -19 21.501
s-10.667 20.834 -18 39.501l-94 256h-633l-94 -256c-7.33301 -18.667 -13.333 -31.834 -18 -39.501s-11 -14.834 -19 -21.501c-12 -8.66699 -25 -13 -39 -13c-22 0 -40.667 7.66699 -56 23c-7.33301 7.33301 -12.5 15.166 -15.5 23.499s-4.33301 16.666 -4 24.999
s1.83301 17.166 4.5 26.499s5.66699 18.666 9 27.999zM341.998 453.997h537l-268 733zM455.998 1579c-11.333 -11.333 -20.5 -19.166 -27.5 -23.499s-14.167 -7.5 -21.5 -9.5c-20 -4 -37.667 1.66699 -53 17c-16 16 -21.667 34 -17 54c2 7.33301 5 14.5 9 21.5
s11.667 16.167 23 27.5l187 186c6 6 13.5 12 22.5 18s19.833 9 32.5 9s23.5 -3 32.5 -9s16.5 -12 22.5 -18l187 -186c11.333 -11.333 19 -20.5 23 -27.5s7 -14.167 9 -21.5c4.66699 -20 -1 -38 -17 -54c-15.333 -15.333 -33 -21 -53 -17c-7.33301 2 -14.5 5.16699 -21.5 9.5
s-16.167 12.166 -27.5 23.499l-155 155z" />
    <glyph glyph-name="Atilde" unicode="&#xc3;" horiz-adv-x="1222" 
d="M524 1352c5.33301 14.667 10.3311 25.8311 14.998 33.498s9.66699 14.834 15 21.501c7.33301 7.33301 15.5 13.333 24.5 18s19.833 7 32.5 7s23.5 -2.33301 32.5 -7s17.167 -10.667 24.5 -18c5.33301 -6.66699 10.333 -13.667 15 -21s9.66699 -18.666 15 -33.999
l462 -1234c3.33301 -9.33301 6.33301 -18.666 9 -27.999s4 -18.166 4 -26.499s-1.5 -16.666 -4.5 -24.999s-8.16699 -16.166 -15.5 -23.499s-15.666 -13 -24.999 -17s-19.666 -6 -30.999 -6c-14 0 -27 4.33301 -39 13c-8 6.66699 -14.333 13.834 -19 21.501
s-10.667 20.834 -18 39.501l-94 256h-633l-94 -256c-7.33301 -18.667 -13.333 -31.834 -18 -39.501s-11 -14.834 -19 -21.501c-12 -8.66699 -25 -13 -39 -13c-22 0 -40.667 7.66699 -56 23c-7.33301 7.33301 -12.5 15.166 -15.5 23.499s-4.33301 16.666 -4 24.999
s1.83301 17.166 4.5 26.499s5.66699 18.666 9 27.999zM341.998 453.997h537l-268 733zM595.998 1620c-19.333 11.333 -37.666 21 -54.999 29s-36 12 -56 12c-14 0 -27.333 -1.83301 -40 -5.5s-28.667 -13.834 -48 -30.501c-9.33301 -7.33301 -18 -13.5 -26 -18.5
s-16.333 -7.5 -25 -7.5c-14.667 0 -27 5 -37 15s-15 23 -15 39c0 9.33301 2.66699 19 8 29s14.666 20.667 27.999 32c16 14 31 25.167 45 33.5s27.333 14.5 40 18.5s24.5 6.66699 35.5 8s21.833 2 32.5 2c29.333 0 54.166 -4 74.499 -12s43.166 -19.333 68.499 -34
c19.333 -11.333 37.666 -21 54.999 -29s36 -12 56 -12c14 0 27.333 1.83301 40 5.5s28.667 13.834 48 30.501c9.33301 7.33301 18 13.5 26 18.5s16.333 7.5 25 7.5c14.667 0 27 -5 37 -15s15 -23 15 -39c0 -9.33301 -2.66699 -19 -8 -29s-14.666 -20.667 -27.999 -32
c-16 -14 -31 -25.167 -45 -33.5s-27.333 -14.5 -40 -18.5s-24.5 -6.66699 -35.5 -8s-21.833 -2 -32.5 -2c-29.333 0 -54.166 3.83301 -74.499 11.5s-43.166 19.167 -68.499 34.5z" />
    <glyph glyph-name="Adieresis" unicode="&#xc4;" horiz-adv-x="1222" 
d="M524 1352c5.33301 14.667 10.3311 25.8311 14.998 33.498s9.66699 14.834 15 21.501c7.33301 7.33301 15.5 13.333 24.5 18s19.833 7 32.5 7s23.5 -2.33301 32.5 -7s17.167 -10.667 24.5 -18c5.33301 -6.66699 10.333 -13.667 15 -21s9.66699 -18.666 15 -33.999
l462 -1234c3.33301 -9.33301 6.33301 -18.666 9 -27.999s4 -18.166 4 -26.499s-1.5 -16.666 -4.5 -24.999s-8.16699 -16.166 -15.5 -23.499s-15.666 -13 -24.999 -17s-19.666 -6 -30.999 -6c-14 0 -27 4.33301 -39 13c-8 6.66699 -14.333 13.834 -19 21.501
s-10.667 20.834 -18 39.501l-94 256h-633l-94 -256c-7.33301 -18.667 -13.333 -31.834 -18 -39.501s-11 -14.834 -19 -21.501c-12 -8.66699 -25 -13 -39 -13c-22 0 -40.667 7.66699 -56 23c-7.33301 7.33301 -12.5 15.166 -15.5 23.499s-4.33301 16.666 -4 24.999
s1.83301 17.166 4.5 26.499s5.66699 18.666 9 27.999zM341.998 453.997h537l-268 733zM306.998 1664c0 25.333 8.66699 46.833 26 64.5s38.666 26.5 63.999 26.5s46.833 -8.83301 64.5 -26.5s26.5 -39.167 26.5 -64.5s-8.83301 -46.666 -26.5 -63.999s-39.167 -26 -64.5 -26
s-46.666 8.66699 -63.999 26s-26 38.666 -26 63.999zM733.998 1664c0 25.333 8.66699 46.833 26 64.5s38.666 26.5 63.999 26.5s46.833 -8.83301 64.5 -26.5s26.5 -39.167 26.5 -64.5s-8.83301 -46.666 -26.5 -63.999s-39.167 -26 -64.5 -26s-46.666 8.66699 -63.999 26
s-26 38.666 -26 63.999z" />
    <glyph glyph-name="Aring" unicode="&#xc5;" horiz-adv-x="1222" 
d="M524 1352c5.33301 14.667 10.3311 25.8311 14.998 33.498s9.66699 14.834 15 21.501c7.33301 7.33301 15.5 13.333 24.5 18s19.833 7 32.5 7s23.5 -2.33301 32.5 -7s17.167 -10.667 24.5 -18c5.33301 -6.66699 10.333 -13.667 15 -21s9.66699 -18.666 15 -33.999
l462 -1234c3.33301 -9.33301 6.33301 -18.666 9 -27.999s4 -18.166 4 -26.499s-1.5 -16.666 -4.5 -24.999s-8.16699 -16.166 -15.5 -23.499s-15.666 -13 -24.999 -17s-19.666 -6 -30.999 -6c-14 0 -27 4.33301 -39 13c-8 6.66699 -14.333 13.834 -19 21.501
s-10.667 20.834 -18 39.501l-94 256h-633l-94 -256c-7.33301 -18.667 -13.333 -31.834 -18 -39.501s-11 -14.834 -19 -21.501c-12 -8.66699 -25 -13 -39 -13c-22 0 -40.667 7.66699 -56 23c-7.33301 7.33301 -12.5 15.166 -15.5 23.499s-4.33301 16.666 -4 24.999
s1.83301 17.166 4.5 26.499s5.66699 18.666 9 27.999zM341.998 453.997h537l-268 733zM373.998 1732c0 32.667 6.16699 63.334 18.5 92.001s29.333 53.834 51 75.501s46.834 38.667 75.501 51s59.334 18.5 92.001 18.5s63.334 -6.16699 92.001 -18.5
s53.834 -29.333 75.501 -51s38.667 -46.834 51 -75.501s18.5 -59.334 18.5 -92.001s-6.16699 -63.334 -18.5 -92.001s-29.333 -53.834 -51 -75.501s-46.834 -38.667 -75.501 -51s-59.334 -18.5 -92.001 -18.5s-63.334 6.16699 -92.001 18.5s-53.834 29.333 -75.501 51
s-38.667 46.834 -51 75.501s-18.5 59.334 -18.5 92.001zM472.998 1732c0 -19.333 3.66699 -37.333 11 -54s17.166 -31.167 29.499 -43.5s26.833 -22.166 43.5 -29.499s34.667 -11 54 -11c18.667 0 36.5 3.66699 53.5 11s31.667 17.166 44 29.499s22.166 26.833 29.499 43.5
s11 34.667 11 54c0 18.667 -3.66699 36.5 -11 53.5s-17.166 31.667 -29.499 44s-27 22.166 -44 29.499s-34.833 11 -53.5 11c-19.333 0 -37.333 -3.66699 -54 -11s-31.167 -17.166 -43.5 -29.499s-22.166 -27 -29.499 -44s-11 -34.833 -11 -53.5z" />
    <glyph glyph-name="AE" unicode="&#xc6;" horiz-adv-x="1804" 
d="M336 337l-139.999 -280.99c-8 -16 -14.833 -27.667 -20.5 -35s-12.167 -13.666 -19.5 -18.999c-6 -4 -11.833 -6.66699 -17.5 -8s-11.167 -2 -16.5 -2c-12 0 -23.333 2.66699 -34 8c-12 6 -21.167 13.833 -27.5 23.5s-10.166 19.834 -11.499 30.501
c-1.33301 9.33301 -0.5 18.666 2.5 27.999s8.5 22 16.5 38l607 1215c9.33301 19.333 18.333 33.666 27 42.999s16.667 17 24 23c9.33301 7.33301 19.5 13 30.5 17s25.833 6 44.5 6h806c19.333 0 33.333 -0.833008 42 -2.5s16.667 -4.83398 24 -9.50098
c19.333 -12.667 29 -31.334 29 -56.001s-9.66699 -43.334 -29 -56.001c-7.33301 -4.66699 -15.333 -7.83398 -24 -9.50098s-22.667 -2.5 -42 -2.5h-643v-502h534c19.333 0 33.333 -0.833008 42 -2.5s16.667 -4.83398 24 -9.50098c19.333 -12.667 29 -31.334 29 -56.001
s-9.66699 -43.334 -29 -56.001c-7.33301 -4.66699 -15.333 -7.83398 -24 -9.50098s-22.667 -2.5 -42 -2.5h-534v-514h643c19.333 0 33.333 -0.833008 42 -2.5s16.667 -4.83398 24 -9.50098c19.333 -12.667 29 -31.334 29 -56.001s-9.66699 -43.334 -29 -56.001
c-7.33301 -4.66699 -15.333 -7.83398 -24 -9.50098s-22.667 -2.5 -42 -2.5h-704c-12 0 -24.333 0.833008 -37 2.5s-24.334 7.83398 -35.001 18.501s-16.834 22.334 -18.501 35.001s-2.5 25 -2.5 37v244h-474zM810.001 1286.01l-408 -817h408v817z" />
    <glyph glyph-name="Ccedilla" unicode="&#xc7;" horiz-adv-x="1276" 
d="M152 712c0 82 1.16699 152.162 3.5 210.495s8.33301 109.5 18 153.5s24.167 83.167 43.5 117.5s46 68.5 80 102.5c44 44 95.667 78.333 155 103s125.666 37 198.999 37c46 0 88 -4.33301 126 -13s72.5 -20.5 103.5 -35.5s59.167 -33 84.5 -54s48 -43.833 68 -68.5
c14.667 -18 27.834 -36.833 39.501 -56.5s21.167 -38.667 28.5 -57s13 -35.666 17 -51.999s6 -30.166 6 -41.499c0 -24 -6.66699 -42.667 -20 -56s-30.333 -20 -51 -20c-19.333 0 -35 5.33301 -47 16c-8 7.33301 -14.833 16.5 -20.5 27.5s-10.834 23.167 -15.501 36.5
c-25.333 76 -65.166 134.667 -119.499 176s-121.166 62 -200.499 62c-96.667 0 -178 -34 -244 -102c-22.667 -23.333 -40.667 -48.166 -54 -74.499s-23.333 -58 -30 -95s-11 -81 -13 -132s-3 -112.5 -3 -184.5s1 -133.5 3 -184.5s6.33301 -95 13 -132s16.667 -68.667 30 -95
s31.333 -51.166 54 -74.499c66 -68 147.333 -102 244 -102c79.333 0 146.166 20.667 200.499 62s94.166 100 119.499 176c4.66699 13.333 9.83398 25.5 15.501 36.5s12.5 20.167 20.5 27.5c12 10.667 27.667 16 47 16c20.667 0 37.667 -6.66699 51 -20s20 -32 20 -56
c0 -11.333 -2 -25.166 -6 -41.499s-9.66699 -33.833 -17 -52.5s-16.833 -37.667 -28.5 -57s-24.834 -38 -39.501 -56c-20 -24.667 -42.667 -47.5 -68 -68.5s-53.5 -39 -84.5 -54s-65.5 -26.833 -103.5 -35.5s-80 -13 -126 -13c-73.333 0 -139.666 12.333 -198.999 37
s-111 59 -155 103c-34 34 -60.667 68.167 -80 102.5s-33.833 73.5 -43.5 117.5s-15.667 95.167 -18 153.5s-3.5 128.5 -3.5 210.5zM592 -175.005c5.33301 9.33301 10.666 17.333 15.999 24s11 12.334 17 17.001c10.667 8 22.667 12 36 12c12.667 0 24.667 -3.66699 36 -11
c23.333 -14 34.333 -33 33 -57c-0.666992 -8.66699 -2.66699 -17 -6 -25s-9.33301 -18.667 -18 -32l-102 -163c-5.33301 -9.33301 -10.666 -17.333 -15.999 -24s-11 -12.334 -17 -17.001c-11.333 -8 -23.333 -12 -36 -12c-13.333 0 -25.333 3.66699 -36 11
c-23.333 14 -34.333 33 -33 57c0.666992 8.66699 2.66699 17 6 25s9.33301 18.667 18 32z" />
    <glyph glyph-name="Egrave" unicode="&#xc8;" horiz-adv-x="1200" 
d="M1003 1424c19.333 0 33.333 -0.825195 42 -2.49219s16.667 -4.83398 24 -9.50098c19.333 -12.667 29 -31.334 29 -56.001s-9.66699 -43.334 -29 -56.001c-7.33301 -4.66699 -15.333 -7.83398 -24 -9.50098s-22.667 -2.5 -42 -2.5h-643v-502h534
c19.333 0 33.333 -0.833008 42 -2.5s16.667 -4.83398 24 -9.50098c19.333 -12.667 29 -31.334 29 -56.001s-9.66699 -43.334 -29 -56.001c-7.33301 -4.66699 -15.333 -7.83398 -24 -9.50098s-22.667 -2.5 -42 -2.5h-534v-514h643c19.333 0 33.333 -0.833008 42 -2.5
s16.667 -4.83398 24 -9.50098c19.333 -12.667 29 -31.334 29 -56.001s-9.66699 -43.334 -29 -56.001c-7.33301 -4.66699 -15.333 -7.83398 -24 -9.50098s-22.667 -2.5 -42 -2.5h-704c-12 0 -24.333 0.833008 -37 2.5s-24.334 7.83398 -35.001 18.501
s-16.834 22.334 -18.501 35.001s-2.5 25 -2.5 37v1238c0 12 0.833008 24.333 2.5 37s7.83398 24.334 18.501 35.001s22.334 16.834 35.001 18.501s25 2.5 37 2.5h704zM423 1817.01c0 24.667 11.333 44 34 58c12 7.33301 24.667 11 38 11c15.333 0 28.5 -4.5 39.5 -13.5
s22.167 -23.167 33.5 -42.5l97 -155c8.66699 -13.333 15 -24.666 19 -33.999s6 -18.666 6 -27.999c0 -24.667 -11.333 -44 -34 -58c-12 -7.33301 -24.667 -11 -38 -11c-15.333 0 -28.5 4.5 -39.5 13.5s-22.167 23.167 -33.5 42.5l-97 155
c-8.66699 13.333 -15 24.666 -19 33.999s-6 18.666 -6 27.999z" />
    <glyph glyph-name="Eacute" unicode="&#xc9;" horiz-adv-x="1200" 
d="M1003 1424c19.333 0 33.333 -0.825195 42 -2.49219s16.667 -4.83398 24 -9.50098c19.333 -12.667 29 -31.334 29 -56.001s-9.66699 -43.334 -29 -56.001c-7.33301 -4.66699 -15.333 -7.83398 -24 -9.50098s-22.667 -2.5 -42 -2.5h-643v-502h534
c19.333 0 33.333 -0.833008 42 -2.5s16.667 -4.83398 24 -9.50098c19.333 -12.667 29 -31.334 29 -56.001s-9.66699 -43.334 -29 -56.001c-7.33301 -4.66699 -15.333 -7.83398 -24 -9.50098s-22.667 -2.5 -42 -2.5h-534v-514h643c19.333 0 33.333 -0.833008 42 -2.5
s16.667 -4.83398 24 -9.50098c19.333 -12.667 29 -31.334 29 -56.001s-9.66699 -43.334 -29 -56.001c-7.33301 -4.66699 -15.333 -7.83398 -24 -9.50098s-22.667 -2.5 -42 -2.5h-704c-12 0 -24.333 0.833008 -37 2.5s-24.334 7.83398 -35.001 18.501
s-16.834 22.334 -18.501 35.001s-2.5 25 -2.5 37v1238c0 12 0.833008 24.333 2.5 37s7.83398 24.334 18.501 35.001s22.334 16.834 35.001 18.501s25 2.5 37 2.5h704zM693 1833.01c5.33301 9.33301 10.666 17.333 15.999 24s11 12.334 17 17.001c10.667 8 22.667 12 36 12
c12.667 0 24.667 -3.66699 36 -11c23.333 -14 34.333 -33 33 -57c-0.666992 -8.66699 -2.66699 -17 -6 -25s-9.33301 -18.667 -18 -32l-102 -163c-5.33301 -9.33301 -10.666 -17.333 -15.999 -24s-11 -12.334 -17 -17.001c-11.333 -8 -23.333 -12 -36 -12
c-13.333 0 -25.333 3.66699 -36 11c-23.333 14 -34.333 33 -33 57c0.666992 8.66699 2.66699 17 6 25s9.33301 18.667 18 32z" />
    <glyph glyph-name="Ecircumflex" unicode="&#xca;" horiz-adv-x="1200" 
d="M1003 1424c19.333 0 33.333 -0.825195 42 -2.49219s16.667 -4.83398 24 -9.50098c19.333 -12.667 29 -31.334 29 -56.001s-9.66699 -43.334 -29 -56.001c-7.33301 -4.66699 -15.333 -7.83398 -24 -9.50098s-22.667 -2.5 -42 -2.5h-643v-502h534
c19.333 0 33.333 -0.833008 42 -2.5s16.667 -4.83398 24 -9.50098c19.333 -12.667 29 -31.334 29 -56.001s-9.66699 -43.334 -29 -56.001c-7.33301 -4.66699 -15.333 -7.83398 -24 -9.50098s-22.667 -2.5 -42 -2.5h-534v-514h643c19.333 0 33.333 -0.833008 42 -2.5
s16.667 -4.83398 24 -9.50098c19.333 -12.667 29 -31.334 29 -56.001s-9.66699 -43.334 -29 -56.001c-7.33301 -4.66699 -15.333 -7.83398 -24 -9.50098s-22.667 -2.5 -42 -2.5h-704c-12 0 -24.333 0.833008 -37 2.5s-24.334 7.83398 -35.001 18.501
s-16.834 22.334 -18.501 35.001s-2.5 25 -2.5 37v1238c0 12 0.833008 24.333 2.5 37s7.83398 24.334 18.501 35.001s22.334 16.834 35.001 18.501s25 2.5 37 2.5h704zM473 1579.01c-11.333 -11.333 -20.5 -19.166 -27.5 -23.499s-14.167 -7.5 -21.5 -9.5
c-20 -4 -37.667 1.66699 -53 17c-16 16 -21.667 34 -17 54c2 7.33301 5 14.5 9 21.5s11.667 16.167 23 27.5l187 186c6 6 13.5 12 22.5 18s19.833 9 32.5 9s23.5 -3 32.5 -9s16.5 -12 22.5 -18l187 -186c11.333 -11.333 19 -20.5 23 -27.5s7 -14.167 9 -21.5
c4.66699 -20 -1 -38 -17 -54c-15.333 -15.333 -33 -21 -53 -17c-7.33301 2 -14.5 5.16699 -21.5 9.5s-16.167 12.166 -27.5 23.499l-155 155z" />
    <glyph glyph-name="Edieresis" unicode="&#xcb;" horiz-adv-x="1200" 
d="M1003 1424c19.333 0 33.333 -0.825195 42 -2.49219s16.667 -4.83398 24 -9.50098c19.333 -12.667 29 -31.334 29 -56.001s-9.66699 -43.334 -29 -56.001c-7.33301 -4.66699 -15.333 -7.83398 -24 -9.50098s-22.667 -2.5 -42 -2.5h-643v-502h534
c19.333 0 33.333 -0.833008 42 -2.5s16.667 -4.83398 24 -9.50098c19.333 -12.667 29 -31.334 29 -56.001s-9.66699 -43.334 -29 -56.001c-7.33301 -4.66699 -15.333 -7.83398 -24 -9.50098s-22.667 -2.5 -42 -2.5h-534v-514h643c19.333 0 33.333 -0.833008 42 -2.5
s16.667 -4.83398 24 -9.50098c19.333 -12.667 29 -31.334 29 -56.001s-9.66699 -43.334 -29 -56.001c-7.33301 -4.66699 -15.333 -7.83398 -24 -9.50098s-22.667 -2.5 -42 -2.5h-704c-12 0 -24.333 0.833008 -37 2.5s-24.334 7.83398 -35.001 18.501
s-16.834 22.334 -18.501 35.001s-2.5 25 -2.5 37v1238c0 12 0.833008 24.333 2.5 37s7.83398 24.334 18.501 35.001s22.334 16.834 35.001 18.501s25 2.5 37 2.5h704zM324 1664.01c0 25.333 8.66699 46.833 26 64.5s38.666 26.5 63.999 26.5s46.833 -8.83301 64.5 -26.5
s26.5 -39.167 26.5 -64.5s-8.83301 -46.666 -26.5 -63.999s-39.167 -26 -64.5 -26s-46.666 8.66699 -63.999 26s-26 38.666 -26 63.999zM751 1664.01c0 25.333 8.66699 46.833 26 64.5s38.666 26.5 63.999 26.5s46.833 -8.83301 64.5 -26.5s26.5 -39.167 26.5 -64.5
s-8.83301 -46.666 -26.5 -63.999s-39.167 -26 -64.5 -26s-46.666 8.66699 -63.999 26s-26 38.666 -26 63.999z" />
    <glyph glyph-name="Igrave" unicode="&#xcc;" horiz-adv-x="566" 
d="M360 96c0 -20 -0.833008 -34.667 -2.5 -44s-5.5 -18.666 -11.5 -27.999s-14.5 -17 -25.5 -23s-23.5 -9 -37.5 -9s-26.5 3 -37.5 9s-19.5 13.667 -25.5 23s-9.83301 18.666 -11.5 27.999s-2.5 24 -2.5 44v1232c0 20 0.833008 34.667 2.5 44s5.5 18.666 11.5 27.999
s14.5 17 25.5 23s23.5 9 37.5 9s26.5 -3 37.5 -9s19.5 -13.667 25.5 -23s9.83301 -18.666 11.5 -27.999s2.5 -24 2.5 -44v-1232zM79 1817c0 24.667 11.333 44 34 58c12 7.33301 24.667 11 38 11c15.333 0 28.5 -4.5 39.5 -13.5s22.167 -23.167 33.5 -42.5l97 -155
c8.66699 -13.333 15 -24.666 19 -33.999s6 -18.666 6 -27.999c0 -24.667 -11.333 -44 -34 -58c-12 -7.33301 -24.667 -11 -38 -11c-15.333 0 -28.5 4.5 -39.5 13.5s-22.167 23.167 -33.5 42.5l-97 155c-8.66699 13.333 -15 24.666 -19 33.999s-6 18.666 -6 27.999z" />
    <glyph glyph-name="Iacute" unicode="&#xcd;" horiz-adv-x="566" 
d="M360 96c0 -20 -0.833008 -34.667 -2.5 -44s-5.5 -18.666 -11.5 -27.999s-14.5 -17 -25.5 -23s-23.5 -9 -37.5 -9s-26.5 3 -37.5 9s-19.5 13.667 -25.5 23s-9.83301 18.666 -11.5 27.999s-2.5 24 -2.5 44v1232c0 20 0.833008 34.667 2.5 44s5.5 18.666 11.5 27.999
s14.5 17 25.5 23s23.5 9 37.5 9s26.5 -3 37.5 -9s19.5 -13.667 25.5 -23s9.83301 -18.666 11.5 -27.999s2.5 -24 2.5 -44v-1232zM349 1833c5.33301 9.33301 10.666 17.333 15.999 24s11 12.334 17 17.001c10.667 8 22.667 12 36 12c12.667 0 24.667 -3.66699 36 -11
c23.333 -14 34.333 -33 33 -57c-0.666992 -8.66699 -2.66699 -17 -6 -25s-9.33301 -18.667 -18 -32l-102 -163c-5.33301 -9.33301 -10.666 -17.333 -15.999 -24s-11 -12.334 -17 -17.001c-11.333 -8 -23.333 -12 -36 -12c-13.333 0 -25.333 3.66699 -36 11
c-23.333 14 -34.333 33 -33 57c0.666992 8.66699 2.66699 17 6 25s9.33301 18.667 18 32z" />
    <glyph glyph-name="Icircumflex" unicode="&#xce;" horiz-adv-x="566" 
d="M360 96c0 -20 -0.833008 -34.667 -2.5 -44s-5.5 -18.666 -11.5 -27.999s-14.5 -17 -25.5 -23s-23.5 -9 -37.5 -9s-26.5 3 -37.5 9s-19.5 13.667 -25.5 23s-9.83301 18.666 -11.5 27.999s-2.5 24 -2.5 44v1232c0 20 0.833008 34.667 2.5 44s5.5 18.666 11.5 27.999
s14.5 17 25.5 23s23.5 9 37.5 9s26.5 -3 37.5 -9s19.5 -13.667 25.5 -23s9.83301 -18.666 11.5 -27.999s2.5 -24 2.5 -44v-1232zM129 1579c-11.333 -11.333 -20.5 -19.166 -27.5 -23.499s-14.167 -7.5 -21.5 -9.5c-20 -4 -37.667 1.66699 -53 17c-16 16 -21.667 34 -17 54
c2 7.33301 5 14.5 9 21.5s11.667 16.167 23 27.5l187 186c6 6 13.5 12 22.5 18s19.833 9 32.5 9s23.5 -3 32.5 -9s16.5 -12 22.5 -18l187 -186c11.333 -11.333 19 -20.5 23 -27.5s7 -14.167 9 -21.5c4.66699 -20 -1 -38 -17 -54c-15.333 -15.333 -33 -21 -53 -17
c-7.33301 2 -14.5 5.16699 -21.5 9.5s-16.167 12.166 -27.5 23.499l-155 155z" />
    <glyph glyph-name="Idieresis" unicode="&#xcf;" horiz-adv-x="566" 
d="M5 1664c0 25.333 8.66699 46.833 26 64.5s38.666 26.5 63.999 26.5s46.833 -8.83301 64.5 -26.5s26.5 -39.167 26.5 -64.5s-8.83301 -46.666 -26.5 -63.999s-39.167 -26 -64.5 -26s-46.666 8.66699 -63.999 26s-26 38.666 -26 63.999zM380 1664
c0 25.333 8.66699 46.833 26 64.5s38.666 26.5 63.999 26.5s46.833 -8.83301 64.5 -26.5s26.5 -39.167 26.5 -64.5s-8.83301 -46.666 -26.5 -63.999s-39.167 -26 -64.5 -26s-46.666 8.66699 -63.999 26s-26 38.666 -26 63.999zM360 96c0 -20 -0.833008 -34.667 -2.5 -44
s-5.5 -18.666 -11.5 -27.999s-14.5 -17 -25.5 -23s-23.5 -9 -37.5 -9s-26.5 3 -37.5 9s-19.5 13.667 -25.5 23s-9.83301 18.666 -11.5 27.999s-2.5 24 -2.5 44v1232c0 20 0.833008 34.667 2.5 44s5.5 18.666 11.5 27.999s14.5 17 25.5 23s23.5 9 37.5 9s26.5 -3 37.5 -9
s19.5 -13.667 25.5 -23s9.83301 -18.666 11.5 -27.999s2.5 -24 2.5 -44v-1232z" />
    <glyph glyph-name="Eth" unicode="&#xd0;" horiz-adv-x="1378" 
d="M327 0c-12 0 -24.333 0.831055 -37 2.49805s-24.334 7.83398 -35.001 18.501s-16.834 22.334 -18.501 35.001s-2.5 25 -2.5 37v563h-86c-16 0 -28.167 0.666992 -36.5 2s-16.166 4.33301 -23.499 9c-17.333 11.333 -26 28.333 -26 51s8.66699 39.667 26 51
c7.33301 4.66699 15.166 7.66699 23.499 9s20.5 2 36.5 2h86v551c0 12 0.833008 24.333 2.5 37s7.83398 24.334 18.501 35.001s22.334 16.834 35.001 18.501s25 2.5 37 2.5h397c80.667 0 151.334 -12 212.001 -36s115.334 -62 164.001 -114
c31.333 -34 55.5 -72.167 72.5 -114.5s29.5 -87.5 37.5 -135.5s12.667 -98.333 14 -151s2 -106.334 2 -161.001s-0.666992 -108.334 -2 -161.001s-6 -103 -14 -151s-20.5 -93.167 -37.5 -135.5s-41.167 -80.5 -72.5 -114.5c-48.667 -52 -103.334 -90 -164.001 -114
s-131.334 -36 -212.001 -36h-397zM388 1288v-508.002h250c16 0 28.167 -0.666992 36.5 -2s16.166 -4.33301 23.499 -9c17.333 -11.333 26 -28.333 26 -51s-8.66699 -39.667 -26 -51c-7.33301 -4.66699 -15.166 -7.66699 -23.499 -9s-20.5 -2 -36.5 -2h-250v-520h310
c54.667 0 106.167 7.5 154.5 22.5s90.5 42.5 126.5 82.5c22.667 24.667 40.167 53.834 52.5 87.501s21.5 70.667 27.5 111s9.66699 83.5 11 129.5s2 93.667 2 143s-0.666992 97 -2 143s-5 89.167 -11 129.5s-15.167 77.333 -27.5 111s-29.833 62.834 -52.5 87.501
c-36 40 -78.167 67.5 -126.5 82.5s-99.833 22.5 -154.5 22.5h-310z" />
    <glyph glyph-name="Ntilde" unicode="&#xd1;" horiz-adv-x="1466" 
d="M1260 93c0 -35.333 -8 -61 -24 -77s-35.333 -24 -58 -24c-18.667 0 -34.5 5.33301 -47.5 16s-26.167 25.667 -39.5 45l-731 1080v-1037c0 -20 -0.833008 -34.667 -2.5 -44s-5.5 -18.666 -11.5 -27.999s-14.5 -17 -25.5 -23s-23.5 -9 -37.5 -9s-26.5 3 -37.5 9
s-19.5 13.667 -25.5 23s-9.83301 18.666 -11.5 27.999s-2.5 24 -2.5 44v1235c0 35.333 8 61 24 77c14.667 16 34 24 58 24c18.667 0 34.5 -5.33301 47.5 -16s26.167 -25.667 39.5 -45l731 -1080v1037c0 20 0.833008 34.667 2.5 44s5.5 18.666 11.5 27.999s14.5 17 25.5 23
s23.5 9 37.5 9s26.5 -3 37.5 -9s19.5 -13.667 25.5 -23s9.83301 -18.666 11.5 -27.999s2.5 -24 2.5 -44v-1235zM717 1620c-19.333 11.333 -37.666 21 -54.999 29s-36 12 -56 12c-14 0 -27.333 -1.83301 -40 -5.5s-28.667 -13.834 -48 -30.501
c-9.33301 -7.33301 -18 -13.5 -26 -18.5s-16.333 -7.5 -25 -7.5c-14.667 0 -27 5 -37 15s-15 23 -15 39c0 9.33301 2.66699 19 8 29s14.666 20.667 27.999 32c16 14 31 25.167 45 33.5s27.333 14.5 40 18.5s24.5 6.66699 35.5 8s21.833 2 32.5 2
c29.333 0 54.166 -4 74.499 -12s43.166 -19.333 68.499 -34c19.333 -11.333 37.666 -21 54.999 -29s36 -12 56 -12c14 0 27.333 1.83301 40 5.5s28.667 13.834 48 30.501c9.33301 7.33301 18 13.5 26 18.5s16.333 7.5 25 7.5c14.667 0 27 -5 37 -15s15 -23 15 -39
c0 -9.33301 -2.66699 -19 -8 -29s-14.666 -20.667 -27.999 -32c-16 -14 -31 -25.167 -45 -33.5s-27.333 -14.5 -40 -18.5s-24.5 -6.66699 -35.5 -8s-21.833 -2 -32.5 -2c-29.333 0 -54.166 3.83301 -74.499 11.5s-43.166 19.167 -68.499 34.5z" />
    <glyph glyph-name="Ograve" unicode="&#xd2;" horiz-adv-x="1304" 
d="M652 1436c74.667 0 141.667 -12.333 201 -37s111 -59 155 -103c34 -34 60.5 -68.167 79.5 -102.5s33.333 -73.5 43 -117.5s15.667 -95.167 18 -153.5s3.5 -128.5 3.5 -210.5s-1.16699 -152.167 -3.5 -210.5s-8.33301 -109.5 -18 -153.5s-24 -83.167 -43 -117.5
s-45.5 -68.5 -79.5 -102.5c-44 -44 -95.667 -78.333 -155 -103s-126.333 -37 -201 -37s-141.667 12.333 -201 37s-111 59 -155 103c-34 34 -60.5 68.167 -79.5 102.5s-33.333 73.5 -43 117.5s-15.667 95.167 -18 153.5s-3.5 128.5 -3.5 210.5s1.16699 152.167 3.5 210.5
s8.33301 109.5 18 153.5s24 83.167 43 117.5s45.5 68.5 79.5 102.5c44 44 95.667 78.333 155 103s126.333 37 201 37zM652 124c98 0 180 34 246 102c22 22.667 39.667 47 53 73s23.5 57.333 30.5 94s11.5 80.667 13.5 132s3 113.666 3 186.999s-1 135.666 -3 186.999
s-6.5 95.333 -13.5 132s-17.167 68 -30.5 94s-31 50.333 -53 73c-66 68 -148 102 -246 102s-180 -34 -246 -102c-22 -22.667 -39.667 -47 -53 -73s-23.5 -57.333 -30.5 -94s-11.5 -80.667 -13.5 -132s-3 -113.666 -3 -186.999s1 -135.666 3 -186.999s6.5 -95.333 13.5 -132
s17.167 -68 30.5 -94s31 -50.333 53 -73c66 -68 148 -102 246 -102zM445 1817c0 24.667 11.333 44 34 58c12 7.33301 24.667 11 38 11c15.333 0 28.5 -4.5 39.5 -13.5s22.167 -23.167 33.5 -42.5l97 -155c8.66699 -13.333 15 -24.666 19 -33.999s6 -18.666 6 -27.999
c0 -24.667 -11.333 -44 -34 -58c-12 -7.33301 -24.667 -11 -38 -11c-15.333 0 -28.5 4.5 -39.5 13.5s-22.167 23.167 -33.5 42.5l-97 155c-8.66699 13.333 -15 24.666 -19 33.999s-6 18.666 -6 27.999z" />
    <glyph glyph-name="Oacute" unicode="&#xd3;" horiz-adv-x="1304" 
d="M652 1436c74.667 0 141.667 -12.333 201 -37s111 -59 155 -103c34 -34 60.5 -68.167 79.5 -102.5s33.333 -73.5 43 -117.5s15.667 -95.167 18 -153.5s3.5 -128.5 3.5 -210.5s-1.16699 -152.167 -3.5 -210.5s-8.33301 -109.5 -18 -153.5s-24 -83.167 -43 -117.5
s-45.5 -68.5 -79.5 -102.5c-44 -44 -95.667 -78.333 -155 -103s-126.333 -37 -201 -37s-141.667 12.333 -201 37s-111 59 -155 103c-34 34 -60.5 68.167 -79.5 102.5s-33.333 73.5 -43 117.5s-15.667 95.167 -18 153.5s-3.5 128.5 -3.5 210.5s1.16699 152.167 3.5 210.5
s8.33301 109.5 18 153.5s24 83.167 43 117.5s45.5 68.5 79.5 102.5c44 44 95.667 78.333 155 103s126.333 37 201 37zM652 124c98 0 180 34 246 102c22 22.667 39.667 47 53 73s23.5 57.333 30.5 94s11.5 80.667 13.5 132s3 113.666 3 186.999s-1 135.666 -3 186.999
s-6.5 95.333 -13.5 132s-17.167 68 -30.5 94s-31 50.333 -53 73c-66 68 -148 102 -246 102s-180 -34 -246 -102c-22 -22.667 -39.667 -47 -53 -73s-23.5 -57.333 -30.5 -94s-11.5 -80.667 -13.5 -132s-3 -113.666 -3 -186.999s1 -135.666 3 -186.999s6.5 -95.333 13.5 -132
s17.167 -68 30.5 -94s31 -50.333 53 -73c66 -68 148 -102 246 -102zM715 1833c5.33301 9.33301 10.666 17.333 15.999 24s11 12.334 17 17.001c10.667 8 22.667 12 36 12c12.667 0 24.667 -3.66699 36 -11c23.333 -14 34.333 -33 33 -57
c-0.666992 -8.66699 -2.66699 -17 -6 -25s-9.33301 -18.667 -18 -32l-102 -163c-5.33301 -9.33301 -10.666 -17.333 -15.999 -24s-11 -12.334 -17 -17.001c-11.333 -8 -23.333 -12 -36 -12c-13.333 0 -25.333 3.66699 -36 11c-23.333 14 -34.333 33 -33 57
c0.666992 8.66699 2.66699 17 6 25s9.33301 18.667 18 32z" />
    <glyph glyph-name="Ocircumflex" unicode="&#xd4;" horiz-adv-x="1304" 
d="M652 1436c74.667 0 141.667 -12.333 201 -37s111 -59 155 -103c34 -34 60.5 -68.167 79.5 -102.5s33.333 -73.5 43 -117.5s15.667 -95.167 18 -153.5s3.5 -128.5 3.5 -210.5s-1.16699 -152.167 -3.5 -210.5s-8.33301 -109.5 -18 -153.5s-24 -83.167 -43 -117.5
s-45.5 -68.5 -79.5 -102.5c-44 -44 -95.667 -78.333 -155 -103s-126.333 -37 -201 -37s-141.667 12.333 -201 37s-111 59 -155 103c-34 34 -60.5 68.167 -79.5 102.5s-33.333 73.5 -43 117.5s-15.667 95.167 -18 153.5s-3.5 128.5 -3.5 210.5s1.16699 152.167 3.5 210.5
s8.33301 109.5 18 153.5s24 83.167 43 117.5s45.5 68.5 79.5 102.5c44 44 95.667 78.333 155 103s126.333 37 201 37zM652 124c98 0 180 34 246 102c22 22.667 39.667 47 53 73s23.5 57.333 30.5 94s11.5 80.667 13.5 132s3 113.666 3 186.999s-1 135.666 -3 186.999
s-6.5 95.333 -13.5 132s-17.167 68 -30.5 94s-31 50.333 -53 73c-66 68 -148 102 -246 102s-180 -34 -246 -102c-22 -22.667 -39.667 -47 -53 -73s-23.5 -57.333 -30.5 -94s-11.5 -80.667 -13.5 -132s-3 -113.666 -3 -186.999s1 -135.666 3 -186.999s6.5 -95.333 13.5 -132
s17.167 -68 30.5 -94s31 -50.333 53 -73c66 -68 148 -102 246 -102zM495 1579c-11.333 -11.333 -20.5 -19.166 -27.5 -23.499s-14.167 -7.5 -21.5 -9.5c-20 -4 -37.667 1.66699 -53 17c-16 16 -21.667 34 -17 54c2 7.33301 5 14.5 9 21.5s11.667 16.167 23 27.5l187 186
c6 6 13.5 12 22.5 18s19.833 9 32.5 9s23.5 -3 32.5 -9s16.5 -12 22.5 -18l187 -186c11.333 -11.333 19 -20.5 23 -27.5s7 -14.167 9 -21.5c4.66699 -20 -1 -38 -17 -54c-15.333 -15.333 -33 -21 -53 -17c-7.33301 2 -14.5 5.16699 -21.5 9.5s-16.167 12.166 -27.5 23.499
l-155 155z" />
    <glyph glyph-name="Otilde" unicode="&#xd5;" horiz-adv-x="1304" 
d="M652 1436c74.667 0 141.667 -12.333 201 -37s111 -59 155 -103c34 -34 60.5 -68.167 79.5 -102.5s33.333 -73.5 43 -117.5s15.667 -95.167 18 -153.5s3.5 -128.5 3.5 -210.5s-1.16699 -152.167 -3.5 -210.5s-8.33301 -109.5 -18 -153.5s-24 -83.167 -43 -117.5
s-45.5 -68.5 -79.5 -102.5c-44 -44 -95.667 -78.333 -155 -103s-126.333 -37 -201 -37s-141.667 12.333 -201 37s-111 59 -155 103c-34 34 -60.5 68.167 -79.5 102.5s-33.333 73.5 -43 117.5s-15.667 95.167 -18 153.5s-3.5 128.5 -3.5 210.5s1.16699 152.167 3.5 210.5
s8.33301 109.5 18 153.5s24 83.167 43 117.5s45.5 68.5 79.5 102.5c44 44 95.667 78.333 155 103s126.333 37 201 37zM652 124c98 0 180 34 246 102c22 22.667 39.667 47 53 73s23.5 57.333 30.5 94s11.5 80.667 13.5 132s3 113.666 3 186.999s-1 135.666 -3 186.999
s-6.5 95.333 -13.5 132s-17.167 68 -30.5 94s-31 50.333 -53 73c-66 68 -148 102 -246 102s-180 -34 -246 -102c-22 -22.667 -39.667 -47 -53 -73s-23.5 -57.333 -30.5 -94s-11.5 -80.667 -13.5 -132s-3 -113.666 -3 -186.999s1 -135.666 3 -186.999s6.5 -95.333 13.5 -132
s17.167 -68 30.5 -94s31 -50.333 53 -73c66 -68 148 -102 246 -102zM635 1620c-19.333 11.333 -37.666 21 -54.999 29s-36 12 -56 12c-14 0 -27.333 -1.83301 -40 -5.5s-28.667 -13.834 -48 -30.501c-9.33301 -7.33301 -18 -13.5 -26 -18.5s-16.333 -7.5 -25 -7.5
c-14.667 0 -27 5 -37 15s-15 23 -15 39c0 9.33301 2.66699 19 8 29s14.666 20.667 27.999 32c16 14 31 25.167 45 33.5s27.333 14.5 40 18.5s24.5 6.66699 35.5 8s21.833 2 32.5 2c29.333 0 54.166 -4 74.499 -12s43.166 -19.333 68.499 -34
c19.333 -11.333 37.666 -21 54.999 -29s36 -12 56 -12c14 0 27.333 1.83301 40 5.5s28.667 13.834 48 30.501c9.33301 7.33301 18 13.5 26 18.5s16.333 7.5 25 7.5c14.667 0 27 -5 37 -15s15 -23 15 -39c0 -9.33301 -2.66699 -19 -8 -29s-14.666 -20.667 -27.999 -32
c-16 -14 -31 -25.167 -45 -33.5s-27.333 -14.5 -40 -18.5s-24.5 -6.66699 -35.5 -8s-21.833 -2 -32.5 -2c-29.333 0 -54.166 3.83301 -74.499 11.5s-43.166 19.167 -68.499 34.5z" />
    <glyph glyph-name="Odieresis" unicode="&#xd6;" horiz-adv-x="1304" 
d="M652 1436c74.667 0 141.667 -12.333 201 -37s111 -59 155 -103c34 -34 60.5 -68.167 79.5 -102.5s33.333 -73.5 43 -117.5s15.667 -95.167 18 -153.5s3.5 -128.5 3.5 -210.5s-1.16699 -152.167 -3.5 -210.5s-8.33301 -109.5 -18 -153.5s-24 -83.167 -43 -117.5
s-45.5 -68.5 -79.5 -102.5c-44 -44 -95.667 -78.333 -155 -103s-126.333 -37 -201 -37s-141.667 12.333 -201 37s-111 59 -155 103c-34 34 -60.5 68.167 -79.5 102.5s-33.333 73.5 -43 117.5s-15.667 95.167 -18 153.5s-3.5 128.5 -3.5 210.5s1.16699 152.167 3.5 210.5
s8.33301 109.5 18 153.5s24 83.167 43 117.5s45.5 68.5 79.5 102.5c44 44 95.667 78.333 155 103s126.333 37 201 37zM652 124c98 0 180 34 246 102c22 22.667 39.667 47 53 73s23.5 57.333 30.5 94s11.5 80.667 13.5 132s3 113.666 3 186.999s-1 135.666 -3 186.999
s-6.5 95.333 -13.5 132s-17.167 68 -30.5 94s-31 50.333 -53 73c-66 68 -148 102 -246 102s-180 -34 -246 -102c-22 -22.667 -39.667 -47 -53 -73s-23.5 -57.333 -30.5 -94s-11.5 -80.667 -13.5 -132s-3 -113.666 -3 -186.999s1 -135.666 3 -186.999s6.5 -95.333 13.5 -132
s17.167 -68 30.5 -94s31 -50.333 53 -73c66 -68 148 -102 246 -102zM346 1664c0 25.333 8.66699 46.833 26 64.5s38.666 26.5 63.999 26.5s46.833 -8.83301 64.5 -26.5s26.5 -39.167 26.5 -64.5s-8.83301 -46.666 -26.5 -63.999s-39.167 -26 -64.5 -26
s-46.666 8.66699 -63.999 26s-26 38.666 -26 63.999zM773 1664c0 25.333 8.66699 46.833 26 64.5s38.666 26.5 63.999 26.5s46.833 -8.83301 64.5 -26.5s26.5 -39.167 26.5 -64.5s-8.83301 -46.666 -26.5 -63.999s-39.167 -26 -64.5 -26s-46.666 8.66699 -63.999 26
s-26 38.666 -26 63.999z" />
    <glyph glyph-name="multiply" unicode="&#xd7;" 
d="M199 765c-13.333 13.333 -22.333 23.666 -27 30.999s-8 15 -10 23c-5.33301 22 1 42 19 60s38 24.333 60 19c8 -2 15.667 -5.33301 23 -10s17.666 -13.667 30.999 -27l227 -226l227 226c13.333 13.333 23.666 22.333 30.999 27s15 8 23 10c22 5.33301 42 -1 60 -19
s24.333 -38 19 -60c-2 -8 -5.33301 -15.667 -10 -23s-13.667 -17.666 -27 -30.999l-227 -226l227 -226c13.333 -13.333 22.333 -23.666 27 -30.999s8 -15 10 -23c5.33301 -22 -1 -42 -19 -60s-38 -24.333 -60 -19c-8 2 -15.667 5.33301 -23 10s-17.666 13.667 -30.999 27
l-227 226l-227 -226c-13.333 -13.333 -23.666 -22.333 -30.999 -27s-15 -8 -23 -10c-22 -5.33301 -42 1 -60 19s-24.333 38 -19 60c2 8 5.33301 15.667 10 23s13.667 17.666 27 30.999l227 226z" />
    <glyph glyph-name="Oslash" unicode="&#xd8;" horiz-adv-x="1304" 
d="M301 125c-34.667 34 -62.001 68.499 -82.001 103.499s-35 74.833 -45 119.5s-16.167 96.167 -18.5 154.5s-3.5 128.166 -3.5 209.499c0 82 1.16699 152.167 3.5 210.5s8.33301 109.5 18 153.5s24 83.167 43 117.5s45.5 68.5 79.5 102.5c44 44 95.667 78.333 155 103
s126.333 37 201 37c46.667 0 90.5 -5.33301 131.5 -16s79.167 -26 114.5 -46l43 87c7.33301 14 13.333 24.5 18 31.5s10 12.833 16 17.5c10 7.33301 20.667 11 32 11s21.666 -2.33301 30.999 -7s17.5 -11.5 24.5 -20.5s10.5 -19.833 10.5 -32.5
c0 -7.33301 -1.16699 -15.166 -3.5 -23.499s-7.16602 -19.5 -14.499 -33.5l-53 -105c34.667 -34.667 62 -69.5 82 -104.5s35 -74.667 45 -119s16.333 -95.666 19 -153.999s4 -128.166 4 -209.499c0 -82 -1.16699 -152.167 -3.5 -210.5s-8.33301 -109.5 -18 -153.5
s-24 -83.167 -43 -117.5s-45.5 -68.5 -79.5 -102.5c-44 -44 -95.667 -78.333 -155 -103s-126.333 -37 -201 -37c-93.333 0 -175.666 20.333 -246.999 61l-42 -85c-7.33301 -14 -13.333 -24.5 -18 -31.5s-10 -12.833 -16 -17.5c-10 -7.33301 -20.667 -11 -32 -11
s-21.666 2.33301 -30.999 7s-17.5 11.5 -24.5 20.5s-10.5 19.833 -10.5 32.5c0 7.33301 1.16699 15.166 3.5 23.499s7.16602 19.5 14.499 33.5zM844.999 1244c-56 38 -120.333 56.999 -193 56.999c-98 0 -180.333 -34 -247 -102c-22 -22.667 -39.667 -47 -53 -73
s-23.333 -57.5 -30 -94.5s-11 -81.167 -13 -132.5s-3 -113.666 -3 -186.999c0 -60.667 0.666992 -113.5 2 -158.5s4.5 -84.667 9.5 -119s12.5 -64.5 22.5 -90.5s23.667 -50 41 -72zM651.999 122.998c98 0 180 34.001 246 102.001c22 22.667 39.667 47 53 73
s23.5 57.5 30.5 94.5s11.5 81.167 13.5 132.5s3 113.666 3 186.999c0 60.667 -0.666992 113.5 -2 158.5s-4.5 84.667 -9.5 119s-12.5 64.5 -22.5 90.5s-23.667 50 -41 72l-464 -972c56 -38 120.333 -57 193 -57z" />
    <glyph glyph-name="Ugrave" unicode="&#xd9;" horiz-adv-x="1368" 
d="M1183 470c0 -71.333 -12.501 -136.5 -37.501 -195.5s-59.667 -109.667 -104 -152s-97.166 -75.333 -158.499 -99s-128 -35.5 -200 -35.5s-138.5 11.833 -199.5 35.5s-113.667 56.667 -158 99s-78.833 93 -103.5 152s-37 124.167 -37 195.5v858
c0 20 0.833008 34.667 2.5 44s5.5 18.666 11.5 27.999s14.5 17 25.5 23s23.5 9 37.5 9s26.5 -3 37.5 -9s19.5 -13.667 25.5 -23s9.83301 -18.666 11.5 -27.999s2.5 -24 2.5 -44v-846c0 -54 8.16699 -103 24.5 -147s39.5 -81.667 69.5 -113s66.167 -55.5 108.5 -72.5
s89.5 -25.5 141.5 -25.5s99.333 8.5 142 25.5s79 41.167 109 72.5s53.333 69 70 113s25 93 25 147v846c0 20 0.833008 34.667 2.5 44s5.5 18.666 11.5 27.999s14.5 17 25.5 23s23.5 9 37.5 9s26.5 -3 37.5 -9s19.5 -13.667 25.5 -23s9.83301 -18.666 11.5 -27.999
s2.5 -24 2.5 -44v-858zM477.999 1817c0 24.667 11.333 44 34 58c12 7.33301 24.667 11 38 11c15.333 0 28.5 -4.5 39.5 -13.5s22.167 -23.167 33.5 -42.5l97 -155c8.66699 -13.333 15 -24.666 19 -33.999s6 -18.666 6 -27.999c0 -24.667 -11.333 -44 -34 -58
c-12 -7.33301 -24.667 -11 -38 -11c-15.333 0 -28.5 4.5 -39.5 13.5s-22.167 23.167 -33.5 42.5l-97 155c-8.66699 13.333 -15 24.666 -19 33.999s-6 18.666 -6 27.999z" />
    <glyph glyph-name="Uacute" unicode="&#xda;" horiz-adv-x="1368" 
d="M1183 470c0 -71.333 -12.501 -136.5 -37.501 -195.5s-59.667 -109.667 -104 -152s-97.166 -75.333 -158.499 -99s-128 -35.5 -200 -35.5s-138.5 11.833 -199.5 35.5s-113.667 56.667 -158 99s-78.833 93 -103.5 152s-37 124.167 -37 195.5v858
c0 20 0.833008 34.667 2.5 44s5.5 18.666 11.5 27.999s14.5 17 25.5 23s23.5 9 37.5 9s26.5 -3 37.5 -9s19.5 -13.667 25.5 -23s9.83301 -18.666 11.5 -27.999s2.5 -24 2.5 -44v-846c0 -54 8.16699 -103 24.5 -147s39.5 -81.667 69.5 -113s66.167 -55.5 108.5 -72.5
s89.5 -25.5 141.5 -25.5s99.333 8.5 142 25.5s79 41.167 109 72.5s53.333 69 70 113s25 93 25 147v846c0 20 0.833008 34.667 2.5 44s5.5 18.666 11.5 27.999s14.5 17 25.5 23s23.5 9 37.5 9s26.5 -3 37.5 -9s19.5 -13.667 25.5 -23s9.83301 -18.666 11.5 -27.999
s2.5 -24 2.5 -44v-858zM747.999 1833c5.33301 9.33301 10.666 17.333 15.999 24s11 12.334 17 17.001c10.667 8 22.667 12 36 12c12.667 0 24.667 -3.66699 36 -11c23.333 -14 34.333 -33 33 -57c-0.666992 -8.66699 -2.66699 -17 -6 -25s-9.33301 -18.667 -18 -32
l-102 -163c-5.33301 -9.33301 -10.666 -17.333 -15.999 -24s-11 -12.334 -17 -17.001c-11.333 -8 -23.333 -12 -36 -12c-13.333 0 -25.333 3.66699 -36 11c-23.333 14 -34.333 33 -33 57c0.666992 8.66699 2.66699 17 6 25s9.33301 18.667 18 32z" />
    <glyph glyph-name="Ucircumflex" unicode="&#xdb;" horiz-adv-x="1368" 
d="M1183 470c0 -71.333 -12.501 -136.5 -37.501 -195.5s-59.667 -109.667 -104 -152s-97.166 -75.333 -158.499 -99s-128 -35.5 -200 -35.5s-138.5 11.833 -199.5 35.5s-113.667 56.667 -158 99s-78.833 93 -103.5 152s-37 124.167 -37 195.5v858
c0 20 0.833008 34.667 2.5 44s5.5 18.666 11.5 27.999s14.5 17 25.5 23s23.5 9 37.5 9s26.5 -3 37.5 -9s19.5 -13.667 25.5 -23s9.83301 -18.666 11.5 -27.999s2.5 -24 2.5 -44v-846c0 -54 8.16699 -103 24.5 -147s39.5 -81.667 69.5 -113s66.167 -55.5 108.5 -72.5
s89.5 -25.5 141.5 -25.5s99.333 8.5 142 25.5s79 41.167 109 72.5s53.333 69 70 113s25 93 25 147v846c0 20 0.833008 34.667 2.5 44s5.5 18.666 11.5 27.999s14.5 17 25.5 23s23.5 9 37.5 9s26.5 -3 37.5 -9s19.5 -13.667 25.5 -23s9.83301 -18.666 11.5 -27.999
s2.5 -24 2.5 -44v-858zM527.999 1579c-11.333 -11.333 -20.5 -19.166 -27.5 -23.499s-14.167 -7.5 -21.5 -9.5c-20 -4 -37.667 1.66699 -53 17c-16 16 -21.667 34 -17 54c2 7.33301 5 14.5 9 21.5s11.667 16.167 23 27.5l187 186c6 6 13.5 12 22.5 18s19.833 9 32.5 9
s23.5 -3 32.5 -9s16.5 -12 22.5 -18l187 -186c11.333 -11.333 19 -20.5 23 -27.5s7 -14.167 9 -21.5c4.66699 -20 -1 -38 -17 -54c-15.333 -15.333 -33 -21 -53 -17c-7.33301 2 -14.5 5.16699 -21.5 9.5s-16.167 12.166 -27.5 23.499l-155 155z" />
    <glyph glyph-name="Udieresis" unicode="&#xdc;" horiz-adv-x="1368" 
d="M1183 470c0 -71.333 -12.501 -136.5 -37.501 -195.5s-59.667 -109.667 -104 -152s-97.166 -75.333 -158.499 -99s-128 -35.5 -200 -35.5s-138.5 11.833 -199.5 35.5s-113.667 56.667 -158 99s-78.833 93 -103.5 152s-37 124.167 -37 195.5v858
c0 20 0.833008 34.667 2.5 44s5.5 18.666 11.5 27.999s14.5 17 25.5 23s23.5 9 37.5 9s26.5 -3 37.5 -9s19.5 -13.667 25.5 -23s9.83301 -18.666 11.5 -27.999s2.5 -24 2.5 -44v-846c0 -54 8.16699 -103 24.5 -147s39.5 -81.667 69.5 -113s66.167 -55.5 108.5 -72.5
s89.5 -25.5 141.5 -25.5s99.333 8.5 142 25.5s79 41.167 109 72.5s53.333 69 70 113s25 93 25 147v846c0 20 0.833008 34.667 2.5 44s5.5 18.666 11.5 27.999s14.5 17 25.5 23s23.5 9 37.5 9s26.5 -3 37.5 -9s19.5 -13.667 25.5 -23s9.83301 -18.666 11.5 -27.999
s2.5 -24 2.5 -44v-858zM378.999 1664c0 25.333 8.66699 46.833 26 64.5s38.666 26.5 63.999 26.5s46.833 -8.83301 64.5 -26.5s26.5 -39.167 26.5 -64.5s-8.83301 -46.666 -26.5 -63.999s-39.167 -26 -64.5 -26s-46.666 8.66699 -63.999 26s-26 38.666 -26 63.999z
M805.999 1664c0 25.333 8.66699 46.833 26 64.5s38.666 26.5 63.999 26.5s46.833 -8.83301 64.5 -26.5s26.5 -39.167 26.5 -64.5s-8.83301 -46.666 -26.5 -63.999s-39.167 -26 -64.5 -26s-46.666 8.66699 -63.999 26s-26 38.666 -26 63.999z" />
    <glyph glyph-name="Yacute" unicode="&#xdd;" horiz-adv-x="1008" 
d="M581 582l0.00195312 -486c0 -20 -0.833008 -34.667 -2.5 -44s-5.5 -18.666 -11.5 -27.999s-14.5 -17 -25.5 -23s-23.5 -9 -37.5 -9s-26.5 3 -37.5 9s-19.5 13.667 -25.5 23s-9.83301 18.666 -11.5 27.999s-2.5 24 -2.5 44v486l-361 722c-8 16 -13.5 28.667 -16.5 38
s-3.83301 18.666 -2.5 27.999c1.33301 10.667 5.16602 20.834 11.499 30.501s15.5 17.5 27.5 23.5c10.667 5.33301 22 8 34 8c5.33301 0 10.833 -0.666992 16.5 -2s11.5 -4 17.5 -8c7.33301 -5.33301 13.833 -11.666 19.5 -18.999s12.5 -19 20.5 -35l310 -620l310 620
c8 16 14.833 27.667 20.5 35s12.167 13.666 19.5 18.999c6 4 11.833 6.66699 17.5 8s11.167 2 16.5 2c12 0 23.333 -2.66699 34 -8c12 -6 21.167 -13.833 27.5 -23.5s10.166 -19.834 11.499 -30.501c1.33301 -9.33301 0.5 -18.666 -2.5 -27.999s-8.5 -22 -16.5 -38z
M570.002 1833c5.33301 9.33301 10.666 17.333 15.999 24s11 12.334 17 17.001c10.667 8 22.667 12 36 12c12.667 0 24.667 -3.66699 36 -11c23.333 -14 34.333 -33 33 -57c-0.666992 -8.66699 -2.66699 -17 -6 -25s-9.33301 -18.667 -18 -32l-102 -163
c-5.33301 -9.33301 -10.666 -17.333 -15.999 -24s-11 -12.334 -17 -17.001c-11.333 -8 -23.333 -12 -36 -12c-13.333 0 -25.333 3.66699 -36 11c-23.333 14 -34.333 33 -33 57c0.666992 8.66699 2.66699 17 6 25s9.33301 18.667 18 32z" />
    <glyph glyph-name="Thorn" unicode="&#xde;" horiz-adv-x="1289" 
d="M738 1138c64.667 0 124.167 -9.83203 178.5 -29.499s101 -47.667 140 -84s69.333 -80.333 91 -132s32.5 -109.167 32.5 -172.5s-10.833 -120.833 -32.5 -172.5s-52 -95.834 -91 -132.501s-85.667 -65 -140 -85s-113.833 -30 -178.5 -30h-378v-204
c0 -20 -0.833008 -34.667 -2.5 -44s-5.5 -18.666 -11.5 -27.999s-14.5 -17 -25.5 -23s-23.5 -9 -37.5 -9s-26.5 3 -37.5 9s-19.5 13.667 -25.5 23s-9.83301 18.666 -11.5 27.999s-2.5 24 -2.5 44v1232c0 20 0.833008 34.667 2.5 44s5.5 18.666 11.5 27.999s14.5 17 25.5 23
s23.5 9 37.5 9s26.5 -3 37.5 -9s19.5 -13.667 25.5 -23s9.83301 -18.666 11.5 -27.999s2.5 -24 2.5 -44v-190h378zM360 1002v-566h366c44.667 0 85.334 6 122.001 18s68.167 29.833 94.5 53.5s46.666 53.167 60.999 88.5s21.5 76.666 21.5 123.999
c0 46.667 -7.16699 87.667 -21.5 123s-34.666 64.833 -60.999 88.5s-57.833 41.334 -94.5 53.001s-77.334 17.5 -122.001 17.5h-366z" />
    <glyph glyph-name="germandbls" unicode="&#xdf;" horiz-adv-x="1112" 
d="M669 128c23.333 0 44.999 3.50195 64.999 10.502s36.667 17.167 50 30.5c15.333 14 26.166 30.833 32.499 50.5s9.5 43.834 9.5 72.501v346c0 28.667 -3.16699 52.5 -9.5 71.5s-16.833 35.5 -31.5 49.5c-27.333 27.333 -65.333 41 -114 41h-28
c-15.333 0 -26.833 1 -34.5 3s-14.167 4.66699 -19.5 8c-16.667 11.333 -25 27.666 -25 48.999s8.33301 37.666 25 48.999c5.33301 3.33301 11.833 6 19.5 8s19.167 3 34.5 3h12c25.333 0 48.5 4.33301 69.5 13s39 20.834 54 36.501s26.667 34.5 35 56.5
s12.5 46.667 12.5 74c0 30 -5.5 58.167 -16.5 84.5s-26.167 48.5 -45.5 66.5c-41.333 39.333 -104.666 59 -189.999 59c-44.667 0 -82.667 -6.5 -114 -19.5s-56.833 -31.333 -76.5 -55s-34 -52.167 -43 -85.5s-13.5 -70.333 -13.5 -111v-949
c0 -18 -0.833008 -31.5 -2.5 -40.5s-5.16699 -17.833 -10.5 -26.5c-5.33301 -9.33301 -13.333 -16.833 -24 -22.5s-22.667 -8.5 -36 -8.5s-25.333 2.83301 -36 8.5s-18.667 13.167 -24 22.5c-5.33301 8.66699 -8.83301 17.5 -10.5 26.5s-2.5 22.5 -2.5 40.5v956
c0 62.667 9.5 118.167 28.5 166.5s46 89 81 122s77.333 58.167 127 75.5s105.167 26 166.5 26c52.667 0 102.5 -6.5 149.5 -19.5s88 -33 123 -60s62.667 -61.333 83 -103s30.5 -91.167 30.5 -148.5c0 -56 -10.833 -103.167 -32.5 -141.5s-52.5 -70.833 -92.5 -97.5
c24 -12.667 44.167 -26.334 60.5 -41.001s29.333 -31.334 39 -50.001s16.667 -40.167 21 -64.5s6.5 -52.5 6.5 -84.5v-349c0 -42.667 -7 -81.667 -21 -117s-33.667 -64.666 -59 -87.999c-27.333 -24.667 -56.166 -42.834 -86.499 -54.501s-67.5 -17.5 -111.5 -17.5h-42
c-28 0 -48.333 4 -61 12c-8 5.33301 -14.5 12.333 -19.5 21s-7.5 19 -7.5 31s2.5 22.333 7.5 31s11.5 15.667 19.5 21c12.667 8 33 12 61 12h17z" />
    <glyph glyph-name="agrave" unicode="&#xe0;" horiz-adv-x="1053" 
d="M99 279c0 43.333 7.66797 82.4961 23.001 117.496s37.5 65 66.5 90s64.667 44.167 107 57.5s90.166 20 143.499 20h298v80c0 74.667 -18.833 131.167 -56.5 169.5s-99.5 57.5 -185.5 57.5c-25.333 0 -48 -1.66699 -68 -5s-38.833 -8.66602 -56.5 -15.999
s-34.334 -16.5 -50.001 -27.5s-31.834 -23.833 -48.501 -38.5c-11.333 -10 -22.333 -16.833 -33 -20.5s-20 -5.5 -28 -5.5s-16 1.5 -24 4.5s-14.667 7.5 -20 13.5c-5.33301 6.66699 -9.66602 13.334 -12.999 20.001s-5 15.334 -5 26.001c0 18 8.33301 36 25 54
s39.667 36.667 69 56c36 22.667 74 39 114 49s86.333 15 139 15c128 0 224.333 -27.833 289 -83.5s97 -137.5 97 -245.5v-577c0 -17.333 -0.833008 -30.5 -2.5 -39.5s-5.16699 -18.167 -10.5 -27.5s-13.333 -16.833 -24 -22.5s-22.667 -8.5 -36 -8.5
s-25.333 2.83301 -36 8.5s-18.667 13.167 -24 22.5s-8.83301 18.5 -10.5 27.5s-2.5 22.167 -2.5 39.5v2c-20 -19.333 -40 -35.666 -60 -48.999s-41.167 -24 -63.5 -32s-46.333 -13.833 -72 -17.5s-54.5 -5.5 -86.5 -5.5c-68 0 -124 7.16699 -168 21.5
s-81.333 37.166 -112 68.499c-23.333 24.667 -41.666 54.334 -54.999 89.001s-20 72 -20 112zM242.001 279.996c0 -112.667 75.6699 -169 227.003 -169c20.667 0 40.667 0.666992 60 2s38.166 4.33301 56.499 9s35.833 11.5 52.5 20.5s32.667 20.833 48 35.5
c17.333 16.667 30.166 38.834 38.499 66.501s12.5 62.5 12.5 104.5v105h-282c-70.667 0 -123.834 -14.833 -159.501 -44.5s-53.5 -72.834 -53.5 -129.501zM305.004 1446c0 24.667 11.333 44 34 58c12 7.33301 24.667 11 38 11c15.333 0 28.5 -4.5 39.5 -13.5
s22.167 -23.167 33.5 -42.5l97 -155c8.66699 -13.333 15 -24.666 19 -33.999s6 -18.666 6 -27.999c0 -24.667 -11.333 -44 -34 -58c-12 -7.33301 -24.667 -11 -38 -11c-15.333 0 -28.5 4.5 -39.5 13.5s-22.167 23.167 -33.5 42.5l-97 155
c-8.66699 13.333 -15 24.666 -19 33.999s-6 18.666 -6 27.999z" />
    <glyph glyph-name="aacute" unicode="&#xe1;" horiz-adv-x="1053" 
d="M99 279c0 43.333 7.66797 82.4961 23.001 117.496s37.5 65 66.5 90s64.667 44.167 107 57.5s90.166 20 143.499 20h298v80c0 74.667 -18.833 131.167 -56.5 169.5s-99.5 57.5 -185.5 57.5c-25.333 0 -48 -1.66699 -68 -5s-38.833 -8.66602 -56.5 -15.999
s-34.334 -16.5 -50.001 -27.5s-31.834 -23.833 -48.501 -38.5c-11.333 -10 -22.333 -16.833 -33 -20.5s-20 -5.5 -28 -5.5s-16 1.5 -24 4.5s-14.667 7.5 -20 13.5c-5.33301 6.66699 -9.66602 13.334 -12.999 20.001s-5 15.334 -5 26.001c0 18 8.33301 36 25 54
s39.667 36.667 69 56c36 22.667 74 39 114 49s86.333 15 139 15c128 0 224.333 -27.833 289 -83.5s97 -137.5 97 -245.5v-577c0 -17.333 -0.833008 -30.5 -2.5 -39.5s-5.16699 -18.167 -10.5 -27.5s-13.333 -16.833 -24 -22.5s-22.667 -8.5 -36 -8.5
s-25.333 2.83301 -36 8.5s-18.667 13.167 -24 22.5s-8.83301 18.5 -10.5 27.5s-2.5 22.167 -2.5 39.5v2c-20 -19.333 -40 -35.666 -60 -48.999s-41.167 -24 -63.5 -32s-46.333 -13.833 -72 -17.5s-54.5 -5.5 -86.5 -5.5c-68 0 -124 7.16699 -168 21.5
s-81.333 37.166 -112 68.499c-23.333 24.667 -41.666 54.334 -54.999 89.001s-20 72 -20 112zM242.001 279.996c0 -112.667 75.6699 -169 227.003 -169c20.667 0 40.667 0.666992 60 2s38.166 4.33301 56.499 9s35.833 11.5 52.5 20.5s32.667 20.833 48 35.5
c17.333 16.667 30.166 38.834 38.499 66.501s12.5 62.5 12.5 104.5v105h-282c-70.667 0 -123.834 -14.833 -159.501 -44.5s-53.5 -72.834 -53.5 -129.501zM572.004 1466c5.33301 9.33301 10.666 17.333 15.999 24s11 12.334 17 17.001c10.667 8 22.667 12 36 12
c12.667 0 24.667 -3.66699 36 -11c23.333 -14 34.333 -33 33 -57c-0.666992 -8.66699 -2.66699 -17 -6 -25s-9.33301 -18.667 -18 -32l-102 -163c-5.33301 -9.33301 -10.666 -17.333 -15.999 -24s-11 -12.334 -17 -17.001c-11.333 -8 -23.333 -12 -36 -12
c-13.333 0 -25.333 3.66699 -36 11c-23.333 14 -34.333 33 -33 57c0.666992 8.66699 2.66699 17 6 25s9.33301 18.667 18 32z" />
    <glyph glyph-name="acircumflex" unicode="&#xe2;" horiz-adv-x="1053" 
d="M99 279c0 43.333 7.66797 82.4961 23.001 117.496s37.5 65 66.5 90s64.667 44.167 107 57.5s90.166 20 143.499 20h298v80c0 74.667 -18.833 131.167 -56.5 169.5s-99.5 57.5 -185.5 57.5c-25.333 0 -48 -1.66699 -68 -5s-38.833 -8.66602 -56.5 -15.999
s-34.334 -16.5 -50.001 -27.5s-31.834 -23.833 -48.501 -38.5c-11.333 -10 -22.333 -16.833 -33 -20.5s-20 -5.5 -28 -5.5s-16 1.5 -24 4.5s-14.667 7.5 -20 13.5c-5.33301 6.66699 -9.66602 13.334 -12.999 20.001s-5 15.334 -5 26.001c0 18 8.33301 36 25 54
s39.667 36.667 69 56c36 22.667 74 39 114 49s86.333 15 139 15c128 0 224.333 -27.833 289 -83.5s97 -137.5 97 -245.5v-577c0 -17.333 -0.833008 -30.5 -2.5 -39.5s-5.16699 -18.167 -10.5 -27.5s-13.333 -16.833 -24 -22.5s-22.667 -8.5 -36 -8.5
s-25.333 2.83301 -36 8.5s-18.667 13.167 -24 22.5s-8.83301 18.5 -10.5 27.5s-2.5 22.167 -2.5 39.5v2c-20 -19.333 -40 -35.666 -60 -48.999s-41.167 -24 -63.5 -32s-46.333 -13.833 -72 -17.5s-54.5 -5.5 -86.5 -5.5c-68 0 -124 7.16699 -168 21.5
s-81.333 37.166 -112 68.499c-23.333 24.667 -41.666 54.334 -54.999 89.001s-20 72 -20 112zM242.001 279.996c0 -112.667 75.6699 -169 227.003 -169c20.667 0 40.667 0.666992 60 2s38.166 4.33301 56.499 9s35.833 11.5 52.5 20.5s32.667 20.833 48 35.5
c17.333 16.667 30.166 38.834 38.499 66.501s12.5 62.5 12.5 104.5v105h-282c-70.667 0 -123.834 -14.833 -159.501 -44.5s-53.5 -72.834 -53.5 -129.501zM352.004 1205c-11.333 -11.333 -20.5 -19.166 -27.5 -23.499s-14.167 -7.5 -21.5 -9.5
c-20 -4 -37.667 1.66699 -53 17c-16 16 -21.667 34 -17 54c2 7.33301 5 14.5 9 21.5s11.667 16.167 23 27.5l187 186c6 6 13.5 12 22.5 18s19.833 9 32.5 9s23.5 -3 32.5 -9s16.5 -12 22.5 -18l187 -186c11.333 -11.333 19 -20.5 23 -27.5s7 -14.167 9 -21.5
c4.66699 -20 -1 -38 -17 -54c-15.333 -15.333 -33 -21 -53 -17c-7.33301 2 -14.5 5.16699 -21.5 9.5s-16.167 12.166 -27.5 23.499l-155 155z" />
    <glyph glyph-name="atilde" unicode="&#xe3;" horiz-adv-x="1053" 
d="M99 279c0 43.333 7.66797 82.4961 23.001 117.496s37.5 65 66.5 90s64.667 44.167 107 57.5s90.166 20 143.499 20h298v80c0 74.667 -18.833 131.167 -56.5 169.5s-99.5 57.5 -185.5 57.5c-25.333 0 -48 -1.66699 -68 -5s-38.833 -8.66602 -56.5 -15.999
s-34.334 -16.5 -50.001 -27.5s-31.834 -23.833 -48.501 -38.5c-11.333 -10 -22.333 -16.833 -33 -20.5s-20 -5.5 -28 -5.5s-16 1.5 -24 4.5s-14.667 7.5 -20 13.5c-5.33301 6.66699 -9.66602 13.334 -12.999 20.001s-5 15.334 -5 26.001c0 18 8.33301 36 25 54
s39.667 36.667 69 56c36 22.667 74 39 114 49s86.333 15 139 15c128 0 224.333 -27.833 289 -83.5s97 -137.5 97 -245.5v-577c0 -17.333 -0.833008 -30.5 -2.5 -39.5s-5.16699 -18.167 -10.5 -27.5s-13.333 -16.833 -24 -22.5s-22.667 -8.5 -36 -8.5
s-25.333 2.83301 -36 8.5s-18.667 13.167 -24 22.5s-8.83301 18.5 -10.5 27.5s-2.5 22.167 -2.5 39.5v2c-20 -19.333 -40 -35.666 -60 -48.999s-41.167 -24 -63.5 -32s-46.333 -13.833 -72 -17.5s-54.5 -5.5 -86.5 -5.5c-68 0 -124 7.16699 -168 21.5
s-81.333 37.166 -112 68.499c-23.333 24.667 -41.666 54.334 -54.999 89.001s-20 72 -20 112zM242.001 279.996c0 -112.667 75.6699 -169 227.003 -169c20.667 0 40.667 0.666992 60 2s38.166 4.33301 56.499 9s35.833 11.5 52.5 20.5s32.667 20.833 48 35.5
c17.333 16.667 30.166 38.834 38.499 66.501s12.5 62.5 12.5 104.5v105h-282c-70.667 0 -123.834 -14.833 -159.501 -44.5s-53.5 -72.834 -53.5 -129.501zM492.004 1258c-19.333 11.333 -37.666 21 -54.999 29s-36 12 -56 12c-14 0 -27.333 -1.83301 -40 -5.5
s-28.667 -13.834 -48 -30.501c-9.33301 -7.33301 -18 -13.5 -26 -18.5s-16.333 -7.5 -25 -7.5c-14.667 0 -27 5 -37 15s-15 23 -15 39c0 9.33301 2.66699 19 8 29s14.666 20.667 27.999 32c16 14 31 25.167 45 33.5s27.333 14.5 40 18.5s24.5 6.66699 35.5 8
s21.833 2 32.5 2c29.333 0 54.166 -4 74.499 -12s43.166 -19.333 68.499 -34c19.333 -11.333 37.666 -21 54.999 -29s36 -12 56 -12c14 0 27.333 1.83301 40 5.5s28.667 13.834 48 30.501c9.33301 7.33301 18 13.5 26 18.5s16.333 7.5 25 7.5c14.667 0 27 -5 37 -15
s15 -23 15 -39c0 -9.33301 -2.66699 -19 -8 -29s-14.666 -20.667 -27.999 -32c-16 -14 -31 -25.167 -45 -33.5s-27.333 -14.5 -40 -18.5s-24.5 -6.66699 -35.5 -8s-21.833 -2 -32.5 -2c-29.333 0 -54.166 3.83301 -74.499 11.5s-43.166 19.167 -68.499 34.5z" />
    <glyph glyph-name="adieresis" unicode="&#xe4;" horiz-adv-x="1053" 
d="M99 279c0 43.333 7.66797 82.4961 23.001 117.496s37.5 65 66.5 90s64.667 44.167 107 57.5s90.166 20 143.499 20h298v80c0 74.667 -18.833 131.167 -56.5 169.5s-99.5 57.5 -185.5 57.5c-25.333 0 -48 -1.66699 -68 -5s-38.833 -8.66602 -56.5 -15.999
s-34.334 -16.5 -50.001 -27.5s-31.834 -23.833 -48.501 -38.5c-11.333 -10 -22.333 -16.833 -33 -20.5s-20 -5.5 -28 -5.5s-16 1.5 -24 4.5s-14.667 7.5 -20 13.5c-5.33301 6.66699 -9.66602 13.334 -12.999 20.001s-5 15.334 -5 26.001c0 18 8.33301 36 25 54
s39.667 36.667 69 56c36 22.667 74 39 114 49s86.333 15 139 15c128 0 224.333 -27.833 289 -83.5s97 -137.5 97 -245.5v-577c0 -17.333 -0.833008 -30.5 -2.5 -39.5s-5.16699 -18.167 -10.5 -27.5s-13.333 -16.833 -24 -22.5s-22.667 -8.5 -36 -8.5
s-25.333 2.83301 -36 8.5s-18.667 13.167 -24 22.5s-8.83301 18.5 -10.5 27.5s-2.5 22.167 -2.5 39.5v2c-20 -19.333 -40 -35.666 -60 -48.999s-41.167 -24 -63.5 -32s-46.333 -13.833 -72 -17.5s-54.5 -5.5 -86.5 -5.5c-68 0 -124 7.16699 -168 21.5
s-81.333 37.166 -112 68.499c-23.333 24.667 -41.666 54.334 -54.999 89.001s-20 72 -20 112zM242.001 279.996c0 -112.667 75.6699 -169 227.003 -169c20.667 0 40.667 0.666992 60 2s38.166 4.33301 56.499 9s35.833 11.5 52.5 20.5s32.667 20.833 48 35.5
c17.333 16.667 30.166 38.834 38.499 66.501s12.5 62.5 12.5 104.5v105h-282c-70.667 0 -123.834 -14.833 -159.501 -44.5s-53.5 -72.834 -53.5 -129.501zM203.004 1289c0 25.333 8.66699 46.833 26 64.5s38.666 26.5 63.999 26.5s46.833 -8.83301 64.5 -26.5
s26.5 -39.167 26.5 -64.5s-8.83301 -46.666 -26.5 -63.999s-39.167 -26 -64.5 -26s-46.666 8.66699 -63.999 26s-26 38.666 -26 63.999zM630.004 1289c0 25.333 8.66699 46.833 26 64.5s38.666 26.5 63.999 26.5s46.833 -8.83301 64.5 -26.5s26.5 -39.167 26.5 -64.5
s-8.83301 -46.666 -26.5 -63.999s-39.167 -26 -64.5 -26s-46.666 8.66699 -63.999 26s-26 38.666 -26 63.999z" />
    <glyph glyph-name="aring" unicode="&#xe5;" horiz-adv-x="1053" 
d="M99 279c0 43.333 7.66797 82.4961 23.001 117.496s37.5 65 66.5 90s64.667 44.167 107 57.5s90.166 20 143.499 20h298v80c0 74.667 -18.833 131.167 -56.5 169.5s-99.5 57.5 -185.5 57.5c-25.333 0 -48 -1.66699 -68 -5s-38.833 -8.66602 -56.5 -15.999
s-34.334 -16.5 -50.001 -27.5s-31.834 -23.833 -48.501 -38.5c-11.333 -10 -22.333 -16.833 -33 -20.5s-20 -5.5 -28 -5.5s-16 1.5 -24 4.5s-14.667 7.5 -20 13.5c-5.33301 6.66699 -9.66602 13.334 -12.999 20.001s-5 15.334 -5 26.001c0 18 8.33301 36 25 54
s39.667 36.667 69 56c36 22.667 74 39 114 49s86.333 15 139 15c128 0 224.333 -27.833 289 -83.5s97 -137.5 97 -245.5v-577c0 -17.333 -0.833008 -30.5 -2.5 -39.5s-5.16699 -18.167 -10.5 -27.5s-13.333 -16.833 -24 -22.5s-22.667 -8.5 -36 -8.5
s-25.333 2.83301 -36 8.5s-18.667 13.167 -24 22.5s-8.83301 18.5 -10.5 27.5s-2.5 22.167 -2.5 39.5v2c-20 -19.333 -40 -35.666 -60 -48.999s-41.167 -24 -63.5 -32s-46.333 -13.833 -72 -17.5s-54.5 -5.5 -86.5 -5.5c-68 0 -124 7.16699 -168 21.5
s-81.333 37.166 -112 68.499c-23.333 24.667 -41.666 54.334 -54.999 89.001s-20 72 -20 112zM242.001 279.996c0 -112.667 75.6699 -169 227.003 -169c20.667 0 40.667 0.666992 60 2s38.166 4.33301 56.499 9s35.833 11.5 52.5 20.5s32.667 20.833 48 35.5
c17.333 16.667 30.166 38.834 38.499 66.501s12.5 62.5 12.5 104.5v105h-282c-70.667 0 -123.834 -14.833 -159.501 -44.5s-53.5 -72.834 -53.5 -129.501zM270.004 1374c0 32.667 6.16699 63.334 18.5 92.001s29.333 53.834 51 75.501s46.834 38.667 75.501 51
s59.334 18.5 92.001 18.5s63.334 -6.16699 92.001 -18.5s53.834 -29.333 75.501 -51s38.667 -46.834 51 -75.501s18.5 -59.334 18.5 -92.001s-6.16699 -63.334 -18.5 -92.001s-29.333 -53.834 -51 -75.501s-46.834 -38.667 -75.501 -51s-59.334 -18.5 -92.001 -18.5
s-63.334 6.16699 -92.001 18.5s-53.834 29.333 -75.501 51s-38.667 46.834 -51 75.501s-18.5 59.334 -18.5 92.001zM369.004 1374c0 -19.333 3.66699 -37.333 11 -54s17.166 -31.167 29.499 -43.5s26.833 -22.166 43.5 -29.499s34.667 -11 54 -11
c18.667 0 36.5 3.66699 53.5 11s31.667 17.166 44 29.499s22.166 26.833 29.499 43.5s11 34.667 11 54c0 18.667 -3.66699 36.5 -11 53.5s-17.166 31.667 -29.499 44s-27 22.166 -44 29.499s-34.833 11 -53.5 11c-19.333 0 -37.333 -3.66699 -54 -11
s-31.167 -17.166 -43.5 -29.499s-22.166 -27 -29.499 -44s-11 -34.833 -11 -53.5z" />
    <glyph glyph-name="ae" unicode="&#xe6;" horiz-adv-x="1668" 
d="M1167 -12c-80.667 0 -150.334 13.8291 -209.001 41.4961s-106.334 70.834 -143.001 129.501c-22.667 -32 -46.167 -58.833 -70.5 -80.5s-51 -39.334 -80 -53.001s-60.833 -23.334 -95.5 -29.001s-73 -8.5 -115 -8.5c-68 0 -124 7.16699 -168 21.5
s-81.333 37.166 -112 68.499c-23.333 24.667 -41.666 54.334 -54.999 89.001s-20 72 -20 112c0 43.333 7.66699 82.5 23 117.5s37.5 65 66.5 90s64.667 44.167 107 57.5s90.166 20 143.499 20h298v80c0 74.667 -18.833 131.167 -56.5 169.5s-99.5 57.5 -185.5 57.5
c-25.333 0 -48 -1.66699 -68 -5s-38.833 -8.66602 -56.5 -15.999s-34.334 -16.5 -50.001 -27.5s-31.834 -23.833 -48.501 -38.5c-11.333 -10 -22.333 -16.833 -33 -20.5s-20 -5.5 -28 -5.5s-16 1.5 -24 4.5s-14.667 7.5 -20 13.5
c-5.33301 6.66699 -9.66602 13.334 -12.999 20.001s-5 15.334 -5 26.001c0 18 8.33301 36 25 54s39.667 36.667 69 56c36 22.667 74 39 114 49s86.333 15 139 15c85.333 0 156 -13 212 -39s98 -64 126 -114c34.667 50.667 78 88.834 130 114.501s111.333 38.5 178 38.5
c62.667 0 118.834 -10.833 168.501 -32.5s91.834 -52.5 126.501 -92.5s61.334 -88 80.001 -144s28.334 -118.333 29.001 -187c0 -10 -1 -21.167 -3 -33.5s-7.66699 -23.166 -17 -32.499s-19.5 -14.833 -30.5 -16.5s-22.167 -2.5 -33.5 -2.5h-581
c0 -108 24.833 -191.833 74.5 -251.5s122.167 -89.5 217.5 -89.5c38 0 75.167 5.5 111.5 16.5s69.5 29.167 99.5 54.5c15.333 13.333 27.666 22.5 36.999 27.5s19.666 7.5 30.999 7.5c8 0 15.667 -1.66699 23 -5s13.833 -8 19.5 -14s10.334 -12.833 14.001 -20.5
s5.5 -15.5 5.5 -23.5c0 -11.333 -3.5 -22.333 -10.5 -33s-15.667 -20.834 -26 -30.501s-21.333 -18.667 -33 -27s-22.5 -15.5 -32.5 -21.5c-30 -17.333 -65.667 -31.166 -107 -41.499s-87.333 -15.5 -138 -15.5zM1403 564.996
c-0.666992 17.333 -1.66895 33.002 -3.00195 47.002s-3.16602 27 -5.49902 39s-5.33301 24 -9 36s-8.16699 24.667 -13.5 38c-18.667 45.333 -48.167 81.166 -88.5 107.499s-87.5 39.5 -141.5 39.5s-101.333 -13.333 -142 -40s-70 -62.334 -88 -107.001
c-5.33301 -13.333 -9.83301 -26 -13.5 -38s-6.66699 -24 -9 -36s-4.16602 -25 -5.49902 -39s-2.33301 -29.667 -3 -47h522zM241.998 279.998c0 -112.667 75.6699 -169 227.003 -169c20.667 0 40.667 0.666992 60 2s38.166 4.33301 56.499 9s35.833 11.5 52.5 20.5
s32.667 20.833 48 35.5c17.333 16.667 30.166 38.834 38.499 66.501s12.5 62.5 12.5 104.5v105h-282c-70.667 0 -123.834 -14.833 -159.501 -44.5s-53.5 -72.834 -53.5 -129.501z" />
    <glyph glyph-name="ccedilla" unicode="&#xe7;" horiz-adv-x="978" 
d="M126 492c0 84 10.8311 157.502 32.498 220.502s51.834 115.5 90.501 157.5s84.667 73.5 138 94.5s111.333 31.5 174 31.5c50 0 93.667 -6.5 131 -19.5s73.666 -33.5 108.999 -61.5c23.333 -18.667 40.833 -34.334 52.5 -47.001s17.5 -28 17.5 -46
c0 -17.333 -7 -33 -21 -47c-13.333 -12 -28.333 -18 -45 -18c-11.333 0 -21.666 3 -30.999 9s-22.333 15.667 -39 29c-16 13.333 -31.167 24.5 -45.5 33.5s-28.166 16.333 -41.499 22s-27.166 9.66699 -41.499 12s-29.5 3.5 -45.5 3.5c-48 0 -91 -9 -129 -27
s-70 -45.333 -96 -82c-11.333 -16 -21.166 -33 -29.499 -51s-15 -37.667 -20 -59s-8.66699 -44.666 -11 -69.999s-3.5 -53.666 -3.5 -84.999s1.16699 -59.5 3.5 -84.5s6 -48.167 11 -69.5s11.667 -41 20 -59s18.166 -35 29.499 -51c26 -36.667 58 -64.167 96 -82.5
s81 -27.5 129 -27.5c16 0 31.167 1.16699 45.5 3.5s28.5 6.16602 42.5 11.499s28 12.666 42 21.999s28.667 20.666 44 33.999c12 10.667 23.833 19.667 35.5 27s23.167 11 34.5 11c16.667 0 31.667 -6 45 -18c14 -14 21 -29.667 21 -47c0 -18 -6.33301 -34.167 -19 -48.5
s-29.667 -29.5 -51 -45.5c-34 -26.667 -70 -46.667 -108 -60s-82 -20 -132 -20c-62.667 0 -120.667 10.5 -174 31.5s-99.333 52.5 -138 94.5s-68.834 94.5 -90.501 157.5s-32.5 136.5 -32.5 220.5zM478.998 -174.998c5.33301 9.33301 10.666 17.333 15.999 24
s11 12.334 17 17.001c10.667 8 22.667 12 36 12c12.667 0 24.667 -3.66699 36 -11c23.333 -14 34.333 -33 33 -57c-0.666992 -8.66699 -2.66699 -17 -6 -25s-9.33301 -18.667 -18 -32l-102 -163c-5.33301 -9.33301 -10.666 -17.333 -15.999 -24s-11 -12.334 -17 -17.001
c-11.333 -8 -23.333 -12 -36 -12c-13.333 0 -25.333 3.66699 -36 11c-23.333 14 -34.333 33 -33 57c0.666992 8.66699 2.66699 17 6 25s9.33301 18.667 18 32z" />
    <glyph glyph-name="egrave" unicode="&#xe8;" horiz-adv-x="1058" 
d="M271 455c0 -108 24.8301 -191.834 74.4971 -251.501s122.167 -89.5 217.5 -89.5c38 0 75.167 5.5 111.5 16.5s69.5 29.167 99.5 54.5c15.333 13.333 27.666 22.5 36.999 27.5s19.666 7.5 30.999 7.5c8 0 15.667 -1.66699 23 -5s13.833 -8 19.5 -14
s10.334 -12.833 14.001 -20.5s5.5 -15.5 5.5 -23.5c0 -11.333 -3.5 -22.333 -10.5 -33s-15.667 -20.834 -26 -30.501s-21.333 -18.667 -33 -27s-22.5 -15.5 -32.5 -21.5c-30 -17.333 -65.667 -31.166 -107 -41.499s-87.333 -15.5 -138 -15.5c-65.333 0 -124.5 10 -177.5 30
s-98.333 50.5 -136 91.5s-66.667 93.167 -87 156.5s-30.5 138.666 -30.5 225.999c0 81.333 9.5 153.333 28.5 216s46.167 115.334 81.5 158.001s78 75 128 97s106 33 168 33c62.667 0 118.834 -10.833 168.501 -32.5s91.834 -52.5 126.501 -92.5s61.334 -88 80.001 -144
s28.334 -118.333 29.001 -187c0 -10 -1 -21.167 -3 -33.5s-7.66699 -23.166 -17 -32.499s-19.5 -14.833 -30.5 -16.5s-22.167 -2.5 -33.5 -2.5h-581zM792.997 564.999c-0.666992 17.333 -1.66895 33.002 -3.00195 47.002s-3.16602 27 -5.49902 39s-5.33301 24 -9 36
s-8.16699 24.667 -13.5 38c-18.667 45.333 -48.167 81.166 -88.5 107.499s-87.5 39.5 -141.5 39.5s-101.333 -13.333 -142 -40s-70 -62.334 -88 -107.001c-5.33301 -13.333 -9.83301 -26 -13.5 -38s-6.66699 -24 -9 -36s-4.16602 -25 -5.49902 -39s-2.33301 -29.667 -3 -47
h522zM329.995 1446c0 24.667 11.333 44 34 58c12 7.33301 24.667 11 38 11c15.333 0 28.5 -4.5 39.5 -13.5s22.167 -23.167 33.5 -42.5l97 -155c8.66699 -13.333 15 -24.666 19 -33.999s6 -18.666 6 -27.999c0 -24.667 -11.333 -44 -34 -58
c-12 -7.33301 -24.667 -11 -38 -11c-15.333 0 -28.5 4.5 -39.5 13.5s-22.167 23.167 -33.5 42.5l-97 155c-8.66699 13.333 -15 24.666 -19 33.999s-6 18.666 -6 27.999z" />
    <glyph glyph-name="eacute" unicode="&#xe9;" horiz-adv-x="1058" 
d="M271 455c0 -108 24.8301 -191.834 74.4971 -251.501s122.167 -89.5 217.5 -89.5c38 0 75.167 5.5 111.5 16.5s69.5 29.167 99.5 54.5c15.333 13.333 27.666 22.5 36.999 27.5s19.666 7.5 30.999 7.5c8 0 15.667 -1.66699 23 -5s13.833 -8 19.5 -14
s10.334 -12.833 14.001 -20.5s5.5 -15.5 5.5 -23.5c0 -11.333 -3.5 -22.333 -10.5 -33s-15.667 -20.834 -26 -30.501s-21.333 -18.667 -33 -27s-22.5 -15.5 -32.5 -21.5c-30 -17.333 -65.667 -31.166 -107 -41.499s-87.333 -15.5 -138 -15.5c-65.333 0 -124.5 10 -177.5 30
s-98.333 50.5 -136 91.5s-66.667 93.167 -87 156.5s-30.5 138.666 -30.5 225.999c0 81.333 9.5 153.333 28.5 216s46.167 115.334 81.5 158.001s78 75 128 97s106 33 168 33c62.667 0 118.834 -10.833 168.501 -32.5s91.834 -52.5 126.501 -92.5s61.334 -88 80.001 -144
s28.334 -118.333 29.001 -187c0 -10 -1 -21.167 -3 -33.5s-7.66699 -23.166 -17 -32.499s-19.5 -14.833 -30.5 -16.5s-22.167 -2.5 -33.5 -2.5h-581zM792.997 564.999c-0.666992 17.333 -1.66895 33.002 -3.00195 47.002s-3.16602 27 -5.49902 39s-5.33301 24 -9 36
s-8.16699 24.667 -13.5 38c-18.667 45.333 -48.167 81.166 -88.5 107.499s-87.5 39.5 -141.5 39.5s-101.333 -13.333 -142 -40s-70 -62.334 -88 -107.001c-5.33301 -13.333 -9.83301 -26 -13.5 -38s-6.66699 -24 -9 -36s-4.16602 -25 -5.49902 -39s-2.33301 -29.667 -3 -47
h522zM596.995 1466c5.33301 9.33301 10.666 17.333 15.999 24s11 12.334 17 17.001c10.667 8 22.667 12 36 12c12.667 0 24.667 -3.66699 36 -11c23.333 -14 34.333 -33 33 -57c-0.666992 -8.66699 -2.66699 -17 -6 -25s-9.33301 -18.667 -18 -32l-102 -163
c-5.33301 -9.33301 -10.666 -17.333 -15.999 -24s-11 -12.334 -17 -17.001c-11.333 -8 -23.333 -12 -36 -12c-13.333 0 -25.333 3.66699 -36 11c-23.333 14 -34.333 33 -33 57c0.666992 8.66699 2.66699 17 6 25s9.33301 18.667 18 32z" />
    <glyph glyph-name="ecircumflex" unicode="&#xea;" horiz-adv-x="1058" 
d="M271 455c0 -108 24.8301 -191.834 74.4971 -251.501s122.167 -89.5 217.5 -89.5c38 0 75.167 5.5 111.5 16.5s69.5 29.167 99.5 54.5c15.333 13.333 27.666 22.5 36.999 27.5s19.666 7.5 30.999 7.5c8 0 15.667 -1.66699 23 -5s13.833 -8 19.5 -14
s10.334 -12.833 14.001 -20.5s5.5 -15.5 5.5 -23.5c0 -11.333 -3.5 -22.333 -10.5 -33s-15.667 -20.834 -26 -30.501s-21.333 -18.667 -33 -27s-22.5 -15.5 -32.5 -21.5c-30 -17.333 -65.667 -31.166 -107 -41.499s-87.333 -15.5 -138 -15.5c-65.333 0 -124.5 10 -177.5 30
s-98.333 50.5 -136 91.5s-66.667 93.167 -87 156.5s-30.5 138.666 -30.5 225.999c0 81.333 9.5 153.333 28.5 216s46.167 115.334 81.5 158.001s78 75 128 97s106 33 168 33c62.667 0 118.834 -10.833 168.501 -32.5s91.834 -52.5 126.501 -92.5s61.334 -88 80.001 -144
s28.334 -118.333 29.001 -187c0 -10 -1 -21.167 -3 -33.5s-7.66699 -23.166 -17 -32.499s-19.5 -14.833 -30.5 -16.5s-22.167 -2.5 -33.5 -2.5h-581zM792.997 564.999c-0.666992 17.333 -1.66895 33.002 -3.00195 47.002s-3.16602 27 -5.49902 39s-5.33301 24 -9 36
s-8.16699 24.667 -13.5 38c-18.667 45.333 -48.167 81.166 -88.5 107.499s-87.5 39.5 -141.5 39.5s-101.333 -13.333 -142 -40s-70 -62.334 -88 -107.001c-5.33301 -13.333 -9.83301 -26 -13.5 -38s-6.66699 -24 -9 -36s-4.16602 -25 -5.49902 -39s-2.33301 -29.667 -3 -47
h522zM376.995 1205c-11.333 -11.333 -20.5 -19.166 -27.5 -23.499s-14.167 -7.5 -21.5 -9.5c-20 -4 -37.667 1.66699 -53 17c-16 16 -21.667 34 -17 54c2 7.33301 5 14.5 9 21.5s11.667 16.167 23 27.5l187 186c6 6 13.5 12 22.5 18s19.833 9 32.5 9s23.5 -3 32.5 -9
s16.5 -12 22.5 -18l187 -186c11.333 -11.333 19 -20.5 23 -27.5s7 -14.167 9 -21.5c4.66699 -20 -1 -38 -17 -54c-15.333 -15.333 -33 -21 -53 -17c-7.33301 2 -14.5 5.16699 -21.5 9.5s-16.167 12.166 -27.5 23.499l-155 155z" />
    <glyph glyph-name="edieresis" unicode="&#xeb;" horiz-adv-x="1058" 
d="M271 455c0 -108 24.8301 -191.834 74.4971 -251.501s122.167 -89.5 217.5 -89.5c38 0 75.167 5.5 111.5 16.5s69.5 29.167 99.5 54.5c15.333 13.333 27.666 22.5 36.999 27.5s19.666 7.5 30.999 7.5c8 0 15.667 -1.66699 23 -5s13.833 -8 19.5 -14
s10.334 -12.833 14.001 -20.5s5.5 -15.5 5.5 -23.5c0 -11.333 -3.5 -22.333 -10.5 -33s-15.667 -20.834 -26 -30.501s-21.333 -18.667 -33 -27s-22.5 -15.5 -32.5 -21.5c-30 -17.333 -65.667 -31.166 -107 -41.499s-87.333 -15.5 -138 -15.5c-65.333 0 -124.5 10 -177.5 30
s-98.333 50.5 -136 91.5s-66.667 93.167 -87 156.5s-30.5 138.666 -30.5 225.999c0 81.333 9.5 153.333 28.5 216s46.167 115.334 81.5 158.001s78 75 128 97s106 33 168 33c62.667 0 118.834 -10.833 168.501 -32.5s91.834 -52.5 126.501 -92.5s61.334 -88 80.001 -144
s28.334 -118.333 29.001 -187c0 -10 -1 -21.167 -3 -33.5s-7.66699 -23.166 -17 -32.499s-19.5 -14.833 -30.5 -16.5s-22.167 -2.5 -33.5 -2.5h-581zM792.997 564.999c-0.666992 17.333 -1.66895 33.002 -3.00195 47.002s-3.16602 27 -5.49902 39s-5.33301 24 -9 36
s-8.16699 24.667 -13.5 38c-18.667 45.333 -48.167 81.166 -88.5 107.499s-87.5 39.5 -141.5 39.5s-101.333 -13.333 -142 -40s-70 -62.334 -88 -107.001c-5.33301 -13.333 -9.83301 -26 -13.5 -38s-6.66699 -24 -9 -36s-4.16602 -25 -5.49902 -39s-2.33301 -29.667 -3 -47
h522zM227.995 1289c0 25.333 8.66699 46.833 26 64.5s38.666 26.5 63.999 26.5s46.833 -8.83301 64.5 -26.5s26.5 -39.167 26.5 -64.5s-8.83301 -46.666 -26.5 -63.999s-39.167 -26 -64.5 -26s-46.666 8.66699 -63.999 26s-26 38.666 -26 63.999zM654.995 1289
c0 25.333 8.66699 46.833 26 64.5s38.666 26.5 63.999 26.5s46.833 -8.83301 64.5 -26.5s26.5 -39.167 26.5 -64.5s-8.83301 -46.666 -26.5 -63.999s-39.167 -26 -64.5 -26s-46.666 8.66699 -63.999 26s-26 38.666 -26 63.999z" />
    </font>
</defs>
</svg>
