<?xml version="1.0" standalone="no"?>
<!DOCTYPE svg PUBLIC "-//W3C//DTD SVG 1.1//EN" "http://www.w3.org/Graphics/SVG/1.1/DTD/svg11.dtd" >
<svg xmlns="http://www.w3.org/2000/svg">
<metadata></metadata>
<defs>
<font id="alternategothicef_notwoRg" horiz-adv-x="1024" >
<font-face units-per-em="2048" ascent="1638" descent="-410" />
<missing-glyph horiz-adv-x="512" />
<glyph horiz-adv-x="2048" />
<glyph horiz-adv-x="2048" />
<glyph horiz-adv-x="682" />
<glyph d="M291 1286q39 -53 97 -77.5t124 -24.5t124 24.5t97 77.5l-117 70q-25 -16 -49 -26.5t-55 -10.5t-55.5 10t-50.5 27z" />
<glyph d="M424 1184h176v182h-176v-182z" />
<glyph d="M362 1288q0 -61 45.5 -102t104.5 -41t104.5 41t45.5 102q0 59 -45.5 100.5t-104.5 41.5t-104.5 -41t-45.5 -101zM436 1288q0 31 23.5 50.5t52.5 19.5t52.5 -19.5t23.5 -50.5t-22.5 -52.5t-53.5 -21.5t-53.5 21.5t-22.5 52.5z" />
<glyph unicode="&#xa;" d="M270 1188h144l149 164h-198zM557 1188h143l150 164h-199z" />
<glyph d="M383 -201q0 -39 16.5 -67.5t42 -47t59.5 -26.5t68 -8q27 0 42.5 2t39.5 12l17 117q-16 -4 -30.5 -8t-31.5 -4q-37 0 -68.5 16t-31.5 59q0 47 32.5 87t67.5 69h-104q-47 -41 -83 -88t-36 -113z" />
<glyph d="M289 1352l121 -164h204l121 164h-166l-57 -64l-57 64h-166z" />
<glyph unicode="&#xd;" />
<glyph horiz-adv-x="176" d="M-190 -68h94l465 1502h-105z" />
<glyph horiz-adv-x="741" d="M14 850h117v-850h184v850h162v-850h185v1018h-347v63q0 63 15.5 97t89.5 34q25 0 50.5 -2t49.5 -6v158q-39 8 -76.5 13t-76.5 5q-53 0 -103.5 -14t-87.5 -55q-35 -41 -40 -83t-5 -93v-117h-117v-168z" />
<glyph horiz-adv-x="741" d="M14 850h117v-850h184v850h105v168h-105v63q0 29 2 53.5t11.5 42t30 26.5t55.5 9q16 0 31.5 -1t31.5 -3v-1208h185v1366q-47 0 -99.5 -2t-99.5 2q-29 2 -56.5 7t-56.5 5q-47 0 -94 -15t-80 -52q-35 -41 -40 -83t-5 -93v-117h-117v-168z" />
<glyph horiz-adv-x="677" d="M51 530l55 41v-571h545v190h-340v512l115 89v206l-115 -88v457h-205v-588l-55 -41v-207z" />
<glyph horiz-adv-x="425" d="M27 530l94 74v-604h184v725l96 72v194l-96 -73v448h-184v-569l-94 -74v-193z" />
<glyph horiz-adv-x="720" d="M55 0h613v190h-394l394 986v190h-582v-190h365l-396 -986v-190zM139 1638l119 -163h207l119 163h-164l-58 -63l-59 63h-164z" />
<glyph horiz-adv-x="632" d="M55 0h514v168h-303l303 682v168h-487v-168h285l-312 -692v-158zM92 1352l119 -164h207l119 164h-164l-58 -64l-59 64h-164z" />
<glyph unicode=" "  horiz-adv-x="512" />
<glyph unicode="&#x09;" horiz-adv-x="512" />
<glyph unicode="&#xa0;" horiz-adv-x="512" />
<glyph unicode="!" horiz-adv-x="456" d="M123 1366l41 -963h129l41 963h-211zM129 0h199v211h-199v-211z" />
<glyph unicode="&#x22;" horiz-adv-x="714" d="M102 1366l33 -549h131l33 549h-197zM416 1366l33 -549h131l32 549h-196z" />
<glyph unicode="#" horiz-adv-x="1228" d="M53 412h223l-63 -412h180l64 412h252l-66 -412h182l66 412h219l27 159h-222l37 250h219l25 160h-219l61 385h-182l-61 -385h-250l59 385h-180l-59 -385h-224l-24 -160h223l-39 -250h-223zM481 571l39 250h250l-37 -250h-252z" />
<glyph unicode="$" horiz-adv-x="778" d="M61 172q45 -78 108.5 -123t152.5 -55v-201h110v199q141 29 207 117t66 229q0 100 -33 174t-82 129t-107.5 101t-107.5 91.5t-82 97.5t-33 120q0 59 31 108t96 49q49 0 82 -29.5t57 -70.5l136 125q-45 59 -99.5 93t-130.5 44v137h-110v-137q-125 -31 -185.5 -115 t-60.5 -211q0 -82 23.5 -143t63.5 -112.5t92 -96.5t110 -94q29 -23 62.5 -56.5t51.5 -66.5q18 -31 25.5 -66.5t7.5 -70.5t-7 -67.5t-23.5 -57.5t-44 -40t-66.5 -15q-66 0 -104 39t-62 94z" />
<glyph unicode="%" horiz-adv-x="1089" d="M82 877q0 -39 5 -76t30 -70q23 -31 58.5 -46t72.5 -15q39 0 73.5 15t59.5 46q25 33 30 70t5 76v301q0 41 -4 76.5t-31 68.5q-51 63 -133 63q-39 0 -74 -16t-57 -47q-25 -33 -30 -68.5t-5 -76.5v-301zM188 0h123l590 1366h-123zM199 864v326v29q0 16 5 30.5t15 23.5t29 9 q20 0 31.5 -10t15.5 -25.5t4 -34.5v-32v-306v-32q0 -16 -4 -31.5t-14.5 -27t-30.5 -11.5q-41 0 -46 31t-5 61zM674 188q0 -39 5 -75.5t30 -69.5q23 -31 58.5 -47t74.5 -16t73.5 16t57.5 47q25 33 30 68.5t5 76.5v301q0 41 -5.5 77t-29.5 69q-23 31 -57.5 46t-73.5 15 t-74 -15t-59 -46q-25 -33 -30 -70t-5 -76v-301zM791 152v34v306v30q0 18 4 33.5t14 27t31 11.5q41 0 46 -29.5t5 -62.5v-326v-31q0 -16 -4 -29.5t-14.5 -22.5t-30.5 -9q-23 0 -33 10t-14 25.5t-4 32.5z" />
<glyph unicode="&#x26;" horiz-adv-x="909" d="M82 297q0 -139 75.5 -225t219.5 -86q78 0 130 28.5t105 83.5q49 -57 97.5 -81.5t121.5 -36.5v204q-35 10 -61.5 28.5t-46.5 49.5q45 84 73 171t44 179l-166 39q-10 -61 -25.5 -120.5t-42.5 -118.5q-43 66 -82 133t-73 139q39 49 73.5 97t61 100.5t43 109t16.5 121.5 q0 113 -59.5 189.5t-177.5 76.5q-68 0 -117 -25.5t-81 -68.5t-48.5 -99.5t-16.5 -117.5q0 -98 30 -193.5t67 -185.5q-35 -49 -63.5 -93t-50.5 -90t-34 -96.5t-12 -111.5zM266 315q0 53 19.5 102.5t44.5 96.5q37 -72 80 -138t84 -136q-43 -49 -107 -50q-55 0 -88 36t-33 89z M311 1094q0 18 4 44.5t13.5 51t26 42t42.5 17.5q25 0 39.5 -12t22.5 -31.5t11 -41.5t3 -40q0 -78 -26.5 -144.5t-73.5 -127.5q-27 57 -44.5 117.5t-17.5 124.5z" />
<glyph unicode="'" horiz-adv-x="401" d="M102 1366l33 -549h131l33 549h-197z" />
<glyph unicode="(" horiz-adv-x="565" d="M82 594q0 -158 37 -307.5t102 -290.5q31 -66 67 -127.5t74 -122.5l136 74q-55 94 -99.5 185t-73 185.5t-44 193.5t-15.5 210q0 217 58.5 403.5t173.5 370.5l-136 74q-129 -199 -204.5 -405t-75.5 -443z" />
<glyph unicode=")" horiz-adv-x="565" d="M68 -180l135 -74q127 197 203.5 404.5t76.5 443.5q0 123 -19.5 232.5t-56 212t-89 201.5t-115.5 202l-135 -74q113 -182 172 -369.5t59 -404.5t-59.5 -404.5t-171.5 -369.5z" />
<glyph unicode="*" horiz-adv-x="641" d="M82 1137l143 -29l-98 -109l121 -88l74 127l71 -127l121 88l-98 109l143 29l-47 143l-131 -61l14 147h-149l14 -147l-131 61z" />
<glyph unicode="+" d="M68 604h356v-342h176v342h356v164h-356v342h-176v-342h-356v-164z" />
<glyph unicode="," horiz-adv-x="368" d="M86 0h72l-72 -238h90l107 238v211h-197v-211z" />
<glyph unicode="-" horiz-adv-x="286" d="M0 426h287v184h-287v-184z" />
<glyph unicode="." horiz-adv-x="368" d="M86 0h197v211h-197v-211z" />
<glyph unicode="/" horiz-adv-x="759" d="M27 -137h145l547 1503h-146z" />
<glyph unicode="0" horiz-adv-x="778" d="M88 381q0 -74 7 -147.5t55 -135.5q43 -57 105 -87.5t134 -30.5t134.5 30.5t105.5 87.5q47 61 54 135t7 148v602q0 76 -7 148.5t-54 136.5q-41 59 -104.5 88.5t-135.5 29.5t-135.5 -29.5t-103.5 -88.5q-47 -66 -54.5 -136.5t-7.5 -148.5v-602zM283 297v65v642q0 31 1 65.5 t10 64t30.5 50t64.5 20.5t64.5 -20.5t31 -50t10.5 -64.5t1 -65v-642q0 -31 -1 -65.5t-10.5 -65t-31 -51t-64.5 -20.5t-65.5 20.5t-31.5 51t-9 65.5z" />
<glyph unicode="1" horiz-adv-x="778" d="M154 1073h168v-1073h194v1366h-131q-47 -59 -103.5 -102t-127.5 -64v-127z" />
<glyph unicode="2" horiz-adv-x="778" d="M74 0h598v180h-389q57 84 127.5 191.5t133 222.5t105.5 233t43 224q0 70 -17.5 131t-54 106t-92 71.5t-131.5 26.5q-88 0 -147.5 -30.5t-96 -82.5t-53 -122t-16.5 -147v-46h192v76t10.5 81t35 63.5t71.5 25.5q31 0 50.5 -13t30.5 -33.5t15.5 -47.5t4.5 -51 q0 -102 -45.5 -220t-111 -236t-137 -226.5t-126.5 -190.5v-186z" />
<glyph unicode="3" horiz-adv-x="778" d="M84 348q0 -76 15.5 -142.5t50 -116.5t93 -79.5t142.5 -29.5q90 0 148.5 32.5t91 88t45 127t12.5 149.5q0 51 -3 100t-17.5 91t-43 78t-79.5 63q41 27 64.5 60.5t35.5 72.5t16 82t4 88q0 68 -12 134t-44 120.5t-84 87t-132 32.5q-78 0 -132 -30.5t-89 -80.5t-50.5 -115.5 t-15.5 -133.5v-33h189q0 27 -1 64t6 69.5t26.5 55t60.5 22.5q35 0 53.5 -20.5t27.5 -51t11 -63.5t2 -57q0 -59 -6 -98.5t-25.5 -64t-56.5 -35.5t-98 -13v-180q47 -2 93 -9.5t75 -50.5q27 -39 29.5 -83t2.5 -89q0 -29 -1 -68.5t-10 -75.5t-31.5 -60.5t-63.5 -24.5 q-37 0 -58.5 19.5t-32.5 47t-14.5 60t-3.5 61.5v21q0 10 2 20h-192v-41z" />
<glyph unicode="4" horiz-adv-x="778" d="M47 334h356v-334h187v334h129v182h-129v850h-195l-348 -848v-184zM213 516l190 510v-510h-190z" />
<glyph unicode="5" horiz-adv-x="778" d="M84 346q0 -74 15.5 -140.5t51 -116.5t92 -79.5t140.5 -29.5q63 0 122.5 22.5t100.5 73.5q51 63 62.5 135.5t11.5 150.5v246q0 45 -2 93.5t-15.5 91.5t-40 77.5t-75.5 57.5q-20 10 -41 13t-43 3q-59 0 -103.5 -23.5t-80.5 -70.5l10 334h350v182h-518l-23 -700l181 -13 q16 45 39.5 78t76.5 33q35 0 53.5 -13.5t26.5 -35t9 -48t1 -51.5v-280q0 -27 -2 -57.5t-11 -57t-28.5 -44t-56.5 -17.5q-43 0 -65.5 23.5t-31.5 58t-10 73.5t-1 70h-195v-39z" />
<glyph unicode="6" horiz-adv-x="778" d="M90 369q0 -78 10.5 -150t61.5 -133q43 -53 103.5 -79.5t125.5 -26.5q68 0 128.5 26.5t103.5 79.5q51 61 61 133t10 150v186q0 57 -10 108.5t-35.5 90.5t-68.5 62.5t-109 23.5q-61 0 -105 -24.5t-81 -72.5v279q0 27 2 59.5t11 59t29.5 45t57.5 18.5q41 0 61.5 -20.5 t29.5 -51t9 -67.5v-64h195v35q0 70 -16.5 133.5t-52.5 111.5t-91 76.5t-133 28.5q-63 0 -118.5 -23.5t-96.5 -70.5q-59 -66 -70.5 -141.5t-11.5 -161.5v-620zM285 340v225q16 41 48 72t79 31q33 0 50 -13.5t25.5 -35t10.5 -47t2 -50.5v-180q0 -29 -2 -61.5t-12.5 -59 t-32 -44t-60.5 -17.5t-60.5 17.5t-32.5 43t-13 57t-2 62.5z" />
<glyph unicode="7" horiz-adv-x="778" d="M86 1184h381l-252 -1184h195l254 1227v139h-578v-182z" />
<glyph unicode="8" horiz-adv-x="778" d="M86 397q0 -78 12.5 -152.5t46 -134t93 -95t151.5 -35.5q90 0 149.5 35.5t93.5 94t47 132t13 151.5q0 51 -4 99.5t-17.5 90.5t-41 77.5t-76.5 64.5q74 63 97.5 134t23.5 167q0 70 -14.5 135.5t-47 115.5t-88 79.5t-135.5 29.5t-134 -29.5t-88 -78.5t-48.5 -113.5 t-14.5 -134.5q0 -96 21.5 -169t99.5 -136q-47 -27 -74.5 -62.5t-42 -77.5t-18.5 -90.5t-4 -97.5zM285 389q0 29 1 68t10 74.5t30.5 60t62.5 24.5q43 0 64.5 -24.5t31 -60t9.5 -74.5v-68t-1 -67.5t-10.5 -74.5t-31 -61.5t-62.5 -25.5t-62.5 25.5t-30.5 61.5t-10 74.5t-1 67.5 zM289 1012q0 27 2 59.5t12 62t29.5 50t56.5 20.5t56.5 -20.5t29.5 -50t12 -62t2 -59.5t-2 -60.5t-11 -63.5t-29.5 -50.5t-57.5 -20.5t-56.5 20.5t-29.5 50.5t-12 63.5t-2 60.5z" />
<glyph unicode="9" horiz-adv-x="778" d="M84 809q0 -55 10 -107.5t36 -91.5t68 -62.5t107 -23.5q61 0 105.5 25.5t81.5 73.5v-279q0 -29 -2.5 -60.5t-11.5 -59t-29.5 -46t-57.5 -18.5q-41 0 -61.5 21.5t-29.5 52t-9 65.5v66h-195v-35q0 -72 17.5 -135.5t53.5 -110.5t91 -75.5t133 -28.5q127 0 215 94 q59 66 69.5 142.5t10.5 160.5v620q0 78 -10 150t-62 133q-41 53 -102 79.5t-127 26.5t-127 -26.5t-102 -79.5q-51 -63 -61.5 -134t-10.5 -149v-188zM279 842v182q0 31 2 62.5t12 57t31.5 43t60.5 17.5t60.5 -16.5t31.5 -43t12.5 -57t2.5 -61.5v-227q-16 -41 -48 -71t-79 -30 q-33 0 -50.5 13.5t-25.5 35t-9 47t-1 48.5z" />
<glyph unicode=":" horiz-adv-x="368" d="M86 0h197v211h-197v-211zM86 805h197v213h-197v-213z" />
<glyph unicode=";" horiz-adv-x="368" d="M86 0h72l-72 -238h90l107 238v211h-197v-211zM86 805h197v213h-197v-213z" />
<glyph unicode="&#x3c;" d="M68 602l888 -424l-2 174l-696 326l698 323v177l-888 -424v-152z" />
<glyph unicode="=" d="M68 459h888v157h-888v-157zM68 782h888v156h-888v-156z" />
<glyph unicode="&#x3e;" d="M68 178l888 424v152l-888 424l2 -174l696 -326l-698 -324v-176z" />
<glyph unicode="?" horiz-adv-x="708" d="M68 1130l168 -63q8 23 19 48.5t26.5 47t36 35.5t49.5 14q41 0 58 -30.5t17 -67.5q0 -39 -13 -68.5t-32 -62.5q-35 -66 -68.5 -131.5t-49.5 -138.5q-27 -127 -27 -267v-43h166q2 27 -1 51.5t-3 51.5q0 100 32.5 179t72.5 149.5t74 139t34 152.5q0 121 -72 186.5t-190 65.5 q-127 0 -195 -65.5t-102 -182.5zM240 0h196v211h-196v-211z" />
<glyph unicode="@" horiz-adv-x="919" d="M96 332q0 -88 29 -153.5t79 -109.5t120.5 -66.5t154.5 -22.5q86 0 160 27.5t133 92.5l-98 95q-41 -35 -91.5 -53.5t-103.5 -18.5t-102 19.5t-80 64.5q-27 37 -32 82t-5 88v637q0 53 7 95t48 79q31 29 72 42t82 13q39 0 76 -10t65.5 -30.5t46 -52.5t17.5 -75v-43 q-29 29 -53.5 40t-63.5 11q-86 0 -129 -51t-43 -135v-385q0 -82 36 -126t122 -44q51 0 82.5 18.5t64.5 57.5l23 -56h125v695q0 84 -28 146.5t-77 103.5t-116.5 60t-147.5 19q-168 0 -270.5 -82.5t-102.5 -259.5v-712zM549 557v313q0 35 10 56.5t51 21.5t52.5 -19.5 t11.5 -58.5v-313q0 -35 -10.5 -56.5t-51.5 -21.5t-52 20.5t-11 57.5z" />
<glyph unicode="A" horiz-adv-x="829" d="M55 0h203l45 301h221l47 -301h211l-237 1366h-269zM332 492l78 544l84 -544h-162z" />
<glyph unicode="B" horiz-adv-x="821" d="M92 0h301q68 0 131.5 9t114.5 59q61 59 80.5 137t19.5 162q0 109 -31.5 197.5t-134.5 142.5q82 59 113 132.5t31 172.5q0 174 -83 264t-259 90h-283v-1366zM297 190v420h51q33 0 64.5 -4t58.5 -26q41 -33 52.5 -88.5t11.5 -102.5q0 -88 -32 -143.5t-130 -55.5h-76z M297 801v373h76q84 0 112.5 -48t28.5 -122q0 -96 -36 -149.5t-138 -53.5h-43z" />
<glyph unicode="C" horiz-adv-x="794" d="M86 354q0 -47 7 -93t24.5 -90t50.5 -83q47 -53 107.5 -80.5t132.5 -27.5q88 0 159.5 40.5t112.5 118.5q39 76 43 143.5t4 151.5v49h-207v-57q0 -27 -2 -55q0 -29 -2 -64t-12 -65.5t-32.5 -51t-65.5 -20.5q-53 0 -78 35t-31 82q-6 45 -6 90v90v432v90t6 90q6 47 31.5 81 t77.5 34q49 0 72.5 -26.5t32.5 -64.5t9 -81v-76v-33h207v48q0 76 -4 142t-43 132q-43 76 -114.5 113.5t-157.5 37.5q-70 0 -132.5 -27.5t-107.5 -80.5q-33 -41 -50.5 -84t-24.5 -88t-7 -94v-99v-460v-99z" />
<glyph unicode="D" horiz-adv-x="813" d="M92 0h291q94 0 160.5 26.5t106.5 77t58.5 121t18.5 160.5v594q0 90 -18.5 161.5t-58.5 122t-106.5 77t-160.5 26.5h-291v-1366zM297 190v984h63q57 0 89 -19.5t48.5 -51.5t20.5 -74t4 -87v-518q0 -45 -4 -87t-20.5 -75t-48 -52.5t-89.5 -19.5h-63z" />
<glyph unicode="E" horiz-adv-x="712" d="M92 0h557v190h-352v422h252v191h-252v371h352v192h-557v-1366z" />
<glyph unicode="F" horiz-adv-x="675" d="M92 0h205v612h250v191h-250v371h346v192h-551v-1366z" />
<glyph unicode="G" horiz-adv-x="817" d="M86 436q0 -76 7 -156.5t36 -147t86 -109.5t158 -43q80 0 128 31.5t89 97.5l39 -109h98v692h-330v-172h125v-53v-53t-1 -69t-6 -68.5t-15 -51.5q-29 -55 -92 -55q-41 0 -65 19.5t-34 49t-13 64.5t-3 66q0 23 -1 46t-1 46v454q0 41 1 82t5 82q6 47 31.5 81t79.5 34 q43 0 66.5 -21.5t34.5 -54.5t12 -70.5t1 -68.5v-31q0 -12 -2 -28h207q0 10 1 20.5t1 20.5q0 74 -4 141t-43 133q-45 76 -116.5 113.5t-157.5 37.5q-70 0 -132.5 -27.5t-107.5 -80.5q-33 -41 -50.5 -84t-24.5 -89t-7 -95v-97v-477z" />
<glyph unicode="H" horiz-adv-x="819" d="M92 0h205v616h227v-616h205v1366h-205v-559h-227v559h-205v-1366z" />
<glyph unicode="I" horiz-adv-x="387" d="M92 0h205v1366h-205v-1366z" />
<glyph unicode="J" horiz-adv-x="473" d="M20 0h99q100 0 153.5 39t78 100.5t27.5 138t3 152.5v936h-205v-969q0 -31 -1 -67.5t-10 -67.5t-30.5 -51.5t-64.5 -20.5h-50v-190z" />
<glyph unicode="K" horiz-adv-x="817" d="M92 0h205v444l94 191l174 -635h217l-266 891l236 475h-215l-240 -547v547h-205v-1366z" />
<glyph unicode="L" horiz-adv-x="663" d="M92 0h545v190h-340v1176h-205v-1366z" />
<glyph unicode="M" horiz-adv-x="1058" d="M92 0h191v944l206 -944h91l196 944v-944h193v1366h-277l-157 -834l-168 834h-275v-1366z" />
<glyph unicode="N" horiz-adv-x="860" d="M92 0h191v844l295 -844h192v1366h-192v-811l-279 811h-207v-1366z" />
<glyph unicode="O" horiz-adv-x="813" d="M86 444q0 -47 1 -94t8 -93t24.5 -89t48.5 -80q45 -53 106.5 -80.5t133.5 -27.5q70 0 132 27.5t107 80.5q31 39 47.5 82t23.5 88t8 92t1 94v476q0 45 -1 93t-8 94t-23.5 90t-47.5 81q-45 53 -107.5 80.5t-131.5 27.5q-70 0 -133.5 -27.5t-106.5 -80.5q-31 -39 -48.5 -82 t-24.5 -88t-8 -92t-1 -96v-476zM291 465v444q0 43 1 86t5 84q6 47 31.5 81t79.5 34q49 0 72.5 -28.5t32.5 -68.5t9 -87v-78v-488v-79q0 -39 -4 -78q-4 -47 -31.5 -82t-78.5 -35q-43 0 -66 19.5t-34 49t-13 64.5t-2 66q0 25 -1 48t-1 48z" />
<glyph unicode="P" horiz-adv-x="790" d="M92 0h205v563h82q68 0 137.5 11.5t120.5 62.5q63 61 79.5 147t16.5 170q0 43 -2 89.5t-12 91.5t-29.5 86t-52.5 71q-53 51 -119.5 62.5t-138.5 11.5h-287v-1366zM297 756v418h65q55 0 88 -12.5t50.5 -37t22.5 -62.5t5 -89t-3 -92t-19.5 -69t-50 -42t-93.5 -14h-65z" />
<glyph unicode="Q" horiz-adv-x="813" d="M86 444q0 -47 1 -94t8 -93t24.5 -89t48.5 -80q47 -53 107.5 -80.5t132.5 -27.5q43 0 68.5 6t66.5 22q20 -35 43.5 -56.5t51.5 -33.5t59.5 -16t72.5 -6v202q-29 4 -49.5 12.5t-38.5 30.5q35 68 40 149t5 154v476q0 47 -1 94t-8 93t-23.5 90t-47.5 81q-45 53 -107.5 80.5 t-131.5 27.5q-70 0 -133.5 -27.5t-106.5 -80.5q-31 -41 -48.5 -83t-24.5 -87t-8 -92t-1 -96v-476zM291 465v444q0 43 1 86t5 84q6 47 31.5 81t79.5 34q49 0 72.5 -28.5t32.5 -68.5t9 -87v-78v-488v-79q0 -39 -4 -78q-4 -47 -31.5 -82t-78.5 -35q-43 0 -66 19.5t-34 49 t-13 64.5t-2 66q0 25 -1 48t-1 48z" />
<glyph unicode="R" horiz-adv-x="796" d="M92 0h205v569h96l131 -569h217l-157 625q88 66 112.5 151.5t24.5 190.5q0 92 -16.5 165.5t-55.5 126t-105.5 80t-164.5 27.5h-287v-1366zM297 762v412h65q41 0 74 -7.5t53 -48.5q16 -33 21.5 -74.5t5.5 -76.5t-5 -76t-22 -74q-20 -41 -53 -48t-74 -7h-65z" />
<glyph unicode="S" horiz-adv-x="759" d="M47 348q2 -78 24.5 -144.5t65.5 -116.5t105.5 -78.5t144.5 -28.5q76 0 136.5 26.5t102.5 73.5t64.5 110.5t22.5 137.5q0 96 -33 168.5t-83 132t-108.5 108.5t-108.5 98.5t-83 102.5t-33 121q0 53 27.5 94t87.5 41q37 0 58.5 -14.5t34.5 -38t18.5 -52t9.5 -59.5l196 29 q-8 70 -28.5 130t-57.5 104t-92 68.5t-131 24.5t-135 -25.5t-101 -70.5t-63.5 -106.5t-21.5 -134.5q0 -94 32.5 -167t82.5 -132.5t108.5 -110.5t109 -100.5t83 -102.5t32.5 -117q0 -59 -29.5 -104t-95.5 -45q-45 0 -72.5 19.5t-44 50t-22.5 67.5t-6 74z" />
<glyph unicode="T" horiz-adv-x="671" d="M14 1174h217v-1174h205v1174h221v192h-643v-192z" />
<glyph unicode="U" horiz-adv-x="825" d="M92 444q0 -47 1 -94t8.5 -93t23.5 -89t47 -80q45 -53 107.5 -80.5t132.5 -27.5q68 0 132 27.5t107 80.5q31 39 48.5 82t24.5 87t8 91t1 96v922h-205v-899v-90t-6 -90q-6 -47 -31.5 -82t-78.5 -35q-49 0 -73 26.5t-33 64.5t-9 81v76v948h-205v-922z" />
<glyph unicode="V" horiz-adv-x="776" d="M35 1366l260 -1366h215l231 1366h-200l-140 -874l-157 874h-209z" />
<glyph unicode="W" horiz-adv-x="1126" d="M41 1366l205 -1366h178l135 827l141 -827h179l206 1366h-198l-105 -817l-135 817h-170l-129 -817l-102 817h-205z" />
<glyph unicode="X" horiz-adv-x="806" d="M35 0h211l151 440l160 -440h215l-266 702l239 664h-210l-134 -403l-143 403h-215l248 -664z" />
<glyph unicode="Y" horiz-adv-x="761" d="M27 1366l170 -543q12 -39 24 -70.5t23.5 -62.5t20.5 -63.5t18 -73.5q7 -35 7 -64q0 -15 -2 -28q-5 -39 -5 -92v-369h204v184v369l164 543l82 270h-207l-139 -537l-145 537h-215z" />
<glyph unicode="Z" horiz-adv-x="720" d="M55 0h613v190h-394l394 984v192h-584v-192h365l-394 -984v-190z" />
<glyph unicode="[" horiz-adv-x="518" d="M102 -195h328v179h-147v1204h147v178h-328v-1561z" />
<glyph unicode="\" d="M53 1536l705 -1706h174l-705 1706h-174z" />
<glyph unicode="]" horiz-adv-x="518" d="M88 -16v-179h328v1561h-328v-178h148v-1204h-148z" />
<glyph unicode="^" d="M41 733h190l279 496l283 -496h190l-354 637h-234z" />
<glyph unicode="_" d="M0 -127v-160h1024v160h-1024z" />
<glyph unicode="`" d="M305 1352l148 -164h143l-92 164h-199z" />
<glyph unicode="a" horiz-adv-x="708" d="M61 227q0 -37 8.5 -80t27 -78.5t50 -59t78.5 -23.5q68 0 122 41t95 88q2 -55 13 -115h186q-16 92 -18 183t-2 186v336q0 63 -4.5 124.5t-45.5 114.5q-35 47 -86 66.5t-108 19.5q-141 0 -211 -86t-78 -219h186q2 23 5.5 47.5t11.5 45t24.5 33.5t44.5 13q31 0 46.5 -13 t22.5 -33.5t7 -45.5v-47v-66q-66 -37 -133 -76.5t-120.5 -90t-87.5 -115t-34 -150.5zM252 260q0 47 15.5 85t41 68.5t58 56.5t69.5 48v-270q-18 -33 -49 -63.5t-72 -30.5q-20 0 -32.5 11t-19.5 26.5t-9 34t-2 34.5z" />
<glyph unicode="b" horiz-adv-x="692" d="M80 0h184v98q39 -47 83 -79.5t108 -32.5q63 0 97 32.5t49 82t17.5 104.5t2.5 100v406q0 45 -2.5 100t-16.5 104.5t-49 82t-98 32.5t-107.5 -31.5t-83.5 -78.5v446h-184v-1366zM264 199v620q18 18 41 31.5t51 13.5q31 0 46.5 -13t23.5 -34.5t9 -46.5t1 -45v-434 q0 -23 -1 -46.5t-9 -44t-23.5 -33.5t-46.5 -13q-29 0 -51 13t-41 32z" />
<glyph unicode="c" horiz-adv-x="667" d="M72 330q0 -63 9 -125t50 -115q39 -51 97.5 -77.5t121.5 -26.5q66 0 124 30.5t95 85.5q39 57 42 117t3 125v27h-184q0 -27 2 -64v-18q0 -27 -4 -53q-6 -34 -24.5 -58t-59.5 -24q-29 0 -46 13t-26.5 33.5t-12.5 46t-3 48.5v428q0 23 3 48.5t12.5 46t26.5 33.5t46 13 q39 0 58 -20q18 -22 24 -52q5 -26 5 -55v-10q-1 -35 -1 -61h184q0 10 1 19.5t1 19.5q0 57 -7 113t-40 104q-35 53 -94 80.5t-123 27.5q-63 0 -122.5 -26.5t-98.5 -77.5q-41 -53 -50 -114.5t-9 -125.5v-356z" />
<glyph unicode="d" horiz-adv-x="692" d="M72 305q0 -45 2 -100t17 -104.5t49 -82t98 -32.5q63 0 107 32.5t83 79.5v-98h184v1366h-184v-446q-39 47 -83 78.5t-107 31.5q-66 0 -100 -32.5t-48 -82t-16 -104.5t-2 -100v-406zM256 291v434q0 20 1 45t8 46.5t23.5 34.5t47.5 13q29 0 51.5 -13t40.5 -32v-620 q-18 -18 -40.5 -31.5t-51.5 -13.5q-31 0 -46.5 13t-23.5 33.5t-9 44t-1 46.5z" />
<glyph unicode="e" horiz-adv-x="696" d="M72 330q0 -63 9 -125t50 -115q39 -51 99.5 -77.5t123.5 -26.5q66 0 125.5 28.5t98.5 81.5q39 55 43 109.5t4 120.5v26h-189q0 -28 1 -62v-9q0 -29 -5 -55q-6 -30 -24.5 -51t-57.5 -21q-31 0 -49 13t-28.5 32.5t-13.5 45t-3 50.5v180h369v211q0 63 -9.5 124.5t-48.5 115.5 q-39 51 -96 77.5t-121 26.5q-63 0 -122.5 -26.5t-98.5 -78t-48 -114.5t-9 -125v-356zM256 629v94q0 25 3 50.5t12.5 45t27.5 32.5t49 13t49.5 -13t27.5 -32.5t12 -45t3 -50.5v-94h-184z" />
<glyph unicode="f" horiz-adv-x="458" d="M14 850h117v-850h184v850h117v168h-117v63q0 25 2 48.5t10.5 42t27 29.5t48.5 11q12 0 25 -1t25 -3v156q-45 14 -101 14q-49 0 -96 -14t-80 -53q-35 -41 -40 -83t-5 -93v-117h-117v-168z" />
<glyph unicode="g" horiz-adv-x="694" d="M23 -182q0 -57 31.5 -93t79.5 -55.5t102.5 -25.5t97.5 -6q68 0 132 12t114.5 43t82 83t31.5 130q0 86 -33.5 131t-85 66.5t-109.5 26.5t-109.5 8t-85 13.5t-33.5 41.5q0 23 13 39t30 28q24 -2 46 -2q121 0 179 64q69 77 69 229v197v40t-4 41q27 23 51.5 31t59.5 8v158 q-53 -6 -84 -33.5t-57 -74.5q-41 59 -90.5 85.5t-120.5 26.5q-141 0 -199.5 -80t-58.5 -213v-186q0 -84 21.5 -148.5t94.5 -113.5q-41 -29 -78.5 -71t-37.5 -95t34.5 -83t81.5 -48q-29 -12 -57.5 -28.5t-53 -37t-39.5 -47t-15 -61.5zM217 -121q0 35 24.5 57.5t53.5 36.5 q29 -4 55.5 -5t55.5 -3q20 -2 41.5 -4t40 -10t30.5 -22.5t12 -41.5q0 -31 -17 -51t-43 -32.5t-55.5 -17.5t-54.5 -5q-23 0 -48 5t-46.5 16.5t-35 29.5t-13.5 47zM240 545v198q0 23 2 46.5t11 42t25.5 30.5t45.5 12t45 -12t25 -31.5t12.5 -43t3.5 -44.5v-198 q0 -23 -3.5 -45.5t-12.5 -42t-25.5 -31.5t-44.5 -12q-29 0 -45.5 12t-25.5 30.5t-11 42t-2 46.5z" />
<glyph unicode="h" horiz-adv-x="690" d="M80 0h184v778q18 29 48 57.5t67 28.5q20 0 30.5 -12t14.5 -30.5t3 -38t-1 -33.5v-750h184v807q0 37 -2 77t-15 72.5t-41 53t-77 20.5q-72 0 -120 -37t-91 -86v459h-184v-1366z" />
<glyph unicode="i" horiz-adv-x="342" d="M80 0h184v1018h-184v-1018zM80 1182h184v184h-184v-184z" />
<glyph unicode="j" horiz-adv-x="358" d="M-35 -158v-178q25 -4 48.5 -8t47.5 -4q51 0 102.5 19.5t80.5 66.5q29 51 33 105.5t4 113.5v1061h-185v-1067q0 -47 -16.5 -81t-71.5 -34q-10 0 -21.5 2t-21.5 4zM96 1182h185v184h-185v-184z" />
<glyph unicode="k" horiz-adv-x="692" d="M80 0h184v326l80 147l131 -473h180l-200 678l184 340h-186l-189 -391v739h-184v-1366z" />
<glyph unicode="l" horiz-adv-x="342" d="M80 0h184v1366h-184v-1366z" />
<glyph unicode="m" horiz-adv-x="1036" d="M80 0h184v778q18 29 48 57.5t67 28.5q20 0 30.5 -12t14.5 -30.5t3 -38t-1 -33.5v-750h184v778q20 29 50 57.5t67 28.5q20 0 30.5 -13t13.5 -31.5t3 -39.5v-30v-750h184v807q0 37 -3 77t-16 72.5t-41 53t-77 20.5q-74 0 -121 -37t-94 -86q-8 59 -39.5 91t-91.5 32 q-72 0 -120 -37t-91 -86v111h-184v-1018z" />
<glyph unicode="n" horiz-adv-x="690" d="M80 0h184v778q18 29 48 57.5t67 28.5q20 0 30.5 -12t14.5 -30.5t3 -38t-1 -33.5v-750h184v807q0 37 -2 77t-15 72.5t-41 53t-77 20.5q-72 0 -120 -37t-91 -86v111h-184v-1018z" />
<glyph unicode="o" horiz-adv-x="688" d="M72 330q0 -63 9 -125t48 -115q37 -49 95.5 -76.5t119.5 -27.5t119.5 27.5t95.5 76.5q39 53 48 115t9 125v356q0 63 -9 124.5t-48 115.5q-37 49 -95 76.5t-120 27.5q-61 0 -119.5 -27.5t-95.5 -76.5q-39 -53 -48 -114.5t-9 -125.5v-356zM256 295v428q0 23 3 48.5t12.5 46 t26.5 33.5t46 13q31 0 48.5 -13t26.5 -33.5t11 -46.5t2 -48v-428q0 -25 -2 -49.5t-11 -45t-26.5 -33.5t-48.5 -13q-29 0 -46 13t-26.5 33.5t-12.5 46t-3 48.5z" />
<glyph unicode="p" horiz-adv-x="692" d="M80 -348h184v446q39 -47 83 -79.5t108 -32.5q63 0 97 32.5t49 82t17.5 104.5t2.5 100v406q0 45 -2.5 100t-16.5 104.5t-49 82t-98 32.5t-107.5 -31.5t-83.5 -78.5v98h-184v-1366zM264 199v620q18 18 41 31.5t51 13.5q31 0 46.5 -13t23.5 -34.5t9 -46.5t1 -45v-434 q0 -23 -1 -46.5t-9 -44t-23.5 -33.5t-46.5 -13q-29 0 -51 13t-41 32z" />
<glyph unicode="q" horiz-adv-x="692" d="M72 305q0 -45 2 -100t17 -104.5t49 -82t98 -32.5q63 0 107 32.5t83 79.5v-446h184v1366h-184v-98q-39 47 -83 78.5t-107 31.5q-66 0 -100 -32.5t-48 -82t-16 -104.5t-2 -100v-406zM256 291v434q0 20 1 45t9 46.5t24.5 34.5t45.5 13t51.5 -13t40.5 -32v-620 q-18 -18 -40.5 -31.5t-51.5 -13.5q-31 0 -46.5 13t-23.5 33.5t-9 44t-1 46.5z" />
<glyph unicode="r" horiz-adv-x="512" d="M80 0h184v614q0 39 5 80t21.5 73t47.5 52.5t82 20.5q16 0 31.5 -3.5t31.5 -7.5v201q-86 -4 -133 -46t-86 -112v146h-184v-1018z" />
<glyph unicode="s" horiz-adv-x="641" d="M31 279q20 -131 87.5 -212t209.5 -81q125 0 201.5 70.5t76.5 197.5q0 59 -17.5 110.5t-58.5 96.5q-35 41 -77.5 73.5t-83.5 65.5q-20 14 -44 32.5t-44.5 40t-34 46t-13.5 53.5q0 39 23 65.5t63 26.5q55 0 74 -40t29 -87l174 41q-16 119 -81.5 185.5t-188.5 66.5 q-121 0 -199 -70.5t-78 -193.5q0 -72 27.5 -126t68.5 -96t90.5 -77t90.5 -68.5t68.5 -69.5t27.5 -81q0 -41 -23.5 -67.5t-66.5 -26.5q-35 0 -57.5 15t-37 39.5t-21.5 54.5t-13 56z" />
<glyph unicode="t" horiz-adv-x="499" d="M31 850h114v-578q0 -59 5.5 -111t39.5 -100q31 -41 72 -58t90 -17q33 0 64.5 5t64.5 13v174q-14 -4 -27.5 -6t-27.5 -2q-37 0 -56.5 15.5t-28.5 38t-10 51t-1 55.5v520h151v168h-151v278h-185v-278h-114v-168z" />
<glyph unicode="u" horiz-adv-x="690" d="M80 213q0 -37 2 -78t14.5 -73.5t40 -54t78.5 -21.5q68 0 119 38.5t92 86.5v-111h184v1018h-184v-778q-20 -29 -49 -57.5t-68 -28.5q-20 0 -30.5 12t-13.5 30.5t-2 38t1 33.5v750h-184v-805z" />
<glyph unicode="v" horiz-adv-x="643" d="M27 1018l217 -1018h174l196 1018h-182l-102 -631l-113 631h-190z" />
<glyph unicode="w" horiz-adv-x="960" d="M35 1018l186 -1018h162l100 580l107 -580h162l174 1018h-168l-92 -582l-113 582h-145l-101 -594l-98 594h-174z" />
<glyph unicode="x" horiz-adv-x="661" d="M31 0h184l111 322l116 -322h189l-205 535l186 483h-186l-98 -281l-103 281h-194l198 -483z" />
<glyph unicode="y" horiz-adv-x="655" d="M35 1018l207 -1030q-8 -35 -18.5 -66t-27 -53.5t-43 -34.5t-69.5 -12h-18t-19 2v-180q33 -6 66 -6q92 0 145 24.5t83 68.5t44 105.5t29 136.5l207 1045h-181l-110 -656l-111 656h-184z" />
<glyph unicode="z" horiz-adv-x="632" d="M55 0h516v168h-305l305 682v168h-489v-168h287l-314 -694v-156z" />
<glyph unicode="{" d="M285 432q76 -18 95 -68.5t19 -119.5v-332q0 -86 18.5 -144.5t56.5 -93t98.5 -49t144.5 -14.5q14 0 28.5 1t28.5 1v154q-25 0 -55.5 1t-58 8t-49 24.5t-27.5 49.5q-4 23 -5 45.5t-1 45.5v311q0 86 -24 144.5t-101 101.5q37 23 63.5 45t40.5 63q10 33 15.5 67t5.5 68v322 q0 57 10 92t33.5 51.5t61.5 21.5t91 5v153h-82q-150 0 -221.5 -64.5t-71.5 -217.5v-352q0 -66 -22.5 -112t-91.5 -62v-146z" />
<glyph unicode="|" d="M424 -512h176v2048h-176v-2048z" />
<glyph unicode="}" d="M276 -233v-154q20 -2 41 -2h41q152 0 223.5 65.5t71.5 219.5v350q0 68 22.5 113t92.5 63v145q-74 18 -94.5 67.5t-20.5 119.5v333q0 154 -65.5 226.5t-222.5 72.5h-89v-153q27 0 56.5 -1t57.5 -9.5t49.5 -25.5t29.5 -50q4 -20 5 -44t1 -44v-314q0 -88 23.5 -144 t101.5 -101q-37 -20 -63.5 -43t-40.5 -64q-10 -33 -15.5 -66.5t-5.5 -68.5v-324q0 -59 -11 -91.5t-34.5 -50t-61.5 -21.5t-92 -4z" />
<glyph unicode="~" horiz-adv-x="1366" d="M188 1247l103 -65q29 53 67.5 97t104.5 44q45 0 95 -19.5t103.5 -43t106.5 -43t104 -19.5q59 0 105.5 19.5t83.5 51t64.5 76t50.5 93.5l-105 61q-33 -55 -69.5 -92t-106.5 -37q-49 0 -100.5 19.5t-103.5 43t-105.5 43t-108.5 19.5q-61 0 -105 -20.5t-77 -55.5t-57.5 -80 t-49.5 -92z" />
<glyph unicode="&#xa1;" horiz-adv-x="456" d="M123 -348h211l-41 962h-129zM129 805h199v213h-199v-213z" />
<glyph unicode="&#xa2;" horiz-adv-x="778" d="M117 518q0 -66 9 -120t34.5 -98t68.5 -74.5t111 -47.5v-246h109v246q53 12 94 38t71 73q35 55 41.5 106t6.5 117v23q0 12 -3 22h-184q2 -10 2 -18v-19v-57q0 -31 -8 -58.5t-25.5 -46t-54.5 -18.5q-29 0 -46 13.5t-26.5 34t-12.5 46t-3 47.5v428q0 23 3 48.5t12.5 46 t26.5 34t46 13.5q35 0 53.5 -16.5t25.5 -41t8 -54.5t1 -54v-17q0 -8 -2 -16h184q0 6 1.5 13t1.5 14q0 61 -5.5 118.5t-42.5 110.5q-59 86 -165 104v222h-109v-222q-68 -16 -111 -46.5t-67.5 -74.5t-34.5 -99.5t-10 -117.5v-356z" />
<glyph unicode="&#xa3;" horiz-adv-x="778" d="M4 106l117 -126q10 14 23.5 31.5t29.5 31.5t34.5 24.5t39.5 10.5q25 0 55.5 -14.5t65 -32t73.5 -31.5t82 -14q70 0 114 36.5t69.5 92t36 120t10.5 117.5l-174 10q0 -16 -2.5 -43.5t-10.5 -55t-22.5 -48t-38.5 -20.5q-25 0 -65 16t-62 29q29 49 41 91t12 99q0 43 -7 85 t-17 83h174v125h-211q-10 27 -23.5 71t-25 91t-18.5 92t-7 76q0 53 25.5 99t87.5 46q39 0 60.5 -21.5t31.5 -52t13 -65.5t3 -64l193 4q0 76 -14.5 145.5t-49.5 123t-93 86t-144 32.5q-76 0 -134.5 -25.5t-97.5 -71.5t-59.5 -108.5t-20.5 -133.5q0 -86 27 -166t55 -158h-135 v-125h174q14 -43 23.5 -86t9.5 -90t-9.5 -82t-29.5 -76q-78 -10 -123 -52t-86 -106z" />
<glyph unicode="&#xa4;" horiz-adv-x="1366" d="M92 1233l199 -201q-47 -66 -72.5 -133.5t-25.5 -150.5q0 -160 100 -291l-197 -197l99 -100l196 196q72 -47 140.5 -72.5t154.5 -25.5q84 0 154.5 25.5t136.5 74.5l199 -198l98 100l-199 199q47 68 73 134t26 152t-27 154t-74 137l197 197l-99 98l-198 -196 q-70 49 -136.5 74.5t-152.5 25.5q-88 0 -155.5 -26.5t-139.5 -75.5l-199 198zM354 745q0 68 26 128.5t71 105.5t105 70.5t128 25.5t128 -26.5t104.5 -70.5t70 -104.5t25.5 -128.5t-25.5 -128t-71 -105t-105.5 -70.5t-128 -25.5t-128 26.5t-104 70.5t-70 104.5t-26 127.5z " />
<glyph unicode="&#xa5;" horiz-adv-x="778" d="M53 1366l205 -670h-145v-127h184v-569h195v569h184v127h-148l197 670h-197l-133 -537l-139 537h-203z" />
<glyph unicode="&#xa6;" d="M412 313v-655h200v655h-200zM412 672h200v694h-200v-694z" />
<glyph unicode="&#xa7;" horiz-adv-x="796" d="M82 733q0 -72 35 -125t78 -106l221 -266q14 -16 25.5 -33t11.5 -39q0 -29 -18.5 -47.5t-47.5 -18.5q-41 0 -59.5 32t-18.5 69v18t2 19h-186q-2 -10 -3 -20.5t-1 -20.5q0 -123 71.5 -193t194.5 -70q106 0 178 59.5t72 170.5q0 55 -21.5 102t-54.5 88q76 31 115 85t39 138 q0 53 -17.5 99.5t-52.5 87.5l-260 317q-16 18 -31.5 38t-15.5 44q0 27 19.5 42.5t43.5 15.5q47 0 60.5 -34t13.5 -73q0 -10 -1 -21.5t-1 -21.5h184q2 16 2 31v30q0 117 -69.5 186.5t-186.5 69.5q-49 0 -95 -14t-80.5 -41.5t-55 -69.5t-20.5 -96q0 -66 30.5 -118t71.5 -99 q-76 -29 -124 -79t-48 -136zM266 741q0 35 26.5 54.5t55.5 31.5l133 -157q16 -20 32.5 -44t16.5 -51q0 -41 -17 -62t-52 -38l-154 187q-16 20 -28.5 35.5t-12.5 43.5z" />
<glyph unicode="&#xa8;" d="M281 1184h176v182h-176v-182zM567 1184h176v182h-176v-182z" />
<glyph unicode="&#xa9;" horiz-adv-x="1515" d="M55 682q0 -145 55.5 -273t150.5 -223.5t223 -150.5t274 -55q145 0 273 55t223.5 150.5t150.5 223.5t55 273t-55 274t-150.5 224.5t-223.5 150.5t-273 55t-273.5 -55t-223.5 -150.5t-150.5 -224.5t-55.5 -274zM166 682q0 123 45 233.5t125 193.5t188.5 132t233.5 49 t233.5 -49t188.5 -132t125 -193.5t45 -233.5t-46.5 -233.5t-126 -193.5t-187 -132t-232.5 -49t-232.5 49t-187.5 132t-126 193.5t-46 233.5zM563 545q0 -57 5 -114.5t46 -104.5q57 -66 152 -66q53 0 99 24.5t73 71.5q25 43 27 87.5t2 91.5v28h-129v-35q0 -16 -2 -32 q0 -18 -2.5 -40t-8.5 -39.5t-20 -29.5t-41 -12q-31 0 -45 18.5t-20.5 44t-6.5 54.5v49v290v48q0 29 6.5 53t21.5 40.5t46 16.5t46 -18.5t21.5 -44t5.5 -55t-1 -50.5h129v27q0 45 -3 86t-26 80q-29 47 -74 68.5t-98 21.5q-59 0 -108.5 -28.5t-73.5 -82.5q-16 -35 -18.5 -77 t-2.5 -78v-293z" />
<glyph unicode="&#xaa;" horiz-adv-x="518" d="M90 608h342v68h-342v-68zM98 944q0 -45 20.5 -88t74.5 -43q33 0 60.5 18.5t49.5 40.5q2 -14 4 -26t4 -27h111q-6 41 -9 90t-3 99q0 51 1 99t1 89q0 37 -5.5 68.5t-19.5 55t-42 38t-71 14.5q-80 0 -119.5 -48t-43.5 -124h112q0 23 6.5 48.5t34.5 25.5q29 0 33 -22.5 t4 -45.5v-30q-37 -20 -72.5 -41t-64.5 -47.5t-47.5 -61.5t-18.5 -82zM211 963q0 45 27.5 73.5t62.5 50.5v-131q-10 -16 -25.5 -30.5t-35.5 -14.5q-18 0 -23.5 18.5t-5.5 33.5z" />
<glyph unicode="&#xab;" horiz-adv-x="630" d="M82 373l184 -154v230l-63 69l63 70v231l-184 -153v-293zM365 373l184 -168v244l-64 69l64 70v246l-184 -168v-293z" />
<glyph unicode="&#xac;" d="M68 387h710v-387h178v547h-888v-160z" />
<glyph unicode="&#xad;" horiz-adv-x="286" d="M0 426h287v184h-287v-184z" />
<glyph unicode="&#xae;" horiz-adv-x="993" d="M96 1141q0 -84 30 -162t83 -137.5t127 -95t162 -35.5t161.5 35.5t127 95t83 137.5t29.5 162t-29.5 160.5t-84 136t-128 95.5t-159.5 36q-88 0 -162 -35t-127 -94.5t-83 -137t-30 -161.5zM156 1141q0 72 25.5 138.5t70.5 117.5t108.5 81.5t137.5 30.5t136 -30.5t107 -81.5 t71 -117.5t26 -138.5t-25 -138.5t-70 -119t-107.5 -83t-137.5 -30.5q-76 0 -138.5 30.5t-107.5 82t-70.5 119t-25.5 139.5zM385 915h82v183h29l43 -183h79l-53 205q29 20 37 49t8 62q0 63 -26.5 99t-94.5 36h-104v-451zM467 1171v121h16q31 0 39 -16t8 -45t-8 -44.5 t-39 -15.5h-16z" />
<glyph unicode="&#xaf;" d="M313 1202h398v135h-398v-135z" />
<glyph unicode="&#xb0;" d="M215 1077q0 -61 23.5 -114.5t64.5 -92.5t94.5 -61.5t114.5 -22.5t114.5 22.5t94.5 61.5t64.5 92.5t23.5 114.5t-23.5 114.5t-64.5 91.5t-95.5 60.5t-113.5 22.5t-113.5 -22.5t-95.5 -60.5t-64.5 -91t-23.5 -115zM328 1077q0 76 54 128t130 52t130 -52t54 -130 q0 -76 -54 -128t-130 -52t-130 52t-54 130z" />
<glyph unicode="&#xb1;" d="M68 127h888v166h-888v-166zM68 713h356v-340h176v340h356v166h-356v340h-176v-340h-356v-166z" />
<glyph unicode="&#xb2;" horiz-adv-x="532" d="M68 545h391v121h-240q37 49 80 110.5t82 128t64.5 135t25.5 134.5q0 92 -49 148t-143 56q-109 0 -157 -64.5t-48 -166.5v-19q0 -6 2 -16h133v43q0 27 6 49.5t19.5 37.5t41.5 15q33 0 44.5 -26.5t11.5 -52.5q0 -63 -28 -133t-68.5 -138.5t-87 -131t-80.5 -111.5v-119z" />
<glyph unicode="&#xb3;" horiz-adv-x="532" d="M72 791q0 -53 8 -99.5t29.5 -81.5t59.5 -55t99 -20q55 0 93 19t59.5 52t31 77t9.5 93q0 59 -13.5 111.5t-68.5 85.5q47 29 58.5 79t11.5 99q0 43 -9.5 84t-30 72.5t-55.5 51t-84 19.5t-84.5 -17.5t-58.5 -48t-34 -70.5t-11 -85v-24h133q-2 16 -3 37.5t4 41t16.5 32.5 t33.5 13q20 0 30.5 -11t15.5 -28.5t6 -36t1 -32.5q0 -37 -5 -59.5t-17 -35t-35.5 -16.5t-60.5 -6v-121q41 0 65.5 -5t38.5 -20.5t18.5 -41t4.5 -64.5q0 -16 -1 -37.5t-6.5 -41t-17.5 -33t-37 -13.5q-23 0 -35 10.5t-18 26t-7 33.5t-1 35q0 20 2 31h-135z" />
<glyph unicode="&#xb4;" d="M428 1188h143l148 164h-199z" />
<glyph unicode="&#xb5;" d="M86 -346h176v465q43 -70 99.5 -107t142.5 -37q98 0 157.5 50.5t100.5 134.5v-160h174v981h-174v-530q0 -61 -7 -112.5t-42 -105.5q-72 -117 -205 -116q-61 0 -119.5 28.5t-89.5 83.5q-29 49 -33 101.5t-4 105.5v545h-176v-1327z" />
<glyph unicode="&#xb6;" horiz-adv-x="856" d="M82 1006q0 -66 21.5 -128.5t61.5 -110.5t96 -79t126 -33v-860h100v1510h113v-1510h98v1510h82v61h-352q-78 0 -142.5 -27.5t-109.5 -77t-69.5 -115t-24.5 -140.5z" />
<glyph unicode="&#xb7;" horiz-adv-x="221" d="M0 592h221v237h-221v-237z" />
<glyph unicode="&#xb8;" d="M432 -96v-137h55l-36 -115h98l43 115v137h-160z" />
<glyph unicode="&#xb9;" horiz-adv-x="532" d="M111 1180h106v-633h137v819h-92q-29 -33 -68.5 -60.5t-82.5 -37.5v-88z" />
<glyph unicode="&#xba;" horiz-adv-x="518" d="M90 608h342v68h-342v-68zM106 999q0 -78 34 -132t120 -54q84 0 118 55t34 131v187q0 76 -34 131t-118 55q-86 0 -120 -54t-34 -132v-187zM217 979v225q0 23 6 46.5t37 23.5q29 0 35 -23.5t6 -46.5v-225q0 -23 -6 -45.5t-35 -22.5t-36 22.5t-7 45.5z" />
<glyph unicode="&#xbb;" horiz-adv-x="630" d="M82 205l184 168v293l-184 168v-246l63 -70l-63 -69v-244zM365 219l184 154v293l-184 153v-231l63 -70l-63 -69v-230z" />
<glyph unicode="&#xbc;" horiz-adv-x="1241" d="M111 1180h106v-633h137v819h-92q-29 -33 -68.5 -60.5t-82.5 -37.5v-88zM342 -68h94l465 1502h-104zM754 197h225v-197h131v197h80v120h-80v502h-133l-223 -506v-116zM864 313l119 293v-293h-119z" />
<glyph unicode="&#xbd;" horiz-adv-x="1241" d="M111 1180h106v-633h137v819h-92q-29 -33 -68.5 -60.5t-82.5 -37.5v-88zM342 -68h94l465 1502h-104zM776 0h391v121h-239q37 49 80 110.5t81.5 127t64.5 134t26 134.5q0 92 -49.5 148t-143.5 56q-109 0 -157 -64.5t-48 -166.5v-18q0 -6 2 -17h134v43q0 27 6 49.5t19 38 t42 15.5q33 0 44 -27t11 -53q0 -61 -28.5 -132t-69.5 -139.5t-86 -131t-80 -109.5v-119z" />
<glyph unicode="&#xbe;" horiz-adv-x="1241" d="M72 791q0 -53 8 -99.5t29.5 -81.5t59.5 -55t99 -20q55 0 93 19t59.5 52t31 77t9.5 93q0 59 -13.5 111.5t-68.5 85.5q47 29 58.5 79t11.5 99q0 43 -9.5 84t-30 72.5t-55.5 51t-84 19.5t-84.5 -17.5t-58.5 -48t-34 -70.5t-11 -85v-24h133q-2 16 -3 37.5t4 41t16.5 32.5 t33.5 13q20 0 30.5 -11t15.5 -28.5t6 -36t1 -32.5q0 -37 -5 -59.5t-17 -35t-35.5 -16.5t-60.5 -6v-121q41 0 65.5 -5t38.5 -20.5t18.5 -41t4.5 -64.5q0 -16 -1 -37.5t-6.5 -41t-17.5 -33t-37 -13.5q-23 0 -35 10.5t-18 26t-7 33.5t-1 35q0 20 2 31h-135zM342 -68h94 l465 1502h-104zM754 197h225v-197h131v197h80v120h-80v502h-133l-223 -506v-116zM864 313l119 293v-293h-119z" />
<glyph unicode="&#xbf;" horiz-adv-x="708" d="M82 -109q0 -119 71.5 -186t188.5 -67q127 0 194.5 66t102.5 181l-166 66q-8 -23 -19.5 -48.5t-26.5 -47t-35.5 -36t-49.5 -14.5q-41 0 -58.5 30t-17.5 67q0 41 13.5 68.5t31.5 62.5q37 66 70 132t49 140q16 66 20.5 133.5t4.5 132.5v43h-164q0 -61 -1 -122.5t-18 -120.5 q-18 -66 -50 -122t-62.5 -111.5t-54 -115t-23.5 -131.5zM270 805h199v213h-199v-213z" />
<glyph unicode="&#xc0;" horiz-adv-x="829" d="M55 0h203l45 301h221l47 -301h211l-237 1366h-269zM195 1638l147 -163h143l-94 163h-196zM332 492l78 544l84 -544h-162z" />
<glyph unicode="&#xc1;" horiz-adv-x="829" d="M55 0h203l45 301h221l47 -301h211l-237 1366h-269zM317 1475h144l147 163h-198zM332 492l78 544l84 -544h-162z" />
<glyph unicode="&#xc2;" horiz-adv-x="829" d="M55 0h203l45 301h221l47 -301h211l-237 1366h-269zM193 1475h163l58 63l59 -63h164l-119 163h-207zM332 492l78 544l84 -544h-162z" />
<glyph unicode="&#xc3;" horiz-adv-x="829" d="M55 0h203l45 301h221l47 -301h211l-237 1366h-269zM217 1470q29 16 53.5 22.5t59.5 6.5q49 0 93 -19.5t93 -19.5q29 0 50 10.5t46 24.5v141q-25 -14 -46 -24t-50 -10q-47 0 -91 20t-95 20q-35 0 -59.5 -7t-53.5 -23v-142zM332 492l78 544l84 -544h-162z" />
<glyph unicode="&#xc4;" horiz-adv-x="829" d="M55 0h203l45 301h221l47 -301h211l-237 1366h-269zM182 1475h178v182h-178v-182zM332 492l78 544l84 -544h-162zM469 1475h178v182h-178v-182z" />
<glyph unicode="&#xc5;" horiz-adv-x="829" d="M55 0h203l45 301h221l47 -301h211l-237 1366h-269zM264 1591q0 -61 46 -102t106 -41q59 0 104 41t45 102q0 59 -45 100.5t-104 41.5t-105.5 -40t-46.5 -102zM332 492l78 544l84 -544h-162zM340 1591q0 31 23.5 50.5t52.5 19.5t51 -19.5t22 -50.5t-21.5 -52t-51.5 -21 q-31 0 -53.5 21.5t-22.5 51.5z" />
<glyph unicode="&#xc6;" horiz-adv-x="1179" d="M35 0h213l90 301h219v-301h557v190h-352v422h254v191h-254v371h352v192h-655zM395 492l162 544v-544h-162z" />
<glyph unicode="&#xc7;" horiz-adv-x="794" d="M86 354q0 -47 7 -93t24.5 -90t50.5 -83q47 -53 107.5 -80.5t132.5 -27.5q88 0 159.5 40.5t112.5 118.5q39 76 43 143.5t4 151.5v49h-207v-57q0 -27 -2 -55q0 -29 -2 -64t-12 -65.5t-32.5 -51t-65.5 -20.5q-53 0 -78 35t-31 82q-6 45 -6 90v90v432v90t6 90q6 47 31.5 81 t77.5 34q49 0 72.5 -26.5t32.5 -64.5t9 -81v-76v-33h207v48q0 76 -4 142t-43 132q-43 76 -114.5 113.5t-157.5 37.5q-70 0 -132.5 -27.5t-107.5 -80.5q-33 -41 -50.5 -84t-24.5 -88t-7 -94v-99v-460v-99zM326 -96v-137h55l-35 -115h96l45 115v137h-161z" />
<glyph unicode="&#xc8;" horiz-adv-x="712" d="M92 0h557v190h-352v422h252v191h-252v371h352v192h-557v-1366zM150 1638l147 -163h143l-92 163h-198z" />
<glyph unicode="&#xc9;" horiz-adv-x="712" d="M92 0h557v190h-352v422h252v191h-252v371h352v192h-557v-1366zM287 1475h143l148 163h-199z" />
<glyph unicode="&#xca;" horiz-adv-x="712" d="M92 0h557v190h-352v422h252v191h-252v371h352v192h-557v-1366zM147 1475h166l58 63l57 -63h166l-121 163h-205z" />
<glyph unicode="&#xcb;" horiz-adv-x="712" d="M92 0h557v190h-352v422h252v191h-252v371h352v192h-557v-1366zM139 1475h176v182h-176v-182zM426 1475h176v182h-176v-182z" />
<glyph unicode="&#xcc;" horiz-adv-x="387" d="M-27 1638l148 -163h143l-92 163h-199zM92 0h205v1366h-205v-1366z" />
<glyph unicode="&#xcd;" horiz-adv-x="387" d="M92 0h205v1366h-205v-1366zM96 1475h144l147 163h-199z" />
<glyph unicode="&#xce;" horiz-adv-x="387" d="M-6 1475h147l54 63l51 -63h147l-106 163h-187zM92 0h205v1366h-205v-1366z" />
<glyph unicode="&#xcf;" horiz-adv-x="387" d="M6 1475h144v182h-144v-182zM92 0h205v1366h-205v-1366zM238 1475h145v182h-145v-182z" />
<glyph unicode="&#xd0;" horiz-adv-x="813" d="M23 612h67v-612h291q190 0 268 102.5t78 282.5v594q0 90 -18.5 161.5t-59.5 122t-106.5 77t-161.5 26.5h-291v-563h-67v-191zM295 190v422h117v191h-117v373h63q57 0 90 -19.5t49.5 -51.5t20.5 -75t4 -88v-518q0 -47 -4 -89t-20.5 -74t-49 -51.5t-90.5 -19.5h-63z" />
<glyph unicode="&#xd1;" horiz-adv-x="860" d="M92 0h191v844l295 -844h192v1366h-192v-811l-279 811h-207v-1366zM233 1470q29 16 54.5 22.5t58.5 6.5q49 0 93 -19.5t91 -19.5q29 0 51.5 10.5t47.5 24.5v141q-25 -14 -46.5 -24t-50.5 -10q-47 0 -91 20t-95 20q-35 0 -59.5 -7t-53.5 -23v-142z" />
<glyph unicode="&#xd2;" horiz-adv-x="813" d="M86 444q0 -47 1 -94t8 -93t24.5 -89t48.5 -80q45 -53 106.5 -80.5t133.5 -27.5q70 0 132 27.5t107 80.5q31 39 47.5 82t23.5 88t8 92t1 94v476q0 45 -1 93t-8 94t-23.5 90t-47.5 81q-45 53 -107.5 80.5t-131.5 27.5q-70 0 -133.5 -27.5t-106.5 -80.5q-31 -39 -48.5 -82 t-24.5 -88t-8 -92t-1 -96v-476zM172 1638l147 -163h146l-94 163h-199zM291 465v444q0 43 1 86t5 84q6 47 31.5 81t79.5 34q49 0 72.5 -28.5t32.5 -68.5t9 -87v-78v-488v-79q0 -39 -4 -78q-4 -47 -31.5 -82t-78.5 -35q-43 0 -66 19.5t-34 49t-13 64.5t-2 66q0 25 -1 48t-1 48 z" />
<glyph unicode="&#xd3;" horiz-adv-x="813" d="M86 444q0 -47 1 -94t8 -93t24.5 -89t48.5 -80q45 -53 106.5 -80.5t133.5 -27.5q70 0 132 27.5t107 80.5q31 39 47.5 82t23.5 88t8 92t1 94v476q0 45 -1 93t-8 94t-23.5 90t-47.5 81q-45 53 -107.5 80.5t-131.5 27.5q-70 0 -133.5 -27.5t-106.5 -80.5q-31 -39 -48.5 -82 t-24.5 -88t-8 -92t-1 -96v-476zM291 465v444q0 43 1 86t5 84q6 47 31.5 81t79.5 34q49 0 72.5 -28.5t32.5 -68.5t9 -87v-78v-488v-79q0 -39 -4 -78q-4 -47 -31.5 -82t-78.5 -35q-43 0 -66 19.5t-34 49t-13 64.5t-2 66q0 25 -1 48t-1 48zM336 1475h143l150 163h-199z" />
<glyph unicode="&#xd4;" horiz-adv-x="813" d="M86 444q0 -47 1 -94t8 -93t24.5 -89t48.5 -80q45 -53 106.5 -80.5t133.5 -27.5q70 0 132 27.5t107 80.5q31 39 47.5 82t23.5 88t8 92t1 94v476q0 45 -1 93t-8 94t-23.5 90t-47.5 81q-45 53 -107.5 80.5t-131.5 27.5q-70 0 -133.5 -27.5t-106.5 -80.5q-31 -39 -48.5 -82 t-24.5 -88t-8 -92t-1 -96v-476zM184 1475h164l60 63l57 -63h164l-119 163h-207zM291 465v444q0 43 1 86t5 84q6 47 31.5 81t79.5 34q49 0 72.5 -28.5t32.5 -68.5t9 -87v-78v-488v-79q0 -39 -4 -78q-4 -47 -31.5 -82t-78.5 -35q-43 0 -66 19.5t-34 49t-13 64.5t-2 66 q0 25 -1 48t-1 48z" />
<glyph unicode="&#xd5;" horiz-adv-x="813" d="M86 444q0 -47 1 -94t8 -93t24.5 -89t48.5 -80q45 -53 106.5 -80.5t133.5 -27.5q70 0 132 27.5t107 80.5q31 39 47.5 82t23.5 88t8 92t1 94v476q0 45 -1 93t-8 94t-23.5 90t-47.5 81q-45 53 -107.5 80.5t-131.5 27.5q-70 0 -133.5 -27.5t-106.5 -80.5q-31 -39 -48.5 -82 t-24.5 -88t-8 -92t-1 -96v-476zM209 1470q29 16 54.5 22.5t60.5 6.5q49 0 93 -19.5t91 -19.5q29 0 50 10.5t46 24.5v141q-25 -14 -46 -24t-50 -10q-47 0 -91 20t-93 20q-35 0 -60.5 -7t-54.5 -23v-142zM291 465v444q0 43 1 86t5 84q6 47 31.5 81t79.5 34q49 0 72.5 -28.5 t32.5 -68.5t9 -87v-78v-488v-79q0 -39 -4 -78q-4 -47 -31.5 -82t-78.5 -35q-43 0 -66 19.5t-34 49t-13 64.5t-2 66q0 25 -1 48t-1 48z" />
<glyph unicode="&#xd6;" horiz-adv-x="813" d="M86 444q0 -47 1 -94t8 -93t24.5 -89t48.5 -80q45 -53 106.5 -80.5t133.5 -27.5q70 0 132 27.5t107 80.5q31 39 47.5 82t23.5 88t8 92t1 94v476q0 45 -1 93t-8 94t-23.5 90t-47.5 81q-45 53 -107.5 80.5t-131.5 27.5q-70 0 -133.5 -27.5t-106.5 -80.5q-31 -39 -48.5 -82 t-24.5 -88t-8 -92t-1 -96v-476zM174 1475h178v182h-178v-182zM291 465v444q0 43 1 86t5 84q6 47 31.5 81t79.5 34q49 0 72.5 -28.5t32.5 -68.5t9 -87v-78v-488v-79q0 -39 -4 -78q-4 -47 -31.5 -82t-78.5 -35q-43 0 -66 19.5t-34 49t-13 64.5t-2 66q0 25 -1 48t-1 48z M461 1475h178v182h-178v-182z" />
<glyph unicode="&#xd7;" horiz-adv-x="778" d="M119 539l112 -113l156 156l152 -152l116 117l-151 151l153 156l-110 113l-156 -156l-151 152l-119 -117l153 -152z" />
<glyph unicode="&#xd8;" horiz-adv-x="813" d="M68 -25h108l29 74q90 -70 203 -69q70 0 133 27.5t106 80.5q31 39 47.5 81t23.5 88t8 93t1 94v476q0 88 -6 169.5t-53 159.5l53 140h-109l-22 -58q-84 55 -182 55q-70 0 -133.5 -27.5t-106.5 -80.5q-31 -41 -48.5 -83t-24.5 -87t-8 -92t-1 -96v-476q0 -76 5 -153.5 t40 -147.5zM291 557v352q0 41 1 85t5 85q6 47 31.5 81t79.5 34q37 0 62.5 -19.5t37.5 -54.5zM297 287l225 587v-432v-77q0 -39 -4 -78q-4 -47 -31.5 -82t-78.5 -35q-53 0 -80 34t-31 83z" />
<glyph unicode="&#xd9;" horiz-adv-x="825" d="M92 444q0 -47 1 -94t8.5 -93t23.5 -89t47 -80q45 -53 107.5 -80.5t132.5 -27.5q68 0 132 27.5t107 80.5q31 39 48.5 82t24.5 87t8 91t1 96v922h-205v-899v-90t-6 -90q-6 -47 -31.5 -82t-78.5 -35q-49 0 -73 26.5t-33 64.5t-9 81v76v948h-205v-922zM190 1638l150 -163h143 l-94 163h-199z" />
<glyph unicode="&#xda;" horiz-adv-x="825" d="M92 444q0 -47 1 -94t8.5 -93t23.5 -89t47 -80q45 -53 107.5 -80.5t132.5 -27.5q68 0 132 27.5t107 80.5q31 39 48.5 82t24.5 87t8 91t1 96v922h-205v-899v-90t-6 -90q-6 -47 -31.5 -82t-78.5 -35q-49 0 -73 26.5t-33 64.5t-9 81v76v948h-205v-922zM328 1475h143l150 163 h-199z" />
<glyph unicode="&#xdb;" horiz-adv-x="825" d="M92 444q0 -47 1 -94t8.5 -93t23.5 -89t47 -80q45 -53 107.5 -80.5t132.5 -27.5q68 0 132 27.5t107 80.5q31 39 48.5 82t24.5 87t8 91t1 96v922h-205v-899v-90t-6 -90q-6 -47 -31.5 -82t-78.5 -35q-49 0 -73 26.5t-33 64.5t-9 81v76v948h-205v-922zM190 1475h164l58 63 l59 -63h164l-121 163h-205z" />
<glyph unicode="&#xdc;" horiz-adv-x="825" d="M92 444q0 -47 1 -94t8.5 -93t23.5 -89t47 -80q45 -53 107.5 -80.5t132.5 -27.5q68 0 132 27.5t107 80.5q31 39 48.5 82t24.5 87t8 91t1 96v922h-205v-899v-90t-6 -90q-6 -47 -31.5 -82t-78.5 -35q-49 0 -73 26.5t-33 64.5t-9 81v76v948h-205v-922zM180 1475h178v182h-178 v-182zM467 1475h178v182h-178v-182z" />
<glyph unicode="&#xdd;" horiz-adv-x="761" d="M27 1366l170 -543q12 -39 24 -70.5t23.5 -62.5t20.5 -63.5t18 -73.5q10 -53 5 -92t-5 -92v-369h204v184v369l164 543l82 270h-207l-141 -537l-145 537h-213zM283 1475h143l147 163h-196z" />
<glyph unicode="&#xde;" horiz-adv-x="800" d="M92 0h205v332h82q106 0 176 24.5t108.5 74.5t54 126t15.5 176t-15.5 175t-55 125t-108.5 75t-175 25h-82v233h-205v-1366zM297 522v420h65q57 0 90 -13.5t50.5 -40t21.5 -65.5t4 -90q0 -53 -4 -92t-21.5 -65.5t-50 -40t-90.5 -13.5h-65z" />
<glyph unicode="&#xdf;" horiz-adv-x="700" d="M80 0h184v1075q0 23 2 47.5t9.5 44t23.5 32.5t45 13q45 0 60.5 -28.5t15.5 -67.5q0 -47 -19.5 -71.5t-68.5 -26.5v-168q45 -8 64.5 -37t29.5 -70q12 -51 13 -105t1 -108v-73q0 -49 -3 -101.5t-12 -99.5t-26 -68q-14 -20 -43 -20h-24v-168h65q82 0 128 57.5t67.5 138 t27 167t5.5 143.5q0 53 -1 117.5t-13.5 126t-41 115t-84.5 81.5q61 29 83 73t22 109q0 117 -65.5 183.5t-182.5 66.5q-66 0 -115 -22.5t-81.5 -61.5t-49 -93t-16.5 -116v-1085z" />
<glyph unicode="&#xe0;" horiz-adv-x="708" d="M61 227q0 -37 8.5 -80t27 -78.5t50 -59t78.5 -23.5q68 0 122 41t95 88q2 -55 13 -115h186q-16 92 -18 183t-2 186v336q0 63 -4.5 124.5t-45.5 114.5q-35 47 -86 66.5t-108 19.5q-141 0 -211 -86t-78 -219h186q2 23 5.5 47.5t11.5 45t24.5 33.5t44.5 13q31 0 46.5 -13 t22.5 -33.5t7 -45.5v-47v-66q-66 -37 -133 -76.5t-120.5 -90t-87.5 -115t-34 -150.5zM147 1352l148 -164h143l-92 164h-199zM252 260q0 47 15.5 85t41 68.5t58 56.5t69.5 48v-270q-18 -33 -49 -63.5t-72 -30.5q-20 0 -32.5 11t-19.5 26.5t-9 34t-2 34.5z" />
<glyph unicode="&#xe1;" horiz-adv-x="708" d="M61 227q0 -37 8.5 -80t27 -78.5t50 -59t78.5 -23.5q68 0 122 41t95 88q2 -55 13 -115h186q-16 92 -18 183t-2 186v336q0 63 -4.5 124.5t-45.5 114.5q-35 47 -86 66.5t-108 19.5q-141 0 -211 -86t-78 -219h186q2 23 5.5 47.5t11.5 45t24.5 33.5t44.5 13q31 0 46.5 -13 t22.5 -33.5t7 -45.5v-47v-66q-66 -37 -133 -76.5t-120.5 -90t-87.5 -115t-34 -150.5zM252 260q0 47 15.5 85t41 68.5t58 56.5t69.5 48v-270q-18 -33 -49 -63.5t-72 -30.5q-20 0 -32.5 11t-19.5 26.5t-9 34t-2 34.5zM283 1188h145l147 164h-198z" />
<glyph unicode="&#xe2;" horiz-adv-x="708" d="M61 227q0 -37 8.5 -80t27 -78.5t50 -59t78.5 -23.5q68 0 122 41t95 88q2 -55 13 -115h186q-16 92 -18 183t-2 186v336q0 63 -4.5 124.5t-45.5 114.5q-35 47 -86 66.5t-108 19.5q-141 0 -211 -86t-78 -219h186q2 23 5.5 47.5t11.5 45t24.5 33.5t44.5 13q31 0 46.5 -13 t22.5 -33.5t7 -45.5v-47v-66q-66 -37 -133 -76.5t-120.5 -90t-87.5 -115t-34 -150.5zM131 1188h166l57 63l58 -63h166l-121 164h-205zM252 260q0 47 15.5 85t41 68.5t58 56.5t69.5 48v-270q-18 -33 -49 -63.5t-72 -30.5q-20 0 -32.5 11t-19.5 26.5t-9 34t-2 34.5z" />
<glyph unicode="&#xe3;" horiz-adv-x="708" d="M61 227q0 -37 8.5 -80t27 -78.5t50 -59t78.5 -23.5q68 0 122 41t95 88q2 -55 13 -115h186q-16 92 -18 183t-2 186v336q0 63 -4.5 124.5t-45.5 114.5q-35 47 -86 66.5t-108 19.5q-141 0 -211 -86t-78 -219h186q2 23 5.5 47.5t11.5 45t24.5 33.5t44.5 13q31 0 46.5 -13 t22.5 -33.5t7 -45.5v-47v-66q-66 -37 -133 -76.5t-120.5 -90t-87.5 -115t-34 -150.5zM156 1188q29 16 54.5 23.5t59.5 7.5q49 0 93.5 -19.5t91.5 -19.5q31 0 51 9t47 25v142q-25 -14 -46.5 -24.5t-49.5 -10.5q-49 0 -93.5 19.5t-93.5 19.5q-35 0 -60.5 -7t-53.5 -24v-141z M252 260q0 47 15.5 85t41 68.5t58 56.5t69.5 48v-270q-18 -33 -49 -63.5t-72 -30.5q-20 0 -32.5 11t-19.5 26.5t-9 34t-2 34.5z" />
<glyph unicode="&#xe4;" horiz-adv-x="708" d="M61 227q0 -37 8.5 -80t27 -78.5t50 -59t78.5 -23.5q68 0 122 41t95 88q2 -55 13 -115h186q-16 92 -18 183t-2 186v336q0 63 -4.5 124.5t-45.5 114.5q-35 47 -86 66.5t-108 19.5q-141 0 -211 -86t-78 -219h186q2 23 5.5 47.5t11.5 45t24.5 33.5t44.5 13q31 0 46.5 -13 t22.5 -33.5t7 -45.5v-47v-66q-66 -37 -133 -76.5t-120.5 -90t-87.5 -115t-34 -150.5zM123 1184h176v182h-176v-182zM252 260q0 47 15.5 85t41 68.5t58 56.5t69.5 48v-270q-18 -33 -49 -63.5t-72 -30.5q-20 0 -32.5 11t-19.5 26.5t-9 34t-2 34.5zM410 1184h176v182h-176v-182 z" />
<glyph unicode="&#xe5;" horiz-adv-x="708" d="M61 227q0 -37 8.5 -80t27 -78.5t50 -59t78.5 -23.5q68 0 122 41t95 88q2 -55 13 -115h186q-16 92 -18 183t-2 186v336q0 63 -4.5 124.5t-45.5 114.5q-35 47 -86 66.5t-108 19.5q-141 0 -211 -86t-78 -219h186q2 23 5.5 47.5t11.5 45t24.5 33.5t44.5 13q31 0 46.5 -13 t22.5 -33.5t7 -45.5v-47v-66q-66 -37 -133 -76.5t-120.5 -90t-87.5 -115t-34 -150.5zM227 1288q0 -61 45 -102t105 -41q59 0 104 41t45 102q0 59 -45 100.5t-104 41.5t-104.5 -41t-45.5 -101zM252 260q0 47 15.5 85t41 68.5t58 56.5t69.5 48v-270q-18 -33 -49 -63.5 t-72 -30.5q-20 0 -32.5 11t-19.5 26.5t-9 34t-2 34.5zM301 1288q0 31 23.5 50.5t52.5 19.5t52.5 -19.5t23.5 -50.5t-22.5 -52.5t-53.5 -21.5t-53.5 21.5t-22.5 52.5z" />
<glyph unicode="&#xe6;" horiz-adv-x="1060" d="M61 229q0 -45 10.5 -88t32 -77.5t57.5 -56t87 -21.5q72 0 128 41t103 88q41 -66 101.5 -97.5t136.5 -31.5q66 0 126 28.5t99 81.5q39 55 43 109.5t4 120.5v26h-188q0 -27 1 -61.5t-5 -65t-24.5 -51t-57.5 -20.5q-31 0 -50.5 12t-28.5 32.5t-12 46t-3 50.5v180h368v211 q0 63 -9 124.5t-48 115.5q-39 51 -96.5 77.5t-120.5 26.5q-96 0 -172 -55q-37 31 -78 43t-88 12q-141 0 -211 -86t-78 -219h186q2 23 5.5 47.5t11.5 45t24.5 33.5t44.5 13q31 0 46.5 -13t22.5 -34.5t7 -46.5v-45v-66q-66 -37 -132 -76.5t-120.5 -89t-88.5 -114t-34 -150.5z M252 260q0 47 15.5 85t41 68.5t58 56.5t69.5 48v-270q-18 -33 -49 -63.5t-72 -30.5q-20 0 -32.5 11t-19.5 26.5t-9 34t-2 34.5zM621 629v94q0 25 3 50.5t12 45t27.5 32.5t49.5 13t49 -13t27.5 -32.5t12.5 -45t3 -50.5v-94h-184z" />
<glyph unicode="&#xe7;" horiz-adv-x="667" d="M72 330q0 -63 9 -125t50 -115q39 -51 97.5 -77.5t121.5 -26.5q66 0 124 30.5t95 85.5q39 57 42 117t3 125v27h-184q0 -27 2 -64t-4 -70.5t-24.5 -58t-59.5 -24.5q-29 0 -46 13t-26.5 33.5t-12.5 46t-3 48.5v428q0 23 3 48.5t12.5 46t26.5 33.5t46 13q39 0 57.5 -20.5 t24.5 -51t5 -65.5t-1 -61h184q0 10 1 19.5t1 19.5q0 57 -7 113t-40 104q-35 53 -94 80.5t-123 27.5q-63 0 -122.5 -26.5t-98.5 -77.5q-41 -53 -50 -114.5t-9 -125.5v-356zM264 -96v-137h55l-36 -115h98l43 115v137h-160z" />
<glyph unicode="&#xe8;" horiz-adv-x="696" d="M72 330q0 -63 9 -125t50 -115q39 -51 99.5 -77.5t123.5 -26.5q66 0 125.5 28.5t98.5 81.5q39 55 43 109.5t4 120.5v26h-189q0 -27 1 -61.5t-5 -65t-24.5 -51t-57.5 -20.5q-31 0 -49 13t-28.5 32.5t-13.5 45t-3 50.5v180h369v211q0 63 -9.5 124.5t-48.5 115.5 q-39 51 -96 77.5t-121 26.5q-63 0 -122.5 -26.5t-98.5 -78t-48 -114.5t-9 -125v-356zM127 1352l149 -164h144l-94 164h-199zM256 629v94q0 25 3 50.5t12.5 45t27.5 32.5t49 13t49.5 -13t27.5 -32.5t12 -45t3 -50.5v-94h-184z" />
<glyph unicode="&#xe9;" horiz-adv-x="696" d="M72 330q0 -63 9 -125t50 -115q39 -51 99.5 -77.5t123.5 -26.5q66 0 125.5 28.5t98.5 81.5q39 55 43 109.5t4 120.5v26h-189q0 -27 1 -61.5t-5 -65t-24.5 -51t-57.5 -20.5q-31 0 -49 13t-28.5 32.5t-13.5 45t-3 50.5v180h369v211q0 63 -9.5 124.5t-48.5 115.5 q-39 51 -96 77.5t-121 26.5q-63 0 -122.5 -26.5t-98.5 -78t-48 -114.5t-9 -125v-356zM256 629v94q0 25 3 50.5t12.5 45t27.5 32.5t49 13t49.5 -13t27.5 -32.5t12 -45t3 -50.5v-94h-184zM264 1188h144l147 164h-199z" />
<glyph unicode="&#xea;" horiz-adv-x="696" d="M72 330q0 -63 9 -125t50 -115q39 -51 99.5 -77.5t123.5 -26.5q66 0 125.5 28.5t98.5 81.5q39 55 43 109.5t4 120.5v26h-189q0 -27 1 -61.5t-5 -65t-24.5 -51t-57.5 -20.5q-31 0 -49 13t-28.5 32.5t-13.5 45t-3 50.5v180h369v211q0 63 -9.5 124.5t-48.5 115.5 q-39 51 -96 77.5t-121 26.5q-63 0 -122.5 -26.5t-98.5 -78t-48 -114.5t-9 -125v-356zM125 1188h166l57 63l58 -63h165l-120 164h-205zM256 629v94q0 25 3 50.5t12.5 45t27.5 32.5t49 13t49.5 -13t27.5 -32.5t12 -45t3 -50.5v-94h-184z" />
<glyph unicode="&#xeb;" horiz-adv-x="696" d="M72 330q0 -63 9 -125t50 -115q39 -51 99.5 -77.5t123.5 -26.5q66 0 125.5 28.5t98.5 81.5q39 55 43 109.5t4 120.5v26h-189q0 -27 1 -61.5t-5 -65t-24.5 -51t-57.5 -20.5q-31 0 -49 13t-28.5 32.5t-13.5 45t-3 50.5v180h369v211q0 63 -9.5 124.5t-48.5 115.5 q-39 51 -96 77.5t-121 26.5q-63 0 -122.5 -26.5t-98.5 -78t-48 -114.5t-9 -125v-356zM117 1184h176v182h-176v-182zM256 629v94q0 25 3 50.5t12.5 45t27.5 32.5t49 13t49.5 -13t27.5 -32.5t12 -45t3 -50.5v-94h-184zM403 1184h177v182h-177v-182z" />
<glyph unicode="&#xec;" horiz-adv-x="342" d="M-23 1352l148 -164h145l-94 164h-199zM80 0h184v1018h-184v-1018z" />
<glyph unicode="&#xed;" horiz-adv-x="342" d="M74 1188h143l148 164h-199zM80 0h184v1018h-184v-1018z" />
<glyph unicode="&#xee;" horiz-adv-x="342" d="M-8 1188h133l47 63l47 -63h133l-98 164h-166zM80 0h184v1018h-184v-1018z" />
<glyph unicode="&#xef;" horiz-adv-x="342" d="M2 1184h129v182h-129v-182zM80 0h184v1018h-184v-1018zM211 1184h129v182h-129v-182z" />
<glyph unicode="&#xf0;" horiz-adv-x="688" d="M72 332q0 -63 9 -126t48 -116q37 -51 95.5 -77.5t119.5 -26.5t119.5 26.5t95.5 77.5q39 53 48 116t9 126v448q0 131 -30.5 263.5t-114.5 236.5l96 80l-53 61l-98 -82q-16 14 -31.5 28.5t-32.5 27.5l-94 -92q14 -12 27.5 -24.5t25.5 -27.5l-104 -86l53 -63l98 82 q31 -47 47.5 -115t22.5 -123q-33 41 -67.5 63.5t-88.5 22.5q-47 0 -89 -19.5t-70 -60.5q-16 -25 -25.5 -54.5t-12.5 -61t-3 -64.5v-59v-381zM256 295v428q0 25 2 49.5t11.5 45t26.5 33.5t48 13t48.5 -13t26.5 -33.5t11 -45t2 -49.5v-428q0 -25 -2 -49.5t-11 -45t-26.5 -33.5 t-48.5 -13t-48 13t-26.5 33.5t-11.5 45t-2 49.5z" />
<glyph unicode="&#xf1;" horiz-adv-x="690" d="M80 0h184v778q18 29 48 57.5t67 28.5q20 0 30.5 -12t14.5 -30.5t3 -38t-1 -33.5v-750h184v807q0 37 -2 77t-15 72.5t-41 53t-77 20.5q-72 0 -120 -37t-91 -86v111h-184v-1018zM147 1188q29 16 53.5 23.5t59.5 7.5q49 0 93 -19.5t93 -19.5q31 0 51.5 9t45.5 25v142 q-25 -14 -46.5 -24.5t-50.5 -10.5q-49 0 -93 19.5t-93 19.5q-35 0 -59.5 -7t-53.5 -24v-141z" />
<glyph unicode="&#xf2;" horiz-adv-x="688" d="M72 330q0 -63 9 -125t48 -115q37 -49 95.5 -76.5t119.5 -27.5t119.5 27.5t95.5 76.5q39 53 48 115t9 125v356q0 63 -9 124.5t-48 115.5q-37 49 -95 76.5t-120 27.5q-61 0 -119.5 -27.5t-95.5 -76.5q-39 -53 -48 -114.5t-9 -125.5v-356zM123 1352l149 -164h144l-94 164 h-199zM256 295v428q0 23 3 48.5t12.5 46t26.5 33.5t46 13q31 0 48.5 -13t26.5 -33.5t11 -46.5t2 -48v-428q0 -25 -2 -49.5t-11 -45t-26.5 -33.5t-48.5 -13q-29 0 -46 13t-26.5 33.5t-12.5 46t-3 48.5z" />
<glyph unicode="&#xf3;" horiz-adv-x="688" d="M72 330q0 -63 9 -125t48 -115q37 -49 95.5 -76.5t119.5 -27.5t119.5 27.5t95.5 76.5q39 53 48 115t9 125v356q0 63 -9 124.5t-48 115.5q-37 49 -95 76.5t-120 27.5q-61 0 -119.5 -27.5t-95.5 -76.5q-39 -53 -48 -114.5t-9 -125.5v-356zM256 295v428q0 23 3 48.5t12.5 46 t26.5 33.5t46 13q31 0 48.5 -13t26.5 -33.5t11 -46.5t2 -48v-428q0 -25 -2 -49.5t-11 -45t-26.5 -33.5t-48.5 -13q-29 0 -46 13t-26.5 33.5t-12.5 46t-3 48.5zM274 1188h144l147 164h-198z" />
<glyph unicode="&#xf4;" horiz-adv-x="688" d="M72 330q0 -63 9 -125t48 -115q37 -49 95.5 -76.5t119.5 -27.5t119.5 27.5t95.5 76.5q39 53 48 115t9 125v356q0 63 -9 124.5t-48 115.5q-37 49 -95 76.5t-120 27.5q-61 0 -119.5 -27.5t-95.5 -76.5q-39 -53 -48 -114.5t-9 -125.5v-356zM123 1188h164l57 63l57 -63h166 l-121 164h-204zM256 295v428q0 23 3 48.5t12.5 46t26.5 33.5t46 13q31 0 48.5 -13t26.5 -33.5t11 -46.5t2 -48v-428q0 -25 -2 -49.5t-11 -45t-26.5 -33.5t-48.5 -13q-29 0 -46 13t-26.5 33.5t-12.5 46t-3 48.5z" />
<glyph unicode="&#xf5;" horiz-adv-x="688" d="M72 330q0 -63 9 -125t48 -115q37 -49 95.5 -76.5t119.5 -27.5t119.5 27.5t95.5 76.5q39 53 48 115t9 125v356q0 63 -9 124.5t-48 115.5q-37 49 -95 76.5t-120 27.5q-61 0 -119.5 -27.5t-95.5 -76.5q-39 -53 -48 -114.5t-9 -125.5v-356zM147 1188q29 16 53.5 23.5 t59.5 7.5q49 0 93 -19.5t91 -19.5q31 0 51.5 9t47.5 25v142q-25 -14 -46.5 -24.5t-50.5 -10.5q-49 0 -93 19.5t-93 19.5q-35 0 -59.5 -7t-53.5 -24v-141zM256 295v428q0 23 3 48.5t12.5 46t26.5 33.5t46 13q31 0 48.5 -13t26.5 -33.5t11 -46.5t2 -48v-428q0 -25 -2 -49.5 t-11 -45t-26.5 -33.5t-48.5 -13q-29 0 -46 13t-26.5 33.5t-12.5 46t-3 48.5z" />
<glyph unicode="&#xf6;" horiz-adv-x="688" d="M72 330q0 -63 9 -125t48 -115q37 -49 95.5 -76.5t119.5 -27.5t119.5 27.5t95.5 76.5q39 53 48 115t9 125v356q0 63 -9 124.5t-48 115.5q-37 49 -95 76.5t-120 27.5q-61 0 -119.5 -27.5t-95.5 -76.5q-39 -53 -48 -114.5t-9 -125.5v-356zM113 1184h178v182h-178v-182z M256 295v428q0 23 3 48.5t12.5 46t26.5 33.5t46 13q31 0 48.5 -13t26.5 -33.5t11 -46.5t2 -48v-428q0 -25 -2 -49.5t-11 -45t-26.5 -33.5t-48.5 -13q-29 0 -46 13t-26.5 33.5t-12.5 46t-3 48.5zM399 1184h179v182h-179v-182z" />
<glyph unicode="&#xf7;" d="M68 604h888v164h-888v-164zM397 317q0 -47 34 -79.5t81 -32.5t80 32.5t33 79.5t-33 81t-80 34t-81 -33.5t-34 -81.5zM397 1053q0 -47 34 -81t81 -34t80 34t33 81t-33 79.5t-80 32.5t-81 -32.5t-34 -79.5z" />
<glyph unicode="&#xf8;" horiz-adv-x="688" d="M72 330q0 -92 19.5 -164t96.5 -131l-30 -121h82l20 86q23 -6 42.5 -10t41.5 -4q61 0 119.5 27.5t95.5 76.5q39 53 48 115t9 125v356q0 43 -3 84t-14 78t-33.5 69.5t-59.5 61.5l26 100h-81l-17 -63q-25 8 -43 11t-45 3q-63 0 -121.5 -26.5t-95.5 -77.5q-39 -53 -48 -115.5 t-9 -124.5v-356zM256 311v412q0 25 3 49.5t12.5 45t26.5 33.5t48 13q14 0 23.5 -4t21.5 -10zM301 166l131 516v-387q0 -25 -2 -49.5t-11 -45t-26.5 -33.5t-48.5 -13q-14 0 -22.5 3t-20.5 9z" />
<glyph unicode="&#xf9;" horiz-adv-x="690" d="M80 213q0 -37 2 -78t14.5 -73.5t40 -54t78.5 -21.5q68 0 119 38.5t92 86.5v-111h184v1018h-184v-778q-20 -29 -49 -57.5t-68 -28.5q-20 0 -30.5 12t-13.5 30.5t-2 38t1 33.5v750h-184v-805zM125 1352l147 -164h144l-94 164h-197z" />
<glyph unicode="&#xfa;" horiz-adv-x="690" d="M80 213q0 -37 2 -78t14.5 -73.5t40 -54t78.5 -21.5q68 0 119 38.5t92 86.5v-111h184v1018h-184v-778q-20 -29 -49 -57.5t-68 -28.5q-20 0 -30.5 12t-13.5 30.5t-2 38t1 33.5v750h-184v-805zM274 1188h144l147 164h-198z" />
<glyph unicode="&#xfb;" horiz-adv-x="690" d="M80 213q0 -37 2 -78t14.5 -73.5t40 -54t78.5 -21.5q68 0 119 38.5t92 86.5v-111h184v1018h-184v-778q-20 -29 -49 -57.5t-68 -28.5q-20 0 -30.5 12t-13.5 30.5t-2 38t1 33.5v750h-184v-805zM123 1188h164l57 63l59 -63h164l-118 164h-207z" />
<glyph unicode="&#xfc;" horiz-adv-x="690" d="M80 213q0 -37 2 -78t14.5 -73.5t40 -54t78.5 -21.5q68 0 119 38.5t92 86.5v-111h184v1018h-184v-778q-20 -29 -49 -57.5t-68 -28.5q-20 0 -30.5 12t-13.5 30.5t-2 38t1 33.5v750h-184v-805zM113 1184h178v182h-178v-182zM399 1184h179v182h-179v-182z" />
<glyph unicode="&#xfd;" horiz-adv-x="655" d="M35 1018l207 -1030q-8 -35 -17.5 -66t-26 -53.5t-44 -34.5t-70.5 -12h-18t-19 2v-180q33 -6 66 -6q92 0 145 23.5t82 67.5t43 106.5t31 137.5l207 1045h-183l-108 -656l-111 656h-184zM231 1188h144l147 164h-196z" />
<glyph unicode="&#xfe;" horiz-adv-x="692" d="M80 -348h184v446q39 -47 83 -79.5t108 -32.5q63 0 97 32.5t49 82t17.5 104.5t2.5 100v408q0 45 -2.5 100t-17.5 104.5t-49 82t-97 32.5t-107.5 -32.5t-83.5 -79.5v446h-184v-1714zM264 199v620q18 18 41 31.5t51 13.5q31 0 46.5 -13t23.5 -33.5t9 -45.5t1 -45v-436 q0 -23 -1 -46.5t-9 -44t-23.5 -33.5t-46.5 -13q-29 0 -51 13t-41 32z" />
<glyph unicode="&#xff;" horiz-adv-x="655" d="M35 1018l207 -1030q-8 -35 -18.5 -66t-27 -53.5t-43 -34.5t-69.5 -12h-18t-19 2v-180q33 -6 66 -6q92 0 145 24.5t83 68.5t44 105.5t29 136.5l207 1045h-181l-110 -656l-111 656h-184zM96 1184h176v182h-176v-182zM383 1184h176v182h-176v-182z" />
<glyph unicode="&#x152;" horiz-adv-x="1142" d="M88 385q0 -180 78 -282.5t268 -102.5h645v190h-354v422h254v191h-254v371h354v192h-645q-190 0 -268 -103.5t-78 -283.5v-594zM293 397v572q0 45 6 83t23.5 64.5t49 42t85.5 15.5h63v-984h-63q-53 0 -86 15.5t-50.5 43t-22.5 65.5t-5 83z" />
<glyph unicode="&#x153;" horiz-adv-x="1067" d="M82 330q0 -63 9 -125t48 -115q37 -51 95.5 -77.5t119.5 -26.5q53 0 96.5 17t84.5 50q82 -68 190 -67q66 0 125 28.5t96 81.5q39 55 43 109.5t4 120.5v26h-186q0 -27 1 -61.5t-6 -65t-25.5 -51t-57.5 -20.5q-31 0 -49.5 13t-27.5 32.5t-12 45t-3 50.5v180h366v211 q0 63 -8 124.5t-49 115.5q-39 51 -96.5 77.5t-120.5 26.5q-100 0 -184 -65q-41 33 -84 49t-97 16q-63 0 -120.5 -26.5t-94.5 -77.5q-39 -53 -48 -114.5t-9 -125.5v-356zM266 295v428q0 23 2 48.5t11.5 46t27 33.5t47.5 13q29 0 46.5 -13t26.5 -33.5t12 -46.5t3 -48v-428 q0 -23 -3 -48.5t-12 -46t-26.5 -33.5t-46.5 -13q-31 0 -48 13t-26.5 33.5t-11.5 45t-2 49.5zM627 629v94q0 25 3 49.5t12 45t26.5 33.5t48.5 13t49 -13t27.5 -32.5t12.5 -45t3 -50.5v-94h-182z" />
<glyph unicode="&#x178;" horiz-adv-x="761" d="M27 1366l170 -543q12 -39 24 -70.5t23.5 -62.5t20.5 -63.5t18 -73.5q10 -53 5 -92t-5 -92v-369h204v184v369l164 543l82 270h-207l-139 -537l-145 537h-215zM147 1475h179v182h-179v-182zM434 1475h178v182h-178v-182z" />
<glyph unicode="&#x2c6;" d="M289 1188h166l57 63l57 -63h166l-121 164h-204z" />
<glyph unicode="&#x2dc;" d="M313 1188q29 16 54.5 23.5t60.5 7.5q49 0 93 -19.5t91 -19.5q31 0 51.5 9t47.5 25v142q-25 -14 -46.5 -24.5t-50.5 -10.5q-49 0 -93 19.5t-93 19.5q-35 0 -60.5 -7t-54.5 -24v-141z" />
<glyph unicode="&#x2000;" horiz-adv-x="866" />
<glyph unicode="&#x2001;" horiz-adv-x="1733" />
<glyph unicode="&#x2002;" horiz-adv-x="866" />
<glyph unicode="&#x2003;" horiz-adv-x="1733" />
<glyph unicode="&#x2004;" horiz-adv-x="577" />
<glyph unicode="&#x2005;" horiz-adv-x="433" />
<glyph unicode="&#x2006;" horiz-adv-x="288" />
<glyph unicode="&#x2007;" horiz-adv-x="288" />
<glyph unicode="&#x2008;" horiz-adv-x="216" />
<glyph unicode="&#x2009;" horiz-adv-x="346" />
<glyph unicode="&#x200a;" horiz-adv-x="96" />
<glyph unicode="&#x2010;" horiz-adv-x="286" d="M0 426h287v184h-287v-184z" />
<glyph unicode="&#x2011;" horiz-adv-x="286" d="M0 426h287v184h-287v-184z" />
<glyph unicode="&#x2012;" horiz-adv-x="286" d="M0 426h287v184h-287v-184z" />
<glyph unicode="&#x2013;" d="M68 604h888v164h-888v-164z" />
<glyph unicode="&#x2014;" horiz-adv-x="878" d="M0 426h879v184h-879v-184z" />
<glyph unicode="&#x2018;" horiz-adv-x="389" d="M96 918h197v210h-72l72 238h-90l-107 -238v-210z" />
<glyph unicode="&#x2019;" horiz-adv-x="389" d="M96 918h90l107 235v213h-197v-213h72z" />
<glyph unicode="&#x201a;" horiz-adv-x="389" d="M96 0h72l-72 -238h90l107 238v211h-197v-211z" />
<glyph unicode="&#x201c;" horiz-adv-x="669" d="M96 918h197v210h-72l72 238h-90l-107 -238v-210zM375 918h198v210h-71l71 238h-90l-108 -238v-210z" />
<glyph unicode="&#x201d;" horiz-adv-x="669" d="M96 918h90l107 235v213h-197v-213h72zM375 918h92l106 235v213h-198v-213h74z" />
<glyph unicode="&#x201e;" horiz-adv-x="669" d="M96 0h72l-72 -238h90l107 238v211h-197v-211zM375 0h74l-74 -238h92l106 238v211h-198v-211z" />
<glyph unicode="&#x2022;" horiz-adv-x="1366" d="M401 696q0 -59 21.5 -110t60.5 -91t90.5 -62.5t110.5 -22.5q57 0 108.5 23.5t90.5 62.5t60.5 91t21.5 109t-21.5 109.5t-60.5 91.5t-90.5 62.5t-108.5 23.5q-59 0 -110.5 -22.5t-90.5 -62.5t-60.5 -92t-21.5 -110z" />
<glyph unicode="&#x2026;" horiz-adv-x="1105" d="M86 0h197v211h-197v-211zM455 0h196v211h-196v-211zM823 0h197v211h-197v-211z" />
<glyph unicode="&#x202f;" horiz-adv-x="346" />
<glyph unicode="&#x2039;" horiz-adv-x="348" d="M82 373l184 -168v244l-63 69l63 70v246l-184 -168v-293z" />
<glyph unicode="&#x203a;" horiz-adv-x="348" d="M82 205l184 168v293l-184 168v-246l63 -70l-63 -69v-244z" />
<glyph unicode="&#x205f;" horiz-adv-x="433" />
<glyph unicode="&#x2122;" horiz-adv-x="1132" d="M55 1245h125v-657h133v657h129v121h-387v-121zM502 588h125v479l116 -479h72l111 475v-475h125v778h-172l-99 -438l-106 438h-172v-778z" />
<glyph unicode="&#xe000;" horiz-adv-x="1013" d="M0 0v1014h1014v-1014h-1014z" />
</font>
</defs>
</svg>
