<?xml version="1.0" standalone="no"?>
<!DOCTYPE svg PUBLIC "-//W3C//DTD SVG 1.1//EN" "http://www.w3.org/Graphics/SVG/1.1/DTD/svg11.dtd" >
<svg>
<metadata>
Created by FontForge 20090914 at Fri Apr 17 13:13:09 2015
 By www-data
HTF Knockout   1990-9 The Hoefler Type Foundry, Inc. http://www.typography.com
</metadata>
<defs>
<font id="Knockout-HTF27-JuniorBantamwt" horiz-adv-x="269" >
  <font-face 
    font-family="Knockout"
    font-weight="500"
    font-stretch="normal"
    units-per-em="1000"
    panose-1="2 0 6 8 2 0 0 2 0 4"
    ascent="800"
    descent="-200"
    x-height="468"
    cap-height="666"
    bbox="-223 -208.002 868 819"
    underline-thickness="38"
    underline-position="-86"
    unicode-range="U+0020-U+FB02"
  />
<missing-glyph horiz-adv-x="500" 
 />
    <glyph glyph-name=".notdef" horiz-adv-x="500" 
 />
    <glyph glyph-name="space" unicode=" " horiz-adv-x="115" 
 />
    <glyph glyph-name="exclam" unicode="!" horiz-adv-x="139" 
d="M103 377v289h-67v-289l24 -210h20zM100 0v97h-61v-97h61z" />
    <glyph glyph-name="quotedbl" unicode="&#x22;" horiz-adv-x="177" 
d="M181 666h-54l-35 -186h37zM94 666h-54l-26 -186h36z" />
    <glyph glyph-name="numbersign" unicode="#" horiz-adv-x="378" 
d="M375 430v40h-84l25 196h-42l-25 -196h-81l25 196h-42l-26 -196h-100v-40h94l-25 -194h-92v-40h86l-26 -196h42l26 196h81l-26 -196h42l26 196h100v40h-94l26 194h90zM243 430l-26 -194h-81l25 194h82z" />
    <glyph glyph-name="dollar" unicode="$" horiz-adv-x="303" 
d="M122 671c-29.333 -7.33301 -50.8281 -23.6641 -64.4951 -48.9971s-20.5 -56 -20.5 -92c0 -19.333 3 -39 9 -59s13.667 -39.833 23 -59.5s19.666 -38.5 30.999 -56.5s22.666 -34.333 33.999 -49c22 -32.667 40 -63.5 54 -92.5s21 -60.167 21 -93.5
c0 -20.667 -4.83301 -37.334 -14.5 -50.001s-24.167 -19 -43.5 -19c-17.333 0 -30.833 6.5 -40.5 19.5s-14.5 30.833 -14.5 53.5v73h-67v-75c0 -34 8.16699 -62.5 24.5 -85.5s39.166 -37.5 68.499 -43.5v-68h60v68c12.667 2.66699 24.5 7.5 35.5 14.5
s20.833 16.167 29.5 27.5s15.5 25.166 20.5 41.499s7.5 35.166 7.5 56.499s-2.66699 41.833 -8 61.5s-12.5 38.834 -21.5 57.501s-19.333 37 -31 55l-36.5 54l-30.5 50c-9 15.333 -16.833 30.333 -23.5 45s-11.667 29.5 -15 44.5s-5 31.167 -5 48.5
c0 20 4.66699 35.5 14 46.5s22.666 16.5 39.999 16.5s30.166 -6.5 38.499 -19.5s12.5 -30.833 12.5 -53.5v-74h65v79c0 34.667 -8.16699 63.667 -24.5 87s-38.833 37.666 -67.5 42.999v66h-60v-69z" />
    <glyph glyph-name="percent" unicode="%" horiz-adv-x="406" 
d="M385 73v166c0 27.333 -6.66699 48.5 -20 63.5s-30 22.5 -50 22.5s-36.667 -7.5 -50 -22.5s-20 -36.167 -20 -63.5v-166c0 -26.667 6.66699 -47.667 20 -63s30 -23 50 -23s36.667 7.66699 50 23s20 36.333 20 63zM340 59c0 -7.33301 -2.33301 -13.666 -7 -18.999
s-10.667 -8 -18 -8s-13.333 2.66699 -18 8s-7 11.666 -7 18.999v195c0 7.33301 2.33301 13.5 7 18.5s10.667 7.5 18 7.5s13.333 -2.5 18 -7.5s7 -11.167 7 -18.5v-195zM380 664l-27 20l-324 -684l26 -20zM164 425v166c0 26.667 -6.66699 47.5 -20 62.5
s-30.333 22.5 -51 22.5c-20 0 -36.667 -7.5 -50 -22.5s-20 -35.833 -20 -62.5v-166c0 -26.667 6.66699 -47.667 20 -63s30 -23 50 -23c20.667 0 37.667 7.66699 51 23s20 36.333 20 63zM119 411c0 -8 -2.5 -14.5 -7.5 -19.5s-11.167 -7.5 -18.5 -7.5s-13.333 2.5 -18 7.5
s-7 11.5 -7 19.5v195c0 7.33301 2.33301 13.5 7 18.5s10.667 7.5 18 7.5s13.5 -2.5 18.5 -7.5s7.5 -11.167 7.5 -18.5v-195z" />
    <glyph glyph-name="ampersand" unicode="&#x26;" horiz-adv-x="385" 
d="M380 83v60.9951h-46v-59c0 -20.667 -8 -31 -24 -31c-8.66699 0 -16.334 2.83301 -23.001 8.5s-12.334 13.167 -17.001 22.5c10 16.667 19.333 35.834 28 57.501s16.167 44 22.5 67s11.333 45.667 15 68s5.83398 42.5 6.50098 60.5h-57c0 -30 -4.5 -62 -13.5 -96
s-20.5 -66 -34.5 -96c-4 9.33301 -8.16699 21.833 -12.5 37.5s-8.5 32.5 -12.5 50.5s-7.83301 36.167 -11.5 54.5s-6.83398 34.833 -9.50098 49.5c29.333 30 53.333 61.5 72 94.5s28 68.5 28 106.5c0 18.667 -1.83301 36.334 -5.5 53.001s-9.16699 31.334 -16.5 44.001
s-16.833 22.5 -28.5 29.5s-25.834 10.5 -42.501 10.5s-31.667 -3.83301 -45 -11.5s-24.666 -18.167 -33.999 -31.5s-16.5 -29.166 -21.5 -47.499s-7.5 -38.5 -7.5 -60.5c0 -28.667 3 -57.5 9 -86.5s12.667 -55.5 20 -79.5c-15.333 -15.333 -29.166 -30.666 -41.499 -45.999
s-22.833 -31.5 -31.5 -48.5s-15.167 -35.167 -19.5 -54.5s-6.5 -40.333 -6.5 -63s2.83301 -43.667 8.5 -63s13.834 -36 24.501 -50s23.334 -24.833 38.001 -32.5s31 -11.5 49 -11.5c37.333 0 68.666 15 93.999 45c20.667 -30 46 -45 76 -45c46.667 0 70 31 70 93z
M229 533.995c0 -19.333 -4.66895 -41.333 -14.002 -66s-23.666 -47.667 -42.999 -69c-5.33301 24.667 -9.66602 48 -12.999 70s-5 41 -5 57c0 28.667 3.5 49.167 10.5 61.5s17.167 18.5 30.5 18.5c12.667 0 21.5 -6 26.5 -18s7.5 -30 7.5 -54zM197.998 78.9951
c-10 -16 -24.335 -23.9971 -43.002 -23.9971c-20 0 -36.167 8.33301 -48.5 25s-18.5 43 -18.5 79c0 24 4.5 47.167 13.5 69.5s20.5 42.166 34.5 59.499c3.33301 -18 7.33301 -37 12 -57s9.83398 -39.333 15.501 -58s11.334 -36.334 17.001 -53.001
s11.5 -30.334 17.5 -41.001z" />
    <glyph glyph-name="quotesingle" unicode="'" horiz-adv-x="133" 
d="M126 666h-65l-35 -186h40z" />
    <glyph glyph-name="parenleft" unicode="(" horiz-adv-x="225" 
d="M218 -114c-14 18.667 -26.5 40 -37.5 64s-20.5 52.5 -28.5 85.5s-14.167 71.667 -18.5 116s-6.5 96.166 -6.5 155.499c0 60 2.16699 112.167 6.5 156.5s10.5 83 18.5 116s17.5 61.333 28.5 85s23.5 45.167 37.5 64.5l-18 17c-20.667 -22 -39.334 -46.667 -56.001 -74
s-31 -58.666 -43 -93.999s-21.167 -75.333 -27.5 -120s-9.5 -95 -9.5 -151s3.16699 -106.333 9.5 -151s15.5 -84.667 27.5 -120s26.333 -66.5 43 -93.5s35.334 -51.5 56.001 -73.5z" />
    <glyph glyph-name="parenright" unicode=")" horiz-adv-x="225" 
d="M161 307c0 56 -3.16699 106.333 -9.5 151s-15.5 84.667 -27.5 120s-26.333 66.666 -43 93.999s-35.334 52 -56.001 74l-19 -17c14 -19.333 26.667 -40.833 38 -64.5s20.833 -52 28.5 -85s13.667 -71.667 18 -116s6.5 -96.5 6.5 -156.5
c0 -59.333 -2.16699 -111.166 -6.5 -155.499s-10.333 -83 -18 -116s-17.167 -61.5 -28.5 -85.5s-24 -45.333 -38 -64l19 -17c20.667 22 39.334 46.5 56.001 73.5s31 58.167 43 93.5s21.167 75.333 27.5 120s9.5 95 9.5 151z" />
    <glyph glyph-name="asterisk" unicode="*" horiz-adv-x="222" 
d="M206 517c1.33301 3.33301 1.16699 5.83203 -0.5 7.49902s-3.5 3.16699 -5.5 4.5c-7.33301 4 -16.833 8.83301 -28.5 14.5s-23.834 10.834 -36.501 15.501c12.667 4 25 9 37 15s21.333 11 28 15c2 1.33301 3.83301 2.83301 5.5 4.5s1.83398 3.83398 0.500977 6.50098
l-11 19c-1.33301 2.66699 -3.33301 3.83398 -6 3.50098s-5 -1.16602 -7 -2.49902c-7.33301 -4 -16.5 -9.66699 -27.5 -17s-21.167 -15.333 -30.5 -24c2.66699 12.667 4.5 25.667 5.5 39s1.5 24 1.5 32c0 2.66699 -0.5 5.16699 -1.5 7.5s-2.83301 3.5 -5.5 3.5h-25
c-2 0 -3.66699 -1.16699 -5 -3.5s-2 -4.83301 -2 -7.5c0 -7.33301 0.666992 -17.833 2 -31.5s3 -26.834 5 -39.501c-10 8.66699 -20.167 16.5 -30.5 23.5l-26.5 17.5c-6.66699 2.66699 -11.334 2.33398 -14.001 -0.999023l-11 -20c-1.33301 -3.33301 0.666992 -7 6 -11
l28.5 -14.5c12.333 -6.33301 24.833 -11.5 37.5 -15.5c-13.333 -4 -25.666 -8.83301 -36.999 -14.5s-20.666 -10.5 -27.999 -14.5c-2 -1.33301 -3.83301 -3 -5.5 -5s-1.83398 -4.33301 -0.500977 -7l11 -19c1.33301 -2 3.33301 -3 6 -3s5 0.666992 7 2
c6.66699 3.33301 15.667 9 27 17s21.666 16.333 30.999 25c-2.66699 -13.333 -4.5 -26.333 -5.5 -39s-1.5 -23.334 -1.5 -32.001c0 -2.66699 0.666992 -5.16699 2 -7.5s3 -3.5 5 -3.5h23c3.33301 0 5.33301 1.16699 6 3.5s1 4.83301 1 7.5c0 8 -0.333008 18.5 -1 31.5
s-2.66699 26.167 -6 39.5c10 -8.66699 20.5 -16.834 31.5 -24.501s19.833 -13.5 26.5 -17.5c6.66699 -2.66699 11.334 -2.33398 14.001 0.999023z" />
    <glyph glyph-name="plus" unicode="+" horiz-adv-x="264" 
d="M234 310v55h-74v81h-55v-81h-75v-55h75v-82h55v82h74z" />
    <glyph glyph-name="comma" unicode="," horiz-adv-x="121" 
d="M91 10v90h-60v-100h27c0 -36.667 -11 -55 -33 -55v-21c24 0 41 8 51 24s15 36.667 15 62z" />
    <glyph glyph-name="hyphen" unicode="-" horiz-adv-x="175" 
d="M161 285v60h-147v-60h147z" />
    <glyph glyph-name="period" unicode="." horiz-adv-x="121" 
d="M91 0v100h-60v-100h60z" />
    <glyph glyph-name="slash" unicode="/" horiz-adv-x="205" 
d="M214 729h-44l-183 -793h45z" />
    <glyph glyph-name="zero" unicode="0" horiz-adv-x="314" 
d="M279 122v422c0 40 -11.167 72 -33.5 96s-51.833 36 -88.5 36c-36 0 -65.333 -12 -88 -36s-34 -56 -34 -96v-422c0 -40 11.333 -72 34 -96s52 -36 88 -36c36.667 0 66.167 12 88.5 36s33.5 56 33.5 96zM211 108c0 -14.667 -5 -27.167 -15 -37.5s-23 -15.5 -39 -15.5
s-29 5.16699 -39 15.5s-15 22.833 -15 37.5v450c0 14 5 26.333 15 37s23 16 39 16s29 -5.33301 39 -16s15 -23 15 -37v-450z" />
    <glyph glyph-name="one" unicode="1" horiz-adv-x="166" 
d="M117 0v665.999h-33c0 -9.33301 -2.5 -17.666 -7.5 -24.999s-14.167 -11 -27.5 -11v-630h68z" />
    <glyph glyph-name="two" unicode="2" horiz-adv-x="267" 
d="M252 529c0 44.667 -8.99902 80.332 -26.999 106.999s-48 40 -90 40c-18 0 -34 -3.5 -48 -10.5s-25.5 -16.5 -34.5 -28.5s-15.833 -25.833 -20.5 -41.5s-7 -31.834 -7 -48.501v-90h58v95c0 18.667 4.83301 33.334 14.5 44.001s22.5 16 38.5 16c36 0 54 -22.667 54 -68
c0 -19.333 -1.33301 -37.333 -4 -54s-7 -33.5 -13 -50.5s-13.5 -34.667 -22.5 -53s-19.5 -38.5 -31.5 -60.5c-22 -44 -39.667 -81.167 -53 -111.5s-23.833 -56.666 -31.5 -78.999s-12.834 -42 -15.501 -59s-4 -34.167 -4 -51.5v-25h231v67h-160c0 22 6 50 18 84
s32 77.333 60 130c26 39.333 47.167 80 63.5 122s24.5 84 24.5 126z" />
    <glyph glyph-name="three" unicode="3" horiz-adv-x="277" 
d="M249 110l-0.000976562 158c0 18 -4.66699 32.833 -14 44.5s-22 20.167 -38 25.5c16 5.33301 28.667 14.166 38 26.499s14 27.5 14 45.5v146c0 35.333 -10 64.166 -30 86.499s-47.333 33.5 -82 33.5c-39.333 0 -67.666 -11.333 -84.999 -34s-26 -51 -26 -85v-85h59v83
c0 17.333 3.66699 30.833 11 40.5s19.666 14.5 36.999 14.5s29.833 -4.66699 37.5 -14s11.5 -22.333 11.5 -39v-158c0 -9.33301 -2.5 -17.166 -7.5 -23.499s-14.167 -9.5 -27.5 -9.5h-43v-58h43c13.333 0 22.5 -3.16699 27.5 -9.5s7.5 -14.166 7.5 -23.499v-169
c0 -33.333 -16.333 -50 -49 -50c-17.333 0 -29.666 4.5 -36.999 13.5s-11 22.167 -11 39.5v84h-59v-85c0 -34 9 -62.167 27 -84.5s46 -33.5 84 -33.5c34.667 0 62 11.5 82 34.5s30 51.5 30 85.5z" />
    <glyph glyph-name="four" unicode="4" horiz-adv-x="266" 
d="M257 138v61h-39v467h-59l-150 -474v-54h146v-138h63v138h39zM155 199h-81l81 270v-270z" />
    <glyph glyph-name="five" unicode="5" horiz-adv-x="277" 
d="M259 666l-215.002 -0.000976562l-14 -335l61 -9c2.66699 15.333 8.5 28.833 17.5 40.5s21.833 17.5 38.5 17.5c12.667 0 22.667 -4 30 -12s11 -19.667 11 -35v-223c0 -17.333 -4.5 -30.666 -13.5 -39.999s-21.167 -14 -36.5 -14s-27.166 5 -35.499 15
s-12.5 23.333 -12.5 40v78h-58v-81c0 -15.333 2.16699 -30.166 6.5 -44.499s10.833 -27 19.5 -38s19.667 -19.667 33 -26s29 -9.5 47 -9.5c36.667 0 65.334 11.333 86.001 34s31 52 31 88v227c0 27.333 -7.33301 49.833 -22 67.5s-34 26.5 -58 26.5
c-20 0 -36.667 -3.5 -50 -10.5s-23.666 -16.5 -30.999 -28.5l9 205h101c9.33301 0 17.333 0.666992 24 2s12.167 4.16602 16.5 8.49902s7.66602 11 9.99902 20s3.83301 21.167 4.5 36.5z" />
    <glyph glyph-name="six" unicode="6" horiz-adv-x="297" 
d="M270 116l-0.000976562 194c0 26.667 -7.66699 49 -23 67s-36.333 27 -63 27c-20.667 0 -37.667 -3.66699 -51 -11s-24.666 -16.666 -33.999 -27.999v189c0 17.333 4.33301 31 13 41s21.667 15 39 15c35.333 0 53 -18.333 53 -55v-80h58v82
c0 15.333 -2.33301 30.166 -7 44.499s-11.667 27 -21 38s-20.833 19.833 -34.5 26.5s-29.5 10 -47.5 10c-36.667 0 -65.667 -12 -87 -36s-32 -55 -32 -93v-431c0 -37.333 10.5 -67.666 31.5 -90.999s49.833 -35 86.5 -35c36 0 64.833 11.667 86.5 35
s32.5 53.666 32.5 90.999zM202.999 105c0 -14 -4.66602 -25.667 -13.999 -35s-22 -14 -38 -14s-28.667 4.83301 -38 14.5s-14 22.167 -14 37.5v193c0 13.333 4.5 24.666 13.5 33.999s22.167 14 39.5 14s30.166 -4.66699 38.499 -14s12.5 -20.666 12.5 -33.999v-196z" />
    <glyph glyph-name="seven" unicode="7" horiz-adv-x="260" 
d="M252 624l-0.000976562 42.001h-235v-67h165l-47 -146c-15.333 -50 -29.166 -100.5 -41.499 -151.5s-22.833 -102 -31.5 -153s-14.667 -100.5 -18 -148.5h74c1.33301 50 5 97.667 11 143s14.5 92.166 25.5 140.499s24.667 100 41 155z" />
    <glyph glyph-name="eight" unicode="8" horiz-adv-x="298" 
d="M267 110l0.000976562 140c0 21.333 -4.33301 39.166 -13 53.499s-19.334 25.166 -32.001 32.499c12.667 7.33301 23.167 18.166 31.5 32.499s12.5 32.166 12.5 53.499v134c0 35.333 -10.333 64.166 -31 86.499s-49 33.5 -85 33.5
c-36.667 0 -65.334 -11.167 -86.001 -33.5s-31 -51.166 -31 -86.499v-134c0 -21.333 4 -39.166 12 -53.499s18.667 -25.166 32 -32.499c-13.333 -7.33301 -24.166 -18.166 -32.499 -32.499s-12.5 -32.166 -12.5 -53.499v-140c0 -35.333 10.5 -64.166 31.5 -86.499
s49.833 -33.5 86.5 -33.5c36 0 64.5 11.167 85.5 33.5s31.5 51.166 31.5 86.499zM202.001 410c0 -13.333 -4.33301 -25 -13 -35s-21.667 -15 -39 -15c-18 0 -31.333 5 -40 15s-13 21.667 -13 35v147c0 16.667 4.83301 29.667 14.5 39s22.5 14 38.5 14
c15.333 0 27.833 -4.66699 37.5 -14s14.5 -22.333 14.5 -39v-147zM203.001 109c0 -16.667 -5 -29.667 -15 -39s-22.667 -14 -38 -14c-16 0 -29 4.66699 -39 14s-15 22.333 -15 39v153c0 12.667 4.5 24 13.5 34s22.5 15 40.5 15c17.333 0 30.5 -5 39.5 -15
s13.5 -21.333 13.5 -34v-153z" />
    <glyph glyph-name="nine" unicode="9" horiz-adv-x="301" 
d="M268 117l0.000976562 431.001c0 38 -10.333 68.833 -31 92.5s-49.667 35.5 -87 35.5c-36.667 0 -65.334 -11.833 -86.001 -35.5s-31 -54.167 -31 -91.5v-197c0 -27.333 7.5 -50.166 22.5 -68.499s36.167 -27.5 63.5 -27.5c21.333 0 38.166 3.66699 50.499 11
s23.166 16.666 32.499 27.999v-185c0 -16 -4.33301 -29 -13 -39s-22 -15 -40 -15c-17.333 0 -31.166 4.66699 -41.499 14s-15.5 22.666 -15.5 39.999v76h-59v-79c0 -32 10.167 -59.5 30.5 -82.5s48.5 -34.5 84.5 -34.5c36.667 0 65.834 11.667 87.501 35s32.5 54 32.5 92z
M202.001 360.001c0 -13.333 -4.5 -24.666 -13.5 -33.999s-21.833 -14 -38.5 -14c-17.333 0 -30.333 4.66699 -39 14s-13 20.666 -13 33.999v201c0 14 4.33301 25.667 13 35s21.667 14 39 14s30.333 -5 39 -15s13 -22.333 13 -37v-198z" />
    <glyph glyph-name="colon" unicode=":" horiz-adv-x="121" 
d="M91 322v101h-60v-101h60zM91 0v100h-60v-100h60z" />
    <glyph glyph-name="semicolon" unicode=";" horiz-adv-x="121" 
d="M91 322v101h-60v-101h60zM91 10v90h-60v-100h27c0 -36.667 -11 -55 -33 -55v-21c24 0 41 8 51 24s15 36.667 15 62z" />
    <glyph glyph-name="less" unicode="&#x3c;" horiz-adv-x="382" 
d="M315 150v70l-172 114l172 112v70l-264 -172v-21z" />
    <glyph glyph-name="equal" unicode="=" horiz-adv-x="235" 
d="M220 367v61h-205v-61h205zM220 247v61h-205v-61h205z" />
    <glyph glyph-name="greater" unicode="&#x3e;" horiz-adv-x="382" 
d="M331 323v20l-263 174v-70l172 -114l-172 -112v-70z" />
    <glyph glyph-name="question" unicode="?" horiz-adv-x="247" 
d="M236 532c0 20.667 -2.00098 39.834 -6.00098 57.501s-10.5 32.834 -19.5 45.501s-20.833 22.667 -35.5 30s-32.667 11 -54 11c-36 0 -62.667 -11.833 -80 -35.5s-26 -54.5 -26 -92.5v-87h57v86c0 19.333 4 34.666 12 45.999s20.667 17 38 17c16.667 0 29 -5.33301 37 -16
s12 -30.667 12 -60c0 -6.66699 -0.5 -15.167 -1.5 -25.5s-2.5 -21.833 -4.5 -34.5s-4.66699 -25.5 -8 -38.5s-7.66602 -25.5 -12.999 -37.5c-12 -26 -22.167 -49 -30.5 -69s-15 -38.333 -20 -55s-8.66699 -32.5 -11 -47.5s-3.5 -30.833 -3.5 -47.5h52
c0 26.667 2.83301 50.167 8.5 70.5s15.5 42.166 29.5 65.499c21.333 38 37.833 76.167 49.5 114.5s17.5 72.5 17.5 102.5zM135.999 0v97h-62v-97h62z" />
    <glyph glyph-name="at" unicode="@" horiz-adv-x="424" 
d="M408 296c0 26.667 -3.66602 53.6621 -10.999 80.9951s-18.833 52 -34.5 74s-35.167 39.833 -58.5 53.5s-51 20.5 -83 20.5c-27.333 0 -53.166 -6.66699 -77.499 -20s-45.5 -32.166 -63.5 -56.499s-32.333 -53.333 -43 -87s-16 -70.5 -16 -110.5
c0 -42 5.33301 -79.167 16 -111.5s25 -59.666 43 -81.999s39.167 -39.166 63.5 -50.499s50.166 -17 77.499 -17c28 0 52.833 4.83301 74.5 14.5s39.834 22.834 54.501 39.501l-20 26c-12 -13.333 -27.333 -24 -46 -32s-39.667 -12 -63 -12s-44.833 5.16699 -64.5 15.5
s-36.834 25.333 -51.501 45s-26.167 43.334 -34.5 71.001s-12.5 58.834 -12.5 93.501c0 34 4.16699 65.333 12.5 94s19.833 53.667 34.5 75s31.834 38 51.501 50s41.167 18 64.5 18c20.667 0 40.167 -4.33301 58.5 -13s34 -21.334 47 -38.001s23.333 -36.667 31 -60
s11.5 -49.333 11.5 -78c0 -42 -6 -76 -18 -102s-28 -39 -48 -39c-12.667 0 -20.834 5.5 -24.501 16.5s-2.83398 26.5 2.49902 46.5l38 154h-48l-10 -36c-2 26 -15.333 39 -40 39c-14.667 0 -28.334 -4.83301 -41.001 -14.5s-23.667 -22.167 -33 -37.5
s-16.666 -32.666 -21.999 -51.999s-8 -38.333 -8 -57c0 -28.667 5.5 -50.334 16.5 -65.001s25.167 -22 42.5 -22c12.667 0 24.667 5 36 15s20.666 23 27.999 39c-1.33301 -20 3.33398 -35.167 14.001 -45.5s24 -15.5 40 -15.5c18 0 34 4.66699 48 14s26 22 36 38
s17.5 34.5 22.5 55.5s7.5 42.833 7.5 65.5zM252.001 303.995l-16.001 -72.001c-10 -40 -24.333 -60 -43 -60s-28 16 -28 48c0 14 1.66699 28.167 5 42.5s8 27.333 14 39s12.833 21.334 20.5 29.001s15.834 11.5 24.501 11.5s14.5 -3.5 17.5 -10.5s4.83301 -16.167 5.5 -27.5
z" />
    <glyph glyph-name="A" unicode="A" horiz-adv-x="290" 
d="M281 0l-97 666h-75l-101 -666h68l21 144h92l18 -144h74zM180 211h-74l39 297z" />
    <glyph glyph-name="B" unicode="B" horiz-adv-x="309" 
d="M281 120v122.998c0 24.667 -4.33301 45.334 -13 62.001s-23.667 28.334 -45 35.001c20 6.66699 34.333 18.167 43 34.5s13 36.833 13 61.5v110c0 22 -2.83301 40.667 -8.5 56s-13.5 27.833 -23.5 37.5s-21.667 16.5 -35 20.5s-27.666 6 -42.999 6h-132v-666h134
c15.333 0 29.666 2 42.999 6s25 10.833 35 20.5s17.833 22.167 23.5 37.5s8.5 34 8.5 56zM208 422.998c0 -17.333 -4 -30.667 -12 -40s-19.667 -14 -35 -14h-51v229h59c26 0 39 -15.667 39 -47v-128zM210 114.997c0 -31.333 -13.333 -47.001 -40 -47.001h-60v240h53
c14.667 0 26.167 -4.66699 34.5 -14s12.5 -22.666 12.5 -39.999v-139z" />
    <glyph glyph-name="C" unicode="C" horiz-adv-x="305" 
d="M280 124v109.999h-63v-117c0 -17.333 -4.83301 -31.333 -14.5 -42s-23.5 -16 -41.5 -16c-19.333 0 -33.833 5.33301 -43.5 16s-14.5 24.334 -14.5 41.001v434c0 16 4.83301 29.5 14.5 40.5s24.167 16.5 43.5 16.5c18 0 31.833 -5.5 41.5 -16.5s14.5 -24.833 14.5 -41.5
v-116h63v109c0 38.667 -10.5 70.667 -31.5 96s-51.167 38 -90.5 38c-19.333 0 -36.833 -3.5 -52.5 -10.5s-29 -16.667 -40 -29s-19.5 -26.833 -25.5 -43.5s-9 -34.667 -9 -54v-412c0 -39.333 11.333 -72 34 -98s53.667 -39 93 -39s69.5 12.667 90.5 38s31.5 57.333 31.5 96z
" />
    <glyph glyph-name="D" unicode="D" horiz-adv-x="320" 
d="M289 147v371.998c0 46.667 -9.5 82.834 -28.5 108.501s-50.167 38.5 -93.5 38.5h-130v-666h130c43.333 0 74.5 12.833 93.5 38.5s28.5 61.834 28.5 108.501zM217 140.998c0 -24.667 -4 -42.668 -12 -54.001s-21.333 -17 -40 -17h-55v526h55c18.667 0 32 -5.66699 40 -17
s12 -29.666 12 -54.999v-383z" />
    <glyph glyph-name="E" unicode="E" horiz-adv-x="270" 
d="M249 0v67h-140v245h101v65h-101v222h140v67h-212v-666h212z" />
    <glyph glyph-name="F" unicode="F" horiz-adv-x="258" 
d="M244 600v66h-207v-666h73v306h105v65h-105v229h134z" />
    <glyph glyph-name="G" unicode="G" horiz-adv-x="314" 
d="M286 0l-0.00195312 331.001h-123v-63h53v-152c0 -17.333 -4.66699 -31.833 -14 -43.5s-23.666 -17.5 -42.999 -17.5s-33.5 5.83301 -42.5 17.5s-13.5 26.167 -13.5 43.5v434c0 15.333 4.66699 28.666 14 39.999s23.333 17 42 17s32.5 -5.5 41.5 -16.5
s13.5 -24.167 13.5 -39.5v-102h66v90c0 40.667 -10.333 73.667 -31 99s-50.667 38 -90 38s-70.5 -13 -93.5 -39s-34.5 -58.667 -34.5 -98v-412c0 -44 11.333 -77.833 34 -101.5s50 -35.5 82 -35.5c20.667 0 38.834 4.16699 54.501 12.5s27.167 20.833 34.5 37.5l19 -40h31z
" />
    <glyph glyph-name="H" unicode="H" horiz-adv-x="331" 
d="M294 0v666h-71v-302h-113v302h-73v-666h73v297h113v-297h71z" />
    <glyph glyph-name="I" unicode="I" horiz-adv-x="147" 
d="M110 0v666h-73v-666h73z" />
    <glyph glyph-name="J" unicode="J" horiz-adv-x="290" 
d="M256 121l-0.000976562 545h-71v-551c0 -18 -3.66699 -31.833 -11 -41.5s-19.666 -14.5 -36.999 -14.5c-32.667 0 -49 18.667 -49 56v150h-68v-147c0 -40 10.5 -71.333 31.5 -94s50.167 -34 87.5 -34c38 0 67 12 87 36s30 55.667 30 95z" />
    <glyph glyph-name="K" unicode="K" horiz-adv-x="304" 
d="M295 0l-104 379l102 287h-71l-113 -348v348h-72v-666h72v184l36 112l75 -296h75z" />
    <glyph glyph-name="L" unicode="L" horiz-adv-x="258" 
d="M244 0v69h-135v597h-72v-666h207z" />
    <glyph glyph-name="M" unicode="M" horiz-adv-x="429" 
d="M391 0v666h-100l-59 -412l-16 -116l-16 116l-60 412h-103v-666h64v504l16 -116l63 -388h67l61 388l16 116v-504h67z" />
    <glyph glyph-name="N" unicode="N" horiz-adv-x="337" 
d="M302 0v666h-68v-450l-30 108l-103 342h-65v-666h68v444l32 -107l113 -337h53z" />
    <glyph glyph-name="O" unicode="O" horiz-adv-x="319" 
d="M287 129v408c0 20 -3 38.5 -9 55.5s-14.5 31.667 -25.5 44s-24.5 22 -40.5 29s-33.667 10.5 -53 10.5s-37 -3.5 -53 -10.5s-29.5 -16.667 -40.5 -29s-19.5 -27 -25.5 -44s-9 -35.5 -9 -55.5v-408c0 -40.667 11.5 -74 34.5 -100s54.167 -39 93.5 -39s70.5 13 93.5 39
s34.5 59.333 34.5 100zM216 119c0 -17.333 -4.83301 -31.666 -14.5 -42.999s-23.834 -17 -42.501 -17s-32.667 5.66699 -42 17s-14 25.666 -14 42.999v428c0 17.333 4.66699 31.666 14 42.999s23.333 17 42 17s32.834 -5.66699 42.501 -17s14.5 -25.666 14.5 -42.999v-428z
" />
    <glyph glyph-name="P" unicode="P" horiz-adv-x="297" 
d="M280 403v142c0 22 -3 40.667 -9 56s-14 27.833 -24 37.5s-21.833 16.667 -35.5 21s-28.167 6.5 -43.5 6.5h-131v-666h72v282h59c15.333 0 29.833 2.16699 43.5 6.5s25.5 11.333 35.5 21s18 22.167 24 37.5s9 34 9 56zM207 396c0 -32.667 -12.667 -49 -38 -49h-60v251h60
c25.333 0 38 -16 38 -48v-154z" />
    <glyph glyph-name="Q" unicode="Q" horiz-adv-x="319" 
d="M315 0l0.00195312 44c-20.667 0 -35.334 4.33301 -44.001 13c10.667 17.333 16 39 16 65v417c0 39.333 -11.5 72 -34.5 98s-54.167 39 -93.5 39s-70.5 -13 -93.5 -39s-34.5 -58.667 -34.5 -98v-412c0 -39.333 11.5 -72 34.5 -98s54.167 -39 93.5 -39
c27.333 0 50.666 6.33301 69.999 19c11.333 -12.667 27 -19 47 -19c9.33301 0 16.833 0.833008 22.5 2.5s11.167 4.16699 16.5 7.5zM215.002 130l-46 -40.999l23 -21c-9.33301 -6 -20.333 -9 -33 -9c-18.667 0 -32.667 5.66699 -42 17s-14 24.666 -14 39.999v434
c0 15.333 4.66699 28.666 14 39.999s23.333 17 42 17s32.667 -5.66699 42 -17s14 -24.666 14 -39.999v-420z" />
    <glyph glyph-name="R" unicode="R" horiz-adv-x="314" 
d="M300 -6l-0.000976562 49.001c-7.33301 0 -12.166 2 -14.499 6s-3.5 10.667 -3.5 20v161c0 21.333 -4.5 40.666 -13.5 57.999s-23.833 29.333 -44.5 36c21.333 6.66699 36 18 44 34s12 36.333 12 61v127c0 22 -2.83301 40.667 -8.5 56s-13.5 27.833 -23.5 37.5
s-21.833 16.5 -35.5 20.5s-28.167 6 -43.5 6h-132v-666h73v293h55c15.333 0 26.833 -4.83301 34.5 -14.5s11.5 -23.167 11.5 -40.5v-172c0 -28 5.16699 -47 15.5 -57s27.5 -15 51.5 -15h22zM207.999 411.001c0 -17.333 -4.16699 -30.833 -12.5 -40.5
s-19.5 -14.5 -33.5 -14.5h-52v242h58c26.667 0 40 -15.667 40 -47v-140z" />
    <glyph glyph-name="S" unicode="S" horiz-adv-x="296" 
d="M275 135c0 38 -8.33008 74.8359 -24.9971 110.503s-39.667 72.5 -69 110.5c-14.667 19.333 -27.334 37 -38.001 53s-19.334 31.5 -26.001 46.5s-11.667 30 -15 45s-5 31.5 -5 49.5c0 40.667 18 61 54 61c18 0 31.333 -6.33301 40 -19s13 -30.667 13 -54v-73h68v79
c0 39.333 -10.833 71.166 -32.5 95.499s-50.5 36.5 -86.5 36.5c-21.333 0 -39.833 -3.66699 -55.5 -11s-28.834 -17.5 -39.501 -30.5s-18.5 -28.333 -23.5 -46s-7.5 -36.834 -7.5 -57.501c0 -19.333 3.16699 -39.333 9.5 -60s14.333 -40.834 24 -60.501
s20.5 -38.667 32.5 -57s24 -34.833 36 -49.5c26 -34 45.167 -65.333 57.5 -94s18.5 -59 18.5 -91c0 -21.333 -4.66699 -38 -14 -50s-24 -18 -44 -18c-17.333 0 -31 6.66699 -41 20s-15 31 -15 53v73h-70v-76c0 -38.667 11.333 -70.167 34 -94.5s53.667 -36.5 93 -36.5
c15.333 0 30.5 2.5 45.5 7.5s28.5 13.333 40.5 25s21.833 26.667 29.5 45s11.5 40.833 11.5 67.5z" />
    <glyph glyph-name="T" unicode="T" 
d="M258 598v68h-246v-68h89v-598h71v598h86z" />
    <glyph glyph-name="U" unicode="U" horiz-adv-x="320" 
d="M286 124l-0.000976562 542h-70v-546c0 -41.333 -18.333 -62 -55 -62s-55 20.667 -55 62v546h-72v-542c0 -41.333 11.833 -74 35.5 -98s53.834 -36 90.501 -36c36 0 66 12 90 36s36 56.667 36 98z" />
    <glyph glyph-name="V" unicode="V" horiz-adv-x="294" 
d="M285 666h-70l-68 -509l-61 509h-75l98 -666h73z" />
    <glyph glyph-name="W" unicode="W" horiz-adv-x="430" 
d="M421 666h-67l-49 -478l-56 478h-59l-65 -478l-43 478h-71l75 -666h68l59 432l53 -432h67z" />
    <glyph glyph-name="X" unicode="X" horiz-adv-x="296" 
d="M286 0l-96 344l95 322h-70l-66 -258l-63 258h-73l93 -334l-99 -332h70l69 258l66 -258h74z" />
    <glyph glyph-name="Y" unicode="Y" horiz-adv-x="284" 
d="M283 666h-69l-71 -310l-71 310h-72l103 -403v-263h72v263z" />
    <glyph glyph-name="Z" unicode="Z" 
d="M256 628v38h-235v-69h156l-165 -559v-38h235v67h-155z" />
    <glyph glyph-name="bracketleft" unicode="[" horiz-adv-x="196" 
d="M213 -116v50h-90v746h90v50h-147v-846h147z" />
    <glyph glyph-name="backslash" unicode="\" horiz-adv-x="204" 
d="M213 -64l-182 793h-45l183 -793h44z" />
    <glyph glyph-name="bracketright" unicode="]" horiz-adv-x="196" 
d="M130 -116v846h-148v-50h91v-746h-91v-50h148z" />
    <glyph glyph-name="asciicircum" unicode="^" horiz-adv-x="204" 
d="M198 566l0.000976562 20c-13.333 0 -27 6.33301 -41 19s-24.333 33 -31 61h-47c-6.66699 -28 -17 -48.333 -31 -61s-27.667 -19 -41 -19v-20l14.5 -3.5c4.33301 -1 9.16602 -1.5 14.499 -1.5c16 0 29.667 4.66699 41 14s19.333 24.666 24 45.999
c4 -21.333 11.833 -36.666 23.5 -45.999s25.167 -14 40.5 -14c10.667 0 21.667 1.66699 33 5z" />
    <glyph glyph-name="underscore" unicode="_" horiz-adv-x="260" 
d="M260 -60v60h-260v-60h260z" />
    <glyph glyph-name="grave" unicode="`" horiz-adv-x="133" 
d="M117 521l-35 120h-65l60 -120h40z" />
    <glyph glyph-name="a" unicode="a" horiz-adv-x="253" 
d="M232 -8l0.000976562 47.999c-10 0 -15 7.33301 -15 22v298c0 34 -7.66699 61.333 -23 82s-38.666 31 -69.999 31c-30 0 -52.833 -10 -68.5 -30s-23.5 -46 -23.5 -78v-49h55v45c0 16 2.16699 28.167 6.5 36.5s13.833 12.5 28.5 12.5
c13.333 0 22.666 -4.16699 27.999 -12.5s8 -20.166 8 -35.499v-76c-18 -8.66699 -35.333 -18.334 -52 -29.001s-31.334 -22.5 -44.001 -35.5s-22.667 -27.667 -30 -44s-11 -34.166 -11 -53.499v-22c0 -34 7 -60.833 21 -80.5s33.667 -29.5 59 -29.5c14 0 27 3.83301 39 11.5
s21.667 18.167 29 31.5c3.33301 -15.333 9.5 -26.333 18.5 -33s18.833 -10 29.5 -10h15zM158.001 110.999c0 -16 -4.33203 -30.167 -12.999 -42.5s-19.334 -18.5 -32.001 -18.5c-13.333 0 -22.5 4.66699 -27.5 14s-7.5 21.333 -7.5 36v31c0 18 6.66699 36 20 54
s33.333 31.667 60 41v-115z" />
    <glyph glyph-name="b" unicode="b" horiz-adv-x="264" 
d="M235 91v283.002c0 30 -6 54 -18 72s-29.667 27 -53 27c-16.667 0 -31 -4.83301 -43 -14.5s-21 -22.834 -27 -39.501v247h-61v-666h49l7 48c6 -20.667 15.5 -35.334 28.5 -44.001s26.833 -13 41.5 -13c23.333 0 41.833 9 55.5 27s20.5 42.333 20.5 73zM175 102.002
c0 -34.667 -13.333 -52 -40 -52c-12 0 -21.833 4.33301 -29.5 13s-11.5 21 -11.5 37v262c0 15.333 3.5 27.5 10.5 36.5s17.167 13.5 30.5 13.5c26.667 0 40 -17.333 40 -52v-258z" />
    <glyph glyph-name="c" unicode="c" horiz-adv-x="244" 
d="M222 113v49.002h-52v-60c0 -14.667 -3.33301 -26.167 -10 -34.5s-16.667 -12.5 -30 -12.5s-23.5 4.16699 -30.5 12.5s-10.5 20.166 -10.5 35.499v258c0 15.333 3.5 27.5 10.5 36.5s17.167 13.5 30.5 13.5s23.333 -4.66699 30 -14s10 -21 10 -35v-61h52v50
c0 36.667 -8 66.167 -24 88.5s-39.667 33.5 -71 33.5c-29.333 0 -53 -11.333 -71 -34s-27 -52.334 -27 -89.001v-236c0 -37.333 9 -67 27 -89s41.667 -33 71 -33c31.333 0 55 10.833 71 32.5s24 51.167 24 88.5z" />
    <glyph glyph-name="d" unicode="d" horiz-adv-x="264" 
d="M231 0l-0.00195312 665.998h-61v-239c-14 30.667 -36.333 46 -67 46c-23.333 0 -41.5 -9.16699 -54.5 -27.5s-19.5 -43.166 -19.5 -74.499v-280c0 -30.667 6.83301 -55 20.5 -73s32.167 -27 55.5 -27c14.667 0 28.334 4.33301 41.001 13s22.334 23.334 29.001 44.001
l6 -48h50zM169.998 99.998c0 -16 -4 -28.333 -12 -37s-17.667 -13 -29 -13c-26.667 0 -40 17.333 -40 52v259c0 34.667 13.333 52 40 52c12.667 0 22.667 -4.5 30 -13.5s11 -21.167 11 -36.5v-263z" />
    <glyph glyph-name="e" unicode="e" horiz-adv-x="248" 
d="M222 113v50h-54v-58c0 -16 -3 -28.667 -9 -38s-15.667 -14 -29 -14c-14.667 0 -25.167 4.66699 -31.5 14s-9.5 22 -9.5 38v119h133v126c0 36.667 -8.16699 66.334 -24.5 89.001s-39.5 34 -69.5 34c-29.333 0 -53.166 -11.333 -71.499 -34s-27.5 -52.334 -27.5 -89.001
v-236c0 -37.333 9.16699 -67 27.5 -89s42.166 -33 71.499 -33c30 0 53.167 10.833 69.5 32.5s24.5 51.167 24.5 88.5zM168 270h-79v88c0 16 3.16699 28.833 9.5 38.5s16.833 14.5 31.5 14.5c13.333 0 23 -4.83301 29 -14.5s9 -22.5 9 -38.5v-88z" />
    <glyph glyph-name="f" unicode="f" horiz-adv-x="157" 
d="M151 408v58h-45v94c0 15.333 3 27.166 9 35.499s15.667 12.5 29 12.5h14v58h-16c-33.333 0 -57.333 -11.167 -72 -33.5s-22 -55.166 -22 -98.499v-68h-36v-58h36v-408h61v408h42z" />
    <glyph glyph-name="g" unicode="g" horiz-adv-x="253" 
d="M251 481c0 5.33301 -0.171875 10.6699 -0.504883 16.0029s-1.16602 11.666 -2.49902 18.999h-45c0 -14 -3.16699 -25.667 -9.5 -35s-16.166 -14 -29.499 -14c-5.33301 0 -10.333 1 -15 3s-11.667 3 -21 3c-28 0 -51.333 -11 -70 -33s-28 -50 -28 -84v-85
c0 -22.667 3.5 -44.334 10.5 -65.001s19.167 -34.667 36.5 -42c-15.333 -3.33301 -27.666 -11 -36.999 -23s-14 -25.333 -14 -40c0 -13.333 4 -26 12 -38s18 -20.333 30 -25c-30 -12 -45 -35 -45 -69v-39c0 -34 9.5 -60.5 28.5 -79.5s44.833 -28.5 77.5 -28.5
c34 0 60.833 9.66699 80.5 29s29.5 48 29.5 86v45c0 32 -8.83301 56.333 -26.5 73s-43.5 25 -77.5 25c-21.333 0 -36 3.16699 -44 9.5s-12 15.166 -12 26.499c0 9.33301 2.83301 17.5 8.5 24.5s11.834 10.5 18.501 10.5c2 -0.666992 5.33301 -1.33398 10 -2.00098
s8.66699 -1 12 -1c28 0 51 11.333 69 34s27 51 27 85v89c0 15.333 -2.33301 30.333 -7 45s-13 28.334 -25 41.001c6 -3.33301 12.667 -5 20 -5c10.667 0 19.834 3.83301 27.501 11.5s11.5 18.5 11.5 32.5zM167.995 255.004c0 -13.333 -3.5 -24.666 -10.5 -33.999
s-16.833 -14 -29.5 -14c-13.333 0 -23.5 4.66699 -30.5 14s-10.5 20.666 -10.5 33.999v110c0 13.333 3.5 24.666 10.5 33.999s17.167 14 30.5 14c12.667 0 22.5 -4.66699 29.5 -14s10.5 -20.666 10.5 -33.999v-110zM182.995 -70.9961
c0 -12.667 -4.16797 -23.833 -12.501 -33.5s-21.5 -14.5 -39.5 -14.5c-17.333 0 -30.166 4.66699 -38.499 14s-12.5 20.333 -12.5 33v49c0 13.333 4 24.5 12 33.5s21 13.5 39 13.5c19.333 0 32.833 -4.5 40.5 -13.5s11.5 -19.833 11.5 -32.5v-49z" />
    <glyph glyph-name="h" unicode="h" horiz-adv-x="268" 
d="M237 0l0.00195312 376.001c0 29.333 -6.33301 52.666 -19 69.999s-30.334 26 -53.001 26c-15.333 0 -29.333 -5 -42 -15s-22.334 -24.667 -29.001 -44v253h-61v-666h61v355c0 13.333 3.83301 26.5 11.5 39.5s18.5 19.5 32.5 19.5c11.333 0 20.333 -4.33301 27 -13
s10 -20 10 -34v-367h62z" />
    <glyph glyph-name="i" unicode="i" horiz-adv-x="127" 
d="M91 532v75h-55v-75h55zM94 0v468h-61v-468h61z" />
    <glyph glyph-name="j" unicode="j" horiz-adv-x="127" 
d="M91 532v75h-55v-75h55zM94 -47v515h-61v-543c0 -27.333 -12.333 -41 -37 -41h-8v-56h15c33.333 0 56.833 10.333 70.5 31s20.5 52 20.5 94z" />
    <glyph glyph-name="k" unicode="k" horiz-adv-x="250" 
d="M242 0l-75 265l71 204h-61l-82 -246v443h-62v-666h62v124l33 80l51 -204h63z" />
    <glyph glyph-name="l" unicode="l" horiz-adv-x="127" 
d="M94 0v666h-61v-666h61z" />
    <glyph glyph-name="m" unicode="m" horiz-adv-x="381" 
d="M350 0l-0.000976562 382c0 28.667 -5.5 50.834 -16.5 66.501s-26.833 23.5 -47.5 23.5c-14 0 -27.167 -4.33301 -39.5 -13s-22.166 -22.334 -29.499 -41.001c-4 16 -10.333 29 -19 39s-20.667 15 -36 15c-32 0 -55.667 -20.333 -71 -61l-3 57h-55v-468h61v353
c0 14 3 27.667 9 41s15.667 20 29 20c19.333 0 29 -15.333 29 -46v-368h62v350c0 14 3 27.667 9 41s15 20 27 20c20.667 0 31 -15.333 31 -46v-365h60z" />
    <glyph glyph-name="n" unicode="n" 
d="M237 0v376c0 29.333 -6.5 52.666 -19.5 69.999s-31.167 26 -54.5 26c-15.333 0 -29.333 -5.16699 -42 -15.5s-22.667 -27.166 -30 -50.499l-4 62h-54v-468h61v355c0 13.333 3.83301 26.5 11.5 39.5s18.5 19.5 32.5 19.5c11.333 0 20.5 -4.33301 27.5 -13
s10.5 -20 10.5 -34v-367h61z" />
    <glyph glyph-name="o" unicode="o" horiz-adv-x="259" 
d="M230 114v236c0 36.667 -9.33301 66.334 -28 89.001s-42.667 34 -72 34c-30 0 -54.333 -11.333 -73 -34s-28 -52.334 -28 -89.001v-236c0 -37.333 9.33301 -67 28 -89s43 -33 73 -33c29.333 0 53.333 11 72 33s28 51.667 28 89zM170 102
c0 -14.667 -3.33301 -26.167 -10 -34.5s-16.667 -12.5 -30 -12.5s-23.333 4.16699 -30 12.5s-10 19.833 -10 34.5v260c0 14 3.33301 25.667 10 35s16.667 14 30 14s23.333 -4.66699 30 -14s10 -21 10 -35v-260z" />
    <glyph glyph-name="p" unicode="p" horiz-adv-x="264" 
d="M235 92l-0.000976562 285c0 30.667 -6.66699 55 -20 73s-31.666 27 -54.999 27c-14.667 0 -28.5 -4.5 -41.5 -13.5s-22.833 -23.833 -29.5 -44.5l-6 49h-50v-637h61v210c14.667 -30.667 38 -46 70 -46c21.333 0 38.5 8.83301 51.5 26.5s19.5 41.167 19.5 70.5z
M174.999 108c0 -35.333 -13.333 -52.999 -40 -52.999c-12.667 0 -22.667 4.66699 -30 14s-11 21.666 -11 36.999v262c0 16 4 28.333 12 37s17.667 13 29 13c26.667 0 40 -17.333 40 -52v-258z" />
    <glyph glyph-name="q" unicode="q" horiz-adv-x="264" 
d="M231 -174v637.999h-49l-7 -49c-6 20.667 -15.5 35.334 -28.5 44.001s-26.833 13 -41.5 13c-23.333 0 -41.833 -8.83301 -55.5 -26.5s-20.5 -42.167 -20.5 -73.5v-284c0 -29.333 6.5 -52.833 19.5 -70.5s29.833 -26.5 50.5 -26.5c34 0 57.667 17.667 71 53v-218h61z
M170 101.999c0 -16 -3.5 -28.667 -10.5 -38s-17.167 -14 -30.5 -14c-26.667 0 -40 17.667 -40 53v259c0 34.667 13.333 52 40 52c12 0 21.833 -4.5 29.5 -13.5s11.5 -21.5 11.5 -37.5v-261z" />
    <glyph glyph-name="r" unicode="r" horiz-adv-x="187" 
d="M179 401l0.000976562 70.001c-20.667 2 -38.334 -1.83301 -53.001 -11.5s-26 -26.167 -34 -49.5l-4 58h-55v-468h61v346c0 19.333 6.16699 33.666 18.5 42.999s34.5 13.333 66.5 12z" />
    <glyph glyph-name="s" unicode="s" horiz-adv-x="235" 
d="M216 107c0 32 -6.16797 60.168 -18.501 84.501s-30.166 46.5 -53.499 66.5c-23.333 21.333 -39.833 40 -49.5 56s-14.5 33.667 -14.5 53c0 12.667 3.5 23.167 10.5 31.5s17.167 12.5 30.5 12.5s23.5 -4 30.5 -12s10.5 -18.667 10.5 -32v-46h51v35
c0 37.333 -7.33301 66.166 -22 86.499s-38.667 30.5 -72 30.5c-28 0 -51 -10.167 -69 -30.5s-27 -48.5 -27 -84.5c0 -30 8.16699 -57.333 24.5 -82s35.5 -46.667 57.5 -66c12 -12 21.5 -22.667 28.5 -32s12.5 -18.166 16.5 -26.499s6.5 -16.833 7.5 -25.5
s1.5 -18.334 1.5 -29.001c0 -32 -14.667 -48 -44 -48c-28 0 -42 17.667 -42 53v41h-52v-32c0 -37.333 7.83301 -66.5 23.5 -87.5s40.167 -31.5 73.5 -31.5c30 0 53.833 10.667 71.5 32s26.5 49 26.5 83z" />
    <glyph glyph-name="t" unicode="t" horiz-adv-x="158" 
d="M148 408v58h-41v99l-57 -24v-75h-41v-58h36v-276c0 -30.667 1.33301 -56 4 -76s7 -38.667 13 -56h58c-5.33301 19.333 -8.83301 39.5 -10.5 60.5s-2.5 44.833 -2.5 71.5v276h41z" />
    <glyph glyph-name="u" unicode="u" 
d="M236 0l-0.000976562 468h-62v-360c0 -12.667 -3.66699 -25.5 -11 -38.5s-18 -19.5 -32 -19.5c-11.333 0 -20.5 4.16699 -27.5 12.5s-10.5 19.5 -10.5 33.5v372h-61v-379c0 -30 6.5 -53.833 19.5 -71.5s31.167 -26.5 54.5 -26.5c15.333 0 29.333 5 42 15
s22.334 25.667 29.001 47l4 -53h55z" />
    <glyph glyph-name="v" unicode="v" horiz-adv-x="230" 
d="M219 468h-58l-34 -265l-12 -104l-11 104l-36 265h-59l75 -468h61z" />
    <glyph glyph-name="w" unicode="w" horiz-adv-x="348" 
d="M337 468h-56l-29 -257l-10 -106l-11 106l-32 257h-49l-32 -257l-11 -106l-11 106l-28 257h-59l67 -468h57l29 197l12 102l11 -102l28 -197h57z" />
    <glyph glyph-name="x" unicode="x" horiz-adv-x="226" 
d="M220 0l-78 233l78 235h-60l-47 -166l-47 166h-62l78 -235l-78 -233h61l46 165l46 -165h63z" />
    <glyph glyph-name="y" unicode="y" horiz-adv-x="230" 
d="M219 468h-60.001l-33 -262l-13 -103l-11 103l-33 262h-60l76 -473l-10 -70c-2.66699 -13.333 -6.66699 -23.333 -12 -30s-14.666 -10 -27.999 -10h-12v-57h15c16.667 0 30.5 2.66699 41.5 8s20 13.166 27 23.499s12.833 23.333 17.5 39s8.66699 33.834 12 54.501z" />
    <glyph glyph-name="z" unicode="z" horiz-adv-x="211" 
d="M196 436v32h-177v-58h112l-119 -378v-32h178v58h-112z" />
    <glyph glyph-name="braceleft" unicode="{" horiz-adv-x="228" 
d="M204 -116v40.999h-30c-20 0 -35 8.66699 -45 26s-15 38.666 -15 63.999c0 18 3 36.833 9 56.5s12.5 38.667 19.5 57l19.5 52.5c6 16.667 9 31.667 9 45c0 22.667 -5 40.334 -15 53.001s-26.667 22 -50 28c23.333 6 40 15.5 50 28.5s15 30.5 15 52.5
c0 12.667 -3 27.5 -9 44.5l-19.5 53.5c-7 18.667 -13.5 37.667 -19.5 57s-9 38 -9 56c0 25.333 5 46.666 15 63.999s25 26 45 26h30v41h-25c-20.667 0 -38.5 -3.5 -53.5 -10.5s-27.5 -16.5 -37.5 -28.5s-17.5 -25.833 -22.5 -41.5s-7.5 -32.5 -7.5 -50.5
c0 -24 3.33301 -47.5 10 -70.5s14.167 -44.667 22.5 -65l22.5 -55c6.66699 -16.333 10 -29.833 10 -40.5c0 -13.333 -3.5 -23.666 -10.5 -30.999s-19.833 -11 -38.5 -11h-31v-38h31c18.667 0 31.5 -3.66699 38.5 -11s10.5 -17.666 10.5 -30.999
c0 -10.667 -3.33301 -24.167 -10 -40.5l-22.5 -54.5c-8.33301 -20 -15.833 -41.667 -22.5 -65s-10 -47 -10 -71c0 -18 2.5 -34.833 7.5 -50.5s12.5 -29.5 22.5 -41.5s22.5 -21.5 37.5 -28.5s32.833 -10.5 53.5 -10.5h25z" />
    <glyph glyph-name="bar" unicode="|" horiz-adv-x="118" 
d="M81 -64v793h-44v-793h44z" />
    <glyph glyph-name="braceright" unicode="}" horiz-adv-x="228" 
d="M185 288v38.001h-31c-18 0 -30.667 3.66699 -38 11s-11 17.666 -11 30.999c0 10.667 3.5 24.167 10.5 40.5l22.5 55c8 20.333 15.5 42 22.5 65s10.5 46.5 10.5 70.5c0 18 -2.5 34.833 -7.5 50.5s-12.5 29.5 -22.5 41.5s-22.667 21.5 -38 28.5s-33.333 10.5 -54 10.5h-24
v-41h29c20 0 35.167 -8.66699 45.5 -26s15.5 -38.666 15.5 -63.999c0 -18 -3 -36.667 -9 -56s-12.667 -38.333 -20 -57s-14 -36.5 -20 -53.5s-9 -31.833 -9 -44.5c0 -22 5.16699 -39.5 15.5 -52.5s27.166 -22.5 50.499 -28.5c-23.333 -6 -40.166 -15.333 -50.499 -28
s-15.5 -30.334 -15.5 -53.001c0 -13.333 3 -28.333 9 -45s12.667 -34.167 20 -52.5s14 -37.333 20 -57s9 -38.5 9 -56.5c0 -25.333 -5.16699 -46.666 -15.5 -63.999s-25.5 -26 -45.5 -26h-29v-41h24c20.667 0 38.667 3.5 54 10.5s28 16.5 38 28.5s17.5 25.833 22.5 41.5
s7.5 32.5 7.5 50.5c0 24 -3.5 47.667 -10.5 71s-14.5 45 -22.5 65l-22.5 54.5c-7 16.333 -10.5 29.833 -10.5 40.5c0 13.333 3.66699 23.666 11 30.999s20 11 38 11h31z" />
    <glyph glyph-name="asciitilde" unicode="~" horiz-adv-x="199" 
d="M193 347c0 12 -3.00098 22.333 -9.00098 31h-30v-25c0 -10.667 -4.66699 -16 -14 -16c-4 0 -9.33301 2 -16 6s-13.667 8.5 -21 13.5s-15.333 9.66699 -24 14s-17 6.5 -25 6.5c-16 0 -27.833 -5.33301 -35.5 -16s-11.5 -25.334 -11.5 -44.001c0 -11.333 3 -21.333 9 -30
h30v25c0 10.667 4.66699 16 14 16c4 0 9.33301 -2.16699 16 -6.5l21.5 -14c7.66699 -5 15.5 -9.66699 23.5 -14s16 -6.5 24 -6.5c16.667 0 28.834 5.33301 36.501 16s11.5 25.334 11.5 44.001z" />
    <glyph glyph-name="nonbreakingspace" unicode="&#xa0;" horiz-adv-x="58" 
 />
    <glyph glyph-name="exclamdown" unicode="&#xa1;" horiz-adv-x="139" 
d="M100 371v97h-61v-97h61zM103 -198v289l-23 210h-20l-24 -210v-289h67z" />
    <glyph glyph-name="cent" unicode="&#xa2;" horiz-adv-x="257" 
d="M109 573c-22 -6.66699 -39.834 -20.334 -53.501 -41.001s-20.5 -46 -20.5 -76v-242c0 -31.333 6.83301 -57.166 20.5 -77.499s31.5 -33.5 53.5 -39.5v-97h53v99c21.333 6.66699 37.666 20 48.999 40s17 45 17 75v50h-53v-60c0 -30.667 -13 -46 -39 -46
c-12 0 -21.5 4 -28.5 12s-10.5 19.333 -10.5 34v262c0 14 3.5 25.5 10.5 34.5s16.5 13.5 28.5 13.5c12.667 0 22.334 -4.5 29.001 -13.5s10 -20.5 10 -34.5v-63h53v53c0 30 -5.66699 55 -17 75s-27.666 33.333 -48.999 40v95h-53v-93z" />
    <glyph glyph-name="sterling" unicode="&#xa3;" horiz-adv-x="346" 
d="M321 113l0.000976562 84.002h-58v-101c0 -12 -2.66699 -22 -8 -30s-14.666 -12 -27.999 -12c-9.33301 0 -19.166 2.66699 -29.499 8s-19.5 12 -27.5 20c6 12 11.333 25.667 16 41s8.5 31 11.5 47s5.16699 31.833 6.5 47.5s2 29.5 2 41.5c0 6 -0.333008 13.333 -1 22
s-1.66699 16.334 -3 23.001h75v62h-92c-8.66699 25.333 -16.334 53.5 -23.001 84.5s-10 59.833 -10 86.5c0 24 4.16699 41.5 12.5 52.5s19.5 16.5 33.5 16.5c18 0 30.667 -5.5 38 -16.5s11 -25.833 11 -44.5v-72h59v69c0 18 -2 35.167 -6 51.5s-10.333 30.666 -19 42.999
s-19.834 22 -33.501 29s-29.834 10.5 -48.501 10.5c-19.333 0 -36.166 -4 -50.499 -12s-26.166 -19 -35.499 -33s-16.166 -30.333 -20.499 -49s-6.5 -38.667 -6.5 -60c0 -28 3 -55.5 9 -82.5s13.667 -51.5 23 -73.5h-71v-62h88c3.33301 -8 5.83301 -18 7.5 -30
s2.5 -22.667 2.5 -32c0 -10 -0.666992 -20.833 -2 -32.5s-3 -23.334 -5 -35.001s-4.33301 -22.667 -7 -33s-5.66699 -18.833 -9 -25.5c-7.33301 5.33301 -15.333 9.66602 -24 12.999s-17.667 5 -27 5c-24.667 0 -44 -6.83301 -58 -20.5s-21 -31.167 -21 -52.5
c0 -22 7.16699 -39.333 21.5 -52s32.166 -19 53.499 -19c29.333 0 52.666 14.333 69.999 43c12 -14 26.667 -24.667 44 -32s35 -11 53 -11c29.333 0 51.166 9.5 65.499 28.5s21.5 50.5 21.5 94.5zM98.001 68.002c-2 -8 -6.00098 -14.167 -12.001 -18.5
s-12.667 -6.5 -20 -6.5c-15.333 0 -23 7.33301 -23 22c0 6 2 11 6 15s9.66699 6 17 6c4.66699 0 9.83398 -1.5 15.501 -4.5s11.167 -7.5 16.5 -13.5z" />
    <glyph glyph-name="currency" unicode="&#xa4;" horiz-adv-x="295" 
d="M95 366v180c0 18.667 4.83301 33.5 14.5 44.5s23.834 16.5 42.501 16.5s33 -5.5 43 -16.5s15 -26.5 15 -46.5v-89h60v87c0 42 -10.333 74.833 -31 98.5s-50.667 35.5 -90 35.5c-38 0 -67.167 -12.833 -87.5 -38.5s-30.5 -57.834 -30.5 -96.501v-416
c0 -39.333 10 -71.666 30 -96.999s49.333 -38 88 -38c39.333 0 69.333 11.833 90 35.5s31 56.5 31 98.5v87h-60v-89c0 -42 -19.333 -63 -58 -63c-18.667 0 -32.834 5.33301 -42.501 16s-14.5 25.667 -14.5 45v182h135v64h-135z" />
    <glyph glyph-name="yen" unicode="&#xa5;" horiz-adv-x="294" 
d="M178 276h87v60h-71l86 330h-70l-62 -292l-62 292h-71l80 -330h-72v-60h88v-65h-88v-62h88v-149h67v149h87v62h-87v65z" />
    <glyph glyph-name="section" unicode="&#xa7;" horiz-adv-x="296" 
d="M280 250c0 22.667 -4.49902 43.5029 -13.499 62.5029s-20.167 36.667 -33.5 53s-28 31.833 -44 46.5s-30.667 29.167 -44 43.5s-24.5 29 -33.5 44s-13.5 31.167 -13.5 48.5c0 18 4.16699 32.5 12.5 43.5s22.166 16.5 41.499 16.5c20.667 0 35 -5.83301 43 -17.5
s12 -26.167 12 -43.5v-45h64v38c0 18 -2.33301 35.333 -7 52s-11.667 31.167 -21 43.5s-21.5 22.166 -36.5 29.499s-32.833 11 -53.5 11s-38.667 -3.5 -54 -10.5s-28 -16.667 -38 -29s-17.5 -26.666 -22.5 -42.999s-7.5 -33.5 -7.5 -51.5c0 -26 5.16699 -49.5 15.5 -70.5
s25.5 -42.5 45.5 -64.5c-20 -18.667 -36.833 -41 -50.5 -67s-20.5 -54 -20.5 -84c0 -23.333 4.66699 -44.666 14 -63.999s20.833 -37.333 34.5 -54s28.667 -32.334 45 -47.001s31.333 -29.334 45 -44.001s25.167 -29.5 34.5 -44.5s14 -31.167 14 -48.5
c0 -19.333 -5.16699 -35 -15.5 -47s-25.833 -18 -46.5 -18c-19.333 0 -34.5 5.66699 -45.5 17s-16.5 26.666 -16.5 45.999v45h-63v-36c0 -44 11.5 -77.667 34.5 -101s54.833 -35 95.5 -35c20 0 37.667 3.66699 53 11s28 17.166 38 29.499s17.667 26.5 23 42.5s8 33 8 51
c0 26 -5 49.333 -15 70s-25.333 43 -46 67c19.333 15.333 35.5 36 48.5 62s19.5 56.667 19.5 92zM216.001 229.003c0 -16 -4.16699 -32.502 -12.5 -49.502s-18.833 -30.833 -31.5 -41.5c-17.333 13.333 -31.5 25.5 -42.5 36.5s-19.5 21.667 -25.5 32
s-10.167 20.833 -12.5 31.5s-3.5 22.667 -3.5 36c0 16 4 32.833 12 50.5s18.667 31.834 32 42.501c16 -12.667 29.5 -24.5 40.5 -35.5s19.667 -21.833 26 -32.5s10.833 -21.667 13.5 -33s4 -23.666 4 -36.999z" />
    <glyph glyph-name="dieresis" unicode="&#xa8;" horiz-adv-x="162" 
d="M154 541v82h-54v-82h54zM63 541v82h-55v-82h55z" />
    <glyph glyph-name="copyright" unicode="&#xa9;" horiz-adv-x="543" 
d="M526 312c0 36 -6.5 69.667 -19.5 101s-30.833 58.666 -53.5 81.999s-49.5 41.833 -80.5 55.5s-64.833 20.5 -101.5 20.5s-70.5 -6.83301 -101.5 -20.5s-57.833 -32.167 -80.5 -55.5s-40.334 -50.666 -53.001 -81.999s-19 -65 -19 -101
c0 -35.333 6.33301 -68.666 19 -99.999s30.334 -58.666 53.001 -81.999s49.5 -41.833 80.5 -55.5s64.833 -20.5 101.5 -20.5s70.5 6.83301 101.5 20.5s57.833 32.167 80.5 55.5s40.5 50.666 53.5 81.999s19.5 64.666 19.5 99.999zM486 312
c0 -30.667 -5.16699 -59.334 -15.5 -86.001s-25 -50 -44 -70s-41.667 -35.833 -68 -47.5s-55.5 -17.5 -87.5 -17.5c-31.333 0 -60.166 5.83301 -86.499 17.5s-49 27.5 -68 47.5s-33.667 43.333 -44 70s-15.5 55.334 -15.5 86.001s5.16699 59.5 15.5 86.5s25 50.5 44 70.5
s41.667 35.667 68 47s55.166 17 86.499 17c32 0 61.167 -5.66699 87.5 -17s49 -27 68 -47s33.667 -43.5 44 -70.5s15.5 -55.833 15.5 -86.5zM357 258v17h-39v-17c0 -10.667 -3.66699 -19.667 -11 -27s-18 -11 -32 -11c-14.667 0 -25.5 3.83301 -32.5 11.5
s-10.5 16.834 -10.5 27.501v106c0 11.333 3.5 20.833 10.5 28.5s17.833 11.5 32.5 11.5c14 0 24.667 -3.83301 32 -11.5s11 -16.834 11 -27.501v-16h39v16c0 22 -7.66699 39.667 -23 53s-35.333 20 -60 20c-25.333 0 -46 -6.83301 -62 -20.5s-24 -31.5 -24 -53.5v-106
c0 -21.333 8 -39 24 -53s36.667 -21 62 -21c24.667 0 44.667 6.83301 60 20.5s23 31.167 23 52.5z" />
    <glyph glyph-name="ordfeminine" unicode="&#xaa;" horiz-adv-x="225" 
d="M213 308l0.000976562 42.001c-7.33301 0 -12.166 1.5 -14.499 4.5s-3.5 7.16699 -3.5 12.5v213c0 28 -6.5 51 -19.5 69s-34.167 27 -63.5 27c-28 0 -48.667 -8.5 -62 -25.5s-20 -38.167 -20 -63.5v-30h48v27c0 13.333 2.16699 23.666 6.5 30.999s13.166 11 26.499 11
c22.667 0 34 -13.333 34 -40v-55c-16 -5.33301 -31.667 -11.5 -47 -18.5s-28.666 -15.333 -39.999 -25s-20.5 -21 -27.5 -34s-10.5 -27.833 -10.5 -44.5v-13c0 -28 6.16699 -49.667 18.5 -65s29.5 -23 51.5 -23c13.333 0 25.666 3.33301 36.999 10s20.666 15.667 27.999 27
c1.33301 -13.333 6 -22.833 14 -28.5s16.667 -8.5 26 -8.5h18zM145.001 405.001c0 -14 -4.5 -25.835 -13.5 -35.502s-19.5 -14.5 -31.5 -14.5c-11.333 0 -19.333 3.83301 -24 11.5s-7 17.5 -7 29.5v17c0 16.667 6.33301 31.334 19 44.001s31.667 22.334 57 29.001v-81z" />
    <glyph glyph-name="guillemotleft" unicode="&#xab;" horiz-adv-x="308" 
d="M155 0c0 46 -7 84.833 -21 116.5s-32.667 57.167 -56 76.5c23.333 19.333 42 45 56 77s21 71 21 117h-33c-6 -40.667 -18.333 -74.5 -37 -101.5s-42 -48.167 -70 -63.5v-57c28 -15.333 51.333 -36.5 70 -63.5s31 -60.833 37 -101.5h33zM288 0c0 46 -7 84.833 -21 116.5
s-32.667 57.167 -56 76.5c23.333 19.333 42 45 56 77s21 71 21 117h-33c-6 -40.667 -18.333 -74.5 -37 -101.5s-42 -48.167 -70 -63.5v-57c28 -15.333 51.333 -36.5 70 -63.5s31 -60.833 37 -101.5h33z" />
    <glyph glyph-name="logicalnot" unicode="&#xac;" horiz-adv-x="320" 
d="M269 266l-70 69l70 68l-41 40l-68 -69l-68 69l-41 -40l68 -69l-68 -69l40 -40l68 69l69 -69z" />
    <glyph glyph-name="registered" unicode="&#xae;" horiz-adv-x="543" 
d="M526 312c0 36 -6.5 69.667 -19.5 101s-30.833 58.666 -53.5 81.999s-49.5 41.833 -80.5 55.5s-64.833 20.5 -101.5 20.5s-70.5 -6.83301 -101.5 -20.5s-57.833 -32.167 -80.5 -55.5s-40.334 -50.666 -53.001 -81.999s-19 -65 -19 -101
c0 -35.333 6.33301 -68.666 19 -99.999s30.334 -58.666 53.001 -81.999s49.5 -41.833 80.5 -55.5s64.833 -20.5 101.5 -20.5s70.5 6.83301 101.5 20.5s57.833 32.167 80.5 55.5s40.5 50.666 53.5 81.999s19.5 64.666 19.5 99.999zM486 312
c0 -30.667 -5.16699 -59.334 -15.5 -86.001s-25 -50 -44 -70s-41.667 -35.833 -68 -47.5s-55.5 -17.5 -87.5 -17.5c-31.333 0 -60.166 5.83301 -86.499 17.5s-49 27.5 -68 47.5s-33.667 43.333 -44 70s-15.5 55.334 -15.5 86.001s5.16699 59.5 15.5 86.5s25 50.5 44 70.5
s41.667 35.667 68 47s55.166 17 86.499 17c32 0 61.167 -5.66699 87.5 -17s49 -27 68 -47s33.667 -43.5 44 -70.5s15.5 -55.833 15.5 -86.5zM370 190l-0.00390625 31.999c-8.66699 0 -13 3.33301 -13 10v30c0 11.333 -3.16699 22 -9.5 32s-16.5 15.667 -30.5 17
c14.667 2.66699 24.834 8 30.501 16s8.5 19.333 8.5 34v10c0 19.333 -5.16699 34.833 -15.5 46.5s-28.166 17.5 -53.499 17.5h-92v-242h44v103h44c10.667 0 18.334 -3.33301 23.001 -10s7 -14.667 7 -24v-33c0 -15.333 3.33301 -25.666 10 -30.999s18.334 -8 35.001 -8h12z
M310.996 357.999c0 -21.333 -10.334 -32 -31.001 -32h-41v74h45c10.667 0 17.834 -2.66699 21.501 -8s5.5 -12 5.5 -20v-14z" />
    <glyph glyph-name="macron" unicode="&#xaf;" horiz-adv-x="169" 
d="M163 551v50h-157v-50h157z" />
    <glyph glyph-name="macron" unicode="&#x2c9;" horiz-adv-x="169" 
d="M163 551v50h-157v-50h157z" />
    <glyph glyph-name="degree" unicode="&#xb0;" horiz-adv-x="198" 
d="M188 588c0 12 -2.16699 23.333 -6.5 34s-10.333 20 -18 28s-17 14.333 -28 19s-23.167 7 -36.5 7s-25.5 -2.33301 -36.5 -7s-20.333 -11 -28 -19s-13.667 -17.333 -18 -28s-6.5 -22 -6.5 -34s2.16699 -23.333 6.5 -34s10.333 -20 18 -28s17 -14.5 28 -19.5
s23.167 -7.5 36.5 -7.5s25.5 2.5 36.5 7.5s20.333 11.5 28 19.5s13.667 17.333 18 28s6.5 22 6.5 34zM143 588c0 -14.667 -3.83301 -26.5 -11.5 -35.5s-18.5 -13.5 -32.5 -13.5s-24.833 4.5 -32.5 13.5s-11.5 20.833 -11.5 35.5c0 14 3.83301 25.5 11.5 34.5
s18.5 13.5 32.5 13.5s24.833 -4.5 32.5 -13.5s11.5 -20.5 11.5 -34.5z" />
    <glyph glyph-name="plusminus" unicode="&#xb1;" horiz-adv-x="507" 
d="M483 0v480h-459v-480h459zM432 49h-357v382h357v-382z" />
    <glyph glyph-name="acute" unicode="&#xb4;" horiz-adv-x="133" 
d="M126 641h-65l-35 -120h40z" />
    <glyph glyph-name="paragraph" unicode="&#xb6;" horiz-adv-x="416" 
d="M377 -167v833h-182c-23.333 0 -45.166 -5.5 -65.499 -16.5s-38 -26.5 -53 -46.5s-26.667 -44.167 -35 -72.5s-12.5 -59.833 -12.5 -94.5v-16c0 -34.667 4.16699 -66 12.5 -94s20 -52 35 -72s32.667 -35.5 53 -46.5s42.166 -16.5 65.499 -16.5h31v-358h50v757h51v-757h50z
M226 262l-15 -0.000976562c-19.333 0 -34.833 5.83301 -46.5 17.5s-17.5 32.5 -17.5 62.5v149c0 30.667 5.83301 54.834 17.5 72.501s27.167 26.5 46.5 26.5h15v-328z" />
    <glyph glyph-name="periodcentered" unicode="&#xb7;" horiz-adv-x="111" 
d="M86 282v100h-60v-100h60z" />
    <glyph glyph-name="cedilla" unicode="&#xb8;" horiz-adv-x="122" 
d="M128 -115c0 17.333 -4.83105 31.834 -14.498 43.501s-24.167 17.5 -43.5 17.5c-3.33301 0 -7.33301 -0.333008 -12 -1s-8.33398 -2 -11.001 -4l37 57l-21 17l-60 -94l21 -15c9.33301 10.667 19.666 16 30.999 16c9.33301 0 16.333 -2.33301 21 -7s7 -12.667 7 -24v-11
c0 -19.333 -9.33301 -29 -28 -29h-16v-22c2 -1.33301 5.16699 -2.83301 9.5 -4.5s9.5 -2.5 15.5 -2.5c19.333 0 34.833 6.16699 46.5 18.5s17.5 27.166 17.5 44.499z" />
    <glyph glyph-name="ordmasculine" unicode="&#xba;" horiz-adv-x="214" 
d="M197 410v164c0 31.333 -8.5 56.166 -25.5 74.499s-38.167 27.5 -63.5 27.5s-46.666 -9.16699 -63.999 -27.5s-26 -43.166 -26 -74.499v-164c0 -32 8.66699 -57 26 -75s38.666 -27 63.999 -27s46.5 9 63.5 27s25.5 43 25.5 75zM144 398c0 -12 -3.16699 -21.833 -9.5 -29.5
s-15.166 -11.5 -26.499 -11.5c-12 0 -21.333 3.83301 -28 11.5s-10 17.5 -10 29.5v188c0 12 3.33301 22 10 30s16 12 28 12c11.333 0 20.166 -4 26.499 -12s9.5 -18 9.5 -30v-188z" />
    <glyph glyph-name="guillemotright" unicode="&#xbb;" horiz-adv-x="308" 
d="M158 165v57c-28 15.333 -51.333 36.5 -70 63.5s-31 60.833 -37 101.5h-33c0 -46 7 -85 21 -117s32.667 -57.667 56 -77c-23.333 -19.333 -42 -44.833 -56 -76.5s-21 -70.5 -21 -116.5h33c6 40.667 18.333 74.5 37 101.5s42 48.167 70 63.5zM291 165v57
c-28 15.333 -51.333 36.5 -70 63.5s-31 60.833 -37 101.5h-33c0 -46 7 -85 21 -117s32.667 -57.667 56 -77c-23.333 -19.333 -42 -44.833 -56 -76.5s-21 -70.5 -21 -116.5h33c6 40.667 18.333 74.5 37 101.5s42 48.167 70 63.5z" />
    <glyph glyph-name="questiondown" unicode="&#xbf;" horiz-adv-x="224" 
d="M-8 -64c0 -20.667 2.00098 -39.834 6.00098 -57.501s10.5 -32.834 19.5 -45.501s20.833 -22.667 35.5 -30s32.667 -11 54 -11c36 0 62.667 11.833 80 35.5s26 54.5 26 92.5v87h-57v-86c0 -19.333 -4 -34.666 -12 -45.999s-20.667 -17 -38 -17
c-16.667 0 -29 5.33301 -37 16s-12 30.667 -12 60c0 6.66699 0.5 15.167 1.5 25.5s2.5 21.833 4.5 34.5s4.66699 25.5 8 38.5s7.66602 25.5 12.999 37.5c12 26 22.167 49 30.5 69s15 38.333 20 55s8.66699 32.5 11 47.5s3.5 30.833 3.5 47.5h-52
c0 -26.667 -2.83301 -50.167 -8.5 -70.5s-15.5 -42.166 -29.5 -65.499c-21.333 -38 -37.833 -76.167 -49.5 -114.5s-17.5 -72.5 -17.5 -102.5zM92.001 468v-97h62v97h-62z" />
    <glyph glyph-name="Agrave" unicode="&#xc0;" horiz-adv-x="290" 
d="M281 0l-97 666h-75l-101 -666h68l21 144h92l18 -144h74zM180 211h-74l39 297zM165 699l-35 120h-65l60 -120h40z" />
    <glyph glyph-name="Aacute" unicode="&#xc1;" horiz-adv-x="290" 
d="M281 0l-97 666h-75l-101 -666h68l21 144h92l18 -144h74zM180 211h-74l39 297zM224 819h-65l-35 -120h40z" />
    <glyph glyph-name="Acircumflex" unicode="&#xc2;" horiz-adv-x="290" 
d="M281 0l-97 666h-75l-101 -666h68l21 144h92l18 -144h74zM180 211h-74l39 297zM243 706l0.00195312 20c-13.333 0 -27 6.33301 -41 19s-24.333 33 -31 61h-47c-6.66699 -28 -17 -48.333 -31 -61s-27.667 -19 -41 -19v-20
c5.33301 -1.33301 10.166 -2.66602 14.499 -3.99902s9.16602 -2 14.499 -2c16 0 29.667 4.66699 41 14s19.333 24.666 24 45.999c4 -21.333 11.833 -36.666 23.5 -45.999s25.167 -14 40.5 -14c4.66699 0 10 0.666992 16 2s11.667 2.66602 17 3.99902z" />
    <glyph glyph-name="Atilde" unicode="&#xc3;" horiz-adv-x="290" 
d="M281 0l-97 666h-75l-101 -666h68l21 144h92l18 -144h74zM180 211h-74l39 297zM235 766c0 12 -3.00098 22.332 -9.00098 30.999h-30v-25c0 -10.667 -4.66699 -16 -14 -16c-4 0 -9.33301 2 -16 6s-13.667 8.5 -21 13.5s-15.333 9.66699 -24 14s-17 6.5 -25 6.5
c-16 0 -27.833 -5.33301 -35.5 -16s-11.5 -25 -11.5 -43c0 -12 3 -22.333 9 -31h30v25c0 10.667 4.66699 16 14 16c4 0 9.33301 -2.16699 16 -6.5l21.5 -14c7.66699 -5 15.5 -9.66699 23.5 -14s16 -6.5 24 -6.5c16.667 0 28.834 5.33301 36.501 16s11.5 25.334 11.5 44.001z
" />
    <glyph glyph-name="Adieresis" unicode="&#xc4;" horiz-adv-x="290" 
d="M281 0l-97 666h-75l-101 -666h68l21 144h92l18 -144h74zM180 211h-74l39 297zM216 719v82h-54v-82h54zM125 719v82h-55v-82h55z" />
    <glyph glyph-name="Aring" unicode="&#xc5;" horiz-adv-x="290" 
d="M180 211h-74l39 297zM174 717c0 -23.333 -9 -35 -27 -35c-18.667 0 -28 11.667 -28 35c0 24 9.33301 36 28 36c18 0 27 -12 27 -36zM118 666h-9l-101 -666h68l21 144h92l18 -144h74l-97 666h-9c8 5.33301 14.5 12.5 19.5 21.5s7.5 18.833 7.5 29.5
c0 16.667 -5.16699 31.167 -15.5 43.5s-23.5 18.5 -39.5 18.5c-16.667 0 -30.167 -6.16699 -40.5 -18.5s-15.5 -26.833 -15.5 -43.5c0 -22.667 9 -39.667 27 -51z" />
    <glyph glyph-name="AE" unicode="&#xc6;" horiz-adv-x="426" 
d="M405 0v67h-140v246h101v64h-101v222h140v67h-244l-153 -666h68l34 144h84v-144h211zM194 211h-69l69 340v-340z" />
    <glyph glyph-name="Ccedilla" unicode="&#xc7;" horiz-adv-x="305" 
d="M134 -9l-43.999 -69.999l20 -15c9.33301 10.667 19.666 16 30.999 16c9.33301 0 16.333 -2.33301 21 -7s7 -12.667 7 -24v-11c0 -19.333 -9.33301 -29 -28 -29h-16v-22c2 -1.33301 5.33301 -2.83301 10 -4.5s9.66699 -2.5 15 -2.5c19.333 0 34.833 6.16699 46.5 18.5
s17.5 27.166 17.5 44.499s-4.66699 31.833 -14 43.5s-23.666 17.5 -42.999 17.5c-4 0 -8.33301 -0.333008 -13 -1s-8.33398 -2 -11.001 -4l31 49c36.667 1.33301 65.167 14.666 85.5 39.999s30.5 56.666 30.5 93.999v110h-63v-117c0 -17.333 -4.83301 -31.333 -14.5 -42
s-23.5 -16 -41.5 -16c-19.333 0 -33.833 5.33301 -43.5 16s-14.5 24.334 -14.5 41.001v434c0 16 4.83301 29.5 14.5 40.5s24.167 16.5 43.5 16.5c18 0 31.833 -5.5 41.5 -16.5s14.5 -24.833 14.5 -41.5v-116h63v109c0 38.667 -10.5 70.667 -31.5 96s-51.167 38 -90.5 38
c-19.333 0 -36.833 -3.5 -52.5 -10.5s-29 -16.667 -40 -29s-19.5 -26.833 -25.5 -43.5s-9 -34.667 -9 -54v-412c0 -34.667 9.16699 -64.667 27.5 -90s43.5 -40.666 75.5 -45.999z" />
    <glyph glyph-name="Egrave" unicode="&#xc8;" horiz-adv-x="270" 
d="M249 0v67h-140v245h101v65h-101v222h140v67h-212v-666h212zM164 699l-35 120h-65l60 -120h40z" />
    <glyph glyph-name="Eacute" unicode="&#xc9;" horiz-adv-x="270" 
d="M249 0v67h-140v245h101v65h-101v222h140v67h-212v-666h212zM212 819h-65l-35 -120h40z" />
    <glyph glyph-name="Ecircumflex" unicode="&#xca;" horiz-adv-x="270" 
d="M249 0v67h-140v245h101v65h-101v222h140v67h-212v-666h212zM237 706l0.00195312 20c-13.333 0 -27 6.33301 -41 19s-24.333 33 -31 61h-47c-6.66699 -28 -17 -48.333 -31 -61s-27.667 -19 -41 -19v-20c5.33301 -1.33301 10.166 -2.66602 14.499 -3.99902
s9.16602 -2 14.499 -2c16 0 29.667 4.66699 41 14s19.333 24.666 24 45.999c4 -21.333 11.833 -36.666 23.5 -45.999s25.167 -14 40.5 -14c4.66699 0 10 0.666992 16 2s11.667 2.66602 17 3.99902z" />
    <glyph glyph-name="Edieresis" unicode="&#xcb;" horiz-adv-x="270" 
d="M249 0v67h-140v245h101v65h-101v222h140v67h-212v-666h212zM214 719v82h-54v-82h54zM123 719v82h-55v-82h55z" />
    <glyph glyph-name="Igrave" unicode="&#xcc;" horiz-adv-x="147" 
d="M110 0v666h-73v-666h73zM94 699l-35 120h-65l60 -120h40z" />
    <glyph glyph-name="Iacute" unicode="&#xcd;" horiz-adv-x="147" 
d="M110 0v666h-73v-666h73zM151 819h-65l-35 -120h40z" />
    <glyph glyph-name="Icircumflex" unicode="&#xce;" horiz-adv-x="147" 
d="M110 0v666h-73v-666h73zM171 706l0.00195312 20c-13.333 0 -27 6.33301 -41 19s-24.333 33 -31 61h-47c-6.66699 -28 -17 -48.333 -31 -61s-27.667 -19 -41 -19v-20c5.33301 -1.33301 10.166 -2.66602 14.499 -3.99902s9.16602 -2 14.499 -2c16 0 29.667 4.66699 41 14
s19.333 24.666 24 45.999c4 -21.333 11.833 -36.666 23.5 -45.999s25.167 -14 40.5 -14c4.66699 0 10 0.666992 16 2s11.667 2.66602 17 3.99902z" />
    <glyph glyph-name="Idieresis" unicode="&#xcf;" horiz-adv-x="147" 
d="M110 0v666h-73v-666h73zM147 719v82h-54v-82h54zM56 719v82h-55v-82h55z" />
    <glyph glyph-name="Eth" unicode="&#xd0;" horiz-adv-x="338" 
d="M127 362v233.999h56c18.667 0 32.167 -5.66699 40.5 -17s12.5 -29.666 12.5 -54.999v-383c0 -48 -17.667 -72 -53 -72h-56v232h54v61h-54zM56 300.999v-301.002h129c42.667 0 73.667 12.833 93 38.5s29 61.834 29 108.501v372c0 46.667 -9.66699 82.834 -29 108.501
s-50.333 38.5 -93 38.5h-129v-304h-59v-61h59z" />
    <glyph glyph-name="Ntilde" unicode="&#xd1;" horiz-adv-x="337" 
d="M302 0v666h-68v-450l-30 108l-103 342h-65v-666h68v444l32 -107l113 -337h53zM258 766c0 12 -3.00098 22.332 -9.00098 30.999h-30v-25c0 -10.667 -4.66699 -16 -14 -16c-4 0 -9.33301 2 -16 6s-13.667 8.5 -21 13.5s-15.333 9.66699 -24 14s-17 6.5 -25 6.5
c-16 0 -27.833 -5.33301 -35.5 -16s-11.5 -25 -11.5 -43c0 -12 3 -22.333 9 -31h30v25c0 10.667 4.66699 16 14 16c4 0 9.33301 -2.16699 16 -6.5l21.5 -14c7.66699 -5 15.5 -9.66699 23.5 -14s16 -6.5 24 -6.5c16.667 0 28.834 5.33301 36.501 16s11.5 25.334 11.5 44.001z
" />
    <glyph glyph-name="Ograve" unicode="&#xd2;" horiz-adv-x="319" 
d="M287 129v408c0 20 -3 38.5 -9 55.5s-14.5 31.667 -25.5 44s-24.5 22 -40.5 29s-33.667 10.5 -53 10.5s-37 -3.5 -53 -10.5s-29.5 -16.667 -40.5 -29s-19.5 -27 -25.5 -44s-9 -35.5 -9 -55.5v-408c0 -40.667 11.5 -74 34.5 -100s54.167 -39 93.5 -39s70.5 13 93.5 39
s34.5 59.333 34.5 100zM216 119c0 -17.333 -4.83301 -31.666 -14.5 -42.999s-23.834 -17 -42.501 -17s-32.667 5.66699 -42 17s-14 25.666 -14 42.999v428c0 17.333 4.66699 31.666 14 42.999s23.333 17 42 17s32.834 -5.66699 42.501 -17s14.5 -25.666 14.5 -42.999v-428z
M178 699l-35 120h-65l60 -120h40z" />
    <glyph glyph-name="Oacute" unicode="&#xd3;" horiz-adv-x="319" 
d="M287 129v408c0 20 -3 38.5 -9 55.5s-14.5 31.667 -25.5 44s-24.5 22 -40.5 29s-33.667 10.5 -53 10.5s-37 -3.5 -53 -10.5s-29.5 -16.667 -40.5 -29s-19.5 -27 -25.5 -44s-9 -35.5 -9 -55.5v-408c0 -40.667 11.5 -74 34.5 -100s54.167 -39 93.5 -39s70.5 13 93.5 39
s34.5 59.333 34.5 100zM216 119c0 -17.333 -4.83301 -31.666 -14.5 -42.999s-23.834 -17 -42.501 -17s-32.667 5.66699 -42 17s-14 25.666 -14 42.999v428c0 17.333 4.66699 31.666 14 42.999s23.333 17 42 17s32.834 -5.66699 42.501 -17s14.5 -25.666 14.5 -42.999v-428z
M238 819h-65l-35 -120h40z" />
    <glyph glyph-name="Ocircumflex" unicode="&#xd4;" horiz-adv-x="319" 
d="M287 129v408c0 20 -3 38.5 -9 55.5s-14.5 31.667 -25.5 44s-24.5 22 -40.5 29s-33.667 10.5 -53 10.5s-37 -3.5 -53 -10.5s-29.5 -16.667 -40.5 -29s-19.5 -27 -25.5 -44s-9 -35.5 -9 -55.5v-408c0 -40.667 11.5 -74 34.5 -100s54.167 -39 93.5 -39s70.5 13 93.5 39
s34.5 59.333 34.5 100zM216 119c0 -17.333 -4.83301 -31.666 -14.5 -42.999s-23.834 -17 -42.501 -17s-32.667 5.66699 -42 17s-14 25.666 -14 42.999v428c0 17.333 4.66699 31.666 14 42.999s23.333 17 42 17s32.834 -5.66699 42.501 -17s14.5 -25.666 14.5 -42.999v-428z
M256 706l0.00195312 20c-13.333 0 -27 6.33301 -41 19s-24.333 33 -31 61h-47c-6.66699 -28 -17 -48.333 -31 -61s-27.667 -19 -41 -19v-20c5.33301 -1.33301 10.166 -2.66602 14.499 -3.99902s9.16602 -2 14.499 -2c16 0 29.667 4.66699 41 14s19.333 24.666 24 45.999
c4 -21.333 11.833 -36.666 23.5 -45.999s25.167 -14 40.5 -14c4.66699 0 10 0.666992 16 2s11.667 2.66602 17 3.99902z" />
    <glyph glyph-name="Otilde" unicode="&#xd5;" horiz-adv-x="319" 
d="M287 129v408c0 20 -3 38.5 -9 55.5s-14.5 31.667 -25.5 44s-24.5 22 -40.5 29s-33.667 10.5 -53 10.5s-37 -3.5 -53 -10.5s-29.5 -16.667 -40.5 -29s-19.5 -27 -25.5 -44s-9 -35.5 -9 -55.5v-408c0 -40.667 11.5 -74 34.5 -100s54.167 -39 93.5 -39s70.5 13 93.5 39
s34.5 59.333 34.5 100zM216 119c0 -17.333 -4.83301 -31.666 -14.5 -42.999s-23.834 -17 -42.501 -17s-32.667 5.66699 -42 17s-14 25.666 -14 42.999v428c0 17.333 4.66699 31.666 14 42.999s23.333 17 42 17s32.834 -5.66699 42.501 -17s14.5 -25.666 14.5 -42.999v-428z
M247 766c0 12 -3.00098 22.332 -9.00098 30.999h-30v-25c0 -10.667 -4.66699 -16 -14 -16c-4 0 -9.33301 2 -16 6s-13.667 8.5 -21 13.5s-15.333 9.66699 -24 14s-17 6.5 -25 6.5c-16 0 -27.833 -5.33301 -35.5 -16s-11.5 -25 -11.5 -43c0 -12 3 -22.333 9 -31h30v25
c0 10.667 4.66699 16 14 16c4 0 9.33301 -2.16699 16 -6.5l21.5 -14c7.66699 -5 15.5 -9.66699 23.5 -14s16 -6.5 24 -6.5c16.667 0 28.834 5.33301 36.501 16s11.5 25.334 11.5 44.001z" />
    <glyph glyph-name="Odieresis" unicode="&#xd6;" horiz-adv-x="319" 
d="M287 129v408c0 20 -3 38.5 -9 55.5s-14.5 31.667 -25.5 44s-24.5 22 -40.5 29s-33.667 10.5 -53 10.5s-37 -3.5 -53 -10.5s-29.5 -16.667 -40.5 -29s-19.5 -27 -25.5 -44s-9 -35.5 -9 -55.5v-408c0 -40.667 11.5 -74 34.5 -100s54.167 -39 93.5 -39s70.5 13 93.5 39
s34.5 59.333 34.5 100zM216 119c0 -17.333 -4.83301 -31.666 -14.5 -42.999s-23.834 -17 -42.501 -17s-32.667 5.66699 -42 17s-14 25.666 -14 42.999v428c0 17.333 4.66699 31.666 14 42.999s23.333 17 42 17s32.834 -5.66699 42.501 -17s14.5 -25.666 14.5 -42.999v-428z
M232 719v82h-54v-82h54zM141 719v82h-55v-82h55z" />
    <glyph glyph-name="multiply" unicode="&#xd7;" horiz-adv-x="320" 
d="M269 266l-70 69l70 68l-41 40l-68 -69l-68 69l-41 -40l68 -69l-68 -69l40 -40l68 69l69 -69z" />
    <glyph glyph-name="Oslash" unicode="&#xd8;" horiz-adv-x="319" 
d="M288 679l-38 15l-220 -707l38 -15zM287 129v408c0 20 -3 38.5 -9 55.5s-14.5 31.667 -25.5 44s-24.5 22 -40.5 29s-33.667 10.5 -53 10.5s-37 -3.5 -53 -10.5s-29.5 -16.667 -40.5 -29s-19.5 -27 -25.5 -44s-9 -35.5 -9 -55.5v-408c0 -40.667 11.5 -74 34.5 -100
s54.167 -39 93.5 -39s70.5 13 93.5 39s34.5 59.333 34.5 100zM216 119c0 -17.333 -4.83301 -31.666 -14.5 -42.999s-23.834 -17 -42.501 -17s-32.667 5.66699 -42 17s-14 25.666 -14 42.999v428c0 17.333 4.66699 31.666 14 42.999s23.333 17 42 17
s32.834 -5.66699 42.501 -17s14.5 -25.666 14.5 -42.999v-428z" />
    <glyph glyph-name="Ugrave" unicode="&#xd9;" horiz-adv-x="320" 
d="M286 124l-0.000976562 542h-70v-546c0 -41.333 -18.333 -62 -55 -62s-55 20.667 -55 62v546h-72v-542c0 -41.333 11.833 -74 35.5 -98s53.834 -36 90.501 -36c36 0 66 12 90 36s36 56.667 36 98zM184.999 699l-35 120h-65l60 -120h40z" />
    <glyph glyph-name="Uacute" unicode="&#xda;" horiz-adv-x="320" 
d="M286 124l-0.000976562 542h-70v-546c0 -41.333 -18.333 -62 -55 -62s-55 20.667 -55 62v546h-72v-542c0 -41.333 11.833 -74 35.5 -98s53.834 -36 90.501 -36c36 0 66 12 90 36s36 56.667 36 98zM238.999 819h-65l-35 -120h40z" />
    <glyph glyph-name="Ucircumflex" unicode="&#xdb;" horiz-adv-x="320" 
d="M286 124l-0.000976562 542h-70v-546c0 -41.333 -18.333 -62 -55 -62s-55 20.667 -55 62v546h-72v-542c0 -41.333 11.833 -74 35.5 -98s53.834 -36 90.501 -36c36 0 66 12 90 36s36 56.667 36 98zM258.999 706l0.00195312 20c-13.333 0 -27 6.33301 -41 19
s-24.333 33 -31 61h-47c-6.66699 -28 -17 -48.333 -31 -61s-27.667 -19 -41 -19v-20c5.33301 -1.33301 10.166 -2.66602 14.499 -3.99902s9.16602 -2 14.499 -2c16 0 29.667 4.66699 41 14s19.333 24.666 24 45.999c4 -21.333 11.833 -36.666 23.5 -45.999
s25.167 -14 40.5 -14c4.66699 0 10 0.666992 16 2s11.667 2.66602 17 3.99902z" />
    <glyph glyph-name="Udieresis" unicode="&#xdc;" horiz-adv-x="320" 
d="M286 124l-0.000976562 542h-70v-546c0 -41.333 -18.333 -62 -55 -62s-55 20.667 -55 62v546h-72v-542c0 -41.333 11.833 -74 35.5 -98s53.834 -36 90.501 -36c36 0 66 12 90 36s36 56.667 36 98zM234.999 719v82h-54v-82h54zM143.999 719v82h-55v-82h55z" />
    <glyph glyph-name="Yacute" unicode="&#xdd;" horiz-adv-x="284" 
d="M283 666h-69l-71 -310l-71 310h-72l103 -403v-263h72v263zM224 819h-65l-35 -120h40z" />
    <glyph glyph-name="Thorn" unicode="&#xde;" horiz-adv-x="297" 
d="M280 279v141.999c0 22 -2.83301 40.833 -8.5 56.5s-13.5 28.334 -23.5 38.001s-21.833 16.667 -35.5 21s-28.167 6.5 -43.5 6.5h-59v123h-73v-666h73v158h59c15.333 0 29.833 2.16699 43.5 6.5s25.5 11.333 35.5 21s17.833 22.167 23.5 37.5s8.5 34 8.5 56zM208 271.999
c0 -32 -13 -48 -39 -48h-59v251h59c26 0 39 -16.667 39 -50v-153z" />
    <glyph glyph-name="germandbls" unicode="&#xdf;" horiz-adv-x="268" 
d="M239 81l-0.000976562 196c0 19.333 -3.66699 35 -11 47s-17.666 21.667 -30.999 29c12 6.66699 21.667 16.667 29 30s11 28.333 11 45v114c0 40 -8.66699 70.667 -26 92s-43 32 -77 32c-32.667 0 -57.334 -11.333 -74.001 -34s-25 -54 -25 -94v-538h61v553
c0 15.333 3 27.5 9 36.5s16.333 13.5 31 13.5c13.333 0 23.333 -4.5 30 -13.5s10 -20.833 10 -35.5v-136c0 -12.667 -3.66699 -22.667 -11 -30s-18.666 -11 -33.999 -11v-46c31.333 0 47 -13.333 47 -40v-222c0 -12.667 -4.83301 -22.167 -14.5 -28.5
s-21.167 -9.5 -34.5 -9.5v-31c6.66699 -5.33301 15.667 -8 27 -8c24 0 43.833 7.5 59.5 22.5s23.5 37.167 23.5 66.5z" />
    <glyph glyph-name="agrave" unicode="&#xe0;" horiz-adv-x="253" 
d="M232 -8l0.000976562 47.999c-10 0 -15 7.33301 -15 22v298c0 34 -7.66699 61.333 -23 82s-38.666 31 -69.999 31c-30 0 -52.833 -10 -68.5 -30s-23.5 -46 -23.5 -78v-49h55v45c0 16 2.16699 28.167 6.5 36.5s13.833 12.5 28.5 12.5
c13.333 0 22.666 -4.16699 27.999 -12.5s8 -20.166 8 -35.499v-76c-18 -8.66699 -35.333 -18.334 -52 -29.001s-31.334 -22.5 -44.001 -35.5s-22.667 -27.667 -30 -44s-11 -34.166 -11 -53.499v-22c0 -34 7 -60.833 21 -80.5s33.667 -29.5 59 -29.5c14 0 27 3.83301 39 11.5
s21.667 18.167 29 31.5c3.33301 -15.333 9.5 -26.333 18.5 -33s18.833 -10 29.5 -10h15zM158.001 110.999c0 -16 -4.33203 -30.167 -12.999 -42.5s-19.334 -18.5 -32.001 -18.5c-13.333 0 -22.5 4.66699 -27.5 14s-7.5 21.333 -7.5 36v31c0 18 6.66699 36 20 54
s33.333 31.667 60 41v-115zM143.002 520.999l-35 120h-65l60 -120h40z" />
    <glyph glyph-name="aacute" unicode="&#xe1;" horiz-adv-x="253" 
d="M232 -8l0.000976562 47.999c-10 0 -15 7.33301 -15 22v298c0 34 -7.66699 61.333 -23 82s-38.666 31 -69.999 31c-30 0 -52.833 -10 -68.5 -30s-23.5 -46 -23.5 -78v-49h55v45c0 16 2.16699 28.167 6.5 36.5s13.833 12.5 28.5 12.5
c13.333 0 22.666 -4.16699 27.999 -12.5s8 -20.166 8 -35.499v-76c-18 -8.66699 -35.333 -18.334 -52 -29.001s-31.334 -22.5 -44.001 -35.5s-22.667 -27.667 -30 -44s-11 -34.166 -11 -53.499v-22c0 -34 7 -60.833 21 -80.5s33.667 -29.5 59 -29.5c14 0 27 3.83301 39 11.5
s21.667 18.167 29 31.5c3.33301 -15.333 9.5 -26.333 18.5 -33s18.833 -10 29.5 -10h15zM158.001 110.999c0 -16 -4.33203 -30.167 -12.999 -42.5s-19.334 -18.5 -32.001 -18.5c-13.333 0 -22.5 4.66699 -27.5 14s-7.5 21.333 -7.5 36v31c0 18 6.66699 36 20 54
s33.333 31.667 60 41v-115zM202.002 640.999h-65l-35 -120h40z" />
    <glyph glyph-name="acircumflex" unicode="&#xe2;" horiz-adv-x="253" 
d="M232 -8l0.000976562 47.999c-10 0 -15 7.33301 -15 22v298c0 34 -7.66699 61.333 -23 82s-38.666 31 -69.999 31c-30 0 -52.833 -10 -68.5 -30s-23.5 -46 -23.5 -78v-49h55v45c0 16 2.16699 28.167 6.5 36.5s13.833 12.5 28.5 12.5
c13.333 0 22.666 -4.16699 27.999 -12.5s8 -20.166 8 -35.499v-76c-18 -8.66699 -35.333 -18.334 -52 -29.001s-31.334 -22.5 -44.001 -35.5s-22.667 -27.667 -30 -44s-11 -34.166 -11 -53.499v-22c0 -34 7 -60.833 21 -80.5s33.667 -29.5 59 -29.5c14 0 27 3.83301 39 11.5
s21.667 18.167 29 31.5c3.33301 -15.333 9.5 -26.333 18.5 -33s18.833 -10 29.5 -10h15zM158.001 110.999c0 -16 -4.33203 -30.167 -12.999 -42.5s-19.334 -18.5 -32.001 -18.5c-13.333 0 -22.5 4.66699 -27.5 14s-7.5 21.333 -7.5 36v31c0 18 6.66699 36 20 54
s33.333 31.667 60 41v-115zM222.002 527.999l0.00195312 20c-13.333 0 -27 6.33301 -41 19s-24.333 33 -31 61h-47c-6.66699 -28 -17 -48.333 -31 -61s-27.667 -19 -41 -19v-20c5.33301 -1.33301 10.166 -2.66602 14.499 -3.99902s9.16602 -2 14.499 -2
c16 0 29.667 4.66699 41 14s19.333 24.666 24 45.999c4 -21.333 11.833 -36.666 23.5 -45.999s25.167 -14 40.5 -14c4.66699 0 10 0.666992 16 2s11.667 2.66602 17 3.99902z" />
    <glyph glyph-name="atilde" unicode="&#xe3;" horiz-adv-x="253" 
d="M232 -8l0.000976562 47.999c-10 0 -15 7.33301 -15 22v298c0 34 -7.66699 61.333 -23 82s-38.666 31 -69.999 31c-30 0 -52.833 -10 -68.5 -30s-23.5 -46 -23.5 -78v-49h55v45c0 16 2.16699 28.167 6.5 36.5s13.833 12.5 28.5 12.5
c13.333 0 22.666 -4.16699 27.999 -12.5s8 -20.166 8 -35.499v-76c-18 -8.66699 -35.333 -18.334 -52 -29.001s-31.334 -22.5 -44.001 -35.5s-22.667 -27.667 -30 -44s-11 -34.166 -11 -53.499v-22c0 -34 7 -60.833 21 -80.5s33.667 -29.5 59 -29.5c14 0 27 3.83301 39 11.5
s21.667 18.167 29 31.5c3.33301 -15.333 9.5 -26.333 18.5 -33s18.833 -10 29.5 -10h15zM158.001 110.999c0 -16 -4.33203 -30.167 -12.999 -42.5s-19.334 -18.5 -32.001 -18.5c-13.333 0 -22.5 4.66699 -27.5 14s-7.5 21.333 -7.5 36v31c0 18 6.66699 36 20 54
s33.333 31.667 60 41v-115zM216.002 587.999c0 12 -3.00098 22.332 -9.00098 30.999h-30v-25c0 -10.667 -4.66699 -16 -14 -16c-4 0 -9.33301 2 -16 6s-13.667 8.5 -21 13.5s-15.333 9.66699 -24 14s-17 6.5 -25 6.5c-16 0 -27.833 -5.33301 -35.5 -16s-11.5 -25 -11.5 -43
c0 -12 3 -22.333 9 -31h30v25c0 10.667 4.66699 16 14 16c4 0 9.33301 -2.16699 16 -6.5l21.5 -14c7.66699 -5 15.5 -9.66699 23.5 -14s16 -6.5 24 -6.5c16.667 0 28.834 5.33301 36.501 16s11.5 25.334 11.5 44.001z" />
    <glyph glyph-name="adieresis" unicode="&#xe4;" horiz-adv-x="253" 
d="M232 -8l0.000976562 47.999c-10 0 -15 7.33301 -15 22v298c0 34 -7.66699 61.333 -23 82s-38.666 31 -69.999 31c-30 0 -52.833 -10 -68.5 -30s-23.5 -46 -23.5 -78v-49h55v45c0 16 2.16699 28.167 6.5 36.5s13.833 12.5 28.5 12.5
c13.333 0 22.666 -4.16699 27.999 -12.5s8 -20.166 8 -35.499v-76c-18 -8.66699 -35.333 -18.334 -52 -29.001s-31.334 -22.5 -44.001 -35.5s-22.667 -27.667 -30 -44s-11 -34.166 -11 -53.499v-22c0 -34 7 -60.833 21 -80.5s33.667 -29.5 59 -29.5c14 0 27 3.83301 39 11.5
s21.667 18.167 29 31.5c3.33301 -15.333 9.5 -26.333 18.5 -33s18.833 -10 29.5 -10h15zM158.001 110.999c0 -16 -4.33203 -30.167 -12.999 -42.5s-19.334 -18.5 -32.001 -18.5c-13.333 0 -22.5 4.66699 -27.5 14s-7.5 21.333 -7.5 36v31c0 18 6.66699 36 20 54
s33.333 31.667 60 41v-115zM196.002 540.999v82h-54v-82h54zM105.002 540.999v82h-55v-82h55z" />
    <glyph glyph-name="aring" unicode="&#xe5;" horiz-adv-x="253" 
d="M232 -8l0.000976562 47.999c-10 0 -15 7.33301 -15 22v298c0 34 -7.66699 61.333 -23 82s-38.666 31 -69.999 31c-30 0 -52.833 -10 -68.5 -30s-23.5 -46 -23.5 -78v-49h55v45c0 16 2.16699 28.167 6.5 36.5s13.833 12.5 28.5 12.5
c13.333 0 22.666 -4.16699 27.999 -12.5s8 -20.166 8 -35.499v-76c-18 -8.66699 -35.333 -18.334 -52 -29.001s-31.334 -22.5 -44.001 -35.5s-22.667 -27.667 -30 -44s-11 -34.166 -11 -53.499v-22c0 -34 7 -60.833 21 -80.5s33.667 -29.5 59 -29.5c14 0 27 3.83301 39 11.5
s21.667 18.167 29 31.5c3.33301 -15.333 9.5 -26.333 18.5 -33s18.833 -10 29.5 -10h15zM158.001 110.999c0 -16 -4.33203 -30.167 -12.999 -42.5s-19.334 -18.5 -32.001 -18.5c-13.333 0 -22.5 4.66699 -27.5 14s-7.5 21.333 -7.5 36v31c0 18 6.66699 36 20 54
s33.333 31.667 60 41v-115zM179.002 582.999c0 16.667 -5 31.167 -15 43.5s-23.333 18.5 -40 18.5c-16 0 -29.333 -6.16699 -40 -18.5s-16 -26.833 -16 -43.5c0 -16 5.33301 -30.167 16 -42.5s24 -18.5 40 -18.5c16.667 0 30 6.16699 40 18.5s15 26.5 15 42.5z
M152.002 582.999c0 -11.333 -2.49902 -20.166 -7.49902 -26.499s-11.833 -9.5 -20.5 -9.5s-15.334 3.16699 -20.001 9.5s-7 15.166 -7 26.499c0 24 9 36 27 36c18.667 0 28 -12 28 -36z" />
    <glyph glyph-name="ae" unicode="&#xe6;" horiz-adv-x="376" 
d="M349 113l0.00292969 49.998h-54v-58c0 -16 -2.66699 -28.667 -8 -38s-15.333 -14 -30 -14c-14 0 -24.333 4.66699 -31 14s-10 22 -10 38v119h133v126c0 36.667 -8.33301 66.334 -25 89.001s-37.334 34 -62.001 34c-17.333 0 -32 -4.16699 -44 -12.5
s-22 -20.166 -30 -35.499c-7.33301 15.333 -16.333 27.166 -27 35.499s-25 12.5 -43 12.5c-26 0 -46.667 -10 -62 -30s-23 -46 -23 -78v-49h52v45c0 16 2.66699 28.333 8 37s15 13 29 13c14.667 0 24.5 -4.66699 29.5 -14s7.5 -21.666 7.5 -36.999v-74
c-18 -8.66699 -35.333 -18.334 -52 -29.001s-31.334 -22.5 -44.001 -35.5s-22.834 -27.667 -30.501 -44s-11.5 -34.166 -11.5 -53.499v-22c0 -38 7.5 -65.833 22.5 -83.5s35.833 -26.5 62.5 -26.5c34 0 60.333 15.667 79 47c8 -16.667 18.5 -28.667 31.5 -36
s28.167 -11 45.5 -11c12 0 23.167 2.83301 33.5 8.5s19.5 13.667 27.5 24s14.333 23 19 38s7 31.833 7 50.5zM295.003 269.998h-79v88c0 16 3.33301 28.833 10 38.5s17 14.5 31 14.5c14.667 0 24.667 -4.83301 30 -14.5s8 -22.5 8 -38.5v-88zM159.003 110.998
c0 -16 -4.16797 -30.167 -12.501 -42.5s-19.166 -18.5 -32.499 -18.5s-22.5 4.66699 -27.5 14s-7.5 21.333 -7.5 36v31c0 18 6.66699 36 20 54s33.333 31.667 60 41v-115z" />
    <glyph glyph-name="ccedilla" unicode="&#xe7;" horiz-adv-x="244" 
d="M106 -6l-47.001 -72.9961l20 -15c9.33301 10.667 19.666 16 30.999 16c9.33301 0 16.333 -2.33301 21 -7s7 -12.667 7 -24v-11c0 -19.333 -9.33301 -29 -28 -29h-15v-22c1.33301 -1.33301 4.33301 -2.83301 9 -4.5s10 -2.5 16 -2.5c19.333 0 34.833 6.16699 46.5 18.5
s17.5 27.166 17.5 44.499s-4.83301 31.833 -14.5 43.5s-24.167 17.5 -43.5 17.5c-4 0 -8.16699 -0.333008 -12.5 -1s-8.16602 -2 -11.499 -4l33 52c28.667 2 50.334 13.667 65.001 35s22 49.666 22 84.999v49h-52v-60c0 -14.667 -3.33301 -26.167 -10 -34.5
s-16.667 -12.5 -30 -12.5s-23.5 4.16699 -30.5 12.5s-10.5 20.166 -10.5 35.499v258c0 15.333 3.5 27.5 10.5 36.5s17.167 13.5 30.5 13.5s23.333 -4.66699 30 -14s10 -21 10 -35v-61h52v50c0 36.667 -8 66.167 -24 88.5s-39.667 33.5 -71 33.5
c-29.333 0 -53 -11.333 -71 -34s-27 -52.334 -27 -89.001v-236c0 -32.667 7 -59.5 21 -80.5s32.667 -34.167 56 -39.5z" />
    <glyph glyph-name="egrave" unicode="&#xe8;" horiz-adv-x="248" 
d="M222 113v50h-54v-58c0 -16 -3 -28.667 -9 -38s-15.667 -14 -29 -14c-14.667 0 -25.167 4.66699 -31.5 14s-9.5 22 -9.5 38v119h133v126c0 36.667 -8.16699 66.334 -24.5 89.001s-39.5 34 -69.5 34c-29.333 0 -53.166 -11.333 -71.499 -34s-27.5 -52.334 -27.5 -89.001
v-236c0 -37.333 9.16699 -67 27.5 -89s42.166 -33 71.499 -33c30 0 53.167 10.833 69.5 32.5s24.5 51.167 24.5 88.5zM168 270h-79v88c0 16 3.16699 28.833 9.5 38.5s16.833 14.5 31.5 14.5c13.333 0 23 -4.83301 29 -14.5s9 -22.5 9 -38.5v-88zM147 521l-35 120h-65
l60 -120h40z" />
    <glyph glyph-name="eacute" unicode="&#xe9;" horiz-adv-x="248" 
d="M222 113v50h-54v-58c0 -16 -3 -28.667 -9 -38s-15.667 -14 -29 -14c-14.667 0 -25.167 4.66699 -31.5 14s-9.5 22 -9.5 38v119h133v126c0 36.667 -8.16699 66.334 -24.5 89.001s-39.5 34 -69.5 34c-29.333 0 -53.166 -11.333 -71.499 -34s-27.5 -52.334 -27.5 -89.001
v-236c0 -37.333 9.16699 -67 27.5 -89s42.166 -33 71.499 -33c30 0 53.167 10.833 69.5 32.5s24.5 51.167 24.5 88.5zM168 270h-79v88c0 16 3.16699 28.833 9.5 38.5s16.833 14.5 31.5 14.5c13.333 0 23 -4.83301 29 -14.5s9 -22.5 9 -38.5v-88zM207 641h-65l-35 -120h40z
" />
    <glyph glyph-name="ecircumflex" unicode="&#xea;" horiz-adv-x="248" 
d="M222 113v50h-54v-58c0 -16 -3 -28.667 -9 -38s-15.667 -14 -29 -14c-14.667 0 -25.167 4.66699 -31.5 14s-9.5 22 -9.5 38v119h133v126c0 36.667 -8.16699 66.334 -24.5 89.001s-39.5 34 -69.5 34c-29.333 0 -53.166 -11.333 -71.499 -34s-27.5 -52.334 -27.5 -89.001
v-236c0 -37.333 9.16699 -67 27.5 -89s42.166 -33 71.499 -33c30 0 53.167 10.833 69.5 32.5s24.5 51.167 24.5 88.5zM168 270h-79v88c0 16 3.16699 28.833 9.5 38.5s16.833 14.5 31.5 14.5c13.333 0 23 -4.83301 29 -14.5s9 -22.5 9 -38.5v-88zM222 528l0.00195312 20
c-13.333 0 -27 6.33301 -41 19s-24.333 33 -31 61h-47c-6.66699 -28 -17 -48.333 -31 -61s-27.667 -19 -41 -19v-20c5.33301 -1.33301 10.166 -2.66602 14.499 -3.99902s9.16602 -2 14.499 -2c16 0 29.667 4.66699 41 14s19.333 24.666 24 45.999
c4 -21.333 11.833 -36.666 23.5 -45.999s25.167 -14 40.5 -14c4.66699 0 10 0.666992 16 2s11.667 2.66602 17 3.99902z" />
    <glyph glyph-name="edieresis" unicode="&#xeb;" horiz-adv-x="248" 
d="M222 113v50h-54v-58c0 -16 -3 -28.667 -9 -38s-15.667 -14 -29 -14c-14.667 0 -25.167 4.66699 -31.5 14s-9.5 22 -9.5 38v119h133v126c0 36.667 -8.16699 66.334 -24.5 89.001s-39.5 34 -69.5 34c-29.333 0 -53.166 -11.333 -71.499 -34s-27.5 -52.334 -27.5 -89.001
v-236c0 -37.333 9.16699 -67 27.5 -89s42.166 -33 71.499 -33c30 0 53.167 10.833 69.5 32.5s24.5 51.167 24.5 88.5zM168 270h-79v88c0 16 3.16699 28.833 9.5 38.5s16.833 14.5 31.5 14.5c13.333 0 23 -4.83301 29 -14.5s9 -22.5 9 -38.5v-88zM198 541v82h-54v-82h54z
M107 541v82h-55v-82h55z" />
    <glyph glyph-name="igrave" unicode="&#xec;" horiz-adv-x="127" 
d="M94 0v468h-61v-468h61zM82 521l-35 120h-65l60 -120h40z" />
    <glyph glyph-name="iacute" unicode="&#xed;" horiz-adv-x="127" 
d="M94 0v468h-61v-468h61zM143 641h-65l-35 -120h40z" />
    <glyph glyph-name="icircumflex" unicode="&#xee;" horiz-adv-x="127" 
d="M94 0v468h-61v-468h61zM162 528l0.00195312 20c-13.333 0 -27 6.33301 -41 19s-24.333 33 -31 61h-47c-6.66699 -28 -17 -48.333 -31 -61s-27.667 -19 -41 -19v-20c5.33301 -1.33301 10.166 -2.66602 14.499 -3.99902s9.16602 -2 14.499 -2c16 0 29.667 4.66699 41 14
s19.333 24.666 24 45.999c4 -21.333 11.833 -36.666 23.5 -45.999s25.167 -14 40.5 -14c4.66699 0 10 0.666992 16 2s11.667 2.66602 17 3.99902z" />
    <glyph glyph-name="idieresis" unicode="&#xef;" horiz-adv-x="127" 
d="M94 0v468h-61v-468h61zM136 541v82h-54v-82h54zM45 541v82h-55v-82h55z" />
    <glyph glyph-name="eth" unicode="&#xf0;" horiz-adv-x="259" 
d="M184 622l-16.002 23.001c-5.33301 7.33301 -11.666 14.333 -18.999 21h-69v-3c23.333 -22 41.666 -44.667 54.999 -68l-42 -23l16 -42l44 24c6 -18 10.333 -37.333 13 -58s4 -44 4 -70c-14 30 -36.667 45 -68 45c-22 0 -39.667 -9.16699 -53 -27.5s-20 -41.5 -20 -69.5
v-261c0 -37.333 9.5 -66.833 28.5 -88.5s42.833 -32.5 71.5 -32.5s52.834 10.833 72.501 32.5s29.5 51.167 29.5 88.5v306c0 34.667 -2.16699 65.167 -6.5 91.5s-11.166 50.166 -20.499 71.499l30 17l-17 42zM88.998 101.001v259.999c0 34 13.333 51 40 51
c12.667 0 22.667 -4.66699 30 -14s11 -21.666 11 -36.999v-260c0 -14 -3.66699 -25 -11 -33s-17.333 -12 -30 -12c-12 0 -21.667 4 -29 12s-11 19 -11 33z" />
    <glyph glyph-name="ntilde" unicode="&#xf1;" 
d="M237 0v376c0 29.333 -6.5 52.666 -19.5 69.999s-31.167 26 -54.5 26c-15.333 0 -29.333 -5.16699 -42 -15.5s-22.667 -27.166 -30 -50.499l-4 62h-54v-468h61v355c0 13.333 3.83301 26.5 11.5 39.5s18.5 19.5 32.5 19.5c11.333 0 20.5 -4.33301 27.5 -13
s10.5 -20 10.5 -34v-367h61zM221 588c0 12 -3.00098 22.332 -9.00098 30.999h-30v-25c0 -10.667 -4.66699 -16 -14 -16c-4 0 -9.33301 2 -16 6s-13.667 8.5 -21 13.5s-15.333 9.66699 -24 14s-17 6.5 -25 6.5c-16 0 -27.833 -5.33301 -35.5 -16s-11.5 -25 -11.5 -43
c0 -12 3 -22.333 9 -31h30v25c0 10.667 4.66699 16 14 16c4 0 9.33301 -2.16699 16 -6.5l21.5 -14c7.66699 -5 15.5 -9.66699 23.5 -14s16 -6.5 24 -6.5c16.667 0 28.834 5.33301 36.501 16s11.5 25.334 11.5 44.001z" />
    <glyph glyph-name="ograve" unicode="&#xf2;" horiz-adv-x="259" 
d="M230 114v236c0 36.667 -9.33301 66.334 -28 89.001s-42.667 34 -72 34c-30 0 -54.333 -11.333 -73 -34s-28 -52.334 -28 -89.001v-236c0 -37.333 9.33301 -67 28 -89s43 -33 73 -33c29.333 0 53.333 11 72 33s28 51.667 28 89zM170 102
c0 -14.667 -3.33301 -26.167 -10 -34.5s-16.667 -12.5 -30 -12.5s-23.333 4.16699 -30 12.5s-10 19.833 -10 34.5v260c0 14 3.33301 25.667 10 35s16.667 14 30 14s23.333 -4.66699 30 -14s10 -21 10 -35v-260zM150 521l-35 120h-65l60 -120h40z" />
    <glyph glyph-name="oacute" unicode="&#xf3;" horiz-adv-x="259" 
d="M230 114v236c0 36.667 -9.33301 66.334 -28 89.001s-42.667 34 -72 34c-30 0 -54.333 -11.333 -73 -34s-28 -52.334 -28 -89.001v-236c0 -37.333 9.33301 -67 28 -89s43 -33 73 -33c29.333 0 53.333 11 72 33s28 51.667 28 89zM170 102
c0 -14.667 -3.33301 -26.167 -10 -34.5s-16.667 -12.5 -30 -12.5s-23.333 4.16699 -30 12.5s-10 19.833 -10 34.5v260c0 14 3.33301 25.667 10 35s16.667 14 30 14s23.333 -4.66699 30 -14s10 -21 10 -35v-260zM210 641h-65l-35 -120h40z" />
    <glyph glyph-name="ocircumflex" unicode="&#xf4;" horiz-adv-x="259" 
d="M230 114v236c0 36.667 -9.33301 66.334 -28 89.001s-42.667 34 -72 34c-30 0 -54.333 -11.333 -73 -34s-28 -52.334 -28 -89.001v-236c0 -37.333 9.33301 -67 28 -89s43 -33 73 -33c29.333 0 53.333 11 72 33s28 51.667 28 89zM170 102
c0 -14.667 -3.33301 -26.167 -10 -34.5s-16.667 -12.5 -30 -12.5s-23.333 4.16699 -30 12.5s-10 19.833 -10 34.5v260c0 14 3.33301 25.667 10 35s16.667 14 30 14s23.333 -4.66699 30 -14s10 -21 10 -35v-260zM227 528l0.00195312 20c-13.333 0 -27 6.33301 -41 19
s-24.333 33 -31 61h-47c-6.66699 -28 -17 -48.333 -31 -61s-27.667 -19 -41 -19v-20c5.33301 -1.33301 10.166 -2.66602 14.499 -3.99902s9.16602 -2 14.499 -2c16 0 29.667 4.66699 41 14s19.333 24.666 24 45.999c4 -21.333 11.833 -36.666 23.5 -45.999
s25.167 -14 40.5 -14c4.66699 0 10 0.666992 16 2s11.667 2.66602 17 3.99902z" />
    <glyph glyph-name="otilde" unicode="&#xf5;" horiz-adv-x="259" 
d="M230 114v236c0 36.667 -9.33301 66.334 -28 89.001s-42.667 34 -72 34c-30 0 -54.333 -11.333 -73 -34s-28 -52.334 -28 -89.001v-236c0 -37.333 9.33301 -67 28 -89s43 -33 73 -33c29.333 0 53.333 11 72 33s28 51.667 28 89zM170 102
c0 -14.667 -3.33301 -26.167 -10 -34.5s-16.667 -12.5 -30 -12.5s-23.333 4.16699 -30 12.5s-10 19.833 -10 34.5v260c0 14 3.33301 25.667 10 35s16.667 14 30 14s23.333 -4.66699 30 -14s10 -21 10 -35v-260zM219 588c0 12 -3.00098 22.332 -9.00098 30.999h-30v-25
c0 -10.667 -4.66699 -16 -14 -16c-4 0 -9.33301 2 -16 6s-13.667 8.5 -21 13.5s-15.333 9.66699 -24 14s-17 6.5 -25 6.5c-16 0 -27.833 -5.33301 -35.5 -16s-11.5 -25 -11.5 -43c0 -12 3 -22.333 9 -31h30v25c0 10.667 4.66699 16 14 16c4 0 9.33301 -2.16699 16 -6.5
l21.5 -14c7.66699 -5 15.5 -9.66699 23.5 -14s16 -6.5 24 -6.5c16.667 0 28.834 5.33301 36.501 16s11.5 25.334 11.5 44.001z" />
    <glyph glyph-name="odieresis" unicode="&#xf6;" horiz-adv-x="259" 
d="M230 114v236c0 36.667 -9.33301 66.334 -28 89.001s-42.667 34 -72 34c-30 0 -54.333 -11.333 -73 -34s-28 -52.334 -28 -89.001v-236c0 -37.333 9.33301 -67 28 -89s43 -33 73 -33c29.333 0 53.333 11 72 33s28 51.667 28 89zM170 102
c0 -14.667 -3.33301 -26.167 -10 -34.5s-16.667 -12.5 -30 -12.5s-23.333 4.16699 -30 12.5s-10 19.833 -10 34.5v260c0 14 3.33301 25.667 10 35s16.667 14 30 14s23.333 -4.66699 30 -14s10 -21 10 -35v-260zM202 541v82h-54v-82h54zM111 541v82h-55v-82h55z" />
    <glyph glyph-name="oslash" unicode="&#xf8;" horiz-adv-x="259" 
d="M257 465l-25.001 17.002l-24 -51c-9.33301 13.333 -20.666 23.666 -33.999 30.999s-28 11 -44 11c-30 0 -54.333 -11.333 -73 -34s-28 -52.334 -28 -89.001v-236c0 -17.333 2 -33 6 -47l-5 -10l-11 -23l-11 -23.5l-5 -10.5l24 -18l24 51c18.667 -27.333 45 -41 79 -41
c29.333 0 53.333 11 72 33s28 51.667 28 89v236c0 16.667 -2 31.667 -6 45zM169.999 351.002l-80 -168v179c0 14 3.33301 25.667 10 35s16.667 14 30 14s23.333 -4.66699 30 -14s10 -21 10 -35v-11zM169.999 102.002c0 -14.667 -3.33301 -26.167 -10 -34.5
s-16.667 -12.5 -30 -12.5s-23.333 4.16699 -30 12.5s-10 19.833 -10 34.5v12l80 168v-180z" />
    <glyph glyph-name="ugrave" unicode="&#xf9;" 
d="M236 0l-0.000976562 468h-62v-360c0 -12.667 -3.66699 -25.5 -11 -38.5s-18 -19.5 -32 -19.5c-11.333 0 -20.5 4.16699 -27.5 12.5s-10.5 19.5 -10.5 33.5v372h-61v-379c0 -30 6.5 -53.833 19.5 -71.5s31.167 -26.5 54.5 -26.5c15.333 0 29.333 5 42 15
s22.334 25.667 29.001 47l4 -53h55zM154.999 521l-35 120h-65l60 -120h40z" />
    <glyph glyph-name="uacute" unicode="&#xfa;" 
d="M236 0l-0.000976562 468h-62v-360c0 -12.667 -3.66699 -25.5 -11 -38.5s-18 -19.5 -32 -19.5c-11.333 0 -20.5 4.16699 -27.5 12.5s-10.5 19.5 -10.5 33.5v372h-61v-379c0 -30 6.5 -53.833 19.5 -71.5s31.167 -26.5 54.5 -26.5c15.333 0 29.333 5 42 15
s22.334 25.667 29.001 47l4 -53h55zM213.999 641h-65l-35 -120h40z" />
    <glyph glyph-name="ucircumflex" unicode="&#xfb;" 
d="M236 0l-0.000976562 468h-62v-360c0 -12.667 -3.66699 -25.5 -11 -38.5s-18 -19.5 -32 -19.5c-11.333 0 -20.5 4.16699 -27.5 12.5s-10.5 19.5 -10.5 33.5v372h-61v-379c0 -30 6.5 -53.833 19.5 -71.5s31.167 -26.5 54.5 -26.5c15.333 0 29.333 5 42 15
s22.334 25.667 29.001 47l4 -53h55zM229.999 528l0.00195312 20c-13.333 0 -27 6.33301 -41 19s-24.333 33 -31 61h-47c-6.66699 -28 -17 -48.333 -31 -61s-27.667 -19 -41 -19v-20c5.33301 -1.33301 10.166 -2.66602 14.499 -3.99902s9.16602 -2 14.499 -2
c16 0 29.667 4.66699 41 14s19.333 24.666 24 45.999c4 -21.333 11.833 -36.666 23.5 -45.999s25.167 -14 40.5 -14c4.66699 0 10 0.666992 16 2s11.667 2.66602 17 3.99902z" />
    <glyph glyph-name="udieresis" unicode="&#xfc;" 
d="M236 0l-0.000976562 468h-62v-360c0 -12.667 -3.66699 -25.5 -11 -38.5s-18 -19.5 -32 -19.5c-11.333 0 -20.5 4.16699 -27.5 12.5s-10.5 19.5 -10.5 33.5v372h-61v-379c0 -30 6.5 -53.833 19.5 -71.5s31.167 -26.5 54.5 -26.5c15.333 0 29.333 5 42 15
s22.334 25.667 29.001 47l4 -53h55zM204.999 541v82h-54v-82h54zM113.999 541v82h-55v-82h55z" />
    <glyph glyph-name="yacute" unicode="&#xfd;" horiz-adv-x="230" 
d="M219 468h-60.001l-33 -262l-13 -103l-11 103l-33 262h-60l76 -473l-10 -70c-2.66699 -13.333 -6.66699 -23.333 -12 -30s-14.666 -10 -27.999 -10h-12v-57h15c16.667 0 30.5 2.66699 41.5 8s20 13.166 27 23.499s12.833 23.333 17.5 39s8.66699 33.834 12 54.501z
M195.999 641h-65l-35 -120h40z" />
    <glyph glyph-name="thorn" unicode="&#xfe;" horiz-adv-x="264" 
d="M236 92v287c0 30 -6.66699 53.833 -20 71.5s-30.666 26.5 -51.999 26.5c-32 0 -55.333 -15 -70 -45v234h-61v-835h61v210c14.667 -30.667 38 -46 70 -46c21.333 0 38.666 8.83301 51.999 26.5s20 41.167 20 70.5zM176 108c0 -17.333 -3.66699 -30.332 -11 -38.999
s-17 -13 -29 -13c-13.333 0 -23.666 4.5 -30.999 13.5s-11 21.167 -11 36.5v260c0 15.333 3.66699 27.666 11 36.999s17.666 14 30.999 14c12 0 21.667 -4.5 29 -13.5s11 -21.833 11 -38.5v-257z" />
    <glyph glyph-name="ydieresis" unicode="&#xff;" horiz-adv-x="230" 
d="M219 468h-60.001l-33 -262l-13 -103l-11 103l-33 262h-60l76 -473l-10 -70c-2.66699 -13.333 -6.66699 -23.333 -12 -30s-14.666 -10 -27.999 -10h-12v-57h15c16.667 0 30.5 2.66699 41.5 8s20 13.166 27 23.499s12.833 23.333 17.5 39s8.66699 33.834 12 54.501z
M188.999 541v82h-54v-82h54zM97.999 541v82h-55v-82h55z" />
    <glyph glyph-name="dotlessi" unicode="&#x131;" horiz-adv-x="127" 
d="M94 0v468h-61v-468h61z" />
    <glyph glyph-name="Lslash" unicode="&#x141;" horiz-adv-x="273" 
d="M136 346l74 93l-19 28l-55 -67v266h-71v-357l-74 -93l19 -28l55 67v-255h208v69h-137v277z" />
    <glyph glyph-name="lslash" unicode="&#x142;" horiz-adv-x="175" 
d="M193 454l-22 25l-53 -77v264h-61v-348l-77 -109l23 -25l54 78v-262h61v346z" />
    <glyph glyph-name="OE" unicode="&#x152;" horiz-adv-x="443" 
d="M422 0v67h-139v246h101v64h-101v222h139v67h-265c-44 0 -76 -13 -96 -39s-30 -63.667 -30 -113v-362c0 -49.333 10 -87 30 -113s52 -39 96 -39h265zM211 69h-53c-19.333 0 -33.333 5.83301 -42 17.5s-13 30.834 -13 57.501v377c0 27.333 4.33301 46.666 13 57.999
s22.667 17 42 17h53v-527z" />
    <glyph glyph-name="oe" unicode="&#x153;" horiz-adv-x="387" 
d="M361 113l-0.00195312 49.999h-54v-58c0 -16 -3 -28.667 -9 -38s-16 -14 -30 -14s-24.167 4.66699 -30.5 14s-9.5 22 -9.5 38v119h133v126c0 36.667 -8.33301 66.334 -25 89.001s-37.667 34 -63 34c-17.333 0 -32.166 -4.33301 -44.499 -13s-22.166 -20.667 -29.499 -36
c-16.667 32.667 -42 49 -76 49c-12 0 -23.667 -3 -35 -9s-21.333 -14.333 -30 -25s-15.667 -23.667 -21 -39s-8 -32 -8 -50v-236c0 -37.333 9.5 -67 28.5 -89s40.833 -33 65.5 -33c34 0 59.333 15.667 76 47c15.333 -31.333 40 -47 74 -47c25.333 0 46.333 10.833 63 32.5
s25 51.167 25 88.5zM306.998 269.999h-79v88c0 16 3.16699 28.833 9.5 38.5s16.5 14.5 30.5 14.5s24 -4.83301 30 -14.5s9 -22.5 9 -38.5v-88zM168.998 101.999c0 -14.667 -3.33301 -26.167 -10 -34.5s-16.667 -12.5 -30 -12.5c-12.667 0 -22.5 4.16699 -29.5 12.5
s-10.5 19.833 -10.5 34.5v260c0 14 3.5 25.667 10.5 35s16.833 14 29.5 14c13.333 0 23.333 -4.66699 30 -14s10 -21 10 -35v-260z" />
    <glyph glyph-name="Scaron" unicode="&#x160;" horiz-adv-x="296" 
d="M275 135c0 38 -8.33008 74.8359 -24.9971 110.503s-39.667 72.5 -69 110.5c-14.667 19.333 -27.334 37 -38.001 53s-19.334 31.5 -26.001 46.5s-11.667 30 -15 45s-5 31.5 -5 49.5c0 40.667 18 61 54 61c18 0 31.333 -6.33301 40 -19s13 -30.667 13 -54v-73h68v79
c0 39.333 -10.833 71.166 -32.5 95.499s-50.5 36.5 -86.5 36.5c-21.333 0 -39.833 -3.66699 -55.5 -11s-28.834 -17.5 -39.501 -30.5s-18.5 -28.333 -23.5 -46s-7.5 -36.834 -7.5 -57.501c0 -19.333 3.16699 -39.333 9.5 -60s14.333 -40.834 24 -60.501
s20.5 -38.667 32.5 -57s24 -34.833 36 -49.5c26 -34 45.167 -65.333 57.5 -94s18.5 -59 18.5 -91c0 -21.333 -4.66699 -38 -14 -50s-24 -18 -44 -18c-17.333 0 -31 6.66699 -41 20s-15 31 -15 53v73h-70v-76c0 -38.667 11.333 -70.167 34 -94.5s53.667 -36.5 93 -36.5
c15.333 0 30.5 2.5 45.5 7.5s28.5 13.333 40.5 25s21.833 26.667 29.5 45s11.5 40.833 11.5 67.5zM245.003 779.003v20c-10 4 -19.667 6 -29 6c-16 0 -29.667 -4.83301 -41 -14.5s-19.333 -24.834 -24 -45.501c-4 20.667 -11.833 35.834 -23.5 45.501
s-25.167 14.5 -40.5 14.5c-4.66699 0 -10 -0.5 -16 -1.5s-11.667 -2.5 -17 -4.5v-20c13.333 0 27 -6.33301 41 -19s24.333 -32.667 31 -60h47c6.66699 27.333 17 47.333 31 60s27.667 19 41 19z" />
    <glyph glyph-name="scaron" unicode="&#x161;" horiz-adv-x="235" 
d="M216 107c0 32 -6.16797 60.168 -18.501 84.501s-30.166 46.5 -53.499 66.5c-23.333 21.333 -39.833 40 -49.5 56s-14.5 33.667 -14.5 53c0 12.667 3.5 23.167 10.5 31.5s17.167 12.5 30.5 12.5s23.5 -4 30.5 -12s10.5 -18.667 10.5 -32v-46h51v35
c0 37.333 -7.33301 66.166 -22 86.499s-38.667 30.5 -72 30.5c-28 0 -51 -10.167 -69 -30.5s-27 -48.5 -27 -84.5c0 -30 8.16699 -57.333 24.5 -82s35.5 -46.667 57.5 -66c12 -12 21.5 -22.667 28.5 -32s12.5 -18.166 16.5 -26.499s6.5 -16.833 7.5 -25.5
s1.5 -18.334 1.5 -29.001c0 -32 -14.667 -48 -44 -48c-28 0 -42 17.667 -42 53v41h-52v-32c0 -37.333 7.83301 -66.5 23.5 -87.5s40.167 -31.5 73.5 -31.5c30 0 53.833 10.667 71.5 32s26.5 49 26.5 83zM213.999 601.001v20c-10 4 -19.667 6 -29 6
c-16 0 -29.667 -4.83301 -41 -14.5s-19.333 -24.834 -24 -45.501c-4 20.667 -11.833 35.834 -23.5 45.501s-25.167 14.5 -40.5 14.5c-4.66699 0 -10 -0.5 -16 -1.5s-11.667 -2.5 -17 -4.5v-20c13.333 0 27 -6.33301 41 -19s24.333 -32.667 31 -60h47
c6.66699 27.333 17 47.333 31 60s27.667 19 41 19z" />
    <glyph glyph-name="Ydieresis" unicode="&#x178;" horiz-adv-x="284" 
d="M283 666h-69l-71 -310l-71 310h-72l103 -403v-263h72v263zM215 719v82h-54v-82h54zM124 719v82h-55v-82h55z" />
    <glyph glyph-name="Zcaron" unicode="&#x17d;" 
d="M256 628v38h-235v-69h156l-165 -559v-38h235v67h-155zM232 779v20c-10 4 -19.667 6 -29 6c-16 0 -29.667 -4.83301 -41 -14.5s-19.333 -24.834 -24 -45.501c-4 20.667 -11.833 35.834 -23.5 45.501s-25.167 14.5 -40.5 14.5c-4.66699 0 -10 -0.5 -16 -1.5
s-11.667 -2.5 -17 -4.5v-20c13.333 0 27 -6.33301 41 -19s24.333 -32.667 31 -60h47c6.66699 27.333 17 47.333 31 60s27.667 19 41 19z" />
    <glyph glyph-name="zcaron" unicode="&#x17e;" horiz-adv-x="211" 
d="M196 436v32h-177v-58h112l-119 -378v-32h178v58h-112zM202 601v20c-10 4 -19.667 6 -29 6c-16 0 -29.667 -4.83301 -41 -14.5s-19.333 -24.834 -24 -45.501c-4 20.667 -11.833 35.834 -23.5 45.501s-25.167 14.5 -40.5 14.5c-4.66699 0 -10 -0.5 -16 -1.5
s-11.667 -2.5 -17 -4.5v-20c13.333 0 27 -6.33301 41 -19s24.333 -32.667 31 -60h47c6.66699 27.333 17 47.333 31 60s27.667 19 41 19z" />
    <glyph glyph-name="florin" unicode="&#x192;" horiz-adv-x="199" 
d="M135 376l-0.00195312 191c0 14.667 2 25.5 6 32.5s11.667 10.5 23 10.5h10v56h-14c-36 0 -60.333 -11.5 -73 -34.5s-19 -55.5 -19 -97.5v-158h-48v-61h48v-233c0 -16 -2.16699 -27.167 -6.5 -33.5s-12.166 -9.5 -23.499 -9.5h-9v-56h13c36.667 0 61.334 11.5 74.001 34.5
s19 55.5 19 97.5v200h49v61h-49z" />
    <glyph glyph-name="circumflex" unicode="&#x2c6;" horiz-adv-x="204" 
d="M198 528l0.00195312 20c-13.333 0 -27 6.33301 -41 19s-24.333 33 -31 61h-47c-6.66699 -28 -17 -48.333 -31 -61s-27.667 -19 -41 -19v-20c5.33301 -1.33301 10.166 -2.66602 14.499 -3.99902s9.16602 -2 14.499 -2c16 0 29.667 4.66699 41 14s19.333 24.666 24 45.999
c4 -21.333 11.833 -36.666 23.5 -45.999s25.167 -14 40.5 -14c4.66699 0 10 0.666992 16 2s11.667 2.66602 17 3.99902z" />
    <glyph glyph-name="caron" unicode="&#x2c7;" horiz-adv-x="205" 
d="M198 601v20c-10 4 -19.667 6 -29 6c-16 0 -29.667 -4.83301 -41 -14.5s-19.333 -24.834 -24 -45.501c-4 20.667 -11.833 35.834 -23.5 45.501s-25.167 14.5 -40.5 14.5c-4.66699 0 -10 -0.5 -16 -1.5s-11.667 -2.5 -17 -4.5v-20c13.333 0 27 -6.33301 41 -19
s24.333 -32.667 31 -60h47c6.66699 27.333 17 47.333 31 60s27.667 19 41 19z" />
    <glyph glyph-name="breve" unicode="&#x2d8;" horiz-adv-x="170" 
d="M163 589c0 13.333 -2.33398 24.333 -7.00098 33h-34v-13c0 -12 -2.83301 -22.333 -8.5 -31s-15.5 -13 -29.5 -13c-13.333 0 -22.666 4.33301 -27.999 13s-8 19 -8 31v13h-34c-5.33301 -9.33301 -8 -20.333 -8 -33c0 -19.333 7.5 -35.166 22.5 -47.499
s33.5 -18.5 55.5 -18.5c23.333 0 42.333 6.16699 57 18.5s22 28.166 22 47.499z" />
    <glyph glyph-name="dotaccent" unicode="&#x2d9;" horiz-adv-x="159" 
d="M107 541v82h-54v-82h54z" />
    <glyph glyph-name="ring" unicode="&#x2da;" horiz-adv-x="122" 
d="M116 583c0 16.667 -5 31.167 -15 43.5s-23.333 18.5 -40 18.5c-16 0 -29.333 -6.16699 -40 -18.5s-16 -26.833 -16 -43.5c0 -16 5.33301 -30.167 16 -42.5s24 -18.5 40 -18.5c16.667 0 30 6.16699 40 18.5s15 26.5 15 42.5zM89 583
c0 -11.333 -2.49902 -20.166 -7.49902 -26.499s-11.833 -9.5 -20.5 -9.5s-15.334 3.16699 -20.001 9.5s-7 15.166 -7 26.499c0 24 9 36 27 36c18.667 0 28 -12 28 -36z" />
    <glyph glyph-name="ogonek" unicode="&#x2db;" horiz-adv-x="120" 
d="M109 -131v22.999h-15c-34.667 0 -52 12.667 -52 38c0 31.333 17.667 57.666 53 78.999l-6 10c-30 -11.333 -52 -25.166 -66 -41.499s-21 -34.166 -21 -53.499s6 -34.833 18 -46.5s28 -17.5 48 -17.5s33.667 3 41 9z" />
    <glyph glyph-name="tilde" unicode="&#x2dc;" horiz-adv-x="199" 
d="M193 588c0 12 -3.00098 22.332 -9.00098 30.999h-30v-25c0 -10.667 -4.66699 -16 -14 -16c-4 0 -9.33301 2 -16 6s-13.667 8.5 -21 13.5s-15.333 9.66699 -24 14s-17 6.5 -25 6.5c-16 0 -27.833 -5.33301 -35.5 -16s-11.5 -25 -11.5 -43c0 -12 3 -22.333 9 -31h30v25
c0 10.667 4.66699 16 14 16c4 0 9.33301 -2.16699 16 -6.5l21.5 -14c7.66699 -5 15.5 -9.66699 23.5 -14s16 -6.5 24 -6.5c16.667 0 28.834 5.33301 36.501 16s11.5 25.334 11.5 44.001z" />
    <glyph glyph-name="hungarumlaut" unicode="&#x2dd;" horiz-adv-x="177" 
d="M181 641h-54l-35 -120h37zM94 641h-54l-26 -120h36z" />
    <glyph glyph-name="Omega" unicode="&#x3a9;" horiz-adv-x="315" 
d="M151 408v58h-45v94c0 15.333 3 27.166 9 35.499s15.667 12.5 29 12.5h14v58h-16c-33.333 0 -57.333 -11.167 -72 -33.5s-22 -55.166 -22 -98.499v-68h-36v-58h36v-408h61v408h42zM308 408v58h-45v94c0 15.333 3 27.166 9 35.499s15.667 12.5 29 12.5h14v58h-16
c-33.333 0 -57.333 -11.167 -72 -33.5s-22 -55.166 -22 -98.499v-68h-36v-58h36v-408h61v408h42z" />
    <glyph glyph-name="pi" unicode="&#x3c0;" horiz-adv-x="543" 
d="M526 312c0 36 -6.5 69.667 -19.5 101s-30.833 58.666 -53.5 81.999s-49.5 41.833 -80.5 55.5s-64.833 20.5 -101.5 20.5s-70.5 -6.83301 -101.5 -20.5s-57.833 -32.167 -80.5 -55.5s-40.334 -50.666 -53.001 -81.999s-19 -65 -19 -101
c0 -35.333 6.33301 -68.666 19 -99.999s30.334 -58.666 53.001 -81.999s49.5 -41.833 80.5 -55.5s64.833 -20.5 101.5 -20.5s70.5 6.83301 101.5 20.5s57.833 32.167 80.5 55.5s40.5 50.666 53.5 81.999s19.5 64.666 19.5 99.999zM486 312
c0 -30.667 -5.16699 -59.334 -15.5 -86.001s-25 -50 -44 -70s-41.667 -35.833 -68 -47.5s-55.5 -17.5 -87.5 -17.5c-31.333 0 -60.166 5.83301 -86.499 17.5s-49 27.5 -68 47.5s-33.667 43.333 -44 70s-15.5 55.334 -15.5 86.001s5.16699 59.5 15.5 86.5s25 50.5 44 70.5
s41.667 35.667 68 47s55.166 17 86.499 17c32 0 61.167 -5.66699 87.5 -17s49 -27 68 -47s33.667 -43.5 44 -70.5s15.5 -55.833 15.5 -86.5zM366 349v24c0 18 -5.16699 32.833 -15.5 44.5s-28.166 17.5 -53.499 17.5h-92v-242h43v92h49c25.333 0 43.166 6.16699 53.499 18.5
s15.5 27.5 15.5 45.5zM321 348c0 -8 -2 -14.667 -6 -20s-11.333 -8 -22 -8h-45v82h45c10.667 0 18 -2.5 22 -7.5s6 -12.167 6 -21.5v-25z" />
    <glyph glyph-name="endash" unicode="&#x2013;" horiz-adv-x="425" 
d="M363 285v60h-300v-60h300z" />
    <glyph glyph-name="emdash" unicode="&#x2014;" horiz-adv-x="638" 
d="M576 285v60h-513v-60h513z" />
    <glyph glyph-name="quoteleft" unicode="&#x2018;" horiz-adv-x="111" 
d="M25 580v-90h60v101h-27c0 36 11 54 33 54v21c-24 0 -41 -8 -51 -24s-15 -36.667 -15 -62z" />
    <glyph glyph-name="quoteright" unicode="&#x2019;" horiz-adv-x="111" 
d="M86 576v90h-60v-100h27c0 -36.667 -11 -55 -33 -55v-21c24 0 41 8 51 24s15 36.667 15 62z" />
    <glyph glyph-name="quotesinglbase" unicode="&#x201a;" horiz-adv-x="111" 
d="M86 10v90h-60v-100h27c0 -36.667 -11 -55 -33 -55v-21c24 0 41 8 51 24s15 36.667 15 62z" />
    <glyph glyph-name="quotedblleft" unicode="&#x201c;" horiz-adv-x="198" 
d="M25 580v-90h60v101h-27c0 36 11 54 33 54v21c-24 0 -41 -8 -51 -24s-15 -36.667 -15 -62zM112 580v-90h60v101h-28c0 36 11 54 33 54v21c-24 0 -40.833 -8 -50.5 -24s-14.5 -36.667 -14.5 -62z" />
    <glyph glyph-name="quotedblright" unicode="&#x201d;" horiz-adv-x="198" 
d="M172 576v90h-60v-100h28c0 -36.667 -11.333 -55 -34 -55v-21c24 0 41 8 51 24s15 36.667 15 62zM86 576v90h-60v-100h27c0 -36.667 -11 -55 -33 -55v-21c24 0 41 8 51 24s15 36.667 15 62z" />
    <glyph glyph-name="quotedblbase" unicode="&#x201e;" horiz-adv-x="198" 
d="M172 10v90h-60v-100h28c0 -36.667 -11.333 -55 -34 -55v-21c24 0 41 8 51 24s15 36.667 15 62zM86 10v90h-60v-100h27c0 -36.667 -11 -55 -33 -55v-21c24 0 41 8 51 24s15 36.667 15 62z" />
    <glyph glyph-name="dagger" unicode="&#x2020;" horiz-adv-x="274" 
d="M265 438l0.00195312 32.001c0 3.33301 -1.16699 5.66602 -3.5 6.99902s-4.5 2 -6.5 2c-4 0 -10.333 -0.166992 -19 -0.5s-17.834 -0.833008 -27.501 -1.5s-19.334 -1.5 -29.001 -2.5s-17.834 -2.5 -24.501 -4.5c1.33301 6 2.66602 18.5 3.99902 37.5
s2.33301 38.833 3 59.5s1.16699 39.667 1.5 57s0.5 27.666 0.5 30.999c0 2.66699 -0.833008 5.16699 -2.5 7.5s-4.16699 3.5 -7.5 3.5h-35c-3.33301 0 -5.66602 -1.16699 -6.99902 -3.5s-2 -4.83301 -2 -7.5c0 -3.33301 0.166992 -13.666 0.5 -30.999
s0.833008 -36.333 1.5 -57s1.5 -40.5 2.5 -59.5s2.5 -31.5 4.5 -37.5c-6.66699 2 -14.834 3.5 -24.501 4.5s-19.334 1.83301 -29.001 2.5s-18.834 1.16699 -27.501 1.5s-15 0.5 -19 0.5c-6.66699 0 -10 -3 -10 -9v-32c0 -6.66699 3.33301 -10 10 -10
c3.33301 0 9.33301 0.166992 18 0.5s18 1 28 2l30 3c10 1 18 2.5 24 4.5c-1.33301 -6 -2.66602 -18 -3.99902 -36s-2.33301 -37 -3 -57s-1.16699 -38.333 -1.5 -55s-0.5 -26.667 -0.5 -30c0 -24.667 0.166992 -53.5 0.5 -86.5s0.833008 -65.333 1.5 -97
s1.33398 -60.167 2.00098 -85.5s1.33398 -42.666 2.00098 -51.999c0 -2.66699 0.833008 -5.16699 2.5 -7.5s4.16699 -3.5 7.5 -3.5h22c3.33301 0 5.5 1.16699 6.5 3.5s1.5 4.83301 1.5 7.5c1.33301 9.33301 2.5 26.666 3.5 51.999s1.83301 53.833 2.5 85.5
s1.16699 64 1.5 97s0.5 61.833 0.5 86.5c0 3.33301 -0.166992 13.333 -0.5 30s-0.833008 35 -1.5 55s-1.66699 39 -3 57s-2.66602 30 -3.99902 36c6 -2 13.833 -3.5 23.5 -4.5l29.5 -3c10 -1 19.333 -1.66699 28 -2s15 -0.5 19 -0.5c2 0 4.16699 0.833008 6.5 2.5
s3.5 4.16699 3.5 7.5z" />
    <glyph glyph-name="daggerdbl" unicode="&#x2021;" horiz-adv-x="274" 
d="M265 124l0.00195312 32.001c0 3.33301 -1.16699 5.83301 -3.5 7.5s-4.5 2.5 -6.5 2.5c-4 0 -10.333 -0.166992 -19 -0.5s-18 -1 -28 -2s-19.833 -2.16699 -29.5 -3.5s-17.5 -2.66602 -23.5 -3.99902c1.33301 6 2.66602 16.167 3.99902 30.5s2.33301 29 3 44
s1.16699 28.833 1.5 41.5s0.5 21 0.5 25s-0.166992 12.333 -0.5 25s-0.833008 26.5 -1.5 41.5s-1.66699 29.667 -3 44s-2.66602 24.5 -3.99902 30.5c6 -2 13.833 -3.5 23.5 -4.5l29.5 -3c10 -1 19.333 -1.66699 28 -2s15 -0.5 19 -0.5c2 0 4.16699 0.833008 6.5 2.5
s3.5 4.16699 3.5 7.5v32c0 3.33301 -1.16699 5.66602 -3.5 6.99902s-4.5 2 -6.5 2c-4 0 -10.333 -0.166992 -19 -0.5s-17.834 -0.833008 -27.501 -1.5s-19.334 -1.5 -29.001 -2.5s-17.834 -2.5 -24.501 -4.5c1.33301 6 2.66602 18.5 3.99902 37.5s2.33301 38.833 3 59.5
s1.16699 39.667 1.5 57s0.5 27.666 0.5 30.999c0 2.66699 -0.666992 5.16699 -2 7.5s-3.66602 3.5 -6.99902 3.5h-36c-3.33301 0 -5.66602 -1.16699 -6.99902 -3.5s-2 -4.83301 -2 -7.5c0 -3.33301 0.166992 -13.666 0.5 -30.999s0.833008 -36.333 1.5 -57
s1.5 -40.5 2.5 -59.5s2.5 -31.5 4.5 -37.5c-6.66699 2 -14.834 3.5 -24.501 4.5s-19.334 1.83301 -29.001 2.5s-18.834 1.16699 -27.501 1.5s-15 0.5 -19 0.5c-6.66699 0 -10 -3 -10 -9v-32c0 -6.66699 3.33301 -10 10 -10c3.33301 0 9.33301 0.166992 18 0.5s18 1 28 2
l30 3c10 1 18 2.5 24 4.5c-1.33301 -6 -2.66602 -16.167 -3.99902 -30.5s-2.33301 -29 -3 -44s-1.16699 -28.833 -1.5 -41.5s-0.5 -21 -0.5 -25s0.166992 -12.333 0.5 -25s0.833008 -26.5 1.5 -41.5s1.66699 -29.667 3 -44s2.66602 -24.5 3.99902 -30.5
c-6 1.33301 -14 2.66602 -24 3.99902s-20 2.5 -30 3.5s-19.333 1.66699 -28 2s-14.667 0.5 -18 0.5c-6.66699 0 -10 -3.33301 -10 -10v-32c0 -6.66699 3.33301 -10 10 -10c4 0 10.333 0.166992 19 0.5s17.834 1 27.501 2l29 3c9.66699 1 17.834 2.5 24.501 4.5
c-2 -6.66699 -3.5 -19.334 -4.5 -38.001s-1.83301 -38.334 -2.5 -59.001s-1.16699 -39.667 -1.5 -57s-0.5 -27.666 -0.5 -30.999c0 -2.66699 0.666992 -5.16699 2 -7.5s3.66602 -3.5 6.99902 -3.5h36c3.33301 0 5.66602 1.16699 6.99902 3.5s2 4.83301 2 7.5
c0 3.33301 -0.166992 13.666 -0.5 30.999s-0.833008 36.333 -1.5 57s-1.66699 40.334 -3 59.001s-2.66602 31.334 -3.99902 38.001c6.66699 -2 14.834 -3.5 24.501 -4.5l29 -3c9.66699 -1 18.834 -1.66699 27.501 -2s15 -0.5 19 -0.5c2 0 4.16699 0.833008 6.5 2.5
s3.5 4.16699 3.5 7.5z" />
    <glyph glyph-name="bullet" unicode="&#x2022;" horiz-adv-x="215" 
d="M198 333c0 28.667 -8.66699 51 -26 67s-38.666 24 -63.999 24c-26 0 -47.667 -8 -65 -24s-26 -38.333 -26 -67c0 -29.333 8.66699 -52 26 -68s39 -24 65 -24c25.333 0 46.666 8 63.999 24s26 38.667 26 68z" />
    <glyph glyph-name="ellipsis" unicode="&#x2026;" horiz-adv-x="349" 
d="M91 0v100h-60v-100h60zM204 0v100h-60v-100h60zM318 0v100h-60v-100h60z" />
    <glyph glyph-name="perthousand" unicode="&#x2030;" horiz-adv-x="579" 
d="M561 73v166c0 27.333 -6.66699 48.5 -20 63.5s-30 22.5 -50 22.5s-36.667 -7.5 -50 -22.5s-20 -36.167 -20 -63.5v-166c0 -26.667 6.66699 -47.667 20 -63s30 -23 50 -23s36.667 7.66699 50 23s20 36.333 20 63zM516 59c0 -7.33301 -2.33301 -13.666 -7 -18.999
s-10.667 -8 -18 -8s-13.333 2.66699 -18 8s-7 11.666 -7 18.999v195c0 7.33301 2.33301 13.5 7 18.5s10.667 7.5 18 7.5s13.333 -2.5 18 -7.5s7 -11.167 7 -18.5v-195zM385 73v166c0 27.333 -6.66699 48.5 -20 63.5s-30 22.5 -50 22.5s-36.667 -7.5 -50 -22.5
s-20 -36.167 -20 -63.5v-166c0 -26.667 6.66699 -47.667 20 -63s30 -23 50 -23s36.667 7.66699 50 23s20 36.333 20 63zM340 59c0 -7.33301 -2.33301 -13.666 -7 -18.999s-10.667 -8 -18 -8s-13.333 2.66699 -18 8s-7 11.666 -7 18.999v195c0 7.33301 2.33301 13.5 7 18.5
s10.667 7.5 18 7.5s13.333 -2.5 18 -7.5s7 -11.167 7 -18.5v-195zM380 664l-27 20l-324 -684l26 -20zM164 425v166c0 26.667 -6.66699 47.5 -20 62.5s-30.333 22.5 -51 22.5c-20 0 -36.667 -7.5 -50 -22.5s-20 -35.833 -20 -62.5v-166c0 -26.667 6.66699 -47.667 20 -63
s30 -23 50 -23c20.667 0 37.667 7.66699 51 23s20 36.333 20 63zM119 411c0 -8 -2.5 -14.5 -7.5 -19.5s-11.167 -7.5 -18.5 -7.5s-13.333 2.5 -18 7.5s-7 11.5 -7 19.5v195c0 7.33301 2.33301 13.5 7 18.5s10.667 7.5 18 7.5s13.5 -2.5 18.5 -7.5s7.5 -11.167 7.5 -18.5
v-195z" />
    <glyph glyph-name="guilsinglleft" unicode="&#x2039;" horiz-adv-x="175" 
d="M155 0c0 46 -7 84.833 -21 116.5s-32.667 57.167 -56 76.5c23.333 19.333 42 45 56 77s21 71 21 117h-33c-6 -40.667 -18.333 -74.5 -37 -101.5s-42 -48.167 -70 -63.5v-57c28 -15.333 51.333 -36.5 70 -63.5s31 -60.833 37 -101.5h33z" />
    <glyph glyph-name="guilsinglright" unicode="&#x203a;" horiz-adv-x="175" 
d="M160 165v57c-28 15.333 -51.333 36.5 -70 63.5s-31 60.833 -37 101.5h-32c0 -46 6.83301 -85 20.5 -117s32.5 -57.667 56.5 -77c-24 -19.333 -42.833 -44.833 -56.5 -76.5s-20.5 -70.5 -20.5 -116.5h32c6 40.667 18.333 74.5 37 101.5s42 48.167 70 63.5z" />
    <glyph glyph-name="trademark" unicode="&#x2122;" horiz-adv-x="397" 
d="M365 482v184h-53l-26 -102l-13 -49l-12 49l-28 102h-52v-184h34v149l13 -52l28 -97h32l30 97l13 52v-149h34zM149 635v31h-135v-31h49v-153h37v153h49z" />
    <glyph glyph-name="product" unicode="&#x220f;" horiz-adv-x="304" 
d="M215 0l72.999 -0.000976562l-71 299c22.667 7.33301 38.834 20.333 48.501 39s14.5 40.334 14.5 65.001v143c0 22 -2.83301 40.667 -8.5 56s-13.5 27.833 -23.5 37.5s-21.833 16.5 -35.5 20.5s-28.167 6 -43.5 6h-132v-666h73v285h39zM109.999 348.999v248.999h58
c26.667 0 40 -15.667 40 -47v-148c0 -17.333 -4.16699 -30.666 -12.5 -39.999s-19.833 -14 -34.5 -14h-51z" />
    <glyph glyph-name="fraction" unicode="&#x2215;" horiz-adv-x="84" 
d="M309 715l-31 22l-501 -786l32 -22z" />
    <glyph glyph-name="radical" unicode="&#x221a;" horiz-adv-x="442" 
d="M151 408v58h-45v94c0 15.333 3 27.166 9 35.499s15.667 12.5 29 12.5h14v58h-16c-33.333 0 -57.333 -11.167 -72 -33.5s-22 -55.166 -22 -98.499v-68h-36v-58h36v-408h61v408h42zM308 408v58h-45v94c0 15.333 3 27.166 9 35.499s15.667 12.5 29 12.5h14v58h-16
c-33.333 0 -57.333 -11.167 -72 -33.5s-22 -55.166 -22 -98.499v-68h-36v-58h36v-408h61v408h42zM409 0v666h-61v-666h61z" />
    <glyph glyph-name="approxequal" unicode="&#x2248;" horiz-adv-x="442" 
d="M151 408v58h-45v94c0 15.333 3 27.166 9 35.499s15.667 12.5 29 12.5h14v58h-16c-33.333 0 -57.333 -11.167 -72 -33.5s-22 -55.166 -22 -98.499v-68h-36v-58h36v-408h61v408h42zM308 408v58h-45v94c0 15.333 3 27.166 9 35.499s15.667 12.5 29 12.5h14v58h-16
c-33.333 0 -57.333 -11.167 -72 -33.5s-22 -55.166 -22 -98.499v-68h-36v-58h36v-408h61v408h42zM406 532v75h-55v-75h55zM409 0v468h-61v-468h61z" />
    <glyph glyph-name="notequal" unicode="&#x2260;" horiz-adv-x="494" 
d="M470 0v468h-446v-468h446z" />
    <glyph glyph-name="lessequal" unicode="&#x2264;" horiz-adv-x="328" 
d="M272 136v198l-219 -92v-13z" />
    <glyph glyph-name="greaterequal" unicode="&#x2265;" horiz-adv-x="328" 
d="M282 229v13l-219 92v-198z" />
    <glyph glyph-name="apple" unicode="&#xf8ff;" horiz-adv-x="967" 
d="M868 0v750h-767v-750h767zM859 -104l-6 34h-1l-13 -26l-13 26h-1l-6 -34h6l3 20l10 -21h2l10 21l3 -20h6zM806 -87c0 4.66699 -1.50098 8.66699 -4.50098 12s-6.83301 5 -11.5 5c-5.33301 0 -9.66602 -1.66699 -12.999 -5s-5 -7.66602 -5 -12.999
c0 -4.66699 1.5 -8.66699 4.5 -12s7.16699 -5 12.5 -5s9.5 1.66699 12.5 5s4.5 7.66602 4.5 12.999zM757.999 -96c-4 -2.66699 -7.33301 -4 -10 -4c-8.66699 0 -13 4.33301 -13 13c0 3.33301 1.16699 6.16602 3.5 8.49902s5.16602 3.5 8.49902 3.5c4 0 7 -1 9 -3l2 5
c-3.33301 2 -7 3 -11 3c-5.33301 0 -9.66602 -1.66699 -12.999 -5s-5 -7.66602 -5 -12.999c0 -11.333 6 -17 18 -17c4.66699 0 8 1 10 3zM701.999 -71h-7l-9 -14l-11 15l-6 -1l14 -19v-14h6v14zM655.999 -104v33h-6v-13h-16v13h-6v-33h6v15h16v-15h6zM611.999 -82
c0 3.33301 -1.5 6.33203 -4.5 8.99902s-9.16699 3.33398 -18.5 2.00098v-33h6v10c11.333 0 17 4 17 12zM575.999 -104.001l-16 34h-2l-15 -34h6l3 8h14l4 -8h6zM533.999 -104.001l-10 13.001c4.66699 2 7 5.33301 7 10c0 3.33301 -1.5 6.16602 -4.5 8.49902
s-9.16699 2.83301 -18.5 1.5v-33h6v11h5l8 -11h7zM490.999 -101v14.999h-15v-5h9v-7c-2.66699 -1.33301 -4.66699 -2 -6 -2c-8.66699 0 -13 4 -13 12c0 8.66699 4 13 12 13c4.66699 0 8.33398 -1.33301 11.001 -4l2 5c-4 2.66699 -8 4 -12 4
c-5.33301 0 -9.83301 -1.66699 -13.5 -5s-5.5 -7.66602 -5.5 -12.999s1.66699 -9.5 5 -12.5s7.66602 -4.5 12.999 -4.5c4.66699 0 9 1.33301 13 4zM446.999 -87.001c0 4.66699 -1.50098 8.66699 -4.50098 12s-6.83301 5 -11.5 5c-5.33301 0 -9.66602 -1.66699 -12.999 -5
s-5 -7.66602 -5 -12.999c0 -4.66699 1.5 -8.66699 4.5 -12s7.16699 -5 12.5 -5s9.5 1.66699 12.5 5s4.5 7.66602 4.5 12.999zM399.998 -82.001c0 3.33301 -1.5 6.33203 -4.5 8.99902s-9.16699 3.33398 -18.5 2.00098v-33h6v10c11.333 0 17 4 17 12zM363.998 -71.002h-7
l-9 -14l-11 15l-6 -1l14 -19v-14h6v14zM322.998 -71.002h-30v-5h12v-28h6v28h12v5zM266.998 -71.002h-6l-7 -22l-10 23h-1l-10 -23l-7 23l-6 -1l12 -34h1l10 23l11 -23h1zM210.998 -71.002h-6l-7 -22l-10 23h-1l-10 -23l-7 23l-6 -1l12 -34h1l10 23l11 -23h1z
M154.998 -71.002h-6l-7 -22l-10 23h-1l-10 -23l-7 23l-6 -1l12 -34h1l10 23l11 -23h1zM715.998 -101.002c0 2.66699 -1.33301 4 -4 4s-4 -1.33301 -4 -4s1.33301 -4 4 -4s4 1.33301 4 4zM283.998 -101.002c0 2.66699 -1.33301 4 -4 4s-4 -1.33301 -4 -4s1.33301 -4 4 -4
s4 1.33301 4 4zM558.998 685.998h-2l-2.5 4.5c-1.66699 3 -4.16699 4.5 -7.5 4.5c-2 0 -3 -1 -3 -3v-23c0 -3.33301 0.666992 -5 2 -5h3v-2h-17v2h2c2 0 3 1.66699 3 5v23c0 2 -1 3 -3 3c-3.33301 0 -5.83301 -1.5 -7.5 -4.5l-2.5 -4.5h-2l0.5 4.5
c0.333008 3 0.5 5.5 0.5 7.5c2 -0.666992 8 -1 18 -1s15.667 0.333008 17 1c0.666992 -2 1 -4.66699 1 -8v-4zM503.998 661.998h-18v2h2c2 0 3 1.66699 3 5v10h-17v-10c0 -2.66699 0.833008 -4.16699 2.5 -4.5l2.5 -0.5v-2h-17v2l2.5 0.5
c1.66699 0.333008 2.5 1.83301 2.5 4.5v21c0 3.33301 -1 5 -3 5h-2v2h17v-1v-1h-3c-1.33301 0 -2 -1.66699 -2 -5v-9h17v9c0 3.33301 -1 5 -3 5h-2v1v1h18v-2h-3c-2 0 -3 -1.66699 -3 -5v-21c0 -3.33301 1 -5 3 -5h3v-2zM438.998 663.998l-0.000976562 -2h-30l-2 11l2 1
l2.5 -4.5c1.66699 -3 4.16699 -4.5 7.5 -4.5h4c2.66699 0 4 1 4 3v11h-4c-3.33301 0 -5.16602 -1 -5.49902 -3l-0.5 -3h-2v13h2l0.5 -2.5c0.333008 -1.66699 2.16602 -2.5 5.49902 -2.5h4v10c0 2 -1.33301 3 -4 3h-4c-3.33301 0 -5.66602 -1.33301 -6.99902 -4l-2 -4l-2 1
l2 10h29v-2h-3c-1.33301 0 -2 -1.66699 -2 -5v-21c0 -3.33301 0.666992 -5 2 -5h3zM826.997 617.998h-685v6h685v-6zM695.997 539.998c0 -8 -2.66699 -13.667 -8 -17s-10.333 -5 -15 -5c-9.33301 0 -17.833 3.66699 -25.5 11s-11.5 16.333 -11.5 27c0 8 2.66699 13.667 8 17
s10.333 5 15 5c9.33301 0 17.833 -3.83301 25.5 -11.5s11.5 -16.5 11.5 -26.5zM588.997 536.998c0 -5.33301 -1.99805 -9.83496 -5.99805 -13.502s-10.333 -5.5 -19 -5.5c-10.667 0 -16 4.33301 -16 13c0 6.66699 3 10 9 10c4.66699 0 7 -1.66699 7 -5s-1.33301 -5 -4 -5
c-1.33301 0 -2.33301 0.333008 -3 1s-1.33398 1 -2.00098 1c-2 0 -3 -1 -3 -3c0 -6 4 -9 12 -9s12 4.66699 12 14c0 6.66699 -2 11.667 -6 15c-3.33301 -3.33301 -7 -5 -11 -5c-5.33301 0 -8 2 -8 6c0 5.33301 5.33301 7.33301 16 6c1.33301 1.33301 2 3.33301 2 6
c0 8 -3.33301 12 -10 12c-4.66699 0 -7 -1.66699 -7 -5c0 -1.33301 0.5 -2.16602 1.5 -2.49902s1.5 -1.5 1.5 -3.5s-1.33301 -3 -4 -3c-3.33301 0 -5 2 -5 6c0 7.33301 4.33301 11 13 11c7.33301 0 12.666 -1.66699 15.999 -5s5 -6.66602 5 -9.99902c0 -4 -1.66699 -7 -5 -9
c9.33301 -3.33301 14 -9 14 -17zM294.999 536.996c0 -5.33301 -1.99805 -9.83496 -5.99805 -13.502s-10.333 -5.5 -19 -5.5c-10.667 0 -16 4.33301 -16 13c0 6.66699 3 10 9 10c4.66699 0 7 -1.66699 7 -5s-1.33301 -5 -4 -5c-1.33301 0 -2.33301 0.333008 -3 1
s-1.33398 1 -2.00098 1c-2 0 -3 -1 -3 -3c0 -6 4 -9 12 -9s12 4.66699 12 14c0 6.66699 -2 11.667 -6 15c-3.33301 -3.33301 -7 -5 -11 -5c-5.33301 0 -8 2 -8 6c0 5.33301 5.33301 7.33301 16 6c1.33301 1.33301 2 3.33301 2 6c0 8 -3.33301 12 -10 12
c-4.66699 0 -7 -1.66699 -7 -5c0 -1.33301 0.5 -2.16602 1.5 -2.49902s1.5 -1.5 1.5 -3.5s-1.33301 -3 -4 -3c-3.33301 0 -5 2 -5 6c0 7.33301 4.33301 11 13 11c7.33301 0 12.666 -1.66699 15.999 -5s5 -6.66602 5 -9.99902c0 -4 -1.66699 -7 -5 -9
c9.33301 -3.33301 14 -9 14 -17zM820.001 521.994l0.999023 -3h-29l-1 3l4.5 0.5c3 0.333008 3.83301 2.83301 2.5 7.5l-3 16h-24l3 -16c1.33301 -4.66699 3.33301 -7.16699 6 -7.5l4 -0.5l1 -3h-29l-1 3l4.5 0.5c3 0.333008 3.83301 2.83301 2.5 7.5l-7 35
c-1.33301 4.66699 -3.33301 7.16699 -6 7.5l-4 0.5l-1 3h29l1 -3l-4.5 -0.5c-3 -0.333008 -3.83301 -2.83301 -2.5 -7.5l3 -15h24l-3 15c-1.33301 4.66699 -3.16602 7.16699 -5.49902 7.5l-3.5 0.5l-1 3h28l1 -3l-4.5 -0.5c-3 -0.333008 -3.83301 -2.83301 -2.5 -7.5l7 -35
c1.33301 -4.66699 3.33301 -7.16699 6 -7.5zM498 518.994h-29l-1 3l4.5 0.5c3 0.333008 3.83301 2.83301 2.5 7.5l-3 17h-4c-4.66699 0 -7.16699 -1.83301 -7.5 -5.5l-0.5 -5.5h-3l-5 23h3l2.5 -4.5c1.66699 -3 4.83398 -4.5 9.50098 -4.5h4l-3 16
c-0.666992 4 -2.66699 6 -6 6h-4c-7.33301 0 -11.333 -2.16699 -12 -6.5l-1 -6.5h-4l0.5 7c0.333008 4.66699 0.166016 8 -0.500977 10h45l1 -3l-4.5 -0.5c-3 -0.333008 -3.83301 -2.83301 -2.5 -7.5l7 -35c1.33301 -4.66699 3.33301 -7.16699 6 -7.5l4 -0.5zM202 521.994
l1.00098 -3.00098h-29l-1 3l4.5 0.5c3 0.333008 3.83301 2.83301 2.5 7.5l-3 15c-2.66699 0 -4.33398 -1 -5.00098 -3l-12 -23h-19l-1 3l5 0.5c3.33301 0.333008 6.33301 2.83301 9 7.5l9 16c-5.33301 0.666992 -9.83301 2.33398 -13.5 5.00098s-5.5 6 -5.5 10
c0 10 6.66699 15 20 15h27l1 -3l-4.5 -0.5c-3 -0.333008 -3.83301 -2.83301 -2.5 -7.5l7 -35c1.33301 -4.66699 3.33301 -7.16699 6 -7.5zM400.001 520.993c0 -2 -1.33203 -3.00098 -3.99902 -3.00098c-6 0 -10 2.33301 -12 7c-5.33301 0 -8.66602 -2.16699 -9.99902 -6.5
s-6.33301 -6.5 -15 -6.5c-3.33301 0 -6.66602 1.16699 -9.99902 3.5s-5 5.16602 -5 8.49902c0 4.66699 1.66699 7 5 7s5 -1.66699 5 -5c0 -1.33301 -0.333008 -2.16602 -1 -2.49902s-1 -1.16602 -1 -2.49902c0 -2.66699 1.66699 -4 5 -4s6.16602 2.16699 8.49902 6.5
s7.16602 6.5 14.499 6.5c-4 4 -6.83301 8.5 -8.5 13.5s-2.83398 9.83301 -3.50098 14.5s-1.5 8.66699 -2.5 12s-3.16699 5 -6.5 5s-5 -2 -5 -6s-1.33301 -6 -4 -6c-3.33301 0 -5 1.66699 -5 5c0 2 1.33301 4.16699 4 6.5s5.66699 3.5 9 3.5c8 0 13.5 -2.16699 16.5 -6.5
s5 -9.33301 6 -15s1.66699 -11 2 -16s1.83301 -8.5 4.5 -10.5c4.66699 -0.666992 8 -2 10 -4s3 -3.66699 3 -5zM827.002 474.992h-685v6h685v-6zM827.002 377.992h-36v28h-11v-65h14v-33h-81v33h14v65h-11v-28h-36v62h147v-62zM648.002 405.992h-14l-37 -45v-20h15v-33h-81
v33h14v19l-37 46h-12v34h62v-34h-10l15 -23l15 23h-11v34h81v-34zM458.002 307.992h-81v33h15v19h-30c-14.667 0 -26.167 3.83301 -34.5 11.5s-12.5 17.167 -12.5 28.5s4.16699 20.833 12.5 28.5s19.833 11.5 34.5 11.5h96v-34h-14v-65h14v-33zM283.002 307.992h-141v61h41
v-28h33v21h-24v24h24v20h-33v-28h-41v62h141v-34h-14v-65h14v-33zM827.002 270.992h-685v6h685v-6zM728.002 191.992c0 -8 -2.66699 -13.667 -8 -17s-10.333 -5 -15 -5c-9.33301 0 -17.833 3.66699 -25.5 11s-11.5 16.333 -11.5 27c0 8 2.66699 13.667 8 17s10.333 5 15 5
c9.33301 0 17.833 -3.83301 25.5 -11.5s11.5 -16.5 11.5 -26.5zM203.002 216.992l-1.99609 -2.00293l-4.5 4.5c-1.66699 1.66699 -4.16699 2.5 -7.5 2.5c-6 0 -9 -4.33301 -9 -13c0 -5.33301 1.66699 -13.666 5 -24.999c1.33301 -5.33301 3.33301 -8.16602 6 -8.49902
l4 -0.5l1 -4h-28l-1 4l4.5 1c3 0.666992 3.5 5.33398 1.5 14.001c-2 8 -4.83301 15.5 -8.5 22.5s-8.83398 10.5 -15.501 10.5c-5.33301 0 -8 -2 -8 -6l-3 1c0 4 1.16699 7 3.5 9s5.16602 3 8.49902 3c5.33301 0 9.66602 -2.16699 12.999 -6.5s6 -9.83301 8 -16.5
c-0.666992 15.333 4 23 14 23c5.33301 0 9.16602 -1.33301 11.499 -4s4.5 -5.66699 6.5 -9zM823.006 170.989h-29l-1 3l4.5 0.5c3 0.333008 3.83301 2.83301 2.5 7.5l-3 17h-4c-4.66699 0 -7.16699 -1.83301 -7.5 -5.5l-0.5 -5.5h-3l-5 23h3l2.5 -4.5
c1.66699 -3 4.83398 -4.5 9.50098 -4.5h4l-3 16c-0.666992 4 -2.66699 6 -6 6h-4c-7.33301 0 -11.333 -2.16699 -12 -6.5l-1 -6.5h-4l0.5 7c0.333008 4.66699 0.166016 8 -0.500977 10h45l1 -3l-4.5 -0.5c-3 -0.333008 -3.83301 -2.83301 -2.5 -7.5l7 -35
c1.33301 -4.66699 3.33301 -7.16699 6 -7.5l4 -0.5zM621.006 224.989l-5 -0.5c-3.33301 -0.333008 -4.33301 -3.16602 -3 -8.49902l5 -22c1.33301 -5.33301 1.33301 -10.666 0 -15.999s-7.66602 -8 -18.999 -8c-9.33301 0 -16 3.16699 -20 9.5s-6.66699 12.166 -8 17.499
l-4 19c-1.33301 5.33301 -3.5 8.16602 -6.5 8.49902l-4.5 0.5l-1 3h24v-3l-4.5 -0.5c-3 -0.333008 -3.83301 -3.16602 -2.5 -8.49902l4 -19c1.33301 -6 3.66602 -11.167 6.99902 -15.5s7.66602 -6.5 12.999 -6.5c7.33301 0 11.333 1.66699 12 5
s0.333984 8.33301 -0.999023 15l-5 21c-1.33301 5.33301 -3.33301 8.16602 -6 8.49902l-4 0.5l-1 3h29zM522.006 173.989l0.999023 -3.00098h-21l-1 3l4 1c2.66699 0.666992 3.33398 3.66699 2.00098 9l-6 30l-30 -44l-3 1l-8 45
c-1.33301 4.66699 -3.16602 7.33398 -5.49902 8.00098l-3.5 1l-1 3h21l1 -3l-4.5 -1c-3 -0.666992 -3.83301 -3.33398 -2.5 -8.00098l5 -30l29 42h14l1 -3l-5 -0.5c-3.33301 -0.333008 -4.33301 -3.16602 -3 -8.49902l7 -32c1.33301 -5.33301 3.16602 -8.33301 5.49902 -9z
M414.005 170.988l-32 -0.000976562c-8.66699 0 -16.667 3.16699 -24 9.5s-11 14.833 -11 25.5c0 7.33301 2.66699 12.833 8 16.5s11 5.5 17 5.5h30l1 -3c-7.33301 -0.666992 -10 -4 -8 -10l8 -31c1.33301 -5.33301 3.33301 -8.16602 6 -8.49902l4 -0.5zM306.005 173.987
l1.00098 -3.00098h-29l-1 3l4.5 0.5c3 0.333008 3.83301 2.83301 2.5 7.5l-3 15c-2.66699 0 -4.33398 -1 -5.00098 -3l-12 -23h-19l-1 3l5 0.5c3.33301 0.333008 6.33301 2.83301 9 7.5l9 16c-5.33301 0.666992 -9.83301 2.33398 -13.5 5.00098s-5.5 6 -5.5 10
c0 10 6.66699 15 20 15h27l1 -3l-4.5 -0.5c-3 -0.333008 -3.83301 -2.83301 -2.5 -7.5l7 -35c1.33301 -4.66699 3.33301 -7.16699 6 -7.5zM827.006 126.986h-685v6h685v-6zM694.006 45.9863l-14 -0.000976562v2l2.5 1c1.66699 0.666992 2.5 2 2.5 4v20l-25 -28h-3v28
c0 2.66699 -1 4.33398 -3 5.00098l-3 1v2h15v-2l-3 -1c-2 -0.666992 -3 -2.33398 -3 -5.00098v-18l24 26h10v-2l-3 -2c-2 -1.33301 -3 -2.66602 -3 -3.99902v-20c0 -2 1 -3.33301 3 -4l3 -1v-2zM633.006 47.9854l-0.000976562 -2h-30l-2 11l2 1l2.5 -4.5
c1.66699 -3 4.16699 -4.5 7.5 -4.5h4c2.66699 0 4 1 4 3v11h-4c-3.33301 0 -5.16602 -1 -5.49902 -3l-0.5 -3h-2v13h2l0.5 -2.5c0.333008 -1.66699 2.16602 -2.5 5.49902 -2.5h4v10c0 2 -1.33301 3 -4 3h-4c-3.33301 0 -5.66602 -1.33301 -6.99902 -4l-2 -4l-2 1l2 10h29v-2
h-3c-1.33301 0 -2 -1.66699 -2 -5v-21c0 -3.33301 0.666992 -5 2 -5h3zM583.005 80.9854l-0.00195312 -1.99902l-2.5 -0.5c-1.66699 -0.333008 -3.16699 -2.16602 -4.5 -5.49902l-12 -27h-1l-9 16l-8 -16c0 -0.666992 -0.166992 -0.833984 -0.5 -0.500977l-0.5 0.5h-1
l-13 27c-1.33301 2.66699 -2.66602 4.33398 -3.99902 5.00098l-2 1v2h13v-2l-2 -1c-1.33301 -0.666992 -1.33301 -2.33398 0 -5.00098l8 -18l7 13l-3 5c-2 3.33301 -3.66699 5.16602 -5 5.49902l-2 0.5l-1 2h26v-2l-2 -1.5c-1.33301 -1 -2.66602 -2.5 -3.99902 -4.5l-4 -8
l5 -10l9 19c1.33301 2 1.33301 3.33301 0 4l-2 1v2h15zM480.003 78.9863l-2.49902 -0.5c-1.66699 -0.333008 -3.16699 -1.83301 -4.5 -4.5l-8 -12v-8c0 -3.33301 0.833008 -5.16602 2.5 -5.49902l2.5 -0.5v-2h-17v2l2.5 0.5c1.66699 0.333008 2.5 2.16602 2.5 5.49902v8
l-8 12c-1.33301 2.66699 -3 4.16699 -5 4.5l-3 0.5v2h15v-2l-2.5 -0.5c-1.66699 -0.333008 -1.83398 -1.83301 -0.500977 -4.5l6 -9l6 9c1.33301 2.66699 1.5 4.16699 0.5 4.5l-1.5 0.5v2h15v-2zM425.004 63.9863c0 -5.33301 -1.66699 -9.83301 -5 -13.5
s-8.33301 -5.5 -15 -5.5s-11.667 1.83301 -15 5.5s-5 8.16699 -5 13.5s1.66699 9.66602 5 12.999s8.33301 5 15 5s11.667 -1.66699 15 -5s5 -7.66602 5 -12.999zM364.004 45.9863l-17 -0.000976562v2l2.5 0.5c1.66699 0.333008 2.5 1.83301 2.5 4.5v9
c-2.66699 0 -5 -1.33301 -7 -4l-7 -12h-11v2l2.5 0.5c1.66699 0.333008 3.5 1.83301 5.5 4.5l7 10c-6 2.66699 -9 5.66699 -9 9c0 6 4.33301 9 13 9h18v-2l-2.5 -0.5c-1.66699 -0.333008 -2.5 -2.16602 -2.5 -5.49902v-20c0 -2.66699 0.833008 -4.16699 2.5 -4.5l2.5 -0.5
v-2zM309.004 45.9854l-18 0.00195312v2l3 0.5c2 0.333008 3 2.16602 3 5.49902v9c-1.33301 0 -2.66602 -0.666992 -3.99902 -2l-8 -8c-2 -2.66699 -2.16699 -4.16699 -0.5 -4.5l2.5 -0.5v-2h-17v2l2.5 1.5c1.66699 1 3.16699 2.16699 4.5 3.5l13 13l-10 9
c-1.33301 1.33301 -3 2.33301 -5 3l-3 1v2h14v-2l-1.5 -1c-1 -0.666992 -0.833008 -1.66699 0.5 -3l8 -8c1.33301 -1.33301 2.66602 -2 3.99902 -2v9c0 2.66699 -1 4.16699 -3 4.5l-3 0.5v2h18v-2l-3 -0.5c-2 -0.333008 -3 -1.83301 -3 -4.5v-20
c0 -2.66699 1 -4.33398 3 -5.00098l3 -1v-2zM606.004 -83.0127c0 -4 -3.66699 -6.00098 -11 -6.00098v13c7.33301 0.666992 11 -1.66602 11 -6.99902zM525.004 -82.0137c0 -4.66699 -3.66699 -6.66699 -11 -6v12c7.33301 1.33301 11 -0.666992 11 -6zM394.004 -83.0137
c0 -4 -3.66699 -6.00098 -11 -6.00098v13c7.33301 0.666992 11 -1.66602 11 -6.99902zM564.004 -92.0146h-10l5 12zM800.004 -88.0146c0 -8 -3.66699 -12 -11 -12s-11 4.33301 -11 13c0 8 3.66699 12 11 12s11 -4.33301 11 -13zM441.004 -88.0146c0 -8 -3.66699 -12 -11 -12
s-11 4.33301 -11 13c0 8 3.66699 12 11 12s11 -4.33301 11 -13zM176.004 547.985l-2.99902 18.999c-0.666992 3.33301 -3.66699 5 -9 5s-8 -3 -8 -9c0 -3.33301 1.16699 -6.66602 3.5 -9.99902s6.16602 -5 11.499 -5h5zM566.005 552.984c-1.33301 0.666992 -3.66699 1 -7 1
c-2.66699 0 -4 -1 -4 -3c0 -1.33301 1.33301 -2 4 -2s5 1.33301 7 4zM272.004 552.984c-1.33301 0.666992 -3.66699 1 -7 1c-2.66699 0 -4 -1 -4 -3c0 -1.33301 1.33301 -2 4 -2s5 1.33301 7 4zM684.003 534.984c0 10.667 -2.66699 19.833 -8 27.5s-11 11.5 -17 11.5
c-7.33301 0 -11 -4.66699 -11 -14c0 -10 2.66699 -18.833 8 -26.5s11 -11.5 17 -11.5c7.33301 0 11 4.33301 11 13zM392.003 383.983v22h-11c-8.66699 0 -13 -3.66699 -13 -11s4.33301 -11 13 -11h11zM280.003 199.983l-2.99902 18.999c-0.666992 3.33301 -3.66699 5 -9 5
s-8 -3 -8 -9c0 -3.33301 1.16699 -6.66602 3.5 -9.99902s6.16602 -5 11.499 -5h5zM716.004 186.982c0 10.667 -2.66699 19.833 -8 27.5s-11 11.5 -17 11.5c-7.33301 0 -11 -4.66699 -11 -14c0 -10 2.66699 -18.833 8 -26.5s11 -11.5 17 -11.5c7.33301 0 11 4.33301 11 13z
M393.004 181.981l-9.00098 35.001c-1.33301 3.33301 -2.16602 5.16602 -2.49902 5.49902s-1.5 0.833008 -3.5 1.5h-6c-9.33301 0 -14 -5.66699 -14 -17c0 -8 2.5 -15.333 7.5 -22s11.167 -10 18.5 -10h5c2.66699 0 4 2.33301 4 7zM553.003 78.9824
c-3.33301 0 -3.33301 -3 0 -9c2.66699 6 2.66699 9 0 9zM352.003 63.9824v10c0 2.66699 -1.33301 4 -4 4c-4.66699 0 -7 -2 -7 -6c0 -5.33301 2.66699 -8 8 -8h3zM417.003 63.9824c0 10.667 -4.00098 16 -12.001 16s-12 -5.33301 -12 -16c0 -4.66699 1 -8.66699 3 -12
s5 -5 9 -5c4.66699 0 7.83398 1.66699 9.50098 5s2.5 7.33301 2.5 12z" />
    <glyph glyph-name="fi" unicode="&#xfb01;" horiz-adv-x="285" 
d="M151 408v58h-45v94c0 15.333 3 27.166 9 35.499s15.667 12.5 29 12.5h14v58h-16c-33.333 0 -57.333 -11.167 -72 -33.5s-22 -55.166 -22 -98.499v-68h-36v-58h36v-408h61v408h42zM248 532v75h-54v-75h54zM251 0v468h-60v-468h60z" />
    <glyph glyph-name="fl" unicode="&#xfb02;" horiz-adv-x="285" 
d="M151 408v58h-45v94c0 15.333 3 27.166 9 35.499s15.667 12.5 29 12.5h14v58h-16c-33.333 0 -57.333 -11.167 -72 -33.5s-22 -55.166 -22 -98.499v-68h-36v-58h36v-408h61v408h42zM251 0v666h-60v-666h60z" />
    <glyph glyph-name="NUL" horiz-adv-x="1000" 
 />
    <glyph glyph-name="nonmarkingreturn" horiz-adv-x="115" 
 />
    </font>
</defs>
</svg>
